<svg width="26" height="26" viewBox="0 0 26 26" xmlns="http://www.w3.org/2000/svg">
<path d="m 7.9999975,13.5 v 5 c 2.9999995,-2 7.9999995,-2 10.9999995,0 v -5 l -5.5,2 z m -3,1.5 c 0,0 -0.5,2 -0.5,5 h 2 c 0,-3 -0.5,-5 -0.5,-5 z M 13.486328,6.500241 c -0.0575,0.0013 -0.1143,0.01256 -0.16796,0.0332 l -8.9975405,3.499472 c -0.42777,0.164125 -0.42777,0.769328 0,0.933453 L 13.480468,9.247879 c 1.544209,-0.03778 1.77068,2.209001 0.24999,2.480094 l -5.0290205,0.943217 4.6169305,1.794651 c 0.116799,0.04555 0.24646,0.04555 0.363259,0 l 8.997539,-3.499471 c 0.42777,-0.164125 0.42777,-0.769328 0,-0.933453 L 13.681627,6.533444 c -0.0622,-0.02398 -0.128639,-0.03527 -0.1953,-0.0332 z" style="fill: #000000; fill-opacity: 1; stroke: none; stroke-width: 1px; stroke-linecap: butt; stroke-linejoin: miter; stroke-opacity: 1;" />
<path d="M 13.499997,10.5 5.4999975,12 v 4.5" style="fill: none; stroke: #000000; stroke-width: 1px; stroke-linecap: round; stroke-linejoin: round; stroke-opacity: 1;" />
</svg>