<svg width="26" height="26" viewBox="0 0 26 26" xmlns="http://www.w3.org/2000/svg">
<path d="M 12.5,7 C 12.223,7 12,7.223 12,7.5 V 12 H 7.5 C 7.223,12 7,12.223 7,12.5 v 1 C 7,13.777 7.223,14 7.5,14 H 12 v 4.5 c 0,0.277 0.223,0.5 0.5,0.5 h 1 C 13.777,19 14,18.777 14,18.5 V 14 h 4.5 c 0.277,0 0.5,-0.223 0.5,-0.5 v -1 C 19,12.223 18.777,12 18.5,12 H 14 V 7.5 C 14,7.223 13.777,7 13.5,7 Z" style="opacity: 1; fill: #000000; fill-opacity: 1; stroke: none; stroke-width: 1; stroke-linecap: round; stroke-linejoin: round; stroke-miterlimit: 4; stroke-dasharray: none; stroke-dashoffset: 0; stroke-opacity: 1;" />
</svg>