<svg width="26" height="26" viewBox="0 0 26 26" xmlns="http://www.w3.org/2000/svg">
<path d="m 12.5,7 h 1 C 13.777,7 14,7.223 14,7.5 V 12 h 4.5 c 0.277,0 0.5,0.223 0.5,0.5 v 1 C 19,13.777 18.777,14 18.5,14 H 14 v 4.5 c 0,0.277 -0.223,0.5 -0.5,0.5 h -1 C 12.223,19 12,18.777 12,18.5 V 14 H 7.5 C 7.223,14 7,13.777 7,13.5 v -1 C 7,12.223 7.223,12 7.5,12 H 12 V 7.5 C 12,7.223 12.223,7 12.5,7 Z" style="opacity: 1; fill: #000000; fill-opacity: 1; stroke: none; stroke-width: 2; stroke-linecap: round; stroke-linejoin: round; stroke-miterlimit: 4; stroke-dasharray: none; stroke-dashoffset: 0; stroke-opacity: 1;" />
<circle cx="13" cy="13" r="9.5" style="opacity: 1; fill: none; fill-opacity: 1; stroke: #000000; stroke-width: 1; stroke-linecap: butt; stroke-linejoin: miter; stroke-miterlimit: 4; stroke-dasharray: none; stroke-dashoffset: 0; stroke-opacity: 1;" />
</svg>