<svg width="26" height="26" viewBox="0 0 26 26" xmlns="http://www.w3.org/2000/svg">
<path d="M 12.5 5 C 12.223 5 12 5.223 12 5.5 L 12 12 L 5.5 12 C 5.223 12 5 12.223 5 12.5 L 5 13.5 C 5 13.777 5.223 14 5.5 14 L 12 14 L 12 20.5 C 12 20.777 12.223 21 12.5 21 L 13.5 21 C 13.777 21 14 20.777 14 20.5 L 14 14 L 20.5 14 C 20.777 14 21 13.777 21 13.5 L 21 12.5 C 21 12.223 20.777 12 20.5 12 L 14 12 L 14 5.5 C 14 5.223 13.777 5 13.5 5 L 12.5 5 z " style="opacity: 1; fill: #000000; fill-opacity: 1; stroke: none; stroke-width: 1; stroke-linecap: round; stroke-linejoin: round; stroke-miterlimit: 4; stroke-dasharray: none; stroke-dashoffset: 0; stroke-opacity: 1;" />
</svg>