<svg width="26" height="26" viewBox="0 0 26 26" xmlns="http://www.w3.org/2000/svg">
<path d="M 7.505242,16.99994 C 7.370044,17.00204 7.239537,16.94917 7.143945,16.853472 l -4.49767,-3.499615 c -0.195033,-0.195213 -0.195033,-0.511741 0,-0.706954 l 4.49767,-3.4996159 c 0.314764,-0.314696 0.853274,-0.09172 0.853444,0.353477 V 12.00049 l 3.4958,0.499945 c 0.675654,-0.0096 0.675654,1.009489 0,0.99989 l -3.4958,0.499945 v 2.499725 c 10e-6,0.273038 -0.219279,0.495645 -0.492147,0.499945 z m 10.989516,0 C 18.22189,16.99564 18.002601,16.773033 18.002612,16.499995 V 14.00027 l -3.495801,-0.499945 c -0.675653,0.0096 -0.675653,-1.00945 0,-0.99989 L 18.002612,12.00049 V 9.5007641 c 1.7e-4,-0.445202 0.538679,-0.668173 0.853444,-0.353477 l 4.497669,3.4996159 c 0.195033,0.195213 0.195033,0.511741 0,0.706954 l -4.497669,3.499615 c -0.09559,0.09569 -0.2261,0.14854 -0.361298,0.146468 z" style="opacity: 1; fill: #000000; fill-opacity: 1; stroke: none; stroke-width: 0.99999994px; stroke-linecap: butt; stroke-linejoin: round; stroke-miterlimit: 4; stroke-dasharray: none; stroke-dashoffset: 0; stroke-opacity: 1;" />
</svg>