<svg width="26" height="26" viewBox="0 0 26 26" xmlns="http://www.w3.org/2000/svg">
<path d="m 21.999941,7.505811 c -0.0043,0.272891 -0.226921,0.494326 -0.499975,0.494315 h -2.499878 v 2.499826 0.002 c -0.0022,2.999132 -4.999756,5.498477 -4.999756,7.498047 v 3 c 0,0.554 -0.445978,1 -0.999951,1 -0.553973,0 -0.999952,-0.446 -0.999952,-1 v -3 c 0,-1.99957 -4.9982591,-4.500868 -5.000429,-7.5 V 8.000173 H 4.5007954 C 4.0555661,8.000002 3.832581,7.459321 4.1472966,7.14453 L 7.6471258,3.646483 c 0.1952255,-0.195049 0.511772,-0.195049 0.7069975,0 L 11.853953,7.14453 c 0.09569,0.0956 0.148548,0.226118 0.146476,0.361328 -0.0043,0.272892 -0.22692,0.494326 -0.499975,0.494315 H 9.0005757 v 2.499779 0.002 C 9.0592098,13.041583 13,15.000149 13.000381,16.499999 13,15.000149 16.998071,13.000762 17.000185,10.501952 v -0.002 -2.499826 H 14.500307 C 14.055078,7.999955 13.832093,7.459275 14.146809,7.144484 l 3.499829,-3.498047 c 0.195225,-0.19505 0.511772,-0.19505 0.706997,0 l 3.49983,3.498047 c 0.09569,0.0956 0.148548,0.226118 0.146476,0.361327 z" style="opacity: 1; fill: #000000; fill-opacity: 1; stroke: none; stroke-width: 1px; stroke-linecap: butt; stroke-linejoin: round; stroke-miterlimit: 4; stroke-dasharray: none; stroke-dashoffset: 0; stroke-opacity: 1;" />
</svg>