<svg width="26" height="26" viewBox="0 0 26 26" xmlns="http://www.w3.org/2000/svg">
<path d="m 8.9633542,18.45124 1.7677668,1.767767 c 0.193095,0.193081 0.195447,0.505578 0.0055,0.701582 -0.09414,0.09707 -0.223805,0.151991 -0.359077,0.151918 l -4.9483664,-0.0014 C 5.1532284,21.070995 4.9293853,20.847152 4.9292545,20.571179 l -0.00138,-4.948367 c 4.24e-5,-0.445139 0.5385401,-0.668273 0.8535003,-0.353553 l 1.7677658,1.767767 9.4880434,-9.4880436 -1.767767,-1.767767 c -0.314719,-0.314961 -0.09159,-0.853458 0.353553,-0.8535 l 4.948367,0.0014 c 0.275973,1.31e-4 0.499816,0.223974 0.499947,0.499947 l 0.0014,4.9483656 c 7.1e-5,0.13527 -0.05485,0.264935 -0.151918,0.359078 -0.196003,0.189922 -0.508502,0.187572 -0.701582,-0.0055 L 18.451417,8.9632394 Z" style="opacity: 1; fill: #000000; fill-opacity: 1; stroke: none; stroke-width: 1px; stroke-linecap: butt; stroke-linejoin: round; stroke-miterlimit: 4; stroke-dasharray: none; stroke-dashoffset: 0; stroke-opacity: 1;" />
</svg>