<svg width="26" height="26" viewBox="0 0 26 26" xmlns="http://www.w3.org/2000/svg">
<path d="m 19,4.0001975 c 0,-0.554 -0.446,-1 -1,-1 -0.554001,0 -1,0.446 -1,1 v 2 c 0,2.5 -3.999999,3.9999985 -3.999999,5.9999985 0,-2 -4.0000005,-3.4999985 -4.0000005,-5.9999985 v -2 c 0,-0.554 -0.446,-1 -1,-1 -0.554,0 -1,0.446 -1,1 v 2 c 0,3 5.0000005,5.4999985 5.0000005,7.4999985 v 3.501953 H 9.5000005 c -0.445251,1.71e-4 -0.668247,0.538725 -0.353516,0.853516 l 3.5000005,3.498047 c 0.195235,0.19505 0.511796,0.19505 0.707032,0 l 3.499998,-3.498047 c 0.0957,-0.0956 0.148556,-0.226118 0.146485,-0.361328 -0.0043,-0.272891 -0.226932,-0.492199 -0.5,-0.492188 h -2.499999 v -3.501952 c 0,-2 4.999999,-4.4999995 4.999999,-7.4999995 z" style="opacity: 1; fill: #000000; fill-opacity: 1; stroke: none; stroke-width: 1px; stroke-linecap: butt; stroke-linejoin: round; stroke-miterlimit: 4; stroke-dasharray: none; stroke-dashoffset: 0; stroke-opacity: 1;" />
</svg>