<svg width="26" height="26" viewBox="0 0 26 26" xmlns="http://www.w3.org/2000/svg">
<path d="m 18.496093,4.0000004 c -0.272708,0.0043 -0.496103,0.226991 -0.496093,0.5 V 6.9999997 H 10 C 6.676,6.9999997 4,9.676 4,13 c 0,3.324 2.676,6 6,6 h 10 c 0.554,0 1,-0.446 1,-1 0,-0.554 -0.446,-1 -1,-1 H 10 C 7.784,17 6,15.216 6,13 6,10.784 7.784,9 10,9 h 8 v 2.5 c 1.7e-4,0.445155 0.542842,0.668179 0.857421,0.353516 l 3.496095,-3.500001 c 0.19492,-0.1951923 0.19492,-0.5118383 0,-0.7070313 L 18.857421,4.1464844 c -0.09554,-0.09568 -0.226209,-0.148556 -0.361328,-0.146484 z" style="opacity: 1; fill: #000000; fill-opacity: 1; stroke: none; stroke-width: 1; stroke-linecap: round; stroke-linejoin: round; stroke-miterlimit: 4; stroke-dasharray: none; stroke-dashoffset: 0; stroke-opacity: 1;" />
</svg>