<svg width="26" height="26" viewBox="0 0 26 26" xmlns="http://www.w3.org/2000/svg">
<path d="m 7.503612,3.9999997 c 0.272709,0.0043 0.496104,0.2269912 0.496094,0.5 v 2.5 h 8 c 3.324,0 6,2.676 6,6.0000003 0,3.324 -2.676,6 -6,6 h -8 v 2.5 c 1e-5,0.273009 -0.223385,0.4957 -0.496094,0.5 -0.135119,0.0021 -0.265788,-0.0508 -0.361328,-0.146484 l -3.496094,-3.5 c -0.19492,-0.195193 -0.19492,-0.51184 0,-0.707032 l 3.496094,-3.5 C 7.456864,13.831821 7.999536,14.054845 7.999706,14.5 V 17 h 8 c 2.216,0 4,-1.784 4,-4 0,-2.216 -1.784,-4.0000003 -4,-4.0000003 h -8 V 11.5 c -1.7e-4,0.445155 -0.542842,0.668179 -0.857422,0.353516 L 3.64619,8.3535153 c -0.19492,-0.1951922 -0.19492,-0.511838 0,-0.7070312 l 3.496094,-3.5 C 7.237824,4.0508041 7.368493,3.997928 7.503612,3.9999997 Z" style="opacity: 1; fill: #000000; fill-opacity: 1; stroke: none; stroke-width: 1; stroke-linecap: round; stroke-linejoin: round; stroke-miterlimit: 4; stroke-dasharray: none; stroke-dashoffset: 0; stroke-opacity: 1;" />
</svg>