<svg width="26" height="26" viewBox="0 0 26 26" xmlns="http://www.w3.org/2000/svg">
<path d="m 13,2.5000982 c -0.127949,0 -0.255897,0.04896 -0.353515,0.146484 L 9.146484,7.1446292 C 8.831753,7.4594202 9.054754,7.9979742 9.5,7.9981452 H 12 l 0.5,3.4960938 c -0.0096,0.67571 1.0096,0.67571 1,0 L 14,7.9981452 h 2.5 c 0.273068,1.1e-5 0.4957,-0.219297 0.5,-0.492188 0.0021,-0.135209 -0.05079,-0.265728 -0.146483,-0.361328 L 13.353516,2.6465822 C 13.255896,2.5490522 13.12795,2.5000982 13,2.5000982 Z m -5.494141,6.5 c -0.135209,-0.0021 -0.265728,0.05078 -0.361328,0.146484 L 2.646484,12.646582 c -0.19505,0.195235 -0.19505,0.511797 0,0.707032 l 4.498047,3.5 c 0.314791,0.314731 0.853345,0.09173 0.853516,-0.353516 v -2.5 l 3.496094,-0.5 c 0.67571,0.0096 0.67571,-1.0096 0,-1 l -3.496094,-0.5 V 9.5000982 c 1.1e-5,-0.273068 -0.219297,-0.4957 -0.492188,-0.5 z m 10.988283,0 c -0.272891,0.0043 -0.492199,0.226932 -0.492189,0.5 v 2.4999998 l -3.496093,0.5 c -0.67571,-0.0096 -0.67571,1.009561 0,1 l 3.496093,0.5 v 2.5 c 1.71e-4,0.445251 0.538725,0.668247 0.853516,0.353516 l 4.498047,-3.5 c 0.19505,-0.195235 0.19505,-0.511797 0,-0.707032 L 18.855469,9.1465822 c -0.0956,-0.0957 -0.226118,-0.148556 -0.361327,-0.146484 z M 13,14.000098 c -0.252395,0 -0.504781,0.168004 -0.5,0.505859 L 12,18.002051 H 9.5 c -0.445251,1.7e-4 -0.668247,0.538725 -0.353516,0.853516 l 3.500001,4.498047 c 0.195235,0.19505 0.511797,0.19505 0.707032,0 l 3.5,-4.498047 c 0.0957,-0.0956 0.148556,-0.226118 0.146484,-0.361328 -0.0043,-0.272891 -0.226932,-0.492198 -0.5,-0.492188 H 14 L 13.5,14.505957 C 13.5048,14.168102 13.252395,14.000098 13,14.000098 Z" style="opacity: 1; fill: #000000; fill-opacity: 1; stroke: none; stroke-width: 1px; stroke-linecap: butt; stroke-linejoin: round; stroke-miterlimit: 4; stroke-dasharray: none; stroke-dashoffset: 0; stroke-opacity: 1;" />
</svg>