<svg width="26" height="26" viewBox="0 0 26 26" xmlns="http://www.w3.org/2000/svg">
<path d="m 18.494188,21.999941 c -0.272891,-0.0043 -0.494326,-0.226921 -0.494315,-0.499975 v -2.499878 h -2.499826 -0.002 C 12.498915,18.997888 9.99957,14.000332 8,14.000332 H 5 c -0.554,0 -1,-0.445978 -1,-0.999951 0,-0.553973 0.446,-0.999952 1,-0.999952 h 3 c 1.99957,0 4.500868,-4.9982584 7.5,-5.0004283 h 2.499826 V 4.5007961 c 1.71e-4,-0.4452293 0.540852,-0.6682144 0.855643,-0.3534988 l 3.498047,3.4998292 c 0.195049,0.1952255 0.195049,0.511772 0,0.7069975 l -3.498047,3.499829 c -0.0956,0.09569 -0.226118,0.148548 -0.361328,0.146476 -0.272892,-0.0043 -0.494326,-0.22692 -0.494315,-0.499975 V 9.0005764 h -2.499779 -0.002 C 12.958416,9.0592104 10.99985,13 9.5,13.000381 10.99985,13 12.999237,16.998071 15.498047,17.000185 h 0.002 2.499826 v -2.499878 c 1.71e-4,-0.445229 0.540851,-0.668214 0.855642,-0.353498 l 3.498047,3.499829 c 0.19505,0.195225 0.19505,0.511772 0,0.706997 l -3.498047,3.49983 c -0.0956,0.09569 -0.226118,0.148548 -0.361327,0.146476 z" style="opacity: 1; fill: #000000; fill-opacity: 1; stroke: none; stroke-width: 1px; stroke-linecap: butt; stroke-linejoin: round; stroke-miterlimit: 4; stroke-dasharray: none; stroke-dashoffset: 0; stroke-opacity: 1;" />
</svg>