<svg width="26" height="26" viewBox="0 0 26 26" xmlns="http://www.w3.org/2000/svg">
<path d="m 14.000381,6.9984272 2.5,0 c 0.273068,10e-6 0.4957,-0.2192965 0.5,-0.4921875 0.0021,-0.13521 -0.05078,-0.2657281 -0.146484,-0.3613282 l -3.5,-3.4980468 c -0.195235,-0.19505 -0.511797,-0.19505 -0.707032,0 L 9.1468647,6.1449115 c -0.314731,0.314791 -0.091735,0.8533457 0.353516,0.8535157 l 2.5000003,0 0,12.0039058 -2.5000003,0 c -0.445251,1.71e-4 -0.668247,0.538725 -0.353516,0.853516 l 3.5000003,3.498047 c 0.195235,0.19505 0.511797,0.19505 0.707032,0 l 3.5,-3.498047 c 0.0957,-0.0956 0.148556,-0.226118 0.146484,-0.361328 -0.0043,-0.272891 -0.226932,-0.492199 -0.5,-0.492188 l -2.5,0 z" style="opacity: 1; fill: #000000; fill-opacity: 1; stroke: none; stroke-width: 1px; stroke-linecap: butt; stroke-linejoin: round; stroke-miterlimit: 4; stroke-dasharray: none; stroke-dashoffset: 0; stroke-opacity: 1;" />
</svg>