<svg width="26" height="26" viewBox="0 0 26 26" xmlns="http://www.w3.org/2000/svg">
<path d="m 4.5754483,4.5754482 c -0.090474,0.090474 -0.1463265,0.2155664 -0.146393,0.3535527 l 0.7057251,5.6554741 c 4.24e-5,0.445139 0.5385431,0.668269 0.8535005,0.353553 l 1.767767,-1.767767 3.8256651,3.118559 c 0.471011,0.484587 1.191694,-0.236096 0.707107,-0.707107 L 9.170261,7.7560477 10.938028,5.9882808 C 11.131124,5.7952003 11.133475,5.4827015 10.943552,5.2866979 10.84943,5.1896058 10.71974,5.1347138 10.584476,5.1347796 L 4.9290017,4.4290545 c -0.1379919,6.36e-5 -0.263079,0.055919 -0.3535534,0.1463937 z M 5.2866981,15.056587 c -0.097092,0.09412 -0.1519912,0.223805 -0.1519177,0.359077 l -0.7057259,5.655473 c 1.308e-4,0.275973 0.2239739,0.499816 0.4999471,0.499947 l 5.6554734,-0.705726 c 0.445139,-4.2e-5 0.668269,-0.538543 0.353553,-0.8535 L 9.170261,18.244091 12.28882,14.418426 c 0.484587,-0.471011 -0.236096,-1.191694 -0.707107,-0.707107 L 7.7560477,16.829877 5.9882809,15.062111 C 5.7952005,14.869015 5.4827017,14.866664 5.2866981,15.056587 Z M 15.056587,5.2866972 c -0.189922,0.1960036 -0.187572,0.5085024 0.0055,0.7015836 l 1.767767,1.7677668 -3.118558,3.8256644 c -0.484588,0.471011 0.236068,1.191667 0.707107,0.707107 l 3.825664,-3.118558 1.767767,1.767767 c 0.314961,0.314719 0.853458,0.09159 0.853501,-0.353553 L 21.571084,4.9290014 C 21.570954,4.6530283 21.34711,4.4291851 21.071137,4.4290543 l -5.655473,0.705726 c -0.135269,-7.07e-5 -0.264934,0.054845 -0.359077,0.1519169 z m -1.349411,8.4204788 c -0.17847,0.17847 -0.238137,0.475731 0.0041,0.71125 l 3.118559,3.825665 -1.767767,1.767767 c -0.31472,0.31496 -0.09159,0.853458 0.353553,0.8535 l 5.655474,0.705725 c 0.275973,-1.3e-4 0.499816,-0.223973 0.499947,-0.499947 l -0.705726,-5.655473 c 7.1e-5,-0.135269 -0.05484,-0.264934 -0.151917,-0.359077 -0.196004,-0.189923 -0.508502,-0.187572 -0.701583,0.0055 l -1.767768,1.767767 -3.825665,-3.118558 c -0.235506,-0.242294 -0.53278,-0.182613 -0.71125,-0.0041 z" style="opacity: 1; fill: #000000; fill-opacity: 1; stroke: none; stroke-width: 1px; stroke-linecap: butt; stroke-linejoin: round; stroke-miterlimit: 4; stroke-dasharray: none; stroke-dashoffset: 0; stroke-opacity: 1;" />
</svg>