<svg width="26" height="26" viewBox="0 0 26 26" xmlns="http://www.w3.org/2000/svg">
<path d="m 16.99994,6.4946869 c -0.0043,-0.272868 -0.226907,-0.492157 -0.499945,-0.492146 H 14.00027 l -0.499945,-3.495801 c 0.0096,-0.675653 -1.00945,-0.675653 -0.99989,0 L 12.00049,6.0025409 H 9.5007642 c -0.445202,1.7e-4 -0.668173,0.538679 -0.353477,0.853444 l 3.4996158,4.4976691 c 0.195213,0.195033 0.511741,0.195033 0.706954,0 l 3.499615,-4.4976691 c 0.09569,-0.09559 0.14854,-0.2261 0.146468,-0.361298 z m 0,13.0106251 c 0.0021,-0.135198 -0.05077,-0.265705 -0.146468,-0.361297 l -3.499615,-4.49767 c -0.195213,-0.195033 -0.511741,-0.195033 -0.706954,0 l -3.4996158,4.49767 c -0.314696,0.314764 -0.09172,0.853274 0.353477,0.853444 H 12.00049 l 0.499945,3.4958 c -0.0096,0.675654 1.009489,0.675654 0.99989,0 l 0.499945,-3.4958 h 2.499725 c 0.273038,10e-6 0.495645,-0.219279 0.499945,-0.492147 z M 6.4946872,9.0000599 c -0.272868,0.0043 -0.492158,0.226907 -0.492147,0.499945 V 11.99973 l -3.4958,0.499946 c -0.675653,-0.0096 -0.675653,1.00945 0,0.99989 l 3.4958,0.499945 v 2.499724 c 1.71e-4,0.445202 0.53868,0.668174 0.853445,0.353477 l 4.4976688,-3.499614 c 0.195033,-0.195213 0.195033,-0.511741 0,-0.706954 L 6.8559852,9.1465279 c -0.09559,-0.09569 -0.2261,-0.14854 -0.361298,-0.146468 z m 13.0106248,0 c -0.135198,-0.0021 -0.265705,0.05077 -0.361297,0.146468 l -4.49767,3.4996161 c -0.195033,0.195213 -0.195033,0.511741 0,0.706954 l 4.49767,3.499614 c 0.314764,0.314697 0.853274,0.09172 0.853444,-0.353477 v -2.499724 l 3.4958,-0.499945 c 0.675654,0.0096 0.675654,-1.009489 0,-0.99989 l -3.4958,-0.499946 V 9.5000049 c 10e-6,-0.273038 -0.219279,-0.495645 -0.492147,-0.499945 z" style="opacity: 1; fill: #000000; fill-opacity: 1; stroke: none; stroke-width: 0.99999994px; stroke-linecap: butt; stroke-linejoin: round; stroke-miterlimit: 4; stroke-dasharray: none; stroke-dashoffset: 0; stroke-opacity: 1;" />
</svg>