<svg width="26" height="26" viewBox="0 0 26 26" xmlns="http://www.w3.org/2000/svg">
<path d="M 5.0754483,5.0753502 C 4.9849747,5.1658238 4.9291204,5.2909166 4.9290549,5.4289038 l -0.00138,4.9483662 c -7.07e-5,0.13527 0.054845,0.264935 0.1519178,0.359078 0.1960036,0.189922 0.508502,0.187571 0.7015825,-0.0055 L 7.548941,8.9630564 11.585856,12.999971 7.548941,17.036886 5.7811741,15.269119 C 5.5880929,15.076024 5.2755952,15.073673 5.0795916,15.263595 4.9825199,15.357739 4.9276003,15.4874 4.9276738,15.622673 l 0.00138,4.948366 c 1.308e-4,0.275973 0.2239739,0.499816 0.4999471,0.499947 l 4.9483661,0.0014 c 0.44514,-4.2e-5 0.668273,-0.53854 0.353554,-0.8535 L 8.9631546,18.4511 13.00007,14.414185 17.036984,18.4511 15.269217,20.218867 c -0.193095,0.193081 -0.195446,0.505579 -0.0055,0.701583 0.09414,0.09707 0.223804,0.15199 0.359077,0.151917 l 4.948366,-0.0014 c 0.275974,-1.31e-4 0.499817,-0.223974 0.499947,-0.499947 l 0.0014,-4.948366 c -4.2e-5,-0.44514 -0.538543,-0.66827 -0.8535,-0.353554 l -1.767767,1.767767 -4.036915,-4.036915 4.036915,-4.0369145 1.767767,1.7677665 c 0.314961,0.31472 0.853458,0.09159 0.8535,-0.353553 l -0.0014,-4.9483664 C 21.070954,5.1529304 20.847111,4.9290872 20.571137,4.9289564 l -4.948366,-0.00138 c -0.13527,-7.08e-5 -0.264935,0.054845 -0.359077,0.1519176 -0.189923,0.1960036 -0.187573,0.5085024 0.0055,0.7015829 l 1.76779,1.767766 L 13.00007,11.585758 8.9631546,7.5488428 10.730922,5.7810759 C 11.045641,5.466115 10.822508,4.9276181 10.377368,4.9275756 l -4.948366,0.00138 c -0.1379869,6.58e-5 -0.3535537,0.018445 -0.3535537,0.1463935 z" style="opacity: 1; fill: #000000; fill-opacity: 1; stroke: none; stroke-width: 1px; stroke-linecap: butt; stroke-linejoin: round; stroke-miterlimit: 4; stroke-dasharray: none; stroke-dashoffset: 0; stroke-opacity: 1;" />
</svg>