<svg width="26" height="26" viewBox="0 0 26 26" xmlns="http://www.w3.org/2000/svg">
<path d="m 4.0000587,7.503906 c 0.0043,0.272709 0.2269912,0.496104 0.5,0.496094 H 7.000058 v 8 c 0,3.324 2.676,6 6,6 3.324,0 6,-2.676 6,-6 V 5.9999995 c 0,-0.554 -0.446,-1 -1,-1 -0.554,0 -1,0.446 -1,1 V 16 c 0,2.216 -1.784,4 -4,4 -2.216,0 -4,-1.784 -4,-4 V 8 h 2.5 c 0.445155,-1.7e-4 0.668179,-0.542842 0.353516,-0.857422 L 8.353573,3.6464835 c -0.195192,-0.19492 -0.511838,-0.19492 -0.707031,0 L 4.1465431,7.142578 C 4.0508631,7.238118 3.997987,7.368787 4.0000587,7.503906 Z" style="opacity: 1; fill: #000000; fill-opacity: 1; stroke: none; stroke-width: 1; stroke-linecap: round; stroke-linejoin: round; stroke-miterlimit: 4; stroke-dasharray: none; stroke-dashoffset: 0; stroke-opacity: 1;" />
</svg>