<svg width="26" height="26" viewBox="0 0 26 26" xmlns="http://www.w3.org/2000/svg">
<path d="M 21.999999,7.503906 C 21.995699,7.776615 21.773008,8.00001 21.499999,8 H 19 v 8 c 0,3.324 -2.676,6 -6,6 C 9.676,22 7,19.324 7,16 V 5.9999995 c 0,-0.554 0.446,-1 1,-1 0.554,0 1,0.446 1,1 V 16 c 0,2.216 1.784,4 4,4 2.216,0 4,-1.784 4,-4 V 8 H 14.5 C 14.054845,7.99983 13.831821,7.457158 14.146484,7.142578 l 3.500001,-3.4960945 c 0.195192,-0.19492 0.511838,-0.19492 0.707031,0 l 3.499999,3.4960945 c 0.09568,0.09554 0.148556,0.226209 0.146484,0.361328 z" style="opacity: 1; fill: #000000; fill-opacity: 1; stroke: none; stroke-width: 1; stroke-linecap: round; stroke-linejoin: round; stroke-miterlimit: 4; stroke-dasharray: none; stroke-dashoffset: 0; stroke-opacity: 1;" />
</svg>