<svg width="26" height="26" viewBox="0 0 26 26" xmlns="http://www.w3.org/2000/svg">
<path d="M 8.9633542,7.5489828 10.731121,5.7812158 C 10.924216,5.5881347 10.926568,5.275637 10.736645,5.0796333 10.642501,4.9825617 10.51284,4.9276421 10.377568,4.9277155 l -4.9483664,0.00138 C 5.1532284,4.9292275 4.9293853,5.1530706 4.9292545,5.4290438 l -0.00138,4.9483662 c 4.24e-5,0.445139 0.5385401,0.668273 0.8535003,0.353553 L 7.5491406,8.9631964 17.037184,18.45124 15.269417,20.219007 c -0.314719,0.314961 -0.09159,0.853458 0.353553,0.8535 l 4.948367,-0.0014 c 0.275973,-1.31e-4 0.499816,-0.223974 0.499947,-0.499947 l 0.0014,-4.948366 c 7.1e-5,-0.13527 -0.05485,-0.264935 -0.151918,-0.359078 -0.196003,-0.189922 -0.508502,-0.187572 -0.701582,0.0055 l -1.767767,1.767767 z" style="opacity: 1; fill: #000000; fill-opacity: 1; stroke: none; stroke-width: 1px; stroke-linecap: butt; stroke-linejoin: round; stroke-miterlimit: 4; stroke-dasharray: none; stroke-dashoffset: 0; stroke-opacity: 1;" />
</svg>