<svg width="26" height="26" viewBox="0 0 26 26" xmlns="http://www.w3.org/2000/svg">
<path d="m 7.503613,4.0000004 c 0.272708,0.0043 0.496103,0.226991 0.496093,0.5 v 2.4999993 h 8 c 3.324,0 6,2.6760003 6,6.0000003 0,3.324 -2.676,6 -6,6 h -10 c -0.554,0 -1,-0.446 -1,-1 0,-0.554 0.446,-1 1,-1 h 10 c 2.216,0 4,-1.784 4,-4 0,-2.216 -1.784,-4 -4,-4 h -8 v 2.5 c -1.7e-4,0.445155 -0.542842,0.668179 -0.857421,0.353516 L 3.64619,8.353515 c -0.19492,-0.1951923 -0.19492,-0.5118383 0,-0.7070313 L 7.142285,4.1464844 c 0.09554,-0.09568 0.226209,-0.148556 0.361328,-0.146484 z" style="opacity: 1; fill: #000000; fill-opacity: 1; stroke: none; stroke-width: 1; stroke-linecap: round; stroke-linejoin: round; stroke-miterlimit: 4; stroke-dasharray: none; stroke-dashoffset: 0; stroke-opacity: 1;" />
</svg>