<svg width="26" height="26" viewBox="0 0 26 26" xmlns="http://www.w3.org/2000/svg">
<path d="m 20.095716,6.1967754 c 0.31496,-0.3147195 0.85346,-0.091586 0.8535,0.353553 l -0.001,4.9483666 c -1.3e-4,0.275973 -0.22397,0.499816 -0.49994,0.499947 l -4.94837,0.0014 c -0.13527,7.1e-5 -0.26493,-0.05485 -0.35908,-0.151918 -0.18992,-0.196003 -0.18757,-0.508502 0.006,-0.701583 z" style="opacity: 1; fill: #000000; fill-opacity: 1; stroke: none; stroke-width: 1px; stroke-linecap: butt; stroke-linejoin: round; stroke-miterlimit: 4; stroke-dasharray: none; stroke-dashoffset: 0; stroke-opacity: 1;" />
<path d="M 18.629165,16.250043 A 6.5,6.5 0 0 1 11.593142,19.345967 6.5,6.5 0 0 1 6.5247345,13.566555 6.5,6.5 0 0 1 10.512558,6.994826 6.5,6.5 0 0 1 17.979289,8.8219234" style="opacity: 1; fill: none; fill-opacity: 1; stroke: #000000; stroke-width: 2; stroke-linecap: round; stroke-linejoin: round; stroke-miterlimit: 4; stroke-dasharray: none; stroke-dashoffset: 0; stroke-opacity: 1;" />
</svg>