<svg width="26" height="26" viewBox="0 0 26 26" xmlns="http://www.w3.org/2000/svg">
<path d="m 16.99994,6.4946862 c -0.0043,-0.272867 -0.226907,-0.492156 -0.499945,-0.492145 H 14.00027 l -0.499945,-3.495801 c 0.0096,-0.675653 -1.00945,-0.675653 -0.99989,0 L 12.00049,6.0025412 H 9.5007641 c -0.445202,1.7e-4 -0.668173,0.538678 -0.353477,0.853444 l 3.4996159,4.4976688 c 0.195213,0.195033 0.511741,0.195033 0.706954,0 l 3.499615,-4.4976688 c 0.09569,-0.09559 0.14854,-0.2261 0.146468,-0.361299 z m 0,13.0106258 c 0.0021,-0.135198 -0.05077,-0.265705 -0.146468,-0.361297 l -3.499615,-4.49767 c -0.195213,-0.195033 -0.511741,-0.195033 -0.706954,0 l -3.4996159,4.49767 c -0.314696,0.314764 -0.09172,0.853274 0.353477,0.853444 H 12.00049 l 0.499945,3.4958 c -0.0096,0.675654 1.009489,0.675654 0.99989,0 l 0.499945,-3.4958 h 2.499725 c 0.273038,10e-6 0.495645,-0.219279 0.499945,-0.492147 z" style="opacity: 1; fill: #000000; fill-opacity: 1; stroke: none; stroke-width: 0.99999994px; stroke-linecap: butt; stroke-linejoin: round; stroke-miterlimit: 4; stroke-dasharray: none; stroke-dashoffset: 0; stroke-opacity: 1;" />
</svg>