<svg width="26" height="26" viewBox="0 0 26 26" xmlns="http://www.w3.org/2000/svg">
<path d="m 20.999803,7 c 0.554,0 1,0.446 1,1 0,0.554 -0.446,1 -1,1 h -2 c -2.5,0 -4,4 -6,4 2,0 3.5,4 6,4 h 2 c 0.554,0 1,0.446 1,1 0,0.554 -0.446,1 -1,1 h -2 c -3,0 -5.5,-5 -7.5,-5 H 7.9978505 v 2.5 c -1.71e-4,0.445251 -0.538725,0.668247 -0.853516,0.353516 l -3.498047,-3.5 c -0.19505,-0.195235 -0.19505,-0.511797 0,-0.707032 l 3.498047,-3.5 C 7.2399345,9.050784 7.3704525,8.997928 7.5056625,9 c 0.272891,0.0043 0.492199,0.226932 0.492188,0.5 V 12 h 3.5019525 c 2,0 4.5,-5 7.5,-5 z" style="opacity: 1; fill: #000000; fill-opacity: 1; stroke: none; stroke-width: 1px; stroke-linecap: butt; stroke-linejoin: round; stroke-miterlimit: 4; stroke-dasharray: none; stroke-dashoffset: 0; stroke-opacity: 1;" />
</svg>