<svg width="26" height="26" viewBox="0 0 26 26" xmlns="http://www.w3.org/2000/svg">
<path d="M 18.496093,21.999941 C 18.223385,21.995641 17.99999,21.77295 18,21.499941 v -2.499999 h -8 c -3.324,0 -6,-2.676 -6,-6 0,-3.3240003 2.676,-6.0000003 6,-6.0000003 h 10 c 0.554,0 1,0.446 1,1 0,0.554 -0.446,1 -1,1 H 10 c -2.216,0 -4,1.7840003 -4,4.0000003 0,2.216 1.784,4 4,4 h 8 v -2.5 c 1.7e-4,-0.445155 0.542842,-0.668179 0.857421,-0.353516 l 3.496095,3.500001 c 0.19492,0.195192 0.19492,0.511838 0,0.707031 l -3.496095,3.499999 c -0.09554,0.09568 -0.226209,0.148556 -0.361328,0.146484 z" style="opacity: 1; fill: #000000; fill-opacity: 1; stroke: none; stroke-width: 1; stroke-linecap: round; stroke-linejoin: round; stroke-miterlimit: 4; stroke-dasharray: none; stroke-dashoffset: 0; stroke-opacity: 1;" />
</svg>