<svg width="26" height="26" viewBox="0 0 26 26" xmlns="http://www.w3.org/2000/svg">
<path d="m 19,21 c 0,0.554 -0.446,1 -1,1 -0.554001,0 -1,-0.446 -1,-1 v -2 c 0,-2.5 -3.999999,-3.999999 -3.999999,-5.999999 0,2 -4.0000005,3.499999 -4.0000005,5.999999 v 2 c 0,0.554 -0.446,1 -1,1 -0.554,0 -1,-0.446 -1,-1 v -2 c 0,-3 5.0000005,-5.499999 5.0000005,-7.499999 V 7.998048 H 9.5000005 C 9.0547495,7.997877 8.8317535,7.459323 9.1464845,7.144532 L 12.646485,3.646485 c 0.195235,-0.19505 0.511796,-0.19505 0.707032,0 l 3.499998,3.498047 c 0.0957,0.0956 0.148556,0.226118 0.146485,0.361328 -0.0043,0.272891 -0.226932,0.492199 -0.5,0.492188 h -2.499999 v 3.501953 C 14.000001,13.500001 19,16 19,19 Z" style="opacity: 1; fill: #000000; fill-opacity: 1; stroke: none; stroke-width: 1px; stroke-linecap: butt; stroke-linejoin: round; stroke-miterlimit: 4; stroke-dasharray: none; stroke-dashoffset: 0; stroke-opacity: 1;" />
</svg>