<svg width="26" height="26" viewBox="0 0 26 26" xmlns="http://www.w3.org/2000/svg">
<path d="M 11.228434,5.5716642 C 11.032446,5.381758 10.719979,5.3841042 10.52692,5.577179 L 8.759347,7.3447515 4.9339279,4.2263614 C 4.4629574,3.7418143 3.7423802,4.4623915 4.2268989,4.9333904 L 7.345289,8.7588094 5.577716,10.526383 c -0.3146852,0.314925 -0.091566,0.853373 0.35353,0.853422 l 5.654934,0.70573 c 0.275946,-1.27e-4 0.499765,-0.223947 0.499892,-0.499892 l -0.70573,-5.654934 c 7e-5,-0.1352554 -0.05484,-0.2649105 -0.151908,-0.3590448 z m 9.199901,9.1999008 c -0.09411,-0.09708 -0.223782,-0.151982 -0.359044,-0.151907 l -5.654934,-0.705731 c -0.275946,1.27e-4 -0.499765,0.223946 -0.499892,0.499892 l 0.70573,5.654935 c 4.9e-5,0.445095 0.5385,0.668212 0.853422,0.35353 l 1.767574,-1.767573 3.825418,3.118389 c 0.470971,0.484548 1.191576,-0.236057 0.707029,-0.707029 l -3.118389,-3.825418 1.767572,-1.767573 c 0.193074,-0.19306 0.19542,-0.505527 0.0055,-0.701515 z m -14.8566704,10e-7 c -0.1899063,0.195987 -0.1875608,0.508456 0.00551,0.701515 l 1.7675725,1.767573 -3.1183886,3.825419 c -0.4845471,0.47097 0.2360301,1.191547 0.707029,0.707029 l 3.8254183,-3.11839 1.7675722,1.767572 c 0.314926,0.314684 0.853374,0.09157 0.853422,-0.353531 l 0.705732,-5.654933 c -1.28e-4,-0.275945 -0.223947,-0.499764 -0.499892,-0.499892 l -5.6549347,0.70573 c -0.1352554,-7.1e-5 -0.2649104,0.05484 -0.3590447,0.151908 z M 14.771566,5.5716649 c -0.09708,0.094114 -0.151982,0.2237817 -0.151907,0.3590441 l -0.705731,5.654935 c 1.27e-4,0.275946 0.223946,0.499765 0.499892,0.499892 l 5.654934,-0.705732 c 0.445096,-4.7e-5 0.668211,-0.5385 0.35353,-0.853422 L 18.654712,8.7588102 21.773101,4.9333918 C 22.257649,4.4624205 21.537044,3.7418158 21.066072,4.2263628 L 17.240653,7.3447515 15.473081,5.577179 C 15.280021,5.3841049 14.967553,5.3817587 14.771566,5.571669 Z" style="opacity: 1; fill: #000000; fill-opacity: 1; stroke: none; stroke-width: 0.99999994px; stroke-linecap: butt; stroke-linejoin: round; stroke-miterlimit: 4; stroke-dasharray: none; stroke-dashoffset: 0; stroke-opacity: 1;" />
</svg>