<svg width="26" height="26" viewBox="0 0 26 26" xmlns="http://www.w3.org/2000/svg">
<path d="m 15.494293,5.0000588 c -0.272891,0.0043 -0.491861,0.226856 -0.49185,0.499924 v 2.499771 l -9.4956605,0.499924 c -0.67571,-0.0096 -0.67571,1.009409 0,0.999848 l 9.4956605,0.499924 v 2.4997712 c 1.72e-4,0.445251 0.538149,0.668193 0.85294,0.353462 l 4.498329,-3.4996192 c 0.195051,-0.195235 0.195051,-0.511689 0,-0.706924 l -4.498329,-3.499619 c -0.0956,-0.0957 -0.22588,-0.148534 -0.36109,-0.146462 z m -4.988587,8.0000002 c 0.272892,0.0043 0.49186,0.226856 0.49185,0.499924 v 2.499771 l 9.495661,0.499924 c 0.675711,-0.0096 0.675711,1.009409 0,0.999848 l -9.495661,0.499924 v 2.499771 c -1.7e-4,0.445251 -0.538149,0.668193 -0.85294,0.353462 L 5.6462875,17.353064 c -0.19505,-0.195235 -0.19505,-0.511689 0,-0.706924 l 4.4983285,-3.499619 c 0.0956,-0.0957 0.22588,-0.148534 0.36109,-0.146462 z" style="opacity: 1; fill: #000000; fill-opacity: 1; stroke: none; stroke-width: 1px; stroke-linecap: butt; stroke-linejoin: round; stroke-miterlimit: 4; stroke-dasharray: none; stroke-dashoffset: 0; stroke-opacity: 1;" />
</svg>