<svg width="26" height="26" viewBox="0 0 26 26" xmlns="http://www.w3.org/2000/svg">
<path d="m 20.999941,15.494293 c -0.0043,-0.272891 -0.226856,-0.491861 -0.499924,-0.49185 H 18.000246 L 17.500322,5.5067825 c 0.0096,-0.67571 -1.009409,-0.67571 -0.999848,0 L 16.00055,15.002443 h -2.499771 c -0.445251,1.72e-4 -0.668193,0.538149 -0.353462,0.85294 l 3.499619,4.498329 c 0.195235,0.19505 0.511689,0.19505 0.706924,0 l 3.499619,-4.498329 c 0.0957,-0.0956 0.148534,-0.22588 0.146462,-0.36109 z m -8,-4.988585 c -0.0043,0.272891 -0.226856,0.491859 -0.499924,0.491849 h -2.499771 l -0.4999238,9.49566 c 0.0096,0.67571 -1.009409,0.67571 -0.999848,0 l -0.499924,-9.49566 h -2.499771 c -0.445251,-1.7e-4 -0.668193,-0.538149 -0.353462,-0.85294 l 3.499619,-4.4983295 c 0.195235,-0.19505 0.511689,-0.19505 0.706924,0 l 3.4996188,4.4983305 c 0.0957,0.0956 0.148534,0.22588 0.146462,0.36109 z" style="opacity: 1; fill: #000000; fill-opacity: 1; stroke: none; stroke-width: 1px; stroke-linecap: butt; stroke-linejoin: round; stroke-miterlimit: 4; stroke-dasharray: none; stroke-dashoffset: 0; stroke-opacity: 1;" />
</svg>