<svg width="26" height="26" viewBox="0 0 26 26" xmlns="http://www.w3.org/2000/svg">
<path d="m 21.999941,18.494338 c -0.0043,-0.272891 -0.226921,-0.494326 -0.499975,-0.494315 h -2.499878 v -2.499826 -0.002 C 18.997888,12.499065 14.000332,9.99972 14.000332,8.0001495 v -3 c 0,-0.554 -0.445978,-1 -0.999951,-1 -0.553973,0 -0.999952,0.446 -0.999952,1 v 3 C 12.000429,9.99972 7.0021699,12.501018 7,15.50015 v 2.499826 H 4.5007954 c -0.4452293,1.71e-4 -0.6682144,0.540852 -0.3534988,0.855643 l 3.4998292,3.498047 c 0.1952255,0.195049 0.511772,0.195049 0.7069975,0 l 3.4998297,-3.498047 c 0.09569,-0.0956 0.148548,-0.226118 0.146476,-0.361328 -0.0043,-0.272892 -0.22692,-0.494326 -0.499975,-0.494315 H 9.0005757 v -2.499779 -0.002 C 9.0592098,12.958566 13,11 13.000381,9.50015 13,11 16.998071,12.999387 17.000185,15.498197 v 0.002 2.499826 h -2.499878 c -0.445229,1.71e-4 -0.668214,0.540851 -0.353498,0.855642 l 3.499829,3.498047 c 0.195225,0.19505 0.511772,0.19505 0.706997,0 l 3.49983,-3.498047 c 0.09569,-0.0956 0.148548,-0.226118 0.146476,-0.361327 z" style="opacity: 1; fill: #000000; fill-opacity: 1; stroke: none; stroke-width: 1px; stroke-linecap: butt; stroke-linejoin: round; stroke-miterlimit: 4; stroke-dasharray: none; stroke-dashoffset: 0; stroke-opacity: 1;" />
</svg>