<svg width="26" height="26" viewBox="0 0 26 26" xmlns="http://www.w3.org/2000/svg">
<path d="m 22.000061,18.496388 c -0.0043,-0.272709 -0.226991,-0.496104 -0.5,-0.496094 h -2.5 v -8 c 0,-3.3240004 -2.676,-6.0000004 -6,-6.0000004 -3.3240008,0 -6.0000008,2.676 -6.0000008,6.0000004 v 8 h -2.5 c -0.273009,-10e-6 -0.4957,0.223385 -0.5,0.496094 -0.0021,0.135119 0.0508,0.265788 0.146484,0.361328 l 3.5,3.496094 c 0.195193,0.19492 0.51184,0.19492 0.707032,0 l 3.5000008,-3.496094 c 0.314663,-0.31458 0.09164,-0.857252 -0.353516,-0.857422 H 9.0000602 v -8 c 0,-2.2160004 1.7840008,-4.0000004 4.0000008,-4.0000004 2.216,0 4,1.784 4,4.0000004 v 8 h -2.5 c -0.445155,1.7e-4 -0.668179,0.542842 -0.353516,0.857422 l 3.5,3.496094 c 0.195193,0.19492 0.511838,0.19492 0.707032,0 l 3.5,-3.496094 c 0.09568,-0.09554 0.148556,-0.226209 0.146484,-0.361328 z" style="opacity: 1; fill: #000000; fill-opacity: 1; stroke: none; stroke-width: 1; stroke-linecap: round; stroke-linejoin: round; stroke-miterlimit: 4; stroke-dasharray: none; stroke-dashoffset: 0; stroke-opacity: 1;" />
</svg>