<svg width="26" height="26" viewBox="0 0 26 26" xmlns="http://www.w3.org/2000/svg">
<path d="m 6.4946873,9.0000599 c -0.2728681,0.0043 -0.4921576,0.226907 -0.4921466,0.499945 v 2.4997261 l -3.4958005,0.499945 c -0.6756533,-0.0096 -0.6756533,1.00945 0,0.99989 l 3.4958005,0.499945 v 2.499725 c 1.709e-4,0.445202 0.5386797,0.668173 0.8534443,0.353477 l 4.497669,-3.499615 c 0.195033,-0.195213 0.195033,-0.511741 0,-0.706954 L 6.855985,9.1465279 c -0.095592,-0.09569 -0.2261,-0.14854 -0.3612977,-0.146468 z m 13.0106247,0 c -0.135198,-0.0021 -0.265705,0.05077 -0.361297,0.146468 l -4.49767,3.4996161 c -0.195033,0.195213 -0.195033,0.511741 0,0.706954 l 4.49767,3.499615 c 0.314764,0.314696 0.853274,0.09172 0.853444,-0.353477 v -2.499725 l 3.4958,-0.499945 c 0.675654,0.0096 0.675654,-1.009489 0,-0.99989 l -3.4958,-0.499945 V 9.5000049 c 10e-6,-0.273038 -0.219279,-0.495645 -0.492147,-0.499945 z" style="opacity: 1; fill: #000000; fill-opacity: 1; stroke: none; stroke-width: 0.99999994px; stroke-linecap: butt; stroke-linejoin: round; stroke-miterlimit: 4; stroke-dasharray: none; stroke-dashoffset: 0; stroke-opacity: 1;" />
</svg>