<svg width="26" height="26" viewBox="0 0 26 26" xmlns="http://www.w3.org/2000/svg">
<path d="m 21.999999,18.496387 c -0.0043,-0.272708 -0.226991,-0.496103 -0.5,-0.496093 H 19 v -8 c 0,-3.3240005 -2.676,-6.0000005 -6,-6.0000005 -3.324,0 -6,2.676 -6,6.0000005 v 10 c 0,0.554 0.446,1 1,1 0.554,0 1,-0.446 1,-1 v -10 c 0,-2.2160005 1.784,-4.0000005 4,-4.0000005 2.216,0 4,1.784 4,4.0000005 v 8 h -2.5 c -0.445155,1.7e-4 -0.668179,0.542842 -0.353516,0.857421 l 3.500001,3.496095 c 0.195192,0.19492 0.511838,0.19492 0.707031,0 l 3.499999,-3.496095 c 0.09568,-0.09554 0.148556,-0.226209 0.146484,-0.361328 z" style="opacity: 1; fill: #000000; fill-opacity: 1; stroke: none; stroke-width: 1; stroke-linecap: round; stroke-linejoin: round; stroke-miterlimit: 4; stroke-dasharray: none; stroke-dashoffset: 0; stroke-opacity: 1;" />
</svg>