<svg width="26" height="26" viewBox="0 0 26 26" xmlns="http://www.w3.org/2000/svg">
<path d="M 5,7 C 4.446,7 4,7.446 4,8 4,8.554 4.446,9 5,9 h 2 c 2.5,0 4,4 6,4 -2,0 -3.5,4 -6,4 H 5 c -0.554,0 -1,0.446 -1,1 0,0.554 0.446,1 1,1 h 2 c 3,0 5.5,-5 7.5,-5 h 3.501953 v 2.5 c 1.71e-4,0.445251 0.538725,0.668247 0.853516,0.353516 l 3.498047,-3.5 c 0.19505,-0.195235 0.19505,-0.511797 0,-0.707032 l -3.498047,-3.5 C 18.759869,9.050784 18.629351,8.997928 18.494141,9 18.22125,9.0043 18.001942,9.226932 18.001953,9.5 V 12 H 14.5 C 12.5,12 10,7 7,7 Z" style="opacity: 1; fill: #000000; fill-opacity: 1; stroke: none; stroke-width: 1px; stroke-linecap: butt; stroke-linejoin: round; stroke-miterlimit: 4; stroke-dasharray: none; stroke-dashoffset: 0; stroke-opacity: 1;" />
</svg>