<svg width="26" height="26" viewBox="0 0 26 26" xmlns="http://www.w3.org/2000/svg">
<path d="m 6.9980469,12 0,-2.5 C 6.9980569,9.226932 6.7787504,9.0043 6.5058594,9 6.3706494,8.99793 6.2401313,9.05078 6.1445312,9.146484 l -3.4980468,3.5 c -0.19505,0.195235 -0.19505,0.511797 0,0.707032 l 3.4980468,3.5 C 6.4593222,17.168247 6.9978769,16.945251 6.9980469,16.5 l 0,-2.5 12.0039061,0 0,2.5 c 1.71e-4,0.445251 0.538725,0.668247 0.853516,0.353516 l 3.498047,-3.5 c 0.19505,-0.195235 0.19505,-0.511797 0,-0.707032 l -3.498047,-3.5 C 19.759869,9.050784 19.629351,8.997928 19.494141,9 19.22125,9.0043 19.001942,9.226932 19.001953,9.5 l 0,2.5 z" style="opacity: 1; fill: #000000; fill-opacity: 1; stroke: none; stroke-width: 1px; stroke-linecap: butt; stroke-linejoin: round; stroke-miterlimit: 4; stroke-dasharray: none; stroke-dashoffset: 0; stroke-opacity: 1;" />
</svg>