<svg width="26" height="26" viewBox="0 0 26 26" xmlns="http://www.w3.org/2000/svg">
<path d="m 20.484375,3.0001239 c -0.04851,0.0015 -0.09654,0.01005 -0.142578,0.02539 l -12,4 C 8.137577,7.0936439 7.999887,7.2848389 8,7.5001239 V 16.175905 C 7.679075,16.06092 7.340899,16.001475 7,16.000124 c -1.656854,0 -3,1.343146 -3,3 0,1.656854 1.343146,3 3,3 1.656854,0 3,-1.343146 3,-3 V 9.861452 l 9,-3.1679691 v 5.9824221 c -0.320925,-0.114985 -0.6591,-0.17443 -1,-0.175781 -1.656854,0 -3,1.343146 -3,3 0,1.656854 1.343146,3 3,3 1.656854,0 3,-1.343146 3,-3 V 3.5001239 c 1.09e-4,-0.282349 -0.233413,-0.508794 -0.515625,-0.5 z" style="opacity: 1; fill: #000000; fill-opacity: 1; stroke: none; stroke-width: 1; stroke-linecap: butt; stroke-linejoin: round; stroke-miterlimit: 4; stroke-dasharray: none; stroke-dashoffset: 0; stroke-opacity: 1;" />
</svg>