<svg width="26" height="26" viewBox="0 0 26 26" xmlns="http://www.w3.org/2000/svg">
<path d="M 9 6 C 8.4902526 6.0147522 7.9467953 6.2256018 7.5859375 6.5859375 L 2.5859375 11.585938 C 1.8052014 12.366998 1.8052014 13.633004 2.5859375 14.414062 L 7.5859375 19.414062 C 7.9978165 19.825656 8.5035921 20.004042 9 20 L 21 20 C 22.108 20 23 19.108 23 18 L 23 8 C 23 6.892 22.108 6 21 6 L 9 6 z M 11.964844 8.7578125 C 12.092653 8.7578125 12.220424 8.8063625 12.318359 8.9042969 L 15 11.585938 L 17.681641 8.9042969 C 17.877509 8.7084288 18.192803 8.7084279 18.388672 8.9042969 L 19.095703 9.6113281 C 19.291572 9.8071971 19.291572 10.12249 19.095703 10.318359 L 16.414062 13 L 19.095703 15.681641 C 19.291572 15.87751 19.291572 16.192803 19.095703 16.388672 L 18.388672 17.095703 C 18.192803 17.291572 17.87751 17.291572 17.681641 17.095703 L 15 14.414062 L 12.318359 17.095703 C 12.122491 17.291572 11.807197 17.291572 11.611328 17.095703 L 10.904297 16.388672 C 10.708428 16.192803 10.708429 15.877509 10.904297 15.681641 L 13.585938 13 L 10.904297 10.318359 C 10.708428 10.12249 10.708428 9.8071971 10.904297 9.6113281 L 11.611328 8.9042969 C 11.709258 8.8063659 11.837034 8.7578125 11.964844 8.7578125 z " style="opacity: 1; fill: #000000; fill-opacity: 1; stroke: none; stroke-width: 3.5; stroke-linecap: round; stroke-linejoin: round; stroke-miterlimit: 4; stroke-dasharray: none; stroke-dashoffset: 0; stroke-opacity: 1;" />
</svg>