<svg width="26" height="26" viewBox="0 0 26 26" xmlns="http://www.w3.org/2000/svg">
<path d="m 7.999769,8 c -0.24735,1.8e-4 -0.4574,0.18117 -0.49414,0.42578 l -1.5,10 c -0.0453,0.30218 0.18858,0.57399 0.49414,0.57422 h 6.5 v -2.5 c 0,-0.277 0.223,-0.5 0.5,-0.5 h 2.5 v -2.5 c -0.0543,-0.27162 0.223,-0.5 0.5,-0.5 h 2.67969 L 18.493909,8.42578 C 18.457169,8.18117 18.247119,8.00018 17.999769,8 h -2.5 v 3 c 0.0191,1.35232 -2.01913,1.35232 -2,0 V 8 h -1 v 3 c 0.0191,1.35232 -2.01913,1.35232 -2,0 V 8 Z m 9.5,6 c -0.277,0 -0.5,0.223 -0.5,0.5 V 17 h -2.5 c -0.277,0 -0.5,0.223 -0.5,0.5 v 1 c 0,0.277 0.223,0.5 0.5,0.5 h 2.5 v 2.5 c 0,0.277 0.223,0.5 0.5,0.5 h 1 c 0.277,0 0.5,-0.223 0.5,-0.5 V 19 h 2.5 c 0.277,0 0.5,-0.223 0.5,-0.5 v -1 c 0,-0.277 -0.223,-0.5 -0.5,-0.5 h -2.5 v -2.5 c 0,-0.277 -0.223,-0.5 -0.5,-0.5 z" style="opacity: 1; fill: #000000; fill-opacity: 1; stroke: none; stroke-width: 1px; stroke-linecap: butt; stroke-linejoin: round; stroke-miterlimit: 4; stroke-dasharray: none; stroke-dashoffset: 0; stroke-opacity: 1;" />
<path d="m 11.499539,10.5 v -4 c 0,-1.5 3,-1.5 3,0 v 4" style="fill: none; stroke: #000000; stroke-width: 1px; stroke-linecap: round; stroke-linejoin: round; stroke-opacity: 1;" />
</svg>