<svg width="26" height="26" viewBox="0 0 26 26" xmlns="http://www.w3.org/2000/svg">
<path d="m 20.642582,14.746535 c -0.13279,-0.004 -0.26181,0.0438 -0.33985,0.15821 l -3.21679,3.71875 -1.38867,-1.38868 c -0.19587,-0.19585 -0.51117,-0.19587 -0.70704,0 l -0.70703,0.70704 c -0.19587,0.19586 -0.19587,0.51116 0,0.70703 l 2.44922,2.44922 c 0.19587,0.19586 0.51116,0.19586 0.70703,0 l 4.27735,-4.77735 c 0.19587,-0.19587 0.19587,-0.51116 0,-0.70703 l -0.70703,-0.70898 c -0.0979,-0.0979 -0.23441,-0.15421 -0.36719,-0.15821 z" style="opacity: 1; fill: #000000; fill-opacity: 1; stroke: none; stroke-width: 1px; stroke-linecap: butt; stroke-linejoin: round; stroke-miterlimit: 4; stroke-dasharray: none; stroke-dashoffset: 0; stroke-opacity: 1;" />
<path d="m 11.499992,10.500445 v -4 c 0,-1.5 3,-1.5 3,0 v 4 m 4.32084,3.47226 -0.82084,-5.47226 H 7.9999919 l -1.5,10 h 6.0000001" style="fill: none; stroke: #000000; stroke-width: 1px; stroke-linecap: round; stroke-linejoin: round; stroke-opacity: 1;" />
</svg>