<svg width="26" height="26" viewBox="0 0 26 26" xmlns="http://www.w3.org/2000/svg">
<path d="m 7.999769,8.000445 c -0.24735,1.8e-4 -0.4574,0.18117 -0.49414,0.42578 l -1.5,10 c -0.0453,0.30218 0.18858,0.57399 0.49414,0.57422 h 6.13477 l -0.35157,-0.35156 c -0.19587,-0.19587 -0.19587,-0.51117 0,-0.70703 l 2.70703,-2.70703 c 0.19587,-0.19587 0.51117,-0.19585 0.70704,0 l 1.38867,1.38867 2.24804,-2.59961 -0.83984,-5.59766 c -0.03674,-0.24461 -0.24679,-0.4256 -0.49414,-0.42578 h -2.5 v 3 c 0.0191,1.35232 -2.01913,1.35232 -2,0 v -3 h -1 v 3 c 0.0191,1.35232 -2.01913,1.35232 -2,0 v -3 z m 12.64258,6.74609 c -0.13279,-0.004 -0.26181,0.0438 -0.33985,0.15821 l -3.21679,3.71875 -1.38867,-1.38867 c -0.19587,-0.19585 -0.51117,-0.19587 -0.70704,0 l -0.70703,0.70703 c -0.19587,0.19586 -0.19587,0.51116 0,0.70703 l 2.44922,2.44922 c 0.19587,0.19586 0.51116,0.19586 0.70703,0 l 4.27735,-4.77735 c 0.19587,-0.19587 0.19587,-0.51116 0,-0.70703 l -0.70703,-0.70898 c -0.0979,-0.0979 -0.23441,-0.15421 -0.36719,-0.15821 z" style="opacity: 1; fill: #000000; fill-opacity: 1; stroke: none; stroke-width: 1px; stroke-linecap: butt; stroke-linejoin: round; stroke-miterlimit: 4; stroke-dasharray: none; stroke-dashoffset: 0; stroke-opacity: 1;" />
<path d="m 11.499539,10.500445 v -4 c 0,-1.5 3,-1.5 3,0 v 4" style="fill: none; stroke: #000000; stroke-width: 1px; stroke-linecap: round; stroke-linejoin: round; stroke-opacity: 1;" />
</svg>