<svg width="26" height="26" viewBox="0 0 26 26" xmlns="http://www.w3.org/2000/svg">
<path d="m 12.948989,3.49414 c -0.06435,-0.009 -0.132329,-0.006 -0.199219,0.0117 L 7.9196919,4.80076 c -0.267562,0.0717 -0.425209,0.34377 -0.353516,0.61133 L 8.5271139,9 h 1.472656 V 8.5 c 0,-1.75 1.5000001,-2.625 3.0000001,-2.625 0.278466,0 0.553397,0.0393 0.822266,0.0996 L 13.363051,3.85936 C 13.309281,3.65868 13.142041,3.52078 12.948989,3.49413 Z m 1.792969,1.91211 0.171874,1.03125 C 15.554194,6.87207 15.99977,7.55341 15.99977,8.5 V 9 h 1.873047 L 18.433364,6.91211 C 18.505054,6.64455 18.347414,6.37247 18.079848,6.30078 Z M 7.9997699,10 c -0.24735,1.8e-4 -0.457401,0.18117 -0.494141,0.42578 l -1.5,10 c -0.0453,0.30218 0.188581,0.57399 0.494141,0.57422 H 19.49977 c 0.30556,-2.3e-4 0.539441,-0.27204 0.494141,-0.57422 l -1.5,-10 C 18.457171,10.18117 18.24712,10.00018 17.99977,10 h -2.5 v 3 c 0.0191,1.35232 -2.01913,1.35232 -2,0 v -3 h -1 v 3 c 0.0191,1.35232 -2.01913,1.35232 -2,0 v -3 z" style="opacity: 1; fill: #000000; fill-opacity: 1; stroke: none; stroke-width: 1px; stroke-linecap: butt; stroke-linejoin: round; stroke-miterlimit: 4; stroke-dasharray: none; stroke-dashoffset: 0; stroke-opacity: 1;" />
<path d="m 11.49954,12.5 v -4 c 0,-1.5 3,-1.5 3,0 v 4" style="fill: none; stroke: #000000; stroke-width: 1px; stroke-linecap: round; stroke-linejoin: round; stroke-opacity: 1;" />
</svg>