<svg width="26" height="26" viewBox="0 0 26 26" xmlns="http://www.w3.org/2000/svg">
<path d="m 12.94921,3.4941405 c -0.06435,-0.009 -0.132329,-0.006 -0.199219,0.0117 L 7.9199129,4.8007604 c -0.267562,0.0717 -0.425209,0.34377 -0.353516,0.61133 l 0.960938,3.58791 h 1.472656 v -0.5 c 0,-1.75 1.5000001,-2.625 3.0000001,-2.625 0.278466,0 0.553397,0.0393 0.822266,0.0996 L 13.363272,3.8593705 c -0.05377,-0.20068 -0.22101,-0.33859 -0.414062,-0.36524 z m 1.792969,1.9121099 0.171874,1.03125 c 0.640361,0.43457 1.085938,1.11591 1.085938,2.0625 v 0.5 h 1.873048 l 0.560547,-2.08789 c 0.07169,-0.26756 -0.08595,-0.53964 -0.353516,-0.61133 z" style="opacity: 1; fill: #000000; fill-opacity: 1; stroke: none; stroke-width: 3.52000022; stroke-linecap: round; stroke-linejoin: round; stroke-miterlimit: 4; stroke-dasharray: none; stroke-dashoffset: 2.79999995; stroke-opacity: 1;" />
<path d="m 6.4999919,20.5 1.499989,-10 H 17.999982 l 1.5,10 z m 7.9999891,-8 V 8.5000004 c 0,-1.5 -3,-1.5 -3,0 V 12.5" style="fill: none; stroke: #000000; stroke-width: 1px; stroke-linecap: round; stroke-linejoin: round; stroke-opacity: 1;" />
</svg>