<svg width="26" height="26" viewBox="0 0 26 26" xmlns="http://www.w3.org/2000/svg">
<path d="M 8,8 C 7.7526498,8.0001797 7.5425965,8.1811743 7.5058594,8.4257812 l -1.5,9.9999998 C 5.9605379,18.72796 6.1944415,18.999769 6.5,19 h 13 c 0.305559,-2.31e-4 0.539463,-0.27204 0.494141,-0.574219 l -1.5,-9.9999998 C 18.457404,8.1811742 18.24735,8.0001795 18,8 h -2.5 v 3 c 0.01913,1.352323 -2.019125,1.352323 -2,0 V 8 h -1 v 3 c 0.01913,1.352323 -2.019125,1.352323 -2,0 V 8 Z" style="opacity: 1; fill: #000000; fill-opacity: 1; stroke: none; stroke-width: 1px; stroke-linecap: butt; stroke-linejoin: round; stroke-miterlimit: 4; stroke-dasharray: none; stroke-dashoffset: 0; stroke-opacity: 1;" />
<path d="m 11.5,10.5 0,-4 c 0,-1.5 3,-1.5 3,0 l 0,4" style="fill: none; stroke: #000000; stroke-width: 1px; stroke-linecap: round; stroke-linejoin: round; stroke-opacity: 1;" />
</svg>