<svg width="26" height="26" viewBox="0 0 26 26" xmlns="http://www.w3.org/2000/svg">
<path d="m 7.999769,8.000475 c -0.24735,10e-5 -0.4574,0.1811 -0.49414,0.4257 l -1.5,10 c -0.0453,0.3022 0.18858,0.574 0.49414,0.5743 h 7.67187 l 1,-1 -1.76757,-1.7676 c -0.19587,-0.1959 -0.19587,-0.5112 0,-0.7071 l 2.12109,-2.121 c 0.19587,-0.1959 0.51116,-0.1959 0.70703,0 l 1.76758,1.7675 1.31055,-1.3105 -0.81641,-5.4356 c -0.03674,-0.2446 -0.24679,-0.4256 -0.49414,-0.4257 h -2.5 v 3 c 0.0191,1.3523 -2.01913,1.3523 -2,0 v -3 h -1 v 3 c 0.0191,1.3523 -2.01913,1.3523 -2,0 v -3 z m 7.87891,6.6718 c -0.12781,0 -0.25559,0.048 -0.35352,0.1465 l -0.70703,0.707 c -0.19587,0.1959 -0.19587,0.5112 0,0.7071 l 1.76758,1.7676 -1.76758,1.7675 c -0.19587,0.1959 -0.19587,0.5112 0,0.7071 l 0.70703,0.707 c 0.19586,0.1959 0.51116,0.1959 0.70703,0 l 1.76758,-1.7676 1.76758,1.7676 c 0.19587,0.1959 0.51117,0.1959 0.70703,0 l 0.70703,-0.707 c 0.19587,-0.1959 0.19587,-0.5112 0,-0.7071 l -1.76758,-1.7675 1.76758,-1.7676 c 0.19587,-0.1959 0.19587,-0.5112 0,-0.7071 l -0.70703,-0.707 c -0.19587,-0.1959 -0.51116,-0.1959 -0.70703,0 l -1.76758,1.7676 -1.76758,-1.7676 c -0.0979,-0.098 -0.22571,-0.1465 -0.35351,-0.1465 z" style="opacity: 1; fill: #000000; fill-opacity: 1; stroke: none; stroke-width: 2.00000024; stroke-linecap: butt; stroke-linejoin: miter; stroke-miterlimit: 4; stroke-dasharray: none; stroke-dashoffset: 0; stroke-opacity: 1;" />
<path d="m 11.499539,10.500475 v -4 c 0,-1.5 3,-1.5 3,0 v 4" style="fill: none; stroke: #000000; stroke-width: 1px; stroke-linecap: round; stroke-linejoin: round; stroke-opacity: 1;" />
</svg>