<svg width="26" height="26" viewBox="0 0 26 26" xmlns="http://www.w3.org/2000/svg">
<path d="m 20.474872,14.818139 c -0.19587,-0.19587 -0.51123,-0.19587 -0.7071,0 l -1.76777,1.767769 -1.76777,-1.767769 c -0.19587,-0.19587 -0.51124,-0.19587 -0.7071,0 l -0.70711,0.707109 c -0.19587,0.19587 -0.19587,0.51123 0,0.7071 l 1.76777,1.76777 -1.76777,1.76777 c -0.19587,0.19587 -0.19587,0.51124 0,0.7071 l 0.70711,0.70711 c 0.19586,0.19587 0.51123,0.19587 0.7071,0 l 1.76777,-1.76777 1.76777,1.76777 c 0.19587,0.19587 0.51124,0.19587 0.7071,0 l 0.70711,-0.70711 c 0.19587,-0.19586 0.19587,-0.51123 0,-0.7071 l -1.76777,-1.76777 1.76777,-1.76777 c 0.19587,-0.19587 0.19587,-0.51124 0,-0.7071 z" style="opacity: 1; fill: #000000; fill-opacity: 1; stroke: none; stroke-width: 2.00000024; stroke-linecap: butt; stroke-linejoin: miter; stroke-miterlimit: 4; stroke-dasharray: none; stroke-dashoffset: 0; stroke-opacity: 1;" />
<path d="M 11.499992,10.500119 V 6.5001185 c 0,-1.5 3,-1.5 3,0 v 4.0000005 m 4.30232,3.34882 -0.80232,-5.3488205 H 7.9999919 l -1.5,9.9999995 h 7.0000001" style="fill: none; stroke: #000000; stroke-width: 1px; stroke-linecap: round; stroke-linejoin: round; stroke-opacity: 1;" />
</svg>