<svg width="26" height="26" viewBox="0 0 26 26" xmlns="http://www.w3.org/2000/svg">
<path d="m 12.499999,8.7499967 a 0.75,0.75 0 0 0 -0.75,0.75 0.75,0.75 0 0 0 0.75,0.7500003 0.75,0.75 0 0 0 0.75,-0.7500003 0.75,0.75 0 0 0 -0.75,-0.75 z m 2,0 a 0.75,0.75 0 0 0 -0.75,0.75 0.75,0.75 0 0 0 0.75,0.7500003 0.75,0.75 0 0 0 0.75,-0.7500003 0.75,0.75 0 0 0 -0.75,-0.75 z m -4,2.0000003 a 0.75,0.75 0 0 0 -0.7500003,0.75 0.75,0.75 0 0 0 0.7500003,0.75 0.75,0.75 0 0 0 0.75,-0.75 0.75,0.75 0 0 0 -0.75,-0.75 z m 2,0 a 0.75,0.75 0 0 0 -0.75,0.75 0.75,0.75 0 0 0 0.75,0.75 0.75,0.75 0 0 0 0.75,-0.75 0.75,0.75 0 0 0 -0.75,-0.75 z m 2,0 a 0.75,0.75 0 0 0 -0.75,0.75 0.75,0.75 0 0 0 0.75,0.75 0.75,0.75 0 0 0 0.75,-0.75 0.75,0.75 0 0 0 -0.75,-0.75 z m 2,0 a 0.75,0.75 0 0 0 -0.75,0.75 0.75,0.75 0 0 0 0.75,0.75 0.75,0.75 0 0 0 0.75,-0.75 0.75,0.75 0 0 0 -0.75,-0.75 z m -6,2 a 0.75,0.75 0 0 0 -0.7500003,0.75 0.75,0.75 0 0 0 0.7500003,0.75 0.75,0.75 0 0 0 0.75,-0.75 0.75,0.75 0 0 0 -0.75,-0.75 z m 2,0 a 0.75,0.75 0 0 0 -0.75,0.75 0.75,0.75 0 0 0 0.75,0.75 0.75,0.75 0 0 0 0.75,-0.75 0.75,0.75 0 0 0 -0.75,-0.75 z m 2,0 a 0.75,0.75 0 0 0 -0.75,0.75 0.75,0.75 0 0 0 0.75,0.75 0.75,0.75 0 0 0 0.75,-0.75 0.75,0.75 0 0 0 -0.75,-0.75 z m 2,0 a 0.75,0.75 0 0 0 -0.75,0.75 0.75,0.75 0 0 0 0.75,0.75 0.75,0.75 0 0 0 0.75,-0.75 0.75,0.75 0 0 0 -0.75,-0.75 z m -4,2 a 0.75,0.75 0 0 0 -0.75,0.75 0.75,0.75 0 0 0 0.75,0.75 0.75,0.75 0 0 0 0.75,-0.75 0.75,0.75 0 0 0 -0.75,-0.75 z m 2,0 a 0.75,0.75 0 0 0 -0.75,0.75 0.75,0.75 0 0 0 0.75,0.75 0.75,0.75 0 0 0 0.75,-0.75 0.75,0.75 0 0 0 -0.75,-0.75 z" style="opacity: 1; fill: #000000; fill-opacity: 1; stroke: none; stroke-width: 1; stroke-linecap: butt; stroke-linejoin: miter; stroke-miterlimit: 4; stroke-dasharray: none; stroke-dashoffset: 0; stroke-opacity: 1;" />
<path d="m 13.000007,6.9999895 c 2.5,0.5 5.5,3.4999995 6,5.9999995 m -10.9999999,-1 c 0.5,2.5 3.4999999,5.5 5.9999999,6 M 3.8750481,15.921839 16.921581,2.8751314 c 1.17226,-1.1722764 3.059748,-1.1722976 4.232035,-4.75e-5 l 1.97118,1.971118 c 1.172287,1.1722499 1.172308,3.0597203 4.8e-5,4.2319967 L 10.078311,22.124907 c -1.1722609,1.172276 -3.0597489,1.172297 -4.2320349,4.7e-5 l -1.971181,-1.971118 c -1.172287,-1.17225 -1.172308,-3.05972 -4.7e-5,-4.231997 z m 11.0232769,4.17971 2.023267,2.023354 c 1.172243,1.172294 3.059748,1.172297 4.232034,4.8e-5 l 1.971181,-1.971119 c 1.172287,-1.172249 1.17229,-3.059702 4.7e-5,-4.231996 l -2.023266,-2.023354 m -9,-8.9999997 -2.023267,-2.0233544 C 8.9060781,1.7028337 7.0185731,1.7028302 5.8462861,2.8750803 l -1.97118,1.9711181 c -1.172286,1.1722493 -1.17229,3.0597025 -4.8e-5,4.2319965 l 2.023267,2.0233541" style="fill: none; stroke: #000000; stroke-width: 1.1; stroke-linecap: round; stroke-linejoin: miter; stroke-miterlimit: 4; stroke-dasharray: none; stroke-opacity: 1;" />
</svg>