<svg width="26" height="26" viewBox="0 0 26 26" xmlns="http://www.w3.org/2000/svg">
<path d="m 7.9651003,2.0000003 c -0.76463,-7.1e-6 -1.53043,0.2926682 -2.11634,0.878567 l -1.969914,1.9699425 c -1.171817,1.1717969 -1.171773,3.0589469 0,4.2307885 L 6.4012803,11.601761 12.60192,5.4010309 10.07949,2.8785673 C 9.4936003,2.2926491 8.7297403,2.0000073 7.9651003,2.0000003 Z m 11.0678397,0.0039 c -0.76464,8.5e-6 -1.52849,0.2926578 -2.11439,0.8785669 l -3.27408,3.2741313 c 1.26362,0.4117525 2.57518,1.3588893 3.7075,2.4912257 1.13233,1.1323361 2.07945,2.4439158 2.4912,3.7075528 l 3.27408,-3.2741267 c 1.1718,-1.1718184 1.17182,-3.0589958 0,-4.2307882 L 21.14929,2.8824719 C 20.56337,2.2965761 19.79758,2.0038964 19.03294,2.003905 Z M 12.82839,6.972685 7.9729103,11.828231 a 0.49985014,0.49985701 0 0 1 0.0195,0.07419 c 0.21472,1.073583 1.15996,2.5403 2.3623397,3.742695 1.20238,1.202395 2.66907,2.147653 3.74264,2.36237 a 0.49985014,0.49985701 0 0 1 0.0742,0.01952 l 4.85548,-4.855547 a 0.49985014,0.49985701 0 0 1 -0.0195,-0.07419 C 18.79286,12.023695 17.84762,10.556977 16.64524,9.3545823 15.44286,8.1521873 13.97616,7.2069301 12.90259,6.9922134 a 0.49985014,0.49985701 0 0 1 -0.0742,-0.019523 z M 12.5004,8.7512952 a 0.74970023,0.74971054 0 0 1 0.7497,0.7497101 0.74970023,0.74971054 0 0 1 -0.7497,0.7497097 0.74970023,0.74971054 0 0 1 -0.7497,-0.7497097 0.74970023,0.74971054 0 0 1 0.7497,-0.7497101 z m 1.9992,0 a 0.74970023,0.74971054 0 0 1 0.7497,0.7497101 0.74970023,0.74971054 0 0 1 -0.7497,0.7497097 0.74970023,0.74971054 0 0 1 -0.7497,-0.7497097 0.74970023,0.74971054 0 0 1 0.7497,-0.7497101 z m -3.9984,1.9992318 a 0.74970023,0.74971054 0 0 1 0.7497,0.749711 0.74970023,0.74971054 0 0 1 -0.7497,0.749711 A 0.74970023,0.74971054 0 0 1 9.7515003,11.500238 0.74970023,0.74971054 0 0 1 10.5012,10.750527 Z m 1.9992,0 a 0.74970023,0.74971054 0 0 1 0.7497,0.749711 0.74970023,0.74971054 0 0 1 -0.7497,0.749711 0.74970023,0.74971054 0 0 1 -0.7497,-0.749711 0.74970023,0.74971054 0 0 1 0.7497,-0.749711 z m 1.9992,0 a 0.74970023,0.74971054 0 0 1 0.7497,0.749711 0.74970023,0.74971054 0 0 1 -0.7497,0.749711 0.74970023,0.74971054 0 0 1 -0.7497,-0.749711 0.74970023,0.74971054 0 0 1 0.7497,-0.749711 z m 1.9992,0 a 0.74970023,0.74971054 0 0 1 0.7497,0.749711 0.74970023,0.74971054 0 0 1 -0.7497,0.749711 0.74970023,0.74971054 0 0 1 -0.7497,-0.749711 0.74970023,0.74971054 0 0 1 0.7497,-0.749711 z m -9.3419697,1.8938 -3.274079,3.274127 c -1.171798,1.171819 -1.171824,3.058996 0,4.230789 l 1.967959,1.96799 c 1.17183,1.171791 3.05894,1.171818 4.2307297,0 l 3.27409,-3.274127 c -1.26362,-0.411752 -2.57519,-1.358889 -3.7075097,-2.491225 -1.13232,-1.132337 -2.07944,-2.443917 -2.49119,-3.707554 z M 10.5012,12.749756 a 0.74970023,0.74971054 0 0 1 0.7497,0.74971 0.74970023,0.74971054 0 0 1 -0.7497,0.749711 0.74970023,0.74971054 0 0 1 -0.7496997,-0.749711 0.74970023,0.74971054 0 0 1 0.7496997,-0.74971 z m 1.9992,0 a 0.74970023,0.74971054 0 0 1 0.7497,0.74971 0.74970023,0.74971054 0 0 1 -0.7497,0.749711 0.74970023,0.74971054 0 0 1 -0.7497,-0.749711 0.74970023,0.74971054 0 0 1 0.7497,-0.74971 z m 1.9992,0 a 0.74970023,0.74971054 0 0 1 0.7497,0.74971 0.74970023,0.74971054 0 0 1 -0.7497,0.749711 0.74970023,0.74971054 0 0 1 -0.7497,-0.749711 0.74970023,0.74971054 0 0 1 0.7497,-0.74971 z m 1.9992,0 a 0.74970023,0.74971054 0 0 1 0.7497,0.74971 0.74970023,0.74971054 0 0 1 -0.7497,0.749711 0.74970023,0.74971054 0 0 1 -0.7497,-0.749711 0.74970023,0.74971054 0 0 1 0.7497,-0.74971 z m 4.09992,0.648187 -6.20064,6.20073 2.52243,2.522464 c 1.17178,1.171837 3.05891,1.171797 4.23073,0 l 1.96991,-1.969942 c 1.17182,-1.171797 1.17178,-3.058947 0,-4.230789 z m -8.09832,1.351041 a 0.74970023,0.74971054 0 0 1 0.7497,0.74971 0.74970023,0.74971054 0 0 1 -0.7497,0.749711 0.74970023,0.74971054 0 0 1 -0.7497,-0.749711 0.74970023,0.74971054 0 0 1 0.7497,-0.74971 z m 1.9992,0 a 0.74970023,0.74971054 0 0 1 0.7497,0.74971 0.74970023,0.74971054 0 0 1 -0.7497,0.749711 0.74970023,0.74971054 0 0 1 -0.7497,-0.749711 0.74970023,0.74971054 0 0 1 0.7497,-0.74971 z" style="opacity: 1; fill: #000000; fill-opacity: 1; stroke: none; stroke-width: 1.25000036; stroke-linecap: round; stroke-linejoin: miter; stroke-miterlimit: 4; stroke-dasharray: none; stroke-dashoffset: 0; stroke-opacity: 1;" />
</svg>