<svg width="26" height="26" viewBox="0 0 26 26" xmlns="http://www.w3.org/2000/svg">
<path d="m 12.499999,8.7499967 a 0.75,0.75 0 0 0 -0.75,0.75 0.75,0.75 0 0 0 0.75,0.7500003 0.75,0.75 0 0 0 0.75,-0.7500003 0.75,0.75 0 0 0 -0.75,-0.75 z m 2,0 a 0.75,0.75 0 0 0 -0.75,0.75 0.75,0.75 0 0 0 0.75,0.7500003 0.75,0.75 0 0 0 0.75,-0.7500003 0.75,0.75 0 0 0 -0.75,-0.75 z m -4,2.0000003 a 0.75,0.75 0 0 0 -0.7500003,0.75 0.75,0.75 0 0 0 0.7500003,0.75 0.75,0.75 0 0 0 0.75,-0.75 0.75,0.75 0 0 0 -0.75,-0.75 z m 2,0 a 0.75,0.75 0 0 0 -0.75,0.75 0.75,0.75 0 0 0 0.75,0.75 0.75,0.75 0 0 0 0.75,-0.75 0.75,0.75 0 0 0 -0.75,-0.75 z m 2,0 a 0.75,0.75 0 0 0 -0.75,0.75 0.75,0.75 0 0 0 0.75,0.75 0.75,0.75 0 0 0 0.75,-0.75 0.75,0.75 0 0 0 -0.75,-0.75 z m 2,0 a 0.75,0.75 0 0 0 -0.75,0.75 0.75,0.75 0 0 0 0.75,0.75 0.75,0.75 0 0 0 0.75,-0.75 0.75,0.75 0 0 0 -0.75,-0.75 z m -6,2 a 0.75,0.75 0 0 0 -0.7500003,0.75 0.75,0.75 0 0 0 0.7500003,0.75 0.75,0.75 0 0 0 0.75,-0.75 0.75,0.75 0 0 0 -0.75,-0.75 z m 2,0 a 0.75,0.75 0 0 0 -0.75,0.75 0.75,0.75 0 0 0 0.75,0.75 0.75,0.75 0 0 0 0.75,-0.75 0.75,0.75 0 0 0 -0.75,-0.75 z m 2,0 a 0.75,0.75 0 0 0 -0.75,0.75 0.75,0.75 0 0 0 0.75,0.75 0.75,0.75 0 0 0 0.75,-0.75 0.75,0.75 0 0 0 -0.75,-0.75 z m 2,0 a 0.75,0.75 0 0 0 -0.75,0.75 0.75,0.75 0 0 0 0.75,0.75 0.75,0.75 0 0 0 0.75,-0.75 0.75,0.75 0 0 0 -0.75,-0.75 z m -4,2 a 0.75,0.75 0 0 0 -0.75,0.75 0.75,0.75 0 0 0 0.75,0.75 0.75,0.75 0 0 0 0.75,-0.75 0.75,0.75 0 0 0 -0.75,-0.75 z m 2,0 a 0.75,0.75 0 0 0 -0.75,0.75 0.75,0.75 0 0 0 0.75,0.75 0.75,0.75 0 0 0 0.75,-0.75 0.75,0.75 0 0 0 -0.75,-0.75 z" style="opacity: 1; fill: #000000; fill-opacity: 1; stroke: none; stroke-width: 1; stroke-linecap: butt; stroke-linejoin: miter; stroke-miterlimit: 4; stroke-dasharray: none; stroke-dashoffset: 0; stroke-opacity: 1;" />
<path d="m 12.999999,6.9999967 c 2.5,0.5 5.5,3.5000003 6,6.0000003 m -11.0000003,-1 c 0.5,2.5 3.5000003,5.5 6.0000003,6 M 3.8750477,15.921844 16.921581,2.8751347 c 1.172261,-1.1722767 3.059748,-1.1722972 4.232035,-4.7e-5 l 1.97118,1.971117 c 1.172287,1.17225 1.172309,3.059721 4.8e-5,4.231997 L 10.078311,22.124911 c -1.1722603,1.172277 -3.0597483,1.172297 -4.2320353,4.7e-5 l -1.97118,-1.971117 c -1.172287,-1.17225 -1.172309,-3.059721 -4.8e-5,-4.231997 z" style="fill: none; stroke: #000000; stroke-width: 1.1; stroke-linecap: round; stroke-linejoin: miter; stroke-miterlimit: 4; stroke-dasharray: none; stroke-opacity: 1;" />
</svg>