<svg width="26" height="26" viewBox="0 0 26 26" xmlns="http://www.w3.org/2000/svg">
<path d="m 19.034996,1.9997128 c -0.764922,9e-6 -1.529057,0.292771 -2.115173,0.8789066 l -3.275296,3.2753907 c 1.264088,0.4119114 2.576136,1.3594139 3.708877,2.4921875 1.132741,1.1327735 2.080214,2.4448594 2.492115,3.7089844 l 3.275297,-3.2753907 c 1.172232,-1.1722711 1.172258,-3.0601771 0,-4.2324219 l -1.968693,-1.96875 C 20.565994,2.2924968 19.799918,1.9997048 19.034996,1.9997128 Z M 12.828144,6.9704163 7.9708631,11.827838 a 0.50003556,0.50005 0 0 1 0.01953,0.07422 c 0.214793,1.073998 1.160387,2.541281 2.3632119,3.74414 1.202826,1.20286 2.670066,2.148482 3.744033,2.363282 a 0.50003556,0.50005 0 0 1 0.07422,0.01953 l 4.857282,-4.857422 a 0.50003556,0.50005 0 0 1 -0.01953,-0.07422 C 18.794813,12.023371 17.849218,10.556088 16.646393,9.3532288 15.443569,8.1503693 13.976328,7.2047472 12.902361,6.9899476 a 0.50003556,0.50005 0 0 1 -0.07422,-0.019531 z m -0.328115,1.7792969 a 0.74997834,0.75 0 0 1 0.749978,0.75 0.74997834,0.75 0 0 1 -0.749978,0.7499998 0.74997834,0.75 0 0 1 -0.749979,-0.7499998 0.74997834,0.75 0 0 1 0.749979,-0.75 z m 1.999942,0 a 0.74997834,0.75 0 0 1 0.749978,0.75 0.74997834,0.75 0 0 1 -0.749978,0.7499998 0.74997834,0.75 0 0 1 -0.749978,-0.7499998 0.74997834,0.75 0 0 1 0.749978,-0.75 z m -3.999885,1.9999998 a 0.74997834,0.75 0 0 1 0.749979,0.75 0.74997834,0.75 0 0 1 -0.749979,0.75 0.74997834,0.75 0 0 1 -0.7499779,-0.75 0.74997834,0.75 0 0 1 0.7499779,-0.75 z m 1.999943,0 a 0.74997834,0.75 0 0 1 0.749978,0.75 0.74997834,0.75 0 0 1 -0.749978,0.75 0.74997834,0.75 0 0 1 -0.749979,-0.75 0.74997834,0.75 0 0 1 0.749979,-0.75 z m 1.999942,0 a 0.74997834,0.75 0 0 1 0.749978,0.75 0.74997834,0.75 0 0 1 -0.749978,0.75 0.74997834,0.75 0 0 1 -0.749978,-0.75 0.74997834,0.75 0 0 1 0.749978,-0.75 z m 1.999942,0 a 0.74997834,0.75 0 0 1 0.749978,0.75 0.74997834,0.75 0 0 1 -0.749978,0.75 0.74997834,0.75 0 0 1 -0.749978,-0.75 0.74997834,0.75 0 0 1 0.749978,-0.75 z m -9.3454329,1.894531 -3.275296,3.275391 c -1.172232,1.172271 -1.172259,3.060177 0,4.232422 l 1.968693,1.96875 c 1.172259,1.172244 3.060068,1.172271 4.2322999,0 l 3.275296,-3.275391 c -1.264089,-0.411911 -2.576137,-1.359414 -3.7088779,-2.492187 -1.13274,-1.132774 -2.080216,-2.44486 -2.492115,-3.708985 z m 3.3456059,0.105469 a 0.74997834,0.75 0 0 1 0.749979,0.75 0.74997834,0.75 0 0 1 -0.749979,0.75 0.74997834,0.75 0 0 1 -0.7499779,-0.75 0.74997834,0.75 0 0 1 0.7499779,-0.75 z m 1.999943,0 a 0.74997834,0.75 0 0 1 0.749978,0.75 0.74997834,0.75 0 0 1 -0.749978,0.75 0.74997834,0.75 0 0 1 -0.749979,-0.75 0.74997834,0.75 0 0 1 0.749979,-0.75 z m 1.999942,0 a 0.74997834,0.75 0 0 1 0.749978,0.75 0.74997834,0.75 0 0 1 -0.749978,0.75 0.74997834,0.75 0 0 1 -0.749978,-0.75 0.74997834,0.75 0 0 1 0.749978,-0.75 z m 1.999942,0 a 0.74997834,0.75 0 0 1 0.749978,0.75 0.74997834,0.75 0 0 1 -0.749978,0.75 0.74997834,0.75 0 0 1 -0.749978,-0.75 0.74997834,0.75 0 0 1 0.749978,-0.75 z m -3.999884,2 a 0.74997834,0.75 0 0 1 0.749978,0.75 0.74997834,0.75 0 0 1 -0.749978,0.75 0.74997834,0.75 0 0 1 -0.749979,-0.75 0.74997834,0.75 0 0 1 0.749979,-0.75 z m 1.999942,0 a 0.74997834,0.75 0 0 1 0.749978,0.75 0.74997834,0.75 0 0 1 -0.749978,0.75 0.74997834,0.75 0 0 1 -0.749978,-0.75 0.74997834,0.75 0 0 1 0.749978,-0.75 z" style="opacity: 1; fill: #000000; fill-opacity: 1; stroke: none; stroke-width: 1.25000036; stroke-linecap: round; stroke-linejoin: miter; stroke-miterlimit: 4; stroke-dasharray: none; stroke-dashoffset: 0; stroke-opacity: 1;" />
</svg>