<svg width="26" height="26" viewBox="0 0 26 26" xmlns="http://www.w3.org/2000/svg">
<path d="M 4.5,6 C 4.223,6 4,6.223 4,6.5 l 0,1 C 4,7.777 4.223,8 4.5,8 l 17,0 C 21.777,8 22,7.777 22,7.5 l 0,-1 C 22,6.223 21.777,6 21.5,6 l -17,0 z m 0,6 C 4.223,12 4,12.223 4,12.5 l 0,1 C 4,13.777 4.223,14 4.5,14 l 17,0 c 0.277,0 0.5,-0.223 0.5,-0.5 l 0,-1 C 22,12.223 21.777,12 21.5,12 l -17,0 z m 0,6 C 4.223,18 4,18.223 4,18.5 l 0,1 C 4,19.777 4.223,20 4.5,20 l 17,0 c 0.277,0 0.5,-0.223 0.5,-0.5 l 0,-1 C 22,18.223 21.777,18 21.5,18 l -17,0 z" style="opacity: 1; fill: #000000; fill-opacity: 1; stroke: none; stroke-width: 1px; stroke-linecap: round; stroke-linejoin: round; stroke-miterlimit: 4; stroke-dasharray: none; stroke-dashoffset: 0; stroke-opacity: 1;" />
</svg>