<svg width="26" height="26" viewBox="0 0 26 26" xmlns="http://www.w3.org/2000/svg">
<path d="m 7.5,12.500118 3,-7 m 8,7 -3,-7" style="fill: none; stroke: #000000; stroke-width: 1.5; stroke-linecap: round; stroke-linejoin: round; stroke-miterlimit: 4; stroke-dasharray: none; stroke-opacity: 1;" />
<path d="m 20.5,13.500119 c 0,0.714531 -0.3812,1.374785 -1,1.732051 -0.6188,0.357266 -1.3812,0.357266 -2,0 -0.6188,-0.357266 -1,-1.01752 -1,-1.732052 h -7 c 0,0.714532 -0.3812,1.374786 -1,1.732052 -0.6188,0.357266 -1.3812,0.357266 -2,0 -0.6188,-0.357266 -1,-1.01752 -1,-1.732052 H 4 m 16.5,0 H 22 m -11.5,-2 h 5 m -10,0 h -3 v 2 H 4 l 2.5,7 H 16 m 5.5,-5 0.5,-2 h 1.5 v -2 h -3 m -6,4 v 3 m -3,-3 v 3 m -3,-1.5 v 1.5" style="opacity: 1; fill: none; fill-opacity: 1; stroke: #000000; stroke-width: 0.99999994; stroke-linecap: round; stroke-linejoin: round; stroke-miterlimit: 4; stroke-dasharray: none; stroke-dashoffset: 2.79999995; stroke-opacity: 1;" />
<path d="m 22.47487,16.818137 c -0.19587,-0.195868 -0.51123,-0.195868 -0.7071,0 L 20,18.585904 18.23223,16.818137 c -0.19587,-0.195868 -0.51124,-0.195868 -0.7071,0 l -0.70711,0.707107 c -0.19587,0.195869 -0.19587,0.511238 0,0.707107 l 1.76777,1.767767 -1.76777,1.767767 c -0.19587,0.195869 -0.19587,0.511238 0,0.707107 l 0.70711,0.707107 c 0.19586,0.195868 0.51123,0.195868 0.7071,0 L 20,21.414332 l 1.76777,1.767767 c 0.19587,0.195868 0.51124,0.195868 0.7071,0 l 0.70711,-0.707107 c 0.19587,-0.195869 0.19587,-0.511238 0,-0.707107 l -1.76777,-1.767767 1.76777,-1.767767 c 0.19587,-0.195869 0.19587,-0.511238 0,-0.707107 z" style="opacity: 1; fill: #000000; fill-opacity: 1; stroke: none; stroke-width: 2.00000024; stroke-linecap: butt; stroke-linejoin: miter; stroke-miterlimit: 4; stroke-dasharray: none; stroke-dashoffset: 0; stroke-opacity: 1;" />
</svg>