<svg width="26" height="26" viewBox="0 0 26 26" xmlns="http://www.w3.org/2000/svg">
<path d="m 7.5,12.5 2.999999,-7 m 8,7 -3,-7" style="fill: none; stroke: #000000; stroke-width: 1.5; stroke-linecap: round; stroke-linejoin: round; stroke-miterlimit: 4; stroke-dasharray: none; stroke-opacity: 1;" />
<path d="m 20.5,13.500001 c 0,0.714531 -0.381198,1.374785 -1,1.732051 -0.618803,0.357266 -1.381199,0.357266 -2.000001,0 -0.618802,-0.357266 -1,-1.01752 -1,-1.732052 H 9.5 c 0,0.714532 -0.381198,1.374786 -1,1.732052 -0.618802,0.357266 -1.381198,0.357266 -2,0 C 5.881198,14.874786 5.5,14.214532 5.5,13.5 H 4 m 16.5,0 h 1.499999 m -11.5,-2 h 5 M 5.5,11.5 h -3 v 2 H 4 l 2.5,7 h 13 l 2.499999,-7 h 1.5 v -2 H 20.5 M 17.499999,17 v 1.5 m -3,-3 v 3 m -3,-3 v 3 M 8.5,17 v 1.5" style="opacity: 1; fill: none; fill-opacity: 1; stroke: #000000; stroke-width: 0.99999994; stroke-linecap: round; stroke-linejoin: round; stroke-miterlimit: 4; stroke-dasharray: none; stroke-dashoffset: 2.79999995; stroke-opacity: 1;" />
</svg>