<svg width="26" height="26" viewBox="0 0 26 26" xmlns="http://www.w3.org/2000/svg">
<path d="m 7.5,12.500001 3,-7.0000005 m 8,7.0000005 -3,-7.0000005" style="fill: none; stroke: #000000; stroke-width: 1.5; stroke-linecap: round; stroke-linejoin: round; stroke-miterlimit: 4; stroke-dasharray: none; stroke-opacity: 1;" />
<path d="m 20.5,13.500002 c 0,0.357265 -0.0953,0.700962 -0.267949,1 M 17.5,15.232053 c -0.618802,-0.357266 -1,-1.01752 -1,-1.732052 h -7 c 0,0.714532 -0.3812,1.374786 -1,1.732052 -0.6188,0.357266 -1.3812,0.357266 -2,0 -0.6188,-0.357266 -1,-1.01752 -1,-1.732052 H 4 m 16.5,0 H 22 m -11.5,-2 h 5 m -10,0 h -3 v 2 H 4 L 6.5,20.5 h 8 m 7,-5.499999 0.5,-1.5 h 1.5 v -2 h -3 M 17.5,17 v 0.5 m -3,-1.999999 V 18.5 m -3,-2.999999 V 18.5 M 8.5,17 v 1.5" style="opacity: 1; fill: none; fill-opacity: 1; stroke: #000000; stroke-width: 0.99999994; stroke-linecap: round; stroke-linejoin: round; stroke-miterlimit: 4; stroke-dasharray: none; stroke-dashoffset: 2.79999995; stroke-opacity: 1;" />
<path d="M 19.5,16 C 19.223,16 19,16.223001 19,16.5 V 19 H 16.5 C 16.223,19 16,19.223 16,19.5 v 1 c 0,0.277 0.223,0.5 0.5,0.5 H 19 v 2.5 c 0,0.277 0.223,0.5 0.5,0.5 h 1 C 20.777,24 21,23.777 21,23.5 V 21 h 2.5 c 0.277,0 0.5,-0.223 0.5,-0.5 v -1 C 24,19.223 23.777,19 23.5,19 H 21 V 16.5 C 21,16.223 20.777,16 20.5,16 Z" style="opacity: 1; fill: #000000; fill-opacity: 1; stroke: none; stroke-width: 2.00000024; stroke-linecap: butt; stroke-linejoin: miter; stroke-miterlimit: 4; stroke-dasharray: none; stroke-dashoffset: 0; stroke-opacity: 1;" />
</svg>