<svg width="26" height="26" viewBox="0 0 26 26" xmlns="http://www.w3.org/2000/svg">
<path d="m 5.455078,6.2187502 c -0.193052,0.02665 -0.35834,0.164563 -0.412109,0.365234 L 4.126953,10 H 6.65625 L 8.001953,6.8593752 5.654297,6.2304692 c -0.06689,-0.01792 -0.134868,-0.0206 -0.199219,-0.011719 z m 15.521484,0.982422 c -0.06444,-0.0089 -0.132328,-0.0062 -0.199218,0.01172 L 18.419922,7.8457032 19.34375,10 h 2.699219 L 21.390625,7.5664062 c -0.05377,-0.200671 -0.220754,-0.338599 -0.414063,-0.365234 z M 11.4375,7.7812502 10.486328,10 h 5.027344 l -0.529297,-1.2343748 -2.417969,0.648437 0.203125,-0.759765 c 0.07169,-0.267562 -0.08595,-0.539635 -0.353515,-0.611328 z M 3.5,11 C 3.223,11 3,11.223 3,11.5 v 1 C 3,12.777 3.223,13 3.5,13 H 4 l 2,7 c 0.5,1 1,1 1,1 h 12 c 0,0 0.5,0 1,-1 l 2,-7 h 0.5 c 0.277,0 0.5,-0.223 0.5,-0.5 v -1 C 23,11.223 22.777,11 22.5,11 h -2.738281 l 0.347656,0.810547 a 1.7508379,1.7508379 0 1 1 -3.21875,1.378906 L 15.953125,11 h -5.90625 l -0.9375,2.189453 A 1.7508379,1.7508379 0 1 1 5.890625,11.810547 L 6.238281,11 Z m 7.992188,2.992188 C 11.774452,13.987771 12.004417,14.217734 12,14.5 v 4 c 0.0096,0.676161 -1.009563,0.676161 -1,0 v -4 c -0.0043,-0.276145 0.216042,-0.503504 0.492188,-0.507812 z m 3,0 C 14.774452,13.987771 15.004417,14.217734 15,14.5 v 4 c 0.0096,0.676161 -1.009563,0.676161 -1,0 v -4 c -0.0043,-0.276145 0.216042,-0.503504 0.492188,-0.507812 z m -6,1 C 8.774455,14.987771 9.004417,15.217734 9,15.5 v 3 c 0.0096,0.676161 -1.009563,0.676161 -1,0 v -3 C 7.9957,15.223855 8.216043,14.996496 8.492188,14.992188 Z m 9,0 C 17.774453,14.987788 18.004417,15.217734 18,15.5 v 3 c 0.0096,0.676161 -1.009563,0.676161 -1,0 v -3 c -0.0043,-0.276145 0.216043,-0.503504 0.492188,-0.507812 z" style="opacity: 1; fill: #000000; fill-opacity: 1; stroke: none; stroke-width: 2; stroke-linecap: butt; stroke-linejoin: miter; stroke-miterlimit: 4; stroke-dasharray: none; stroke-dashoffset: 2.79999995; stroke-opacity: 1;" />
<path d="m 7.5,12.5 3,-6.9999998 M 18.5,12.5 15.5,5.5000002" style="fill: none; stroke: #000000; stroke-width: 1.5; stroke-linecap: round; stroke-linejoin: round; stroke-miterlimit: 4; stroke-dasharray: none; stroke-opacity: 1;" />
</svg>