<svg width="26" height="26" viewBox="0 0 26 26" xmlns="http://www.w3.org/2000/svg">
<path d="m 7.5,12.480445 3,-6.9999997 m 8,6.9999997 -3,-6.9999997" style="fill: none; stroke: #000000; stroke-width: 1.5; stroke-linecap: round; stroke-linejoin: round; stroke-miterlimit: 4; stroke-dasharray: none; stroke-opacity: 1;" />
<path d="m 20.5,13.500001 c 0,0.714531 -0.3812,1.374785 -1,1.732051 -0.6188,0.357266 -1.3812,0.357266 -2,0 -0.6188,-0.357266 -1,-1.01752 -1,-1.732052 h -7 c 0,0.714532 -0.3812,1.374786 -1,1.732052 -0.6188,0.357266 -1.3812,0.357266 -2,0 C 5.8812,14.874786 5.5,14.214532 5.5,13.5 H 4 m 16.5,0 H 22 m -11.5,-2 h 5 m -10,0 h -3 v 2 H 4 l 2.5,7 h 8 m 6.5,-4 1,-3 h 1.5 v -2 h -3 m -3,5.5 v 0.5 m -3,-2 v 3 m -3,-3 v 3 M 8.5,17 v 1.5" style="opacity: 1; fill: none; fill-opacity: 1; stroke: #000000; stroke-width: 0.99999994; stroke-linecap: round; stroke-linejoin: round; stroke-miterlimit: 4; stroke-dasharray: none; stroke-dashoffset: 2.79999995; stroke-opacity: 1;" />
<path d="m 22.64258,16.726535 c -0.13279,-0.004 -0.26181,0.0438 -0.33985,0.15821 l -3.21679,3.71875 -1.38867,-1.38868 c -0.19587,-0.19585 -0.51117,-0.19587 -0.70704,0 l -0.70703,0.70704 c -0.19587,0.19586 -0.19587,0.51116 0,0.70703 l 2.44922,2.44922 c 0.19587,0.19586 0.51116,0.19586 0.70703,0 l 4.27735,-4.77735 c 0.19587,-0.19587 0.19587,-0.51116 0,-0.70703 l -0.70703,-0.70898 c -0.0979,-0.0979 -0.23441,-0.15421 -0.36719,-0.15821 z" style="opacity: 1; fill: #000000; fill-opacity: 1; stroke: none; stroke-width: 1px; stroke-linecap: butt; stroke-linejoin: round; stroke-miterlimit: 4; stroke-dasharray: none; stroke-dashoffset: 0; stroke-opacity: 1;" />
</svg>