<svg width="26" height="26" viewBox="0 0 26 26" xmlns="http://www.w3.org/2000/svg">
<path d="m 7.5,12.49995 3,-7 m 8,7 -3,-7" style="fill: none; stroke: #000000; stroke-width: 1.5; stroke-linecap: round; stroke-linejoin: round; stroke-miterlimit: 4; stroke-dasharray: none; stroke-opacity: 1;" />
<path d="m 20.5,13.499951 c 0,0.714531 -0.3812,1.374785 -1,1.732051 -0.6188,0.357266 -1.3812,0.357266 -2,0 -0.6188,-0.357266 -1,-1.01752 -1,-1.732052 h -7 c 0,0.714532 -0.3812,1.374786 -1,1.732052 -0.6188,0.357266 -1.3812,0.357266 -2,0 -0.6188,-0.357266 -1,-1.01752 -1,-1.732052 H 4 m 16.5,0 H 22 m -11.5,-2 h 5 m -10,0 h -3 v 2 H 4 l 2.5,7 h 8 m 6.5,-3 1,-4 h 1.5 v -2 h -3 m -3,5.5 v 0.5 m -3,-2 v 3 m -3,-3 v 3 m -3,-1.5 v 1.5" style="opacity: 1; fill: none; fill-opacity: 1; stroke: #000000; stroke-width: 0.99999994; stroke-linecap: round; stroke-linejoin: round; stroke-miterlimit: 4; stroke-dasharray: none; stroke-dashoffset: 2.79999995; stroke-opacity: 1;" />
<path d="m 16.5,18.99995 c -0.277,0 -0.5,0.223 -0.5,0.5 v 1 c 0,0.277 0.223,0.5 0.5,0.5 h 7 c 0.277,0 0.5,-0.223 0.5,-0.5 v -1 c 0,-0.277 -0.223,-0.5 -0.5,-0.5 z" style="opacity: 1; fill: #000000; fill-opacity: 1; stroke: none; stroke-width: 2.00000024; stroke-linecap: butt; stroke-linejoin: miter; stroke-miterlimit: 4; stroke-dasharray: none; stroke-dashoffset: 0; stroke-opacity: 1;" />
</svg>