<svg width="26" height="26" viewBox="0 0 26 26" xmlns="http://www.w3.org/2000/svg">
<path d="m 3.5,11.000449 c -0.277,0 -0.5,0.223 -0.5,0.5 v 1 c 0,0.277 0.223,0.5 0.5,0.5 H 4 l 2,7 c 0.5,1 1,1 1,1 h 7.63477 L 14.2832,20.648887 c -0.19587,-0.195871 -0.19587,-0.511172 0,-0.707032 l 2.70703,-2.707031 c 0.003,-0.0028 0.007,-0.0031 0.01,-0.0059 v -1.728475 c -0.004,-0.276145 0.21604,-0.503504 0.49219,-0.507812 0.28226,-0.0044 0.51223,0.225546 0.50781,0.507812 v 2.037109 l 1.08594,1.085938 2.01367,-2.46875 L 22,13.000449 h 0.5 c 0.277,0 0.5,-0.223 0.5,-0.5 v -1 c 0,-0.277 -0.223,-0.5 -0.5,-0.5 h -2.73828 l 0.34766,0.810547 a 1.7508425,1.7508425 0 1 1 -3.21876,1.378906 l -0.9375,-2.189453 h -5.90624 l -0.9375,2.189453 A 1.7508425,1.7508425 0 1 1 5.89062,11.810996 l 0.34766,-0.810547 z m 7.99219,2.992188 c 0.28226,-0.0044 0.51223,0.225546 0.50781,0.507812 v 4 c 0.01,0.676161 -1.00956,0.676161 -1,0 v -4 c -0.004,-0.276145 0.21604,-0.503504 0.49219,-0.507812 z m 3,0 c 0.28226,-0.0044 0.51223,0.225546 0.50781,0.507812 v 4 c 0.01,0.676161 -1.00956,0.676161 -1,0 v -4 c -0.004,-0.276145 0.21604,-0.503504 0.49219,-0.507812 z m -6,1 C 8.77445,14.988237 9.00442,15.218183 9,15.500449 v 3 c 0.01,0.676161 -1.00956,0.676161 -1,0 v -3 C 7.996,15.224304 8.21604,14.996945 8.49219,14.992637 Z m 14.15039,1.753906 c -0.13279,-0.004 -0.26181,0.04379 -0.33985,0.158203 l -3.21679,3.71875 -1.38867,-1.388672 c -0.19587,-0.19585 -0.51117,-0.19587 -0.70704,0 l -0.70703,0.707031 c -0.19587,0.19586 -0.19587,0.511161 0,0.707032 l 2.44922,2.449218 c 0.19587,0.19586 0.51116,0.19586 0.70703,0 l 4.27735,-4.777344 c 0.19587,-0.195869 0.19587,-0.511161 0,-0.707031 l -0.70703,-0.708984 c -0.0979,-0.0979 -0.23441,-0.154203 -0.36719,-0.158203 z" style="opacity: 1; fill: #000000; fill-opacity: 1; stroke: none; stroke-width: 2; stroke-linecap: butt; stroke-linejoin: miter; stroke-miterlimit: 4; stroke-dasharray: none; stroke-dashoffset: 2.79999995; stroke-opacity: 1;" />
<path d="m 7.5,12.500449 3,-7 m 8,7 -3,-7" style="fill: none; stroke: #000000; stroke-width: 1.5; stroke-linecap: round; stroke-linejoin: round; stroke-miterlimit: 4; stroke-dasharray: none; stroke-opacity: 1;" />
</svg>