<svg width="26" height="26" viewBox="0 0 26 26" xmlns="http://www.w3.org/2000/svg">
<path d="M 5.455078,6.21875 C 5.262026,6.24539 5.096738,6.383314 5.042969,6.583985 L 4.126953,10 H 6.65625 L 8.001953,6.859375 5.654297,6.230469 C 5.587407,6.212549 5.519429,6.209869 5.455078,6.218749 Z m 15.521484,0.982422 c -0.06444,-0.0089 -0.132328,-0.0062 -0.199218,0.01172 l -2.357422,0.632812 0.923828,2.154297 h 2.699219 L 21.390625,7.566407 C 21.336855,7.365736 21.16987,7.227808 20.976562,7.201173 Z M 11.4375,7.78125 10.486328,10 h 5.027344 L 14.984375,8.765625 12.566406,9.414063 12.769531,8.654297 c 0.07169,-0.267561 -0.08595,-0.539635 -0.353515,-0.611328 z" style="opacity: 1; fill: #000000; fill-opacity: 1; stroke: none; stroke-width: 1; stroke-linecap: round; stroke-linejoin: round; stroke-miterlimit: 4; stroke-dasharray: none; stroke-dashoffset: 2.79999995; stroke-opacity: 1;" />
<path d="m 7.5,12.5 3,-7 m 8,7 -3,-7" style="fill: none; stroke: #000000; stroke-width: 1.5; stroke-linecap: round; stroke-linejoin: round; stroke-miterlimit: 4; stroke-dasharray: none; stroke-opacity: 1;" />
<path d="m 20.5,13.500001 c 0,0.714531 -0.381198,1.374785 -1,1.732051 -0.618802,0.357266 -1.381198,0.357266 -2,0 -0.618802,-0.357266 -1,-1.01752 -1,-1.732052 h -7 c 0,0.714532 -0.381198,1.374786 -1,1.732052 -0.618802,0.357266 -1.381198,0.357266 -2,0 C 5.881198,14.874786 5.5,14.214532 5.5,13.5 H 4 m 16.5,0 H 22 m -11.5,-2 h 5 m -10,0 h -3 v 2 H 4 l 2.5,7 h 13 l 2.5,-7 h 1.5 v -2 h -3 m -3,5.5 v 1.5 m -3,-3 v 3 m -3,-3 v 3 M 8.5,17 v 1.5" style="opacity: 1; fill: none; fill-opacity: 1; stroke: #000000; stroke-width: 0.99999994; stroke-linecap: round; stroke-linejoin: round; stroke-miterlimit: 4; stroke-dasharray: none; stroke-dashoffset: 2.79999995; stroke-opacity: 1;" />
</svg>