<svg width="26" height="26" viewBox="0 0 26 26" xmlns="http://www.w3.org/2000/svg">
<path d="M 3.5,11 C 3.223,11 3,11.223 3,11.5 v 1 C 3,12.777 3.223,13 3.5,13 H 4 l 2,7 c 0.5,1 1,1 1,1 h 8 v -2 l -0.5,0.0078 c -0.25244,2.1e-5 -0.50478,-0.169731 -0.5,-0.507812 v -4 c -0.004,-0.276145 0.21604,-0.503504 0.49219,-0.507812 0.28226,-0.0044 0.51223,0.225546 0.50781,0.507812 V 18 h 2 v -2.5 c -0.004,-0.276145 0.216037,-0.503504 0.492188,-0.507812 0.01454,-2.28e-4 0.02678,0.0068 0.04102,0.0078 h 3.894531 L 22,13 h 0.5 c 0.277,0 0.5,-0.223 0.5,-0.5 v -1 C 23,11.223 22.777,11 22.5,11 h -2.738281 l 0.347656,0.810547 c 0.924252,2.147824 -2.301475,3.529719 -3.21875,1.378906 L 15.953125,11 H 10.04688 l -0.9375,2.189453 C 8.19021,15.335547 4.97147,13.95664 5.89062,11.810547 L 6.23828,11 Z m 7.99219,2.992188 C 11.77445,13.987788 12.00442,14.217734 12,14.5 v 4 c 0.01,0.676161 -1.00956,0.676161 -1,0 v -4 c -0.004,-0.276145 0.21604,-0.503504 0.49219,-0.507812 z m -3,1 C 8.77445,14.987788 9.00442,15.217734 9,15.5 v 3 c 0.01,0.676161 -1.00956,0.676161 -1,0 v -3 C 7.996,15.223855 8.21604,14.996496 8.49219,14.992188 Z M 19.5,16 C 19.223,16 19,16.223 19,16.5 V 19 H 16.5 C 16.223,19 16,19.223 16,19.5 v 1 c 0,0.277 0.223,0.5 0.5,0.5 H 19 v 2.5 c 0,0.277 0.223,0.5 0.5,0.5 h 1 C 20.777,24 21,23.777 21,23.5 V 21 h 2.5 c 0.277,0 0.5,-0.223 0.5,-0.5 v -1 C 24,19.223 23.777,19 23.5,19 H 21 V 16.5 C 21,16.223 20.777,16 20.5,16 Z" style="opacity: 1; fill: #000000; fill-opacity: 1; stroke: none; stroke-width: 2; stroke-linecap: butt; stroke-linejoin: miter; stroke-miterlimit: 4; stroke-dasharray: none; stroke-dashoffset: 2.79999995; stroke-opacity: 1;" />
<path d="m 7.5,12.5 3,-7 m 8,7 -3,-7" style="fill: none; stroke: #000000; stroke-width: 1.5; stroke-linecap: round; stroke-linejoin: round; stroke-miterlimit: 4; stroke-dasharray: none; stroke-opacity: 1;" />
</svg>