<svg width="26" height="26" viewBox="0 0 26 26" xmlns="http://www.w3.org/2000/svg">
<path d="m 3.5,11.000458 c -0.277,0 -0.5,0.223 -0.5,0.5 v 1 c 0,0.277 0.223,0.5 0.5,0.5 H 4 l 2,7 c 0.5,1 1,1 1,1 h 9.17188 l 1,-1 -1.76758,-1.767578 c -0.19587,-0.195869 -0.19587,-0.511162 0,-0.707031 l 2.12109,-2.121094 c 0.19586,-0.195869 0.51116,-0.195869 0.70703,0 L 20,17.172333 21.13086,16.041474 22,13.000458 h 0.5 c 0.277,0 0.5,-0.223 0.5,-0.5 v -1 c 0,-0.277 -0.223,-0.5 -0.5,-0.5 h -2.73828 l 0.34766,0.810547 c 0.92425,2.147824 -2.30147,3.529719 -3.21876,1.378906 l -0.9375,-2.189453 h -5.90624 l -0.9375,2.189453 C 8.19019,15.336004 4.97145,13.957098 5.89062,11.811005 l 0.34766,-0.810547 z m 7.99219,2.992188 c 0.28226,-0.0044 0.51223,0.225546 0.50781,0.507812 v 4 c 0.01,0.676161 -1.00956,0.676161 -1,0 v -4 c -0.004,-0.276145 0.21604,-0.503504 0.49219,-0.507812 z m 3,0 c 0.28226,-0.0044 0.51223,0.225546 0.50781,0.507812 v 4 c 0.01,0.676161 -1.00956,0.676161 -1,0 v -4 c -0.004,-0.276145 0.21604,-0.503504 0.49219,-0.507812 z m -6,1 C 8.77445,14.988246 9.00442,15.218192 9,15.500458 v 3 c 0.01,0.676161 -1.00956,0.676161 -1,0 v -3 C 7.996,15.224313 8.21604,14.996954 8.49219,14.992646 Z m 9.38672,1.679687 c -0.12781,0 -0.25559,0.04855 -0.35352,0.146484 l -0.70703,0.707032 c -0.19587,0.195869 -0.19587,0.511162 0,0.707031 l 1.76758,1.767578 -1.76758,1.767578 c -0.19587,0.195869 -0.19587,0.511162 0,0.707031 l 0.70703,0.707032 c 0.19586,0.195868 0.51116,0.195868 0.70703,0 L 20,21.41452 l 1.76758,1.767579 c 0.19587,0.195868 0.51117,0.195868 0.70703,0 l 0.70703,-0.707032 c 0.19587,-0.195869 0.19587,-0.511162 0,-0.707031 l -1.76758,-1.767578 1.76758,-1.767578 c 0.19587,-0.195869 0.19587,-0.511162 0,-0.707031 l -0.70703,-0.707032 c -0.19587,-0.195868 -0.51116,-0.195868 -0.70703,0 L 20,18.586396 18.23242,16.818817 c -0.0979,-0.09793 -0.2257,-0.146484 -0.35351,-0.146484 z" style="opacity: 1; fill: #000000; fill-opacity: 1; stroke: none; stroke-width: 2; stroke-linecap: butt; stroke-linejoin: miter; stroke-miterlimit: 4; stroke-dasharray: none; stroke-dashoffset: 2.79999995; stroke-opacity: 1;" />
<path d="m 7.5,12.500458 3,-7 m 8,7 -3,-7" style="fill: none; stroke: #000000; stroke-width: 1.5; stroke-linecap: round; stroke-linejoin: round; stroke-miterlimit: 4; stroke-dasharray: none; stroke-opacity: 1;" />
</svg>