<svg width="26" height="26" viewBox="0 0 26 26" xmlns="http://www.w3.org/2000/svg">
<path d="m 14.496707,5 v 5 l 5.001646,8.5 0.0016,1.5 c 0,1 -0.5,1.5 -1.5,1.5 H 8 C 7,21.5 6.5,21 6.5,20 v -1.5 l 5,-8.5 V 5 M 10,4.5 h 6" style="fill: none; stroke: #000000; stroke-width: 1px; stroke-linecap: round; stroke-linejoin: round; stroke-opacity: 1;" />
<path d="M 11.660156,14.228516 C 11.258763,14.226316 10.813232,14.4375 10.308594,15 L 8,19 c 0,0 0,1 1,1 h 8 c 1.000047,0 0.998047,-1 0.998047,-1 L 15.6875,15 c -1.371094,3.25 -2.287974,-0.761963 -4.027344,-0.771484 z M 11.5,15 A 0.5,0.5 0 0 1 12,15.5 0.5,0.5 0 0 1 11.5,16 0.5,0.5 0 0 1 11,15.5 0.5,0.5 0 0 1 11.5,15 Z m -1,2 A 0.5,0.5 0 0 1 11,17.5 0.5,0.5 0 0 1 10.5,18 0.5,0.5 0 0 1 10,17.5 0.5,0.5 0 0 1 10.5,17 Z m 4,0 A 0.5,0.5 0 0 1 15,17.5 0.5,0.5 0 0 1 14.5,18 0.5,0.5 0 0 1 14,17.5 0.5,0.5 0 0 1 14.5,17 Z m -2,1 A 0.5,0.5 0 0 1 13,18.5 0.5,0.5 0 0 1 12.5,19 0.5,0.5 0 0 1 12,18.5 0.5,0.5 0 0 1 12.5,18 Z m 4,0 A 0.5,0.5 0 0 1 17,18.5 0.5,0.5 0 0 1 16.5,19 0.5,0.5 0 0 1 16,18.5 0.5,0.5 0 0 1 16.5,18 Z" style="opacity: 1; fill: #000000; fill-opacity: 1; stroke: none; stroke-width: 1px; stroke-linecap: round; stroke-linejoin: round; stroke-miterlimit: 4; stroke-dasharray: none; stroke-dashoffset: 0; stroke-opacity: 1;" />
<path d="M 13,10.75 A 0.75,0.75 0 0 0 12.25,11.5 0.75,0.75 0 0 0 13,12.25 0.75,0.75 0 0 0 13.75,11.5 0.75,0.75 0 0 0 13,10.75 Z m 1,2.5 A 0.75,0.75 0 0 0 13.25,14 0.75,0.75 0 0 0 14,14.75 0.75,0.75 0 0 0 14.75,14 0.75,0.75 0 0 0 14,13.25 Z" style="opacity: 1; fill: none; fill-opacity: 1; stroke: #000000; stroke-width: 0.5; stroke-linecap: butt; stroke-linejoin: miter; stroke-miterlimit: 4; stroke-dasharray: none; stroke-dashoffset: 0; stroke-opacity: 1;" />
</svg>