<svg width="26" height="26" viewBox="0 0 26 26" xmlns="http://www.w3.org/2000/svg">
<path d="m 13,7 c -2.203217,0 -4,1.796783 -4,4 0,2.331932 -0.3867585,3.915746 -0.8359375,5 l 9.6718755,0 C 17.386758,14.915746 17,13.331932 17,11 17,8.796783 15.203217,7 13,7 Z M 7.6152344,17 6.7421875,18.070313 C 6.3047935,18.330777 6.490932,19.002 7,19 l 4,0 c 0,1.10457 0.895431,2 2,2 1.104569,0 2,-0.89543 2,-2 l 4,0 c 0.509068,0.002 0.695206,-0.669223 0.257812,-0.929687 L 18.384766,17 7.6152344,17 Z" style="opacity: 1; fill: #000000; fill-opacity: 1; stroke: none; stroke-width: 1; stroke-linecap: round; stroke-linejoin: round; stroke-miterlimit: 4; stroke-dasharray: none; stroke-dashoffset: 0; stroke-opacity: 1;" />
<path d="m 11.590461,7.5130302 a 1.5,1.5 0 0 1 0.513801,-1.716215 1.5,1.5 0 0 1 1.791476,0 1.5,1.5 0 0 1 0.513801,1.716215" style="opacity: 1; fill: none; fill-opacity: 1; stroke: #000000; stroke-width: 1; stroke-linecap: round; stroke-linejoin: round; stroke-miterlimit: 4; stroke-dasharray: none; stroke-dashoffset: 0; stroke-opacity: 1;" />
</svg>