<svg width="26" height="26" viewBox="0 0 26 26" xmlns="http://www.w3.org/2000/svg">
<path d="M 13,7 C 10.796783,7 9,8.796783 9,11 9,11.803885 8.941917,12.490696 8.8632812,13.126953 L 16.439453,8.994141 C 15.744149,7.807847 14.469643,7 13,7 Z M 17.072266,12.636719 10.90625,16 17.835938,16 C 17.501003,15.191517 17.20332,14.10377 17.072266,12.636719 Z M 9.0722656,17 6.5234375,18.390625 C 6.4623295,18.676435 6.6449481,19.001395 7,19 l 4,0 c 0,1.10457 0.895431,2 2,2 1.104569,0 2,-0.89543 2,-2 l 4,0 c 0.509068,0.002 0.695206,-0.669223 0.257812,-0.929688 L 18.384766,17 9.0722656,17 Z" style="opacity: 1; fill: #000000; fill-opacity: 1; stroke: none; stroke-width: 1; stroke-linecap: round; stroke-linejoin: round; stroke-miterlimit: 4; stroke-dasharray: none; stroke-dashoffset: 0; stroke-opacity: 1;" />
<path d="m 11.590461,7.5130302 a 1.5,1.5 0 0 1 0.513801,-1.716215 1.5,1.5 0 0 1 1.791476,0 1.5,1.5 0 0 1 0.513801,1.716215" style="opacity: 1; fill: none; fill-opacity: 1; stroke: #000000; stroke-width: 1; stroke-linecap: round; stroke-linejoin: round; stroke-miterlimit: 4; stroke-dasharray: none; stroke-dashoffset: 0; stroke-opacity: 1;" />
<path d="M 4.5,17.5 21,8.5" style="fill: none; stroke: #000000; stroke-width: 1; stroke-linecap: round; stroke-linejoin: miter; stroke-miterlimit: 4; stroke-dasharray: none; stroke-opacity: 1;" />
</svg>