<svg width="26" height="26" viewBox="0 0 26 26" xmlns="http://www.w3.org/2000/svg">
<path d="m 8.5,6.0000001 c -0.277,0 -0.5,0.223 -0.5,0.5 v 1 c 0,0.277 0.223,0.5 0.5,0.5 h 2 c 0.277,0 0.5,-0.223 0.5,-0.5 v -1 c 0,-0.277 -0.223,-0.5 -0.5,-0.5 z m 6,0 c -0.277,0 -0.5,0.223 -0.5,0.5 v 1 c 0,0.277 0.223,0.5 0.5,0.5 h 2 c 0.277,0 0.5,-0.223 0.5,-0.5 v -1 c 0,-0.277 -0.223,-0.5 -0.5,-0.5 z m -6.5,3 L 5,15 v 1.5 C 5,16.777 5.223,17 5.5,17 h 4 C 9.777,17 10,16.777 10,16.5 V 15 l 1,-3 V 9.5000001 c 0,-0.277 -0.223,-0.5 -0.5,-0.5 z m 6.5,0 c -0.277,0 -0.5,0.223 -0.5,0.5 V 12 l 1,3 v 1.5 c 0,0.277 0.223,0.5 0.5,0.5 h 4 C 19.777,17 20,16.777 20,16.5 V 15 L 17,9.0000001 Z M 5.5,18 C 5.223,18 5,18.223 5,18.5 v 1 C 5,19.777 5.223,20 5.5,20 h 4 C 9.777,20 10,19.777 10,19.5 v -1 C 10,18.223 9.777,18 9.5,18 Z m 10,0 C 15.223,18 15,18.223 15,18.5 v 1 c 0,0.277 0.223,0.5 0.5,0.5 h 4 c 0.277,0 0.5,-0.223 0.5,-0.5 v -1 C 20,18.223 19.777,18 19.5,18 Z" style="opacity: 1; fill: #000000; fill-opacity: 1; stroke: none; stroke-width: 2.00000024; stroke-linecap: round; stroke-linejoin: round; stroke-miterlimit: 4; stroke-dasharray: none; stroke-dashoffset: 0; stroke-opacity: 1;" />
<path d="M 12.5,12.5 V 9.5000001" style="fill: none; stroke: #000000; stroke-width: 1px; stroke-linecap: round; stroke-linejoin: miter; stroke-opacity: 1;" />
</svg>