<svg width="26" height="26" viewBox="0 0 26 26" xmlns="http://www.w3.org/2000/svg">
<path d="m 8.75005,5 c -1.722222,0 -2.75,1.25 -2.75,2.5 v 11 h 1 c 0,-0.75 0.472222,-1.5 1.75,-1.5 h 9.75 c 0.25,0 0.5,-0.25 0.5,-0.5 v -11 c 0,-0.25 -0.25,-0.5 -0.5,-0.5 z m 4,2 a 1.7500001,2.2500001 0 0 1 1.75,2.25 1.7500001,2.2500001 0 0 1 -1.75,2.25 1.7500001,2.2500001 0 0 1 -1.75,-2.25 1.7500001,2.2500001 0 0 1 1.75,-2.25 z m -2,4.75 c 0.513084,0.594195 1.281639,0.9988 2,1 0.718921,-3.16e-4 1.486301,-0.405604 2,-1 0.950826,0.390233 1.499999,0.999999 1.75,2.75 h -7.5 c 0.25,-1.750001 0.798066,-2.360134 1.75,-2.75 z" style="opacity: 1; fill: #000000; fill-opacity: 1; stroke: none; stroke-width: 1px; stroke-linecap: round; stroke-linejoin: miter; stroke-miterlimit: 4; stroke-dasharray: none; stroke-dashoffset: 0; stroke-opacity: 1;" />
<path d="M 18.50005,18.507121 V 20.5 h -9.75 c -1.5,0 -2.25,-0.996439 -2.25,-1.992879 m 10,-0.0071 h -8" style="fill: none; stroke: #000000; stroke-width: 0.99999994px; stroke-linecap: round; stroke-linejoin: round; stroke-opacity: 1;" />
</svg>