<svg width="26" height="26" viewBox="0 0 26 26" xmlns="http://www.w3.org/2000/svg">
<path d="m 6.75005,3 c -1.722222,0 -2.75,1.25 -2.75,2.5 v 9 h 1 c 0,-0.75 0.472222,-1.5 1.75,-1.5 h 9.75 c 0.25,0 0.5,-0.25 0.5,-0.5 v -9 c 0,-0.25 -0.25,-0.5 -0.5,-0.5 z m 1.25,3 h 5 c 0.676161,-0.0096 0.676161,1.009563 0,1 h -5 c -0.676161,0.0096 -0.676161,-1.009563 0,-1 z m 0,2 h 5 c 0.676161,-0.0096 0.676161,1.009563 0,1 h -5 c -0.676161,0.0096 -0.676161,-1.009563 0,-1 z m 10,1 v 8.5 c 0,0.277 -0.223,0.5 -0.5,0.5 h -9.5 v 0.5 c 0,0.25 0.25,0.5 0.5,0.5 h 9.75 c 1.277778,0 1.75,0.75 1.75,1.5 h 1 v -9 c 0,-1.5 -1,-2.5 -3,-2.5 z" style="opacity: 1; fill: #000000; fill-opacity: 1; stroke: none; stroke-width: 1px; stroke-linecap: round; stroke-linejoin: miter; stroke-miterlimit: 4; stroke-dasharray: none; stroke-dashoffset: 0; stroke-opacity: 1;" />
<path d="M 8.50005,20.507121 V 22.5 h 9.75 c 1.5,0 2.25,-0.996439 2.25,-1.992879 m -10,-0.0071 h 8 m -2,-5.9929 V 16.5 h -9.75 c -1.5,0 -2.25,-0.996439 -2.25,-1.992879 m 10,-0.0071 h -8" style="fill: none; stroke: #000000; stroke-width: 0.99999994px; stroke-linecap: round; stroke-linejoin: round; stroke-opacity: 1;" />
</svg>