<svg width="26" height="26" viewBox="0 0 26 26" xmlns="http://www.w3.org/2000/svg">
<path d="m 8.75005,5.000449 c -1.72222,0 -2.75,1.25 -2.75,2.5 v 11 h 1 c 0,-0.75 0.47222,-1.5 1.75,-1.5 h 9.75 c 0.25,0 0.5,-0.25 0.5,-0.5 v -11 c 0,-0.25 -0.25,-0.5 -0.5,-0.5 z m 1.25,3 h 5 c 0.67616,-0.01 0.67616,1.00956 0,1 h -5 c -0.67616,0.01 -0.67616,-1.00956 0,-1 z m 0,2 h 5 c 0.67616,-0.01 0.67616,1.00956 0,1 h -5 c -0.67616,0.01 -0.67616,-1.00956 0,-1 z m 10.642578,6.746094 c -0.13279,-0.004 -0.261804,0.04379 -0.339844,0.158203 l -3.216796,3.71875 -1.388672,-1.388672 c -0.19587,-0.19585 -0.511162,-0.19587 -0.707032,0 l -0.707031,0.707031 c -0.19587,0.19586 -0.19587,0.511161 0,0.707032 l 2.449219,2.449218 c 0.19587,0.19586 0.511161,0.19586 0.707031,0 l 4.277344,-4.777344 c 0.19587,-0.195869 0.19587,-0.511161 0,-0.707031 l -0.707031,-0.708984 c -0.0979,-0.0979 -0.234408,-0.154203 -0.367188,-0.158203 z" style="opacity: 1; fill: #000000; fill-opacity: 1; stroke: none; stroke-width: 1px; stroke-linecap: butt; stroke-linejoin: round; stroke-miterlimit: 4; stroke-dasharray: none; stroke-dashoffset: 0; stroke-opacity: 1;" />
<path d="m 12.50005,20.500449 h -3.75 c -1.5,0 -2.25,-0.99644 -2.25,-1.99288 m 7.5,-0.007 h -5.5" style="fill: none; stroke: #000000; stroke-width: 0.99999994px; stroke-linecap: round; stroke-linejoin: round; stroke-opacity: 1;" />
</svg>