<svg width="26" height="26" viewBox="0 0 26 26" xmlns="http://www.w3.org/2000/svg">
<path d="m 8.75005,4.99995 c -1.72222,0 -2.75,1.25 -2.75,2.5 v 11 h 1 c 0,-0.75 0.47222,-1.5 1.75,-1.5 h 9.75 c 0.25,0 0.5,-0.25 0.5,-0.5 v -11 c 0,-0.25 -0.25,-0.5 -0.5,-0.5 z m 1.25,3 h 5 c 0.67616,-0.01 0.67616,1.00956 0,1 h -5 c -0.67616,0.01 -0.67616,-1.00956 0,-1 z m 0,2 h 5 c 0.67616,-0.01 0.67616,1.00956 0,1 h -5 c -0.67616,0.01 -0.67616,-1.00956 0,-1 z m 4.5,9 c -0.277,0 -0.5,0.223 -0.5,0.5 v 1 c 0,0.277 0.223,0.5 0.5,0.5 h 7 c 0.277,0 0.5,-0.223 0.5,-0.5 v -1 c 0,-0.277 -0.223,-0.5 -0.5,-0.5 z" style="opacity: 1; fill: #000000; fill-opacity: 1; stroke: none; stroke-width: 1px; stroke-linecap: round; stroke-linejoin: miter; stroke-miterlimit: 4; stroke-dasharray: none; stroke-dashoffset: 0; stroke-opacity: 1;" />
<path d="m 12.50005,20.49995 h -3.75 c -1.5,0 -2.25,-0.99644 -2.25,-1.99288 m 6.5,-0.007 h -4.5" style="fill: none; stroke: #000000; stroke-width: 0.99999994px; stroke-linecap: round; stroke-linejoin: round; stroke-opacity: 1;" />
</svg>