<svg width="26" height="26" viewBox="0 0 26 26" xmlns="http://www.w3.org/2000/svg">
<path d="M 8.75,5 C 7.027778,5 6,6.25 6,7.5 v 11 H 7 C 7,17.75 7.472222,17 8.75,17 H 18.5 C 18.75,17 19,16.75 19,16.5 V 5.5 C 19,5.25 18.75,5 18.5,5 Z M 10,8 h 5 c 0.676161,-0.0096 0.676161,1.009563 0,1 H 10 C 9.323839,9.0096 9.323839,7.990437 10,8 Z m 0,2 h 5 c 0.676161,-0.0096 0.676161,1.009563 0,1 H 10 C 9.323839,11.0096 9.323839,9.990437 10,10 Z" style="opacity: 1; fill: #000000; fill-opacity: 1; stroke: none; stroke-width: 1px; stroke-linecap: round; stroke-linejoin: miter; stroke-miterlimit: 4; stroke-dasharray: none; stroke-dashoffset: 0; stroke-opacity: 1;" />
<path d="M 18.5,18.507121 V 20.5 H 8.75 C 7.25,20.5 6.5,19.503561 6.5,18.507121 m 10,-0.0071 h -8" style="fill: none; stroke: #000000; stroke-width: 0.99999994px; stroke-linecap: round; stroke-linejoin: round; stroke-opacity: 1;" />
</svg>