<svg width="26" height="26" viewBox="0 0 26 26" xmlns="http://www.w3.org/2000/svg">
<path d="m 18.50005,14.5 3.5,3.5 -4,4 m -7,-1.5 h -2.25 c -1.5,0 -2.25,-0.99644 -2.25,-1.99288 m 5.5,-0.007 h -3.5" style="fill: none; stroke: #000000; stroke-width: 1px; stroke-linecap: round; stroke-linejoin: round; stroke-opacity: 1;" />
<path d="m 21.146534,11.147684 -2,1.999821 c -0.19518,0.195252 -0.19518,0.511726 0,0.706968 l 2,1.99982 c 0.19527,0.195173 0.511772,0.195173 0.707032,0 l 2,-1.99982 c 0.19519,-0.195242 0.19519,-0.511716 0,-0.706968 l -2,-1.999821 c -0.205166,-0.218735 -0.541015,-0.173812 -0.707032,0 z m -4,3.999641 -3,2.99973 c -0.19518,0.195253 -0.19518,0.511716 0,0.706969 l 2,1.99982 c 0.19527,0.195162 0.511772,0.195162 0.707032,0 l 3,-2.999731 c 0.19519,-0.195252 0.19519,-0.511716 0,-0.706968 l -2,-1.99982 c -0.244229,-0.253889 -0.463436,-0.210919 -0.707032,0 z m -4.09375,4.130488 -1.052734,2.472187 1.25,1.25 2.472656,-1.052507 c 0.30552,-0.152276 0.37201,-0.559111 0.13086,-0.80071 l -2,-1.99982 c -0.292958,-0.261005 -0.715409,-0.09123 -0.800782,0.130848 z M 11.75005,22.25 l -0.75,1.75 1.75,-0.75 z m -3,-17.25 c -1.72222,0 -2.75,1.25 -2.75,2.5 v 11 h 1 c 0,-0.75 0.47222,-1.5 1.75,-1.5 h 5.25 l 5,-5 V 5.5 c 0,-0.25 -0.25,-0.5 -0.5,-0.5 z m 1.25,3 h 5 c 0.67616,-0.01 0.67616,1.00956 0,1 h -5 c -0.67616,0.01 -0.67616,-1.00956 0,-1 z m 0,2 h 5 c 0.67616,-0.01 0.67616,1.00956 0,1 h -5 c -0.67616,0.01 -0.67616,-1.00956 0,-1 z" style="opacity: 1; fill: #000000; fill-opacity: 1; stroke: none; stroke-width: 1px; stroke-linecap: round; stroke-linejoin: miter; stroke-miterlimit: 4; stroke-dasharray: none; stroke-dashoffset: 0; stroke-opacity: 1;" />
</svg>