<svg width="26" height="26" viewBox="0 0 26 26" xmlns="http://www.w3.org/2000/svg">
<path d="m 8.7500497,5.0004584 c -1.72222,0 -2.7499997,1.25 -2.7499997,2.5 V 18.500458 h 0.9999997 c 0,-0.75 0.47222,-1.5 1.75,-1.5 H 13.3438 l 2.181641,-2.181641 c 0.195869,-0.195869 0.511162,-0.195869 0.707031,0 l 1.767578,1.767579 1,-1 V 5.5004584 c 0,-0.25 -0.25,-0.5 -0.5,-0.5 z m 1.2500003,3 h 5 c 0.67616,-0.01 0.67616,1.00956 0,1 h -5 c -0.6761603,0.01 -0.6761603,-1.00956 0,-1 z m 0,1.9999996 h 5 c 0.67616,-0.01 0.67616,1.00956 0,1 h -5 c -0.6761603,0.01 -0.6761603,-1.0095596 0,-1 z m 5.878906,6.671875 c -0.127809,0 -0.255581,0.04855 -0.353515,0.146484 l -0.707032,0.707032 c -0.195868,0.195869 -0.195868,0.511162 0,0.707031 l 1.767579,1.767578 -1.767579,1.767578 c -0.195868,0.195869 -0.195868,0.511162 0,0.707031 l 0.707032,0.707032 c 0.195869,0.195868 0.511162,0.195868 0.707031,0 l 1.767578,-1.767579 1.767578,1.767579 c 0.195869,0.195868 0.511162,0.195868 0.707031,0 l 0.707032,-0.707032 c 0.195868,-0.195869 0.195868,-0.511162 0,-0.707031 l -1.767579,-1.767578 1.767579,-1.767578 c 0.195868,-0.195869 0.195868,-0.511162 0,-0.707031 l -0.707032,-0.707032 c -0.195869,-0.195868 -0.511162,-0.195868 -0.707031,0 l -1.767578,1.767579 -1.767578,-1.767579 c -0.09793,-0.09793 -0.225706,-0.146484 -0.353516,-0.146484 z" style="opacity: 1; fill: #000000; fill-opacity: 1; stroke: none; stroke-width: 1px; stroke-linecap: round; stroke-linejoin: miter; stroke-miterlimit: 4; stroke-dasharray: none; stroke-dashoffset: 0; stroke-opacity: 1;" />
<path d="M 14.50005,20.500458 H 8.7500497 c -1.5,0 -2.2499997,-0.99644 -2.2499997,-1.99288 m 7,-0.007 H 8.5000497" style="fill: none; stroke: #000000; stroke-width: 0.99999994px; stroke-linecap: round; stroke-linejoin: round; stroke-opacity: 1;" />
</svg>