<svg width="26" height="26" viewBox="0 0 26 26" xmlns="http://www.w3.org/2000/svg">
<path d="m 3.5,9.0000006 c -0.277,0 -0.5,0.223 -0.5,0.5 V 20.5 C 3,20.777 3.223,21 3.5,21 h 18 C 21.777,21 22,20.777 22,20.5 V 9.5000006 c 0,-0.277 -0.223,-0.5 -0.5,-0.5 H 20 V 17.5 c -3e-5,0.27613 -0.22387,0.49997 -0.5,0.5 -3.99377,0 -6.71289,1.9082 -6.71289,1.9082 h -0.57422 c 0,0 -2.7191198,-1.9082 -6.7128898,-1.9082 -0.27613,-3e-5 -0.49997,-0.22387 -0.5,-0.5 V 9.0000006 Z" style="opacity: 1; fill: #000000; fill-opacity: 1; stroke: none; stroke-width: 2.00000024; stroke-linecap: round; stroke-linejoin: round; stroke-miterlimit: 4; stroke-dasharray: none; stroke-dashoffset: 0; stroke-opacity: 1;" />
<path d="m 20.5,10.500001 h -4 V 6.5000007 m -4,1.9999999 c 0,0 -2.6075898,-1.9999999 -8,-1.9999999 V 9.5000006 M 12.5,20 V 8.5000006 c 0,0 2,-1.9999999 4.5,-1.9999999 l 3.5,2.9999999" style="fill: none; stroke: #000000; stroke-width: 1px; stroke-linecap: round; stroke-linejoin: round; stroke-opacity: 1;" />
</svg>