<svg width="26" height="26" viewBox="0 0 26 26" xmlns="http://www.w3.org/2000/svg">
<path d="m 12.5,8.5 c 0,0 -2.607586,-2 -8,-2 v 3 m 8,10.5 V 8.5 c 0,0 2.607586,-2 8,-2 v 3" style="fill: none; stroke: #000000; stroke-width: 1px; stroke-linecap: butt; stroke-linejoin: round; stroke-opacity: 1;" />
<path d="m 19,6.5 -4,1 V 14 l 2,-2.5 2,2.5 z M 3.5,9 C 3.223,9 3,9.223 3,9.5 v 11 C 3,20.777 3.223,21 3.5,21 h 18 C 21.777,21 22,20.777 22,20.5 V 9.5 C 22,9.223 21.777,9 21.5,9 H 20 v 8.5 c -2.8e-5,0.276131 -0.223869,0.499972 -0.5,0.5 -3.993774,0 -6.712891,1.908203 -6.712891,1.908203 H 12.212891 C 12.212891,19.908203 9.493774,18 5.5,18 5.223869,17.999972 5.000028,17.776131 5,17.5 V 9 Z" style="opacity: 1; fill: #000000; fill-opacity: 1; stroke: none; stroke-width: 2.00000024; stroke-linecap: round; stroke-linejoin: round; stroke-miterlimit: 4; stroke-dasharray: none; stroke-dashoffset: 0; stroke-opacity: 1;" />
</svg>