<svg width="26" height="26" viewBox="0 0 26 26" xmlns="http://www.w3.org/2000/svg">
<path d="M 5.5,7 A 0.50005,0.50005 0 0 0 5,7.5 V 22 a 0.50005,0.50005 0 0 0 0.8535156,0.353516 L 11,17.207031 16.146484,22.353516 A 0.50005,0.50005 0 0 0 17,22 V 7.5 A 0.50005,0.50005 0 0 0 16.5,7 Z" style="opacity: 1; fill: #000000; fill-opacity: 1; stroke: none; stroke-width: 1px; stroke-linecap: round; stroke-linejoin: round; stroke-miterlimit: 4; stroke-dasharray: none; stroke-dashoffset: 0; stroke-opacity: 1;" />
<path d="M 8.5 4 C 8.2238691 4.0000276 8.0000276 4.2238691 8 4.5 L 8 6 L 17.5 6 A 0.50005 0.50005 0 0 1 18 6.5 L 18 18.207031 L 19.146484 19.353516 C 19.461481 19.668295 19.999826 19.445319 20 19 L 20 4.5 C 19.999972 4.2238691 19.776131 4.0000276 19.5 4 L 8.5 4 z M 8 7 L 8 7.5 L 16.146484 16.353516 L 17 17.207031 L 17 7 L 8 7 z " style="opacity: 1; fill: #000000; fill-opacity: 1; stroke: none; stroke-width: 1px; stroke-linecap: round; stroke-linejoin: round; stroke-miterlimit: 4; stroke-dasharray: none; stroke-dashoffset: 0; stroke-opacity: 1;" />
</svg>