<svg width="26" height="26" viewBox="0 0 26 26" xmlns="http://www.w3.org/2000/svg">
<path d="m 5.5,8.9999999 c -0.277,0 -0.5,0.223 -0.5,0.5 L 7.257812,13 H 10 v -2 c -0.0096,-0.67616 1.009563,-0.67616 1,0 v 2 h 4 v -2 c -0.0096,-0.67616 1.009563,-0.67616 1,0 v 2 h 2.742188 L 21,9.4999999 c 0,-0.277 -0.223,-0.5 -0.5,-0.5 z M 5,11.5 v 7 C 5,18.777 5.223,19 5.5,19 h 15 c 0.277,0 0.5,-0.223 0.5,-0.5 v -7 L 19.257812,14 H 16 v 1 h 0.5 c 0.676161,-0.01 0.676161,1.00956 0,1 H 16 v 0.5 c 0.0096,0.67616 -1.009563,0.67616 -1,0 V 16 h -0.5 c -0.676161,0.01 -0.676161,-1.00956 0,-1 H 15 v -1 h -4 v 1 h 0.5 c 0.676161,-0.01 0.676161,1.00956 0,1 H 11 v 0.5 c 0.0096,0.67616 -1.0095631,0.67616 -1.0000001,0 V 16 h -0.5 c -0.676161,0.01 -0.676161,-1.00956 0,-1 h 0.5 V 14 H 6.742187 Z" style="opacity: 1; fill: #000000; fill-opacity: 1; stroke: none; stroke-width: 2; stroke-linecap: round; stroke-linejoin: round; stroke-miterlimit: 4; stroke-dasharray: none; stroke-dashoffset: 1.5; stroke-opacity: 1;" />
<path d="m 10.5,9.4999999 v -2 h 5 v 2" style="fill: none; stroke: #000000; stroke-width: 1px; stroke-linecap: butt; stroke-linejoin: round; stroke-opacity: 1;" />
</svg>