<svg width="26" height="26" viewBox="0 0 26 26" xmlns="http://www.w3.org/2000/svg">
<path d="m 12.5,12.5 c 0,0 -1.015294,2.990588 -7.5,4 2.5065423,2.949361 5.448049,4.173132 10,5.5 1.988235,-2.477647 3.5,-6.5 3.5,-6.5" style="fill: none; stroke: #000000; stroke-width: 1px; stroke-linecap: round; stroke-linejoin: round; stroke-opacity: 1;" />
<path d="M 19.650391 4.0097656 C 19.42648 4.0407838 19.233626 4.1530004 19.125 4.375 L 16.082031 10.591797 L 15.177734 10.164062 C 15.177734 10.164062 13.36901 9.3118931 12.5 11.087891 L 19.736328 14.5 C 20.605339 12.724003 18.796875 11.871094 18.796875 11.871094 L 17.892578 11.443359 L 20.933594 5.2285156 C 21.150845 4.7845162 20.807732 4.3480498 20.355469 4.1347656 C 20.129339 4.0281234 19.874301 3.9787475 19.650391 4.0097656 z M 14 14.5 C 14 14.5 11.126954 17.581518 7.7558594 18.398438 L 9.0820312 19.349609 C 11.589656 18.258955 14 14.5 14 14.5 z M 16.5 15 C 16.5 15 14.283388 18.717456 10.755859 20.044922 L 12.582031 20.849609 C 15.056905 18.860872 16.5 15 16.5 15 z " style="fill: #000000; fill-opacity: 1; stroke: none; stroke-width: 0.99999994px; stroke-linecap: butt; stroke-linejoin: miter; stroke-opacity: 1;" />
</svg>