<svg width="26" height="26" viewBox="0 0 26 26" xmlns="http://www.w3.org/2000/svg">
<path d="m 12.5,12.5 c 0,0 -1.015294,2.990588 -7.5,4 2.5065423,2.949361 5.448049,4.173132 10,5.5 1.988235,-2.477647 3.5,-6.5 3.5,-6.5" style="fill: none; stroke: #000000; stroke-width: 1px; stroke-linecap: round; stroke-linejoin: round; stroke-opacity: 1;" />
<path d="M 19.650391 4.0097656 C 19.42648 4.0407838 19.233626 4.1530004 19.125 4.375 L 16.082031 10.591797 L 15.177734 10.164062 C 15.177734 10.164062 13.36901 9.3118927 12.5 11.087891 L 19.736328 14.5 C 20.605339 12.724003 18.796875 11.871094 18.796875 11.871094 L 17.892578 11.443359 L 20.933594 5.2285156 C 21.150845 4.7845162 20.807732 4.3480498 20.355469 4.1347656 C 20.129339 4.0281234 19.874301 3.9787475 19.650391 4.0097656 z M 10.259766 4.0898438 L 9.5761719 6.0527344 L 7.7441406 7.0351562 L 9.7070312 7.71875 L 10.689453 9.5507812 L 11.373047 7.5859375 L 13.205078 6.6054688 L 11.240234 5.921875 L 10.259766 4.0898438 z M 5.6894531 4.1269531 L 4.8378906 4.7519531 L 3.7910156 4.6367188 L 4.4140625 5.4863281 L 4.2988281 6.5351562 L 5.1484375 5.9101562 L 6.1972656 6.0253906 L 5.5722656 5.1757812 L 5.6894531 4.1269531 z M 6.5839844 8.7226562 L 5.234375 9.7148438 L 3.5683594 9.53125 L 4.5605469 10.880859 L 4.3769531 12.544922 L 5.7265625 11.552734 L 7.390625 11.738281 L 6.3984375 10.388672 L 6.5839844 8.7226562 z M 14 14.5 C 14 14.5 11.126954 17.581518 7.7558594 18.398438 L 9.0820312 19.349609 C 11.589656 18.258955 14 14.5 14 14.5 z M 16.5 15 C 16.5 15 14.283388 18.717456 10.755859 20.044922 L 12.582031 20.849609 C 15.056905 18.860872 16.5 15 16.5 15 z " style="fill: #000000; fill-opacity: 1; stroke: none; stroke-width: 0.99999994px; stroke-linecap: butt; stroke-linejoin: miter; stroke-opacity: 1;" />
</svg>