<svg width="26" height="26" viewBox="0 0 26 26" xmlns="http://www.w3.org/2000/svg">
<path d="m 13,7.2717404 v 3.2324216 a 2.5,2.5 0 0 1 1,1.996094 2.5,2.5 0 0 1 -2.5,2.5 2.5,2.5 0 0 1 -2.5,-2.5 2.5,2.5 0 0 1 1,-1.998047 V 9.6486944 L 6.121094,14.174084 a 0.50005,0.50005 0 0 0 -0.103516,0.19336 C 6.014628,14.331754 6.001039,14.283424 6,14.250256 c 0.0442,0.69972 -0.551756,2.079532 -1.128906,2.857422 -0.20254,0.273 -0.370704,0.600649 -0.371094,0.949219 0,0.79732 0.67157,1.443359 1.5,1.443359 0.82842,0 1.5,-0.646039 1.5,-1.443359 C 7.49984,17.677127 7.246036,17.364685 7.066406,17.043225 6.603961,16.419498 6.229179,15.484674 6.078125,14.767834 a 0.50005,0.50005 0 0 0 0.0918,0.109375 l 8,7 a 0.50005,0.50005 0 0 0 0.708984,-0.05078 l 6,-7 a 0.50005,0.50005 0 0 0 -0.04883,-0.703125 z m -1.5,3.7285156 a 1.5,1.5 0 0 0 -1.5,1.5 1.5,1.5 0 0 0 1.5,1.5 1.5,1.5 0 0 0 1.5,-1.5 1.5,1.5 0 0 0 -1.5,-1.5 z" style="opacity: 1; fill: #000000; fill-opacity: 1; stroke: none; stroke-width: 1px; stroke-linecap: round; stroke-linejoin: round; stroke-miterlimit: 4; stroke-dasharray: none; stroke-dashoffset: 0; stroke-opacity: 1;" />
<path d="M 11.5,12.500256 V 4.0002564" style="fill: none; stroke: #000000; stroke-width: 1.5; stroke-linecap: round; stroke-linejoin: miter; stroke-miterlimit: 4; stroke-dasharray: none; stroke-opacity: 1;" />
</svg>