<svg width="26" height="26" viewBox="0 0 26 26" xmlns="http://www.w3.org/2000/svg">
<path d="m 17.5,17.5 v 1 h -10 v -5 m 1,-6 h 9 v 4" style="opacity: 1; fill: none; fill-opacity: 1; stroke: #000000; stroke-width: 1; stroke-linecap: round; stroke-linejoin: round; stroke-miterlimit: 4; stroke-dasharray: none; stroke-dashoffset: 0; stroke-opacity: 1;" />
<path d="M 7,6.75 C 7.0442,7.44972 6.448244,8.829532 5.871094,9.607422 5.668554,9.880422 5.50039,10.208071 5.5,10.556641 5.5,11.353961 6.17157,12 7,12 7.82842,12 8.5,11.353961 8.5,10.556641 8.49984,10.176871 8.246036,9.864429 8.066406,9.542969 7.482736,8.755739 7.02209,7.45546 7,6.75 Z M 12.5,9 C 11.671573,9 11,9.671573 11,10.5 11,11.328427 11.671573,12 12.5,12 13.328427,12 14,11.328427 14,10.5 14,9.671573 13.328427,9 12.5,9 Z M 9,14 v 3 h 7 V 15.5 L 14,14 Z" style="opacity: 1; fill: #000000; fill-opacity: 1; stroke: none; stroke-width: 3.99999976; stroke-linecap: round; stroke-linejoin: round; stroke-miterlimit: 4; stroke-dasharray: none; stroke-dashoffset: 0; stroke-opacity: 1;" />
<path d="M 12.5,10.5 19,16" style="fill: none; stroke: #000000; stroke-width: 1.5; stroke-linecap: round; stroke-linejoin: miter; stroke-miterlimit: 4; stroke-dasharray: none; stroke-opacity: 1;" />
</svg>