<svg width="26" height="26" viewBox="0 0 26 26" xmlns="http://www.w3.org/2000/svg">
<path d="M 12.5,10.5 19,16" style="fill: none; stroke: #000000; stroke-width: 1.5; stroke-linecap: round; stroke-linejoin: miter; stroke-miterlimit: 4; stroke-dasharray: none; stroke-opacity: 1;" />
<path d="M 7,6.7499998 C 7.0442,7.4497198 6.448244,8.8295317 5.871094,9.6074217 5.668554,9.8804217 5.50039,10.208071 5.5,10.556641 5.5,11.353961 6.17157,12 7,12 7.82842,12 8.5,11.353961 8.5,10.556641 8.49984,10.176871 8.246036,9.8644286 8.066406,9.5429686 7.482736,8.7557386 7.02209,7.4554598 7,6.7499998 Z m 1,0.25 c 0,0 -0.07696,0.493679 -0.0059,0.7246094 C 8.125037,8.1501621 8.449511,8.3812948 8.753865,8.8242186 9.05821,9.2671424 9.499652,9.7315614 9.5,10.556641 9.5,11.915492 8.348317,13 7,13 v 5.5 c 2.8e-5,0.276131 0.223869,0.499972 0.5,0.5 h 10 c 0.276131,-2.8e-5 0.499972,-0.223869 0.5,-0.5 V 17.117188 L 13.054688,12.933594 C 12.87574,12.974269 12.69126,13 12.5,13 11.119288,13 10,11.880712 10,10.5 c 0,-1.3807112 1.119288,-2.5000002 2.5,-2.5000002 1.380711,0 2.5,1.119289 2.5,2.5000002 0,0.04748 -0.01106,0.09184 -0.01367,0.138672 L 18,13.189453 V 7.4999998 c -2.8e-5,-0.2761309 -0.223869,-0.4999724 -0.5,-0.5 z m 4.5,2 c -0.828427,0 -1.5,0.671573 -1.5,1.5000002 0,0.828427 0.671573,1.5 1.5,1.5 0.828427,0 1.5,-0.671573 1.5,-1.5 0,-0.8284272 -0.671573,-1.5000002 -1.5,-1.5000002 z" style="opacity: 1; fill: #000000; fill-opacity: 1; stroke: none; stroke-width: 1; stroke-linecap: round; stroke-linejoin: round; stroke-miterlimit: 4; stroke-dasharray: none; stroke-dashoffset: 0; stroke-opacity: 1;" />
</svg>