<svg width="26" height="26" viewBox="0 0 26 26" xmlns="http://www.w3.org/2000/svg">
<path d="M 7.5,3 C 7.223,3 7,3.223 7,3.5 l 0,3 C 7,6.777 7.223,7 7.5,7 l 1,0 C 8.777,7 9,6.777 9,6.5 l 0,-3 C 9,3.223 8.777,3 8.5,3 Z m 9,0 C 16.223,3 16,3.223 16,3.5 l 0,3 C 16,6.777 16.223,7 16.5,7 l 1,0 C 17.777,7 18,6.777 18,6.5 l 0,-3 C 18,3.223 17.777,3 17.5,3 Z M 4.5,5 C 4.22387,5.000028 4.00003,5.223869 4,5.5 l 0,16 c 3e-5,0.276131 0.22387,0.499972 0.5,0.5 l 16,0 c 0.27613,-2.8e-5 0.49997,-0.223869 0.5,-0.5 l 0,-16 C 20.99997,5.223869 20.77613,5.000028 20.5,5 L 19,5 19,7.5 C 19,7.777 18.777,8 18.5,8 l -3,0 C 15.223,8 15,7.777 15,7.5 L 15,5 10,5 10,7.5 C 10,7.777 9.777,8 9.5,8 l -3,0 C 6.223,8 6,7.777 6,7.5 L 6,5 Z m 0.5,5 15,0 0,11 -15,0 z" style="opacity: 1; fill: #000000; fill-opacity: 1; stroke: none; stroke-width: 1; stroke-linecap: round; stroke-linejoin: round; stroke-miterlimit: 4; stroke-dasharray: none; stroke-dashoffset: 0; stroke-opacity: 1;" />
<path d="M 11.5,11 C 11.223,11 11,11.223 11,11.5 L 11,14 8.5,14 C 8.223,14 8,14.223 8,14.5 l 0,1 C 8,15.777 8.223,16 8.5,16 l 2.5,0 0,2.5 c 0,0.277 0.223,0.5 0.5,0.5 l 1,0 c 0.277,0 0.5,-0.223 0.5,-0.5 l 0,-2.5 2.5,0 c 0.277,0 0.5,-0.223 0.5,-0.5 l 0,-1 C 16,14.223 15.777,14 15.5,14 L 13,14 13,11.5 C 13,11.223 12.777,11 12.5,11 Z" style="opacity: 1; fill: #000000; fill-opacity: 1; stroke: none; stroke-width: 1; stroke-linecap: round; stroke-linejoin: round; stroke-miterlimit: 4; stroke-dasharray: none; stroke-dashoffset: 0; stroke-opacity: 1;" />
</svg>