<svg width="26" height="26" viewBox="0 0 26 26" xmlns="http://www.w3.org/2000/svg">
<path d="m 21.146534,11.147684 -2,1.999821 c -0.19518,0.195252 -0.19518,0.511726 0,0.706968 l 2,1.99982 c 0.19527,0.195173 0.511772,0.195173 0.707032,0 l 2,-1.99982 c 0.19519,-0.195242 0.19519,-0.511716 0,-0.706968 l -2,-1.999821 c -0.205166,-0.218735 -0.541015,-0.173812 -0.707032,0 z m -4,3.999641 -3,2.99973 c -0.19518,0.195253 -0.19518,0.511716 0,0.706969 l 2,1.99982 c 0.19527,0.195162 0.511772,0.195162 0.707032,0 l 3,-2.999731 c 0.19519,-0.195252 0.19519,-0.511716 0,-0.706968 l -2,-1.99982 c -0.244229,-0.253889 -0.463436,-0.210919 -0.707032,0 z m -4.09375,4.130488 -1.052734,2.472187 1.25,1.25 2.472656,-1.052507 c 0.30552,-0.152276 0.37201,-0.559111 0.13086,-0.80071 l -2,-1.99982 c -0.292958,-0.261005 -0.715409,-0.09123 -0.800782,0.130848 z M 11.75005,22.25 l -0.75,1.75 1.75,-0.75 z M 7.50005,3 c -0.277,0 -0.5,0.223 -0.5,0.5 v 3 c 0,0.277 0.223,0.5 0.5,0.5 h 1 c 0.277,0 0.5,-0.223 0.5,-0.5 v -3 c 0,-0.277 -0.223,-0.5 -0.5,-0.5 z m 9,0 c -0.277,0 -0.5,0.223 -0.5,0.5 v 3 c 0,0.277 0.223,0.5 0.5,0.5 h 1 c 0.277,0 0.5,-0.223 0.5,-0.5 v -3 c 0,-0.277 -0.223,-0.5 -0.5,-0.5 z m -12,2 c -0.276131,2.8e-5 -0.499972,0.223869 -0.5,0.5 V 10 h 17 V 5.5 c -2.8e-5,-0.276131 -0.223869,-0.499972 -0.5,-0.5 h -1.5 v 2.5 c 0,0.277 -0.223,0.5 -0.5,0.5 h -3 c -0.277,0 -0.5,-0.223 -0.5,-0.5 V 5 h -5 v 2.5 c 0,0.277 -0.223,0.5 -0.5,0.5 h -3 c -0.277,0 -0.5,-0.223 -0.5,-0.5 V 5 Z" style="opacity: 1; fill: #000000; fill-opacity: 1; stroke: none; stroke-width: 1px; stroke-linecap: round; stroke-linejoin: miter; stroke-miterlimit: 4; stroke-dasharray: none; stroke-dashoffset: 0; stroke-opacity: 1;" />
<path d="m 20.50005,9.5 v 1 m -16,-1 v 12 h 6 m 8,-7 3.5,3.5 -4,4" style="fill: none; stroke: #000000; stroke-width: 1px; stroke-linecap: round; stroke-linejoin: round; stroke-opacity: 1;" />
</svg>