<svg width="26" height="26" viewBox="0 0 26 26" xmlns="http://www.w3.org/2000/svg">
<path d="M 7.5 3 C 7.223 3 7 3.223 7 3.5 L 7 6.5 C 7 6.777 7.223 7 7.5 7 L 8.5 7 C 8.777 7 9 6.777 9 6.5 L 9 3.5 C 9 3.223 8.777 3 8.5 3 L 7.5 3 z M 16.5 3 C 16.223 3 16 3.223 16 3.5 L 16 6.5 C 16 6.777 16.223 7 16.5 7 L 17.5 7 C 17.777 7 18 6.777 18 6.5 L 18 3.5 C 18 3.223 17.777 3 17.5 3 L 16.5 3 z M 4.5 5 C 4.223869 5.000028 4.000028 5.223869 4 5.5 L 4 21.5 C 4.000028 21.776131 4.223869 21.999972 4.5 22 L 20.5 22 C 20.776131 21.999972 20.999972 21.776131 21 21.5 L 21 5.5 C 20.999972 5.223869 20.776131 5.000028 20.5 5 L 19 5 L 19 7.5 C 19 7.777 18.777 8 18.5 8 L 15.5 8 C 15.223 8 15 7.777 15 7.5 L 15 5 L 10 5 L 10 7.5 C 10 7.777 9.777 8 9.5 8 L 6.5 8 C 6.223 8 6 7.777 6 7.5 L 6 5 L 4.5 5 z M 5 10 L 20 10 L 20 21 L 5 21 L 5 10 z M 15.642578 11.75 C 15.509795 11.74588 15.380774 11.793783 15.302734 11.908203 L 12.085938 15.626953 L 10.697266 14.238281 C 10.501397 14.042421 10.186103 14.042411 9.9902344 14.238281 L 9.2832031 14.945312 C 9.0873341 15.141173 9.0873341 15.456474 9.2832031 15.652344 L 11.732422 18.101562 C 11.928291 18.297423 12.243584 18.297422 12.439453 18.101562 L 16.716797 13.324219 C 16.912666 13.128349 16.912666 12.813057 16.716797 12.617188 L 16.009766 11.908203 C 15.911831 11.810293 15.775362 11.754 15.642578 11.75 z " style="opacity: 1; fill: #000000; fill-opacity: 1; stroke: none; stroke-width: 1; stroke-linecap: round; stroke-linejoin: round; stroke-miterlimit: 4; stroke-dasharray: none; stroke-dashoffset: 0; stroke-opacity: 1;" />
</svg>