<svg width="26" height="26" viewBox="0 0 26 26" xmlns="http://www.w3.org/2000/svg">
<path d="M 7.5,3 C 7.223,3 7,3.223 7,3.5 v 3 C 7,6.777 7.223,7 7.5,7 h 1 C 8.777,7 9,6.777 9,6.5 v -3 C 9,3.223 8.777,3 8.5,3 Z m 9,0 C 16.223,3 16,3.223 16,3.5 v 3 C 16,6.777 16.223,7 16.5,7 h 1 C 17.777,7 18,6.777 18,6.5 v -3 C 18,3.223 17.777,3 17.5,3 Z M 4.5,5 C 4.223869,5.000028 4.000028,5.223869 4,5.5 v 16 c 2.8e-5,0.276131 0.223869,0.499972 0.5,0.5 h 16 c 0.276131,-2.8e-5 0.499972,-0.223869 0.5,-0.5 V 5.5 C 20.999972,5.223869 20.776131,5.000028 20.5,5 H 19 V 7.5 C 19,7.777 18.777,8 18.5,8 h -3 C 15.223,8 15,7.777 15,7.5 V 5 H 10 V 7.5 C 10,7.777 9.777,8 9.5,8 h -3 C 6.223,8 6,7.777 6,7.5 V 5 Z M 5,10 H 20 V 21 H 5 Z" style="opacity: 1; fill: #000000; fill-opacity: 1; stroke: none; stroke-width: 1; stroke-linecap: round; stroke-linejoin: round; stroke-miterlimit: 4; stroke-dasharray: none; stroke-dashoffset: 0; stroke-opacity: 1;" />
<path d="m 16.490427,10.507121 0.0095,9.985758 m -4.0047,-9.985758 0.0095,9.985758 m -4.004699,-9.985758 0.0095,9.985758 M 5.507121,17.5 h 13.985757 m -13.985757,-4 h 13.985757" style="fill: none; stroke: #000000; stroke-width: 0.99999994; stroke-linecap: square; stroke-linejoin: miter; stroke-miterlimit: 4; stroke-dasharray: none; stroke-dashoffset: 0; stroke-opacity: 1;" />
</svg>