<svg width="26" height="26" viewBox="0 0 26 26" xmlns="http://www.w3.org/2000/svg">
<path d="m 10.5,4 c -0.1326,2.54e-5 -0.25976,0.052716 -0.353516,0.1464844 L 7.2929688,7 5,7 C 3.892,7 3,7.892 3,9 l 0,10 c 0,1.108 0.892,2 2,2 l 16,0 c 1.108,0 2,-0.892 2,-2 L 23,9 C 23,7.892 22.108,7 21,7 L 18.707031,7 15.853516,4.1464844 C 15.75976,4.0527162 15.6326,4.0000254 15.5,4 l -5,0 z M 13,8 c 2.755501,0 5,2.244499 5,5 0,2.755501 -2.244499,5 -5,5 -2.755501,0 -5,-2.244499 -5,-5 0,-2.755501 2.244499,-5 5,-5 z m 7.5,0.5 a 1,1 0 0 1 1,1 1,1 0 0 1 -1,1 1,1 0 0 1 -1,-1 1,1 0 0 1 1,-1 z M 13,9 c -2.215061,0 -4,1.784939 -4,4 0,2.215061 1.784939,4 4,4 2.215061,0 4,-1.784939 4,-4 0,-2.215061 -1.784939,-4 -4,-4 z" style="opacity: 1; fill: #000000; fill-opacity: 1; stroke: none; stroke-width: 1; stroke-linecap: square; stroke-linejoin: round; stroke-miterlimit: 4; stroke-dasharray: none; stroke-dashoffset: 0; stroke-opacity: 1;" />
</svg>