<svg width="26" height="26" viewBox="0 0 26 26" xmlns="http://www.w3.org/2000/svg">
<path d="m 4.5,7.9999996 c -0.277,0 -0.5,0.223 -0.5,0.5 V 17.5 c 2.76e-5,0.276131 0.2238691,0.499972 0.5,0.5 h 10 c 0.276131,-2.8e-5 0.499972,-0.223869 0.5,-0.5 v -6 C 14.999972,11.223869 14.776131,11.000028 14.5,11 H 11 V 8.4999996 c 0,-0.277 -0.223,-0.5 -0.5,-0.5 z m 8,0 c -0.277,0 -0.5,0.223 -0.5,0.5 v 1 C 12,9.777 12.223,10 12.5,10 h 5 C 17.777,10 18,9.777 18,9.4999996 v -1 c 0,-0.277 -0.223,-0.5 -0.5,-0.5 z M 21,11 c -2,0 -3,2 -3,2 H 16.5 C 16.223,13 16,13.223 16,13.5 v 2 c 0,0.277 0.223,0.5 0.5,0.5 H 18 c 0,0 1,2 3,2 z" style="opacity: 1; fill: #000000; fill-opacity: 1; stroke: none; stroke-width: 1px; stroke-linecap: round; stroke-linejoin: round; stroke-miterlimit: 4; stroke-dasharray: none; stroke-dashoffset: 0; stroke-opacity: 1;" />
</svg>