<svg width="26" height="26" viewBox="0 0 26 26" xmlns="http://www.w3.org/2000/svg">
<path d="m 4.50012,7 c -0.67616,-0.0096 -0.67616,1.009563 0,1 h 2.708984 l 3.857422,6.748047 C 11.155426,14.903667 11.32088,14.9998 11.50012,15 h 6 c 0.17584,4.4e-4 0.339008,-0.0915 0.429688,-0.242188 L 20.929807,9.757813 C 21.130577,9.42407 20.8896,8.999071 20.50012,9 L 8.935667,9.0039 7.933714,7.251947 C 7.844814,7.096328 7.67936,7.000204 7.50012,7 Z m 15,9 c -0.277,0 -0.5,0.223 -0.5,0.5 V 19 h -2.5 c -0.277,0 -0.5,0.223 -0.5,0.5 v 1 c 0,0.277 0.223,0.5 0.5,0.5 h 2.5 v 2.5 c 0,0.277 0.223,0.5 0.5,0.5 h 1 c 0.277,0 0.5,-0.223 0.5,-0.5 V 21 h 2.5 c 0.277,0 0.5,-0.223 0.5,-0.5 v -1 c 0,-0.277 -0.223,-0.5 -0.5,-0.5 h -2.5 v -2.5 c 0,-0.277 -0.223,-0.5 -0.5,-0.5 z" style="opacity: 1; fill: #000000; fill-opacity: 1; stroke: none; stroke-width: 1px; stroke-linecap: round; stroke-linejoin: round; stroke-miterlimit: 4; stroke-dasharray: none; stroke-dashoffset: 0; stroke-opacity: 1;" />
<path d="m 12.000242,20.500023 a 1,1 0 0 1 -1,1 1,1 0 0 1 -1,-1 1,1 0 0 1 1,-1 1,1 0 0 1 1,1 z m -0.500002,-6.000003 -2,3 h 8" style="opacity: 1; fill: none; fill-opacity: 1; stroke: #000000; stroke-width: 1; stroke-linecap: round; stroke-linejoin: round; stroke-miterlimit: 4; stroke-dasharray: none; stroke-dashoffset: 0; stroke-opacity: 1;" />
</svg>