<svg width="26" height="26" viewBox="0 0 26 26" xmlns="http://www.w3.org/2000/svg">
<path d="m 4.50012,7.0004565 c -0.67616,-0.0096 -0.67616,1.009563 0,1 H 7.2091 l 3.85743,6.7480475 c 0.0889,0.15562 0.25435,0.251753 0.43359,0.251953 h 6 c 0.17584,4.4e-4 0.33901,-0.0915 0.42969,-0.242188 L 20.929808,9.7582695 C 21.130578,9.4245265 20.8896,8.9995275 20.50012,9.0004565 L 8.93567,9.0043565 7.93371,7.2524035 C 7.84481,7.0967845 7.67936,7.0006605 7.50012,7.0004565 Z m 13.37891,9.6718755 c -0.12781,0 -0.25559,0.04855 -0.35352,0.146484 l -0.70703,0.707031 c -0.19587,0.19586 -0.19587,0.511161 0,0.707031 l 1.76758,1.767578 -1.76758,1.767578 c -0.19587,0.19587 -0.19587,0.511171 0,0.707031 l 0.70703,0.707032 c 0.19586,0.19587 0.51116,0.19587 0.70703,0 l 1.76758,-1.767579 1.767578,1.767579 c 0.19587,0.19587 0.511171,0.19587 0.707031,0 l 0.707032,-0.707032 c 0.19587,-0.19586 0.19587,-0.511161 0,-0.707031 l -1.767579,-1.767578 1.767579,-1.767578 c 0.19587,-0.19587 0.19587,-0.511171 0,-0.707031 l -0.707032,-0.707031 c -0.19587,-0.19587 -0.511161,-0.19587 -0.707031,0 l -1.767578,1.767578 -1.76758,-1.767578 c -0.0979,-0.09793 -0.22571,-0.146484 -0.35351,-0.146484 z" style="opacity: 1; fill: #000000; fill-opacity: 1; stroke: none; stroke-width: 1px; stroke-linecap: round; stroke-linejoin: round; stroke-miterlimit: 4; stroke-dasharray: none; stroke-dashoffset: 0; stroke-opacity: 1;" />
<path d="m 12.00024,20.500479 a 1,1 0 0 1 -1,1 1,1 0 0 1 -1,-1 1,1 0 0 1 1,-1 1,1 0 0 1 1,1 z m -0.5,-6.000002 -2,2.999999 h 6" style="opacity: 1; fill: none; fill-opacity: 1; stroke: #000000; stroke-width: 1; stroke-linecap: round; stroke-linejoin: round; stroke-miterlimit: 4; stroke-dasharray: none; stroke-dashoffset: 0; stroke-opacity: 1;" />
</svg>