<svg width="26" height="26" viewBox="0 0 26 26" xmlns="http://www.w3.org/2000/svg">
<path d="m 14.966821,5.4257588 c -0.064,-0.0089 -0.1323,-0.0062 -0.1992,0.01172 l -4.8300998,1.294922 c -0.2676,0.07169 -0.4252,0.343767 -0.3535,0.611328 l 0.1758,0.656249 h 6.2674998 l -0.6777,-2.257812 c -0.068,-0.169114 -0.2089,-0.292405 -0.3828,-0.316407 z m 1.5059,0.574219 0.5996,2 h 2.9277 v -1.5 c 0,-0.277 -0.223,-0.5 -0.5,-0.5 z" style="opacity: 1; fill: #000000; fill-opacity: 1; stroke: none; stroke-width: 1; stroke-linecap: round; stroke-linejoin: round; stroke-miterlimit: 4; stroke-dasharray: none; stroke-dashoffset: 2.79999995; stroke-opacity: 1;" />
<path d="m 4.5001212,7.5000028 h 3 l 3.9999998,6.9999952 h 6 l 3,-4.9999952 H 9.0001212" style="fill: none; stroke: #000000; stroke-width: 1px; stroke-linecap: round; stroke-linejoin: round; stroke-opacity: 1;" />
<path d="m 11.500121,14.499998 -1.9999998,3 h 9.9999998" style="fill: none; stroke: #000000; stroke-width: 1px; stroke-linecap: round; stroke-linejoin: round; stroke-opacity: 1;" />
<circle cx="11.000101" cy="20.5" r="1" style="opacity: 1; fill: none; fill-opacity: 1; stroke: #000000; stroke-width: 1; stroke-linecap: round; stroke-linejoin: round; stroke-miterlimit: 4; stroke-dasharray: none; stroke-dashoffset: 0; stroke-opacity: 1;" />
<circle cx="18.000101" cy="20.5" r="1" style="opacity: 1; fill: none; fill-opacity: 1; stroke: #000000; stroke-width: 1; stroke-linecap: round; stroke-linejoin: round; stroke-miterlimit: 4; stroke-dasharray: none; stroke-dashoffset: 0; stroke-opacity: 1;" />
</svg>