<svg width="26" height="26" viewBox="0 0 26 26" xmlns="http://www.w3.org/2000/svg">
<path d="m 4.50012,6.999977 c -0.67616,-0.0096 -0.67616,1.009563 0,1 h 2.708984 l 3.857422,6.748047 c 0.0889,0.15562 0.254354,0.251753 0.433594,0.251953 h 6 c 0.17584,4.4e-4 0.339008,-0.0915 0.429688,-0.242188 l 3,-4.999999 C 21.130577,9.424047 20.8896,8.999048 20.50012,8.999977 L 8.935667,9.003877 7.933714,7.251924 C 7.844814,7.096305 7.67936,7.000181 7.50012,6.999977 Z m 12,12 c -0.277,0 -0.5,0.223 -0.5,0.5 v 1 c 0,0.277 0.223,0.5 0.5,0.5 h 7 c 0.277,0 0.5,-0.223 0.5,-0.5 v -1 c 0,-0.277 -0.223,-0.5 -0.5,-0.5 z" style="opacity: 1; fill: #000000; fill-opacity: 1; stroke: none; stroke-width: 1px; stroke-linecap: round; stroke-linejoin: round; stroke-miterlimit: 4; stroke-dasharray: none; stroke-dashoffset: 0; stroke-opacity: 1;" />
<path d="m 12.000242,20.5 a 1,1 0 0 1 -1,1 1,1 0 0 1 -1,-1 1,1 0 0 1 1,-1 1,1 0 0 1 1,1 z m -0.500002,-6.000003 -2,3 h 10" style="opacity: 1; fill: none; fill-opacity: 1; stroke: #000000; stroke-width: 1; stroke-linecap: round; stroke-linejoin: round; stroke-miterlimit: 4; stroke-dasharray: none; stroke-dashoffset: 0; stroke-opacity: 1;" />
</svg>