<svg width="26" height="26" viewBox="0 0 26 26" xmlns="http://www.w3.org/2000/svg">
<path d="m 22.474871,16.818138 c -0.19587,-0.19587 -0.51123,-0.19587 -0.7071,0 l -1.76777,1.767769 -1.76777,-1.767769 c -0.19587,-0.19587 -0.51124,-0.19587 -0.7071,0 l -0.70711,0.70711 c -0.19587,0.19586 -0.19587,0.51123 0,0.7071 l 1.76777,1.76777 -1.76777,1.767769 c -0.19587,0.19587 -0.19587,0.511241 0,0.7071 l 0.70711,0.70711 c 0.19586,0.19587 0.51123,0.19587 0.7071,0 l 1.76777,-1.76777 1.76777,1.76777 c 0.19587,0.19587 0.51124,0.19587 0.7071,0 l 0.70711,-0.70711 c 0.19587,-0.195859 0.19587,-0.51123 0,-0.7071 l -1.76777,-1.767769 1.76777,-1.76777 c 0.19587,-0.19587 0.19587,-0.51124 0,-0.7071 z" style="opacity: 1; fill: #000000; fill-opacity: 1; stroke: none; stroke-width: 2.00000024; stroke-linecap: butt; stroke-linejoin: miter; stroke-miterlimit: 4; stroke-dasharray: none; stroke-dashoffset: 0; stroke-opacity: 1;" />
<path d="m 12.000123,20.50014 a 1,1 0 0 1 -1,1 1,1 0 0 1 -1,-1 1,1 0 0 1 1,-1 1,1 0 0 1 1,1 z m -0.500002,-6.000002 -2,2.999999 h 6 M 4.5001212,7.5001425 h 3 l 3.9999998,6.9999955 h 6 l 3,-4.9999955 h -11.5" style="opacity: 1; fill: none; fill-opacity: 1; stroke: #000000; stroke-width: 1; stroke-linecap: round; stroke-linejoin: round; stroke-miterlimit: 4; stroke-dasharray: none; stroke-dashoffset: 0; stroke-opacity: 1;" />
</svg>