<svg width="26" height="26" viewBox="0 0 26 26" xmlns="http://www.w3.org/2000/svg">
<path d="m 19.000242,20.500021 a 1,1 0 0 1 -1,1 1,1 0 0 1 -1,-1 1,1 0 0 1 1,-1 1,1 0 0 1 1,1 z m -7,0 a 1,1 0 0 1 -1,1 1,1 0 0 1 -1,-1 1,1 0 0 1 1,-1 1,1 0 0 1 1,1 z m -0.500002,-6.000002 -2,3.000001 h 10" style="opacity: 1; fill: none; fill-opacity: 1; stroke: #000000; stroke-width: 1; stroke-linecap: round; stroke-linejoin: round; stroke-miterlimit: 4; stroke-dasharray: none; stroke-dashoffset: 0; stroke-opacity: 1;" />
<path d="m 14.966917,5.4257804 c -0.06435,-0.0089 -0.132329,-0.0062 -0.199219,0.011719 L 9.93762,6.7324211 C 9.670059,6.8041111 9.512411,7.0761882 9.584104,7.3437492 l 0.175782,0.65625 h 6.267578 L 15.349729,5.7421867 C 15.281789,5.5730727 15.140815,5.4497824 14.966917,5.4257804 Z m 1.505859,0.5742188 0.59961,2 h 2.927734 v -1.5 c 0,-0.277 -0.223,-0.5 -0.5,-0.5 z m -11.972656,1 c -0.67616,-0.0096 -0.67616,1.009563 0,1 h 2.708984 l 3.857422,6.7480468 c 0.0889,0.15562 0.254354,0.251753 0.433594,0.251953 h 6 c 0.17584,4.4e-4 0.339007,-0.0915 0.429688,-0.242188 l 3,-4.9999993 C 21.130578,9.4240687 20.8896,8.9990702 20.50012,8.9999992 L 8.935667,9.0039054 7.933714,7.2519523 C 7.844814,7.0963273 7.67936,7.0002032 7.50012,6.9999992 Z" style="opacity: 1; fill: #000000; fill-opacity: 1; stroke: none; stroke-width: 1px; stroke-linecap: round; stroke-linejoin: round; stroke-miterlimit: 4; stroke-dasharray: none; stroke-dashoffset: 0; stroke-opacity: 1;" />
</svg>