<svg width="26" height="26" viewBox="0 0 26 26" xmlns="http://www.w3.org/2000/svg">
<path d="m 4.50012,7.0004494 c -0.67616,-0.0096 -0.67616,1.009563 0,1 h 2.708984 l 3.857422,6.7480466 c 0.0889,0.15562 0.254354,0.251753 0.433594,0.251953 h 6 c 0.17584,4.4e-4 0.339008,-0.0915 0.429688,-0.242188 l 3,-4.9999991 C 21.130578,9.4245189 20.8896,8.9995204 20.50012,9.0004494 L 8.935667,9.0043594 7.933714,7.2524063 C 7.844814,7.0967775 7.67936,7.0006534 7.50012,7.0004494 Z m 18.142578,9.7460936 c -0.13279,-0.004 -0.261804,0.04379 -0.339844,0.158203 l -3.216796,3.71875 -1.388672,-1.388672 c -0.19587,-0.19585 -0.511162,-0.19587 -0.707032,0 l -0.707031,0.707031 c -0.19587,0.19586 -0.19587,0.511161 0,0.707032 l 2.449219,2.449218 c 0.19587,0.19586 0.511161,0.19586 0.707031,0 l 4.277344,-4.777344 c 0.19587,-0.195869 0.19587,-0.511161 0,-0.707031 l -0.707031,-0.708984 c -0.0979,-0.0979 -0.234408,-0.154203 -0.367188,-0.158203 z" style="opacity: 1; fill: #000000; fill-opacity: 1; stroke: none; stroke-width: 1px; stroke-linecap: round; stroke-linejoin: round; stroke-miterlimit: 4; stroke-dasharray: none; stroke-dashoffset: 0; stroke-opacity: 1;" />
<path d="m 12.000242,20.500472 a 1,1 0 0 1 -1,1 1,1 0 0 1 -1,-1 1,1 0 0 1 1,-1 1,1 0 0 1 1,1 z m -0.500002,-6.000003 -2,3 h 10" style="opacity: 1; fill: none; fill-opacity: 1; stroke: #000000; stroke-width: 1; stroke-linecap: round; stroke-linejoin: round; stroke-miterlimit: 4; stroke-dasharray: none; stroke-dashoffset: 0; stroke-opacity: 1;" />
</svg>