<svg width="26" height="26" viewBox="0 0 26 26" xmlns="http://www.w3.org/2000/svg">
<path d="m 22.642581,16.746535 c -0.13279,-0.004 -0.26181,0.0438 -0.33985,0.15821 l -3.21679,3.71875 -1.38867,-1.38868 c -0.19587,-0.19585 -0.51117,-0.19587 -0.70704,0 l -0.70703,0.70704 c -0.19587,0.19586 -0.19587,0.51116 0,0.70703 l 2.44922,2.44922 c 0.19587,0.19586 0.51116,0.19586 0.70703,0 l 4.27735,-4.77735 c 0.19587,-0.19587 0.19587,-0.51116 0,-0.70703 l -0.70703,-0.70898 c -0.0979,-0.0979 -0.23441,-0.15421 -0.36719,-0.15821 z" style="opacity: 1; fill: #000000; fill-opacity: 1; stroke: none; stroke-width: 1px; stroke-linecap: butt; stroke-linejoin: round; stroke-miterlimit: 4; stroke-dasharray: none; stroke-dashoffset: 0; stroke-opacity: 1;" />
<path d="m 12.000123,20.500468 a 1,1 0 0 1 -1,1 1,1 0 0 1 -1,-1 1,1 0 0 1 1,-1 1,1 0 0 1 1,1 z M 11.500121,14.500466 9.5001211,17.500465 H 19.500121 M 4.5001212,7.5004705 h 2.9999999 l 3.9999999,6.9999955 h 6 l 3,-4.9999955 H 9.0001211" style="opacity: 1; fill: none; fill-opacity: 1; stroke: #000000; stroke-width: 1; stroke-linecap: round; stroke-linejoin: round; stroke-miterlimit: 4; stroke-dasharray: none; stroke-dashoffset: 0; stroke-opacity: 1;" />
</svg>