<svg width="26" height="26" viewBox="0 0 26 26" xmlns="http://www.w3.org/2000/svg">
<path d="M 5.5 4 C 4.6776486 4 4 4.6776486 4 5.5 L 4 20.5 C 4 21.322351 4.6776486 22 5.5 22 L 20.5 22 C 21.322351 22 22 21.322351 22 20.5 L 22 5.5 C 22 4.6776486 21.322351 4 20.5 4 L 5.5 4 z M 18.154297 8.0058594 C 18.282886 8.0066152 18.411831 8.0563624 18.509766 8.1542969 L 19.216797 8.8613281 C 19.412666 9.0571972 19.412666 9.3724918 19.216797 9.5683594 L 11.439453 17.847656 C 11.243584 18.043525 10.928291 18.043525 10.732422 17.847656 L 6.7832031 13.898438 C 6.5873339 13.702568 6.5873341 13.387275 6.7832031 13.191406 L 7.4902344 12.482422 C 7.6861032 12.286553 8.0013966 12.286553 8.1972656 12.482422 L 11.085938 15.373047 L 17.802734 8.1542969 C 17.897554 8.0533392 18.025707 8.0051036 18.154297 8.0058594 z " style="opacity: 1; fill: #000000; fill-opacity: 1; stroke: none; stroke-width: 1; stroke-linecap: butt; stroke-linejoin: miter; stroke-miterlimit: 4; stroke-dasharray: none; stroke-dashoffset: 0; stroke-opacity: 1;" />
</svg>