<svg width="26" height="26" viewBox="0 0 26 26" xmlns="http://www.w3.org/2000/svg">
<path d="m 21.5,5.5517648 c -3.5,0 -8.5,-2 -8.5,-2 0,0 -5,2 -8.5,2 L 4.5,12 c 0,8 8.5,12.5 8.5,12.5 0,0 8.5,-4.5 8.5,-12.5 z" style="fill: none; stroke: #000000; stroke-width: 1px; stroke-linecap: butt; stroke-linejoin: round; stroke-opacity: 1;" />
<path d="M 13 5.5 C 13 5.5 9 7 6 7 L 6 11 C 6 18 9.3644361 19.561977 13 22.5 C 16.635564 19.561977 20 18 20 11 L 20 7 C 17 7 13 5.5 13 5.5 z M 17.154297 9.0058594 C 17.282886 9.0066154 17.411831 9.0563589 17.509766 9.1542969 L 18.216797 9.8613281 C 18.412666 10.057197 18.412666 10.372491 18.216797 10.568359 L 12.439453 16.847656 C 12.243584 17.043525 11.928291 17.043525 11.732422 16.847656 L 7.7832031 12.898438 C 7.5873341 12.702568 7.5873341 12.387275 7.7832031 12.191406 L 8.4902344 11.482422 C 8.6861034 11.286553 9.0013966 11.286553 9.1972656 11.482422 L 12.085938 14.373047 L 16.802734 9.1542969 C 16.897554 9.0533389 17.025707 9.0051044 17.154297 9.0058594 z " style="opacity: 1; fill: #000000; fill-opacity: 1; stroke: none; stroke-width: 1px; stroke-linecap: square; stroke-linejoin: miter; stroke-miterlimit: 4; stroke-dasharray: none; stroke-dashoffset: 0; stroke-opacity: 1;" />
</svg>