<svg width="26" height="26" viewBox="0 0 26 26" xmlns="http://www.w3.org/2000/svg">
<path d="m 21.64258,13.746535 c -0.13279,-0.004 -0.26181,0.0438 -0.33985,0.15821 l -3.21679,3.71875 -1.38867,-1.38867 c -0.19587,-0.19585 -0.51117,-0.19587 -0.70704,0 l -0.70703,0.70703 c -0.19587,0.19586 -0.19587,0.51116 0,0.70703 l 2.44922,2.44922 c 0.19587,0.19586 0.51116,0.19586 0.70703,0 l 4.27735,-4.77735 c 0.19587,-0.19587 0.19587,-0.51116 0,-0.70703 l -0.70703,-0.70898 c -0.0979,-0.0979 -0.23441,-0.15421 -0.36719,-0.15821 z" style="opacity: 1; fill: #000000; fill-opacity: 1; stroke: none; stroke-width: 1px; stroke-linecap: butt; stroke-linejoin: round; stroke-miterlimit: 4; stroke-dasharray: none; stroke-dashoffset: 0; stroke-opacity: 1;" />
<path d="m 4,17.000445 h 2 m -2,-4 H 6 M 4,9.0004445 h 2 m 1,8.0000005 h 7 m -7,-4 H 17 M 7,9.0004445 h 10" style="fill: none; stroke: #000000; stroke-width: 2; stroke-linecap: butt; stroke-linejoin: miter; stroke-miterlimit: 4; stroke-dasharray: none; stroke-opacity: 1;" />
</svg>