<svg width="26" height="26" viewBox="0 0 26 26" xmlns="http://www.w3.org/2000/svg">
<path d="M 10.5,2 C 10.223869,2.0000276 10.000028,2.2238691 10,2.5 V 4 H 8.5 C 8.2238691,4.0000276 8.0000276,4.2238691 8,4.5 v 4 c 2.76e-5,0.2761309 0.2238691,0.4999724 0.5,0.5 h 9 c 0.276131,-2.76e-5 0.499972,-0.2238691 0.5,-0.5 v -4 C 17.999972,4.2238691 17.776131,4.0000276 17.5,4 H 16 V 2.5 C 15.999972,2.2238691 15.776131,2.0000276 15.5,2 Z M 13,4 c 0.552285,0 1,0.4477153 1,1 0,0.5522847 -0.447715,1 -1,1 C 12.447715,6 12,5.5522847 12,5 12,4.4477153 12.447715,4 13,4 Z M 4.5,5 C 4.223869,5.0000276 4.000028,5.223869 4,5.5 v 18 c 2.8e-5,0.276131 0.223869,0.499972 0.5,0.5 h 17 c 0.276131,-2.8e-5 0.499972,-0.223869 0.5,-0.5 V 5.5 C 21.999972,5.223869 21.776131,5.0000276 21.5,5 H 19 v 2 h 0.5 c 0.276131,2.76e-5 0.499972,0.223869 0.5,0.5 v 9.917969 c 0.03006,0.182242 -0.04278,0.366254 -0.189453,0.478515 l -3.910156,3.910157 c -0.0013,0.002 -0.0026,0.0039 -0.0039,0.0059 C 15.784117,21.95777 15.601155,22.02976 15.419922,22 H 6.5 C 6.223869,21.999972 6.0000276,21.776131 6,21.5 V 7.5 C 6.000028,7.223869 6.223869,7.0000276 6.5,7 H 7 V 5 Z M 7,10 v 11 h 8 v -3.5 c 2.8e-5,-0.276131 0.223869,-0.499972 0.5,-0.5 H 19 v -7 z m 9,8 v 2.292969 L 18.292969,18 Z" style="opacity: 1; fill: #000000; fill-opacity: 1; stroke: none; stroke-width: 0.99999982; stroke-linecap: round; stroke-linejoin: round; stroke-miterlimit: 4; stroke-dasharray: none; stroke-dashoffset: 0.5; stroke-opacity: 1;" />
</svg>