<svg width="26" height="26" viewBox="0 0 26 26" xmlns="http://www.w3.org/2000/svg">
<circle cx="13" cy="5.0000005" r="1" style="opacity: 1; fill: #000000; fill-opacity: 1; stroke: none; stroke-width: 1; stroke-linecap: round; stroke-linejoin: round; stroke-miterlimit: 4; stroke-dasharray: none; stroke-dashoffset: 0.5; stroke-opacity: 1;" />
<path d="m 17.5,7.4999995 h 2 V 17.5 l -4,4 H 6.4999993 V 7.4999995 h 2 m 1.9999987,-5 v 2 H 8.4999983 V 8.4999993 H 17.499999 V 4.4999995 h -2 v -2 z m 7.000002,3 h 4 V 23.5 H 4.4999997 V 5.4999995 H 8.4999993 M 15.5,21.5 v -4 h 4" style="opacity: 1; fill: none; fill-opacity: 1; stroke: #000000; stroke-width: 0.99999982; stroke-linecap: round; stroke-linejoin: round; stroke-miterlimit: 4; stroke-dasharray: none; stroke-dashoffset: 0.5; stroke-opacity: 1;" />
<path d="m 15.64258,11.74609 c -0.13279,-0.004 -0.26181,0.0438 -0.33985,0.15821 l -3.216791,3.71875 -1.38867,-1.38867 c -0.19587,-0.19585 -0.51117,-0.19587 -0.7070397,0 l -0.70703,0.70703 c -0.19587,0.19586 -0.19587,0.51116 0,0.70703 l 2.4492197,2.44922 c 0.19587,0.19586 0.51116,0.19586 0.70703,0 L 16.7168,13.32031 c 0.19587,-0.19587 0.19587,-0.51116 0,-0.70703 L 16.00977,11.9043 c -0.0979,-0.0979 -0.23441,-0.15421 -0.36719,-0.15821 z" style="opacity: 1; fill: #000000; fill-opacity: 1; stroke: none; stroke-width: 1px; stroke-linecap: butt; stroke-linejoin: round; stroke-miterlimit: 4; stroke-dasharray: none; stroke-dashoffset: 0; stroke-opacity: 1;" />
</svg>