<svg width="26" height="26" viewBox="0 0 26 26" xmlns="http://www.w3.org/2000/svg">
<path d="M 10.5,2 C 10.22387,2.000028 10.00003,2.223869 10,2.5 V 4 H 8.5 C 8.22387,4.000028 8.0000301,4.223869 8,4.5 v 4 c 3.01e-5,0.276131 0.22387,0.499972 0.5,0.5 h 9 c 0.27613,-2.8e-5 0.49997,-0.223869 0.5,-0.5 v -4 C 17.99997,4.223869 17.77613,4.000028 17.5,4 H 16 V 2.5 C 15.99997,2.223869 15.77613,2.000028 15.5,2 Z M 13,4 c 0.55229,0 1,0.447715 1,1 0,0.552285 -0.44771,1 -1,1 C 12.44772,6 12,5.552285 12,5 12,4.447715 12.44772,4 13,4 Z M 4.5,5 C 4.22387,5.000028 4.00003,5.223869 4,5.5 v 18 c 3e-5,0.276131 0.22387,0.499972 0.5,0.5 h 17 c 0.27613,-2.8e-5 0.49997,-0.223869 0.5,-0.5 V 5.5 C 21.99997,5.223869 21.77613,5.000028 21.5,5 H 19 v 2 h 0.5 c 0.27613,2.8e-5 0.49997,0.223869 0.5,0.5 v 9.917969 c 0.0301,0.182242 -0.0428,0.366254 -0.189453,0.478515 l -3.910156,3.910157 c -0.001,0.002 -0.0029,0.0039 -0.0039,0.0059 -0.11227,0.145229 -0.295322,0.21726 -0.476562,0.1875 H 6.5 c -0.27613,-2.8e-5 -0.49997,-0.223869 -0.5,-0.5 v -14 c 3e-5,-0.276131 0.22387,-0.499972 0.5,-0.5 H 7 V 5 Z M 7,10 v 11 h 8.25 L 19,17.25 V 10 Z m 5.5,1 h 1 c 0.277,0 0.5,0.223 0.5,0.5 V 14 h 2.5 c 0.277,0 0.5,0.223 0.5,0.5 v 1 C 17,15.777 16.777,16 16.5,16 H 14 v 2.5 c 0,0.277 -0.223,0.5 -0.5,0.5 h -1 C 12.223,19 12,18.777 12,18.5 V 16 H 9.5 C 9.223,16 9,15.777 9,15.5 v -1 C 9,14.223 9.223,14 9.5,14 H 12 V 11.5 C 12,11.223 12.223,11 12.5,11 Z" style="opacity: 1; fill: #000000; fill-opacity: 1; stroke: none; stroke-width: 0.99999982; stroke-linecap: round; stroke-linejoin: round; stroke-miterlimit: 4; stroke-dasharray: none; stroke-dashoffset: 0.5; stroke-opacity: 1;" />
</svg>