<svg width="26" height="26" viewBox="0 0 26 26" xmlns="http://www.w3.org/2000/svg">
<circle cx="13" cy="4.9999995" r="1" style="opacity: 1; fill: #000000; fill-opacity: 1; stroke: none; stroke-width: 1; stroke-linecap: round; stroke-linejoin: round; stroke-miterlimit: 4; stroke-dasharray: none; stroke-dashoffset: 0.5; stroke-opacity: 1;" />
<path d="m 17.500001,7.4999985 h 2 V 17.5 l -4,4 H 6.4999999 V 7.4999985 h 2 m 1.9999991,-5 v 2 H 8.4999989 v 4 H 17.5 v -4 h -2 v -2 z m 7.000002,3 h 4 V 23.5 H 4.4999999 V 5.4999985 h 4 M 15.500001,21.5 v -4 h 4" style="opacity: 1; fill: none; fill-opacity: 1; stroke: #000000; stroke-width: 0.99999982; stroke-linecap: round; stroke-linejoin: round; stroke-miterlimit: 4; stroke-dasharray: none; stroke-dashoffset: 0.5; stroke-opacity: 1;" />
<path d="m 12.5,9.9999995 c -0.277,0 -0.5,0.2229995 -0.5,0.4999995 V 13 H 9.4999999 c -0.277,0 -0.5,0.223 -0.5,0.5 v 1 c 0,0.277 0.223,0.5 0.5,0.5 H 12 v 2.5 c 0,0.277 0.223,0.5 0.5,0.5 h 1 C 13.777,18 14,17.777 14,17.5 V 15 h 2.500001 c 0.277,0 0.5,-0.223 0.5,-0.5 v -1 c 0,-0.277 -0.223,-0.5 -0.5,-0.5 H 14 v -2.500001 c 0,-0.277 -0.223,-0.4999995 -0.5,-0.4999995 z" style="opacity: 1; fill: #000000; fill-opacity: 1; stroke: none; stroke-width: 1px; stroke-linecap: butt; stroke-linejoin: round; stroke-miterlimit: 4; stroke-dasharray: none; stroke-dashoffset: 0; stroke-opacity: 1;" />
</svg>