<svg width="26" height="26" viewBox="0 0 26 26" xmlns="http://www.w3.org/2000/svg">
<path d="m 10.5,2.0000001 c -0.27613,2.8e-5 -0.49997,0.223869 -0.5,0.5 v 1.5 H 8.5 c -0.27613,2.8e-5 -0.49997,0.223869 -0.5,0.5 v 3.9999997 c 3e-5,0.276131 0.22387,0.499972 0.5,0.5 h 9 c 0.27613,-2.8e-5 0.49997,-0.223869 0.5,-0.5 V 4.5000001 c -3e-5,-0.276131 -0.22387,-0.499972 -0.5,-0.5 H 16 v -1.5 c -3e-5,-0.276131 -0.22387,-0.499972 -0.5,-0.5 z m 2.5,2 c 0.55229,0 1,0.447715 1,1 0,0.5522847 -0.44771,0.9999997 -1,0.9999997 -0.55228,0 -1,-0.447715 -1,-0.9999997 0,-0.552285 0.44772,-1 1,-1 z m -8.5,1 C 4.22387,5.0000281 4.00003,5.2238688 4,5.4999998 V 23.5 c 3e-5,0.276131 0.22387,0.499972 0.5,0.5 h 17 c 0.27613,-2.8e-5 0.49997,-0.223869 0.5,-0.5 V 5.4999998 c -3e-5,-0.276131 -0.22387,-0.4999717 -0.5,-0.4999997 H 19 v 1.9999997 h 0.5 c 0.27613,2.8e-5 0.49997,0.223869 0.5,0.5 v 9.9179692 c 0.0301,0.182242 -0.0428,0.366254 -0.189453,0.478515 l -3.910156,3.910157 c -0.001,0.002 -0.0029,0.0039 -0.0039,0.0059 -0.11227,0.145229 -0.295322,0.21726 -0.476562,0.1875 H 6.5 c -0.27613,-2.8e-5 -0.49997,-0.223869 -0.5,-0.5 V 7.5000408 c 3e-5,-0.276131 0.22387,-0.499972 0.5,-0.5 H 7 V 5.0000001 Z M 7,9.9999998 V 21 h 8.25 L 19,17.25 V 9.9999998 Z M 9.5,14 h 7 c 0.277,0 0.5,0.223 0.5,0.5 v 1 c 0,0.277 -0.223,0.5 -0.5,0.5 h -7 C 9.223,16 9,15.777 9,15.5 v -1 C 9,14.223 9.223,14 9.5,14 Z" style="opacity: 1; fill: #000000; fill-opacity: 1; stroke: none; stroke-width: 0.99999982; stroke-linecap: round; stroke-linejoin: round; stroke-miterlimit: 4; stroke-dasharray: none; stroke-dashoffset: 0.5; stroke-opacity: 1;" />
</svg>