<svg width="26" height="26" viewBox="0 0 26 26" xmlns="http://www.w3.org/2000/svg">
<path d="M 10.5,2 C 10.22387,2.000028 10.00003,2.223869 10,2.5 V 4 H 8.5 C 8.22387,4.000028 8.00003,4.223869 8,4.5 v 4.0000001 c 3e-5,0.276131 0.22387,0.499972 0.5,0.5 h 9 c 0.27613,-2.8e-5 0.49997,-0.223869 0.5,-0.5 V 4.5 C 17.99997,4.223869 17.77613,4.000028 17.5,4 H 16 V 2.5 C 15.99997,2.223869 15.77613,2.000028 15.5,2 Z M 13,4 c 0.55229,0 1,0.447715 1,1 0,0.552285 -0.44771,1.0000001 -1,1.0000001 C 12.44772,6.0000001 12,5.552285 12,5 12,4.447715 12.44772,4 13,4 Z M 4.5,5 C 4.22387,5.000028 4.00003,5.223869 4,5.5 v 18 c 3e-5,0.276131 0.22387,0.499972 0.5,0.5 h 17 c 0.27613,-2.8e-5 0.49997,-0.223869 0.5,-0.5 V 5.5 C 21.99997,5.223869 21.77613,5.000028 21.5,5 H 19 v 2.0000001 h 0.5 c 0.27613,2.8e-5 0.49997,0.223869 0.5,0.5 v 9.9179689 c 0.0301,0.182242 -0.0428,0.366254 -0.189453,0.478515 l -3.910156,3.910157 c -0.001,0.002 -0.0029,0.0039 -0.0039,0.0059 -0.11227,0.145229 -0.295323,0.21726 -0.476563,0.1875 H 6.5 c -0.27613,-2.8e-5 -0.49997,-0.223869 -0.5,-0.5 v -14 c 3e-5,-0.2761309 0.22387,-0.4999719 0.5,-0.5 H 7 V 5 Z M 7,10 v 11 h 8.25 L 19,17.25 V 10 Z m 8.642578,2.746094 c 0.13278,0.004 0.269288,0.0603 0.367188,0.158203 l 0.707031,0.708984 c 0.19587,0.19587 0.19587,0.511162 0,0.707031 l -4.277344,4.777344 c -0.19587,0.19586 -0.511161,0.19586 -0.707031,0 L 9.283203,16.648438 c -0.19587,-0.195871 -0.19587,-0.511172 0,-0.707032 l 0.707031,-0.707031 c 0.19587,-0.19587 0.511162,-0.19585 0.707032,0 l 1.388672,1.388672 3.216796,-3.71875 c 0.07804,-0.11441 0.207054,-0.162203 0.339844,-0.158203 z" style="opacity: 1; fill: #000000; fill-opacity: 1; stroke: none; stroke-width: 0.99999982; stroke-linecap: round; stroke-linejoin: round; stroke-miterlimit: 4; stroke-dasharray: none; stroke-dashoffset: 0.5; stroke-opacity: 1;" />
</svg>