<svg width="26" height="26" viewBox="0 0 26 26" xmlns="http://www.w3.org/2000/svg">
<circle cx="13.000001" cy="5.0000005" r="1" style="opacity: 1; fill: #000000; fill-opacity: 1; stroke: none; stroke-width: 1; stroke-linecap: round; stroke-linejoin: round; stroke-miterlimit: 4; stroke-dasharray: none; stroke-dashoffset: 0.5; stroke-opacity: 1;" />
<path d="m 17.5,7.499999 h 2 V 17.5 l -4,4 H 6.4999999 V 7.499999 h 2 M 10.499999,2.4999992 v 2 H 8.4999989 V 8.499999 H 17.499999 V 4.4999992 h -2 v -2 z m 7.000001,3 h 4 V 23.5 H 4.4999999 V 5.4999992 h 4 M 15.5,21.5 v -4 h 4" style="opacity: 1; fill: none; fill-opacity: 1; stroke: #000000; stroke-width: 0.99999982; stroke-linecap: round; stroke-linejoin: round; stroke-miterlimit: 4; stroke-dasharray: none; stroke-dashoffset: 0.5; stroke-opacity: 1;" />
<path d="m 9.4999999,13 c -0.277,0 -0.5,0.223 -0.5,0.5 v 1 c 0,0.277 0.223,0.5 0.5,0.5 H 16.5 c 0.277,0 0.5,-0.223 0.5,-0.5 v -1 C 17,13.223 16.777,13 16.5,13 Z" style="opacity: 1; fill: #000000; fill-opacity: 1; stroke: none; stroke-width: 1px; stroke-linecap: butt; stroke-linejoin: round; stroke-miterlimit: 4; stroke-dasharray: none; stroke-dashoffset: 0; stroke-opacity: 1;" />
</svg>