<svg width="26" height="26" viewBox="0 0 26 26" xmlns="http://www.w3.org/2000/svg">
<circle cx="13.000001" cy="5.0000005" r="1" style="opacity: 1; fill: #000000; fill-opacity: 1; stroke: none; stroke-width: 1; stroke-linecap: round; stroke-linejoin: round; stroke-miterlimit: 4; stroke-dasharray: none; stroke-dashoffset: 0.5; stroke-opacity: 1;" />
<path d="m 17.5,7.4999995 h 2 V 17.500001 l -4,4 h -9 V 7.4999995 h 2 m 1.999999,-5 v 2 h -2 v 4 h 9 v -4 h -2 v -2 z m 7.000001,3 h 4 V 23.500001 H 4.5 V 5.4999995 h 4 m 7,16.0000015 v -3 m 1.5,-1 h 2.5" style="opacity: 1; fill: none; fill-opacity: 1; stroke: #000000; stroke-width: 0.99999982; stroke-linecap: round; stroke-linejoin: round; stroke-miterlimit: 4; stroke-dasharray: none; stroke-dashoffset: 0.5; stroke-opacity: 1;" />
<path d="m 15.474874,10.818019 c -0.195869,-0.195868 -0.511238,-0.195868 -0.707107,0 L 13,12.585787 11.232233,10.818019 c -0.195869,-0.195868 -0.511238,-0.195868 -0.707107,0 l -0.707107,0.707107 c -0.195868,0.195869 -0.195868,0.511239 0,0.707108 l 1.767767,1.767767 -1.767767,1.767767 c -0.195868,0.195869 -0.195868,0.511238 0,0.707107 l 0.707107,0.707107 c 0.195869,0.195868 0.511238,0.195868 0.707107,0 L 13,15.414215 l 1.767767,1.767767 c 0.195869,0.195869 0.511238,0.195869 0.707107,0 l 0.707107,-0.707107 c 0.195869,-0.195869 0.195869,-0.511238 0,-0.707107 l -1.767767,-1.767767 1.767767,-1.767767 c 0.195868,-0.195869 0.195868,-0.511239 0,-0.707108 z" style="opacity: 1; fill: #000000; fill-opacity: 1; stroke: none; stroke-width: 1px; stroke-linecap: butt; stroke-linejoin: round; stroke-miterlimit: 4; stroke-dasharray: none; stroke-dashoffset: 0; stroke-opacity: 1;" />
</svg>