<svg width="26" height="26" viewBox="0 0 26 26" xmlns="http://www.w3.org/2000/svg">
<path d="m 9,4.999999 c -2.209139,0 -4,1.790861 -4,4 C 5,9.344368 5.05684,9.673344 5.138672,9.992187 6.330754,7.786644 8.346343,6.141738 10.746094,5.416015 10.216577,5.157308 9.629029,4.999999 9,4.999999 Z m 8,0 c -0.684795,0 -1.319286,0.138022 -1.882812,0.375 2.45828,0.70666 4.52774,2.374761 5.740234,4.626953 C 20.940962,9.680029 21,9.348056 21,8.999999 c 0,-2.209139 -1.790861,-4 -4,-4 z m -4,1 c -4.406433,0 -8,3.593567 -8,8 0,4.406433 3.593567,8 8,8 0.879079,0 1.723329,-0.150095 2.515625,-0.414062 L 14.404297,20.474608 C 14.230457,20.300769 14.218779,20.036809 14.353517,19.841796 13.918226,19.941466 13.4665,19.999999 13,19.999999 c -3.325553,0 -6,-2.674447 -6,-6 0,-3.325553 2.674447,-6 6,-6 3.325553,0 6,2.674447 6,6 0,0.366771 -0.03726,0.724048 -0.09961,1.072266 L 19,15.171875 20.960938,13.210938 C 20.562559,9.172473 17.140265,5.999999 13,5.999999 Z m 3.878906,8.671875 c -0.127809,0 -0.255581,0.04855 -0.353515,0.146484 l -0.707032,0.707032 c -0.195868,0.195869 -0.195868,0.511162 0,0.707031 l 1.767579,1.767578 -1.767579,1.767578 c -0.195868,0.195869 -0.195868,0.511162 0,0.707031 l 0.707032,0.707032 c 0.195869,0.195868 0.511162,0.195868 0.707031,0 L 19,19.414061 20.767578,21.18164 c 0.195869,0.195868 0.511162,0.195868 0.707031,0 l 0.707032,-0.707032 c 0.195868,-0.195869 0.195868,-0.511162 0,-0.707031 l -1.767579,-1.767578 1.767579,-1.767578 c 0.195868,-0.195869 0.195868,-0.511162 0,-0.707031 l -0.707032,-0.707032 c -0.195869,-0.195868 -0.511162,-0.195868 -0.707031,0 L 19,16.585937 17.232422,14.818358 c -0.09793,-0.09793 -0.225706,-0.146484 -0.353516,-0.146484 z" style="opacity: 1; fill: #000000; fill-opacity: 1; stroke: none; stroke-width: 3.5; stroke-linecap: round; stroke-linejoin: round; stroke-miterlimit: 4; stroke-dasharray: none; stroke-dashoffset: 0; stroke-opacity: 1;" />
<path d="m 8,19 v 3" style="fill: none; stroke: #000000; stroke-width: 2; stroke-linecap: butt; stroke-linejoin: miter; stroke-miterlimit: 4; stroke-dasharray: none; stroke-opacity: 1;" />
<path d="m 14,13.999999 c 0,0.552285 -0.447715,1 -1,1 -0.552285,0 -1,-0.447715 -1,-1 0,-0.552285 0.447715,-1 1,-1 0.552285,0 1,0.447715 1,1 z m 1.5,-0.5 -1.5,0.5 m -2,-1 -1.5,-1.5" style="opacity: 1; fill: none; fill-opacity: 1; stroke: #000000; stroke-width: 0.99999994; stroke-linecap: round; stroke-linejoin: round; stroke-miterlimit: 4; stroke-dasharray: none; stroke-dashoffset: 0; stroke-opacity: 1;" />
<path d="M 16.535534,10.464465 17.242641,9.757358 M 8.757359,18.24264 9.464466,17.535533 M 8.757359,9.757358 9.464466,10.464465 M 18,13.999999 h 1 m -12,0 h 1 m 5,5 v 1 m 0,-12 v 1" style="fill: none; stroke: #000000; stroke-width: 0.75; stroke-linecap: round; stroke-linejoin: miter; stroke-miterlimit: 4; stroke-dasharray: none; stroke-opacity: 1;" />
</svg>