<svg width="26" height="26" viewBox="0 0 26 26" xmlns="http://www.w3.org/2000/svg">
<path d="m 14,13.999999 c 0,0.552285 -0.447715,1 -1,1 -0.552285,0 -1,-0.447715 -1,-1 0,-0.552285 0.447715,-1 1,-1 0.552285,0 1,0.447715 1,1 z m 1.5,-0.5 -1.5,0.5 m -2,-1 -1.5,-1.5" style="opacity: 1; fill: none; fill-opacity: 1; stroke: #000000; stroke-width: 0.99999994; stroke-linecap: round; stroke-linejoin: round; stroke-miterlimit: 4; stroke-dasharray: none; stroke-dashoffset: 0; stroke-opacity: 1;" />
<path d="M 16.535534,10.464465 17.242641,9.757358 M 8.75736,18.24264 9.464467,17.535533 M 8.75736,9.757358 9.464467,10.464465 M 18,13.999999 h 1 m -12,0 h 1 m 5,5 v 1 m 0,-12 v 1" style="fill: none; stroke: #000000; stroke-width: 0.75; stroke-linecap: round; stroke-linejoin: miter; stroke-miterlimit: 4; stroke-dasharray: none; stroke-opacity: 1;" />
<path d="m 18,20 v 2 M 8.000001,19 v 3" style="fill: none; stroke: #000000; stroke-width: 2; stroke-linecap: butt; stroke-linejoin: miter; stroke-miterlimit: 4; stroke-dasharray: none; stroke-opacity: 1;" />
<path d="m 15.5,16.999999 c -0.277,0 -0.5,0.223 -0.5,0.5 v 1 c 0,0.277 0.223,0.5 0.5,0.5 h 7 c 0.277,0 0.5,-0.223 0.5,-0.5 v -1 c 0,-0.277 -0.223,-0.5 -0.5,-0.5 z m -2.5,-11 c -4.406433,0 -8,3.593567 -8,8 0,4.406433 3.593567,8 8,8 2.01847,0 3.86142,-0.759191 5.271484,-2 H 13 c -3.325553,0 -6,-2.674447 -6,-6 0,-3.325553 2.674447,-6 6,-6 3.325553,0 6,2.674447 6,6 0,0.703036 -0.125768,1.374279 -0.345703,2 h 2.082031 C 20.902489,15.359443 21,14.691307 21,13.999999 c 0,-4.406433 -3.593567,-8 -8,-8 z m -4,-1 c -2.209139,0 -4,1.790861 -4,4 C 5,9.344368 5.05684,9.673345 5.138672,9.992187 6.330754,7.786644 8.346344,6.141738 10.746094,5.416015 10.216577,5.157308 9.629029,4.999999 9,4.999999 Z m 8,0 c -0.684795,0 -1.319286,0.138022 -1.882812,0.375 2.458281,0.70666 4.52774,2.374761 5.740234,4.626953 C 20.940962,9.680029 21,9.348056 21,8.999999 c 0,-2.209139 -1.790861,-4 -4,-4 z" style="opacity: 1; fill: #000000; fill-opacity: 1; stroke: none; stroke-width: 2.00000024; stroke-linecap: butt; stroke-linejoin: miter; stroke-miterlimit: 4; stroke-dasharray: none; stroke-dashoffset: 0; stroke-opacity: 1;" />
</svg>