<svg width="26" height="26" viewBox="0 0 26 26" xmlns="http://www.w3.org/2000/svg">
<path d="m 14,13.999999 c 0,0.552285 -0.447715,1 -1,1 -0.552285,0 -1,-0.447715 -1,-1 0,-0.552285 0.447715,-1 1,-1 0.552285,0 1,0.447715 1,1 z m 1.5,-0.5 -1.5,0.5 m -2,-1 -1.5,-1.5" style="opacity: 1; fill: none; fill-opacity: 1; stroke: #000000; stroke-width: 0.99999994; stroke-linecap: round; stroke-linejoin: round; stroke-miterlimit: 4; stroke-dasharray: none; stroke-dashoffset: 0; stroke-opacity: 1;" />
<path d="M 16.535534,10.464465 17.242641,9.757358 M 8.75736,18.24264 9.464467,17.535533 M 8.75736,9.757358 9.464467,10.464465 M 18,13.999999 h 1 m -12,0 h 1 m 5,5 v 1 m 0,-12 v 1" style="fill: none; stroke: #000000; stroke-width: 0.75; stroke-linecap: round; stroke-linejoin: miter; stroke-miterlimit: 4; stroke-dasharray: none; stroke-opacity: 1;" />
<path d="m 8.000001,19 v 3" style="fill: none; stroke: #000000; stroke-width: 2; stroke-linecap: butt; stroke-linejoin: miter; stroke-miterlimit: 4; stroke-dasharray: none; stroke-opacity: 1;" />
<path d="M 8.9999997,4.999999 C 6.790861,4.999999 5,6.79086 5,8.999999 5,9.344368 5.05684,9.673344 5.138672,9.992186 6.330754,7.786644 8.3463427,6.141738 10.746094,5.416015 10.216577,5.157308 9.6290287,4.999999 8.9999997,4.999999 Z m 8.0000003,0 c -0.684795,0 -1.319286,0.138022 -1.882812,0.375 2.45828,0.70666 4.52774,2.374761 5.740234,4.626953 C 20.940962,9.680029 21,9.348056 21,8.999999 c 0,-2.209139 -1.790861,-4 -4,-4 z m -4,1 c -4.4064333,0 -8,3.593567 -8,8 0,4.406433 3.5935667,8 8,8 1.096379,0 2.142803,-0.222891 3.095703,-0.625 L 14.527344,19.796874 C 14.039258,19.924178 13.529218,19.999999 13,19.999999 c -3.3255533,0 -6,-2.674447 -6,-6 0,-3.325553 2.6744467,-6 6,-6 3.325553,0 6,2.674447 6,6 0,1.309338 -0.419327,2.514062 -1.125,3.498047 l 0.658203,0.658203 2.326172,-2.689453 C 20.948305,14.990631 21,14.5013 21,13.999999 c 0,-4.406433 -3.593567,-8 -8,-8 z m 9.142578,9.746094 c -0.132783,-0.004 -0.261804,0.04379 -0.339844,0.158203 l -3.216796,3.71875 -1.388672,-1.388672 c -0.195869,-0.19585 -0.511163,-0.19587 -0.707032,0 l -0.707031,0.707031 c -0.195869,0.19586 -0.195869,0.511161 0,0.707032 l 2.449219,2.449218 c 0.195869,0.19586 0.511162,0.19586 0.707031,0 l 4.277344,-4.777344 c 0.195869,-0.195869 0.195869,-0.511161 0,-0.707031 l -0.707031,-0.708984 c -0.09794,-0.0979 -0.234404,-0.154203 -0.367188,-0.158203 z" style="opacity: 1; fill: #000000; fill-opacity: 1; stroke: none; stroke-width: 2; stroke-linecap: butt; stroke-linejoin: miter; stroke-miterlimit: 4; stroke-dasharray: none; stroke-dashoffset: 0; stroke-opacity: 1;" />
</svg>