<svg width="26" height="26" viewBox="0 0 26 26" xmlns="http://www.w3.org/2000/svg">
<path d="m 8.9999998,4.9999995 c -2.20914,0 -3.9999996,1.790861 -3.9999996,4 0,0.344369 0.0568,0.673346 0.13867,0.992188 1.19208,-2.205543 3.2076696,-3.850449 5.6074198,-4.576172 -0.52951,-0.258707 -1.1170602,-0.416016 -1.7460902,-0.416016 z m 8.0000002,0 c -0.68479,0 -1.31929,0.138022 -1.88281,0.375 2.45828,0.70666 4.52774,2.374761 5.74023,4.6269535 C 20.94096,9.6800295 21,9.3480565 21,8.9999995 c 0,-2.209139 -1.79086,-4 -4,-4 z" style="opacity: 1; fill: #000000; fill-opacity: 1; stroke: none; stroke-width: 3.5; stroke-linecap: round; stroke-linejoin: round; stroke-miterlimit: 4; stroke-dasharray: none; stroke-dashoffset: 0; stroke-opacity: 1;" />
<path d="M 20,14 A 7,7 0 0 1 13,21 7,7 0 0 1 6.0000002,14 7,7 0 0 1 13,6.9999995 7,7 0 0 1 20,14 Z M 7.9999998,19 v 3 M 18,19 v 3" style="fill: none; stroke: #000000; stroke-width: 2; stroke-linecap: butt; stroke-linejoin: miter; stroke-miterlimit: 4; stroke-dasharray: none; stroke-opacity: 1;" />
<path d="m 14,14 c 0,0.552284 -0.44772,1 -1,1 -0.55228,0 -1,-0.447716 -1,-1 0,-0.552285 0.44772,-1 1,-1 0.55228,0 1,0.447715 1,1 z M 15.5,13.5 14,14 m -2,-1 -1.5,-1.5" style="opacity: 1; fill: none; fill-opacity: 1; stroke: #000000; stroke-width: 0.99999994; stroke-linecap: round; stroke-linejoin: round; stroke-miterlimit: 4; stroke-dasharray: none; stroke-dashoffset: 0; stroke-opacity: 1;" />
<path d="m 16.53553,10.464465 0.70711,-0.7071065 m -8.4852802,8.4852815 0.70711,-0.707107 m 7.0710602,0 0.70711,0.707107 M 8.7573598,9.7573585 9.4644698,10.464465 M 18,14 h 1 M 6.9999998,14 h 1 M 13,19 v 1 M 13,7.9999995 v 1" style="fill: none; stroke: #000000; stroke-width: 0.75; stroke-linecap: round; stroke-linejoin: miter; stroke-miterlimit: 4; stroke-dasharray: none; stroke-opacity: 1;" />
</svg>