<svg width="26" height="26" viewBox="0 0 26 26" xmlns="http://www.w3.org/2000/svg">
<path d="m 9,4.999999 c -2.209139,0 -4,1.790861 -4,4 C 5,9.344368 5.05684,9.673344 5.138672,9.992186 6.330754,7.786644 8.346343,6.141738 10.746094,5.416015 10.216577,5.157308 9.629029,4.999999 9,4.999999 Z m 8,0 c -0.684795,0 -1.319286,0.138022 -1.882812,0.375 2.45828,0.70666 4.52774,2.374761 5.740234,4.626953 C 20.940962,9.680029 21,9.348056 21,8.999999 c 0,-2.209139 -1.790861,-4 -4,-4 z m -4,1 c -4.406433,0 -8,3.593567 -8,8 0,4.406433 3.593567,8 8,8 1.457238,0 2.821137,-0.400476 4,-1.085938 v -0.914062 h -4 c -3.325553,0 -6,-2.674447 -6,-6 0,-3.325553 2.674447,-6 6,-6 2.983857,0 5.436201,2.155361 5.910156,5 h 2.021485 c -0.495365,-3.93661 -3.864337,-7 -7.931641,-7 z m 5.5,8 c -0.277,0 -0.5,0.223 -0.5,0.5 v 2.5 h -2.5 c -0.277,0 -0.5,0.223 -0.5,0.5 v 1 c 0,0.277 0.223,0.5 0.5,0.5 H 18 v 2.5 c 0,0.277 0.223,0.5 0.5,0.5 h 1 c 0.277,0 0.5,-0.223 0.5,-0.5 v -2.5 h 2.5 c 0.277,0 0.5,-0.223 0.5,-0.5 v -1 c 0,-0.277 -0.223,-0.5 -0.5,-0.5 H 20 v -2.5 c 0,-0.277 -0.223,-0.5 -0.5,-0.5 z" style="opacity: 1; fill: #000000; fill-opacity: 1; stroke: none; stroke-width: 3.5; stroke-linecap: round; stroke-linejoin: round; stroke-miterlimit: 4; stroke-dasharray: none; stroke-dashoffset: 0; stroke-opacity: 1;" />
<path d="m 8,19 v 3" style="fill: none; stroke: #000000; stroke-width: 2; stroke-linecap: butt; stroke-linejoin: miter; stroke-miterlimit: 4; stroke-dasharray: none; stroke-opacity: 1;" />
<path d="m 14,13.999999 c 0,0.552285 -0.447715,1 -1,1 -0.552285,0 -1,-0.447715 -1,-1 0,-0.552285 0.447715,-1 1,-1 0.552285,0 1,0.447715 1,1 z m 1.5,-0.5 -1.5,0.5 m -2,-1 -1.5,-1.5" style="opacity: 1; fill: none; fill-opacity: 1; stroke: #000000; stroke-width: 0.99999994; stroke-linecap: round; stroke-linejoin: round; stroke-miterlimit: 4; stroke-dasharray: none; stroke-dashoffset: 0; stroke-opacity: 1;" />
<path d="M 16.535534,10.464465 17.242641,9.757358 M 8.757359,18.24264 9.464466,17.535533 M 8.757359,9.757358 9.464466,10.464465 M 7,13.999999 h 1 m 5,5 v 1 m 0,-12 v 1" style="fill: none; stroke: #000000; stroke-width: 0.75; stroke-linecap: round; stroke-linejoin: miter; stroke-miterlimit: 4; stroke-dasharray: none; stroke-opacity: 1;" />
</svg>