<svg width="26" height="26" viewBox="0 0 26 26" xmlns="http://www.w3.org/2000/svg">
<path d="m 17.5,16.5 h 3 c 1.65685,0 3,-1.34315 3,-3 0,-1.65685 -1.34315,-3 -3,-3 -0.20349,8.9e-4 -0.40635,0.0225 -0.60547,0.0644 C 19.96423,10.2139 19.99951,9.8574 20,9.5 20,6.462434 17.53757,4 14.5,4 12.48263,4.000473 10.62742,5.105354 9.66602,6.878906 9.32659,6.63365 8.91876,6.501118 8.5,6.5 c -1.10457,0 -2,0.89543 -2,2 -2.20914,0 -4,1.79086 -4,4 0,2.20914 1.79086,4 4,4 H 8" style="opacity: 1; fill: none; fill-opacity: 1; stroke: #000000; stroke-width: 1; stroke-linecap: round; stroke-linejoin: round; stroke-miterlimit: 4; stroke-dasharray: none; stroke-dashoffset: 0; stroke-opacity: 1;" />
<path d="m 16,9 -6.5,7.5 3,1 -2.5,6.5 6.5,-7.5 -3,-1 z" style="fill: #000000; fill-opacity: 1; stroke: none; stroke-width: 1px; stroke-linecap: butt; stroke-linejoin: round; stroke-opacity: 1;" />
</svg>