<svg width="26" height="26" viewBox="0 0 26 26" xmlns="http://www.w3.org/2000/svg">
<path d="m 20.5,18.5 c 1.656854,0 3,-1.34315 3,-3 0,-1.65685 -1.343146,-3 -3,-3 -0.203487,8.9e-4 -0.406354,0.0225 -0.605469,0.0644 C 19.964189,12.2139 19.999512,11.8574 20,11.5 20,8.462434 17.537566,6 14.5,6 12.48263,6.000473 10.627418,7.105354 9.666016,8.878906 9.326595,8.63365 8.918755,8.501118 8.5,8.5 c -1.104569,0 -2,0.89543 -2,2 -2.209139,0 -4,1.79086 -4,4 0,2.20914 1.790861,4 4,4 z" style="opacity: 1; fill: none; fill-opacity: 1; stroke: #000000; stroke-width: 1; stroke-linecap: round; stroke-linejoin: round; stroke-miterlimit: 4; stroke-dasharray: none; stroke-dashoffset: 0; stroke-opacity: 1;" />
</svg>