<svg width="26" height="26" viewBox="0 0 26 26" xmlns="http://www.w3.org/2000/svg">
<path d="M 8.072266,6.5605469 C 7.75,6.53125 7.375,6.625 7,7 6,8 7,9 7,9 6,10 7,12.5 9,12.5 L 12.5,9 C 12.5,7 10,6 9,7 9,7 8.609375,6.609375 8.072266,6.5605469 Z m 9.02539,4.9628911 -2.480468,2.480468 L 18.5,17.5 c 0,0 1.004798,-2.363619 -1.402344,-5.976562 z m -3.09375,3.09375 -2.480468,2.480468 C 15.13638,19.504798 17.5,18.5 17.5,18.5 Z" style="fill: #000000; fill-opacity: 1; stroke: none; stroke-width: 1px; stroke-linecap: butt; stroke-linejoin: miter; stroke-opacity: 1;" />
<path d="m 6,20.5 15,-15 m 1.16,7.16 c -3,-3 -5,-0.5 -5,-0.5 m -5,5 c 0,0 -2.5,2 0.5,5 M 4.5,13 c 3,3 4.5,1.5 5,1 L 14,9.5 c 0.5,-0.5 2,-2 -1,-5" style="fill: none; stroke: #000000; stroke-width: 1px; stroke-linecap: round; stroke-linejoin: miter; stroke-opacity: 1;" />
</svg>