<svg width="26" height="26" viewBox="0 0 26 26" xmlns="http://www.w3.org/2000/svg">
<path d="M 8.072266,6.560547 C 7.75,6.53125 7.375,6.625 7,7 6,8 7,9 7,9 6,10 7,12.5 9,12.5 L 12.5,9 C 12.5,7 10,6 9,7 9,7 8.609375,6.609375 8.072266,6.560547 Z M 15,9 9,15 c 5,5 8.5,3.5 8.5,3.5 l -4.5,-5 0.5,-0.5 5,4.5 C 18.5,17.5 20,14 15,9 Z" style="fill: #000000; fill-opacity: 1; stroke: none; stroke-width: 1px; stroke-linecap: butt; stroke-linejoin: miter; stroke-opacity: 1;" />
<path d="m 8,19 3,-3 m 5,-5 3,-3 m 3.16,4.66 c -3,-3 -5,-0.5 -5,-0.5 m -5,5 c 0,0 -2.5,2 0.5,5 M 4.5,13 c 3,3 4.5,1.5 5,1 L 14,9.5 c 0.5,-0.5 2,-2 -1,-5" style="fill: none; stroke: #000000; stroke-width: 1px; stroke-linecap: round; stroke-linejoin: miter; stroke-opacity: 1;" />
</svg>