<svg width="26" height="26" viewBox="0 0 26 26" xmlns="http://www.w3.org/2000/svg">
<path d="M 7.5,7 C 7.223,7 7,7.223 7,7.5 v 11 C 7,18.777 7.223,19 7.5,19 h 3 C 10.777,19 11,18.777 11,18.5 V 7.5 C 11,7.223 10.777,7 10.5,7 Z m 5.98242,0 A 0.50005,0.50005 0 0 0 13,7.5 v 11 a 0.50005,0.50005 0 0 0 0.80859,0.392578 l 7,-5.5 a 0.50005,0.50005 0 0 0 0,-0.785156 l -7,-5.5000001 A 0.50005,0.50005 0 0 0 13.48242,7 Z" style="opacity: 1; fill: #000000; fill-opacity: 1; stroke: none; stroke-width: 2.99999976; stroke-linecap: round; stroke-linejoin: round; stroke-miterlimit: 4; stroke-dasharray: none; stroke-dashoffset: 0; stroke-opacity: 1;" />
</svg>