<svg width="26" height="26" viewBox="0 0 26 26" xmlns="http://www.w3.org/2000/svg">
<path d="M 8.5,7 C 8.223,7 8,7.223 8,7.5 v 11 C 8,18.777 8.223,19 8.5,19 h 3 C 11.777,19 12,18.777 12,18.5 V 7.5 C 12,7.223 11.777,7 11.5,7 Z m 6,0 C 14.223,7 14,7.223 14,7.5 v 11 c 0,0.277 0.223,0.5 0.5,0.5 h 3 C 17.777,19 18,18.777 18,18.5 V 7.5 C 18,7.223 17.777,7 17.5,7 Z" style="opacity: 1; fill: #000000; fill-opacity: 1; stroke: none; stroke-width: 2.99999976; stroke-linecap: round; stroke-linejoin: round; stroke-miterlimit: 4; stroke-dasharray: none; stroke-dashoffset: 0; stroke-opacity: 1;" />
</svg>