<svg width="26" height="26" viewBox="0 0 26 26" xmlns="http://www.w3.org/2000/svg">
<path d="M 3.5 5 A 0.50005 0.50005 0 0 0 3 5.5 L 3 20.5 A 0.50005 0.50005 0 0 0 3.5 21 L 9.7929688 21 L 12.646484 23.853516 A 0.50005 0.50005 0 0 0 13.353516 23.853516 L 16.207031 21 L 22.5 21 A 0.50005 0.50005 0 0 0 23 20.5 L 23 5.5 A 0.50005 0.50005 0 0 0 22.5 5 L 3.5 5 z M 15.642578 9.7460938 C 15.775362 9.7500937 15.911831 9.8063869 16.009766 9.9042969 L 16.716797 10.613281 C 16.912666 10.809151 16.912666 11.124442 16.716797 11.320312 L 12.439453 16.097656 C 12.243584 16.293516 11.928291 16.293516 11.732422 16.097656 L 9.2832031 13.648438 C 9.0873341 13.452568 9.0873341 13.137266 9.2832031 12.941406 L 9.9902344 12.234375 C 10.186103 12.038505 10.501397 12.038515 10.697266 12.234375 L 12.085938 13.623047 L 15.302734 9.9042969 C 15.380774 9.7898769 15.509795 9.7419738 15.642578 9.7460938 z " style="opacity: 1; fill: #000000; fill-opacity: 1; stroke: none; stroke-width: 1; stroke-linecap: round; stroke-linejoin: round; stroke-miterlimit: 4; stroke-dasharray: none; stroke-dashoffset: 0; stroke-opacity: 1;" />
</svg>