<svg width="26" height="26" viewBox="0 0 26 26" xmlns="http://www.w3.org/2000/svg">
<path d="m 3.5,5.5 v 15 H 10 l 3,3 3,-3 h 6.5 v -15 z" style="opacity: 1; fill: none; fill-opacity: 1; stroke: #000000; stroke-width: 1; stroke-linecap: round; stroke-linejoin: round; stroke-miterlimit: 4; stroke-dasharray: none; stroke-dashoffset: 0; stroke-opacity: 1;" />
<path d="M 12.5 7.625 C 10.75 7.625 9 8.5833333 9 10.5 C 9 10.777 9.223 11 9.5 11 L 10.5 11 C 10.777 11 11 10.824595 11 10.5 C 11 9.3333333 14 9.3333333 14 10.5 C 14 11.166667 13.792969 11.292969 13.292969 11.792969 C 12.792969 12.292969 12 13.166667 12 14.5 C 12 14.777 12.223 15 12.5 15 L 13.5 15 C 13.777 15 14 14.824595 14 14.5 C 14 13.833333 14.207031 13.707031 14.707031 13.207031 C 15.207031 12.707031 16 11.833333 16 10.5 C 16 8.5833333 14.25 7.625 12.5 7.625 z M 12.5 16 C 12.223 16 12 16.223 12 16.5 L 12 17.5 C 12 17.777 12.223 18 12.5 18 L 13.5 18 C 13.777 18 14 17.777 14 17.5 L 14 16.5 C 14 16.223 13.777 16 13.5 16 L 12.5 16 z " style="opacity: 1; fill: #000000; fill-opacity: 1; stroke: none; stroke-width: 2; stroke-linecap: butt; stroke-linejoin: miter; stroke-miterlimit: 4; stroke-dasharray: none; stroke-dashoffset: 0; stroke-opacity: 1;" />
</svg>