<svg width="26" height="26" viewBox="0 0 26 26" xmlns="http://www.w3.org/2000/svg">
<path d="M 3.5 5 A 0.50005 0.50005 0 0 0 3 5.5 L 3 20.5 A 0.50005 0.50005 0 0 0 3.5 21 L 9.7929688 21 L 12.646484 23.853516 A 0.50005 0.50005 0 0 0 13.353516 23.853516 L 16.207031 21 L 22.5 21 A 0.50005 0.50005 0 0 0 23 20.5 L 23 5.5 A 0.50005 0.50005 0 0 0 22.5 5 L 3.5 5 z M 12.5 8 L 13.5 8 C 13.777 8 14 8.2229999 14 8.5 L 14 13.5 C 14 13.776999 13.777 14 13.5 14 L 12.5 14 C 12.223 14 12 13.777 12 13.5 L 12 8.5 C 12 8.2229999 12.223 8 12.5 8 z M 12.5 16 L 13.5 16 C 13.777 16 14 16.223 14 16.5 L 14 17.5 C 14 17.777 13.777 18 13.5 18 L 12.5 18 C 12.223 18 12 17.777 12 17.5 L 12 16.5 C 12 16.223 12.223 16 12.5 16 z " style="opacity: 1; fill: #000000; fill-opacity: 1; stroke: none; stroke-width: 1; stroke-linecap: round; stroke-linejoin: round; stroke-miterlimit: 4; stroke-dasharray: none; stroke-dashoffset: 0; stroke-opacity: 1;" />
</svg>