<svg width="26" height="26" viewBox="0 0 26 26" xmlns="http://www.w3.org/2000/svg">
<path d="m 3.5,5.000096 a 0.50005,0.50005 0 0 0 -0.5,0.5 v 14.999999 a 0.50005,0.50005 0 0 0 0.5,0.5 h 6.292969 l 2.853515,2.853516 a 0.50005,0.50005 0 0 0 0.707032,0 l 2.853515,-2.853516 H 22.5 a 0.50005,0.50005 0 0 0 0.5,-0.5 V 5.500096 a 0.50005,0.50005 0 0 0 -0.5,-0.5 z m 8.5,4 v 1 c -1.758075,0 -2.740015,0.775348 -2.273438,3 H 11 c 0.554,0 1,0.446 1,1 v 2 c 0,0.554 -0.446,1 -1,1 H 9 c -0.554,0 -1,-0.446 -1,-1 v -2 c 0,-3 1,-5 4,-5 z m 6,0 v 1 c -1.758075,0 -2.740015,0.775348 -2.273438,3 H 17 c 0.554,0 1,0.446 1,1 v 2 c 0,0.554 -0.446,1 -1,1 h -2 c -0.554,0 -1,-0.446 -1,-1 v -2 c 0,-3 1,-5 4,-5 z" style="opacity: 1; fill: #000000; fill-opacity: 1; stroke: none; stroke-width: 1px; stroke-linecap: round; stroke-linejoin: round; stroke-miterlimit: 4; stroke-dasharray: none; stroke-dashoffset: 0; stroke-opacity: 1;" />
</svg>