<svg width="26" height="26" viewBox="0 0 26 26" xmlns="http://www.w3.org/2000/svg">
<path d="M 3.5 5 A 0.50005 0.50005 0 0 0 3 5.5 L 3 20.5 A 0.50005 0.50005 0 0 0 3.5 21 L 9.7929688 21 L 12.646484 23.853516 A 0.50005 0.50005 0 0 0 13.353516 23.853516 L 16.207031 21 L 22.5 21 A 0.50005 0.50005 0 0 0 23 20.5 L 23 5.5 A 0.50005 0.50005 0 0 0 22.5 5 L 3.5 5 z M 12.5 9 L 13.5 9 C 13.777 9 14 9.223 14 9.5 L 14 12 L 16.5 12 C 16.777 12 17 12.223 17 12.5 L 17 13.5 C 17 13.777 16.777 14 16.5 14 L 14 14 L 14 16.5 C 14 16.777 13.777 17 13.5 17 L 12.5 17 C 12.223 17 12 16.777 12 16.5 L 12 14 L 9.5 14 C 9.223 14 9 13.777 9 13.5 L 9 12.5 C 9 12.223 9.223 12 9.5 12 L 12 12 L 12 9.5 C 12 9.223 12.223 9 12.5 9 z " style="opacity: 1; fill: #000000; fill-opacity: 1; stroke: none; stroke-width: 1; stroke-linecap: round; stroke-linejoin: round; stroke-miterlimit: 4; stroke-dasharray: none; stroke-dashoffset: 0; stroke-opacity: 1;" />
</svg>