<svg width="26" height="26" viewBox="0 0 26 26" xmlns="http://www.w3.org/2000/svg">
<path d="M 4.5 8 A 0.50005 0.50005 0 0 0 4 8.5 L 4 20.5 A 0.50005 0.50005 0 0 0 4.5 21 L 8.7929688 21 L 11.646484 23.853516 A 0.50005 0.50005 0 0 0 12.353516 23.853516 L 15.207031 21 L 19.5 21 A 0.50005 0.50005 0 0 0 20 20.5 L 20 8.5 A 0.50005 0.50005 0 0 0 19.5 8 L 4.5 8 z M 7.5 11 L 16.5 11 A 0.50005 0.50005 0 1 1 16.5 12 L 7.5 12 A 0.50005 0.50005 0 1 1 7.5 11 z M 7.5 14 L 16.5 14 A 0.50005 0.50005 0 1 1 16.5 15 L 7.5 15 A 0.50005 0.50005 0 1 1 7.5 14 z M 7.5 17 L 12.5 17 A 0.50005 0.50005 0 1 1 12.5 18 L 7.5 18 A 0.50005 0.50005 0 1 1 7.5 17 z " style="opacity: 1; fill: #000000; fill-opacity: 1; stroke: none; stroke-width: 1; stroke-linecap: round; stroke-linejoin: round; stroke-miterlimit: 4; stroke-dasharray: none; stroke-dashoffset: 0; stroke-opacity: 1;" />
<path d="M 7.5 5 C 7.2238691 5.0000276 7.0000276 5.2238691 7 5.5 L 7 7 L 20.5 7 C 20.776131 7.0000276 20.999972 7.2238691 21 7.5 L 21 18 L 22.5 18 C 22.776131 17.999972 22.999972 17.776131 23 17.5 L 23 5.5 C 22.999972 5.2238691 22.776131 5.0000276 22.5 5 L 7.5 5 z " style="opacity: 1; fill: #000000; fill-opacity: 1; stroke: none; stroke-width: 1; stroke-linecap: butt; stroke-linejoin: round; stroke-miterlimit: 4; stroke-dasharray: none; stroke-dashoffset: 0; stroke-opacity: 1;" />
</svg>