<svg width="26" height="26" viewBox="0 0 26 26" xmlns="http://www.w3.org/2000/svg">
<path d="M 3.5 5 A 0.50005 0.50005 0 0 0 3 5.5 L 3 20.5 A 0.50005 0.50005 0 0 0 3.5 21 L 9.7929688 21 L 12.646484 23.853516 A 0.50005 0.50005 0 0 0 13.353516 23.853516 L 16.207031 21 L 22.5 21 A 0.50005 0.50005 0 0 0 23 20.5 L 23 5.5 A 0.50005 0.50005 0 0 0 22.5 5 L 3.5 5 z M 10.878906 9.671875 C 11.006716 9.671875 11.134487 9.7204251 11.232422 9.8183594 L 13 11.585938 L 14.767578 9.8183594 C 14.963447 9.6224908 15.27874 9.6224908 15.474609 9.8183594 L 16.181641 10.525391 C 16.377509 10.72126 16.377509 11.036553 16.181641 11.232422 L 14.414062 13 L 16.181641 14.767578 C 16.377509 14.963447 16.377509 15.27874 16.181641 15.474609 L 15.474609 16.181641 C 15.27874 16.377509 14.963447 16.377509 14.767578 16.181641 L 13 14.414062 L 11.232422 16.181641 C 11.036553 16.377509 10.72126 16.377509 10.525391 16.181641 L 9.8183594 15.474609 C 9.6224908 15.27874 9.6224908 14.963447 9.8183594 14.767578 L 11.585938 13 L 9.8183594 11.232422 C 9.6224908 11.036553 9.6224908 10.72126 9.8183594 10.525391 L 10.525391 9.8183594 C 10.623325 9.7204251 10.751097 9.671875 10.878906 9.671875 z " style="opacity: 1; fill: #000000; fill-opacity: 1; stroke: none; stroke-width: 1; stroke-linecap: round; stroke-linejoin: round; stroke-miterlimit: 4; stroke-dasharray: none; stroke-dashoffset: 0; stroke-opacity: 1;" />
</svg>