<svg width="26" height="26" viewBox="0 0 26 26" xmlns="http://www.w3.org/2000/svg">
<path d="M 3.5,5.5000203 V 20.50002 H 10 l 3,3.000001 3,-3.000001 h 6.5 V 5.5000203 Z" style="fill: none; stroke: #000000; stroke-width: 1px; stroke-linecap: round; stroke-linejoin: round; stroke-opacity: 1;" />
<path d="m 18,8.9999993 c -3,0 -4,1.9999997 -4,4.9999997 v 2 c 0,0.554 0.446,1 1,1 h 2 c 0.554,0 1,-0.446 1,-1 v -2 c 0,-0.554 -0.446,-1 -1,-1 H 15.726562 C 15.259985,10.775347 16.241925,9.9999993 18,9.9999993 Z m -6,0 c -3,0 -4,1.9999997 -4,4.9999997 v 2 c 0,0.554 0.446,1 1,1 h 2 c 0.554,0 1,-0.446 1,-1 v -2 c 0,-0.554 -0.446,-1 -1,-1 H 9.726562 C 9.259985,10.775347 10.241925,9.9999993 12,9.9999993 Z" style="opacity: 1; fill: #000000; fill-opacity: 1; stroke: none; stroke-width: 2; stroke-linecap: butt; stroke-linejoin: miter; stroke-miterlimit: 4; stroke-dasharray: none; stroke-dashoffset: 2.79999995; stroke-opacity: 1;" />
</svg>