<svg width="26" height="26" viewBox="0 0 26 26" xmlns="http://www.w3.org/2000/svg">
<path d="m 3.5,5.5 0,15 6.5,0 3,3 3,-3 6.5,0 0,-15 z" style="opacity: 1; fill: none; fill-opacity: 1; stroke: #000000; stroke-width: 1; stroke-linecap: round; stroke-linejoin: round; stroke-miterlimit: 4; stroke-dasharray: none; stroke-dashoffset: 0; stroke-opacity: 1;" />
<path d="M 12.5 9 C 12.223 9 12 9.223 12 9.5 L 12 12 L 9.5 12 C 9.223 12 9 12.223 9 12.5 L 9 13.5 C 9 13.777 9.223 14 9.5 14 L 12 14 L 12 16.5 C 12 16.777 12.223 17 12.5 17 L 13.5 17 C 13.777 17 14 16.777 14 16.5 L 14 14 L 16.5 14 C 16.777 14 17 13.777 17 13.5 L 17 12.5 C 17 12.223 16.777 12 16.5 12 L 14 12 L 14 9.5 C 14 9.223 13.777 9 13.5 9 L 12.5 9 z " style="opacity: 1; fill: #000000; fill-opacity: 1; stroke: none; stroke-width: 1; stroke-linecap: butt; stroke-linejoin: round; stroke-miterlimit: 4; stroke-dasharray: none; stroke-dashoffset: 0; stroke-opacity: 1;" />
</svg>