<svg width="26" height="26" viewBox="0 0 26 26" xmlns="http://www.w3.org/2000/svg">
<path d="m 3.5,5.5 v 15 H 10 l 3,3 3,-3 h 6.5 v -15 z" style="fill: none; stroke: #000000; stroke-width: 1px; stroke-linecap: round; stroke-linejoin: round; stroke-opacity: 1;" />
<path d="M 12.5 8 C 11.671573 8 11 8.6715729 11 9.5 C 11 10.328428 11.671573 11 12.5 11 C 13.328428 11 14 10.328428 14 9.5 C 14 8.6715729 13.328428 8 12.5 8 z M 10.5 12 C 10.223 12 10 12.5 10 12.5 L 10 13.5 C 10 13.5 10.223 14 10.5 14 L 12 14 L 12 16 L 10.5 16 C 10.223 16 10 16.223 10 16.5 L 10 17.5 C 10 17.777 10.223 18 10.5 18 L 15.5 18 C 15.777 18 16 17.777 16 17.5 L 16 16.5 C 16 16.223 15.777 16 15.5 16 L 14 16 L 14 12.5 C 14 12.5 13.777 12 13.5 12 L 10.5 12 z " style="opacity: 1; fill: #000000; fill-opacity: 1; stroke: none; stroke-width: 1; stroke-linecap: round; stroke-linejoin: round; stroke-miterlimit: 4; stroke-dasharray: none; stroke-dashoffset: 0; stroke-opacity: 1;" />
</svg>