<svg width="26" height="26" viewBox="0 0 26 26" xmlns="http://www.w3.org/2000/svg">
<path d="M 3.5 5 A 0.50005 0.50005 0 0 0 3 5.5 L 3 20.5 A 0.50005 0.50005 0 0 0 3.5 21 L 9.7929688 21 L 12.646484 23.853516 A 0.50005 0.50005 0 0 0 13.353516 23.853516 L 16.207031 21 L 22.5 21 A 0.50005 0.50005 0 0 0 23 20.5 L 23 5.5 A 0.50005 0.50005 0 0 0 22.5 5 L 3.5 5 z M 6.5 8 L 19.5 8 A 0.50005 0.50005 0 1 1 19.5 9 L 6.5 9 A 0.50005 0.50005 0 1 1 6.5 8 z M 6.5 11 L 19.5 11 A 0.50005 0.50005 0 1 1 19.5 12 L 6.5 12 A 0.50005 0.50005 0 1 1 6.5 11 z M 6.5 14 L 19.5 14 A 0.50005 0.50005 0 1 1 19.5 15 L 6.5 15 A 0.50005 0.50005 0 1 1 6.5 14 z M 6.5 17 L 14.5 17 A 0.50005 0.50005 0 1 1 14.5 18 L 6.5 18 A 0.50005 0.50005 0 1 1 6.5 17 z " style="opacity: 1; fill: #000000; fill-opacity: 1; stroke: none; stroke-width: 1; stroke-linecap: round; stroke-linejoin: round; stroke-miterlimit: 4; stroke-dasharray: none; stroke-dashoffset: 0; stroke-opacity: 1;" />
</svg>