<svg width="26" height="26" viewBox="0 0 26 26" xmlns="http://www.w3.org/2000/svg">
<path d="m 3.5,5.0000913 a 0.50005,0.50005 0 0 0 -0.5,0.5 V 20.500091 a 0.50005,0.50005 0 0 0 0.5,0.5 h 6.29297 l 2.85351,2.853516 a 0.50005,0.50005 0 0 0 0.70704,0 l 2.85351,-2.853516 H 22.5 a 0.50005,0.50005 0 0 0 0.5,-0.5 V 5.5000913 a 0.50005,0.50005 0 0 0 -0.5,-0.5 z M 13,8.0000915 a 2.5,3 0 0 1 2.5,2.9999995 2.5,3 0 0 1 -2.5,3 2.5,3 0 0 1 -2.5,-3 2.5,3 0 0 1 2.5,-2.9999995 z m -2.5,5.9999995 c 0.6157,0.713035 1.63796,0.9985 2.5,1 0.86271,-3.8e-4 1.88356,-0.286724 2.5,-1 1.14099,0.468281 2.2,1.899998 2.5,4 H 8 c 0.3,-2.100002 1.35768,-3.53216 2.5,-4 z" style="opacity: 1; fill: #000000; fill-opacity: 1; stroke: none; stroke-width: 1px; stroke-linecap: round; stroke-linejoin: round; stroke-miterlimit: 4; stroke-dasharray: none; stroke-dashoffset: 0; stroke-opacity: 1;" />
</svg>