<svg width="26" height="26" viewBox="0 0 26 26" xmlns="http://www.w3.org/2000/svg">
<path d="m 3.5,5.5 0,15 6.5,0 3,3 3,-3 6.5,0 0,-15 z" style="opacity: 1; fill: none; fill-opacity: 1; stroke: #000000; stroke-width: 1; stroke-linecap: round; stroke-linejoin: round; stroke-miterlimit: 4; stroke-dasharray: none; stroke-dashoffset: 0; stroke-opacity: 1;" />
<path d="m 15.474874,9.8180195 c -0.195869,-0.1958686 -0.511238,-0.1958686 -0.707107,0 L 13,11.585786 11.232233,9.8180195 c -0.195869,-0.1958686 -0.511238,-0.1958686 -0.707107,0 L 9.8180195,10.525126 c -0.1958686,0.195869 -0.1958686,0.511238 0,0.707107 L 11.585786,13 9.8180195,14.767767 c -0.1958686,0.195869 -0.1958686,0.511238 0,0.707107 l 0.7071065,0.707107 c 0.195869,0.195868 0.511238,0.195868 0.707107,0 L 13,14.414214 l 1.767767,1.767767 c 0.195869,0.195868 0.511238,0.195868 0.707107,0 l 0.707107,-0.707107 c 0.195868,-0.195869 0.195868,-0.511238 0,-0.707107 L 14.414214,13 16.181981,11.232233 c 0.195868,-0.195869 0.195868,-0.511238 0,-0.707107 L 15.474874,9.8180195 Z" style="opacity: 1; fill: #000000; fill-opacity: 1; stroke: none; stroke-width: 1; stroke-linecap: butt; stroke-linejoin: round; stroke-miterlimit: 4; stroke-dasharray: none; stroke-dashoffset: 0; stroke-opacity: 1;" />
</svg>