<svg width="26" height="26" viewBox="0 0 26 26" xmlns="http://www.w3.org/2000/svg">
<path d="m 3.5,5.5 0,15 6.5,0 3,3 3,-3 6.5,0 0,-15 z" style="opacity: 1; fill: none; fill-opacity: 1; stroke: #000000; stroke-width: 1; stroke-linecap: round; stroke-linejoin: round; stroke-miterlimit: 4; stroke-dasharray: none; stroke-dashoffset: 0; stroke-opacity: 1;" />
<path d="M 9.5,12 C 9.223,12 9,12.223 9,12.5 l 0,1 C 9,13.777 9.223,14 9.5,14 l 1,0 c 0.277,0 0.5,-0.223 0.5,-0.5 l 0,-1 C 11,12.223 10.777,12 10.5,12 l -1,0 z m 3,0 C 12.223,12 12,12.223 12,12.5 l 0,1 c 0,0.277 0.223,0.5 0.5,0.5 l 1,0 c 0.277,0 0.5,-0.223 0.5,-0.5 l 0,-1 C 14,12.223 13.777,12 13.5,12 l -1,0 z m 3,0 C 15.223,12 15,12.223 15,12.5 l 0,1 c 0,0.277 0.223,0.5 0.5,0.5 l 1,0 c 0.277,0 0.5,-0.223 0.5,-0.5 l 0,-1 C 17,12.223 16.777,12 16.5,12 l -1,0 z" style="opacity: 1; fill: #000000; fill-opacity: 1; stroke: none; stroke-width: 1; stroke-linecap: butt; stroke-linejoin: round; stroke-miterlimit: 4; stroke-dasharray: none; stroke-dashoffset: 0; stroke-opacity: 1;" />
</svg>