<svg width="26" height="26" viewBox="0 0 26 26" xmlns="http://www.w3.org/2000/svg">
<path d="M 3.5 5 A 0.50005 0.50005 0 0 0 3 5.5 L 3 20.5 A 0.50005 0.50005 0 0 0 3.5 21 L 9.7929688 21 L 12.646484 23.853516 A 0.50005 0.50005 0 0 0 13.353516 23.853516 L 16.207031 21 L 22.5 21 A 0.50005 0.50005 0 0 0 23 20.5 L 23 5.5 A 0.50005 0.50005 0 0 0 22.5 5 L 3.5 5 z M 12.5 7.625 C 14.25 7.625 16 8.5833333 16 10.5 C 16 11.833333 15.207031 12.707031 14.707031 13.207031 C 14.207031 13.707031 14 13.833333 14 14.5 C 14 14.824595 13.777 15 13.5 15 L 12.5 15 C 12.223 15 12 14.777 12 14.5 C 12 13.166667 12.792969 12.292969 13.292969 11.792969 C 13.792969 11.292969 14 11.166667 14 10.5 C 14 9.3333333 11 9.3333333 11 10.5 C 11 10.824595 10.777 11 10.5 11 L 9.5 11 C 9.223 11 9 10.777 9 10.5 C 9 8.5833333 10.75 7.625 12.5 7.625 z M 12.5 16 L 13.5 16 C 13.777 16 14 16.223 14 16.5 L 14 17.5 C 14 17.777 13.777 18 13.5 18 L 12.5 18 C 12.223 18 12 17.777 12 17.5 L 12 16.5 C 12 16.223 12.223 16 12.5 16 z " style="opacity: 1; fill: #000000; fill-opacity: 1; stroke: none; stroke-width: 1; stroke-linecap: round; stroke-linejoin: round; stroke-miterlimit: 4; stroke-dasharray: none; stroke-dashoffset: 0; stroke-opacity: 1;" />
</svg>