<svg width="26" height="26" viewBox="0 0 26 26" xmlns="http://www.w3.org/2000/svg">
<path d="M 3.5 5 A 0.50005 0.50005 0 0 0 3 5.5 L 3 20.5 A 0.50005 0.50005 0 0 0 3.5 21 L 9.7929688 21 L 12.646484 23.853516 A 0.50005 0.50005 0 0 0 13.353516 23.853516 L 16.207031 21 L 22.5 21 A 0.50005 0.50005 0 0 0 23 20.5 L 23 5.5 A 0.50005 0.50005 0 0 0 22.5 5 L 3.5 5 z M 9.5 12 L 10.5 12 C 10.777 12 11 12.223 11 12.5 L 11 13.5 C 11 13.777 10.777 14 10.5 14 L 9.5 14 C 9.223 14 9 13.777 9 13.5 L 9 12.5 C 9 12.223 9.223 12 9.5 12 z M 12.5 12 L 13.5 12 C 13.777 12 14 12.223 14 12.5 L 14 13.5 C 14 13.777 13.777 14 13.5 14 L 12.5 14 C 12.223 14 12 13.777 12 13.5 L 12 12.5 C 12 12.223 12.223 12 12.5 12 z M 15.5 12 L 16.5 12 C 16.777 12 17 12.223 17 12.5 L 17 13.5 C 17 13.777 16.777 14 16.5 14 L 15.5 14 C 15.223 14 15 13.777 15 13.5 L 15 12.5 C 15 12.223 15.223 12 15.5 12 z " style="opacity: 1; fill: #000000; fill-opacity: 1; stroke: none; stroke-width: 1; stroke-linecap: butt; stroke-linejoin: round; stroke-miterlimit: 4; stroke-dasharray: none; stroke-dashoffset: 0; stroke-opacity: 1;" />
</svg>