<svg width="26" height="26" viewBox="0 0 26 26" xmlns="http://www.w3.org/2000/svg">
<path d="M 3.5 5 A 0.50005 0.50005 0 0 0 3 5.5 L 3 20.5 A 0.50005 0.50005 0 0 0 3.5 21 L 9.7929688 21 L 12.646484 23.853516 A 0.50005 0.50005 0 0 0 13.353516 23.853516 L 16.207031 21 L 22.5 21 A 0.50005 0.50005 0 0 0 23 20.5 L 23 5.5 A 0.50005 0.50005 0 0 0 22.5 5 L 3.5 5 z M 12.5 8 C 13.328428 8 14 8.6715729 14 9.5 C 14 10.328428 13.328428 11 12.5 11 C 11.671573 11 11 10.328428 11 9.5 C 11 8.6715729 11.671573 8 12.5 8 z M 10.5 12 L 13.5 12 C 13.777 12 14 12.5 14 12.5 L 14 16 L 15.5 16 C 15.777 16 16 16.223 16 16.5 L 16 17.5 C 16 17.777 15.777 18 15.5 18 L 10.5 18 C 10.223 18 10 17.777 10 17.5 L 10 16.5 C 10 16.223 10.223 16 10.5 16 L 12 16 L 12 14 L 10.5 14 C 10.223 14 10 13.5 10 13.5 L 10 12.5 C 10 12.5 10.223 12 10.5 12 z " style="opacity: 1; fill: #000000; fill-opacity: 1; stroke: none; stroke-width: 1px; stroke-linecap: round; stroke-linejoin: round; stroke-miterlimit: 4; stroke-dasharray: none; stroke-dashoffset: 0; stroke-opacity: 1;" />
</svg>