<svg width="26" height="26" viewBox="0 0 26 26" xmlns="http://www.w3.org/2000/svg">
<path d="m 21.146484,2.1476841 -2,1.999821 c -0.19518,0.195252 -0.19518,0.511726 0,0.706968 l 2,1.99982 c 0.19527,0.1951735 0.511772,0.1951735 0.707032,0 l 2,-1.99982 c 0.19519,-0.195242 0.19519,-0.511716 0,-0.706968 l -2,-1.999821 c -0.205166,-0.218735 -0.541015,-0.173812 -0.707032,0 z m -4,3.999641 -4,3.9997309 c -0.19518,0.195253 -0.19518,0.511716 0,0.706969 l 2,1.999819 c 0.19527,0.195162 0.511772,0.195162 0.707032,0 l 4,-3.9997304 c 0.19519,-0.195252 0.19519,-0.511716 0,-0.706968 l -2,-1.9998205 c -0.244229,-0.253889 -0.463436,-0.210919 -0.707032,0 z M 12.052734,11.277814 11,13.75 12.25,15 14.722656,13.947493 c 0.30552,-0.152276 0.37201,-0.559111 0.13086,-0.80071 l -2,-1.999819 c -0.292958,-0.261005 -0.715409,-0.09123 -0.800782,0.130848 z M 10.75,14.25 10,16 11.75,15.25 Z M 3.5,5.000096 c -0.276131,2.76e-5 -0.499972,0.2238691 -0.5,0.5 v 14.999999 c 2.8e-5,0.276131 0.223869,0.499972 0.5,0.5 h 6.292969 l 2.853515,2.853516 c 0.195265,0.195185 0.511767,0.195185 0.707032,0 l 2.853515,-2.853516 H 22.5 c 0.276131,-2.8e-5 0.499972,-0.223869 0.5,-0.5 V 10.121189 l -3.925781,3.925781 c -0.2921,0.30421 -0.743651,0.4895 -1.150391,0.46875 0,0 -1.423828,-0.515625 -2.923828,0.484375 l -5.052734,2.394531 c -0.85967,0.42989 -1.771687,-0.482127 -1.341797,-1.341797 l 2.552734,-5.220703 5.769531,-5.8320306 z" style="opacity: 1; fill: #000000; fill-opacity: 1; stroke: none; stroke-width: 1px; stroke-linecap: round; stroke-linejoin: miter; stroke-miterlimit: 4; stroke-dasharray: none; stroke-dashoffset: 0; stroke-opacity: 1;" />
<path d="M 18.5,5.5000001 22,9.0000006 18,13" style="fill: none; stroke: #000000; stroke-width: 1px; stroke-linecap: round; stroke-linejoin: round; stroke-opacity: 1;" />
</svg>