<svg width="26" height="26" viewBox="0 0 26 26" xmlns="http://www.w3.org/2000/svg">
<path d="M 21.007812 5.5 C 20.88132 5.4935503 20.748463 5.541581 20.630859 5.6640625 C 17.336754 8.9581675 16.583984 8.8886719 16.583984 8.8886719 L 14.851562 7.1542969 C 14.537126 6.8400779 14.000173 7.0632865 14 7.5078125 L 14 12.5 C 14.000028 12.775639 14.224361 12.999972 14.5 13 L 19.492188 13 C 19.936713 12.999826 20.159921 12.462874 19.845703 12.148438 L 18.111328 10.416016 C 18.111328 10.416016 18.052319 9.6527576 21.335938 6.3691406 C 21.703382 6.0163294 21.38729 5.519349 21.007812 5.5 z M 7.5078125 14 C 7.0632865 14.000174 6.8400789 14.537126 7.1542969 14.851562 L 8.8886719 16.583984 C 8.8886719 16.583984 8.7601765 17.534758 5.6640625 20.630859 C 5.1741365 21.101274 5.8987246 21.825863 6.3691406 21.335938 C 9.5069956 18.198083 10.416016 18.111328 10.416016 18.111328 L 12.148438 19.845703 C 12.462874 20.159922 12.999827 19.936713 13 19.492188 L 13 14.5 C 12.999972 14.224361 12.775639 14.000028 12.5 14 L 7.5078125 14 z " style="opacity: 1; fill: #000000; fill-opacity: 1; stroke: none; stroke-width: 1px; stroke-linecap: butt; stroke-linejoin: round; stroke-miterlimit: 4; stroke-dasharray: none; stroke-dashoffset: 0; stroke-opacity: 1;" />
</svg>