<svg width="26" height="26" viewBox="0 0 26 26" xmlns="http://www.w3.org/2000/svg">
<path d="m 5.9920953,5.5 c 0.126492,-0.00645 0.259349,0.041581 0.376953,0.1640625 3.294105,3.294105 4.0468747,3.2246094 4.0468747,3.2246094 l 1.732422,-1.734375 c 0.314436,-0.314219 0.851389,-0.09101 0.851562,0.3535156 V 12.5 c -2.8e-5,0.275639 -0.224361,0.499972 -0.5,0.5 H 7.5077193 c -0.444525,-1.74e-4 -0.667733,-0.537126 -0.353515,-0.851562 l 1.734375,-1.732422 c 0,0 0.059009,-0.7632584 -3.22461,-4.0468754 C 5.2965253,6.0163294 5.6126173,5.519349 5.9920953,5.5 Z M 19.492095,14 c 0.444526,1.74e-4 0.667733,0.537126 0.353515,0.851562 l -1.734375,1.732422 c 0,0 0.128496,0.950774 3.22461,4.046875 0.489926,0.470415 -0.234662,1.195004 -0.705078,0.705079 -3.137855,-3.137855 -4.046876,-3.22461 -4.046876,-3.22461 l -1.732422,1.734375 c -0.314436,0.314219 -0.851389,0.09101 -0.851562,-0.353515 V 14.5 c 2.8e-5,-0.275639 0.224361,-0.499972 0.5,-0.5 z" style="opacity: 1; fill: #000000; fill-opacity: 1; stroke: none; stroke-width: 1px; stroke-linecap: butt; stroke-linejoin: round; stroke-miterlimit: 4; stroke-dasharray: none; stroke-dashoffset: 0; stroke-opacity: 1;" />
</svg>