<svg width="26" height="26" viewBox="0 0 26 26" xmlns="http://www.w3.org/2000/svg">
<path d="M 6.5,7 C 6.223869,7.000027 6.000028,7.223869 6,7.5 V 8 h 14.5 c 0.276131,2.7e-5 0.499972,0.223869 0.5,0.5 V 18 h 0.5 c 0.276131,-2.8e-5 0.499972,-0.223869 0.5,-0.5 V 7.5 C 21.999972,7.223869 21.776131,7.000027 21.5,7 Z m -2,2 A 0.50005,0.50005 0 0 0 4,9.5 V 11 H 20 V 9.5 A 0.50005,0.50005 0 0 0 19.5,9 Z M 4,13 v 6.5 A 0.50005,0.50005 0 0 0 4.5,20 h 15 A 0.50005,0.50005 0 0 0 20,19.5 V 13 Z m 11.5,2 h 2 c 0.277,0 0.5,0.223 0.5,0.5 v 2 c 0,0.277 -0.223,0.5 -0.5,0.5 h -2 C 15.223,18 15,17.777 15,17.5 v -2 C 15,15.223 15.223,15 15.5,15 Z m -9.035156,2 a 0.50005,0.50005 0 0 1 0.03516,0 h 2 a 0.50005,0.50005 0 1 1 0,1 h -2 a 0.50030896,0.50030896 0 0 1 -0.03516,-1 z m 4,0 a 0.50005,0.50005 0 0 1 0.03516,0 h 2 a 0.50005,0.50005 0 1 1 0,1 h -2 a 0.50030896,0.50030896 0 0 1 -0.03516,-1 z" style="opacity: 1; fill: #000000; fill-opacity: 1; stroke: none; stroke-width: 1; stroke-linecap: round; stroke-linejoin: round; stroke-miterlimit: 4; stroke-dasharray: none; stroke-dashoffset: 0; stroke-opacity: 1;" />
</svg>