<svg width="26" height="26" viewBox="0 0 26 26" xmlns="http://www.w3.org/2000/svg">
<path d="M 3.5,6 C 3.223869,6.0000276 3.000028,6.2238691 3,6.5 L 3,8 23,8 23,6.5 C 22.999972,6.2238691 22.776131,6.0000276 22.5,6 Z M 3,11 3,19.5 c 2.8e-5,0.276131 0.223869,0.499972 0.5,0.5 l 19,0 c 0.276131,-2.8e-5 0.499972,-0.223869 0.5,-0.5 L 23,11 Z m 14.5,3 3,0 c 0.277,0 0.5,0.223 0.5,0.5 l 0,3 c 0,0.277 -0.223,0.5 -0.5,0.5 l -3,0 C 17.223,18 17,17.777 17,17.5 l 0,-3 C 17,14.223 17.223,14 17.5,14 Z m -12,3 2,0 c 0.676161,-0.0096 0.676161,1.009563 0,1 l -2,0 c -0.676161,0.0096 -0.676161,-1.009563 0,-1 z m 4,0 2,0 c 0.676161,-0.0096 0.676161,1.009563 0,1 l -2,0 c -0.676161,0.0096 -0.676161,-1.009563 0,-1 z" style="opacity: 1; fill: #000000; fill-opacity: 1; stroke: none; stroke-width: 0.99999994; stroke-linecap: round; stroke-linejoin: round; stroke-miterlimit: 4; stroke-dasharray: none; stroke-dashoffset: 0; stroke-opacity: 1;" />
</svg>