<svg width="26" height="26" viewBox="0 0 26 26" xmlns="http://www.w3.org/2000/svg">
<path d="m 12.984375,5.9998054 c -0.05617,0.0018 -0.111629,0.013 -0.164063,0.0332 l -6.499999,2.5 C 6.127261,8.6073684 5.999931,8.7929284 6,8.9998054 v 7.9999996 c -6.9e-5,0.206877 0.127261,0.392438 0.320313,0.466797 l 6.499999,2.5 c 0.115653,0.04453 0.243723,0.04453 0.359376,0 l 6.5,-2.5 C 19.872739,17.392243 20.000069,17.206682 20,16.999805 V 8.9998054 c 6.9e-5,-0.206877 -0.127261,-0.392437 -0.320312,-0.466797 l -6.5,-2.5 c -0.06224,-0.023983 -0.128646,-0.035272 -0.195313,-0.033203 z M 7.474609,8.9978524 13,10.968555 18.330078,9.0291024 c 0.627604,-0.226563 0.967448,0.714843 0.339844,0.941406 L 13.5,11.851368 v 6.648437 c 0.0096,0.676161 -1.009563,0.676161 -1,0 V 11.851368 L 7.330078,9.9705084 C 6.805691,9.7903824 6.920504,9.0177204 7.474609,8.9978524 Z" style="opacity: 1; fill: #000000; fill-opacity: 1; stroke: none; stroke-width: 1px; stroke-linecap: round; stroke-linejoin: round; stroke-miterlimit: 4; stroke-dasharray: none; stroke-dashoffset: 0; stroke-opacity: 1;" />
</svg>