<svg width="26" height="26" viewBox="0 0 26 26" xmlns="http://www.w3.org/2000/svg">
<path d="M 6.5,6 C 6.223,6 6,6.223 6,6.5 v 13 C 6,19.777 6.223,20 6.5,20 h 13 C 19.777,20 20,19.777 20,19.5 V 6.5 C 20,6.223 19.777,6 19.5,6 Z m 2,2 c 7,0 9.5,5.5 9.5,9.5 0,0.277 -0.223,0.5 -0.5,0.5 h -1 C 16.223,18 16,17.777 16,17.5 16,13 13,10 8.5,10 8.223,10 8,9.777 8,9.5 v -1 C 8,8.223 8.223,8 8.5,8 Z m 0,4 c 4,0 5.5,2.5 5.5,5.5 0,0.277 -0.223,0.5 -0.5,0.5 h -1 C 12.223,18 12,17.777 12,17.5 12,15.5 11,14 8.5,14 8.223,14 8,13.777 8,13.5 v -1 C 8,12.223 8.223,12 8.5,12 Z M 9,16 c 0.552285,0 1,0.447715 1,1 0,0.552285 -0.447715,1 -1,1 -0.552284,0 -1,-0.447715 -1,-1 0,-0.552285 0.447716,-1 1,-1 z" style="opacity: 1; fill: #000000; fill-opacity: 1; stroke: none; stroke-width: 1; stroke-linecap: round; stroke-linejoin: round; stroke-miterlimit: 4; stroke-dasharray: 1, 1; stroke-dashoffset: 0; stroke-opacity: 1;" />
</svg>