<svg width="26" height="26" viewBox="0 0 26 26" xmlns="http://www.w3.org/2000/svg">
<rect x="4.5" y="4.4999981" width="6" height="6" style="opacity: 1; fill: none; fill-opacity: 1; stroke: #000000; stroke-width: 1; stroke-linecap: butt; stroke-linejoin: round; stroke-miterlimit: 4; stroke-dasharray: none; stroke-dashoffset: 2.79999995; stroke-opacity: 1;" />
<rect x="15.5" y="4.4999981" width="6" height="6" style="opacity: 1; fill: none; fill-opacity: 1; stroke: #000000; stroke-width: 1; stroke-linecap: butt; stroke-linejoin: round; stroke-miterlimit: 4; stroke-dasharray: none; stroke-dashoffset: 2.79999995; stroke-opacity: 1;" />
<rect x="4.5" y="15.5" width="6" height="6" style="opacity: 1; fill: none; fill-opacity: 1; stroke: #000000; stroke-width: 1; stroke-linecap: butt; stroke-linejoin: round; stroke-miterlimit: 4; stroke-dasharray: none; stroke-dashoffset: 2.79999995; stroke-opacity: 1;" />
<path d="m 12.000001,3.9999987 v 1 h 1 v -1 z m 1,1 v 1 h 1 v -1 z m 0,1 h -1 v 1 h 1 z m 0,1 v 1 h 1 v -1 z m -6.5000002,-1 c -0.277,0 -0.5,0.223 -0.5,0.5 v 2 c 0,0.277 0.223,0.5 0.5,0.5 h 2 c 0.277,0 0.5,-0.223 0.5,-0.5 v -2 c 0,-0.277 -0.223,-0.5 -0.5,-0.5 z m 11.0000002,0 c -0.277,0 -0.5,0.223 -0.5,0.5 v 2 c 0,0.277 0.223,0.5 0.5,0.5 h 2 c 0.277,0 0.5,-0.223 0.5,-0.5 v -2 c 0,-0.277 -0.223,-0.5 -0.5,-0.5 z m -5.5,3 v 1 h 1 v -1 z m 0,2.0000003 v 1 h 1 v -1 z m 0,1 h -1 v 1 h 1 z m 0,1 v 1 h 1 v -1 z m -1,0 h -1 v 1 h 1 z m -1,0 v -1 H 9.0000008 v 1 z m -6.0000002,-1 v 1 h 1 v -1 z m 3,0 v 1 h 1 v -1 z m 0,1 h -1 v 1 h 1 z m 8.5000002,-1 v 1 h 1 v -1 z m 4.5,0 v 1 h 1 v -1 z m 1,1 v 1 h 1 v -1 z m -4,0 v 1 h 1 v -1 z m -2,1 v 2 h 1 v -2 z m 1,2 v 1 h 1 v -1 z m 3,-2 v 1 h 1 v -1 z m -7,1 v 1 h 1 v -1 z m 1,1 v 1 h 1 v -1 z m 8,-1 v 1 h 1 v -1 z m 0,1 h -1 v 1 h 1 z m -3,0 v 1 h 1 v -1 z m -11.5000002,1 c -0.277,0 -0.5,0.223 -0.5,0.5 v 2 c 0,0.277 0.223,0.5 0.5,0.5 h 2 c 0.277,0 0.5,-0.223 0.5,-0.5 v -2 c 0,-0.277 -0.223,-0.5 -0.5,-0.5 z m 5.5000002,1 v 1 h 1 v -1 z m 1,1 v 1 h 2 v -1 z m 2,0 h 1 v -1 h -1 z m -2,1 h -1 v 1 h 1 z m 0,1 v 1 h 1 v -1 z m 5,-3 v 1 h 1 v -1 z m 0,1 h -1 v 2 h 1 z m 0,2 v 1 h 1 v -1 z m -1,0 h -1 v 1 h 1 z m 4,-3 v 1 h 1 v -1 z m 0,2 v 1 h 1 v -1 z m 0,1 h -1 v 1 h 1 z" style="opacity: 1; fill: #000000; fill-opacity: 1; stroke: none; stroke-width: 1; stroke-linecap: butt; stroke-linejoin: round; stroke-miterlimit: 4; stroke-dasharray: none; stroke-dashoffset: 2.79999995; stroke-opacity: 1;" />
</svg>