<svg width="26" height="26" viewBox="0 0 26 26" xmlns="http://www.w3.org/2000/svg">
<path d="m 5,19 v 1 m 14,-1 v 1 m -5,-1 v 1 M 5,7 V 18 M 19,7 V 18 M 14,7 v 11" style="fill: none; stroke: #000000; stroke-width: 2; stroke-linecap: butt; stroke-linejoin: miter; stroke-miterlimit: 4; stroke-dasharray: none; stroke-opacity: 1;" />
<path d="m 10.5,19 v 1 m 11,-1 v 1 M 16,19 v 1 M 7.5,19 v 1 m 3,-13 V 18 M 21.5,7 V 18 M 16,7 V 18 M 7.5,7 v 11" style="fill: none; stroke: #000000; stroke-width: 1px; stroke-linecap: butt; stroke-linejoin: miter; stroke-opacity: 1;" />
<path d="m 17,19 v 1 m -5,-1 v 1 M 9,19 v 1 M 17,7 V 18 M 12,7 V 18 M 9,7 v 11" style="fill: none; stroke: #000000; stroke-width: 0.5; stroke-linecap: butt; stroke-linejoin: miter; stroke-miterlimit: 4; stroke-dasharray: none; stroke-opacity: 1;" />
</svg>