<svg width="26" height="26" viewBox="0 0 26 26" xmlns="http://www.w3.org/2000/svg">
<path d="M 5.5,1 C 5.223,1 5,1.223 5,1.5 l 0,3 C 5,4.777 5.223,5 5.5,5 l 1,0 C 6.777,5 7,4.777 7,4.5 l 0,-3 C 7,1.223 6.777,1 6.5,1 l -1,0 z m 9,0 C 14.223,1 14,1.223 14,1.5 l 0,3 C 14,4.777 14.223,5 14.5,5 l 1,0 C 15.777,5 16,4.777 16,4.5 l 0,-3 C 16,1.223 15.777,1 15.5,1 l -1,0 z M 2.5,3 C 2.223869,3.000028 2.000028,3.223869 2,3.5 l 0,16 c 2.8e-5,0.276131 0.223869,0.499972 0.5,0.5 l 7.634766,0 A 8.5,8.5 0 0 1 10.017578,19 L 3,19 3,8 18,8 18,10.017578 A 8.5,8.5 0 0 1 18.5,10 8.5,8.5 0 0 1 19,10.02539 L 19,3.5 C 18.999972,3.223869 18.776131,3.000028 18.5,3 L 17,3 17,5.5 C 17,5.777 16.777,6 16.5,6 l -3,0 C 13.223,6 13,5.777 13,5.5 L 13,3 8,3 8,5.5 C 8,5.777 7.777,6 7.5,6 l -3,0 C 4.223,6 4,5.777 4,5.5 L 4,3 2.5,3 Z" style="opacity: 1; fill: #000000; fill-opacity: 1; stroke: none; stroke-width: 1; stroke-linecap: round; stroke-linejoin: round; stroke-miterlimit: 4; stroke-dasharray: none; stroke-dashoffset: 0; stroke-opacity: 1;" />
<path d="m 8,10 -3,1 0,1 2,0 0,3.5 -2,0.5 0,1 5,0 0,-1 -2,-0.5 z" style="opacity: 1; fill: #000000; fill-opacity: 1; stroke: none; stroke-width: 1; stroke-linecap: round; stroke-linejoin: round; stroke-miterlimit: 4; stroke-dasharray: none; stroke-dashoffset: 0; stroke-opacity: 1;" />
<path d="m 14,11.25 0,-1.25 -3,1 0,1 2,0" style="opacity: 1; fill: #000000; fill-opacity: 1; stroke: none; stroke-width: 1; stroke-linecap: round; stroke-linejoin: round; stroke-miterlimit: 4; stroke-dasharray: none; stroke-dashoffset: 0; stroke-opacity: 1;" />
<circle cx="18.5" cy="18.5" r="7" style="opacity: 1; fill: none; fill-opacity: 1; stroke: #000000; stroke-width: 1; stroke-linecap: round; stroke-linejoin: round; stroke-miterlimit: 4; stroke-dasharray: none; stroke-dashoffset: 0; stroke-opacity: 1;" />
<path d="m 21.5,18.5 h -2 m -2,-1 L 15,15" style="fill: none; stroke: #000000; stroke-width: 1px; stroke-linecap: round; stroke-linejoin: round; stroke-opacity: 1;" />
<circle cx="18.5" cy="18.5" r="1" style="opacity: 1; fill: none; fill-opacity: 1; stroke: #000000; stroke-width: 1; stroke-linecap: round; stroke-linejoin: round; stroke-miterlimit: 4; stroke-dasharray: none; stroke-dashoffset: 0; stroke-opacity: 1;" />
<circle cx="18.5" cy="23.5" r="0.5" style="opacity: 1; fill: #000000; fill-opacity: 1; stroke: none; stroke-width: 1; stroke-linecap: round; stroke-linejoin: round; stroke-miterlimit: 4; stroke-dasharray: none; stroke-dashoffset: 0; stroke-opacity: 1;" />
<circle cx="18.5" cy="13.5" r="0.5" style="opacity: 1; fill: #000000; fill-opacity: 1; stroke: none; stroke-width: 1; stroke-linecap: round; stroke-linejoin: round; stroke-miterlimit: 4; stroke-dasharray: none; stroke-dashoffset: 0; stroke-opacity: 1;" />
<circle cx="23.5" cy="18.5" r="0.5" style="opacity: 1; fill: #000000; fill-opacity: 1; stroke: none; stroke-width: 1; stroke-linecap: round; stroke-linejoin: round; stroke-miterlimit: 4; stroke-dasharray: none; stroke-dashoffset: 0; stroke-opacity: 1;" />
<circle cx="21.5" cy="15.5" r="0.5" style="opacity: 1; fill: #000000; fill-opacity: 1; stroke: none; stroke-width: 1; stroke-linecap: round; stroke-linejoin: round; stroke-miterlimit: 4; stroke-dasharray: none; stroke-dashoffset: 0; stroke-opacity: 1;" />
<circle cx="21.5" cy="21.5" r="0.5" style="opacity: 1; fill: #000000; fill-opacity: 1; stroke: none; stroke-width: 1; stroke-linecap: round; stroke-linejoin: round; stroke-miterlimit: 4; stroke-dasharray: none; stroke-dashoffset: 0; stroke-opacity: 1;" />
<circle cx="15.5" cy="21.5" r="0.5" style="opacity: 1; fill: #000000; fill-opacity: 1; stroke: none; stroke-width: 1; stroke-linecap: round; stroke-linejoin: round; stroke-miterlimit: 4; stroke-dasharray: none; stroke-dashoffset: 0; stroke-opacity: 1;" />
<circle cx="13.5" cy="18.5" r="0.5" style="opacity: 1; fill: #000000; fill-opacity: 1; stroke: none; stroke-width: 1; stroke-linecap: round; stroke-linejoin: round; stroke-miterlimit: 4; stroke-dasharray: none; stroke-dashoffset: 0; stroke-opacity: 1;" />
</svg>