<svg width="26" height="26" viewBox="0 0 26 26" xmlns="http://www.w3.org/2000/svg">
<path d="M 9.6422767,5.746093 C 9.5094937,5.741993 9.380473,5.789873 9.3024331,5.904296 L 6.0856362,9.623046 4.6969643,8.234374 c -0.195869,-0.19586 -0.5111623,-0.19587 -0.7070312,0 L 3.2829018,8.941405 c -0.195869,0.19586 -0.195869,0.511162 0,0.707031 l 2.4492189,2.449219 c 0.195869,0.19586 0.5111621,0.19586 0.7070311,0 L 10.716496,7.320311 c 0.195869,-0.195869 0.195869,-0.511161 0,-0.707031 L 10.009465,5.904296 C 9.9115296,5.806386 9.7750607,5.750093 9.6422767,5.746093 Z m 0.9121103,3.253906 -2.5546884,2.853516 v 3.646484 c 0,0.277001 0.2230001,0.500001 0.5,0.500001 h 1.0644531 c 0.2279111,-0.882697 1.0239023,-1.49957 1.9355473,-1.500001 0.910917,0.0013 1.705865,0.618007 1.933594,1.500001 h 2.066406 c 0.277,0 0.5,-0.223 0.5,-0.500001 v -6 c 0,-0.277 -0.223,-0.5 -0.5,-0.5 z m 6.945312,1 c -0.276131,2.8e-5 -0.499972,0.223869 -0.5,0.5 v 5 c 2.8e-5,0.276132 0.223869,0.499973 0.5,0.500001 h 1.064453 c 0.227911,-0.882697 1.023902,-1.49957 1.935547,-1.500001 0.836842,0.02251 1.528998,0.451705 2,1.500001 0.277,0 0.5,-0.223 0.5,-0.500001 v -2 l -1.109375,-0.8125 -2,-2.5 c -0.09496,-0.1186 -0.238694,-0.187588 -0.390625,-0.1875 z m 0.5,1 h 1.259766 c 0.264491,0.330688 1.595703,2 1.595703,2 h -2.855469 z m -6.5,4 c -0.828427,0 -1.5000004,0.671573 -1.5000004,1.500001 0,0.828427 0.6715734,1.5 1.5000004,1.5 0.828427,0 1.5,-0.671573 1.5,-1.5 0,-0.828428 -0.671573,-1.500001 -1.5,-1.500001 z m 9,0 c -0.828427,0 -1.5,0.671573 -1.5,1.500001 0,0.828427 0.671573,1.5 1.5,1.5 0.828427,0 1.5,-0.671573 1.5,-1.5 0,-0.828428 -0.671573,-1.500001 -1.5,-1.500001 z" style="opacity: 1; fill: #000000; fill-opacity: 1; stroke: none; stroke-width: 1px; stroke-linecap: butt; stroke-linejoin: round; stroke-miterlimit: 4; stroke-dasharray: none; stroke-dashoffset: 0; stroke-opacity: 1;" />
</svg>