<svg width="26" height="26" viewBox="0 0 26 26" xmlns="http://www.w3.org/2000/svg">
<path d="m 12,9 v 2.5 C 12,11.777 11.777,12 11.5,12 H 8 v 3.5 C 8,15.777 8.223,16 8.5,16 H 9.5644531 C 9.7923641,15.117304 10.588355,14.500431 11.5,14.5 c 0.910918,0.0013 1.705865,0.618007 1.933594,1.5 H 15.5 c 0.277,0 0.5,-0.223 0.5,-0.5 v -6 C 16,9.223 15.777,9 15.5,9 Z m 5.5,1 c -0.276131,2.8e-5 -0.499972,0.223869 -0.5,0.5 v 5 c 2.8e-5,0.276131 0.223869,0.499972 0.5,0.5 h 1.064453 c 0.227911,-0.882696 1.023902,-1.499569 1.935547,-1.5 0.836842,0.02251 1.643735,0.46553 2,1.5 0.277,0 0.5,-0.223 0.5,-0.5 v -2 l -1.109375,-0.8125 -2,-2.5 C 19.795665,10.0689 19.651931,9.999912 19.5,10 Z M 3.5,9 C 3.223,9 3,9.223 3,9.5 v 1 C 3,10.777 3.223,11 3.5,11 h 7 c 0.277,0 0.5,-0.223 0.5,-0.5 v -1 C 11,9.223 10.777,9 10.5,9 Z M 18,11 h 1.259766 c 0.264491,0.330688 1.595703,2 1.595703,2 H 18 Z m -6.5,4 C 10.671573,15 10,15.671573 10,16.5 10,17.328427 10.671573,18 11.5,18 12.328427,18 13,17.328427 13,16.5 13,15.671573 12.328427,15 11.5,15 Z m 9,0 C 19.671573,15 19,15.671573 19,16.5 19,17.328427 19.671573,18 20.5,18 21.328427,18 22,17.328427 22,16.5 22,15.671573 21.328427,15 20.5,15 Z" style="opacity: 1; fill: #000000; fill-opacity: 1; stroke: none; stroke-width: 1px; stroke-linecap: butt; stroke-linejoin: round; stroke-miterlimit: 4; stroke-dasharray: none; stroke-dashoffset: 0; stroke-opacity: 1;" />
</svg>