<svg width="26" height="26" viewBox="0 0 26 26" xmlns="http://www.w3.org/2000/svg">
<path d="m 4.8784764,6.671876 c -0.1278119,0 -0.2555916,0.04855 -0.3535239,0.146484 l -0.707048,0.707032 c -0.1958726,0.19586 -0.1958726,0.511161 0,0.707031 l 1.76762,1.767578 -1.76762,1.767578 c -0.1958726,0.19587 -0.1958726,0.511171 0,0.707031 l 0.707048,0.707032 c 0.1958736,0.19587 0.5111744,0.19587 0.707048,0 l 1.76762,-1.767579 1.76762,1.767579 c 0.1958736,0.19587 0.511174,0.19587 0.7070477,0 L 10.181337,12.47461 c 0.195873,-0.19586 0.195873,-0.511161 0,-0.707031 L 8.4137165,10.000001 10.181337,8.232423 c 0.195873,-0.19587 0.195873,-0.511171 0,-0.707031 L 9.4742882,6.81836 c -0.1958737,-0.19587 -0.5111741,-0.19587 -0.7070477,0 L 6.9996205,8.585938 5.2320005,6.81836 C 5.1340632,6.72043 5.0062896,6.671876 4.8784764,6.671876 Z m 6.5353116,2.328125 -1.000024,1 1.767621,1.767578 c 0.195872,0.19587 0.195872,0.511171 0,0.707031 l -2.7070968,2.707032 c -0.1958737,0.19587 -0.5111741,0.19587 -0.7070477,0 L 7.9996442,14.414063 v 1.085938 c 0,0.277 0.2230053,0.5 0.5000119,0.5 h 1.0644782 c 0.2279164,-0.882696 1.0239267,-1.499569 1.9355937,-1.5 0.910938,0.0013 1.705905,0.618007 1.933639,1.5 h 2.066455 c 0.277007,0 0.500012,-0.223 0.500012,-0.5 v -6 c 0,-0.277 -0.223005,-0.5 -0.500012,-0.5 z m 6.086082,1 c -0.276138,2.8e-5 -0.499984,0.223869 -0.500012,0.5 v 5 c 2.8e-5,0.276131 0.223874,0.499972 0.500012,0.5 h 1.064478 c 0.227916,-0.882696 1.023926,-1.499569 1.935593,-1.5 0.836862,0.02251 1.529034,0.451705 2.000047,1.5 0.277007,0 0.500012,-0.223 0.500012,-0.5 v -2 l -1.109401,-0.8125 -2.000048,-2.5 c -0.09496,-0.1186 -0.238699,-0.187588 -0.390634,-0.1875 z m 0.500012,1 h 1.259795 c 0.264498,0.330688 1.595741,2 1.595741,2 h -2.855536 z m -6.500154,4 c -0.828447,0 -1.5000364,0.671573 -1.5000364,1.5 0,0.828426 0.6715894,1.499999 1.5000364,1.499999 0.828446,0 1.500035,-0.671573 1.500035,-1.499999 0,-0.828427 -0.671589,-1.5 -1.500035,-1.5 z m 9.000213,0 c -0.828447,0 -1.500036,0.671573 -1.500036,1.5 0,0.828426 0.671589,1.499999 1.500036,1.499999 0.828446,0 1.500035,-0.671573 1.500035,-1.499999 0,-0.828427 -0.671589,-1.5 -1.500035,-1.5 z" style="opacity: 1; fill: #000000; fill-opacity: 1; stroke: none; stroke-width: 1px; stroke-linecap: butt; stroke-linejoin: round; stroke-miterlimit: 4; stroke-dasharray: none; stroke-dashoffset: 0; stroke-opacity: 1;" />
</svg>