<svg width="26" height="26" viewBox="0 0 26 26" xmlns="http://www.w3.org/2000/svg">
<path d="m 8.3789062,9 c 0.387708,0.671652 -0.103448,1.50989 -0.878906,1.5 1.352323,-0.01913 1.352323,2.019125 0,2 h -1 c 1.352323,-0.01913 1.352323,2.019125 0,2 h -0.5 v 1 c 0,0.277 0.223,0.5 0.5,0.5 h 1.064453 c 0.227911,-0.882696 1.023902,-1.499569 1.935547,-1.5 0.9109168,0.0013 1.7058648,0.618007 1.9335938,1.5 H 13.5 c 0.277,0 0.5,-0.223 0.5,-0.5 v -6 C 14,9.223 13.777,9 13.5,9 Z M 15.5,10 c -0.276131,2.8e-5 -0.499972,0.223869 -0.5,0.5 v 5 c 2.8e-5,0.276131 0.223869,0.499972 0.5,0.5 h 1.064453 c 0.227911,-0.882696 1.023902,-1.499569 1.935547,-1.5 0.836842,0.02251 1.528998,0.451705 2,1.5 0.277,0 0.5,-0.223 0.5,-0.5 v -2 l -1.109375,-0.8125 -2,-2.5 C 17.795662,10.0689 17.651931,9.999912 17.5,10 Z m 0.5,1 h 1.259766 c 0.264491,0.330688 1.595703,2 1.595703,2 H 16 Z m -6.4999998,4 c -0.828427,0 -1.5,0.671573 -1.5,1.5 0,0.828427 0.671573,1.5 1.5,1.5 C 10.328427,18 11,17.328427 11,16.5 11,15.671573 10.328427,15 9.5000002,15 Z M 18.5,15 C 17.671573,15 17,15.671573 17,16.5 17,17.328427 17.671573,18 18.5,18 19.328427,18 20,17.328427 20,16.5 20,15.671573 19.328427,15 18.5,15 Z" style="opacity: 1; fill: #000000; fill-opacity: 1; stroke: none; stroke-width: 1px; stroke-linecap: butt; stroke-linejoin: round; stroke-miterlimit: 4; stroke-dasharray: none; stroke-dashoffset: 0; stroke-opacity: 1;" />
<path d="m 3.5042732,13.5 h 2.991454 m -1.994303,-2 h 2.991455 m -4.985758,-2 h 4.985758" style="fill: none; stroke: #000000; stroke-width: 1px; stroke-linecap: round; stroke-linejoin: miter; stroke-opacity: 1;" />
</svg>