<svg width="26" height="26" viewBox="0 0 26 26" xmlns="http://www.w3.org/2000/svg">
<path d="M 13.5,9 C 13.777,9 14,9.223 14,9.5 v 6 C 14,15.777 13.777,16 13.5,16 H 11.433594 C 11.205865,15.118007 10.410917,14.50132 9.4999999,14.5 8.5883551,14.500431 7.792364,15.117304 7.5644529,16 H 6.5 C 6.223,16 6,15.777 6,15.5 v -6 C 6,9.223 6.223,9 6.5,9 Z m 4,1 c 0.151931,-8.8e-5 0.295662,0.0689 0.390625,0.1875 l 2,2.5 L 21,13.5 v 2 c 0,0.277 -0.223,0.5 -0.5,0.5 -0.471002,-1.048295 -1.163158,-1.477494 -2,-1.5 -0.911645,4.31e-4 -1.707636,0.617304 -1.935547,1.5 H 15.5 c -0.276131,-2.8e-5 -0.499972,-0.223869 -0.5,-0.5 v -5 c 2.8e-5,-0.276131 0.223869,-0.499972 0.5,-0.5 z m -0.240234,1 H 16 v 2 h 2.855469 c 0,0 -1.331212,-1.669312 -1.595703,-2 z M 18.5,15 C 19.328427,15 20,15.671573 20,16.5 20,17.328427 19.328427,18 18.5,18 17.671573,18 17,17.328427 17,16.5 17,15.671573 17.671573,15 18.5,15 Z M 9.4999999,15 C 10.328427,15 11,15.671573 11,16.5 11,17.328427 10.328427,18 9.4999999,18 c -0.8284271,0 -1.5,-0.671573 -1.5,-1.5 0,-0.828427 0.6715729,-1.5 1.5,-1.5 z" style="opacity: 1; fill: #000000; fill-opacity: 1; stroke: none; stroke-width: 1px; stroke-linecap: butt; stroke-linejoin: round; stroke-miterlimit: 4; stroke-dasharray: none; stroke-dashoffset: 0; stroke-opacity: 1;" />
</svg>