<svg width="26" height="26" viewBox="0 0 26 26" xmlns="http://www.w3.org/2000/svg">
<path d="m 5.5,5.99995 c -0.277,0 -0.5,0.223 -0.5,0.5 v 12 c 0,0.277 0.223,0.5 0.5,0.5 h 6 l -0.5,1 h -0.994141 a 0.49903464,0.50005 0 1 0 0,1 H 10.5 h 5 0.494141 a 0.49903464,0.50005 0 1 0 0,-1 H 15 l -0.5,-1 h 6 c 0.277,0 0.5,-0.223 0.5,-0.5 v -12 c 0,-0.277 -0.223,-0.5 -0.5,-0.5 z m 0.4999999,1 H 20 v 9 H 5.9999999 Z" style="opacity: 1; fill: #000000; fill-opacity: 1; stroke: none; stroke-width: 2.00000024; stroke-linecap: round; stroke-linejoin: round; stroke-miterlimit: 4; stroke-dasharray: none; stroke-dashoffset: 0; stroke-opacity: 1;" />
</svg>