<svg width="26" height="26" viewBox="0 0 26 26" xmlns="http://www.w3.org/2000/svg">
<path d="M 6.5,5 C 6.223,5 6,5.223 6,5.5 v 14 C 6,19.777 6.223,20 6.5,20 H 13 V 17 H 7 V 6 h 9 v 2 h 1 V 5.5 C 17,5.223 16.777,5 16.5,5 Z m 8,4 C 14.223,9 14,9.223 14,9.5 v 12 c 0,0.277 0.223,0.5 0.5,0.5 h 6 C 20.777,22 21,21.777 21,21.5 V 9.5 C 21,9.223 20.777,9 20.5,9 Z M 17,9.75 h 1 v 0.5 H 17 Z M 14.5,11 h 6 v 8 h -6 z M 11,18 h 1 v 1 h -1 z m 6,2 h 1 v 1 h -1 z" style="opacity: 1; fill: #000000; fill-opacity: 1; stroke: none; stroke-width: 2.00000024; stroke-linecap: round; stroke-linejoin: round; stroke-miterlimit: 4; stroke-dasharray: none; stroke-dashoffset: 0; stroke-opacity: 1;" />
</svg>