<svg width="26" height="26" viewBox="0 0 26 26" xmlns="http://www.w3.org/2000/svg">
<path d="M 5.5,9 C 5.223,9 5,9.223 5,9.5 v 7 C 5,16.777 5.223,17 5.5,17 H 8 V 16 H 7 V 12.5 C 7,12.223 7.223,12 7.5,12 h 11 c 0.277,0 0.5,0.223 0.5,0.5 V 16 h -1 v 1 h 2.5 c 0.277,0 0.5,-0.223 0.5,-0.5 v -7 C 21,9.223 20.777,9 20.5,9 Z M 19,10 h 1 v 1 h -1 z" style="opacity: 1; fill: #000000; fill-opacity: 1; stroke: none; stroke-width: 0.99999994; stroke-linecap: round; stroke-linejoin: round; stroke-miterlimit: 4; stroke-dasharray: 1, 1; stroke-dashoffset: 0; stroke-opacity: 1;" />
<path d="m 10.5,17.5 h 3 m -3,-2 h 5 m -5,-2 h 5 m -7,0 v 7 h 6 l 3,-3 v -4 M 8.5,9 V 6.5 h 9 V 9" style="fill: none; stroke: #000000; stroke-width: 1px; stroke-linecap: round; stroke-linejoin: round; stroke-opacity: 1;" />
</svg>