<svg width="26" height="26" viewBox="0 0 26 26" xmlns="http://www.w3.org/2000/svg">
<path d="m 7.500035,4.999998 c -0.27613,3e-5 -0.49997,0.22387 -0.5,0.5 v 15 c -0.0096,0.676161 1.009563,0.676161 1,0 v -8.5 h 5.617188 v -0.130859 c -4.02e-4,-0.757118 0.496118,-1.437452 1.208984,-1.673829 L 17.888706,9.181639 13.853551,5.146482 c -0.0938,-0.0938 -0.220916,-0.146464 -0.353516,-0.146484 z m 14.226561,4.5 c -0.02568,7.89e-4 -0.04988,0.0056 -0.07422,0.01367 l -6.353515,2.105469 c -0.108117,0.03585 -0.181701,0.136693 -0.18164,0.25 v 4.566406 c -0.169904,-0.06052 -0.348821,-0.09305 -0.529297,-0.09375 -0.877158,0 -1.587891,0.708061 -1.587891,1.580078 0,0.872017 0.710733,1.578125 1.587891,1.578125 0.877158,0 1.58789,-0.706108 1.58789,-1.578125 v -4.810547 l 4.765624,-1.667969 v 3.148438 c -0.169904,-0.06052 -0.34882,-0.0911 -0.529297,-0.0918 -0.877156,0 -1.58789,0.706107 -1.58789,1.578125 0,0.872017 0.710734,1.580078 1.58789,1.580078 0.877156,0 1.587891,-0.708061 1.587891,-1.580078 V 9.763665 C 22.000091,9.615063 21.876,9.495364 21.726594,9.499993 Z" style="opacity: 1; fill: #000000; fill-opacity: 1; stroke: none; stroke-width: 1; stroke-linecap: butt; stroke-linejoin: round; stroke-miterlimit: 4; stroke-dasharray: none; stroke-dashoffset: 0; stroke-opacity: 1;" />
<path d="m 20.500034,19.500002 v 3 H 9.500035 v -9.000004 l 4,4e-6" style="opacity: 1; fill: none; fill-opacity: 1; stroke: #000000; stroke-width: 1; stroke-linecap: round; stroke-linejoin: round; stroke-miterlimit: 4; stroke-dasharray: none; stroke-dashoffset: 0.5; stroke-opacity: 1;" />
</svg>