<svg width="26" height="26" viewBox="0 0 26 26" xmlns="http://www.w3.org/2000/svg">
<path d="m 21.727024,9.5002 c -0.02568,7.9e-4 -0.05114,0.005 -0.07548,0.0134 l -6.352942,2.10523 c -0.108117,0.0358 -0.181012,0.13648 -0.180952,0.24979 v 4.56614 c -0.169904,-0.0605 -0.348939,-0.0918 -0.529415,-0.0925 C 13.711077,16.34226 13,17.04917 13,17.92119 c 0,0.87201 0.711077,1.57892 1.588235,1.57892 0.877158,0 1.588235,-0.70691 1.588235,-1.57892 v -4.80977 l 4.764706,-1.66733 v 3.1486 c -0.169904,-0.0605 -0.348935,-0.0918 -0.529412,-0.0925 -0.877156,0 -1.588235,0.70691 -1.588235,1.57893 0,0.87202 0.711079,1.57893 1.588235,1.57893 0.877156,0 1.588235,-0.70691 1.588235,-1.57893 V 9.76341 c 5.9e-5,-0.1486 -0.12357,-0.26778 -0.272975,-0.26315 z" style="opacity: 1; fill: #000000; fill-opacity: 1; stroke: none; stroke-width: 1; stroke-linecap: butt; stroke-linejoin: round; stroke-miterlimit: 4; stroke-dasharray: none; stroke-dashoffset: 0; stroke-opacity: 1;" />
<path d="m 20.5,19.5 v 3 h -11 v -9 h 4 m -4,7 h -2 v -15 h 6 l 3,3" style="opacity: 1; fill: none; fill-opacity: 1; stroke: #000000; stroke-width: 1; stroke-linecap: round; stroke-linejoin: round; stroke-miterlimit: 4; stroke-dasharray: none; stroke-dashoffset: 0.5; stroke-opacity: 1;" />
</svg>