<svg width="26" height="26" viewBox="0 0 26 26" xmlns="http://www.w3.org/2000/svg">
<path d="M 17 13 A 6 6 0 0 0 11 19 A 6 6 0 0 0 17 25 A 6 6 0 0 0 23 19 A 6 6 0 0 0 17 13 z M 16.5 15 L 17.5 15 C 17.777 15 18 15.223 18 15.5 L 18 18 L 20.5 18 C 20.777 18 21 18.223 21 18.5 L 21 19.5 C 21 19.777 20.777 20 20.5 20 L 18 20 L 18 22.5 C 18 22.777 17.777 23 17.5 23 L 16.5 23 C 16.223 23 16 22.777 16 22.5 L 16 20 L 13.5 20 C 13.223 20 13 19.777 13 19.5 L 13 18.5 C 13 18.223 13.223 18 13.5 18 L 16 18 L 16 15.5 C 16 15.223 16.223 15 16.5 15 z " style="opacity: 1; fill: #000000; fill-opacity: 1; stroke: none; stroke-width: 2; stroke-linecap: butt; stroke-linejoin: round; stroke-miterlimit: 4; stroke-dasharray: none; stroke-dashoffset: 0; stroke-opacity: 1;" />
<path d="m 9.5,20.5 -2,0 0,-15 6,0 5,5 0,1" style="opacity: 1; fill: none; fill-opacity: 1; stroke: #000000; stroke-width: 1; stroke-linecap: round; stroke-linejoin: round; stroke-miterlimit: 4; stroke-dasharray: none; stroke-dashoffset: 0; stroke-opacity: 1;" />
</svg>