<svg width="26" height="26" viewBox="0 0 26 26" xmlns="http://www.w3.org/2000/svg">
<path d="m 12.5,20.5 -5,0 0,-15 6,0 5,5 0,4" style="opacity: 1; fill: none; fill-opacity: 1; stroke: #000000; stroke-width: 1; stroke-linecap: round; stroke-linejoin: round; stroke-miterlimit: 4; stroke-dasharray: none; stroke-dashoffset: 0; stroke-opacity: 1;" />
<path d="M 17.5,16 C 17.223,16 17,16.223 17,16.5 l 0,2.5 -2.5,0 C 14.223,19 14,19.223 14,19.5 l 0,1 c 0,0.277 0.223,0.5 0.5,0.5 l 2.5,0 0,2.5 c 0,0.277 0.223,0.5 0.5,0.5 l 1,0 c 0.277,0 0.5,-0.223 0.5,-0.5 l 0,-2.5 2.5,0 c 0.277,0 0.5,-0.223 0.5,-0.5 l 0,-1 C 22,19.223 21.777,19 21.5,19 L 19,19 19,16.5 C 19,16.223 18.777,16 18.5,16 Z" style="opacity: 1; fill: #000000; fill-opacity: 1; stroke: none; stroke-width: 1; stroke-linecap: round; stroke-linejoin: round; stroke-miterlimit: 4; stroke-dasharray: none; stroke-dashoffset: 0; stroke-opacity: 1;" />
</svg>