<svg width="26" height="26" viewBox="0 0 26 26" xmlns="http://www.w3.org/2000/svg">
<path d="M 7.5,5 A 0.50005,0.50005 0 0 0 7,5.5 l 0,15 A 0.50005,0.50005 0 0 0 7.5,21 l 5.824219,0 c -0.297209,-0.566395 -0.217735,-1.295959 0.251953,-1.765625 l 0.707031,-0.707031 c 0.575292,-0.575266 1.545802,-0.575266 2.121094,0 L 17.033203,19.15625 19,16.882812 19,10.5 a 0.50005,0.50005 0 0 0 -0.146484,-0.353516 l -5,-5 A 0.50005,0.50005 0 0 0 13.5,5 l -6,0 z m 13.142578,11.746094 c -0.132783,-0.0041 -0.261804,0.04378 -0.339844,0.158203 l -3.216796,3.71875 -1.388672,-1.388672 c -0.195869,-0.19586 -0.511163,-0.19586 -0.707032,0 l -0.707031,0.707031 c -0.195869,0.19586 -0.195869,0.511162 0,0.707032 l 2.449219,2.449218 c 0.195869,0.19586 0.511162,0.19586 0.707031,0 l 4.277344,-4.777344 c 0.195869,-0.195869 0.195869,-0.511161 0,-0.707031 l -0.707031,-0.708984 c -0.09793,-0.09791 -0.234404,-0.154203 -0.367188,-0.158203 z" style="opacity: 1; fill: #000000; fill-opacity: 1; stroke: none; stroke-width: 1; stroke-linecap: round; stroke-linejoin: round; stroke-miterlimit: 4; stroke-dasharray: none; stroke-dashoffset: 0; stroke-opacity: 1;" />
</svg>