<svg width="26" height="26" viewBox="0 0 26 26" xmlns="http://www.w3.org/2000/svg">
<path d="m 7.5,4.9999996 a 0.50005,0.50005 0 0 0 -0.5,0.5 V 20.5 A 0.50005,0.50005 0 0 0 7.5,21 h 5.60547 A 5,5 0 0 1 13,20 a 5,5 0 0 1 5,-5 5,5 0 0 1 1,0.101562 V 10.5 a 0.50005,0.50005 0 0 0 -0.14648,-0.353516 l -5,-5.0000004 A 0.50005,0.50005 0 0 0 13.5,4.9999996 Z" style="opacity: 1; fill: #000000; fill-opacity: 1; stroke: none; stroke-width: 1px; stroke-linecap: round; stroke-linejoin: round; stroke-miterlimit: 4; stroke-dasharray: none; stroke-dashoffset: 0; stroke-opacity: 1;" />
<path d="m 15.5,22.5 5,-5 m 1,2.5 A 3.5,3.5 0 0 1 18,23.5 3.5,3.5 0 0 1 14.5,20 3.5,3.5 0 0 1 18,16.5 3.5,3.5 0 0 1 21.5,20 Z" style="fill: none; stroke: #000000; stroke-width: 1px; stroke-linecap: butt; stroke-linejoin: miter; stroke-opacity: 1;" />
</svg>