<svg width="26" height="26" viewBox="0 0 26 26" xmlns="http://www.w3.org/2000/svg">
<path d="m 16.5,18.5 0,4 -11,0 0,-15 4,0" style="opacity: 1; fill: none; fill-opacity: 1; stroke: #000000; stroke-width: 1; stroke-linecap: round; stroke-linejoin: round; stroke-miterlimit: 4; stroke-dasharray: none; stroke-dashoffset: 0; stroke-opacity: 1;" />
<path d="m 9.5,15.5 0,-12 6,0 5,5 0,10 -8,0" style="opacity: 1; fill: none; fill-opacity: 1; stroke: #000000; stroke-width: 1; stroke-linecap: round; stroke-linejoin: round; stroke-miterlimit: 4; stroke-dasharray: none; stroke-dashoffset: 0; stroke-opacity: 1;" />
<path d="m 11.606249,12.15177 c -0.190134,0.19579 -0.18739,0.5082 0.0057,0.70128 l 1.060498,1.0605 -4.946729,5.65374 c -0.484871,0.47073 0.235961,1.19156 0.707001,0.707 l 5.653729,-4.94674 1.060498,1.0605 C 15.461905,16.70277 15.999957,16.48 16,16.03486 l -9.13e-4,-3.53408 C 15.99896,12.22481 15.775189,12.00104 15.499219,12.00091 L 11.965135,12 c -0.13527,-7e-5 -0.264748,0.0547 -0.358886,0.15177 z" style="opacity: 1; fill: #000000; fill-opacity: 1; stroke: none; stroke-width: 1px; stroke-linecap: butt; stroke-linejoin: round; stroke-miterlimit: 4; stroke-dasharray: none; stroke-dashoffset: 0; stroke-opacity: 1;" />
</svg>