<svg width="26" height="26" viewBox="0 0 26 26" xmlns="http://www.w3.org/2000/svg">
<path d="M 9.5,3 C 9.223869,3.00003 9.000028,3.22387 9,3.5 l 0,1 0,2.5 0,9.55469 2.300781,-2.59961 -0.396484,-0.39453 C 10.333171,12.98945 10.324806,12.03573 10.888667,11.45508 11.170965,11.16401 11.559305,10.99979 11.964844,11 L 15.5,11 c 0.816288,3.8e-4 1.499624,0.68371 1.5,1.5 l 0,3.53516 c -6e-5,0.62546 -0.41539,1.17345 -0.925781,1.38476 -0.51039,0.21132 -1.192431,0.11778 -1.634766,-0.32422 L 14.044922,16.69922 11.445312,19 17,19 l 2.5,0 0.03516,0 0.96484,0 c 0.276131,-3e-5 0.499972,-0.22387 0.5,-0.5 l 0,-10 C 20.999976,8.3674 20.94729,8.24024 20.853516,8.14648 l -5,-5 C 15.759759,3.05271 15.632599,3.00002 15.5,3 Z m -4,4 C 5.223869,7.00003 5.000028,7.22387 5,7.5 l 0,15 c 2.8e-5,0.27613 0.223869,0.49997 0.5,0.5 l 11,0 c 0.276131,-3e-5 0.499972,-0.22387 0.5,-0.5 l 0,-2.5 -6.683594,0 -1.220703,1.02344 0.05469,-0.0527 C 8.857405,21.27213 8.406759,21.45541 8.001955,21.43363 7.597151,21.41183 7.260661,21.23335 7.013674,20.98636 6.766687,20.73938 6.588078,20.40303 6.566408,19.99808 6.544738,19.59313 6.727713,19.14243 7.029299,18.84964 L 6.976569,18.90434 8,17.68359 8,7 Z m 6.464844,5 c -0.13527,-7e-5 -0.265237,0.0553 -0.359375,0.15234 -0.190134,0.1958 -0.187231,0.50809 0.0059,0.70118 l 1.060547,1.06054 -4.945313,5.65235 c -0.48487,0.47073 0.235992,1.19159 0.707032,0.70703 l 5.652344,-4.94531 1.060546,1.06054 C 15.461443,16.70339 15.999957,16.48027 16,16.03516 L 16,12.5 C 15.999873,12.22403 15.77597,12.00013 15.5,12 Z" style="opacity: 1; fill: #000000; fill-opacity: 1; stroke: none; stroke-width: 1px; stroke-linecap: butt; stroke-linejoin: round; stroke-miterlimit: 4; stroke-dasharray: none; stroke-dashoffset: 0; stroke-opacity: 1;" />
</svg>