<svg width="26" height="26" viewBox="0 0 26 26" xmlns="http://www.w3.org/2000/svg">
<path d="m 21.146484,3.147684 -2,1.999821 c -0.19518,0.195252 -0.19518,0.511726 0,0.706968 l 2,1.99982 c 0.19527,0.195174 0.511772,0.195174 0.707032,0 l 2,-1.99982 c 0.19519,-0.195242 0.19519,-0.511716 0,-0.706968 l -2,-1.999821 c -0.205166,-0.218735 -0.541015,-0.173812 -0.707032,0 z m -4,3.999641 -4,3.999731 c -0.19518,0.195253 -0.19518,0.511716 0,0.706969 l 2,1.999819 c 0.19527,0.195162 0.511772,0.195162 0.707032,0 l 4,-3.99973 c 0.19519,-0.195252 0.19519,-0.511716 0,-0.706968 l -2,-1.999821 c -0.244229,-0.253889 -0.463436,-0.210919 -0.707032,0 z M 12.052734,12.277814 11,14.75 12.25,16 14.722656,14.947493 c 0.30552,-0.152276 0.37201,-0.559111 0.13086,-0.80071 l -2,-1.999819 c -0.292958,-0.261005 -0.715409,-0.09123 -0.800782,0.130848 z M 10.75,15.25 10,17 11.75,16.25 Z" style="opacity: 1; fill: #000000; fill-opacity: 1; stroke: none; stroke-width: 1px; stroke-linecap: round; stroke-linejoin: miter; stroke-miterlimit: 4; stroke-dasharray: none; stroke-dashoffset: 0; stroke-opacity: 1;" />
<path d="M 18.5,6.5 22,10.000001 18,14 M 5.5,19.5 h 6 m -6,-2 h 2 m -2,-2 h 2 m -2,-2 h 3 m -3,-2 h 5 m -5,-2 h 4 m 5,7.5 v 4.5 H 3.5 V 6.5000002 h 6 L 12.5,9.5" style="fill: none; stroke: #000000; stroke-width: 1px; stroke-linecap: round; stroke-linejoin: round; stroke-opacity: 1;" />
</svg>