<svg width="26" height="26" viewBox="0 0 26 26" xmlns="http://www.w3.org/2000/svg">
<path d="m 7.500067,4.999996 c -0.27613,3e-5 -0.49997,0.22387 -0.5,0.5 v 15 c -0.0096,0.676161 1.009563,0.676161 1,0 v -8.5 h 4.095703 c 1.238021,-1.95378 2.611041,-3.455827 4.025391,-4.585938 L 13.853583,5.14648 c -0.0938,-0.0938 -0.220916,-0.146464 -0.353516,-0.146484 z m 15.189453,1 c -0.01687,1.3e-4 -0.03417,0.0029 -0.05078,0.0059 -3.695122,0.6012 -8.591096,3.330987 -11.613281,11.591797 -0.15157,0.37488 0.436719,0.581126 0.5625,0.197266 0.616547,-1.26771 1.722968,-2.25513 2.396484,-3.25 0.252386,0.12962 3.013466,0.228987 3.117187,0.154297 0.374457,-0.36989 0.78082,-0.823235 1.195313,-1.302735 l -3.097656,-0.376953 c 0.951988,-0.46467 2.295624,-0.924463 4.304687,-1.095703 0.153658,-0.19703 0.30627,-0.389644 0.457032,-0.589844 l -2.962891,-0.361328 c 0.904326,-0.44141 2.151471,-0.882375 3.996094,-1.072265 0.153074,-0.2216 0.298148,-0.438104 0.439453,-0.652344 L 18.79499,8.925818 c 0.812974,-0.39681 1.912981,-0.789826 3.464844,-1.003906 0.408577,-0.711781 0.684565,-1.300395 0.740233,-1.652385 -0.01169,-0.1419 -0.118814,-0.277101 -0.310547,-0.269531 z" style="opacity: 1; fill: #000000; fill-opacity: 1; stroke: none; stroke-width: 0.99999994px; stroke-linecap: round; stroke-linejoin: miter; stroke-miterlimit: 4; stroke-dasharray: none; stroke-dashoffset: 0; stroke-opacity: 1;" />
<path d="m 16.500067,19.499996 h 2 m -7,0 h 3 m -1,-2 h 5 m 2,-3.999996 v 9 h -11 v -9.000004 l 1.5,4e-6" style="fill: none; stroke: #000000; stroke-width: 1px; stroke-linecap: round; stroke-linejoin: miter; stroke-opacity: 1;" />
</svg>