<svg width="26" height="26" viewBox="0 0 26 26" xmlns="http://www.w3.org/2000/svg">
<path d="m 22.688803,6.000266 c -0.01687,1.3e-4 -0.0337,0.002 -0.05031,0.005 -3.695122,0.6012 -8.591582,3.3325 -11.613767,11.59331 -0.15157,0.37488 0.438119,0.5803 0.5639,0.19644 0.616547,-1.26771 1.722475,-2.25551 2.395991,-3.25038 0.252386,0.12962 3.012939,0.22888 3.11666,0.15419 0.374457,-0.36989 0.781162,-0.82248 1.195655,-1.30198 l -3.096769,-0.37803 c 0.951988,-0.46467 2.293893,-0.92402 4.302956,-1.09526 0.153658,-0.19703 0.307846,-0.38912 0.458607,-0.58932 l -2.96457,-0.36204 c 0.904326,-0.44141 2.151814,-0.88253 3.996437,-1.07242 0.153074,-0.2216 0.298584,-0.43789 0.439889,-0.65213 L 18.79415,8.925536 c 0.812974,-0.39681 1.913431,-0.78867 3.465294,-1.00275 C 22.668022,7.211046 22.944332,6.621046 23,6.269056 22.98831,6.127156 22.880536,5.993096 22.688803,6.000666 Z" style="opacity: 1; fill: #000000; fill-opacity: 1; stroke: none; stroke-width: 0.99999994px; stroke-linecap: round; stroke-linejoin: miter; stroke-miterlimit: 4; stroke-dasharray: none; stroke-dashoffset: 0; stroke-opacity: 1;" />
<path d="m 16.5,19.499996 h 2 m -7,0 h 3 m -1,-2 h 5 M 20.5,13.5 v 9 H 9.5 V 13.499996 L 11,13.5 m -1.5,6.999996 h -2 v -15 h 6 l 1.5,1.5" style="fill: none; stroke: #000000; stroke-width: 1px; stroke-linecap: round; stroke-linejoin: miter; stroke-opacity: 1;" />
</svg>