<svg width="26" height="26" viewBox="0 0 26 26" xmlns="http://www.w3.org/2000/svg">
<path d="M 8.5,5 A 0.50005,0.50005 0 0 0 8,5.5 l 0,6.76367 3.001953,-0.19922 0,-0.56445 c -2.9e-5,-0.80704 0.668128,-1.4871 1.476563,-1.5 l 0.002,0 c 0.404763,-0.006 0.795885,0.15306 1.082031,0.43945 l 2.498047,2.5 c 0.576937,0.57747 0.576937,1.54363 0,2.1211 l -2.498047,2.5 c -0.442311,0.44222 -1.124442,0.53569 -1.634766,0.32422 C 11.417458,17.67329 11.002239,17.12532 11.002,16.5 l 0,-0.56445 L 8,15.73633 8,20.5 A 0.50005,0.50005 0 0 0 8.5,21 l 11,0 A 0.50005,0.50005 0 0 0 20,20.5 l 0,-10 a 0.50005,0.50005 0 0 0 -0.146484,-0.35352 l -5,-5 A 0.50005,0.50005 0 0 0 14.5,5 l -6,0 z m 3.994141,6 c -0.27289,0.004 -0.492198,0.22693 -0.492188,0.5 l 0,1.5 -7.496094,0.5 c -0.675711,-0.01 -0.675711,1.00956 0,1 l 7.496094,0.5 0,1.5 c 1.7e-4,0.44525 0.538726,0.66825 0.853516,0.35352 l 2.498047,-2.5 c 0.19505,-0.19523 0.19505,-0.51181 0,-0.70704 l -2.498047,-2.5 C 12.759869,11.05078 12.629351,10.99793 12.494141,11 Z" style="opacity: 1; fill: #000000; fill-opacity: 1; stroke: none; stroke-width: 1; stroke-linecap: round; stroke-linejoin: round; stroke-miterlimit: 4; stroke-dasharray: none; stroke-dashoffset: 0; stroke-opacity: 1;" />
</svg>