<svg width="26" height="26" viewBox="0 0 26 26" xmlns="http://www.w3.org/2000/svg">
<path d="m 9.500067,13.5 h 11 v 9 h -11 z" style="opacity: 1; fill: none; fill-opacity: 1; stroke: #000000; stroke-width: 0.99999994; stroke-linecap: butt; stroke-linejoin: round; stroke-miterlimit: 4; stroke-dasharray: none; stroke-dashoffset: 0.5; stroke-opacity: 1;" />
<path d="m 7.500067,4.999996 c -0.27613,3e-5 -0.49997,0.22387 -0.5,0.5 v 15 c -0.0096,0.676161 1.009563,0.676161 1,0 v -8.5 h 11 v -1.5 c -2e-5,-0.1326 -0.0527,-0.259756 -0.146484,-0.353516 l -5,-5 c -0.0938,-0.0938 -0.220916,-0.146464 -0.353516,-0.146484 z m 10,10 a 1.5,1.5 0 0 0 -1.5,1.5 1.5,1.5 0 0 0 1.5,1.5 1.5,1.5 0 0 0 1.5,-1.5 1.5,1.5 0 0 0 -1.5,-1.5 z m -4.5,2 -3,5 h 10 l -2,-3 -2,2 z" style="opacity: 1; fill: #000000; fill-opacity: 1; stroke: none; stroke-width: 1; stroke-linecap: butt; stroke-linejoin: round; stroke-miterlimit: 4; stroke-dasharray: none; stroke-dashoffset: 0.5; stroke-opacity: 1;" />
</svg>