<svg width="26" height="26" viewBox="0 0 26 26" xmlns="http://www.w3.org/2000/svg">
<path d="m 9.500073,13.500004 h 11 V 22.5 h -11 z" style="opacity: 1; fill: none; fill-opacity: 1; stroke: #000000; stroke-width: 0.99999994; stroke-linecap: butt; stroke-linejoin: round; stroke-miterlimit: 4; stroke-dasharray: none; stroke-dashoffset: 0.5; stroke-opacity: 1;" />
<path d="m 14.000073,15.5 c -3,0 0,2.5 -3,2.5 3,0 0,2.5 3,2.5 m 2,-5 c 3,0 0,2.5 3,2.5 -3,0 0,2.5 -3,2.5" style="fill: none; stroke: #000000; stroke-width: 1; stroke-linecap: butt; stroke-linejoin: bevel; stroke-miterlimit: 4; stroke-dasharray: none; stroke-opacity: 1;" />
<path d="m 7.5000731,5 c -0.27613,3e-5 -0.49997,0.22387 -0.5,0.5 v 15 c -0.01,0.676161 1.00956,0.676161 1,0 V 12 H 19.000073 v -1.5 c -2e-5,-0.1326 -0.0527,-0.259756 -0.14648,-0.353516 l -5,-5 C 13.759793,5.052684 13.632673,5.00002 13.500073,5 Z" style="opacity: 1; fill: #000000; fill-opacity: 1; stroke: none; stroke-width: 1; stroke-linecap: butt; stroke-linejoin: round; stroke-miterlimit: 4; stroke-dasharray: none; stroke-dashoffset: 0.5; stroke-opacity: 1;" />
</svg>