<svg width="26" height="26" viewBox="0 0 26 26" xmlns="http://www.w3.org/2000/svg">
<path d="M 16,17.485757 V 14.880975 C 16,12.80797 19,11.5 21.040796,13.504268" style="fill: none; stroke: #000000; stroke-width: 2; stroke-linecap: butt; stroke-linejoin: round; stroke-miterlimit: 4; stroke-dasharray: none; stroke-opacity: 1;" />
<path d="M 7.5,5 C 7.223869,5.000028 7.000028,5.223869 7,5.5 v 15 c 2.8e-5,0.276131 0.223869,0.499972 0.5,0.5 H 13 v -4 c 0,-0.554 0.446,-1 1,-1 v -2.119141 c 0,-1.009497 0.490287,-1.890426 1.171875,-2.414062 C 15.853463,10.94316 16.682935,10.720703 17.5,10.720703 H 19 V 10.5 c -2.5e-5,-0.1326 -0.05272,-0.25976 -0.146484,-0.353516 l -5,-5 C 13.75976,5.052716 13.6326,5.000025 13.5,5 Z M 15,17 c -0.554,0 -1,0.446 -1,1 v 4 c 0,0.553999 0.446,1 1,1 h 7 c 0.554,0 1,-0.446001 1,-1 v -4 c 0,-0.554 -0.446,-1 -1,-1 z m 3.5,2 c 0.276142,0 0.5,0.223857 0.5,0.5 l 0.5,1 C 19.54554,20.77323 19.277,21 19,21 h -1 c -0.277,0 -0.54554,-0.22677 -0.5,-0.5 l 0.5,-1 C 18,19.223857 18.223858,19 18.5,19 Z" style="opacity: 1; fill: #000000; fill-opacity: 1; stroke: none; stroke-width: 1; stroke-linecap: round; stroke-linejoin: round; stroke-miterlimit: 4; stroke-dasharray: none; stroke-dashoffset: 0; stroke-opacity: 1;" />
</svg>