<svg width="26" height="26" viewBox="0 0 26 26" xmlns="http://www.w3.org/2000/svg">
<path d="m 5.505707,11.00006 c 0.27289,0.004 0.491861,0.22685 0.49185,0.49992 l 0,1.49977 7.495661,0.49993 c 0.67571,-0.01 0.67571,1.00941 0,0.99985 l -7.495661,0.49992 0,1.49977 c -1.7e-4,0.44525 -0.53815,0.66819 -0.85294,0.35346 l -2.49833,-2.49962 c -0.19505,-0.19523 -0.19505,-0.51169 0,-0.70692 l 2.49833,-2.49962 c 0.0956,-0.0957 0.22588,-0.14853 0.36109,-0.14646 z" style="opacity: 1; fill: #000000; fill-opacity: 1; stroke: none; stroke-width: 1px; stroke-linecap: butt; stroke-linejoin: round; stroke-miterlimit: 4; stroke-dasharray: none; stroke-dashoffset: 0; stroke-opacity: 1;" />
<path d="m 8.5,11.5 0,-6 6,0 5,5 0,10 -11,0 0,-4" style="opacity: 1; fill: none; fill-opacity: 1; stroke: #000000; stroke-width: 1; stroke-linecap: round; stroke-linejoin: round; stroke-miterlimit: 4; stroke-dasharray: none; stroke-dashoffset: 0; stroke-opacity: 1;" />
</svg>