<svg width="26" height="26" viewBox="0 0 26 26" xmlns="http://www.w3.org/2000/svg">
<path d="M 8.5,5 A 0.50005,0.50005 0 0 0 8,5.5 l 0,6.63086 5.552734,0.37109 -0.08008,-0.002 c 0.420287,-0.006 0.867651,0.1827 1.138672,0.48438 0.271021,0.30166 0.382813,0.66633 0.382813,1.01562 0,0.34929 -0.111973,0.71203 -0.382813,1.01367 -0.27084,0.30164 -0.718378,0.49233 -1.138672,0.48633 l 0.08008,-0.002 L 8,15.86914 8,20.5 A 0.50005,0.50005 0 0 0 8.5,21 l 11,0 A 0.50005,0.50005 0 0 0 20,20.5 l 0,-10 a 0.50005,0.50005 0 0 0 -0.146484,-0.35352 l -5,-5 A 0.50005,0.50005 0 0 0 14.5,5 l -6,0 z m -3,6 C 5.36479,10.998 5.234272,11.0508 5.138672,11.14648 l -2.498047,2.5 c -0.19505,0.19523 -0.19505,0.51181 0,0.70704 l 2.498047,2.5 c 0.31479,0.31473 0.853345,0.0917 0.853516,-0.35352 l 0,-1.5 7.49414,-0.5 c 0.675711,0.01 0.675711,-1.01 0,-1 l -7.49414,-0.5 0,-1.5 C 5.992198,11.22693 5.77289,11.004 5.5,11 Z" style="opacity: 1; fill: #000000; fill-opacity: 1; stroke: none; stroke-width: 1; stroke-linecap: round; stroke-linejoin: round; stroke-miterlimit: 4; stroke-dasharray: none; stroke-dashoffset: 0; stroke-opacity: 1;" />
</svg>