<svg width="26" height="26" viewBox="0 0 26 26" xmlns="http://www.w3.org/2000/svg">
<path d="M 7.5 5 A 0.50005 0.50005 0 0 0 7 5.5 L 7 20.5 A 0.50005 0.50005 0 0 0 7.5 21 L 13 21 L 13 19.5 C 13 18.686297 13.686297 18 14.5 18 L 19 18 L 19 10.5 A 0.50005 0.50005 0 0 0 18.853516 10.146484 L 13.853516 5.1464844 A 0.50005 0.50005 0 0 0 13.5 5 L 7.5 5 z M 14.5 19 C 14.223 19 14 19.223 14 19.5 L 14 20.5 C 14 20.777 14.223 21 14.5 21 L 21.5 21 C 21.777 21 22 20.777 22 20.5 L 22 19.5 C 22 19.223 21.777 19 21.5 19 L 14.5 19 z " style="opacity: 1; fill: #000000; fill-opacity: 1; stroke: none; stroke-width: 1; stroke-linecap: round; stroke-linejoin: round; stroke-miterlimit: 4; stroke-dasharray: none; stroke-dashoffset: 0; stroke-opacity: 1;" />
</svg>