<svg width="26" height="26" viewBox="0 0 26 26" xmlns="http://www.w3.org/2000/svg">
<path d="m 18.48437,13.914062 a 0.50005,0.50005 0 0 0 -0.375,0.1875 l -1.65039,2.064454 -1.60546,-1.605469 a 0.50005,0.50005 0 0 0 -0.70704,0 L 12.5,16.207031 10.85352,14.560547 a 0.50005,0.50005 0 0 0 -0.70704,0 l -3,3 A 0.50005,0.50005 0 0 0 7,17.914062 V 20.5 A 0.50005,0.50005 0 0 0 7.5,21 h 11 A 0.50005,0.50005 0 0 0 19,20.5 v -6.085938 a 0.50005,0.50005 0 0 0 -0.51563,-0.5 z M 7.5,5 C 7.22387,5.000028 7.00003,5.223869 7,5.5 v 9.085938 c 1.7e-4,0.445323 0.53852,0.6683 0.85352,0.353515 L 10.5,12.292969 l 1.64648,1.646484 c 0.19527,0.19519 0.51177,0.19519 0.70704,0 L 14.5,12.292969 l 1.64648,1.646484 c 0.2107,0.210847 0.5579,0.191708 0.74414,-0.04102 l 2,-2.5 C 18.96152,11.309713 19.00008,11.199501 19,11.085938 V 10.5 c -2e-5,-0.132599 -0.0527,-0.259759 -0.14648,-0.353516 l -5,-5 C 13.75976,5.052714 13.6326,5.000024 13.5,5 Z" style="opacity: 1; fill: #000000; fill-opacity: 1; stroke: none; stroke-width: 1; stroke-linecap: round; stroke-linejoin: round; stroke-miterlimit: 4; stroke-dasharray: none; stroke-dashoffset: 0; stroke-opacity: 1;" />
</svg>