<svg width="26" height="26" viewBox="0 0 26 26" xmlns="http://www.w3.org/2000/svg">
<path d="m 7.500067,4.999996 c -0.27613,3e-5 -0.49997,0.22387 -0.5,0.5 v 15 c -0.0096,0.676161 1.009563,0.676161 1,0 v -8.5 h 11 v -1.5 c -2e-5,-0.1326 -0.0527,-0.259756 -0.146484,-0.353516 l -5,-5 c -0.0938,-0.0938 -0.220916,-0.146464 -0.353516,-0.146484 z m 4.5,10 v 2 c 0,0 0.467832,-1 1,-1 h 1.509766 c 0.03907,4.05252 0.42072,4.04634 -1.009766,5 h 3 c -1.429826,-0.95322 -1.049144,-0.99872 -1.009766,-5 h 1.509766 c 0.618718,0 1,1 1,1 v -2 z" style="opacity: 1; fill: #000000; fill-opacity: 1; stroke: none; stroke-width: 3; stroke-linecap: round; stroke-linejoin: round; stroke-miterlimit: 4; stroke-dasharray: none; stroke-dashoffset: 0.5; stroke-opacity: 1;" />
<path d="m 9.500067,13.5 h 11 v 9 h -11 z" style="opacity: 1; fill: none; fill-opacity: 1; stroke: #000000; stroke-width: 0.99999994; stroke-linecap: butt; stroke-linejoin: round; stroke-miterlimit: 4; stroke-dasharray: none; stroke-dashoffset: 0.5; stroke-opacity: 1;" />
</svg>