<svg width="26" height="26" viewBox="0 0 26 26" xmlns="http://www.w3.org/2000/svg">
<path d="m 9.500067,13.5 h 11 v 9 h -11 z" style="opacity: 1; fill: none; fill-opacity: 1; stroke: #000000; stroke-width: 0.99999994; stroke-linecap: butt; stroke-linejoin: round; stroke-miterlimit: 4; stroke-dasharray: none; stroke-dashoffset: 0.5; stroke-opacity: 1;" />
<path d="m 7.500067,4.9999957 c -0.27613,3e-5 -0.49997,0.2238703 -0.5,0.5000003 v 15 c -0.0096,0.676161 1.009563,0.676161 1,0 v -8.5 h 11 v -1.5 c -2e-5,-0.1326 -0.0527,-0.259756 -0.146484,-0.353516 l -5,-5 c -0.0938,-0.0938 -0.220916,-0.1464643 -0.353516,-0.1464843 z m 4.25,10.2500003 v 1.5 h 0.511719 c 0.100284,0.49083 0.249187,0.638704 0.488281,1.367188 0.211175,0.643417 0.476312,1.292668 0.824219,1.810546 0.07628,0.113544 0.160091,0.220823 0.248047,0.322266 h -0.322266 v 0.5 h 0.5 v -0.324219 c 0.07965,0.07497 0.161661,0.144266 0.25,0.203125 v 0.621094 h 1.5 v -0.621094 c 0.08834,-0.05886 0.170354,-0.12815 0.25,-0.203125 v 0.324219 h 0.5 v -0.5 h -0.322266 c 0.08796,-0.101443 0.17177,-0.208722 0.248047,-0.322266 0.347907,-0.517878 0.613044,-1.167127 0.824219,-1.810546 0.239094,-0.728484 0.387997,-0.876358 0.488281,-1.367188 h 0.511719 v -1.5 h -1.5 v 1.5 h 0.222656 c -0.09814,0.454112 -0.241911,0.542835 -0.435547,1.132812 -0.199084,0.606583 -0.450524,1.207332 -0.732421,1.626954 -0.06192,0.09216 -0.122546,0.169381 -0.183594,0.240234 h -1.242188 c -0.06105,-0.07085 -0.121678,-0.14807 -0.183594,-0.240234 -0.281897,-0.419622 -0.533337,-1.020373 -0.732421,-1.626954 -0.193636,-0.589977 -0.337405,-0.6787 -0.435547,-1.132812 h 0.222656 v -1.5 z m -0.75,4.75 v 1 h 1 v -1 z m 7,0 v 1 h 1 v -1 z m -5.5,0.25 v 0.5 h 0.5 v -0.5 z m 4.5,0 v 0.5 h 0.5 v -0.5 z" style="opacity: 1; fill: #000000; fill-opacity: 1; stroke: none; stroke-width: 1; stroke-linecap: round; stroke-linejoin: round; stroke-miterlimit: 4; stroke-dasharray: none; stroke-dashoffset: 0.5; stroke-opacity: 1;" />
</svg>