<svg width="26" height="26" viewBox="0 0 26 26" xmlns="http://www.w3.org/2000/svg">
<path d="m 7.500067,5 c -0.27613,3e-5 -0.49997,0.22387 -0.5,0.5 v 15 c -0.0096,0.676161 1.009563,0.676161 1,0 V 12 h 11 v -1.5 c -2e-5,-0.1326 -0.0527,-0.259756 -0.146484,-0.353516 l -5,-5 C 13.759783,5.052684 13.632667,5.00002 13.500067,5 Z m 2,8 c -0.276131,2.8e-5 -0.499972,0.223869 -0.5,0.5 v 9 c 2.8e-5,0.276131 0.223869,0.499972 0.5,0.5 h 11 c 0.276131,-2.8e-5 0.499973,-0.223869 0.5,-0.5 v -9 c -2.7e-5,-0.276131 -0.223869,-0.499972 -0.5,-0.5 z m 1,1 c 0.235702,0 0.5,0.223 0.5,0.5 v 1 c 0,0.277 -0.264298,0.5 -0.5,0.5 -0.235702,0 -0.5,-0.223 -0.5,-0.5 v -1 c 0,-0.277 0.264298,-0.5 0.5,-0.5 z m 1.5,0 h 6 v 8 h -6 z m 7.5,0 c 0.235703,0 0.5,0.223 0.5,0.5 v 1 c 0,0.277 -0.264297,0.5 -0.5,0.5 -0.235702,0 -0.5,-0.223 -0.5,-0.5 v -1 c 0,-0.277 0.264298,-0.5 0.5,-0.5 z m -6.019531,1.5 c -0.26848,0.01052 -0.480649,0.231319 -0.480469,0.5 v 4 c 4.2e-4,0.415642 0.478291,0.64937 0.806641,0.394531 l 3,-2 c 0.25708,-0.200201 0.25708,-0.588861 0,-0.789062 l -3,-2 C 13.713808,15.53298 13.598286,15.495627 13.480536,15.5 Z M 10.500067,17 c 0,0 0.5,0.223 0.5,0.5 v 1 c 0,0.277 -0.264298,0.5 -0.5,0.5 -0.235702,0 -0.5,-0.223 -0.5,-0.5 v -1 c 0,-0.277 0.5,-0.5 0.5,-0.5 z m 9,0 c 0.235703,0 0.5,0.223 0.5,0.5 v 1 c 0,0.277 -0.264297,0.5 -0.5,0.5 -0.235702,0 -0.5,-0.223 -0.5,-0.5 v -1 c 0,-0.277 0.264298,-0.5 0.5,-0.5 z m -9,3 c 0.235702,0 0.5,0.223 0.5,0.5 v 1 c 0,0.277 -0.264298,0.5 -0.5,0.5 -0.235702,0 -0.5,-0.223 -0.5,-0.5 v -1 c 0,-0.277 0.264298,-0.5 0.5,-0.5 z m 9,0 c 0.235703,0 0.5,0.223 0.5,0.5 v 1 c 0,0.277 -0.264297,0.5 -0.5,0.5 -0.235702,0 -0.5,-0.223 -0.5,-0.5 v -1 c 0,-0.277 0.264298,-0.5 0.5,-0.5 z" style="opacity: 1; fill: #000000; fill-opacity: 1; stroke: none; stroke-width: 1; stroke-linecap: butt; stroke-linejoin: round; stroke-miterlimit: 4; stroke-dasharray: none; stroke-dashoffset: 0.5; stroke-opacity: 1;" />
</svg>