<svg width="26" height="26" viewBox="0 0 26 26" xmlns="http://www.w3.org/2000/svg">
<path d="m 9.5,20.5 h -2 v -15 h 6 l 5,5 V 13" style="opacity: 1; fill: none; fill-opacity: 1; stroke: #000000; stroke-width: 0.99999994; stroke-linecap: butt; stroke-linejoin: round; stroke-miterlimit: 4; stroke-dasharray: none; stroke-dashoffset: 0.5; stroke-opacity: 1;" />
<path d="m 9.5,13 c -0.276131,2.8e-5 -0.499972,0.223869 -0.5,0.5 v 9 c 2.8e-5,0.276131 0.223869,0.499972 0.5,0.5 h 11 c 0.276131,-2.8e-5 0.499972,-0.223869 0.5,-0.5 v -9 c -2.8e-5,-0.276131 -0.223869,-0.499972 -0.5,-0.5 z m 1,1 c 0.235702,0 0.5,0.223 0.5,0.5 v 1 C 11,15.777 10.735702,16 10.5,16 10.264298,16 10,15.777 10,15.5 v -1 C 10,14.223 10.264298,14 10.5,14 Z m 1.5,0 h 6 v 8 h -6 z m 7.5,0 c 0.235702,0 0.5,0.223 0.5,0.5 v 1 C 20,15.777 19.735702,16 19.5,16 19.264298,16 19,15.777 19,15.5 v -1 C 19,14.223 19.264298,14 19.5,14 Z m -6.01953,1.5 C 13.21199,15.51052 12.99982,15.731319 13,16 v 4 c 4.2e-4,0.415642 0.47829,0.64937 0.80664,0.394531 l 3,-2 c 0.25708,-0.200201 0.25708,-0.588861 0,-0.789062 l -3,-2 C 13.71374,15.53298 13.59822,15.495627 13.48047,15.5 Z M 10.5,17 v 0 c 0,0 0.5,0.223 0.5,0.5 v 1 C 11,18.777 10.735702,19 10.5,19 10.264298,19 10,18.777 10,18.5 v -1 C 10,17.223 10.5,17 10.5,17 Z m 9,0 c 0.235702,0 0.5,0.223 0.5,0.5 v 1 C 20,18.777 19.735702,19 19.5,19 19.264298,19 19,18.777 19,18.5 v -1 C 19,17.223 19.264298,17 19.5,17 Z m -9,3 c 0.235702,0 0.5,0.223 0.5,0.5 v 1 C 11,21.777 10.735702,22 10.5,22 10.264298,22 10,21.777 10,21.5 v -1 C 10,20.223 10.264298,20 10.5,20 Z m 9,0 c 0.235702,0 0.5,0.223 0.5,0.5 v 1 C 20,21.777 19.735702,22 19.5,22 19.264298,22 19,21.777 19,21.5 v -1 C 19,20.223 19.264298,20 19.5,20 Z" style="opacity: 1; fill: #000000; fill-opacity: 1; stroke: none; stroke-width: 1; stroke-linecap: butt; stroke-linejoin: round; stroke-miterlimit: 4; stroke-dasharray: none; stroke-dashoffset: 0.5; stroke-opacity: 1;" />
</svg>