<svg width="26" height="26" viewBox="0 0 26 26" xmlns="http://www.w3.org/2000/svg">
<path d="M 7.5,5 A 0.50005,0.50005 0 0 0 7,5.5 l 0,15 A 0.50005,0.50005 0 0 0 7.5,21 l 6.671875,0 1,-1 -1.060547,-1.060547 c -0.57537,-0.575376 -0.575399,-1.545718 0,-2.121094 l 0.707031,-0.707031 c 0.287687,-0.287688 0.674059,-0.431641 1.060547,-0.43164 0.386488,-1e-6 0.772861,0.143952 1.060547,0.43164 L 18,17.171875 l 1,-1 L 19,10.5 a 0.50005,0.50005 0 0 0 -0.146484,-0.353516 l -5,-5 A 0.50005,0.50005 0 0 0 13.5,5 l -6,0 z m 8.378906,11.671875 c -0.127809,0 -0.255581,0.04855 -0.353515,0.146484 l -0.707032,0.707032 c -0.195868,0.19586 -0.195868,0.511161 0,0.707031 L 16.585938,20 14.818359,21.767578 c -0.195868,0.19587 -0.195868,0.511171 0,0.707031 l 0.707032,0.707032 c 0.195869,0.19587 0.511162,0.19587 0.707031,0 L 18,21.414062 l 1.767578,1.767579 c 0.195869,0.19587 0.511162,0.19587 0.707031,0 l 0.707032,-0.707032 c 0.195868,-0.19586 0.195868,-0.511161 0,-0.707031 L 19.414062,20 21.181641,18.232422 c 0.195868,-0.19587 0.195868,-0.511171 0,-0.707031 l -0.707032,-0.707032 c -0.195869,-0.19587 -0.511162,-0.19587 -0.707031,0 L 18,18.585938 16.232422,16.818359 c -0.09793,-0.09793 -0.225706,-0.146484 -0.353516,-0.146484 z" style="opacity: 1; fill: #000000; fill-opacity: 1; stroke: none; stroke-width: 1; stroke-linecap: round; stroke-linejoin: round; stroke-miterlimit: 4; stroke-dasharray: none; stroke-dashoffset: 0; stroke-opacity: 1;" />
</svg>