<svg width="26" height="26" viewBox="0 0 26 26" xmlns="http://www.w3.org/2000/svg">
<path d="m 13.5,20.5 -6,0 0,-15 6,0 5,5 0,5" style="opacity: 1; fill: none; fill-opacity: 1; stroke: #000000; stroke-width: 1; stroke-linecap: round; stroke-linejoin: round; stroke-miterlimit: 4; stroke-dasharray: none; stroke-dashoffset: 0; stroke-opacity: 1;" />
<path d="m 20.474874,16.81802 c -0.195869,-0.19587 -0.511238,-0.19587 -0.707107,0 L 18,18.58579 16.232233,16.81802 c -0.195869,-0.19587 -0.511238,-0.19587 -0.707107,0 l -0.707107,0.70711 c -0.195868,0.19586 -0.195868,0.51123 0,0.7071 L 16.585786,20 14.818019,21.76777 c -0.195868,0.19587 -0.195868,0.51124 0,0.7071 l 0.707107,0.70711 c 0.195869,0.19587 0.511238,0.19587 0.707107,0 L 18,21.41421 l 1.767767,1.76777 c 0.195869,0.19587 0.511238,0.19587 0.707107,0 l 0.707107,-0.70711 c 0.195868,-0.19586 0.195868,-0.51123 0,-0.7071 L 19.414214,20 21.181981,18.23223 c 0.195868,-0.19587 0.195868,-0.51124 0,-0.7071 z" style="opacity: 1; fill: #000000; fill-opacity: 1; stroke: none; stroke-width: 1; stroke-linecap: round; stroke-linejoin: round; stroke-miterlimit: 4; stroke-dasharray: none; stroke-dashoffset: 0; stroke-opacity: 1;" />
</svg>