<svg width="26" height="26" viewBox="0 0 26 26" xmlns="http://www.w3.org/2000/svg">
<path d="m 8.5,20.5 h -1 v -15 h 6 l 5,5 v 10 h -4" style="opacity: 1; fill: none; fill-opacity: 1; stroke: #000000; stroke-width: 1; stroke-linecap: round; stroke-linejoin: round; stroke-miterlimit: 4; stroke-dasharray: none; stroke-dashoffset: 0; stroke-opacity: 1;" />
<path d="m 10,18 v 2 h 1 c 0,0 -1,1 -1,3.5 0,0.277 0.223,0.5 0.5,0.5 h 2 C 12.777,24 13.03917,23.77422 13,23.5 13,21 12,20 12,20 h 1 v -2 z m 1.5,3 c 0.5,0 0.5,2 0.5,2 h -1 c 0,0 0,-2 0.5,-2 z" style="opacity: 1; fill: #000000; fill-opacity: 1; stroke: none; stroke-width: 0.75; stroke-linecap: round; stroke-linejoin: round; stroke-miterlimit: 4; stroke-dasharray: none; stroke-dashoffset: 2.79999995; stroke-opacity: 1;" />
<path d="m 11,8.5 h 2 m -3,-1 h 1.5 V 6 M 11,10.5 h 2 m -2,2 h 2 m -2,2 h 2 m -3,-5 h 2 m -2,2 h 2 m -2,2 h 2 m -2,2 h 2 M 11.5,18 V 16.5 H 13" style="fill: none; stroke: #000000; stroke-width: 1px; stroke-linecap: butt; stroke-linejoin: miter; stroke-opacity: 1;" />
</svg>