<svg width="26" height="26" viewBox="0 0 26 26" xmlns="http://www.w3.org/2000/svg">
<path d="M 7.5,5 A 0.50005,0.50005 0 0 0 7,5.5 v 15 A 0.50005,0.50005 0 0 0 7.5,21 H 9 V 17.5 C 9,17.223 9.223,17 9.5,17 H 11 v -2 h -1 v -1 h 1 v -1 h -1 v -1 h 1 v -1 h -1 v -1 h 1 V 9 H 10 V 8 h 1 V 7 H 10 V 6 h 1 V 5 Z M 12,5 v 2 h 1 v 1 h -1 v 1 h 1 v 1 h -1 v 1 h 1 v 1 h -1 v 1 h 1 v 1 h -1 v 1 h 1 v 1 h -1 v 1 h 1.5 c 0.277,0 0.5,0.223 0.5,0.5 V 21 h 4.5 A 0.50005,0.50005 0 0 0 19,20.5 v -10 a 0.50005,0.50005 0 0 0 -0.146484,-0.353516 l -5,-4.9999996 A 0.50005,0.50005 0 0 0 13.5,5 Z m -2,13 v 2 h 1 c 0,0 -1,1 -1,3.5 0,0.277 0.223,0.5 0.5,0.5 h 2 C 12.777,24 13.03917,23.77422 13,23.5 13,21 12,20 12,20 h 1 v -2 z m 1.5,3 c 0.5,0 0.5,2 0.5,2 h -1 c 0,0 0,-2 0.5,-2 z" style="opacity: 1; fill: #000000; fill-opacity: 1; stroke: none; stroke-width: 1; stroke-linecap: round; stroke-linejoin: round; stroke-miterlimit: 4; stroke-dasharray: none; stroke-dashoffset: 0; stroke-opacity: 1;" />
</svg>