<svg width="26" height="26" viewBox="0 0 26 26" xmlns="http://www.w3.org/2000/svg">
<path d="m 12.978516,3 a 0.50005,0.50005 0 0 0 -0.05078,0.00586 0.50005,0.50005 0 0 0 -0.04883,0.00977 0.50005,0.50005 0 0 0 -0.04687,0.013672 0.50005,0.50005 0 0 0 -0.04687,0.019531 0.50005,0.50005 0 0 0 -0.123047,0.083984 0.50005,0.50005 0 0 0 -0.06641,0.074219 0.50005,0.50005 0 0 0 -0.02734,0.041016 0.50005,0.50005 0 0 0 -0.02344,0.044922 0.50005,0.50005 0 0 0 -0.04102,0.1425781 0.50005,0.50005 0 0 0 -0.0039,0.056641 c 0,0.3045583 -0.228062,1.0021303 -0.626953,1.78125 -0.3989,0.7791141 -0.94864,1.6680691 -1.517587,2.5214788 C 9.2175745,9.5017413 7.9987388,11.069972 7.7089844,11.439453 l 0.017578,-0.01953 C 6.6151087,12.691242 6.0018484,14.321969 6,16.009766 6.0000002,19.864833 9.1403365,23 13,23 c 3.859663,0 7,-3.135167 7,-6.990234 -7.48e-4,-1.838832 -0.727091,-3.604511 -2.021484,-4.91211 l 0.04102,0.04883 C 17.505658,10.47537 16.356702,8.9432422 15.34375,7.3691406 14.837274,6.5820898 14.363826,5.7838515 14.025391,5.0878906 13.686955,4.3919298 13.5,3.7772356 13.5,3.4921875 A 0.50005,0.50005 0 0 0 13.48828,3.3945315 0.50005,0.50005 0 0 0 13.47461,3.3457035 0.50005,0.50005 0 0 0 13.45703,3.2988285 0.50005,0.50005 0 0 0 13.43555,3.2539065 0.50005,0.50005 0 0 0 13.40821,3.2109375 0.50005,0.50005 0 0 0 13.34376,3.1367185 0.50005,0.50005 0 0 0 13.3047,3.1035155 0.50005,0.50005 0 0 0 13.22071,3.0507815 0.50005,0.50005 0 0 0 13.173828,3.03125 0.50005,0.50005 0 0 0 13.126953,3.015625 0.50005,0.50005 0 0 0 12.978516,3 Z" style="opacity: 1; fill: #000000; fill-opacity: 1; stroke: none; stroke-width: 1; stroke-linecap: butt; stroke-linejoin: round; stroke-miterlimit: 4; stroke-dasharray: none; stroke-dashoffset: 0; stroke-opacity: 1;" />
</svg>