<svg width="26" height="26" viewBox="0 0 26 26" xmlns="http://www.w3.org/2000/svg">
<path d="m 12.978516,2.9999996 a 0.50005,0.50005 0 0 0 -0.05078,0.00586 0.50005,0.50005 0 0 0 -0.04883,0.00977 0.50005,0.50005 0 0 0 -0.04687,0.013672 0.50005,0.50005 0 0 0 -0.04687,0.019531 0.50005,0.50005 0 0 0 -0.123047,0.083984 0.50005,0.50005 0 0 0 -0.06641,0.074219 0.50005,0.50005 0 0 0 -0.02734,0.041016 0.50005,0.50005 0 0 0 -0.02344,0.044922 0.50005,0.50005 0 0 0 -0.04102,0.1425781 0.50005,0.50005 0 0 0 -0.0039,0.056641 c 0,0.3045583 -0.228062,1.0021303 -0.626953,1.78125 -0.3989,0.7791141 -0.948631,1.6680747 -1.517578,2.5214844 C 9.2175751,9.5017409 7.9987391,11.069972 7.7089851,11.439453 l 0.01758,-0.01953 c -1.111454,1.271318 -1.724714,2.902046 -1.726563,4.589843 0,0.853954 0.16149,1.668728 0.44336,2.425781 L 16.224609,8.6542965 C 15.928112,8.2266376 15.636128,7.8234888 15.34375,7.3691402 14.837274,6.5820894 14.363826,5.7838511 14.025391,5.0878902 13.686955,4.3919294 13.5,3.7772352 13.5,3.4921871 A 0.50005,0.50005 0 0 0 13.48828,3.3945311 0.50005,0.50005 0 0 0 13.47461,3.3457031 0.50005,0.50005 0 0 0 13.45703,3.2988281 0.50005,0.50005 0 0 0 13.43555,3.2539061 0.50005,0.50005 0 0 0 13.40821,3.2109371 0.50005,0.50005 0 0 0 13.34376,3.1367181 0.50005,0.50005 0 0 0 13.3047,3.1035151 0.50005,0.50005 0 0 0 13.22071,3.0507811 0.50005,0.50005 0 0 0 13.17383,3.0312496 0.50005,0.50005 0 0 0 13.12696,3.0156246 0.50005,0.50005 0 0 0 12.978523,2.9999996 Z M 18,11.121094 8.1132821,21.005859 C 9.3759401,22.237854 11.099455,23 13,23 c 3.859663,0 7,-3.135167 7,-6.990234 -7.42e-4,-1.824949 -0.718043,-3.57629 -1.994141,-4.88086 -0.0013,-0.0017 -0.0045,-0.0061 -0.0059,-0.0078 z" style="opacity: 1; fill: #000000; fill-opacity: 1; stroke: none; stroke-width: 1; stroke-linecap: butt; stroke-linejoin: round; stroke-miterlimit: 4; stroke-dasharray: none; stroke-dashoffset: 0; stroke-opacity: 1;" />
<path d="M 4.5050501,22.49495 20.494948,6.5050483" style="fill: none; stroke: #000000; stroke-width: 1px; stroke-linecap: round; stroke-linejoin: miter; stroke-opacity: 1;" />
</svg>