<svg width="26" height="26" viewBox="0 0 26 26" xmlns="http://www.w3.org/2000/svg">
<path d="m 12.5,8 -4,4 -1,3.5 -2,2 1,1 2,-2 3.5,-1 4,-4" style="fill: none; stroke: #000000; stroke-width: 1px; stroke-linecap: round; stroke-linejoin: round; stroke-opacity: 1;" />
<path d="M 18.3125,2.9375 C 17.5625,2.9375 16.75,3.25 16,4 L 13.5,6.5 12,6 11,7 17,13 18,12 17.5,10.5 20,8 C 22.25,5.75 20.5625,2.9375 18.3125,2.9375 Z M 10,12 l -0.5,0.5 -1,3 3,-1 L 14,12 Z m 8.433594,2 c -0.13631,-7e-5 -0.266468,0.0545 -0.361328,0.152344 -0.1916,0.1973 -0.188971,0.512461 0.0059,0.707031 L 19.146525,15.927734 14.16215,21.625 c -0.4886,0.47435 0.238241,1.20118 0.712891,0.71289 l 5.697266,-4.984374 1.068359,1.068359 c 0.31738,0.31714 0.859335,0.09314 0.859375,-0.355469 v -3.5625 C 22.49987,14.225816 22.274174,14.00013 21.996094,14 Z M 6,18.25 C 6.04421,18.94972 5.44824,20.32953 4.871094,21.10742 4.668551,21.38042 4.500395,21.70807 4.5,22.05664 4.5,22.85396 5.171574,23.5 6,23.5 6.828425,23.5 7.5,22.85396 7.5,22.05664 7.499838,21.67687 7.246035,21.36443 7.066406,21.04297 6.482742,20.25574 6.022093,18.955461 6,18.25 Z" style="fill: #000000; fill-opacity: 1; stroke: none; stroke-width: 1px; stroke-linecap: butt; stroke-linejoin: miter; stroke-opacity: 1;" />
</svg>