<svg width="26" height="26" viewBox="0 0 26 26" xmlns="http://www.w3.org/2000/svg">
<path d="m 12.5,8 -4,4 -1,3.5 -2,2 1,1 2,-2 3.5,-1 4,-4" style="fill: none; stroke: #000000; stroke-width: 1px; stroke-linecap: round; stroke-linejoin: round; stroke-opacity: 1;" />
<path d="M 18.3125,2.9375 C 17.5625,2.9375 16.75,3.25 16,4 L 13.5,6.5 12,6 11,7 17,13 18,12 17.5,10.5 20,8 C 22.25,5.75 20.5625,2.9375 18.3125,2.9375 Z M 10,12 l -0.5,0.5 -1,3 3,-1 L 14,12 Z M 6,18.25 C 6.04421,18.94972 5.44824,20.32953 4.871094,21.10742 4.668551,21.38042 4.500395,21.70807 4.5,22.05664 4.5,22.85396 5.171574,23.5 6,23.5 6.828425,23.5 7.5,22.85396 7.5,22.05664 7.499838,21.67687 7.246035,21.36443 7.066406,21.04297 6.482742,20.25574 6.022093,18.955461 6,18.25 Z" style="fill: #000000; fill-opacity: 1; stroke: none; stroke-width: 1px; stroke-linecap: butt; stroke-linejoin: miter; stroke-opacity: 1;" />
</svg>