<svg width="26" height="26" viewBox="0 0 26 26" xmlns="http://www.w3.org/2000/svg">
<path d="M 12.500001,8 8.5,12 l -1,3.5 -2,2 1,1 2,-2 3.500001,-1 4,-4" style="fill: none; stroke: #000000; stroke-width: 1px; stroke-linecap: round; stroke-linejoin: round; stroke-opacity: 1;" />
<path d="m 18.312501,2.9375 c -0.75,0 -1.5625,0.3125 -2.3125,1.0625 l -2.5,2.5 -1.5,-0.5 -1,1 6,6 1,-1 -0.5,-1.5 2.5,-2.5 c 2.25,-2.25 0.5625,-5.0625 -1.6875,-5.0625 z M 10.000001,12 9.5000005,12.5 8.5,15.5 l 3.000001,-1 2.5,-2.5 z m 12.005858,2.5 c -0.12721,-0.0068 -0.262197,0.04004 -0.380859,0.162109 l -5.697265,4.984375 -1.06836,-1.068359 C 14.541995,18.260985 14.00004,18.484985 14,18.933594 l 0.002,3.562496 c 1.31e-4,0.27809 0.225826,0.50378 0.503907,0.50391 h 3.560547 c 0.13631,7e-5 0.266467,-0.0545 0.361328,-0.15234 0.1916,-0.1973 0.18897,-0.51246 -0.0059,-0.70704 l -1.06837,-1.06835 4.984375,-5.69727 c 0.36645,-0.355762 0.0496,-0.854468 -0.332031,-0.875 z M 6,18.25 C 6.04421,18.94972 5.44824,20.32953 4.871094,21.10742 4.668551,21.38042 4.500395,21.70807 4.5,22.05664 4.5,22.85396 5.171574,23.5 6,23.5 6.828425,23.5 7.5,22.85396 7.5,22.05664 7.499838,21.67687 7.246035,21.36443 7.066406,21.04297 6.482742,20.25574 6.022093,18.955461 6,18.25 Z" style="fill: #000000; fill-opacity: 1; stroke: none; stroke-width: 1px; stroke-linecap: butt; stroke-linejoin: miter; stroke-opacity: 1;" />
</svg>