<svg width="26" height="26" viewBox="0 0 26 26" xmlns="http://www.w3.org/2000/svg">
<path d="M 5.499588,21.49995 H 4.50005 v -1 m 3.998151,1 h 0.999538 z m 3.998152,0 h 0.999538 z m -7.996303,-4 v -1 z m 0,-4 v -1 z m 0,-4 v -1 h 0.999538 m 12.002261,12 v 1 h -0.999538 m 0.999538,-6.5 v 2.5 H 21.5 v -13 H 8.506008 v 4 h 2.498844" style="fill: none; stroke: #000000; stroke-width: 1px; stroke-linecap: round; stroke-linejoin: round; stroke-opacity: 1;" />
<path d="m 19.000001,11.49044 c -1.7e-4,0.44437 -0.53738,0.66688 -0.85171,0.35276 l -1.23225,-1.23225 -5.04741,4.22591 c -0.47026,0.48976 -1.1953,-0.23528 -0.70554,-0.70554 l 4.22591,-5.0474 -1.23225,-1.23226 c -0.31412,-0.31433 -0.0916,-0.85153 0.35277,-0.85171 h 3.99154 c 0.27555,3e-5 0.49891,0.2234 0.49894,0.49895 z" style="opacity: 1; fill: #000000; fill-opacity: 1; stroke: none; stroke-width: 1px; stroke-linecap: butt; stroke-linejoin: round; stroke-miterlimit: 4; stroke-dasharray: none; stroke-dashoffset: 0; stroke-opacity: 1;" />
</svg>