<svg width="26" height="26" viewBox="0 0 26 26" xmlns="http://www.w3.org/2000/svg">
<path d="m 5,6.99995 c -1.64501,0 -3,1.35499 -3,3 0,1.64501 1.35499,3 3,3 0.45986,0 0.89194,-0.11422 1.2832,-0.30273 L 7.08594,13.49995 6.2832,14.30268 C 5.89194,14.11417 5.45986,13.99995 5,13.99995 c -1.64501,0 -3,1.35499 -3,3 0,1.64501 1.35499,3 3,3 1.64501,0 3,-1.35499 3,-3 0,-0.45986 -0.11423,-0.89194 -0.30273,-1.2832 l 7.71679,-7.7168 H 12.58594 L 8.5,12.08589 7.69727,11.28315 C 7.88577,10.89189 8,10.45981 8,9.99995 c 0,-1.64501 -1.35499,-3 -3,-3 z m 0,2 c 0.56413,0 1,0.43587 1,1 0,0.56413 -0.43587,1 -1,1 -0.56413,0 -1,-0.43587 -1,-1 0,-0.56413 0.43587,-1 1,-1 z m 3.5,4 c 0.27614,0 0.5,0.22386 0.5,0.5 0,0.27614 -0.22386,0.5 -0.5,0.5 -0.27614,0 -0.5,-0.22386 -0.5,-0.5 0,-0.27614 0.22386,-0.5 0.5,-0.5 z m 2.20703,1.29297 -1.41406,1.41406 3.29297,3.29297 h 2.82812 z M 5,15.99995 c 0.56413,0 1,0.43587 1,1 0,0.56413 -0.43587,1 -1,1 -0.56413,0 -1,-0.43587 -1,-1 0,-0.56413 0.43587,-1 1,-1 z" style="opacity: 1; fill: #000000; fill-opacity: 1; stroke: none; stroke-width: 2; stroke-linecap: butt; stroke-linejoin: round; stroke-miterlimit: 4; stroke-dasharray: none; stroke-dashoffset: 0; stroke-opacity: 1;" />
<path d="m 4.5,5.49995 v -1 h 13 v 4 h -1 m 4.00781,13 h 1 v -1 m -4,1 h -1 z m -4,0 h -1 z m 8,-4 v -1 z m 0,-4 v -1 z m 0,-4 v -1 h -1 m -12.00781,12 v 1 h 1" style="opacity: 1; fill: none; fill-opacity: 1; stroke: #000000; stroke-width: 0.99999994; stroke-linecap: round; stroke-linejoin: round; stroke-miterlimit: 4; stroke-dasharray: none; stroke-dashoffset: 0; stroke-opacity: 1;" />
</svg>