<svg width="26" height="26" viewBox="0 0 26 26" xmlns="http://www.w3.org/2000/svg">
<path d="M 15,10.50947 C 14.99983,10.06509 14.46262,9.84259 14.14829,10.1567 L 12.91604,11.38895 7.86863,7.16304 C 7.39837,6.67328 6.67333,7.39832 7.16309,7.86858 l 4.22591,5.04741 -1.23225,1.23225 c -0.31411,0.31433 -0.0916,0.85154 0.35277,0.85171 h 3.99154 C 14.7766,14.99992 14.99997,14.77656 15,14.50101 Z" style="opacity: 1; fill: #000000; fill-opacity: 1; stroke: none; stroke-width: 1px; stroke-linecap: butt; stroke-linejoin: round; stroke-miterlimit: 4; stroke-dasharray: none; stroke-dashoffset: 0; stroke-opacity: 1;" />
<path d="m 20.50781,21.49995 h 1 v -1 m -4,1 h -1 z m -4,0 h -1 z m 8,-4 v -1 z m 0,-4 v -1 z m 0,-4 v -1 h -1 m -12.00781,12 v 1 h 1 m -1,-6.5 v 2.5 h -4 v -13 h 13 v 4 H 15" style="fill: none; stroke: #000000; stroke-width: 1px; stroke-linecap: round; stroke-linejoin: round; stroke-opacity: 1;" />
</svg>