<svg width="26" height="26" viewBox="0 0 26 26" xmlns="http://www.w3.org/2000/svg">
<path d="m 19.146484,4.147684 -2,1.999821 c -0.19518,0.195252 -0.19518,0.511726 0,0.706968 l 2,1.99982 c 0.19527,0.195174 0.511772,0.195174 0.707032,0 l 2,-1.99982 c 0.19519,-0.195242 0.19519,-0.511716 0,-0.706968 l -2,-1.999821 c -0.205166,-0.218735 -0.541015,-0.173812 -0.707032,0 z m -4,3.999641 -7,6.999731 c -0.19518,0.195253 -0.19518,0.511716 0,0.706969 l 2,1.999819 c 0.19527,0.195162 0.511772,0.195162 0.707032,0 l 7,-6.99973 c 0.19519,-0.195252 0.19519,-0.511716 0,-0.706968 l -2,-1.999821 c -0.244229,-0.253889 -0.463436,-0.210919 -0.707032,0 z M 7.052734,16.277814 6,18.75 7.25,20 9.722656,18.947493 c 0.30552,-0.152276 0.37201,-0.559111 0.13086,-0.80071 l -2,-1.999819 C 7.560558,15.885959 7.138107,16.055734 7.052734,16.277812 Z M 5.75,19.25 5,21 6.75,20.25 Z M 4.8789062,4.671875 c -0.1278095,0 -0.2555813,0.04855 -0.3535156,0.1464844 L 3.8183594,5.5253906 c -0.1958686,0.1958686 -0.1958686,0.5111627 0,0.7070313 L 5.5859375,8 3.8183594,9.767578 c -0.1958686,0.195869 -0.1958686,0.511163 0,0.707031 l 0.7070312,0.707032 c 0.1958686,0.195868 0.5111627,0.195868 0.7070313,0 L 7,9.414062 8.7675781,11.181641 c 0.1958686,0.195868 0.5111629,0.195868 0.7070309,0 l 0.707032,-0.707032 c 0.195868,-0.195868 0.195868,-0.511162 0,-0.707031 L 8.4140625,8 10.181641,6.2324219 c 0.195868,-0.1958686 0.195868,-0.5111627 0,-0.7070313 L 9.474609,4.8183594 c -0.195868,-0.1958686 -0.5111623,-0.1958686 -0.7070309,0 L 7,6.5859375 5.2324219,4.8183594 C 5.1344876,4.7204251 5.0067158,4.671875 4.8789062,4.671875 Z" style="opacity: 1; fill: #000000; fill-opacity: 1; stroke: none; stroke-width: 1px; stroke-linecap: round; stroke-linejoin: miter; stroke-miterlimit: 4; stroke-dasharray: none; stroke-dashoffset: 0; stroke-opacity: 1;" />
<path d="M 16.5,7.5 20,11.000001 16,15" style="fill: none; stroke: #000000; stroke-width: 1px; stroke-linecap: round; stroke-linejoin: round; stroke-opacity: 1;" />
</svg>