<svg width="26" height="26" viewBox="0 0 26 26" xmlns="http://www.w3.org/2000/svg">
<path d="M 14.5,6.9999996 C 14.223,6.9999996 14,7.223 14,7.5 V 10 H 11.5 C 11.223,10 11,10.223 11,10.5 v 1 c 0,0.277 0.223,0.5 0.5,0.5 H 14 v 2.5 c 0,0.277 0.223,0.5 0.5,0.5 h 1 C 15.777,15 16,14.777 16,14.5 V 12 h 2.5 c 0.277,0 0.5,-0.223 0.5,-0.5 v -1 C 19,10.223 18.777,10 18.5,10 H 16 V 7.5 C 16,7.223 15.777,6.9999996 15.5,6.9999996 Z" style="opacity: 1; fill: #000000; fill-opacity: 1; stroke: none; stroke-width: 1; stroke-linecap: round; stroke-linejoin: round; stroke-miterlimit: 4; stroke-dasharray: none; stroke-dashoffset: 0; stroke-opacity: 1;" />
<path d="M 12,8.5 H 4.5 v 13 h 13 V 14 m 0,3.5 h 4 V 4.4999998 H 8.5 V 8.5" style="opacity: 1; fill: none; fill-opacity: 1; stroke: #000000; stroke-width: 0.99999994; stroke-linecap: round; stroke-linejoin: round; stroke-miterlimit: 4; stroke-dasharray: none; stroke-dashoffset: 0; stroke-opacity: 1;" />
</svg>