<svg width="26" height="26" viewBox="0 0 26 26" xmlns="http://www.w3.org/2000/svg">
<path d="m 19.146484,4.147684 -2,1.999821 c -0.19518,0.195252 -0.19518,0.511726 0,0.706968 l 2,1.99982 c 0.19527,0.195174 0.511772,0.195174 0.707032,0 l 2,-1.99982 c 0.19519,-0.195242 0.19519,-0.511716 0,-0.706968 l -2,-1.999821 c -0.205166,-0.218735 -0.541015,-0.173812 -0.707032,0 z m -4,3.999641 -7,6.999731 c -0.19518,0.195253 -0.19518,0.511716 0,0.706969 l 2,1.999819 c 0.19527,0.195162 0.511772,0.195162 0.707032,0 l 7,-6.99973 c 0.19519,-0.195252 0.19519,-0.511716 0,-0.706968 l -2,-1.999821 c -0.244229,-0.253889 -0.463436,-0.210919 -0.707032,0 z M 7.052734,16.277814 6,18.75 7.25,20 9.722656,18.947493 c 0.30552,-0.152276 0.37201,-0.559111 0.13086,-0.80071 l -2,-1.999819 C 7.560558,15.885959 7.138107,16.055734 7.052734,16.277812 Z M 5.75,19.25 5,21 6.75,20.25 Z" style="opacity: 1; fill: #000000; fill-opacity: 1; stroke: none; stroke-width: 1px; stroke-linecap: round; stroke-linejoin: miter; stroke-miterlimit: 4; stroke-dasharray: none; stroke-dashoffset: 0; stroke-opacity: 1;" />
<path d="M 16.5,7.5 20,11.000001 16,15" style="fill: none; stroke: #000000; stroke-width: 1px; stroke-linecap: round; stroke-linejoin: round; stroke-opacity: 1;" />
</svg>