<svg width="26" height="26" viewBox="0 0 26 26" xmlns="http://www.w3.org/2000/svg">
<path d="M 12.992188 6.5 A 0.50005 0.50005 0 0 0 12.646484 6.6464844 L 7.1464844 12.146484 A 0.50005 0.50005 0 0 0 7.5 13 L 18.5 13 A 0.50005 0.50005 0 0 0 18.853516 12.146484 L 13.353516 6.6464844 A 0.50005 0.50005 0 0 0 12.992188 6.5 z M 7.5 15 C 7.223 15 7 15.223 7 15.5 L 7 17.5 C 7 17.777 7.223 18 7.5 18 L 18.5 18 C 18.777 18 19 17.777 19 17.5 L 19 15.5 C 19 15.223 18.777 15 18.5 15 L 7.5 15 z " style="opacity: 1; fill: #000000; fill-opacity: 1; stroke: none; stroke-width: 1px; stroke-linecap: butt; stroke-linejoin: round; stroke-miterlimit: 4; stroke-dasharray: none; stroke-dashoffset: 0; stroke-opacity: 1;" />
</svg>