<svg width="26" height="26" viewBox="0 0 26 26" xmlns="http://www.w3.org/2000/svg">
<path d="M 5.5 11 C 5.223 11 5 11.223 5 11.5 L 5 14.5 C 5 14.777 5.223 15 5.5 15 L 8.5 15 C 8.777 15 9 14.777 9 14.5 L 9 11.5 C 9 11.223 8.777 11 8.5 11 L 5.5 11 z M 11.5 11 C 11.223 11 11 11.223 11 11.5 L 11 14.5 C 11 14.777 11.223 15 11.5 15 L 14.5 15 C 14.777 15 15 14.777 15 14.5 L 15 11.5 C 15 11.223 14.777 11 14.5 11 L 11.5 11 z M 17.5 11 C 17.223 11 17 11.223 17 11.5 L 17 14.5 C 17 14.777 17.223 15 17.5 15 L 20.5 15 C 20.777 15 21 14.777 21 14.5 L 21 11.5 C 21 11.223 20.777 11 20.5 11 L 17.5 11 z " style="opacity: 1; fill: #000000; fill-opacity: 1; stroke: none; stroke-width: 1; stroke-linecap: round; stroke-linejoin: round; stroke-miterlimit: 4; stroke-dasharray: none; stroke-dashoffset: 0; stroke-opacity: 1;" />
</svg>