<svg width="26" height="26" viewBox="0 0 26 26" xmlns="http://www.w3.org/2000/svg">
<path d="M 15,5.5 C 15,5.223 14.777,5 14.5,5 l -3,0 C 11.223,5 11,5.223 11,5.5 l 0,3 C 11,8.777 11.223,9 11.5,9 l 3,0 C 14.777,9 15,8.777 15,8.5 l 0,-3 z m 0,6 C 15,11.223 14.777,11 14.5,11 l -3,0 C 11.223,11 11,11.223 11,11.5 l 0,3 c 0,0.277 0.223,0.5 0.5,0.5 l 3,0 c 0.277,0 0.5,-0.223 0.5,-0.5 l 0,-3 z m 0,6 C 15,17.223 14.777,17 14.5,17 l -3,0 C 11.223,17 11,17.223 11,17.5 l 0,3 c 0,0.277 0.223,0.5 0.5,0.5 l 3,0 c 0.277,0 0.5,-0.223 0.5,-0.5 l 0,-3 z" style="opacity: 1; fill: #000000; fill-opacity: 1; stroke: none; stroke-width: 1; stroke-linecap: round; stroke-linejoin: round; stroke-miterlimit: 4; stroke-dasharray: none; stroke-dashoffset: 0; stroke-opacity: 1;" />
</svg>