<svg width="26" height="26" viewBox="0 0 26 26" xmlns="http://www.w3.org/2000/svg">
<path d="m 4,14 6.441915,0 -3.941406,5 2.5,0 4.289062,-5.386719 c 0.280572,-0.360866 0.280571,-0.865696 0,-1.226562 L 9.000509,7 l -2.5,0 3.941406,5 L 4,12 4,13 Z" style="opacity: 1; fill: #000000; fill-opacity: 1; stroke: none; stroke-width: 2; stroke-linecap: butt; stroke-linejoin: round; stroke-miterlimit: 4; stroke-dasharray: none; stroke-dashoffset: 0; stroke-opacity: 1;" />
<path d="M 13.5,4 C 13.223,4 13,4.223 13,4.5 l 0,2 C 13,6.777 13.223,7 13.5,7 l 4.5,0 0,12 -4.5,0 C 13.223,19 13,19.223 13,19.5 l 0,2 c 0,0.277 0.223,0.5 0.5,0.5 l 7,0 c 0.277,0 0.5,-0.223 0.5,-0.5 l 0,-17 C 21,4.223 20.777,4 20.5,4 Z" style="opacity: 1; fill: #000000; fill-opacity: 1; stroke: none; stroke-width: 2; stroke-linecap: butt; stroke-linejoin: round; stroke-miterlimit: 4; stroke-dasharray: none; stroke-dashoffset: 0; stroke-opacity: 0.55357139;" />
</svg>