<svg width="26" height="26" viewBox="0 0 26 26" xmlns="http://www.w3.org/2000/svg">
<path d="M 5.5 8 A 0.50005 0.50005 0 0 0 5 8.5 L 5 18.5 A 0.50005 0.50005 0 0 0 5.5 19 L 15 19 L 15 16.5 C 15 16.223 15.223 16 15.5 16 L 17.292969 16 L 15.5 14.207031 L 13.353516 16.353516 A 0.50004997 0.50004997 0 0 1 12.646484 16.353516 L 10.5 14.207031 L 6.859375 17.849609 A 0.50004997 0.50004997 0 1 1 6.1523438 17.142578 L 9.7929688 13.5 L 6.1523438 9.8574219 A 0.50004997 0.50004997 0 0 1 6.5 9 A 0.50004997 0.50004997 0 0 1 6.859375 9.1503906 L 10.779297 13.072266 A 0.50004997 0.50004997 0 0 0 10.78125 13.074219 A 0.50004997 0.50004997 0 0 1 10.925781 13.21875 L 13 15.292969 L 15.078125 13.214844 A 0.50004997 0.50004997 0 0 1 15.21875 13.074219 L 19.140625 9.1503906 A 0.50004997 0.50004997 0 0 1 19.490234 8.9960938 A 0.50004997 0.50004997 0 0 1 19.847656 9.8574219 L 16.207031 13.5 L 18 15.292969 L 18 13.5 C 18 13.223 18.223 13 18.5 13 L 21 13 L 21 8.5 A 0.50005 0.50005 0 0 0 20.5 8 L 5.5 8 z " style="opacity: 1; fill: #000000; fill-opacity: 1; stroke: none; stroke-width: 1px; stroke-linecap: butt; stroke-linejoin: round; stroke-miterlimit: 4; stroke-dasharray: none; stroke-dashoffset: 0; stroke-opacity: 1;" />
<path d="M 19.5,14 C 19.223,14 19,14.223 19,14.5 V 17 H 16.5 C 16.223,17 16,17.223 16,17.5 v 1 c 0,0.276999 0.223,0.5 0.5,0.5 H 19 v 2.5 c 0,0.277 0.223,0.5 0.5,0.5 h 1 C 20.777,22 21,21.777 21,21.5 V 19 h 2.5 c 0.277,0 0.5,-0.223001 0.5,-0.5 v -1 C 24,17.223 23.777,17 23.5,17 H 21 V 14.5 C 21,14.223 20.777,14 20.5,14 Z" style="opacity: 1; fill: #000000; fill-opacity: 1; stroke: none; stroke-width: 1; stroke-linecap: round; stroke-linejoin: round; stroke-miterlimit: 4; stroke-dasharray: none; stroke-dashoffset: 0; stroke-opacity: 1;" />
</svg>