<svg width="26" height="26" viewBox="0 0 26 26" xmlns="http://www.w3.org/2000/svg">
<path d="M 13 3 C 12.747643 3 12.4952 3.1680044 12.5 3.5058594 L 12 9.0019531 L 9.5 9.0019531 C 9.226932 9.0019431 9.0043 9.2212496 9 9.4941406 C 8.997928 9.6293506 9.0507844 9.7598688 9.1464844 9.8554688 L 12.646484 14.353516 C 12.841719 14.548566 13.158281 14.548566 13.353516 14.353516 L 16.853516 9.8554688 C 17.168247 9.5406778 16.945251 9.0021231 16.5 9.0019531 L 14 9.0019531 L 13.5 3.5058594 C 13.50478 3.1680044 13.252357 3 13 3 z M 5.5 11 A 0.50005 0.50005 0 0 0 5 11.5 L 5 21.5 A 0.50005 0.50005 0 0 0 5.5 22 L 20.5 22 A 0.50005 0.50005 0 0 0 21 21.5 L 21 11.5 A 0.50005 0.50005 0 0 0 20.5 11 L 17.228516 11 L 14.142578 14.966797 A 1.0001 1.0001 0 0 1 14.060547 15.060547 C 13.483084 15.637462 12.516916 15.637462 11.939453 15.060547 A 1.0001 1.0001 0 0 1 11.857422 14.966797 L 8.7714844 11 L 5.5 11 z M 19.490234 11.996094 A 0.50004997 0.50004997 0 0 1 19.847656 12.857422 L 16.207031 16.5 L 19.847656 20.142578 A 0.50004997 0.50004997 0 1 1 19.140625 20.849609 L 15.5 17.207031 L 13.353516 19.353516 A 0.50004997 0.50004997 0 0 1 12.646484 19.353516 L 10.5 17.207031 L 6.859375 20.849609 A 0.50004997 0.50004997 0 1 1 6.1523438 20.142578 L 9.7929688 16.5 L 6.1523438 12.857422 A 0.50004997 0.50004997 0 0 1 6.5 12 A 0.50004997 0.50004997 0 0 1 6.859375 12.150391 L 10.779297 16.072266 A 0.50004997 0.50004997 0 0 0 10.78125 16.074219 A 0.50004997 0.50004997 0 0 1 10.925781 16.21875 L 13 18.292969 L 15.078125 16.214844 A 0.50004997 0.50004997 0 0 1 15.21875 16.074219 L 19.140625 12.150391 A 0.50004997 0.50004997 0 0 1 19.490234 11.996094 z " style="opacity: 1; fill: #000000; fill-opacity: 1; stroke: none; stroke-width: 1px; stroke-linecap: butt; stroke-linejoin: round; stroke-miterlimit: 4; stroke-dasharray: none; stroke-dashoffset: 0; stroke-opacity: 1;" />
</svg>