<svg width="26" height="26" viewBox="0 0 26 26" xmlns="http://www.w3.org/2000/svg">
<path d="M 8.5 4 C 8.223869 4.0000276 8.000028 4.2238691 8 4.5 L 8 8.0410156 L 5.5136719 10.029297 L 5.5 10 C 5.2238691 10.000028 5.0000276 10.223869 5 10.5 L 5 20.5 C 5.0000276 20.776131 5.2238691 20.999972 5.5 21 L 20.5 21 C 20.776131 20.999972 20.999972 20.776131 21 20.5 L 21 10.5 C 20.999972 10.223869 20.776131 10.000028 20.5 10 C 20.5 10 20.487108 10.027747 20.486328 10.029297 L 18 8.0410156 L 18 7.5 C 17.999975 7.3674006 17.94728 7.2402403 17.853516 7.1464844 L 14.853516 4.1464844 C 14.75976 4.0527162 14.6326 4.0000254 14.5 4 L 8.5 4 z M 10.347656 7 A 0.50005 0.50005 0 0 1 10.382812 7 L 14.373047 7 A 0.50005 0.50005 0 1 1 14.373047 8 L 10.382812 8 A 0.50030889 0.50030889 0 0 1 10.347656 7 z M 10.347656 9 A 0.50005 0.50005 0 0 1 10.382812 9 L 15.371094 9 A 0.50005 0.50005 0 1 1 15.371094 10 L 10.382812 10 A 0.50030889 0.50030889 0 0 1 10.347656 9 z M 8 9.9589844 L 8 11.919922 L 11.222656 15.5 L 14.777344 15.5 L 18 11.919922 L 18 9.9589844 L 19.71875 11.333984 L 17.478516 13.992188 L 16.121094 15.5 L 16.207031 15.5 L 19.847656 19.142578 C 20.338493 19.613832 19.611879 20.340446 19.140625 19.849609 L 15.5 16.207031 L 10.5 16.207031 L 6.859375 19.849609 C 6.3881209 20.340446 5.6615067 19.613832 6.1523438 19.142578 L 9.7929688 15.5 L 9.8789062 15.5 L 8.5214844 13.992188 L 6.28125 11.333984 L 8 9.9589844 z M 10.347656 11 A 0.50005 0.50005 0 0 1 10.382812 11 L 15.375 11 A 0.50005 0.50005 0 1 1 15.375 12 L 10.382812 12 A 0.50030889 0.50030889 0 0 1 10.347656 11 z M 11.347656 13 A 0.50005 0.50005 0 0 1 11.382812 13 L 13.376953 13 A 0.50005 0.50005 0 1 1 13.376953 14 L 11.382812 14 A 0.50030889 0.50030889 0 0 1 11.347656 13 z " style="opacity: 1; fill: #000000; fill-opacity: 1; stroke: none; stroke-width: 1px; stroke-linecap: round; stroke-linejoin: round; stroke-miterlimit: 4; stroke-dasharray: none; stroke-dashoffset: 0; stroke-opacity: 1;" />
</svg>