<svg width="26" height="26" viewBox="0 0 26 26" xmlns="http://www.w3.org/2000/svg">
<path d="m 12.980469,4.25 c -0.16363,0.00421 -0.321391,0.061825 -0.449219,0.164062 L 5.5136719,10.029297 5.5,10 c -0.2761309,2.8e-5 -0.4999724,0.223869 -0.5,0.5 v 10 c 2.76e-5,0.276131 0.2238691,0.499972 0.5,0.5 h 15 c 0.276131,-2.8e-5 0.499972,-0.223869 0.5,-0.5 v -10 c -2.8e-5,-0.276131 -0.223869,-0.499972 -0.5,-0.5 0,0 -0.01289,0.02775 -0.01367,0.0293 L 13.46875,4.414062 C 13.330459,4.30345 13.157493,4.2453335 12.980469,4.25 Z M 13,5.960938 19.71875,11.333984 16.207031,15.5 l 3.640625,3.642578 c 0.490837,0.471254 -0.235777,1.197868 -0.707031,0.707031 L 15.5,16.207031 h -5 L 6.859375,19.849609 C 6.3881209,20.340446 5.6615067,19.613832 6.1523438,19.142578 L 9.7929688,15.5 6.28125,11.333984 Z" style="opacity: 1; fill: #000000; fill-opacity: 1; stroke: none; stroke-width: 1px; stroke-linecap: butt; stroke-linejoin: round; stroke-miterlimit: 4; stroke-dasharray: none; stroke-dashoffset: 0; stroke-opacity: 1;" />
</svg>