<svg width="26" height="26" viewBox="0 0 26 26" xmlns="http://www.w3.org/2000/svg">
<path d="M 13 3.5 C 12.872078 3.5 12.744102 3.5489594 12.646484 3.6464844 L 9.1464844 8.1445312 C 9.0507844 8.2401312 8.997928 8.3706494 9 8.5058594 C 9.0043 8.7787504 9.226932 8.9980569 9.5 8.9980469 L 12 8.9980469 L 12.5 14.494141 C 12.4904 15.169851 13.509561 15.169851 13.5 14.494141 L 14 8.9980469 L 16.5 8.9980469 C 16.945251 8.9978769 17.168247 8.4593222 16.853516 8.1445312 L 13.353516 3.6464844 C 13.255898 3.5489594 13.127922 3.5 13 3.5 z M 5.5 11 A 0.50005 0.50005 0 0 0 5 11.5 L 5 21.5 A 0.50005 0.50005 0 0 0 5.5 22 L 20.5 22 A 0.50005 0.50005 0 0 0 21 21.5 L 21 11.5 A 0.50005 0.50005 0 0 0 20.5 11 L 14.820312 11 L 14.496094 14.578125 L 14.5 14.472656 C 14.5059 14.892851 14.315268 15.340436 14.013672 15.611328 C 13.712076 15.882219 13.349311 15.994141 13 15.994141 C 12.650689 15.994141 12.285974 15.882235 11.984375 15.611328 C 11.682776 15.34042 11.49403 14.89285 11.5 14.472656 L 11.503906 14.578125 L 11.177734 11 L 5.5 11 z M 19.490234 11.996094 A 0.50004997 0.50004997 0 0 1 19.847656 12.857422 L 16.207031 16.5 L 19.847656 20.142578 A 0.50004997 0.50004997 0 1 1 19.140625 20.849609 L 15.5 17.207031 L 13.353516 19.353516 A 0.50004997 0.50004997 0 0 1 12.646484 19.353516 L 10.5 17.207031 L 6.859375 20.849609 A 0.50004997 0.50004997 0 1 1 6.1523438 20.142578 L 9.7929688 16.5 L 6.1523438 12.857422 A 0.50004997 0.50004997 0 0 1 6.5 12 A 0.50004997 0.50004997 0 0 1 6.859375 12.150391 L 10.779297 16.072266 A 0.50004997 0.50004997 0 0 0 10.78125 16.074219 A 0.50004997 0.50004997 0 0 1 10.925781 16.21875 L 13 18.292969 L 15.078125 16.214844 A 0.50004997 0.50004997 0 0 1 15.21875 16.074219 L 19.140625 12.150391 A 0.50004997 0.50004997 0 0 1 19.490234 11.996094 z " style="opacity: 1; fill: #000000; fill-opacity: 1; stroke: none; stroke-width: 1px; stroke-linecap: butt; stroke-linejoin: round; stroke-miterlimit: 4; stroke-dasharray: none; stroke-dashoffset: 0; stroke-opacity: 1;" />
</svg>