<svg width="26" height="26" viewBox="0 0 26 26" xmlns="http://www.w3.org/2000/svg">
<path d="m 15.5,11.5 h 5 v 10 h -15 v -10 h 5" style="fill: none; stroke: #000000; stroke-width: 1px; stroke-linecap: round; stroke-linejoin: round; stroke-opacity: 1;" />
<path d="M 5.505335,11.504732 13,19 20.494665,11.504732" style="fill: none; stroke: #000000; stroke-width: 0.99999994px; stroke-linecap: round; stroke-linejoin: round; stroke-opacity: 1;" />
<path d="m 6.005335,20.995235 4.497333,-4.497634 m 4.994664,0 4.497333,4.497634" style="fill: none; stroke: #000000; stroke-width: 0.99999994px; stroke-linecap: round; stroke-linejoin: round; stroke-opacity: 1;" />
<path d="m 9.0000587,8.505707 c 0.0043,0.272891 0.226856,0.49186 0.499924,0.49185 h 2.4997713 l 0.499924,5.49566 c -0.0096,0.67571 1.009409,0.67571 0.999848,0 L 13.99945,8.997556 h 2.499771 c 0.445251,-1.7e-4 0.668193,-0.5381485 0.353462,-0.8529395 l -3.499619,-4.498329 c -0.195235,-0.19505 -0.511689,-0.19505 -0.706924,0 l -3.4996193,4.49833 c -0.0957,0.0956 -0.148534,0.22588 -0.146462,0.3610895 z" style="opacity: 1; fill: #000000; fill-opacity: 1; stroke: none; stroke-width: 1px; stroke-linecap: butt; stroke-linejoin: round; stroke-miterlimit: 4; stroke-dasharray: none; stroke-dashoffset: 0; stroke-opacity: 1;" />
</svg>