<svg width="26" height="26" viewBox="0 0 26 26" xmlns="http://www.w3.org/2000/svg">
<path d="M 7.5,6 A 0.50005,0.50005 0 0 0 7,6.5 v 10 A 0.50005,0.50005 0 0 0 7.5,17 h 15 A 0.50005,0.50005 0 0 0 23,16.5 V 6.5 A 0.50005,0.50005 0 0 0 22.5,6 Z m 13.990234,0.9960938 a 0.50004997,0.50004997 0 0 1 0.357422,0.8613281 L 18.207031,11.5 l 3.640625,3.642578 a 0.50004997,0.50004997 0 1 1 -0.707031,0.707031 L 17.5,12.207031 15.353516,14.353516 a 0.50004997,0.50004997 0 0 1 -0.707032,0 L 12.5,12.207031 8.859375,15.849609 A 0.50004997,0.50004997 0 1 1 8.1523438,15.142578 L 11.792969,11.5 8.1523438,7.8574219 A 0.50004997,0.50004997 0 0 1 8.5,7 0.50004997,0.50004997 0 0 1 8.859375,7.1503906 l 3.919922,3.9218754 a 0.50004997,0.50004997 0 0 0 0.002,0.002 0.50004997,0.50004997 0 0 1 0.144531,0.144531 L 15,13.292969 17.078125,11.214844 a 0.50004997,0.50004997 0 0 1 0.140625,-0.140625 l 3.921875,-3.9238284 a 0.50004997,0.50004997 0 0 1 0.349609,-0.1542968 z" style="opacity: 1; fill: #000000; fill-opacity: 1; stroke: none; stroke-width: 1px; stroke-linecap: butt; stroke-linejoin: round; stroke-miterlimit: 4; stroke-dasharray: none; stroke-dashoffset: 0; stroke-opacity: 1;" />
<path d="m 20.899951,17 v 1.5 H 5.5470531 V 8.5 H 7.082343" style="fill: none; stroke: #000000; stroke-width: 1px; stroke-linecap: round; stroke-linejoin: round; stroke-opacity: 1;" />
<path d="m 18.852899,19 v 1.5 H 3.5000001 v -10 h 1.5352898" style="fill: none; stroke: #000000; stroke-width: 1px; stroke-linecap: round; stroke-linejoin: round; stroke-opacity: 1;" />
</svg>