<svg width="26" height="26" viewBox="0 0 26 26" xmlns="http://www.w3.org/2000/svg">
<path d="M 6.5,9 C 6.223,9 6,9.223 6,9.5 v 2 C 6,11.777 6.223,12 6.5,12 h 13 c 0.277,0 0.5,-0.223 0.5,-0.5 v -2 C 20,9.223 19.777,9 19.5,9 Z m 0,5 C 6.223,14 6,14.223 6,14.5 v 2 C 6,16.777 6.223,17 6.5,17 h 13 c 0.277,0 0.5,-0.223 0.5,-0.5 v -2 C 20,14.223 19.777,14 19.5,14 Z" style="opacity: 1; fill: #000000; fill-opacity: 1; stroke: none; stroke-width: 1; stroke-linecap: round; stroke-linejoin: round; stroke-miterlimit: 4; stroke-dasharray: none; stroke-dashoffset: 0; stroke-opacity: 1;" />
</svg>