<svg width="26" height="26" viewBox="0 0 26 26" xmlns="http://www.w3.org/2000/svg">
<path d="M 15.492188 3.5 C 15.3623 3.50207 15.238317 3.554606 15.146484 3.6464844 L 2.6464844 16.146484 C 2.4512997 16.341749 2.4512997 16.658251 2.6464844 16.853516 L 7.6464844 21.853516 C 7.7402403 21.947284 7.8674006 21.999975 8 22 L 20.5 22 C 21.176161 22.0096 21.176161 20.990437 20.5 21 L 12.207031 21 L 22.353516 10.853516 C 22.548701 10.658251 22.548701 10.341749 22.353516 10.146484 L 15.853516 3.6464844 C 15.757854 3.5507785 15.627488 3.4979278 15.492188 3.5 z M 7.3535156 12.853516 L 13.146484 18.646484 L 10.792969 21 L 8.2070312 21 L 3.7070312 16.5 L 7.3535156 12.853516 z " style="opacity: 1; fill: #000000; fill-opacity: 1; stroke: none; stroke-width: 1px; stroke-linecap: round; stroke-linejoin: round; stroke-miterlimit: 4; stroke-dasharray: none; stroke-dashoffset: 0; stroke-opacity: 1;" />
</svg>