<svg width="26" height="26" viewBox="0 0 26 26" xmlns="http://www.w3.org/2000/svg">
<path d="m 21.5,5.5517648 c -3.5,0 -8.5,-2 -8.5,-2 0,0 -5,2 -8.5,2 L 4.5,12 c 0,8 8.5,12.5 8.5,12.5 0,0 8.5,-4.5 8.5,-12.5 z" style="fill: none; stroke: #000000; stroke-width: 1px; stroke-linecap: butt; stroke-linejoin: round; stroke-opacity: 1;" />
<path d="M 13 5.5 C 13 5.5 9 7 6 7 L 6 11 C 6 18 9.3644361 19.561977 13 22.5 C 16.635564 19.561977 20 18 20 11 L 20 7 C 17 7 13 5.5 13 5.5 z M 12.5 8 L 13.5 8 C 13.777 8 14 8.2229999 14 8.5 L 14 13.5 C 14 13.776999 13.777 14 13.5 14 L 12.5 14 C 12.223 14 12 13.777 12 13.5 L 12 8.5 C 12 8.2229999 12.223 8 12.5 8 z M 12.5 16 L 13.5 16 C 13.777 16 14 16.223 14 16.5 L 14 17.5 C 14 17.777 13.777 18 13.5 18 L 12.5 18 C 12.223 18 12 17.777 12 17.5 L 12 16.5 C 12 16.223 12.223 16 12.5 16 z " style="opacity: 1; fill: #000000; fill-opacity: 1; stroke: none; stroke-width: 1px; stroke-linecap: square; stroke-linejoin: miter; stroke-miterlimit: 4; stroke-dasharray: none; stroke-dashoffset: 0; stroke-opacity: 1;" />
</svg>