<svg width="26" height="26" viewBox="0 0 26 26" xmlns="http://www.w3.org/2000/svg">
<path d="M 13 3 A 10 10 0 0 0 3 13 A 10 10 0 0 0 13 23 A 10 10 0 0 0 23 13 A 10 10 0 0 0 13 3 z M 12.5 6 L 13.5 6 C 13.777 6 14 6.2229999 14 6.5 L 14 14.5 C 14 14.776999 13.777 15 13.5 15 L 12.5 15 C 12.223 15 12 14.777 12 14.5 L 12 6.5 C 12 6.2229999 12.223 6 12.5 6 z M 12.5 17 L 13.5 17 C 13.777 17 14 17.223 14 17.5 L 14 18.5 C 14 18.777 13.777 19 13.5 19 L 12.5 19 C 12.223 19 12 18.777 12 18.5 L 12 17.5 C 12 17.223 12.223 17 12.5 17 z " style="opacity: 1; fill: #000000; fill-opacity: 1; stroke: none; stroke-width: 1; stroke-linecap: round; stroke-linejoin: round; stroke-miterlimit: 4; stroke-dasharray: none; stroke-dashoffset: 0; stroke-opacity: 1;" />
</svg>