<svg width="26" height="26" viewBox="0 0 26 26" xmlns="http://www.w3.org/2000/svg">
<path d="M 13.052734 3.0019531 C 12.505292 2.9828064 11.990936 3.263568 11.710938 3.734375 L 2.2109375 19.734375 C 1.6178688 20.73395 2.3377265 21.999154 3.5 22 L 22.5 22 C 23.662273 21.999154 24.382131 20.73395 23.789062 19.734375 L 14.289062 3.734375 C 14.028299 3.2958966 13.562572 3.0199922 13.052734 3.0019531 z M 12.5 9 L 13.5 9 C 13.777 9 14 9.2229999 14 9.5 L 14 14.5 C 14 14.776999 13.777 15 13.5 15 L 12.5 15 C 12.223 15 12 14.777 12 14.5 L 12 9.5 C 12 9.2229999 12.223 9 12.5 9 z M 12.5 17 L 13.5 17 C 13.777 17 14 17.223 14 17.5 L 14 18.5 C 14 18.777 13.777 19 13.5 19 L 12.5 19 C 12.223 19 12 18.777 12 18.5 L 12 17.5 C 12 17.223 12.223 17 12.5 17 z " style="opacity: 1; fill: #000000; fill-opacity: 1; stroke: none; stroke-width: 3; stroke-linecap: butt; stroke-linejoin: round; stroke-miterlimit: 4; stroke-dasharray: none; stroke-dashoffset: 0; stroke-opacity: 1;" />
</svg>