<svg width="26" height="26" viewBox="0 0 26 26" xmlns="http://www.w3.org/2000/svg">
<path d="M 15.507812 5 C 15.063287 5.0001737 14.840079 5.5371266 15.154297 5.8515625 L 16.888672 7.5839844 C 16.888672 7.5839844 16.947681 8.3472416 13.664062 11.630859 C 13.174136 12.101274 13.898725 12.825863 14.369141 12.335938 C 17.663246 9.0418325 18.416016 9.1113281 18.416016 9.1113281 L 20.148438 10.845703 C 20.462874 11.159922 20.999827 10.936713 21 10.492188 L 21 5.5 C 20.999972 5.2243609 20.775639 5.0000279 20.5 5 L 15.507812 5 z M 12.007812 13.5 C 11.88132 13.49355 11.748463 13.541581 11.630859 13.664062 C 8.4930044 16.801917 7.5839844 16.888672 7.5839844 16.888672 L 5.8515625 15.154297 C 5.5371265 14.840078 5.000173 15.063287 5 15.507812 L 5 20.5 C 5.000028 20.775639 5.224361 20.999972 5.5 21 L 10.492188 21 C 10.936713 20.999826 11.159921 20.462874 10.845703 20.148438 L 9.1113281 18.416016 C 9.1113281 18.416016 9.2398234 17.465242 12.335938 14.369141 C 12.703382 14.016329 12.38729 13.519349 12.007812 13.5 z " style="opacity: 1; fill: #000000; fill-opacity: 1; stroke: none; stroke-width: 1px; stroke-linecap: butt; stroke-linejoin: round; stroke-miterlimit: 4; stroke-dasharray: none; stroke-dashoffset: 0; stroke-opacity: 1;" />
</svg>