<svg width="26" height="26" viewBox="0 0 26 26" xmlns="http://www.w3.org/2000/svg">
<path d="m 10.492188,5 c 0.444525,1.737e-4 0.667733,0.5371266 0.353515,0.8515625 L 9.111328,7.5839844 c 0,0 -0.059009,0.7632572 3.22461,4.0468746 0.489926,0.470415 -0.234663,1.195004 -0.705079,0.705079 C 8.336754,9.0418325 7.583984,9.1113281 7.583984,9.1113281 L 5.851562,10.845703 C 5.537126,11.159922 5.000173,10.936713 5,10.492188 V 5.5 C 5.000028,5.2243609 5.224361,5.0000279 5.5,5 Z m 3.5,8.5 c 0.126492,-0.0064 0.259349,0.04158 0.376953,0.164062 3.137855,3.137855 4.046875,3.22461 4.046875,3.22461 l 1.732421,-1.734375 C 20.462873,14.840078 20.999827,15.063287 21,15.507812 V 20.5 c -2.8e-5,0.275639 -0.224361,0.499972 -0.5,0.5 h -4.992188 c -0.444525,-1.74e-4 -0.667733,-0.537126 -0.353515,-0.851562 l 1.734375,-1.732422 c 0,0 -0.128495,-0.950774 -3.22461,-4.046875 C 13.296618,14.016329 13.61271,13.519349 13.992188,13.5 Z" style="opacity: 1; fill: #000000; fill-opacity: 1; stroke: none; stroke-width: 1px; stroke-linecap: butt; stroke-linejoin: round; stroke-miterlimit: 4; stroke-dasharray: none; stroke-dashoffset: 0; stroke-opacity: 1;" />
</svg>