<svg width="26" height="26" viewBox="0 0 26 26" xmlns="http://www.w3.org/2000/svg">
<path d="M 6.5 6 C 6.223869 6.000028 6.000028 6.22418 6 6.5 L 6 19.5 C 6.000028 19.77582 6.223869 19.999972 6.5 20 L 19.5 20 C 19.776131 19.999972 19.999972 19.77582 20 19.5 L 20 13.5 C 20 13.223 19.777 13 19.5 13 L 18.5 13 C 18.223 13 18 13.223 18 13.5 L 18 18.001953 L 8 18.001953 L 8 7.9980469 L 12.5 8 C 12.777001 8 13 7.777 13 7.5 L 13 6.5 C 13 6.223 12.777001 6 12.5 6 L 6.5 6 z M 14.253906 6 C 13.828908 6.00004 13.615568 6.542005 13.916016 6.859375 L 15.5 8.5 L 11.154297 14.125 C 10.691707 14.59965 11.378741 15.326491 11.828125 14.837891 L 17.5 10.5 L 19.185547 11.921875 C 19.529726 12.17889 19.99965 12.033154 20 11.566406 L 20 6.5039062 C 19.999876 6.2258262 19.784937 6.00013 19.521484 6 L 14.253906 6 z " style="opacity: 1; fill: #000000; fill-opacity: 1; stroke: none; stroke-width: 1px; stroke-linecap: butt; stroke-linejoin: round; stroke-miterlimit: 4; stroke-dasharray: none; stroke-dashoffset: 0; stroke-opacity: 1;" />
</svg>