<svg width="26" height="26" viewBox="0 0 26 26" xmlns="http://www.w3.org/2000/svg">
<path d="M 13 6 C 6.2071386 6 2.0761719 12.736328 2.0761719 12.736328 A 0.50005 0.50005 0 0 0 2.0761719 13.263672 C 2.0761719 13.263672 6.2116279 20 13 20 C 19.788372 20 23.923828 13.263672 23.923828 13.263672 A 0.50005 0.50005 0 0 0 23.923828 12.736328 C 23.923828 12.736328 19.792861 6 13 6 z M 13 8 A 5 5 0 0 1 18 13 A 5 5 0 0 1 13 18 A 5 5 0 0 1 8 13 A 5 5 0 0 1 13 8 z M 13 11 A 2 2 0 0 0 11 13 A 2 2 0 0 0 13 15 A 2 2 0 0 0 15 13 A 2 2 0 0 0 13 11 z " style="opacity: 1; fill: #000000; fill-opacity: 1; stroke: none; stroke-width: 1px; stroke-linecap: butt; stroke-linejoin: round; stroke-miterlimit: 4; stroke-dasharray: none; stroke-dashoffset: 0; stroke-opacity: 1;" />
</svg>