<svg width="26" height="26" viewBox="0 0 26 26" xmlns="http://www.w3.org/2000/svg">
<path d="M 13 6 C 6.2071386 6 2.0761719 12.736328 2.0761719 12.736328 A 0.50005 0.50005 0 0 0 2.0761719 13.263672 C 2.0761719 13.263672 3.1636089 15.026248 5.1289062 16.748047 L 8.0683594 13.810547 A 5 5 0 0 1 8 13 A 5 5 0 0 1 13 8 A 5 5 0 0 1 13.806641 8.0722656 L 15.550781 6.328125 C 14.748359 6.1233394 13.899095 6 13 6 z M 18.552734 7.5683594 L 16.595703 9.5273438 A 5 5 0 0 1 18 13 A 5 5 0 0 1 13 18 A 5 5 0 0 1 9.5292969 16.591797 L 7.6054688 18.515625 C 9.1340968 19.377915 10.942875 20 13 20 C 19.788372 20 23.923828 13.263672 23.923828 13.263672 A 0.50005 0.50005 0 0 0 23.923828 12.736328 C 23.923828 12.736328 21.974205 9.5587202 18.552734 7.5683594 z M 14.472656 11.650391 L 11.648438 14.472656 A 2 2 0 0 0 13 15 A 2 2 0 0 0 15 13 A 2 2 0 0 0 14.472656 11.650391 z " style="opacity: 1; fill: #000000; fill-opacity: 1; stroke: none; stroke-width: 1px; stroke-linecap: butt; stroke-linejoin: round; stroke-miterlimit: 4; stroke-dasharray: none; stroke-dashoffset: 0; stroke-opacity: 1;" />
<path d="M 4.504936,19.49479 19.495064,4.5052102" style="fill: none; stroke: #000000; stroke-width: 1px; stroke-linecap: round; stroke-linejoin: miter; stroke-opacity: 1;" />
</svg>