<svg width="26" height="26" viewBox="0 0 26 26" xmlns="http://www.w3.org/2000/svg">
<path d="M 4.494141,7 C 4.220301,7.00324 4.000009,7.2261548 4,7.5 l 0,11 c 2.51e-4,0.38574 0.418716,0.62596 0.751953,0.431641 l 8,-5.5 c 0.31904,-0.186382 0.332703,-0.642515 0.02539,-0.847657 l -8,-5.4999996 C 4.693554,7.0281123 4.594845,6.9988372 4.494141,7 Z m 10,0 C 14.220301,7.00324 14.000008,7.2261548 14,7.5 l 0,11 c 2.51e-4,0.38574 0.418716,0.62596 0.751953,0.431641 l 8,-5.5 c 0.31904,-0.186382 0.332703,-0.642515 0.02539,-0.847657 l -8,-5.4999996 C 14.693554,7.0281124 14.594845,6.998837 14.494141,7 Z" style="opacity: 1; fill: #000000; fill-opacity: 1; stroke: none; stroke-width: 1px; stroke-linecap: butt; stroke-linejoin: round; stroke-miterlimit: 4; stroke-dasharray: none; stroke-dashoffset: 0; stroke-opacity: 1;" />
</svg>