<svg width="26" height="26" viewBox="0 0 26 26" xmlns="http://www.w3.org/2000/svg">
<path d="M 2.4941406 7 C 2.2203006 7.00324 2.000009 7.2261548 2 7.5 L 2 18.5 C 2.000251 18.88574 2.4187161 19.12596 2.7519531 18.931641 L 10.751953 13.431641 C 11.070993 13.245259 11.084657 12.789126 10.777344 12.583984 L 2.7773438 7.0839844 C 2.6935547 7.0281123 2.5948446 6.9988372 2.4941406 7 z M 12.494141 7 C 12.220301 7.00324 12.000008 7.2261548 12 7.5 L 12 18.5 C 12.000251 18.88574 12.418716 19.12596 12.751953 18.931641 L 20.751953 13.431641 C 21.070993 13.245259 21.084657 12.789126 20.777344 12.583984 L 12.777344 7.0839844 C 12.693555 7.0281124 12.594845 6.998837 12.494141 7 z M 22.5 7 C 22.223 7 22 7.223 22 7.5 L 22 18.5 C 22 18.777 22.223 19 22.5 19 L 24.5 19 C 24.777 19 25 18.777 25 18.5 L 25 7.5 C 25 7.223 24.777 7 24.5 7 L 22.5 7 z " style="opacity: 1; fill: #000000; fill-opacity: 1; stroke: none; stroke-width: 1px; stroke-linecap: butt; stroke-linejoin: round; stroke-miterlimit: 4; stroke-dasharray: none; stroke-dashoffset: 0; stroke-opacity: 1;" />
</svg>