<svg width="26" height="26" viewBox="0 0 26 26" xmlns="http://www.w3.org/2000/svg">
<path d="m 18.494383,1.0000335 c 0.100704,-0.001162 0.199413,0.028114 0.283203,0.083988 l 4.5,3.5001618 c 0.307312,0.2051515 0.29365,0.6613048 -0.02539,0.8476954 l -4.5,3.5001619 C 18.418959,9.1263688 18.000494,8.8861381 18.000243,8.5003803 l 0,-2.8731797 -4.248047,3.3048403 C 13.418959,9.1263688 13.000494,8.8861381 13.000243,8.5003803 l 0,-2.5001156 c -3.5751055,1e-7 -6.7655235,1.7343304 -7.9882815,5.0939853 -1.222758,3.359656 -0.213299,7.120266 2.52539,9.418405 2.7386895,2.298139 6.6167595,2.637284 9.7128915,0.849648 3.096132,-1.787634 4.741903,-5.317346 4.121093,-8.838298 -0.1409,-0.673493 0.886095,-0.854856 0.984375,-0.173838 0.693215,3.9316 -1.148238,7.881284 -4.605468,9.87741 -1.479339,0.854136 -3.116554,1.273357 -4.75,1.272422 C 10.816308,23.498699 8.4655925,22.768525 6.7160435,21.300412 4.5312395,19.467059 2.9987375,16.749196 3.0002425,14 c 6.5e-4,-1.186994 0.213942,-2.167238 0.572266,-3.249516 1.490367,-4.5014881 5.435668,-6.7503117 9.4277345,-6.7503118 l 0,-2.5001155 c 9e-6,-0.2738577 0.220301,-0.496823 0.494141,-0.5000232 0.100704,-0.001162 0.199413,0.028114 0.283203,0.083988 l 4.222656,3.2853081 0,-2.8692732 c 8e-6,-0.2738577 0.2203,-0.496823 0.49414,-0.5000231 z" style="opacity: 1; fill: #000000; fill-opacity: 1; stroke: none; stroke-width: 1px; stroke-linecap: butt; stroke-linejoin: round; stroke-miterlimit: 4; stroke-dasharray: none; stroke-dashoffset: 0; stroke-opacity: 1;" />
</svg>