<svg width="26" height="26" viewBox="0 0 26 26" xmlns="http://www.w3.org/2000/svg">
<path d="M 14.472656,3 C 11.935258,4.5528213 8.1724122,5.8539211 9.9453125,14.947266 8.3994518,14.172221 6.94445,13.25349 6.9609375,9.9589844 l -0.00586,-0.044922 C 5.6999951,11.347843 5.0059967,13.181234 5,15.078125 5,19.453673 8.5841348,23 13.005859,23 17.427584,23 21.012515,19.452498 21,15.695312 20.987475,11.938125 18.868946,10.745324 19.535156,6.9609375 16.975149,7.5598439 16.195614,9.8550877 16.027344,11.994141 14.293038,9.8328327 13.137145,6.4624 14.472656,3 Z m -2.066903,5.3280494 c -0.191041,3.0502826 2.311258,7.9344126 4.586456,8.4583236 0.718423,-0.481636 1.052317,-1.725451 1.808572,-3.399654 1.646848,5.01041 -1.803371,8.10573 -4.81861,8.542877 -3.015239,0.437148 -7.3142487,-1.783877 -6.8962335,-6.218658 0.7355443,1.266134 3.8174685,3.575816 5.4921875,2.847656 C 11.585393,15.934406 10.385916,11.41734 12.405753,8.3280494 Z" style="opacity: 1; fill: #000000; fill-opacity: 1; stroke: none; stroke-width: 1; stroke-linecap: butt; stroke-linejoin: round; stroke-miterlimit: 4; stroke-dasharray: none; stroke-dashoffset: 0; stroke-opacity: 1;" />
</svg>