<svg width="26" height="26" viewBox="0 0 26 26" xmlns="http://www.w3.org/2000/svg">
<path d="M 4.5,6 A 0.50005,0.50005 0 0 0 4,6.5 l 0,2.5 6.732422,0 2,-3 L 4.5,6 Z m 9.433594,0 -2.517578,3.77734 A 0.50004997,0.50004997 0 0 1 11,10 l -7,0 0,9.5 A 0.50005,0.50005 0 0 0 4.5,20 l 11.824219,0 c -0.297209,-0.56639 -0.217735,-1.29596 0.251953,-1.76562 l 0.707031,-0.70704 c 0.575295,-0.57529 1.545814,-0.57525 2.121094,0 L 20.033203,18.15625 22,15.88281 22,6.5 A 0.50005,0.50005 0 0 0 21.5,6 l -7.566406,0 z m 9.708984,9.74609 c -0.132783,-0.004 -0.261804,0.0438 -0.339844,0.15821 l -3.216796,3.71875 -1.388672,-1.38867 c -0.195869,-0.19586 -0.511163,-0.19587 -0.707032,0 l -0.707031,0.70703 c -0.195869,0.19586 -0.195869,0.51116 0,0.70703 l 2.449219,2.44922 c 0.195869,0.19586 0.511162,0.19586 0.707031,0 l 4.277344,-4.77735 c 0.195869,-0.19587 0.195869,-0.51116 0,-0.70703 L 24.009766,15.9043 c -0.09793,-0.0979 -0.234404,-0.15421 -0.367188,-0.15821 z" style="opacity: 1; fill: #000000; fill-opacity: 1; stroke: none; stroke-width: 1; stroke-linecap: round; stroke-linejoin: round; stroke-miterlimit: 4; stroke-dasharray: none; stroke-dashoffset: 0; stroke-opacity: 1;" />
</svg>