<svg width="26" height="26" viewBox="0 0 26 26" xmlns="http://www.w3.org/2000/svg">
<path d="M 4.5,6 A 0.50005,0.50005 0 0 0 4,6.5 l 0,2.5 6.732422,0 2,-3 L 4.5,6 Z m 9.433594,0 -2.517578,3.777344 A 0.50004997,0.50004997 0 0 1 11,10 l -7,0 0,9.5 A 0.50005,0.50005 0 0 0 4.5,20 l 17,0 A 0.50005,0.50005 0 0 0 22,19.5 l 0,-13 A 0.50005,0.50005 0 0 0 21.5,6 l -7.566406,0 z" style="opacity: 1; fill: #000000; fill-opacity: 1; stroke: none; stroke-width: 1; stroke-linecap: round; stroke-linejoin: round; stroke-miterlimit: 4; stroke-dasharray: none; stroke-dashoffset: 0; stroke-opacity: 1;" />
</svg>