<svg width="26" height="26" viewBox="0 0 26 26" xmlns="http://www.w3.org/2000/svg">
<path d="M 5.5,6 C 5.223869,6.000028 5.000028,6.223869 5,6.5 L 5,12 7,12 7,8.5 C 7.000028,8.223869 7.223869,8.000028 7.5,8 l 11,0 c 0.276131,2.8e-5 0.499972,0.223869 0.5,0.5 L 19,9 21,9 21,6.5 C 20.999972,6.223869 20.776131,6.000028 20.5,6 Z m 7.267578,4 -1.851562,2.777344 C 10.82328,12.916436 10.667172,12.999987 10.5,13 l -6.400391,0 c -0.321606,4.72e-4 -0.559153,0.300028 -0.486328,0.613281 l 1.400391,6 C 5.066307,19.839482 5.267756,19.99967 5.5,20 l 15,0 c 0.23414,1.64e-4 0.437045,-0.16216 0.488281,-0.390625 l 2,-9 C 23.058329,10.296729 22.820397,9.99979 22.5,10 Z" style="opacity: 1; fill: #000000; fill-opacity: 1; stroke: none; stroke-width: 1; stroke-linecap: round; stroke-linejoin: round; stroke-miterlimit: 4; stroke-dasharray: none; stroke-dashoffset: 0; stroke-opacity: 1;" />
</svg>