<svg width="26" height="26" viewBox="0 0 26 26" xmlns="http://www.w3.org/2000/svg">
<path d="M 4.5 6 A 0.50005 0.50005 0 0 0 4 6.5 L 4 9 L 10.732422 9 L 12.732422 6 L 4.5 6 z M 13.933594 6 L 11.416016 9.7773438 A 0.50004997 0.50004997 0 0 1 11 10 L 4 10 L 4 19.5 A 0.50005 0.50005 0 0 0 4.5 20 L 16 20 L 16 18.5 C 16 17.686297 16.686297 17 17.5 17 L 19 17 L 19 15.5 C 19 14.686297 19.686297 14 20.5 14 L 21.5 14 C 21.674891 14 21.84243 14.035891 22 14.09375 L 22 6.5 A 0.50005 0.50005 0 0 0 21.5 6 L 13.933594 6 z M 20.5 15 C 20.223 15 20 15.223 20 15.5 L 20 18 L 17.5 18 C 17.223 18 17 18.223 17 18.5 L 17 19.5 C 17 19.777 17.223 20 17.5 20 L 20 20 L 20 22.5 C 20 22.777 20.223 23 20.5 23 L 21.5 23 C 21.777 23 22 22.777 22 22.5 L 22 20 L 24.5 20 C 24.777 20 25 19.777 25 19.5 L 25 18.5 C 25 18.223 24.777 18 24.5 18 L 22 18 L 22 15.5 C 22 15.223 21.777 15 21.5 15 L 20.5 15 z " style="opacity: 1; fill: #000000; fill-opacity: 1; stroke: none; stroke-width: 1; stroke-linecap: round; stroke-linejoin: round; stroke-miterlimit: 4; stroke-dasharray: none; stroke-dashoffset: 0; stroke-opacity: 1;" />
</svg>