<svg width="26" height="26" viewBox="0 0 26 26" xmlns="http://www.w3.org/2000/svg">
<path d="m 18.5,8.5 3,0 0,13 -17,0 0,-13 9,0" style="opacity: 1; fill: none; fill-opacity: 1; stroke: #000000; stroke-width: 1; stroke-linecap: round; stroke-linejoin: round; stroke-miterlimit: 4; stroke-dasharray: none; stroke-dashoffset: 0; stroke-opacity: 1;" />
<path d="m 13,8.5 -2,3 -6.5,0" style="opacity: 1; fill: none; fill-opacity: 1; stroke: #000000; stroke-width: 0.99999994; stroke-linecap: round; stroke-linejoin: round; stroke-miterlimit: 4; stroke-dasharray: none; stroke-dashoffset: 0; stroke-opacity: 1;" />
<path d="m 13.000059,13.49429 c 0.0043,-0.27289 0.226856,-0.49186 0.499924,-0.49185 l 1.499771,0 0.499924,-9.49566 c -0.0096,-0.67571 1.009409,-0.67571 0.999848,0 l 0.499924,9.49566 1.499771,0 c 0.445251,1.7e-4 0.668193,0.53815 0.353462,0.85294 l -2.499619,2.49833 c -0.195235,0.19505 -0.511689,0.19505 -0.706924,0 l -2.499619,-2.49833 c -0.0957,-0.0956 -0.148534,-0.22588 -0.146462,-0.36109 z" style="opacity: 1; fill: #000000; fill-opacity: 1; stroke: none; stroke-width: 1px; stroke-linecap: butt; stroke-linejoin: round; stroke-miterlimit: 4; stroke-dasharray: none; stroke-dashoffset: 0; stroke-opacity: 1;" />
</svg>