<svg width="26" height="26" viewBox="0 0 26 26" xmlns="http://www.w3.org/2000/svg">
<path d="m 12.5,19.5 -8,0 0,-13 17,0 0,4" style="opacity: 1; fill: none; fill-opacity: 1; stroke: #000000; stroke-width: 1; stroke-linecap: round; stroke-linejoin: round; stroke-miterlimit: 4; stroke-dasharray: none; stroke-dashoffset: 0; stroke-opacity: 1;" />
<path d="m 13,6.5 -2,3 -6.5,0" style="opacity: 1; fill: none; fill-opacity: 1; stroke: #000000; stroke-width: 0.99999994; stroke-linecap: round; stroke-linejoin: round; stroke-miterlimit: 4; stroke-dasharray: none; stroke-dashoffset: 0; stroke-opacity: 1;" />
<path d="m 20,12 a 6,6 0 0 0 -6,6 6,6 0 0 0 6,6 6,6 0 0 0 6,-6 6,6 0 0 0 -6,-6 z m -3.5,5 1,0 c 0.277,0 0.5,0.223 0.5,0.5 l 0,1 c 0,0.277 -0.223,0.5 -0.5,0.5 l -1,0 C 16.223,19 16,18.777 16,18.5 l 0,-1 C 16,17.223 16.223,17 16.5,17 Z m 3,0 1,0 c 0.277,0 0.5,0.223 0.5,0.5 l 0,1 c 0,0.277 -0.223,0.5 -0.5,0.5 l -1,0 C 19.223,19 19,18.777 19,18.5 l 0,-1 C 19,17.223 19.223,17 19.5,17 Z m 3,0 1,0 c 0.277,0 0.5,0.223 0.5,0.5 l 0,1 c 0,0.277 -0.223,0.5 -0.5,0.5 l -1,0 C 22.223,19 22,18.777 22,18.5 l 0,-1 C 22,17.223 22.223,17 22.5,17 Z" style="opacity: 1; fill: #000000; fill-opacity: 1; stroke: none; stroke-width: 1; stroke-linecap: butt; stroke-linejoin: round; stroke-miterlimit: 4; stroke-dasharray: none; stroke-dashoffset: 0; stroke-opacity: 1;" />
</svg>