<svg width="26" height="26" viewBox="0 0 26 26" xmlns="http://www.w3.org/2000/svg">
<path d="M 12.5,19.5 H 4.5000005 V 6.4999996 H 21.5 V 10.5" style="opacity: 1; fill: none; fill-opacity: 1; stroke: #000000; stroke-width: 1; stroke-linecap: round; stroke-linejoin: round; stroke-miterlimit: 4; stroke-dasharray: none; stroke-dashoffset: 0; stroke-opacity: 1;" />
<path d="m 13.007121,6.5059336 -2,3 H 4.5071212" style="opacity: 1; fill: none; fill-opacity: 1; stroke: #000000; stroke-width: 0.99999994; stroke-linecap: round; stroke-linejoin: round; stroke-miterlimit: 4; stroke-dasharray: none; stroke-dashoffset: 0; stroke-opacity: 1;" />
<path d="m 15,17 c -0.554,0 -1,0.446 -1,1 v 4 c 0,0.553998 0.446,1 1,1 h 7 c 0.554001,0 1.000001,-0.446002 1.000001,-1 v -4 c 0,-0.554 -0.446,-1 -1.000001,-1 z m 3.5,2 c 0.276142,0 0.5,0.223857 0.5,0.5 l 0.5,1 C 19.54554,20.773229 19.277,21 19,21 h -1 c -0.277,0 -0.54554,-0.226771 -0.5,-0.5 l 0.5,-1 C 18,19.223857 18.223858,19 18.5,19 Z" style="opacity: 1; fill: #000000; fill-opacity: 1; stroke: #1e4177; stroke-width: 0; stroke-linecap: round; stroke-linejoin: round; stroke-miterlimit: 4; stroke-dasharray: none; stroke-dashoffset: 0; stroke-opacity: 1;" />
<path d="m 16,17.573428 v -2.604782 c 0,-2.073005 3,-3.380975 5.040796,-1.376707" style="fill: none; stroke: #000000; stroke-width: 2; stroke-linecap: butt; stroke-linejoin: round; stroke-miterlimit: 4; stroke-dasharray: none; stroke-opacity: 1;" />
</svg>