<svg width="26" height="26" viewBox="0 0 26 26" xmlns="http://www.w3.org/2000/svg">
<path d="m 21.146484,11.147684 -2,1.999821 c -0.19518,0.195252 -0.19518,0.511726 0,0.706968 l 2,1.99982 c 0.19527,0.195173 0.511772,0.195173 0.707032,0 l 2,-1.99982 c 0.19519,-0.195242 0.19519,-0.511716 0,-0.706968 l -2,-1.999821 c -0.205166,-0.218735 -0.541015,-0.173812 -0.707032,0 z m -4,3.999641 -3,2.99973 c -0.19518,0.195253 -0.19518,0.511716 0,0.706969 l 2,1.99982 c 0.19527,0.195162 0.511772,0.195162 0.707032,0 l 3,-2.999731 c 0.19519,-0.195252 0.19519,-0.511716 0,-0.706968 l -2,-1.99982 c -0.244229,-0.253889 -0.463436,-0.210919 -0.707032,0 z M 13.052734,19.277813 12,21.75 13.25,23 15.722656,21.947493 c 0.30552,-0.152276 0.37201,-0.559111 0.13086,-0.80071 l -2,-1.99982 c -0.292958,-0.261005 -0.715409,-0.09123 -0.800782,0.130848 z M 11.75,22.25 11,24 12.75,23.25 Z" style="opacity: 1; fill: #000000; fill-opacity: 1; stroke: none; stroke-width: 1px; stroke-linecap: round; stroke-linejoin: miter; stroke-miterlimit: 4; stroke-dasharray: none; stroke-dashoffset: 0; stroke-opacity: 1;" />
<path d="M 18.5,14.5 22,18 18,22 m -4.992879,-15.4940705 -2,3.0000001 H 4.5071212 M 11.5,19.5 H 4.5000012 V 6.4999995 H 21.5 v 3.0000001" style="fill: none; stroke: #000000; stroke-width: 1px; stroke-linecap: round; stroke-linejoin: round; stroke-opacity: 1;" />
</svg>