<svg width="26" height="26" viewBox="0 0 26 26" xmlns="http://www.w3.org/2000/svg">
<path d="m 16,18 v 2 h 1 c 0,0 -1,1 -1,3.5 0,0.277 0.223,0.5 0.5,0.5 h 2 C 18.777,24 19.03917,23.774216 19,23.5 19,21 18,20 18,20 h 1 v -2 z m 1.5,3 c 0.5,0 0.5,2 0.5,2 h -1 c 0,0 0,-2 0.5,-2 z M 4.5,6.0000002 c -0.276131,3e-5 -0.499972,0.22387 -0.5,0.5 v 2.5 h 6.732422 l 2,-3 z m 9.433594,0 -2.517578,3.7773438 C 11.323276,9.9164437 11.167172,9.9999902 11,10 H 4 v 9.5 c 2.8e-5,0.27613 0.223869,0.49997 0.5,0.5 H 15 V 17.5 C 15,17.223 15.223,17 15.5,17 H 17 v -2 h -1 v -1 h 1 v -1 h -1 v -1 h 1 v -1 h -1 v -1 h 1 V 9.0000002 h -1 v -1 h 1 v -2 z m 4.066406,0 v 1 h 1 v 1 h -1 v 1 h 1 V 10 h -1 v 1 h 1 v 1 h -1 v 1 h 1 v 1 h -1 v 1 h 1 v 1 h -1 v 1 h 1.5 c 0.277,0 0.5,0.223 0.5,0.5 V 20 h 1.5 c 0.276131,-2.8e-5 0.499972,-0.223869 0.5,-0.5 V 6.5000002 c -2.8e-5,-0.27613 -0.223869,-0.49997 -0.5,-0.5 z" style="opacity: 1; fill: #000000; fill-opacity: 1; stroke: none; stroke-width: 0.75; stroke-linecap: round; stroke-linejoin: round; stroke-miterlimit: 4; stroke-dasharray: none; stroke-dashoffset: 2.79999995; stroke-opacity: 1;" />
</svg>