<svg width="26" height="26" viewBox="0 0 26 26" xmlns="http://www.w3.org/2000/svg">
<path d="m 4.5000005,6.0000004 c -0.276131,3e-5 -0.499972,0.22387 -0.5,0.5 v 2.5 h 6.7324215 l 2,-3 z m 9.4335935,0 -2.517578,3.77734 C 11.323276,9.9164404 11.167173,9.9999904 11,10 H 4.0000005 v 9.5 c 2.8e-5,0.27613 0.223869,0.499971 0.5,0.5 H 11 L 22,8.7207004 v -2.2207 c -2.8e-5,-0.27613 -0.223869,-0.49997 -0.5,-0.5 z" style="opacity: 1; fill: #000000; fill-opacity: 1; stroke: #1e4177; stroke-width: 0; stroke-linecap: round; stroke-linejoin: round; stroke-miterlimit: 4; stroke-dasharray: none; stroke-dashoffset: 0; stroke-opacity: 1;" />
<path d="m 21.146484,11.147684 -1.999999,1.999821 c -0.195181,0.195252 -0.195181,0.511726 0,0.706968 l 1.999999,1.99982 c 0.19527,0.195173 0.511772,0.195173 0.707032,0 l 2,-1.99982 c 0.19519,-0.195242 0.19519,-0.511716 0,-0.706968 l -2,-1.999821 c -0.205166,-0.218735 -0.541015,-0.173812 -0.707032,0 z m -3.999999,3.999641 -2.999999,2.999731 c -0.195182,0.195253 -0.195182,0.511716 0,0.706969 l 1.999999,1.99982 c 0.195271,0.195162 0.511773,0.195162 0.707032,0 l 2.999999,-2.999731 c 0.19519,-0.195252 0.19519,-0.511716 0,-0.706968 l -2,-1.999821 c -0.244228,-0.253889 -0.463436,-0.210919 -0.707031,0 z M 13.052735,19.277813 12,21.75 13.25,23 15.722656,21.947494 c 0.305521,-0.152276 0.372011,-0.559112 0.13086,-0.80071 l -2,-1.99982 c -0.292958,-0.261005 -0.715409,-0.09123 -0.800781,0.130849 z M 11.75,22.25 11,24 12.75,23.25 Z" style="opacity: 1; fill: #000000; fill-opacity: 1; stroke: none; stroke-width: 1px; stroke-linecap: round; stroke-linejoin: miter; stroke-miterlimit: 4; stroke-dasharray: none; stroke-dashoffset: 0; stroke-opacity: 1;" />
<path d="M 18.5,14.5 22,18 18,22" style="fill: none; stroke: #000000; stroke-width: 1px; stroke-linecap: round; stroke-linejoin: round; stroke-opacity: 1;" />
</svg>