<svg width="26" height="26" viewBox="0 0 26 26" xmlns="http://www.w3.org/2000/svg">
<path d="M 4.5,6 A 0.50005,0.50005 0 0 0 4,6.5 l 0,2.5 6.732422,0 2,-3 L 4.5,6 Z m 9.433594,0 -2.517578,3.777344 A 0.50004997,0.50004997 0 0 1 11,10 l -7,0 0,9.5 A 0.50005,0.50005 0 0 0 4.5,20 L 16,20 16,18.5 C 16,17.686297 16.686297,17 17.5,17 L 22,17 22,6.5 A 0.50005,0.50005 0 0 0 21.5,6 L 13.933594,6 Z M 17.5,18 C 17.223,18 17,18.223 17,18.5 l 0,1 c 0,0.277 0.223,0.5 0.5,0.5 l 7,0 c 0.277,0 0.5,-0.223 0.5,-0.5 l 0,-1 C 25,18.223 24.777,18 24.5,18 l -7,0 z" style="opacity: 1; fill: #000000; fill-opacity: 1; stroke: none; stroke-width: 1; stroke-linecap: round; stroke-linejoin: round; stroke-miterlimit: 4; stroke-dasharray: none; stroke-dashoffset: 0; stroke-opacity: 1;" />
</svg>