<svg width="26" height="26" viewBox="0 0 26 26" xmlns="http://www.w3.org/2000/svg">
<path d="m 16.5,19.5 -12,0 0,-13 17,0 0,8" style="opacity: 1; fill: none; fill-opacity: 1; stroke: #000000; stroke-width: 1; stroke-linecap: round; stroke-linejoin: round; stroke-miterlimit: 4; stroke-dasharray: none; stroke-dashoffset: 0; stroke-opacity: 1;" />
<path d="m 13,6.5 -2,3 -6.5,0" style="opacity: 1; fill: none; fill-opacity: 1; stroke: #000000; stroke-width: 0.99999994; stroke-linecap: round; stroke-linejoin: round; stroke-miterlimit: 4; stroke-dasharray: none; stroke-dashoffset: 0; stroke-opacity: 1;" />
<path d="m 23.474874,15.81802 c -0.195869,-0.19587 -0.511238,-0.19587 -0.707107,0 L 21,17.58579 19.232233,15.81802 c -0.195869,-0.19587 -0.511238,-0.19587 -0.707107,0 l -0.707107,0.70711 c -0.195868,0.19587 -0.195868,0.51123 0,0.7071 L 19.585786,19 17.818019,20.76777 c -0.195868,0.19587 -0.195868,0.51124 0,0.7071 l 0.707107,0.70711 c 0.195869,0.19587 0.511238,0.19587 0.707107,0 L 21,20.41421 l 1.767767,1.76777 c 0.195869,0.19587 0.511238,0.19587 0.707107,0 l 0.707107,-0.70711 c 0.195868,-0.19586 0.195868,-0.51123 0,-0.7071 L 22.414214,19 24.181981,17.23223 c 0.195868,-0.19587 0.195868,-0.51124 0,-0.7071 z" style="opacity: 1; fill: #000000; fill-opacity: 1; stroke: none; stroke-width: 1; stroke-linecap: round; stroke-linejoin: round; stroke-miterlimit: 4; stroke-dasharray: none; stroke-dashoffset: 0; stroke-opacity: 1;" />
</svg>