<svg width="26" height="26" viewBox="0 0 26 26" xmlns="http://www.w3.org/2000/svg">
<path d="m 16,2.00586 c -0.252357,0 -0.5048,0.16996 -0.5,0.50781 l -0.5,9.49414 -1.5,0 c -0.273068,-10e-6 -0.4957,0.2193 -0.5,0.49219 -0.0021,0.13521 0.05078,0.26573 0.146484,0.36133 l 2.5,2.49805 c 0.195235,0.19505 0.511797,0.19505 0.707032,0 l 2.5,-2.49805 C 19.168247,12.54654 18.945246,12.00798 18.5,12.00781 l -1.5,0 -0.5,-9.49414 C 16.5048,2.17582 16.252357,2.00586 16,2.00586 Z M 4.5,8 A 0.50005,0.50005 0 0 0 4,8.5 l 0,2.5 6.732422,0 2,-3 L 4.5,8 Z m 9.433594,0 -2.517578,3.77734 A 0.50004997,0.50004997 0 0 1 11,12 l -7,0 0,9.5 A 0.50005,0.50005 0 0 0 4.5,22 l 17,0 A 0.50005,0.50005 0 0 0 22,21.5 l 0,-13 A 0.50005,0.50005 0 0 0 21.5,8 l -3.710938,0 0.158204,3.00781 0.552734,0 c 0.625316,2.4e-4 1.173285,0.41546 1.384766,0.92578 0.21148,0.51033 0.118009,1.19246 -0.324219,1.63477 l -2.5,2.49805 c -0.577463,0.57691 -1.543631,0.57691 -2.121094,0 l -2.5,-2.49805 C 12.152574,13.28178 11.9938,12.88984 12,12.48438 c 0.01273,-0.80798 0.69232,-1.4766 1.5,-1.47657 l 0.550781,0 L 14.208984,8 13.933594,8 Z" style="opacity: 1; fill: #000000; fill-opacity: 1; stroke: none; stroke-width: 1; stroke-linecap: round; stroke-linejoin: round; stroke-miterlimit: 4; stroke-dasharray: none; stroke-dashoffset: 0; stroke-opacity: 1;" />
</svg>