<svg width="26" height="26" viewBox="0 0 26 26" xmlns="http://www.w3.org/2000/svg">
<path d="m 13.007121,6.50593 -2,3.0000001 H 4.5071212 M 14.500001,19.5 H 4.5000012 V 6.5 H 21.5 v 13 h -1" style="opacity: 1; fill: none; fill-opacity: 1; stroke: #000000; stroke-width: 0.99999994; stroke-linecap: round; stroke-linejoin: round; stroke-miterlimit: 4; stroke-dasharray: none; stroke-dashoffset: 0; stroke-opacity: 1;" />
<path d="M 19,8.5 H 17.5 V 7.0000001 M 17,10.5 h 2 m -2,2 h 2 m -2,2 h 2 M 16,9.5000001 h 2 M 16,11.5 h 2 m -2,2 h 2 m -2,2 h 2 M 17.5,18 V 16.5 H 19" style="fill: none; stroke: #000000; stroke-width: 1px; stroke-linecap: butt; stroke-linejoin: miter; stroke-opacity: 1;" />
<path d="m 16,18 v 2 h 1 c 0,0 -1,1 -1,3.5 0,0.277 0.223,0.5 0.5,0.5 h 2 C 18.777,24 19.03917,23.774216 19,23.5 19,21 18,20 18,20 h 1 v -2 z m 1.5,3 c 0.5,0 0.5,2 0.5,2 h -1 c 0,0 0,-2 0.5,-2 z" style="opacity: 1; fill: #000000; fill-opacity: 1; stroke: none; stroke-width: 0.75; stroke-linecap: round; stroke-linejoin: round; stroke-miterlimit: 4; stroke-dasharray: none; stroke-dashoffset: 2.79999995; stroke-opacity: 1;" />
</svg>