<svg width="26" height="26" viewBox="0 0 26 26" xmlns="http://www.w3.org/2000/svg">
<path d="m 16,2.5 c -0.127922,0 -0.255898,0.049 -0.353516,0.14648 l -2.5,2.49805 C 13.050784,5.24013 12.997928,5.37065 13,5.50586 c 0.0043,0.27289 0.226932,0.4922 0.5,0.49219 l 1.5,0 0.5,9.49609 c -0.0096,0.67571 1.009561,0.67571 1,0 l 0.5,-9.49609 1.5,0 c 0.445251,-1.7e-4 0.668247,-0.53873 0.353516,-0.85352 l -2.5,-2.49805 C 16.255898,2.54896 16.127922,2.5 16,2.5 Z M 4.5,8 A 0.50005,0.50005 0 0 0 4,8.5 l 0,2.5 6.732422,0 2,-3 L 4.5,8 Z m 9.433594,0 -2.517578,3.77734 A 0.50004997,0.50004997 0 0 1 11,12 l -7,0 0,9.5 A 0.50005,0.50005 0 0 0 4.5,22 l 17,0 A 0.50005,0.50005 0 0 0 22,21.5 l 0,-13 A 0.50005,0.50005 0 0 0 21.5,8 l -3.605469,0 -0.396484,7.54492 0.002,-0.0664 c 0.0059,0.42019 -0.184732,0.86778 -0.486328,1.13867 C 16.712076,16.88808 16.349311,17 16,17 15.650689,17 15.286021,16.88809 14.984375,16.61719 14.682776,16.34628 14.494,15.89871 14.5,15.47852 l 0.002,0.0664 L 14.103516,8 13.933594,8 Z" style="opacity: 1; fill: #000000; fill-opacity: 1; stroke: none; stroke-width: 1; stroke-linecap: round; stroke-linejoin: round; stroke-miterlimit: 4; stroke-dasharray: none; stroke-dashoffset: 0; stroke-opacity: 1;" />
</svg>