<svg width="26" height="26" viewBox="0 0 26 26" xmlns="http://www.w3.org/2000/svg">
<path d="m 12.5,19.5 -8,0 0,-13 17,0 0,4" style="opacity: 1; fill: none; fill-opacity: 1; stroke: #000000; stroke-width: 1; stroke-linecap: round; stroke-linejoin: round; stroke-miterlimit: 4; stroke-dasharray: none; stroke-dashoffset: 0; stroke-opacity: 1;" />
<path d="m 13,6.5 -2,3 -6.5,0" style="opacity: 1; fill: none; fill-opacity: 1; stroke: #000000; stroke-width: 0.99999994; stroke-linecap: round; stroke-linejoin: round; stroke-miterlimit: 4; stroke-dasharray: none; stroke-dashoffset: 0; stroke-opacity: 1;" />
<path d="m 20,12 a 6,6 0 0 0 -6,6 6,6 0 0 0 6,6 6,6 0 0 0 6,-6 6,6 0 0 0 -6,-6 z m -2.121094,2.671875 c 0.12781,0 0.255581,0.04855 0.353516,0.146484 L 20,16.585938 21.767578,14.818359 c 0.195869,-0.19587 0.511162,-0.19587 0.707031,0 l 0.707032,0.707032 c 0.195868,0.19586 0.195868,0.511161 0,0.707031 L 21.414062,18 l 1.767579,1.767578 c 0.195868,0.19587 0.195868,0.511171 0,0.707031 l -0.707032,0.707032 c -0.195869,0.19587 -0.511162,0.19587 -0.707031,0 L 20,19.414062 18.232422,21.181641 c -0.195869,0.19587 -0.511162,0.19587 -0.707031,0 l -0.707032,-0.707032 c -0.195868,-0.19586 -0.195868,-0.511161 0,-0.707031 L 18.585938,18 16.818359,16.232422 c -0.195868,-0.19587 -0.195868,-0.511161 0,-0.707031 l 0.707032,-0.707032 c 0.09793,-0.09794 0.225706,-0.146484 0.353515,-0.146484 z" style="opacity: 1; fill: #000000; fill-opacity: 1; stroke: none; stroke-width: 1; stroke-linecap: butt; stroke-linejoin: round; stroke-miterlimit: 4; stroke-dasharray: none; stroke-dashoffset: 0; stroke-opacity: 1;" />
</svg>