<svg width="26" height="26" viewBox="0 0 26 26" xmlns="http://www.w3.org/2000/svg">
<path d="M 4.5,6 A 0.50005,0.50005 0 0 0 4,6.5 l 0,2.5 6.732422,0 2,-3 L 4.5,6 Z m 9.433594,0 -2.517578,3.777344 A 0.50004997,0.50004997 0 0 1 11,10 l -7,0 0,9.5 A 0.50005,0.50005 0 0 0 4.5,20 l 12.671875,0 1,-1 -1.060547,-1.060547 c -0.575358,-0.575364 -0.575358,-1.54573 0,-2.121094 l 0.707031,-0.707031 c 0.287687,-0.287688 0.674059,-0.431641 1.060547,-0.43164 0.386488,-1e-6 0.772861,0.143952 1.060547,0.43164 L 21,16.171875 l 1,-1 L 22,6.5 A 0.50005,0.50005 0 0 0 21.5,6 l -7.566406,0 z m 4.945312,9.671875 c -0.127809,0 -0.255581,0.04855 -0.353515,0.146484 l -0.707032,0.707032 c -0.195868,0.19587 -0.195868,0.511161 0,0.707031 L 19.585938,19 17.818359,20.767578 c -0.195868,0.19587 -0.195868,0.511171 0,0.707031 l 0.707032,0.707032 c 0.195869,0.19587 0.511162,0.19587 0.707031,0 L 21,20.414062 l 1.767578,1.767579 c 0.195869,0.19587 0.511162,0.19587 0.707031,0 l 0.707032,-0.707032 c 0.195868,-0.19586 0.195868,-0.511161 0,-0.707031 L 22.414062,19 24.181641,17.232422 c 0.195868,-0.19587 0.195868,-0.511171 0,-0.707031 l -0.707032,-0.707032 c -0.195869,-0.19587 -0.511162,-0.19587 -0.707031,0 L 21,17.585938 19.232422,15.818359 c -0.09793,-0.09794 -0.225706,-0.146484 -0.353516,-0.146484 z" style="opacity: 1; fill: #000000; fill-opacity: 1; stroke: none; stroke-width: 1; stroke-linecap: round; stroke-linejoin: round; stroke-miterlimit: 4; stroke-dasharray: none; stroke-dashoffset: 0; stroke-opacity: 1;" />
</svg>