<svg width="26" height="26" viewBox="0 0 26 26" xmlns="http://www.w3.org/2000/svg">
<path d="M 34.5,56 A 0.50005,0.50005 0 0 0 34,56.5 l 0,2.5 6.732422,0 2,-3 L 34.5,56 Z m 9.433594,0 -2.517578,3.777344 A 0.50004997,0.50004997 0 0 1 41,60 l -7,0 0,9.5 a 0.50005,0.50005 0 0 0 0.5,0.5 l 12.671875,0 1,-1 -1.060547,-1.060547 c -0.575358,-0.575364 -0.575358,-1.54573 0,-2.121094 l 0.707031,-0.707031 c 0.287687,-0.287688 0.674059,-0.431641 1.060547,-0.43164 0.386488,-10e-7 0.772861,0.143952 1.060547,0.43164 L 51,66.171875 l 1,-1 L 52,56.5 A 0.50005,0.50005 0 0 0 51.5,56 l -7.566406,0 z m 4.945312,9.671875 c -0.127809,0 -0.255581,0.04855 -0.353515,0.146484 l -0.707032,0.707032 c -0.195868,0.19587 -0.195868,0.511161 0,0.707031 L 49.585938,69 47.818359,70.767578 c -0.195868,0.19587 -0.195868,0.511171 0,0.707031 l 0.707032,0.707032 c 0.195869,0.19587 0.511162,0.19587 0.707031,0 L 51,70.414062 l 1.767578,1.767579 c 0.195869,0.19587 0.511162,0.19587 0.707031,0 l 0.707032,-0.707032 c 0.195868,-0.19586 0.195868,-0.511161 0,-0.707031 L 52.414062,69 54.181641,67.232422 c 0.195868,-0.19587 0.195868,-0.511171 0,-0.707031 l -0.707032,-0.707032 c -0.195869,-0.19587 -0.511162,-0.19587 -0.707031,0 L 51,67.585938 49.232422,65.818359 c -0.09793,-0.09794 -0.225706,-0.146484 -0.353516,-0.146484 z" style="opacity: 1; fill: #000000; fill-opacity: 1; stroke: none; stroke-width: 1; stroke-linecap: round; stroke-linejoin: round; stroke-miterlimit: 4; stroke-dasharray: none; stroke-dashoffset: 0; stroke-opacity: 1;" />
<path d="m 72.5,69.5 -8,0 0,-13 17,0 0,4" style="opacity: 1; fill: none; fill-opacity: 1; stroke: #000000; stroke-width: 1; stroke-linecap: round; stroke-linejoin: round; stroke-miterlimit: 4; stroke-dasharray: none; stroke-dashoffset: 0; stroke-opacity: 1;" />
<path d="m 73,56.5 -2,3 -6.5,0" style="opacity: 1; fill: none; fill-opacity: 1; stroke: #000000; stroke-width: 0.99999994; stroke-linecap: round; stroke-linejoin: round; stroke-miterlimit: 4; stroke-dasharray: none; stroke-dashoffset: 0; stroke-opacity: 1;" />
<path d="m 80,62 a 6,6 0 0 0 -6,6 6,6 0 0 0 6,6 6,6 0 0 0 6,-6 6,6 0 0 0 -6,-6 z m -2.121094,2.671875 c 0.12781,0 0.255581,0.04855 0.353516,0.146484 L 80,66.585938 81.767578,64.818359 c 0.195869,-0.19587 0.511162,-0.19587 0.707031,0 l 0.707032,0.707032 c 0.195868,0.19586 0.195868,0.511161 0,0.707031 L 81.414062,68 l 1.767579,1.767578 c 0.195868,0.19587 0.195868,0.511171 0,0.707031 l -0.707032,0.707032 c -0.195869,0.19587 -0.511162,0.19587 -0.707031,0 L 80,69.414062 78.232422,71.181641 c -0.195869,0.19587 -0.511162,0.19587 -0.707031,0 l -0.707032,-0.707032 c -0.195868,-0.19586 -0.195868,-0.511161 0,-0.707031 L 78.585938,68 76.818359,66.232422 c -0.195868,-0.19587 -0.195868,-0.511161 0,-0.707031 l 0.707032,-0.707032 c 0.09793,-0.09794 0.225706,-0.146484 0.353515,-0.146484 z" style="opacity: 1; fill: #000000; fill-opacity: 1; stroke: none; stroke-width: 1; stroke-linecap: butt; stroke-linejoin: round; stroke-miterlimit: 4; stroke-dasharray: none; stroke-dashoffset: 0; stroke-opacity: 1;" />
<path d="m 15.5,44.5 -11,0 0,-13 17,0 0,10" style="opacity: 1; fill: none; fill-opacity: 1; stroke: #000000; stroke-width: 1; stroke-linecap: round; stroke-linejoin: round; stroke-miterlimit: 4; stroke-dasharray: none; stroke-dashoffset: 0; stroke-opacity: 1;" />
<path d="m 13,31.5 -2,3 -6.5,0" style="opacity: 1; fill: none; fill-opacity: 1; stroke: #000000; stroke-width: 0.99999994; stroke-linecap: round; stroke-linejoin: round; stroke-miterlimit: 4; stroke-dasharray: none; stroke-dashoffset: 0; stroke-opacity: 1;" />
<path d="M 17.5,43 C 17.223,43 17,43.223 17,43.5 l 0,1 c 0,0.277 0.223,0.5 0.5,0.5 l 1,0 c 0.277,0 0.5,-0.223 0.5,-0.5 l 0,-1 C 19,43.223 18.777,43 18.5,43 l -1,0 z m 3,0 C 20.223,43 20,43.223 20,43.5 l 0,1 c 0,0.277 0.223,0.5 0.5,0.5 l 1,0 c 0.277,0 0.5,-0.223 0.5,-0.5 l 0,-1 C 22,43.223 21.777,43 21.5,43 l -1,0 z m 3,0 C 23.223,43 23,43.223 23,43.5 l 0,1 c 0,0.277 0.223,0.5 0.5,0.5 l 1,0 c 0.277,0 0.5,-0.223 0.5,-0.5 l 0,-1 C 25,43.223 24.777,43 24.5,43 l -1,0 z" style="opacity: 1; fill: #000000; fill-opacity: 1; stroke: none; stroke-width: 2; stroke-linecap: butt; stroke-linejoin: round; stroke-miterlimit: 4; stroke-dasharray: none; stroke-dashoffset: 0; stroke-opacity: 1;" />
<path d="m 16.5,69.5 -12,0 0,-13 17,0 0,8" style="opacity: 1; fill: none; fill-opacity: 1; stroke: #000000; stroke-width: 1; stroke-linecap: round; stroke-linejoin: round; stroke-miterlimit: 4; stroke-dasharray: none; stroke-dashoffset: 0; stroke-opacity: 1;" />
<path d="m 13,56.5 -2,3 -6.5,0" style="opacity: 1; fill: none; fill-opacity: 1; stroke: #000000; stroke-width: 0.99999994; stroke-linecap: round; stroke-linejoin: round; stroke-miterlimit: 4; stroke-dasharray: none; stroke-dashoffset: 0; stroke-opacity: 1;" />
<path d="m 23.474874,65.81802 c -0.195869,-0.19587 -0.511238,-0.19587 -0.707107,0 L 21,67.58579 19.232233,65.81802 c -0.195869,-0.19587 -0.511238,-0.19587 -0.707107,0 l -0.707107,0.70711 c -0.195868,0.19587 -0.195868,0.51123 0,0.7071 L 19.585786,69 17.818019,70.76777 c -0.195868,0.19587 -0.195868,0.51124 0,0.7071 l 0.707107,0.70711 c 0.195869,0.19587 0.511238,0.19587 0.707107,0 L 21,70.41421 l 1.767767,1.76777 c 0.195869,0.19587 0.511238,0.19587 0.707107,0 l 0.707107,-0.70711 c 0.195868,-0.19586 0.195868,-0.51123 0,-0.7071 L 22.414214,69 24.181981,67.23223 c 0.195868,-0.19587 0.195868,-0.51124 0,-0.7071 z" style="opacity: 1; fill: #000000; fill-opacity: 1; stroke: none; stroke-width: 1; stroke-linecap: round; stroke-linejoin: round; stroke-miterlimit: 4; stroke-dasharray: none; stroke-dashoffset: 0; stroke-opacity: 1;" />
<path d="M 34.5,31 A 0.50005,0.50005 0 0 0 34,31.5 l 0,2.5 6.732422,0 2,-3 L 34.5,31 Z m 9.433594,0 -2.517578,3.777344 A 0.50004997,0.50004997 0 0 1 41,35 l -7,0 0,9.5 A 0.50005,0.50005 0 0 0 34.5,45 L 46,45 46,43.5 C 46,42.686297 46.686297,42 47.5,42 L 52,42 52,31.5 A 0.50005,0.50005 0 0 0 51.5,31 l -7.566406,0 z M 47.5,43 C 47.223,43 47,43.223 47,43.5 l 0,1 c 0,0.277 0.223,0.5 0.5,0.5 l 1,0 c 0.277,0 0.5,-0.223 0.5,-0.5 l 0,-1 C 49,43.223 48.777,43 48.5,43 l -1,0 z m 3,0 C 50.223,43 50,43.223 50,43.5 l 0,1 c 0,0.277 0.223,0.5 0.5,0.5 l 1,0 c 0.277,0 0.5,-0.223 0.5,-0.5 l 0,-1 C 52,43.223 51.777,43 51.5,43 l -1,0 z m 3,0 C 53.223,43 53,43.223 53,43.5 l 0,1 c 0,0.277 0.223,0.5 0.5,0.5 l 1,0 c 0.277,0 0.5,-0.223 0.5,-0.5 l 0,-1 C 55,43.223 54.777,43 54.5,43 l -1,0 z" style="opacity: 1; fill: #000000; fill-opacity: 1; stroke: none; stroke-width: 2; stroke-linecap: butt; stroke-linejoin: round; stroke-miterlimit: 4; stroke-dasharray: none; stroke-dashoffset: 0; stroke-opacity: 1;" />
<path d="m 12.5,19.5 -8,0 0,-13 17,0 0,4" style="opacity: 1; fill: none; fill-opacity: 1; stroke: #000000; stroke-width: 1; stroke-linecap: round; stroke-linejoin: round; stroke-miterlimit: 4; stroke-dasharray: none; stroke-dashoffset: 0; stroke-opacity: 1;" />
<path d="m 13,6.5 -2,3 -6.5,0" style="opacity: 1; fill: none; fill-opacity: 1; stroke: #000000; stroke-width: 0.99999994; stroke-linecap: round; stroke-linejoin: round; stroke-miterlimit: 4; stroke-dasharray: none; stroke-dashoffset: 0; stroke-opacity: 1;" />
<path d="m 20,12 a 6,6 0 0 0 -6,6 6,6 0 0 0 6,6 6,6 0 0 0 6,-6 6,6 0 0 0 -6,-6 z m -3.5,5 7,0 c 0.277,0 0.5,0.223 0.5,0.5 l 0,1 c 0,0.277 -0.223,0.5 -0.5,0.5 l -7,0 C 16.223,19 16,18.777 16,18.5 l 0,-1 C 16,17.223 16.223,17 16.5,17 Z" style="opacity: 1; fill: #000000; fill-opacity: 1; stroke: none; stroke-width: 1; stroke-linecap: butt; stroke-linejoin: round; stroke-miterlimit: 4; stroke-dasharray: none; stroke-dashoffset: 0; stroke-opacity: 1;" />
<path d="m 72.5,44.5 -8,0 0,-13 17,0 0,4" style="opacity: 1; fill: none; fill-opacity: 1; stroke: #000000; stroke-width: 1; stroke-linecap: round; stroke-linejoin: round; stroke-miterlimit: 4; stroke-dasharray: none; stroke-dashoffset: 0; stroke-opacity: 1;" />
<path d="m 73,31.5 -2,3 -6.5,0" style="opacity: 1; fill: none; fill-opacity: 1; stroke: #000000; stroke-width: 0.99999994; stroke-linecap: round; stroke-linejoin: round; stroke-miterlimit: 4; stroke-dasharray: none; stroke-dashoffset: 0; stroke-opacity: 1;" />
<path d="m 80,37 a 6,6 0 0 0 -6,6 6,6 0 0 0 6,6 6,6 0 0 0 6,-6 6,6 0 0 0 -6,-6 z m -3.5,5 1,0 c 0.277,0 0.5,0.223 0.5,0.5 l 0,1 c 0,0.277 -0.223,0.5 -0.5,0.5 l -1,0 C 76.223,44 76,43.777 76,43.5 l 0,-1 C 76,42.223 76.223,42 76.5,42 Z m 3,0 1,0 c 0.277,0 0.5,0.223 0.5,0.5 l 0,1 c 0,0.277 -0.223,0.5 -0.5,0.5 l -1,0 C 79.223,44 79,43.777 79,43.5 l 0,-1 C 79,42.223 79.223,42 79.5,42 Z m 3,0 1,0 c 0.277,0 0.5,0.223 0.5,0.5 l 0,1 c 0,0.277 -0.223,0.5 -0.5,0.5 l -1,0 C 82.223,44 82,43.777 82,43.5 l 0,-1 C 82,42.223 82.223,42 82.5,42 Z" style="opacity: 1; fill: #000000; fill-opacity: 1; stroke: none; stroke-width: 1; stroke-linecap: butt; stroke-linejoin: round; stroke-miterlimit: 4; stroke-dasharray: none; stroke-dashoffset: 0; stroke-opacity: 1;" />
<path d="m 83.092002,89.79528 c 0.128589,7.6e-4 0.257534,0.0505 0.355469,0.14844 l 0.707031,0.70703 c 0.19587,0.19587 0.195869,0.51117 0,0.70703 l -4.777344,5.2793 c -0.195869,0.19587 -0.511162,0.19587 -0.707031,0 l -2.949219,-2.94922 c -0.195869,-0.19587 -0.195869,-0.51116 0,-0.70703 l 0.707032,-0.70898 c 0.195868,-0.19587 0.511162,-0.19587 0.707031,0 l 1.888672,1.89062 3.716796,-4.21875 c 0.09482,-0.10096 0.222973,-0.14919 0.351563,-0.14844 z" style="opacity: 1; fill: #ffffff; fill-opacity: 1; stroke: none; stroke-width: 1; stroke-linecap: round; stroke-linejoin: round; stroke-miterlimit: 4; stroke-dasharray: none; stroke-dashoffset: 0; stroke-opacity: 1;" />
<path d="M 34.5,81 A 0.50005,0.50005 0 0 0 34,81.5 l 0,2.5 6.732422,0 2,-3 L 34.5,81 Z m 9.433594,0 -2.517578,3.77734 A 0.50004997,0.50004997 0 0 1 41,85 l -7,0 0,9.5 a 0.50005,0.50005 0 0 0 0.5,0.5 l 11.824219,0 c -0.297209,-0.56639 -0.217735,-1.29596 0.251953,-1.76562 l 0.707031,-0.70704 c 0.575295,-0.57529 1.545814,-0.57525 2.121094,0 L 50.033203,93.15625 52,90.88281 52,81.5 A 0.50005,0.50005 0 0 0 51.5,81 l -7.566406,0 z m 9.708984,9.74609 c -0.132783,-0.004 -0.261804,0.0438 -0.339844,0.15821 l -3.216796,3.71875 -1.388672,-1.38867 c -0.195869,-0.19586 -0.511163,-0.19587 -0.707032,0 l -0.707031,0.70703 c -0.195869,0.19586 -0.195869,0.51116 0,0.70703 l 2.449219,2.44922 c 0.195869,0.19586 0.511162,0.19586 0.707031,0 l 4.277344,-4.77735 c 0.195869,-0.19587 0.195869,-0.51116 0,-0.70703 L 54.009766,90.9043 c -0.09793,-0.0979 -0.234404,-0.15421 -0.367188,-0.15821 z" style="opacity: 1; fill: #000000; fill-opacity: 1; stroke: none; stroke-width: 1; stroke-linecap: round; stroke-linejoin: round; stroke-miterlimit: 4; stroke-dasharray: none; stroke-dashoffset: 0; stroke-opacity: 1;" />
<path d="m 72.5,94.5 -8,0 0,-13 17,0 0,4" style="opacity: 1; fill: none; fill-opacity: 1; stroke: #000000; stroke-width: 1; stroke-linecap: round; stroke-linejoin: round; stroke-miterlimit: 4; stroke-dasharray: none; stroke-dashoffset: 0; stroke-opacity: 1;" />
<path d="m 73,81.5 -2,3 -6.5,0" style="opacity: 1; fill: none; fill-opacity: 1; stroke: #000000; stroke-width: 0.99999994; stroke-linecap: round; stroke-linejoin: round; stroke-miterlimit: 4; stroke-dasharray: none; stroke-dashoffset: 0; stroke-opacity: 1;" />
<path d="m 14.5,94.5 -10,0 0,-13 17,0 0,9" style="opacity: 1; fill: none; fill-opacity: 1; stroke: #000000; stroke-width: 1; stroke-linecap: round; stroke-linejoin: round; stroke-miterlimit: 4; stroke-dasharray: none; stroke-dashoffset: 0; stroke-opacity: 1;" />
<path d="m 13,81.5 -2,3 -6.5,0" style="opacity: 1; fill: none; fill-opacity: 1; stroke: #000000; stroke-width: 0.99999994; stroke-linecap: round; stroke-linejoin: round; stroke-miterlimit: 4; stroke-dasharray: none; stroke-dashoffset: 0; stroke-opacity: 1;" />
<path d="m 80,87 a 6,6 0 0 0 -6,6 6,6 0 0 0 6,6 6,6 0 0 0 6,-6 6,6 0 0 0 -6,-6 z m 2.642578,2.74609 c 0.132784,0.004 0.269253,0.0603 0.367188,0.15821 l 0.707031,0.70898 c 0.195869,0.19587 0.195869,0.51116 0,0.70703 l -4.277344,4.77735 c -0.195869,0.19586 -0.511162,0.19586 -0.707031,0 l -2.449219,-2.44922 c -0.195869,-0.19587 -0.195869,-0.51117 0,-0.70703 l 0.707031,-0.70703 c 0.195869,-0.19587 0.511163,-0.19586 0.707032,0 l 1.388672,1.38867 3.216796,-3.71875 c 0.07804,-0.11442 0.207061,-0.16233 0.339844,-0.15821 z" style="opacity: 1; fill: #000000; fill-opacity: 1; stroke: none; stroke-width: 2; stroke-linecap: butt; stroke-linejoin: round; stroke-miterlimit: 4; stroke-dasharray: none; stroke-dashoffset: 0; stroke-opacity: 1;" />
<path d="m 23.642578,90.74609 c 0.132784,0.004 0.269253,0.0603 0.367188,0.15821 l 0.707031,0.70898 c 0.195869,0.19587 0.195869,0.51116 0,0.70703 l -4.277344,4.77735 c -0.195869,0.19586 -0.511162,0.19586 -0.707031,0 l -2.449219,-2.44922 c -0.195869,-0.19587 -0.195869,-0.51117 0,-0.70703 l 0.707031,-0.70703 c 0.195869,-0.19587 0.511163,-0.19586 0.707032,0 l 1.388672,1.38867 3.216796,-3.71875 c 0.07804,-0.11442 0.207061,-0.16233 0.339844,-0.15821 z" style="opacity: 1; fill: #000000; fill-opacity: 1; stroke: none; stroke-width: 2; stroke-linecap: butt; stroke-linejoin: round; stroke-miterlimit: 4; stroke-dasharray: none; stroke-dashoffset: 0; stroke-opacity: 1;" />
<path d="m 18.5,133.5 3,0 0,13 -17,0 0,-13 9,0" style="opacity: 1; fill: none; fill-opacity: 1; stroke: #000000; stroke-width: 1; stroke-linecap: round; stroke-linejoin: round; stroke-miterlimit: 4; stroke-dasharray: none; stroke-dashoffset: 0; stroke-opacity: 1;" />
<path d="m 13,133.5 -2,3 -6.5,0" style="opacity: 1; fill: none; fill-opacity: 1; stroke: #000000; stroke-width: 0.99999994; stroke-linecap: round; stroke-linejoin: round; stroke-miterlimit: 4; stroke-dasharray: none; stroke-dashoffset: 0; stroke-opacity: 1;" />
<path d="m 13.000059,130.50571 c 0.0043,0.27289 0.226856,0.49186 0.499924,0.49185 l 1.499771,0 0.499924,9.49566 c -0.0096,0.67571 1.009409,0.67571 0.999848,0 l 0.499924,-9.49566 1.499771,0 c 0.445251,-1.7e-4 0.668193,-0.53815 0.353462,-0.85294 l -2.499619,-2.49833 c -0.195235,-0.19505 -0.511689,-0.19505 -0.706924,0 l -2.499619,2.49833 c -0.0957,0.0956 -0.148534,0.22588 -0.146462,0.36109 z" style="opacity: 1; fill: #000000; fill-opacity: 1; stroke: none; stroke-width: 1px; stroke-linecap: butt; stroke-linejoin: round; stroke-miterlimit: 4; stroke-dasharray: none; stroke-dashoffset: 0; stroke-opacity: 1;" />
<path d="m 18.5,108.5 3,0 0,13 -17,0 0,-13 9,0" style="opacity: 1; fill: none; fill-opacity: 1; stroke: #000000; stroke-width: 1; stroke-linecap: round; stroke-linejoin: round; stroke-miterlimit: 4; stroke-dasharray: none; stroke-dashoffset: 0; stroke-opacity: 1;" />
<path d="m 13,108.5 -2,3 -6.5,0" style="opacity: 1; fill: none; fill-opacity: 1; stroke: #000000; stroke-width: 0.99999994; stroke-linecap: round; stroke-linejoin: round; stroke-miterlimit: 4; stroke-dasharray: none; stroke-dashoffset: 0; stroke-opacity: 1;" />
<path d="m 13.000059,113.49429 c 0.0043,-0.27289 0.226856,-0.49186 0.499924,-0.49185 l 1.499771,0 0.499924,-9.49566 c -0.0096,-0.67571 1.009409,-0.67571 0.999848,0 l 0.499924,9.49566 1.499771,0 c 0.445251,1.7e-4 0.668193,0.53815 0.353462,0.85294 l -2.499619,2.49833 c -0.195235,0.19505 -0.511689,0.19505 -0.706924,0 l -2.499619,-2.49833 c -0.0957,-0.0956 -0.148534,-0.22588 -0.146462,-0.36109 z" style="opacity: 1; fill: #000000; fill-opacity: 1; stroke: none; stroke-width: 1px; stroke-linecap: butt; stroke-linejoin: round; stroke-miterlimit: 4; stroke-dasharray: none; stroke-dashoffset: 0; stroke-opacity: 1;" />
<path d="m 46,127.5 c -0.127922,0 -0.255898,0.049 -0.353516,0.14648 l -2.5,2.49805 c -0.0957,0.0956 -0.148556,0.22612 -0.146484,0.36133 0.0043,0.27289 0.226932,0.4922 0.5,0.49219 l 1.5,0 0.5,9.49609 c -0.0096,0.67571 1.009561,0.67571 1,0 l 0.5,-9.49609 1.5,0 c 0.445251,-1.7e-4 0.668247,-0.53873 0.353516,-0.85352 l -2.5,-2.49805 C 46.255898,127.54896 46.127922,127.5 46,127.5 Z M 34.5,133 a 0.50005,0.50005 0 0 0 -0.5,0.5 l 0,2.5 6.732422,0 2,-3 L 34.5,133 Z m 9.433594,0 -2.517578,3.77734 A 0.50004997,0.50004997 0 0 1 41,137 l -7,0 0,9.5 a 0.50005,0.50005 0 0 0 0.5,0.5 l 17,0 a 0.50005,0.50005 0 0 0 0.5,-0.5 l 0,-13 A 0.50005,0.50005 0 0 0 51.5,133 l -3.605469,0 -0.396484,7.54492 0.002,-0.0664 c 0.0059,0.42019 -0.184732,0.86778 -0.486328,1.13867 C 46.712076,141.88808 46.349311,142 46,142 45.650689,142 45.286021,141.88809 44.984375,141.61719 44.682776,141.34628 44.494,140.89871 44.5,140.47852 l 0.002,0.0664 L 44.103516,133 l -0.169922,0 z" style="opacity: 1; fill: #000000; fill-opacity: 1; stroke: none; stroke-width: 1; stroke-linecap: round; stroke-linejoin: round; stroke-miterlimit: 4; stroke-dasharray: none; stroke-dashoffset: 0; stroke-opacity: 1;" />
<path d="m 46,102.00586 c -0.252357,0 -0.5048,0.16996 -0.5,0.50781 l -0.5,9.49414 -1.5,0 c -0.273068,-1e-5 -0.4957,0.2193 -0.5,0.49219 -0.0021,0.13521 0.05078,0.26573 0.146484,0.36133 l 2.5,2.49805 c 0.195235,0.19505 0.511797,0.19505 0.707032,0 l 2.5,-2.49805 c 0.314731,-0.31479 0.09173,-0.85335 -0.353516,-0.85352 l -1.5,0 -0.5,-9.49414 c 0.0048,-0.33785 -0.247643,-0.50781 -0.5,-0.50781 z M 34.5,108 a 0.50005,0.50005 0 0 0 -0.5,0.5 l 0,2.5 6.732422,0 2,-3 L 34.5,108 Z m 9.433594,0 -2.517578,3.77734 A 0.50004997,0.50004997 0 0 1 41,112 l -7,0 0,9.5 a 0.50005,0.50005 0 0 0 0.5,0.5 l 17,0 a 0.50005,0.50005 0 0 0 0.5,-0.5 l 0,-13 A 0.50005,0.50005 0 0 0 51.5,108 l -3.710938,0 0.158204,3.00781 0.552734,0 c 0.625316,2.4e-4 1.173285,0.41546 1.384766,0.92578 0.21148,0.51033 0.118009,1.19246 -0.324219,1.63477 l -2.5,2.49805 c -0.577463,0.57691 -1.543631,0.57691 -2.121094,0 l -2.5,-2.49805 C 42.152574,113.28178 41.9938,112.88984 42,112.48438 c 0.01273,-0.80798 0.69232,-1.4766 1.5,-1.47657 l 0.550781,0 0.158203,-3.00781 -0.27539,0 z" style="opacity: 1; fill: #000000; fill-opacity: 1; stroke: none; stroke-width: 1; stroke-linecap: round; stroke-linejoin: round; stroke-miterlimit: 4; stroke-dasharray: none; stroke-dashoffset: 0; stroke-opacity: 1;" />
</svg>