<svg width="26" height="26" viewBox="0 0 26 26" xmlns="http://www.w3.org/2000/svg">
<path d="M 9,5.9999999 4.3632812,18 H 4 v 1 H 7 V 18 H 6.3339844 l 1.1171875,-3 h 4.0976561 l 1.117188,3 H 12 v 1 h 3 V 18 H 14.636719 L 10,5.9999999 Z m 0.5,3.5 L 11.175781,14 H 7.8242188 Z M 19.5,11.5 c -1,0 -2.14644,-0.06066 -3.5,1.5 l 0.5,1 c 1.30936,-1.508233 3.5,-2 3.5,0.5 v 1 c 0,0 -1,-1 -2,-1 -1,0 -2,0 -2,2 0,2 0.54553,2.5 2,2.5 1,0 2,-1 2,-1 v 1 h 2 c 0,0 -0.5,-0.968106 -0.5,-4 0,-2 -1,-3.5 -2,-3.5 z m -1.208984,3.962891 C 19.023438,15.414062 20,16 20,16 v 1.5 c -1,0.5 -2.5,1.5 -2.5,-1 0,-0.75 0.351562,-1.007812 0.791016,-1.037109 z" style="fill: #000000; fill-opacity: 1; stroke: none; stroke-width: 1px; stroke-linecap: butt; stroke-linejoin: miter; stroke-opacity: 1;" />
</svg>