<svg width="26" height="26" viewBox="0 0 26 26" xmlns="http://www.w3.org/2000/svg">
<path d="M 20,14.428571 C 20,16.479915 19.013483,18.655693 17.65625,20 H 7.34375 C 5.986517,18.655693 5,16.479915 5,14.428571 5,10.325885 8.357864,6.9999998 12.5,6.9999998 c 4.142136,0 7.5,3.3258852 7.5,7.4285712 z" style="opacity: 1; fill: none; fill-opacity: 1; stroke: #000000; stroke-width: 2; stroke-linecap: round; stroke-linejoin: round; stroke-miterlimit: 4; stroke-dasharray: none; stroke-dashoffset: 1.5; stroke-opacity: 1;" />
<path d="M 11,18 12.5,9.9999998 14,18 12.5,20 Z" style="fill: #000000; fill-opacity: 1; stroke: none; stroke-width: 1px; stroke-linecap: butt; stroke-linejoin: miter; stroke-opacity: 1;" />
<path d="M 9.25,8.8708347 10.252374,10.607 M 15.75,8.8708347 14.74847,10.605535 M 18.129165,11.25 16.393,12.252375 M 8.606999,16.747625 6.870835,17.75 m 0,-6.5 1.734699,1.001529 M 16.394466,16.748471 18.129165,17.75 M 12.5,7.9999998 l -10e-7,2 M 6,14.5 H 7.999999 M 17,14.5 h 2" style="fill: none; stroke: #000000; stroke-width: 1px; stroke-linecap: butt; stroke-linejoin: miter; stroke-opacity: 1;" />
</svg>