<svg width="26" height="26" viewBox="0 0 26 26" xmlns="http://www.w3.org/2000/svg">
<path d="M 10.441487,3 A 10.33091,10.330933 0 0 0 7.7397114,4.1238922 2.5827275,2.5827331 0 0 1 7.5217914,7.521799 2.5827275,2.5827331 0 0 1 4.1218719,7.7396995 10.33091,10.330933 0 0 0 3.0040361,10.441485 2.5827275,2.5827331 0 0 1 5.2518158,13 a 2.5827275,2.5827331 0 0 1 -2.2518157,2.558515 10.33091,10.330933 0 0 0 1.1238898,2.701786 2.5827275,2.5827331 0 0 1 1.5334948,-0.536702 2.5827275,2.5827331 0 0 1 1.8644067,0.754602 2.5827275,2.5827331 0 0 1 0.21792,3.399927 10.33091,10.330933 0 0 0 2.7017756,1.117832 2.5827275,2.5827331 0 0 1 2.558515,-2.247785 A 2.5827275,2.5827331 0 0 1 15.558515,23 a 10.33091,10.330933 0 0 0 2.701776,-1.123892 2.5827275,2.5827331 0 0 1 0.21792,-3.397907 2.5827275,2.5827331 0 0 1 1.78975,-0.754602 2.5827275,2.5827331 0 0 1 1.610169,0.536702 10.33091,10.330933 0 0 0 1.117834,-2.701766 A 2.5827275,2.5827331 0 0 1 20.748185,13.00002 2.5827275,2.5827331 0 0 1 23,10.441505 10.33091,10.330933 0 0 0 21.876109,7.7397195 2.5827275,2.5827331 0 0 1 18.478208,7.521819 2.5827275,2.5827331 0 0 1 18.260291,4.1218922 10.33091,10.330933 0 0 0 15.558515,3.00406 2.5827275,2.5827331 0 0 1 13.000002,5.2518445 2.5827275,2.5827331 0 0 1 10.441487,3.00002 Z m 2.558515,5.3511007 A 4.6489096,4.6489196 0 0 1 17.648911,13.00002 4.6489096,4.6489196 0 0 1 13.000002,17.648939 4.6489096,4.6489196 0 0 1 8.3510913,13.00002 4.6489096,4.6489196 0 0 1 13.000002,8.3511007 Z" style="opacity: 1; fill: #000000; fill-opacity: 1; stroke: none; stroke-width: 4; stroke-linecap: round; stroke-linejoin: round; stroke-miterlimit: 4; stroke-dasharray: none; stroke-dashoffset: 0; stroke-opacity: 1;" />
</svg>