<svg width="26" height="26" viewBox="0 0 26 26" xmlns="http://www.w3.org/2000/svg">
<path d="M 9.4414062 2 A 10.33091 10.330933 0 0 0 6.7402344 3.1230469 A 2.5827275 2.5827331 0 0 1 6.5214844 6.5214844 A 2.5827275 2.5827331 0 0 1 3.1210938 6.7402344 A 10.33091 10.330933 0 0 0 2.0039062 9.4414062 A 2.5827275 2.5827331 0 0 1 4.2519531 12 A 2.5827275 2.5827331 0 0 1 2 14.558594 A 10.33091 10.330933 0 0 0 3.1230469 17.259766 A 2.5827275 2.5827331 0 0 1 4.6582031 16.722656 A 2.5827275 2.5827331 0 0 1 6.5214844 17.478516 A 2.5827275 2.5827331 0 0 1 6.7402344 20.878906 A 10.33091 10.330933 0 0 0 9.4414062 21.996094 A 2.5827275 2.5827331 0 0 1 12 19.748047 A 2.5827275 2.5827331 0 0 1 12.373047 19.779297 C 12.513417 19.66209 12.674415 19.568434 12.871094 19.542969 C 13.15204 19.506674 13.350463 19.283044 13.351562 19 C 13.351299 18.716467 13.154182 18.493801 12.873047 18.457031 C 12.277508 18.37963 11.883997 17.798514 12.033203 17.216797 C 12.083474 17.020172 12.158019 16.831931 12.224609 16.640625 A 4.6489096 4.6489196 0 0 1 12 16.648438 A 4.6489096 4.6489196 0 0 1 7.3515625 12 A 4.6489096 4.6489196 0 0 1 12 7.3515625 A 4.6489096 4.6489196 0 0 1 16.648438 12 A 4.6489096 4.6489196 0 0 1 16.636719 12.224609 C 16.828695 12.15736 17.017472 12.08209 17.214844 12.03125 C 17.287017 12.01264 17.361047 12.0022 17.435547 12 C 17.959413 11.985053 18.405922 12.377052 18.458984 12.898438 L 18.457031 12.871094 C 18.4934 13.152612 18.718099 13.351242 19.001953 13.351562 C 19.284669 13.350506 19.506269 13.153617 19.542969 12.873047 C 19.568358 12.6777 19.661317 12.516802 19.777344 12.376953 A 2.5827275 2.5827331 0 0 1 19.748047 12 A 2.5827275 2.5827331 0 0 1 22 9.4414062 A 10.33091 10.330933 0 0 0 20.876953 6.7402344 A 2.5827275 2.5827331 0 0 1 17.478516 6.5214844 A 2.5827275 2.5827331 0 0 1 17.259766 3.1210938 A 10.33091 10.330933 0 0 0 14.558594 2.0039062 A 2.5827275 2.5827331 0 0 1 12 4.2519531 A 2.5827275 2.5827331 0 0 1 9.4414062 2 z " style="opacity: 1; fill: #000000; fill-opacity: 1; stroke: none; stroke-width: 4; stroke-linecap: round; stroke-linejoin: round; stroke-miterlimit: 4; stroke-dasharray: none; stroke-dashoffset: 0; stroke-opacity: 1;" />
<path d="M 17.464844,13 A 6.198546,6.1985598 0 0 0 15.84375,13.673828 1.5496365,1.5496399 0 0 1 15.712891,15.712891 1.5496365,1.5496399 0 0 1 13.673828,15.84375 6.198546,6.1985598 0 0 0 13.001953,17.464844 1.5496365,1.5496399 0 0 1 14.351562,19 1.5496365,1.5496399 0 0 1 13,20.535156 a 6.198546,6.1985598 0 0 0 0.673828,1.621094 1.5496365,1.5496399 0 0 1 0.919922,-0.322266 1.5496365,1.5496399 0 0 1 1.119141,0.453125 1.5496365,1.5496399 0 0 1 0.130859,2.039063 6.198546,6.1985598 0 0 0 1.621094,0.671875 A 1.5496365,1.5496399 0 0 1 19,23.648438 1.5496365,1.5496399 0 0 1 20.535156,25 6.198546,6.1985598 0 0 0 22.15625,24.326172 1.5496365,1.5496399 0 0 1 22.287109,22.287109 1.5496365,1.5496399 0 0 1 23.361328,21.833984 1.5496365,1.5496399 0 0 1 24.326172,22.15625 6.198546,6.1985598 0 0 0 24.998047,20.535156 1.5496365,1.5496399 0 0 1 23.648438,19 1.5496365,1.5496399 0 0 1 25,17.464844 6.198546,6.1985598 0 0 0 24.326172,15.84375 1.5496365,1.5496399 0 0 1 22.287109,15.712891 1.5496365,1.5496399 0 0 1 22.15625,13.673828 6.198546,6.1985598 0 0 0 20.535156,13.001953 1.5496365,1.5496399 0 0 1 19,14.351562 1.5496365,1.5496399 0 0 1 17.464844,13 Z M 19,17 a 1.9999998,2.0000002 0 0 1 2,2 1.9999998,2.0000002 0 0 1 -2,2 1.9999998,2.0000002 0 0 1 -2,-2 1.9999998,2.0000002 0 0 1 2,-2 z" style="opacity: 1; fill: #000000; fill-opacity: 1; stroke: none; stroke-width: 3.99999976; stroke-linecap: round; stroke-linejoin: round; stroke-miterlimit: 4; stroke-dasharray: none; stroke-dashoffset: 0; stroke-opacity: 1;" />
</svg>