<svg width="26" height="26" viewBox="0 0 26 26" xmlns="http://www.w3.org/2000/svg">
<path d="M 5.5,9.9999998 C 5.223,9.9999998 5,10.223 5,10.5 v 3 C 5,13.777 5.223,14 5.5,14 H 12 v -3.5 c 0,-0.277 0.223,-0.5000002 0.5,-0.5000002 z m 8,0 C 13.777,9.9999998 14,10.223 14,10.5 V 14 h 6.5 c 0.277,0 0.5,-0.223 0.5,-0.5 v -3 C 21,10.223 20.777,9.9999998 20.5,9.9999998 Z M 6.5,15 C 6.223,15 6,15.223 6,15.5 v 5 C 6,20.777 6.223,21 6.5,21 H 12 v -6 z m 7.5,0 v 6 h 5.5 c 0.277,0 0.5,-0.223 0.5,-0.5 v -5 C 20,15.223 19.777,15 19.5,15 Z" style="opacity: 1; fill: #000000; fill-opacity: 1; stroke: none; stroke-width: 1; stroke-linecap: round; stroke-linejoin: round; stroke-miterlimit: 4; stroke-dasharray: none; stroke-dashoffset: 0; stroke-opacity: 1;" />
<path d="m 13.5,9.9999998 c 0,0 1.5,-7 4.5,-4 3,3 -4,4 -4,4 m -1.5,0 c 0,0 -1.5,-7 -4.5,-4 -3,3 4,4 4,4" style="fill: none; stroke: #000000; stroke-width: 1.25; stroke-linecap: round; stroke-linejoin: miter; stroke-miterlimit: 4; stroke-dasharray: none; stroke-opacity: 1;" />
</svg>