<svg width="26" height="26" viewBox="0 0 26 26" xmlns="http://www.w3.org/2000/svg">
<path d="m 11.503485,14 c 0.5,-0.5 2.5,-0.5 3,0 m 1,-4.5 c 0,0 0.5,-2 2.5,-2 2,0 4.5,4.5 4.5,4.5 m -12,-2.5 c 0,0 -0.5,-2 -2.5,-2 C 6.003484,7.5 3.503484,12 3.503484,12" style="fill: none; stroke: #000000; stroke-width: 1px; stroke-linecap: round; stroke-linejoin: round; stroke-opacity: 1;" />
<path d="m 3.503484,12 a 0.50005,0.50005 0 0 0 -0.5,0.5 v 4 c 0,0.445833 0.192236,0.855381 0.478516,1.162109 0.286279,0.306728 0.659561,0.529863 1.080078,0.705079 0.841033,0.35043 1.889323,0.507812 2.941407,0.507812 1.052083,0 2.100373,-0.157382 2.941406,-0.507812 0.420517,-0.175218 0.793799,-0.398351 1.080078,-0.705079 0.28628,-0.306728 0.478516,-0.716276 0.478516,-1.162109 v -4 a 0.50005,0.50005 0 0 0 -0.5,-0.5 z m 11.000001,0 a 0.50005,0.50005 0 0 0 -0.5,0.5 v 4 c 0,0.445833 0.192236,0.855381 0.478516,1.162109 0.286279,0.306728 0.659561,0.529863 1.080078,0.705079 0.841033,0.35043 1.889323,0.507812 2.941406,0.507812 1.052083,0 2.100373,-0.157382 2.941406,-0.507812 0.420517,-0.175218 0.793799,-0.398351 1.080078,-0.705079 0.28628,-0.306728 0.478516,-0.716276 0.478516,-1.162109 v -4 a 0.50005,0.50005 0 0 0 -0.5,-0.5 z" style="opacity: 1; fill: #000000; fill-opacity: 1; stroke: none; stroke-width: 1px; stroke-linecap: round; stroke-linejoin: round; stroke-miterlimit: 4; stroke-dasharray: none; stroke-dashoffset: 0; stroke-opacity: 1;" />
</svg>