<svg width="26" height="26" viewBox="0 0 26 26" xmlns="http://www.w3.org/2000/svg">
<path d="m 13.000134,4.0000004 c -3.0495192,0 -5.7620532,1.4539473 -7.5019532,3.6972656 1.451167,-0.3623383 2.922338,-0.7156413 4.173828,-0.9140625 1.5607122,-0.7110484 3.1335312,-0.8480065 4.6816412,-0.65625 0.136495,0.5314386 0.262313,1.0620587 0.378906,1.59375 0.378168,0.3248401 0.770902,0.6633862 1.191406,0.9824219 C 15.787772,7.937283 15.62934,7.1744877 15.449353,6.4140629 17.236711,7.0288058 18.718523,8.2917086 19.60365,9.931641 18.706003,9.6991763 17.832497,9.520186 16.964978,9.3652348 18.864048,10.126248 20.995425,11.159278 22.420056,12.333984 21.84147,7.6476782 17.839346,4.0000004 13.000134,4.0000004 Z m -0.5,4 c -2.412689,0.04426 -4.5985292,0.5501154 -6.7968752,1.140625 -2.198346,0.5905096 -3.671528,1.8870926 -3.703125,3.8964836 -0.01913,1.352323 2.019125,1.352323 2,0 0.130865,-1.304488 1.183347,-1.705855 2.167969,-1.951171 3.056109,-0.620519 3.9607252,1.882349 6.3320312,1.914062 1.380712,0 2.5,-1.119288 2.5,-2.5 0,-1.3807115 -1.119288,-2.4999996 -2.5,-2.4999996 z m 0,1.5 c 0.552285,0 1,0.4477153 1,0.9999996 0,0.552285 -0.447715,1 -1,1 -0.552285,0 -1,-0.447715 -1,-1 0,-0.5522843 0.447715,-0.9999996 1,-0.9999996 z m 4.460938,1.5175776 c -0.556153,0.0026 -0.693173,0.774942 -0.171875,0.96875 2.453404,1.018813 4.766571,2.210706 5.210937,5.013672 0,0.552285 0.447715,1 1,1 0.552285,0 1,-0.447715 1,-1 -0.463016,-3.361196 -4.366125,-4.956496 -6.845703,-5.945312 -0.06136,-0.02506 -0.127084,-0.03768 -0.193359,-0.03711 z M 5.6036498,13 c -0.400404,1.232919 -0.8077,1.94406 -1.900391,2.447266 C 4.6050658,19.752698 8.4323558,23 13.000134,23 16.388592,23 19.362907,21.207646 21.045056,18.527344 20.709832,18.101556 20.500134,17.573941 20.500134,17 20.486884,16.466938 20.422454,16.004218 20.015759,15.568359 18.686609,16.07989 17.425785,16.43878 16.185681,16.691406 16.289299,15.782473 16.341834,14.88532 16.349743,14 h 1.511719 C 17.362917,13.732369 16.830509,13.496363 16.240368,13.382812 15.524795,13.32167 15.069602,13.674381 14.433728,14 h 0.921875 c -0.0089,0.933664 -0.05282,1.874912 -0.173828,2.835938 -1.446281,0.200851 -2.935927,0.193291 -4.46875,-0.04297 C 10.625525,15.848299 10.591693,14.919568 10.586072,14 h 0.03125 C 9.8836778,13.686822 9.3153868,13.009717 8.3438838,13 Z m -0.07813,1 h 4.0625 c 0.0051,0.881022 0.04557,1.771884 0.123047,2.675781 C 8.4748348,16.410712 7.1783308,16.025703 5.7696598,15.476562 5.6407858,15.001361 5.5588218,14.50832 5.5255198,14 Z m 0.695312,2.699219 c 1.242919,0.431359 2.419854,0.744388 3.556641,0.964843 0.106944,0.919269 0.2673042,1.857989 0.4570312,2.806641 -1.7729372,-0.700899 -3.2058412,-2.05635 -4.0136722,-3.771484 z m 13.5527352,0.01563 c -0.851211,1.796818 -2.391849,3.194265 -4.28711,3.857417 0.260389,-0.978147 0.461463,-1.939435 0.607422,-2.886719 1.208457,-0.219598 2.424784,-0.533372 3.679688,-0.970703 z m -8.960938,1.064448 c 1.438329,0.194846 2.853408,0.214626 4.222656,0.05273 -0.166535,0.994959 -0.400163,2.009672 -0.693359,3.042969 -1.028444,0.221652 -2.057026,0.0784 -3.009766,-0.06641 -0.219287,-1.026823 -0.396608,-2.037686 -0.519531,-3.029289 z" style="opacity: 1; fill: #000000; fill-opacity: 1; stroke: none; stroke-width: 2; stroke-linecap: round; stroke-linejoin: round; stroke-miterlimit: 4; stroke-dasharray: none; stroke-dashoffset: 0; stroke-opacity: 1;" />
</svg>