<svg width="26" height="26" viewBox="0 0 26 26" xmlns="http://www.w3.org/2000/svg">
<path d="m 8.2572614,17.742739 -1.41421,1.414213 M 18.156752,7.8432454 16.742542,9.2574584 M 12.499901,19.500098 v 2 m 0,-15.9999986 v 2 m 4.242641,10.2426396 1.41421,1.414213 M 6.8430514,7.8432454 l 1.41421,1.414213 M 18.499902,13.500099 h 2 m -16.0000004,0 h 1.9999998 m 10.0000006,0 a 4,4 0 0 1 -4.000001,3.999999 4,4 0 0 1 -3.9999996,-3.999999 4,4 0 0 1 3.9999996,-3.9999996 4,4 0 0 1 4.000001,3.9999996 z" style="fill: none; stroke: #000000; stroke-width: 1.25; stroke-linecap: round; stroke-linejoin: miter; stroke-miterlimit: 4; stroke-dasharray: none; stroke-opacity: 1;" />
</svg>