<svg width="26" height="26" viewBox="0 0 26 26" xmlns="http://www.w3.org/2000/svg">
<path d="M 13.761719,8.1132821 A 7,7 0 0 0 8.115234,13.769532 4,4 0 0 0 11,15.000001 a 4,4 0 0 0 4,-4 4,4 0 0 0 -1.238281,-2.8867189 z" style="opacity: 0.25; fill: #000000; fill-opacity: 1; stroke: none; stroke-width: 1; stroke-linecap: round; stroke-linejoin: round; stroke-miterlimit: 4; stroke-dasharray: none; stroke-dashoffset: 0; stroke-opacity: 1;" />
<path d="M 14.460938,9.0273449 C 11.582364,9.2850639 9.285063,11.582365 9.027344,14.460939 9.61136,14.793809 10.277402,15.000001 11,15.000001 c 2.215061,0 4,-1.784939 4,-4 0,-0.722598 -0.206192,-1.3886401 -0.539062,-1.9726561 z" style="opacity: 0.25; fill: #000000; fill-opacity: 1; stroke: none; stroke-width: 1; stroke-linecap: round; stroke-linejoin: round; stroke-miterlimit: 4; stroke-dasharray: none; stroke-dashoffset: 0; stroke-opacity: 1;" />
<circle cx="11" cy="11.000001" r="5.5" style="opacity: 1; fill: none; fill-opacity: 1; stroke: #000000; stroke-width: 1.25; stroke-linecap: round; stroke-linejoin: round; stroke-miterlimit: 4; stroke-dasharray: none; stroke-dashoffset: 0; stroke-opacity: 1;" />
<path d="m 18.5,11 c 0.08839,1.399437 -1.105093,4.16021 -2.259376,5.71599 -0.405093,0.545997 -0.739832,1.198539 -0.740624,1.895681 0,1.594658 1.343149,2.888329 3,2.888329 1.656851,0 3,-1.293671 3,-2.888329 C 21.499676,17.852129 20.99207,17.22794 20.632814,16.585025 19.465477,15.01057 18.544194,12.410919 18.5,11 Z" style="fill: #000000; fill-opacity: 1; stroke: none; stroke-width: 0.99999994px; stroke-linecap: round; stroke-linejoin: round; stroke-opacity: 1;" />
<path d="m 14.865234,10.003907 a 5,5 0 0 0 -4.857422,4.861328 c 0.316142,0.08518 0.647554,0.134766 0.992188,0.134766 2.215061,0 4,-1.784939 4,-4 0,-0.345965 -0.04896,-0.678853 -0.134766,-0.996094 z" style="opacity: 0.25; fill: #000000; fill-opacity: 1; stroke: none; stroke-width: 1; stroke-linecap: round; stroke-linejoin: round; stroke-miterlimit: 4; stroke-dasharray: none; stroke-dashoffset: 0; stroke-opacity: 1;" />
</svg>