<svg width="26" height="26" viewBox="0 0 26 26" xmlns="http://www.w3.org/2000/svg">
<path d="m 9.6714716,16.328528 -0.7071,0.7071 m 7.0710604,-7.0710596 -0.7071,0.7070996 m 0,5.65686 0.7071,0.7071 m -7.0710604,-7.0710596 0.7071,0.7070996 m 2.8284304,6.82843 v 1 m 0,-9.9999996 v 1 m 4,3.9999996 h 1 m -10.0000004,0 h 1 m 6.0000004,0 a 2,2 0 0 1 -2,2 2,2 0 0 1 -2,-2 2,2 0 0 1 2,-2 2,2 0 0 1 2,2 z" style="fill: none; stroke: #000000; stroke-width: 1.25; stroke-linecap: round; stroke-linejoin: miter; stroke-miterlimit: 4; stroke-dasharray: none; stroke-opacity: 1;" />
</svg>