<svg width="26" height="26" viewBox="0 0 26 26" xmlns="http://www.w3.org/2000/svg">
<path d="m 17.499902,13.999999 c -0.277,0 -0.5,0.223 -0.5,0.5 V 17 h -2.5 c -0.277,0 -0.5,0.223 -0.5,0.5 v 1 c 0,0.277 0.223,0.5 0.5,0.5 h 2.5 v 2.5 c 0,0.277 0.223,0.5 0.5,0.5 h 1 c 0.277,0 0.5,-0.223 0.5,-0.5 V 19 h 2.5 c 0.277,0 0.5,-0.223 0.5,-0.5 v -1 c 0,-0.277 -0.223,-0.5 -0.5,-0.5 h -2.5 v -2.500001 c 0,-0.277 -0.223,-0.5 -0.5,-0.5 z" style="opacity: 1; fill: #000000; fill-opacity: 1; stroke: none; stroke-width: 1px; stroke-linecap: butt; stroke-linejoin: round; stroke-miterlimit: 4; stroke-dasharray: none; stroke-dashoffset: 0; stroke-opacity: 1;" />
<path d="m 8.6714716,14.328426 -0.7071,0.707107 m 7.0710604,-7.071068 -0.7071,0.707107 m 0,5.656854 0.7071,0.707107 m -7.0710604,-7.071068 0.7071,0.707107 m 2.8284304,6.828427 V 16.5 m 0,-10.000001 v 1 m 4,4 h 1 m -10.0000004,0 h 1 m 6.0000004,0 a 2,2 0 0 1 -2,2 2,2 0 0 1 -2.0000004,-2 2,2 0 0 1 2.0000004,-2 2,2 0 0 1 2,2 z" style="fill: none; stroke: #000000; stroke-width: 1.25; stroke-linecap: round; stroke-linejoin: miter; stroke-miterlimit: 4; stroke-dasharray: none; stroke-opacity: 1;" />
</svg>