<svg width="26" height="26" viewBox="0 0 26 26" xmlns="http://www.w3.org/2000/svg">
<path d="m 11.499902,9 a 2.5,2.5 0 0 0 -2.5000004,2.5 2.5,2.5 0 0 0 2.5000004,2.5 2.5,2.5 0 0 0 2.5,-2.5 2.5,2.5 0 0 0 -2.5,-2.5 z m 3,8 c -0.277,0 -0.5,0.223 -0.5,0.5 v 1 c 0,0.277 0.223,0.5 0.5,0.5 h 7 c 0.277,0 0.5,-0.223 0.5,-0.5 v -1 c 0,-0.277 -0.223,-0.5 -0.5,-0.5 z" style="opacity: 1; fill: #000000; fill-opacity: 1; stroke: none; stroke-width: 1px; stroke-linecap: butt; stroke-linejoin: round; stroke-miterlimit: 4; stroke-dasharray: none; stroke-dashoffset: 0; stroke-opacity: 1;" />
<path d="m 6.4999016,11.5 h 1 m 8.0000004,0 h 1 m -5,-5 v 1 m 0,8 v 1 m -3.5355304,-8.535534 0.7071,0.707107 m 5.6568604,5.656854 0.7071,0.707107 m 0,-7.071068 -0.7071,0.707107 m -5.6568604,5.656854 -0.7071,0.707107" style="fill: #000000; fill-opacity: 1; stroke: #000000; stroke-width: 1.25; stroke-linecap: round; stroke-linejoin: miter; stroke-miterlimit: 4; stroke-dasharray: none; stroke-opacity: 1;" />
</svg>