<svg width="26" height="26" viewBox="0 0 26 26" xmlns="http://www.w3.org/2000/svg">
<path d="m 11,5.0000004 c -3.30779,0 -6,2.692214 -6,5.9999996 0.003,2.21786 1.23659,4.190738 3.10937,5.226562 A 7,7 0 0 1 8,15 7,7 0 0 1 15,8.0000004 7,7 0 0 1 16.230469,8.1152348 C 15.195601,6.2389943 13.220281,5.0026942 11,5.0000004 Z" style="opacity: 1; fill: #000000; fill-opacity: 1; stroke: none; stroke-width: 0.99999994; stroke-linecap: round; stroke-linejoin: round; stroke-miterlimit: 4; stroke-dasharray: none; stroke-dashoffset: 0; stroke-opacity: 1;" />
<path d="m 16,13 -3,-3 m 2,5 -4,-4 m 2,5 -3,-3 M 16.336366,9.6683854 A 5.5,5.5 0 0 1 16.5,11 v 0 0 A 5.5,5.5 0 0 1 11,16.5 5.5,5.5 0 0 1 9.66773,16.336204 M 20.5,15 A 5.5,5.5 0 0 1 15,20.5 5.5,5.5 0 0 1 9.5,15 5.5,5.5 0 0 1 15,9.5000004 5.5,5.5 0 0 1 20.5,15 Z" style="fill: none; stroke: #000000; stroke-width: 1px; stroke-linecap: butt; stroke-linejoin: miter; stroke-opacity: 1;" />
</svg>