<svg width="26" height="26" viewBox="0 0 26 26" xmlns="http://www.w3.org/2000/svg">
<path d="M 6.75,13.25 7.5,14 6,15.5 3,12.5 4.5,11 5.25,11.75 6,11 V 9.5 l 5,-5 C 13,2.5000004 16.5,4 16.5,4 L 16,4.5 C 16,4.5 14,4 12,6 V 7.5 L 13,9 9.5,12.5 h -2 z M 13,10.5 11.5,12 20,22 h 1 l 2,-2 v -1 z m 7.5,8 c 0.552285,0 1,0.447715 1,1 0,0.552285 -0.447715,1 -1,1 -0.552285,0 -1,-0.447715 -1,-1 0,-0.552285 0.447715,-1 1,-1 z" style="fill: #000000; fill-opacity: 1; stroke: none; stroke-width: 1px; stroke-linecap: butt; stroke-linejoin: miter; stroke-opacity: 1;" />
</svg>