<svg width="26" height="26" viewBox="0 0 26 26" xmlns="http://www.w3.org/2000/svg">
<path d="m 13.312884,4 c -0.93198,0 -1.6875,0.7555195 -1.6875,1.6875 0,0.9319805 0.75552,1.6875 1.6875,1.6875 0.931981,0 1.6875,-0.7555195 1.6875,-1.6875 C 15.000384,4.7555195 14.244865,4 13.312884,4 Z m -1.302978,3.4035644 -3.9375002,1.125 c -0.10292,0.034307 -0.1937248,0.097642 -0.2614747,0.1823731 l -1.6875,2.2500005 C 5.6732117,11.56123 6.5335876,12.25 7.0023374,11.664063 L 8.5865659,9.5437012 10.412494,9.1240234 9.940081,12.424316 C 8.2793169,13.256274 7.1253843,14.95872 7.1253843,16.9375 c 0,2.789279 2.2732207,5.0625 5.0624997,5.0625 2.789279,0 5.0625,-2.273221 5.0625,-5.0625 0.329211,0.486345 0.834262,1.361587 1.204101,1.977539 0.15143,0.251799 0.471136,0.344649 0.733887,0.213135 l 1.6875,-1.125 c 0.713639,-0.319156 0.183854,-1.383373 -0.500976,-1.006348 l -0.65918,0.32959 -3.106933,-5.178954 C 16.5238,12.00568 16.380769,11.90845 16.217669,11.881591 l -3.218994,-0.536132 c 0.301965,-0.625392 0.876709,-1.8449749 0.876709,-2.282959 0,-1.6875 -1.125,-1.6875 -1.865478,-1.6589356 z M 12.187884,13 c 2.181284,0 3.9375,1.756216 3.9375,3.9375 0,2.181284 -1.756216,3.9375 -3.9375,3.9375 -2.181284,0 -3.9374997,-1.756216 -3.9374997,-3.9375 C 8.2503843,14.756216 10.0066,13 12.187884,13 Z" style="opacity: 1; fill: #000000; fill-opacity: 1; stroke: none; stroke-width: 1; stroke-linecap: round; stroke-linejoin: round; stroke-miterlimit: 4; stroke-dasharray: none; stroke-dashoffset: 0; stroke-opacity: 1;" />
</svg>