<svg width="26" height="26" viewBox="0 0 26 26" xmlns="http://www.w3.org/2000/svg">
<path d="M 8.0585938 4.5507812 C 4.7178318 4.5507812 2 7.2738096 2 10.619141 C 2 12.291897 2.6797026 13.81249 3.7753906 14.910156 A 0.50005 0.50005 0 0 0 3.7832031 14.917969 L 11.955078 22.714844 L 12.958984 21.208984 L 10.583984 19.625 C 10.160514 19.343562 10.133846 18.731245 10.53125 18.414062 L 14.617188 15.146484 L 9.6640625 12.669922 C 9.1752824 12.42484 9.1045455 11.755961 9.53125 11.414062 L 13.730469 8.0546875 L 13 7.4003906 C 11.921505 5.7472547 10.177705 4.5507812 8.0585938 4.5507812 z M 17.941406 4.5507812 C 16.437029 4.5507812 15.127801 5.1602709 14.105469 6.1015625 L 15.416016 7.375 C 15.839487 7.6564367 15.866152 8.2687534 15.46875 8.5859375 L 11.382812 11.853516 L 16.335938 14.330078 C 16.824718 14.57516 16.895455 15.244039 16.46875 15.585938 L 12.269531 18.945312 L 14.416016 20.375 C 14.761551 20.60452 14.855184 21.070923 14.625 21.416016 L 13.277344 23.435547 A 0.50005 0.50005 0 0 0 13.345703 23.382812 L 22.216797 14.917969 A 0.50005 0.50005 0 0 0 22.224609 14.910156 C 23.320318 13.812491 24 12.291897 24 10.619141 C 24 7.2738095 21.282167 4.5507812 17.941406 4.5507812 z " style="opacity: 1; fill: #000000; fill-opacity: 1; stroke: none; stroke-width: 1; stroke-linecap: round; stroke-linejoin: round; stroke-miterlimit: 4; stroke-dasharray: none; stroke-dashoffset: 0; stroke-opacity: 1;" />
</svg>