<svg width="26" height="26" viewBox="0 0 26 26" xmlns="http://www.w3.org/2000/svg">
<path d="M 8.0585938,4.5507812 C 4.7178328,4.5507812 2,7.2738092 2,10.619141 2,11.463261 2.1740441,12.26817 2.4863281,13 L 6.984375,13 7.6054688,11.445312 C 7.8391968,10.855832 8.441361,10.498047 9,10.498047 c 0.557787,0 1.158085,0.357437 1.392578,0.945312 l 0.529297,1.320313 1.166016,-3.2656251 C 12.289906,8.9292119 12.818487,8.5326576 13.455078,8.5 c 0.63659,-0.032658 1.257145,0.3905978 1.46875,1.0253906 l 0,0.00195 L 16.082031,13 l 0.56836,0 c 0.465697,-0.57088 1.084608,-0.9989 2.151542,-0.99945 C 19.868867,12 21,13.131133 21,14.5 21,15.868867 19.868867,17 18.801933,16.99945 17.734999,16.9989 17.116088,16.57088 16.650391,16 L 15,16 c -0.64197,3.34e-4 -1.220615,-0.416411 -1.384722,-0.909377 l -1.203169,2.413283 C 12.196368,18.109937 11.592534,18.48938 11.027344,18.5 10.462153,18.51062 9.8438238,18.154139 9.6054688,17.556641 l 0.00195,0 -0.7402344,-1.84961 C 8.6161215,15.887834 8.3190149,16.000329 7.9980469,16 l -3.0800781,0 7.7363282,7.382812 c 0.193345,0.184997 0.498061,0.184998 0.691406,0 l 8.871094,-8.464843 0.0078,-0.0078 C 23.32032,13.812478 24,12.291897 24,10.619141 24,7.2738091 21.282168,4.5507813 17.941406,4.5507812 15.822294,4.5507812 14.078495,5.7472548 13,7.4003906 11.921505,5.7472547 10.177706,4.5507813 8.0585938,4.5507812 Z M 13.474609,9.5 C 13.272697,9.510474 13.09696,9.6415061 13.029297,9.8320312 L 10.974609,15.587891 9.4648438,11.814453 c -0.1669211,-0.420987 -0.7627665,-0.420987 -0.9296876,0 L 7.6621094,14 3,14 l 1,1 4,0 c 0.204706,2.1e-4 0.3888658,-0.124369 0.4648438,-0.314453 L 9,13.347656 l 1.535156,3.837891 c 0.170832,0.428234 0.780922,0.416773 0.935547,-0.01758 l 2.013672,-5.634766 1.041016,3.125 C 14.593523,14.862425 14.784715,15.000112 15,15 l 2.087891,0 c 0.211634,0.598592 0.777207,0.999109 1.412109,1 0.828427,0 1.5,-0.671573 1.5,-1.5 0,-0.828427 -0.671573,-1.5 -1.5,-1.5 -0.634902,8.91e-4 -1.200475,0.401408 -1.412109,1 L 15.361328,14 13.974609,9.8417969 C 13.903739,9.6284096 13.699165,9.4885624 13.474609,9.5 Z" style="opacity: 1; fill: #000000; fill-opacity: 1; stroke: none; stroke-width: 1; stroke-linecap: round; stroke-linejoin: round; stroke-miterlimit: 4; stroke-dasharray: none; stroke-dashoffset: 0; stroke-opacity: 1;" />
</svg>