<svg width="26" height="26" viewBox="0 0 26 26" xmlns="http://www.w3.org/2000/svg">
<path d="M 8.058594,4.5507812 C 4.717832,4.5507812 2,7.27381 2,10.619141 c 0,1.672756 0.679703,3.193349 1.775391,4.291015 a 0.50005,0.50005 0 0 0 0.0078,0.0078 l 8.871094,8.464843 a 0.50005,0.50005 0 0 0 0.691406,0 l 8.871094,-8.464843 a 0.50005,0.50005 0 0 0 0.0078,-0.0078 C 23.320294,13.812491 24,12.291897 24,10.619141 24,7.2738099 21.282167,4.5507812 17.941406,4.5507812 15.822294,4.5507812 14.078495,5.7472548 13,7.4003906 11.921505,5.7472547 10.177705,4.5507812 8.058594,4.5507812 Z" style="opacity: 1; fill: #000000; fill-opacity: 1; stroke: none; stroke-width: 1; stroke-linecap: round; stroke-linejoin: round; stroke-miterlimit: 4; stroke-dasharray: none; stroke-dashoffset: 0; stroke-opacity: 1;" />
</svg>