<svg width="26" height="26" viewBox="0 0 26 26" xmlns="http://www.w3.org/2000/svg">
<circle cx="14.5" cy="12.5" r="1" style="opacity: 1; fill: none; fill-opacity: 1; stroke: #000000; stroke-width: 1; stroke-linecap: round; stroke-linejoin: round; stroke-miterlimit: 4; stroke-dasharray: none; stroke-dashoffset: 0; stroke-opacity: 1;" />
<path d="M 11.32323,20.840887 A 8.0004997,8.000391 0 0 1 10.076588,20.164806 M 8.5644245,18.863239 A 8.0004997,8.000391 0 0 1 8.3702648,18.640347 M 18.5,12.5 h -3 m -1,-1 v -4" style="opacity: 1; fill: none; fill-opacity: 1; stroke: #000000; stroke-width: 1; stroke-linecap: round; stroke-linejoin: round; stroke-miterlimit: 4; stroke-dasharray: none; stroke-dashoffset: 0; stroke-opacity: 1;" />
<path d="M 14.744141 3 C 9.9752214 3.0969751 6.0369393 5.8657889 5.1777344 11.001953 L 2.5 11.001953 C 2.226932 11.001943 2.0043 11.22125 2 11.494141 C 1.997928 11.629351 2.0507844 11.759869 2.1464844 11.855469 L 5.6464844 16.353516 C 5.8417194 16.548566 6.1582806 16.548566 6.3535156 16.353516 L 9.8535156 11.855469 C 10.168247 11.540678 9.945251 11.002123 9.5 11.001953 L 7.1152344 11.001953 C 7.59214 8.258594 9.1988984 5.9484062 11.912109 4.9609375 C 15.185649 3.7695386 18.850612 4.7514694 21.089844 7.4199219 C 23.329076 10.088374 23.659783 13.868038 21.917969 16.884766 C 20.176156 19.901494 16.73539 21.505279 13.304688 20.900391 C 12.648457 20.763104 12.473157 21.763616 13.136719 21.859375 C 16.967543 22.534812 20.814805 20.739659 22.759766 17.371094 C 23.592008 15.929694 24.000911 14.335696 24 12.744141 C 23.9987 10.616216 23.287904 8.3257737 21.857422 6.6210938 C 20.071063 4.4923217 17.422868 2.9985336 14.744141 3 z " style="opacity: 1; fill: #000000; fill-opacity: 1; stroke: none; stroke-width: 1px; stroke-linecap: butt; stroke-linejoin: round; stroke-miterlimit: 4; stroke-dasharray: none; stroke-dashoffset: 0; stroke-opacity: 1;" />
</svg>