<svg width="26" height="26" viewBox="0 0 26 26" xmlns="http://www.w3.org/2000/svg">
<path d="m 13.005859,3 c -0.139452,-0.00167 -0.273266,0.05497 -0.36914,0.15625 l -9.5000002,10 C 2.835042,13.47505 3.0610897,14.000064 3.5,14 l 2.5,0 0,7.5 c 2.76e-5,0.276131 0.2238691,0.499972 0.5,0.5 l 4,0 c 0.276131,-2.8e-5 0.499972,-0.223869 0.5,-0.5 l 0,-5.5 4,0 0,5.5 c 2.8e-5,0.276131 0.223869,0.499972 0.5,0.5 l 4,0 c 0.276131,-2.8e-5 0.499972,-0.223869 0.5,-0.5 l 0,-7.5 2.5,0 c 0.43891,6.4e-5 0.664958,-0.52495 0.363281,-0.84375 l -9.5,-10 C 13.270206,3.0579281 13.141239,3.0015494 13.005859,3 Z" style="opacity: 1; fill: #000000; fill-opacity: 1; stroke: none; stroke-width: 1px; stroke-linecap: butt; stroke-linejoin: round; stroke-miterlimit: 4; stroke-dasharray: none; stroke-dashoffset: 0; stroke-opacity: 1;" />
</svg>