<svg width="26" height="26" viewBox="0 0 26 26" xmlns="http://www.w3.org/2000/svg">
<path d="m 15.5,18 h -5 l 2,-2 v -3 c 0,0 -3,-3 -3,-5 h 7 c 0,2 -3,5 -3,5 v 3 z" style="fill: #000000; fill-opacity: 1; stroke: none; stroke-width: 1px; stroke-linecap: butt; stroke-linejoin: miter; stroke-opacity: 1;" />
<path d="m 6.5,4.5000004 h 13 v 2 H 6.5 Z M 6.5,19.5 h 13 v 2 h -13 z m 11.5,0 C 18,15 15,13 15,13 c 0,0 3,-2 3,-6.4999996 m -10,0 C 8,11 11,13 11,13 c 0,0 -3,2 -3,6.5" style="fill: none; stroke: #000000; stroke-width: 1px; stroke-linecap: butt; stroke-linejoin: round; stroke-opacity: 1;" />
</svg>