<svg width="26" height="26" viewBox="0 0 26 26" xmlns="http://www.w3.org/2000/svg">
<path d="M 11.5 6 C 11.223 6 11 6.2230005 11 6.5 L 11 7.5 C 11 7.7769999 11.223 8 11.5 8 L 18 7.9980469 L 18 18.001953 L 8 18.001953 L 8 11.5 C 8 11.223 7.777 11 7.5 11 L 6.5 11 C 6.223 11 6 11.223 6 11.5 L 6 19.5 C 6.000028 19.77582 6.223869 19.999972 6.5 20 L 19.5 20 C 19.776131 19.999972 19.999972 19.77582 20 19.5 L 20 6.5 C 19.999972 6.2241805 19.776131 6.000028 19.5 6 L 11.5 6 z M 7.4941406 7 C 7.1125092 7.0194516 6.7956594 7.491087 7.1621094 7.828125 L 11.5 13.5 L 10.078125 15.185547 C 9.8211101 15.529726 9.9668459 15.99965 10.433594 16 L 15.496094 16 C 15.774174 15.999876 15.99987 15.784937 16 15.521484 L 16 10.253906 C 15.99996 9.8289083 15.457995 9.6155676 15.140625 9.9160156 L 13.5 11.5 L 7.875 7.1542969 C 7.7563375 7.0386494 7.6213511 6.9935161 7.4941406 7 z " style="opacity: 1; fill: #000000; fill-opacity: 1; stroke: none; stroke-width: 1px; stroke-linecap: butt; stroke-linejoin: round; stroke-miterlimit: 4; stroke-dasharray: none; stroke-dashoffset: 0; stroke-opacity: 1;" />
</svg>