<svg width="26" height="26" viewBox="0 0 26 26" xmlns="http://www.w3.org/2000/svg">
<path d="M 12.5,6 C 11.671573,6 11,6.6715729 11,7.5 11,8.3284271 11.671573,9 12.5,9 13.328427,9 14,8.3284271 14,7.5 14,6.6715729 13.328427,6 12.5,6 Z m -2,4 C 10.223,10 10,10.223 10,10.5 l 0,1 c 0,0.277 0.223,0.5 0.5,0.5 l 1.5,0 0,5 -1.5,0 C 10.223,17 10,17.223 10,17.5 l 0,1 c 0,0.277 0.223,0.5 0.5,0.5 l 2.5,0 2.5,0 c 0.277,0 0.5,-0.223 0.5,-0.5 l 0,-1 C 16,17.223 15.777,17 15.5,17 l -1.5,0 0,-5.5 0,-1 C 14,10.223 13.777,10 13.5,10 Z" style="opacity: 1; fill: #000000; fill-opacity: 1; stroke: none; stroke-width: 1; stroke-linecap: round; stroke-linejoin: round; stroke-miterlimit: 4; stroke-dasharray: none; stroke-dashoffset: 0; stroke-opacity: 1;" />
</svg>