<svg width="26" height="26" viewBox="0 0 26 26" xmlns="http://www.w3.org/2000/svg">
<path d="M 13 3 A 10 10 0 0 0 3 13 A 10 10 0 0 0 13 23 A 10 10 0 0 0 23 13 A 10 10 0 0 0 13 3 z M 12.5 6 C 13.328427 6 14 6.6715729 14 7.5 C 14 8.3284271 13.328427 9 12.5 9 C 11.671573 9 11 8.3284271 11 7.5 C 11 6.6715729 11.671573 6 12.5 6 z M 10.5 10 L 13.5 10 C 13.777 10 14 10.223 14 10.5 L 14 11.5 L 14 17 L 15.5 17 C 15.777 17 16 17.223 16 17.5 L 16 18.5 C 16 18.777 15.777 19 15.5 19 L 13 19 L 10.5 19 C 10.223 19 10 18.777 10 18.5 L 10 17.5 C 10 17.223 10.223 17 10.5 17 L 12 17 L 12 12 L 10.5 12 C 10.223 12 10 11.777 10 11.5 L 10 10.5 C 10 10.223 10.223 10 10.5 10 z " style="opacity: 1; fill: #000000; fill-opacity: 1; stroke: none; stroke-width: 1; stroke-linecap: round; stroke-linejoin: round; stroke-miterlimit: 4; stroke-dasharray: none; stroke-dashoffset: 0; stroke-opacity: 1;" />
</svg>