<svg width="26" height="26" viewBox="0 0 26 26" xmlns="http://www.w3.org/2000/svg">
<path d="m 21.5,2.972656 c -0.11578,0.0054 -0.231718,0.06837 -0.353516,0.173828 l -8,7 c -0.19518,0.19525 -0.19518,0.511782 0,0.707032 l 2,2 c 0.19527,0.19517 0.511772,0.19517 0.707032,0 l 7,-8.000001 c 0.19519,-0.19525 0.19519,-0.511781 0,-0.707031 l -1,-1 C 21.731401,3.019544 21.61578,2.967285 21.5,2.972656 Z M 7.5,5 C 7.223,5 7,5.223 7,5.5 v 14 C 7,19.777 7.223,20 7.5,20 h 10 C 17.777,20 18,19.777 18,19.5 V 12 l -1,1 v 4 H 8 V 6 h 8 l 1,-1 z m 4.933594,6.019531 c -0.178397,0.02452 -0.332837,0.132909 -0.38086,0.257813 l -0.773437,1.814453 a 1.25,1.25 0 0 1 0.470703,-0.0918 1.25,1.25 0 0 1 1.25,1.25 1.25,1.25 0 0 1 -0.09375,0.470703 l 1.816406,-0.773437 c 0.30552,-0.15227 0.37201,-0.559182 0.13086,-0.800782 l -2,-2 c -0.07324,-0.06525 -0.154193,-0.103779 -0.236328,-0.121093 -0.0616,-0.01299 -0.124129,-0.01404 -0.183594,-0.0059 z M 11.75,13.5 A 0.75,0.75 0 0 0 11,14.25 0.75,0.75 0 0 0 11.75,15 0.75,0.75 0 0 0 12.5,14.25 0.75,0.75 0 0 0 11.75,13.5 Z M 12,18 h 1 v 1 h -1 z" style="opacity: 1; fill: #000000; fill-opacity: 1; stroke: none; stroke-width: 2.00000024; stroke-linecap: round; stroke-linejoin: round; stroke-miterlimit: 4; stroke-dasharray: none; stroke-dashoffset: 0; stroke-opacity: 1;" />
</svg>