<svg width="26" height="26" viewBox="0 0 26 26" xmlns="http://www.w3.org/2000/svg">
<path d="M 11.5,6 C 11.223,6 11,6.223 11,6.5 v 1 C 11,7.777 11.223,8 11.5,8 h 1 C 12.777,8 13,7.777 13,7.5 v -1 C 13,6.223 12.777,6 12.5,6 Z m 3,0 C 14.223,6 14,6.223 14,6.5 v 1 C 14,7.777 14.223,8 14.5,8 h 1 C 15.777,8 16,7.777 16,7.5 v -1 C 16,6.223 15.777,6 15.5,6 Z m 3,0 C 17.223,6 17,6.223 17,6.5 v 1 C 17,7.777 17.223,8 17.5,8 h 1 C 18.777,8 19,7.777 19,7.5 v -1 C 19,6.223 18.777,6 18.5,6 Z M 9,12 A 2.5,3 0 0 0 6.5,15 2.5,3 0 0 0 9,18 2.5,3 0 0 0 11.5,15 2.5,3 0 0 0 9,12 Z M 6.5,18 C 5.35768,18.46784 4.3,19.9 4,22 H 14 C 13.7,19.9 12.64099,18.46828 11.5,18 10.88356,18.71328 9.86271,18.99962 9,19 8.13796,18.999 7.1157,18.71304 6.5,18 Z" style="opacity: 1; fill: #000000; fill-opacity: 1; stroke: none; stroke-width: 2; stroke-linecap: butt; stroke-linejoin: miter; stroke-miterlimit: 4; stroke-dasharray: none; stroke-dashoffset: 0; stroke-opacity: 1;" />
<path d="m 12,3.5 c -1.939,0 -3.5,1.561 -3.5,3.5 0,1.939 1.561,3.5 3.5,3.5 h 1.5 l -1,4 4,-4 H 18 c 1.939,0 3.5,-1.561 3.5,-3.5 0,-1.939 -1.561,-3.5 -3.5,-3.5 z" style="opacity: 1; fill: none; fill-opacity: 1; stroke: #000000; stroke-width: 1; stroke-linecap: round; stroke-linejoin: round; stroke-miterlimit: 4; stroke-dasharray: none; stroke-dashoffset: 0; stroke-opacity: 1;" />
</svg>