<svg width="26" height="26" viewBox="0 0 26 26" xmlns="http://www.w3.org/2000/svg">
<path d="M 12,8.050781 C 9.7475682,8.301307 8.0000002,10.17857 8.0000002,12.5 v 5 C 8.0000002,19.993 10.007,22 12.5,22 14.993,22 17,19.993 17,17.5 v -5 C 17,10.17857 15.252432,8.301307 13,8.050781 V 10 h 0.5 c 0.277,0 0.5,0.223 0.5,0.5 v 3 C 14,13.777 13.777,14 13.5,14 H 13 v 2 H 12 V 14 H 11.5 C 11.223,14 11,13.777 11,13.5 v -3 C 11,10.223 11.223,10 11.5,10 H 12 Z M 12,10.5 c -0.277,0 -0.5,0.223 -0.5,0.5 v 2 c 0,0.277 0.223,0.5 0.5,0.5 h 1 c 0.277,0 0.5,-0.223 0.5,-0.5 v -2 c 0,-0.277 -0.223,-0.5 -0.5,-0.5 z" style="opacity: 1; fill: #000000; fill-opacity: 1; stroke: none; stroke-width: 1; stroke-linecap: butt; stroke-linejoin: round; stroke-miterlimit: 4; stroke-dasharray: none; stroke-dashoffset: 2.79999995; stroke-opacity: 1;" />
<path d="m 6.8265912,5.57756 c 1.552709,-1.33941 3.5455338,-2.077653 5.6084468,-2.077652 2.119493,1e-6 4.16286,0.779209 5.730964,2.185417 M 8.5517482,7.523531 c 1.075019,-0.927566 2.4548828,-1.43883 3.8832908,-1.438832 1.484359,1e-6 2.91413,0.552011 4.003941,1.545855" style="opacity: 1; fill: none; fill-opacity: 1; stroke: #000000; stroke-width: 1; stroke-linecap: butt; stroke-linejoin: miter; stroke-miterlimit: 4; stroke-dasharray: none; stroke-dashoffset: 2.79999995; stroke-opacity: 1;" />
</svg>