<svg width="26" height="26" viewBox="0 0 26 26" xmlns="http://www.w3.org/2000/svg">
<path d="M 4,9 C 3.446,9 3,9.446 3,10 v 9 c 0,0.554 0.446,1 1,1 h 18 c 0.554,0 1,-0.446 1,-1 V 10 C 23,9.446 22.554,9 22,9 Z m 0,1 h 2 v 2 H 4 Z m 3,0 h 2 v 2 H 7 Z m 3,0 h 2 v 2 h -2 z m 3,0 h 2 v 2 h -2 z m 3,0 h 2 v 2 h -2 z m 3,0 h 3 v 5 H 20 V 12 H 19 Z M 4,13 h 3 v 2 H 4 Z m 4,0 h 2 v 2 H 8 Z m 3,0 h 2 v 2 h -2 z m 3,0 h 2 v 2 h -2 z m 3,0 h 2 v 2 H 17 Z M 4,16 h 4 v 2 H 4 Z m 5,0 h 8 v 2 H 9 Z m 9,0 h 4 v 2 h -4 z" style="opacity: 1; fill: #000000; fill-opacity: 1; stroke: none; stroke-width: 1.5; stroke-linecap: round; stroke-linejoin: round; stroke-miterlimit: 4; stroke-dasharray: none; stroke-dashoffset: 2.79999995; stroke-opacity: 1;" />
<path d="m 18.5,9 c 0,-4.9999997 -8,-1 -8,-5.9999997" style="fill: none; stroke: #000000; stroke-width: 1; stroke-linecap: butt; stroke-linejoin: miter; stroke-miterlimit: 4; stroke-dasharray: none; stroke-opacity: 1;" />
</svg>