<svg width="26" height="26" viewBox="0 0 26 26" xmlns="http://www.w3.org/2000/svg">
<path d="m 9.5,3.9999995 h 1 c 0.277,0 0.5,0.223 0.5,0.5 v 1 c 0,0.277 -0.223,0.5 -0.5,0.5 h -1 c -0.277,0 -0.5,-0.223 -0.5,-0.5 v -1 c 0,-0.277 0.223,-0.5 0.5,-0.5 z m 0,3 h 1 c 0.277,0 0.5,0.223 0.5,0.5 v 1 C 11,8.777 10.777,9 10.5,9 h -1 C 9.223,9 9,8.777 9,8.4999995 v -1 c 0,-0.277 0.223,-0.5 0.5,-0.5 z m 6,0 h 1 c 0.277,0 0.5,0.223 0.5,0.5 v 1 C 17,8.777 16.777,9 16.5,9 h -1 C 15.223,9 15,8.777 15,8.4999995 v -1 c 0,-0.277 0.223,-0.5 0.5,-0.5 z m 0,-3 h 1 c 0.277,0 0.5,0.223 0.5,0.5 v 1 c 0,0.277 -0.223,0.5 -0.5,0.5 h -1 c -0.277,0 -0.5,-0.223 -0.5,-0.5 v -1 c 0,-0.277 0.223,-0.5 0.5,-0.5 z m -3,0 h 1 c 0.277,0 0.5,0.223 0.5,0.5 v 1 c 0,0.277 -0.223,0.5 -0.5,0.5 h -1 c -0.277,0 -0.5,-0.223 -0.5,-0.5 v -1 c 0,-0.277 0.223,-0.5 0.5,-0.5 z m 0.5,3 c -1,0 -1,0.5 -1,4.5000005 l -0.05556,3.444444 C 11.744881,16.546139 11.216793,15.701333 10.5,14.455514 9.862625,13.347727 8,13.277315 8,14.722224 9.555556,15.111113 8.555556,17.333335 10.888889,19.666669 11.666667,20.444444 12.722222,20 12.5,22 h 4.722222 C 17.222222,22 19,19.666667 19,17.333333 19,15 19,13.722222 18.222222,12.944444 17.582443,12.304665 16.379657,11.671731 14.067708,11.464844 14,7.4999995 14,6.9999995 13,6.9999995 Z" style="opacity: 1; fill: #000000; fill-opacity: 1; stroke: none; stroke-width: 0.75; stroke-linecap: round; stroke-linejoin: round; stroke-miterlimit: 4; stroke-dasharray: none; stroke-dashoffset: 2.79999995; stroke-opacity: 1;" />
</svg>