<svg width="26" height="26" viewBox="0 0 26 26" xmlns="http://www.w3.org/2000/svg">
<path d="m 13,7.000001 c -1,0 -1,0.5 -1,4.5 l -0.05556,3.444444 C 11.744881,16.546139 11.216793,15.701333 10.5,14.455515 9.862625,13.347728 8,13.277316 8,14.722225 c 1.555556,0.388888 0.555556,2.61111 2.888889,4.944444 C 11.666667,20.444444 12.722222,20 12.5,22 h 4.722222 C 17.222222,22 19,19.666667 19,17.333333 c 0,-2.333332 0,-3.61111 -0.777778,-4.388888 -0.639779,-0.639779 -1.842565,-1.272713 -4.154514,-1.4796 C 13.999998,7.500001 13.999998,7.000001 13,7.000001 Z" style="fill: #000000; fill-opacity: 1; stroke: none; stroke-width: 1px; stroke-linecap: butt; stroke-linejoin: miter; stroke-opacity: 1;" />
<path d="m 10.989133,9.687318 a 2.625,2.625 0 0 1 0.209483,-3.596673 2.625,2.625 0 0 1 3.602768,0 2.625,2.625 0 0 1 0.209483,3.596673" style="opacity: 1; fill: none; fill-opacity: 1; stroke: #000000; stroke-width: 0.75; stroke-linecap: round; stroke-linejoin: round; stroke-miterlimit: 4; stroke-dasharray: none; stroke-dashoffset: 2.79999995; stroke-opacity: 1;" />
</svg>