<svg width="26" height="26" viewBox="0 0 26 26" xmlns="http://www.w3.org/2000/svg">
<path d="m 11,5 c -3.295942,0 -6,2.7040585 -6,6 0,3.295942 2.704058,6 6,6 l 4,0 0,3 3,0 0,3 2,0 2,-2 0,-2 -5.539062,-5.539062 C 16.8035,12.708041 17,11.876258 17,11 17,7.7040585 14.295942,5 11,5 Z m 0,3 c 1.674621,0 3,1.3253788 3,3 0,1.674621 -1.325379,3 -3,3 C 9.325379,14 8,12.674621 8,11 8,9.3253788 9.325379,8 11,8 Z" style="opacity: 1; fill: #000000; fill-opacity: 1; stroke: none; stroke-width: 3; stroke-linecap: round; stroke-linejoin: round; stroke-miterlimit: 4; stroke-dasharray: none; stroke-dashoffset: 0; stroke-opacity: 1;" />
</svg>