<svg width="26" height="26" viewBox="0 0 26 26" xmlns="http://www.w3.org/2000/svg">
<path d="M 11 5 C 7.704058 5 5 7.7040585 5 11 C 5 12.161286 5.3409331 13.246025 5.9199219 14.167969 L 8.1953125 12.054688 C 8.0740549 11.726498 8 11.373865 8 11 C 8 9.3253788 9.325379 8 11 8 C 11.454021 8 11.878493 8.1039049 12.261719 8.2792969 L 14.535156 6.1699219 C 13.540796 5.4383982 12.319773 5 11 5 z M 16.439453 8.4960938 L 13.978516 10.783203 C 13.983672 10.856206 14 10.92553 14 11 C 14 12.674621 12.674621 14 11 14 C 10.849066 14 10.705092 13.97785 10.560547 13.957031 L 8.0996094 16.242188 C 8.961295 16.722933 9.9497995 17 11 17 L 15 17 L 15 20 L 18 20 L 18 23 L 20 23 L 22 21 L 22 19 L 16.460938 13.460938 C 16.8035 12.708041 17 11.876258 17 11 C 17 10.106733 16.794643 9.2603637 16.439453 8.4960938 z " style="opacity: 1; fill: #000000; fill-opacity: 1; stroke: none; stroke-width: 3; stroke-linecap: round; stroke-linejoin: round; stroke-miterlimit: 4; stroke-dasharray: none; stroke-dashoffset: 0; stroke-opacity: 1;" />
<path d="M 4,18 18,5" style="fill: none; stroke: #000000; stroke-width: 1px; stroke-linecap: round; stroke-linejoin: miter; stroke-opacity: 1;" />
</svg>