<svg width="26" height="26" viewBox="0 0 26 26" xmlns="http://www.w3.org/2000/svg">
<path d="m 23.499937,12.505705 c -0.004,0.272891 -0.22685,0.49186 -0.49992,0.49185 h -1.49977 l -0.49993,4.495662 c 0.01,0.67571 -1.00941,0.67571 -0.99985,0 l -0.49992,-4.495663 h -1.49977 c -0.44525,-1.7e-4 -0.66819,-0.538149 -0.35346,-0.852941 l 2.49962,-2.9983277 c 0.19523,-0.19505 0.51169,-0.19505 0.70692,0 l 2.49962,2.9983287 c 0.0957,0.0956 0.14853,0.22588 0.14646,0.361091 z" style="opacity: 1; fill: #000000; fill-opacity: 1; stroke: none; stroke-width: 1px; stroke-linecap: butt; stroke-linejoin: round; stroke-miterlimit: 4; stroke-dasharray: none; stroke-dashoffset: 0; stroke-opacity: 1;" />
<path d="m 16.999999,7.5000055 h 7 m -20.493626,9.0000005 5.993626,3 5.993625,-3 m -11.987251,-3 5.993626,3 5.993625,-3 m -11.993625,-3 6.000001,3 5.999999,-3 L 9.5,7.5000055 Z" style="fill: none; stroke: #000000; stroke-width: 1px; stroke-linecap: round; stroke-linejoin: round; stroke-opacity: 1;" />
</svg>