<svg width="26" height="26" viewBox="0 0 26 26" xmlns="http://www.w3.org/2000/svg">
<path d="m 3.5063734,16.500006 5.993625,3 5.9936256,-3 m -11.9872506,-3 5.993625,3 5.9936256,-3 m -11.9936246,-3 6,3 5.9999996,-3 -5.9999996,-3.0000003 z" style="fill: none; stroke: #000000; stroke-width: 1px; stroke-linecap: round; stroke-linejoin: round; stroke-opacity: 1;" />
<path d="m 23.499937,13.494292 c -0.004,-0.272891 -0.22685,-0.49186 -0.49992,-0.49185 h -1.49977 l -0.49993,-4.4956617 c 0.01,-0.67571 -1.00941,-0.67571 -0.99985,0 l -0.49992,4.4956627 h -1.49977 c -0.44525,1.7e-4 -0.66819,0.538149 -0.35346,0.852941 l 2.49962,2.998328 c 0.19523,0.19505 0.51169,0.19505 0.70692,0 l 2.49962,-2.998329 c 0.0957,-0.0956 0.14853,-0.22588 0.14646,-0.361091 z" style="opacity: 1; fill: #000000; fill-opacity: 1; stroke: none; stroke-width: 1px; stroke-linecap: butt; stroke-linejoin: round; stroke-miterlimit: 4; stroke-dasharray: none; stroke-dashoffset: 0; stroke-opacity: 1;" />
</svg>