<svg width="26" height="26" viewBox="0 0 26 26" xmlns="http://www.w3.org/2000/svg">
<path d="m 20,4 c -3,2.5 -4.030042,3 -7.34375,3 -3.3137085,0 -6,2.686292 -6,6 0,0.89021 0.2428137,1.756928 0.6152344,2.53125 C 8.1167562,14.702782 8.9088331,14.103624 9.6582031,13.632812 9.1212408,11.936182 9.337433,9.6718589 10.625,8.625 9.8523963,10.263048 9.8397257,11.54255 10.515625,13.140625 11.2269,12.773663 11.891041,12.516256 12.5,12.324219 c -1.261755,-2.255641 1.167969,-4.4785159 1.167969,-4.4785159 0,0 -1.887801,1.9947981 -0.228516,4.2050779 0.710109,-0.174932 1.445548,-0.463227 2.056641,-0.699219 -0.487462,-2.6657212 1.32732,-4.0190331 1.32732,-4.0190331 0,0 -1.630184,1.9061601 -0.512867,3.5522371 0.0057,-0.0042 0.01186,-0.0075 0.01758,-0.01172 1.212933,-0.8902983 2.0625,-2.0292974 2.650391,-3.3789064 -0.469012,1.9660169 -1.071641,2.6035374 -2.212891,3.8593754 1.068133,1.119353 3.513442,-0.218558 3.513442,-0.218558 0,0 -2.279384,1.912479 -4.224379,0.868948 -0.631917,0.459444 -1.307192,0.673851 -1.9375,0.892573 0.787763,2.565397 3.826171,2.472657 3.826171,2.472657 0,0 -3.280195,0.570313 -4.798828,-2.201172 -0.682749,0.194908 -1.399192,0.440679 -2.18164,0.84375 1.08681,2.937986 4.855468,2.958984 4.855468,2.958984 0,0 -3.406026,0.945722 -5.710937,-2.460937 C 9.4110875,14.95871 8.6695626,15.537469 7.8535156,16.353516 6,18 5.6396645,19.586417 5,21 l 2,1 C 7.6118797,20.48951 8.0547886,18.801557 9.0859375,17.814453 10.08427,18.556008 11.317091,19 12.65625,19 15.969958,19 24,14.5 20,4 Z" style="opacity: 1; fill: #000000; fill-opacity: 1; stroke: none; stroke-width: 1; stroke-linecap: butt; stroke-linejoin: round; stroke-miterlimit: 4; stroke-dasharray: none; stroke-dashoffset: 0; stroke-opacity: 0.55357139;" />
</svg>