<svg width="26" height="26" viewBox="0 0 26 26" xmlns="http://www.w3.org/2000/svg">
<path d="m 13.00005,4.9999992 c -2.755501,0 -4.9999999,2.2444985 -4.9999999,5 0,0.9513448 0.282053,1.6609148 0.617188,2.2617188 L 15.294972,5.5839836 C 14.604359,5.2231091 13.831234,4.9999992 13.00005,4.9999992 Z m 4.416016,2.7050781 -7.4492189,7.4492187 c 0.010487,0.115845 0.033203,0.21736 0.033203,0.345703 v 0.5 h 6 v -0.5 c 0,-1.116667 0.416016,-1.722656 0.916016,-2.472656 0.5,-0.75 1.083984,-1.644011 1.083984,-3.0273438 0,-0.8311839 -0.22311,-1.6043088 -0.583984,-2.2949219 z" style="opacity: 1; fill: #000000; fill-opacity: 1; stroke: none; stroke-width: 1; stroke-linecap: round; stroke-linejoin: miter; stroke-miterlimit: 4; stroke-dasharray: none; stroke-dashoffset: 0; stroke-opacity: 1;" />
<path d="m 15.00005,20 a 2,2 0 0 1 -1,1.732051 2,2 0 0 1 -2,0 2,2 0 0 1 -1,-1.732051 l 2,0 z" style="opacity: 1; fill: #000000; fill-opacity: 1; stroke: none; stroke-width: 3; stroke-linecap: round; stroke-linejoin: round; stroke-miterlimit: 4; stroke-dasharray: none; stroke-dashoffset: 0; stroke-opacity: 1;" />
<path d="m 11.00005,17.499999 h 4 m -4.5,-2 v 4 h 5 v -4" style="fill: none; stroke: #000000; stroke-width: 1px; stroke-linecap: butt; stroke-linejoin: round; stroke-opacity: 1;" />
<path d="M 5.5000501,17.499999 19.50005,3.4999992" style="fill: none; stroke: #000000; stroke-width: 1px; stroke-linecap: round; stroke-linejoin: miter; stroke-opacity: 1;" />
</svg>