<svg width="26" height="26" viewBox="0 0 26 26" xmlns="http://www.w3.org/2000/svg">
<path d="M 7 11 C 6.446 11 6 11.446 6 12 L 6 20 C 6 20.554 6.446 21 7 21 L 14.171875 21 L 15.171875 20 L 14.111328 18.939453 C 13.844536 18.672658 13.706879 18.320773 13.6875 17.962891 C 13.627706 17.985263 13.564589 18 13.5 18 L 12.5 18 C 12.223 18 11.95446 17.773231 12 17.5 L 12.5 14.5 C 12.5 14.223858 12.723858 14 13 14 C 13.276142 14 13.5 14.223858 13.5 14.5 L 13.923828 17.046875 C 13.977256 16.965459 14.040426 16.889259 14.111328 16.818359 L 14.818359 16.111328 C 15.106046 15.82364 15.492418 15.679688 15.878906 15.679688 C 16.265394 15.679687 16.651767 15.82364 16.939453 16.111328 L 18 17.171875 L 19.060547 16.111328 C 19.318098 15.853776 19.655019 15.718385 20 15.691406 L 20 12 C 20 11.446 19.554 11 19 11 L 7 11 z " style="opacity: 1; fill: #000000; fill-opacity: 1; stroke: #1e4177; stroke-width: 0; stroke-linecap: round; stroke-linejoin: round; stroke-miterlimit: 4; stroke-dasharray: none; stroke-dashoffset: 0; stroke-opacity: 1;" />
<path d="M 9,10.985758 9,8.880976 c 0,-5.174635 8,-5.174635 8,0 l 0,2.104782" style="fill: none; stroke: #000000; stroke-width: 2; stroke-linecap: butt; stroke-linejoin: round; stroke-miterlimit: 4; stroke-dasharray: none; stroke-opacity: 1;" />
<path d="m 20.474756,16.818138 c -0.195869,-0.19587 -0.511238,-0.19587 -0.707107,0 l -1.767767,1.767769 -1.767767,-1.767769 c -0.195869,-0.19587 -0.511238,-0.19587 -0.707107,0 l -0.707107,0.70711 c -0.195868,0.19586 -0.195868,0.51123 0,0.7071 l 1.767767,1.76777 -1.767767,1.767769 c -0.195868,0.19587 -0.195868,0.511241 0,0.7071 l 0.707107,0.70711 c 0.195869,0.19587 0.511238,0.19587 0.707107,0 l 1.767767,-1.767769 1.767767,1.767769 c 0.195869,0.19587 0.511238,0.19587 0.707107,0 l 0.707107,-0.70711 c 0.195868,-0.195859 0.195868,-0.51123 0,-0.7071 l -1.767767,-1.767769 1.767767,-1.76777 c 0.195868,-0.19587 0.195868,-0.51124 0,-0.7071 z" style="opacity: 1; fill: #000000; fill-opacity: 1; stroke: none; stroke-width: 1; stroke-linecap: round; stroke-linejoin: round; stroke-miterlimit: 4; stroke-dasharray: none; stroke-dashoffset: 0; stroke-opacity: 1;" />
</svg>