<svg width="26" height="26" viewBox="0 0 26 26" xmlns="http://www.w3.org/2000/svg">
<path d="M 7 11 C 6.446 11 6 11.446 6 12 L 6 20 C 6 20.554 6.446 21 7 21 L 13.324219 21 C 13.02701 20.433605 13.106484 19.704041 13.576172 19.234375 L 14.283203 18.527344 C 14.858495 17.952078 15.829005 17.952078 16.404297 18.527344 L 17.033203 19.15625 L 19.546875 16.25 L 19.476562 16.341797 C 19.614327 16.139811 19.801611 15.999401 20 15.902344 L 20 12 C 20 11.446 19.554 11 19 11 L 7 11 z M 13 14 C 13.276142 14 13.5 14.223858 13.5 14.5 L 14 17.5 C 14.04554 17.773231 13.777 18 13.5 18 L 12.5 18 C 12.223 18 11.95446 17.773231 12 17.5 L 12.5 14.5 C 12.5 14.223858 12.723858 14 13 14 z " style="opacity: 1; fill: #000000; fill-opacity: 1; stroke: #1e4177; stroke-width: 0; stroke-linecap: round; stroke-linejoin: round; stroke-miterlimit: 4; stroke-dasharray: none; stroke-dashoffset: 0; stroke-opacity: 1;" />
<path d="M 9,10.985758 9,8.880976 c 0,-5.174635 8,-5.174635 8,0 l 0,2.104782" style="fill: none; stroke: #000000; stroke-width: 2; stroke-linecap: butt; stroke-linejoin: round; stroke-miterlimit: 4; stroke-dasharray: none; stroke-opacity: 1;" />
<path d="m 20.642277,16.746535 c 0.132784,0.004 0.269253,0.0603 0.367188,0.15821 l 0.707031,0.70898 c 0.195869,0.19587 0.195869,0.51116 0,0.70703 l -4.277344,4.77735 c -0.195869,0.19586 -0.511162,0.19586 -0.707031,0 l -2.449219,-2.44922 c -0.195869,-0.19587 -0.195869,-0.51117 0,-0.70703 l 0.707031,-0.70704 c 0.195869,-0.19586 0.511163,-0.19586 0.707032,0 l 1.388672,1.38868 3.216796,-3.71875 c 0.07804,-0.11442 0.207061,-0.16233 0.339844,-0.15821 z" style="opacity: 1; fill: #000000; fill-opacity: 1; stroke: none; stroke-width: 0.99999988; stroke-linecap: round; stroke-linejoin: round; stroke-miterlimit: 4; stroke-dasharray: none; stroke-dashoffset: 0; stroke-opacity: 1;" />
</svg>