<svg width="26" height="26" viewBox="0 0 26 26" xmlns="http://www.w3.org/2000/svg">
<path d="m 7.0000006,11 c -0.5540001,0 -1.0000001,0.446 -1.0000001,1 v 8 c 0,0.554 0.446,1 1.0000001,1 H 17.42187 C 17.17299,20.731072 17,20.385707 17,20 c 0,-1.729818 1.04788,-2.876009 1.585941,-3.414062 0.241669,-0.241678 0.33913,-0.34358 0.36718,-0.375 -0.11197,-0.03765 -0.258121,-0.08594 -0.45312,-0.08594 -0.21837,0 -0.41991,0.05114 -0.52148,0.0918 -0.0479,0.326223 -0.19596,0.655471 -0.44141,0.884765 C 17.236831,17.382071 16.84958,17.5 16.5,17.5 h -0.999999 c -0.8137,0 -1.5,-0.686297 -1.5,-1.5 0,-1.262681 0.63397,-2.329653 1.50391,-2.964844 C 16.373841,12.399965 17.44246,12.125 18.5,12.125 c 0.50557,0 1.01228,0.06813 1.5,0.203125 V 12 c 0,-0.554 -0.446,-1 -1,-1 z M 17.97852,16.216797 Z M 13.000001,14 c 0.27614,0 0.5,0.223857 0.5,0.5 l 0.5,3 c 0.0455,0.27323 -0.223,0.5 -0.5,0.5 h -1 c -0.277,0 -0.54554,-0.22677 -0.5,-0.5 l 0.5,-3 c 0,-0.276142 0.22386,-0.5 0.5,-0.5 z" style="opacity: 1; fill: #000000; fill-opacity: 1; stroke: #1e4177; stroke-width: 0; stroke-linecap: round; stroke-linejoin: round; stroke-miterlimit: 4; stroke-dasharray: none; stroke-dashoffset: 0; stroke-opacity: 1;" />
<path d="M 9.0000006,10.985758 V 8.8809762 c 0,-5.1746349 7.9999994,-5.1746349 7.9999994,0 v 2.1047818" style="fill: none; stroke: #000000; stroke-width: 2; stroke-linecap: butt; stroke-linejoin: round; stroke-miterlimit: 4; stroke-dasharray: none; stroke-opacity: 1;" />
<path d="m 18.5,13.125 c -1.75,0 -3.499999,0.958333 -3.499999,2.875 0,0.277 0.223,0.5 0.5,0.5 H 16.5 c 0.277001,0 0.5,-0.175405 0.5,-0.5 0,-1.166667 3,-1.166667 3,0 0,0.666667 -0.20703,0.792969 -0.70703,1.292969 C 18.79297,17.792969 18,18.666667 18,20 c 0,0.277 0.223,0.5 0.5,0.5 h 1 c 0.277001,0 0.5,-0.175405 0.5,-0.5 0,-0.666667 0.20703,-0.792969 0.70703,-1.292969 C 21.20703,18.207031 22,17.333333 22,16 22,14.083333 20.25,13.125 18.5,13.125 Z m 0,8.375 C 18.223,21.5 18,21.723 18,22 v 1 c 0,0.277 0.223,0.5 0.5,0.5 h 1 c 0.277001,0 0.5,-0.223 0.5,-0.5 v -1 c 0,-0.277 -0.222999,-0.5 -0.5,-0.5 z" style="opacity: 1; fill: #000000; fill-opacity: 1; stroke: none; stroke-width: 2; stroke-linecap: butt; stroke-linejoin: miter; stroke-miterlimit: 4; stroke-dasharray: none; stroke-dashoffset: 0; stroke-opacity: 1;" />
</svg>