<svg width="26" height="26" viewBox="0 0 26 26" xmlns="http://www.w3.org/2000/svg">
<path d="m 7,11 c -0.554,0 -1,0.446 -1,1 l 0,8 c 0,0.554 0.446,1 1,1 l 12,0 c 0.554,0 1,-0.446 1,-1 l 0,-8 c 0,-0.554 -0.446,-1 -1,-1 L 7,11 Z m 6,3 c 0.276142,0 0.5,0.223858 0.5,0.5 l 0.5,3 c 0.04554,0.273231 -0.223,0.5 -0.5,0.5 l -1,0 C 12.223,18 11.95446,17.773231 12,17.5 l 0.5,-3 C 12.5,14.223858 12.723858,14 13,14 Z" style="opacity: 1; fill: #000000; fill-opacity: 1; stroke: #1e4177; stroke-width: 0; stroke-linecap: round; stroke-linejoin: round; stroke-miterlimit: 4; stroke-dasharray: none; stroke-dashoffset: 0; stroke-opacity: 1;" />
<path d="M 9,10.985758 9,8.880976 c 0,-5.174635 8,-5.174635 8,0 l 0,2.104782" style="fill: none; stroke: #000000; stroke-width: 2; stroke-linecap: butt; stroke-linejoin: round; stroke-miterlimit: 4; stroke-dasharray: none; stroke-opacity: 1;" />
</svg>