<svg width="26" height="26" viewBox="0 0 26 26" xmlns="http://www.w3.org/2000/svg">
<path d="M 7 11 C 6.446 11 6 11.446 6 12 L 6 20 C 6 20.554 6.446 21 7 21 L 19 21 C 19.554 21 20 20.554 20 20 L 20 12 C 20 11.446 19.554 11 19 11 L 7 11 z M 13 14 C 13.276142 14 13.5 14.223858 13.5 14.5 L 14 17.5 C 14.045539 17.773231 13.777 18 13.5 18 L 12.5 18 C 12.223 18 11.95446 17.773231 12 17.5 L 12.5 14.5 C 12.5 14.223858 12.723858 14 13 14 z " style="opacity: 1; fill: #000000; fill-opacity: 1; stroke: #1e4177; stroke-width: 0; stroke-linecap: round; stroke-linejoin: round; stroke-miterlimit: 4; stroke-dasharray: none; stroke-dashoffset: 0; stroke-opacity: 1;" />
<path d="M 9,10.985758 9,8.880976 c 0,-2.5873175 2,-3.8809762 4,-3.8809762 1,0 2,0.3234147 2.75,0.970244" style="fill: none; stroke: #000000; stroke-width: 2; stroke-linecap: round; stroke-linejoin: round; stroke-miterlimit: 4; stroke-dasharray: none; stroke-opacity: 1;" />
</svg>