<svg width="26" height="26" viewBox="0 0 26 26" xmlns="http://www.w3.org/2000/svg">
<path d="m 7.0000005,11 c -0.554,0 -1,0.446 -1,1 v 8 c 0,0.554 0.446,1 1,1 H 17 v -7 c 0,-0.813703 0.6863,-1.5 1.5,-1.5 H 20 V 12 c 0,-0.554 -0.446,-1 -1,-1 z M 13,14 c 0.276141,0 0.5,0.223857 0.5,0.5 l 0.5,3 c 0.0455,0.27323 -0.222999,0.5 -0.5,0.5 h -1 C 12.223,18 11.954461,17.77323 12,17.5 l 0.5,-3 C 12.5,14.223858 12.72386,14 13,14 Z" style="opacity: 1; fill: #000000; fill-opacity: 1; stroke: #1e4177; stroke-width: 0; stroke-linecap: round; stroke-linejoin: round; stroke-miterlimit: 4; stroke-dasharray: none; stroke-dashoffset: 0; stroke-opacity: 1;" />
<path d="M 9.0000005,10.985758 V 8.8809762 c 0,-5.1746349 7.9999995,-5.1746349 7.9999995,0 v 2.1047818" style="fill: none; stroke: #000000; stroke-width: 2; stroke-linecap: butt; stroke-linejoin: round; stroke-miterlimit: 4; stroke-dasharray: none; stroke-opacity: 1;" />
<path d="m 18.5,13.5 h 1 c 0.277001,0 0.5,0.223 0.5,0.5 v 5 c 0,0.276999 -0.222999,0.5 -0.5,0.5 h -1 C 18.223,19.5 18,19.277 18,19 v -5 c 0,-0.277 0.223,-0.5 0.5,-0.5 z" style="opacity: 1; fill: #000000; fill-opacity: 1; stroke: none; stroke-width: 1; stroke-linecap: round; stroke-linejoin: round; stroke-miterlimit: 4; stroke-dasharray: none; stroke-dashoffset: 0; stroke-opacity: 1;" />
<path d="m 18.5,21.5 h 1 c 0.277001,0 0.5,0.223 0.5,0.5 v 1 c 0,0.277 -0.222999,0.5 -0.5,0.5 h -1 C 18.223,23.5 18,23.277 18,23 v -1 c 0,-0.277 0.223,-0.5 0.5,-0.5 z" style="opacity: 1; fill: #000000; fill-opacity: 1; stroke: none; stroke-width: 1; stroke-linecap: round; stroke-linejoin: round; stroke-miterlimit: 4; stroke-dasharray: none; stroke-dashoffset: 0; stroke-opacity: 1;" />
</svg>