<svg width="26" height="26" viewBox="0 0 26 26" xmlns="http://www.w3.org/2000/svg">
<path d="m 17,13 a 4,4 0 0 1 -4,4 4,4 0 0 1 -4,-4 4,4 0 0 1 4,-4 4,4 0 0 1 4,4 z M 9,5 h 8 c 2.216,0 4,1.784 4,4 v 8 c 0,2.216 -1.784,4 -4,4 H 9 C 6.784,21 5,19.216 5,17 V 9 C 5,6.784 6.784,5 9,5 Z" style="opacity: 1; fill: none; fill-opacity: 1; stroke: #000000; stroke-width: 1.5; stroke-linecap: butt; stroke-linejoin: miter; stroke-miterlimit: 4; stroke-dasharray: none; stroke-dashoffset: 0; stroke-opacity: 1;" />
<circle cx="18" cy="8" r="1" style="opacity: 1; fill: #000000; fill-opacity: 1; stroke: none; stroke-width: 1.5; stroke-linecap: butt; stroke-linejoin: miter; stroke-miterlimit: 4; stroke-dasharray: none; stroke-dashoffset: 0; stroke-opacity: 1;" />
</svg>