<svg width="26" height="26" viewBox="0 0 26 26" xmlns="http://www.w3.org/2000/svg">
<path d="m 15,13 v -1 h 3 V 9 h 1 v 3 h 3 v 1 h -3 v 3 h -1 v -3 z" style="fill: #000000; fill-opacity: 1; stroke: none; stroke-width: 1px; stroke-linecap: butt; stroke-linejoin: miter; stroke-opacity: 1;" />
<path d="m 10.326241,6.0000002 c -4.5390068,0 -5.6737586,7.3758868 0,7.3758868 -0.5394379,0.195349 -0.3810016,0.778562 0,1.134752 -8.5657564,2.208934 -4.5408401,6.80851 0,6.80851 5.250775,0 5.574009,-3.452904 4.658689,-5.248227 -0.454498,-0.891458 -2.389185,-2.074839 -2.389185,-2.695035 0,-0.567376 3.778152,-2.932184 1.134752,-5.6737591 h 1.134752 L 16,6.0000002 Z M 10.06915,7.4184399 c 0.85591,-0.016053 1.726927,0.7771289 2.083333,1.8971632 0.414166,1.3013599 -0.0047,2.5864719 -0.935284,2.8701239 C 10.286998,12.468888 9.1977239,11.644492 8.7836882,10.343972 8.3695224,9.0426129 8.7883005,7.7575005 9.7189722,7.4738477 9.8315395,7.439416 9.9488513,7.420854 10.06915,7.4184399 Z M 10.468085,16 c 1.566766,0 2.978724,1.101847 2.978724,2.198582 0,1.096735 -1.270114,1.77305 -2.83688,1.77305 -1.566765,0 -2.8368792,-0.676315 -2.8368792,-1.77305 C 7.7730498,17.101847 8.9013201,16 10.468085,16 Z" style="opacity: 1; fill: #000000; fill-opacity: 1; stroke: none; stroke-width: 1px; stroke-linecap: butt; stroke-linejoin: miter; stroke-miterlimit: 4; stroke-dasharray: none; stroke-dashoffset: 0; stroke-opacity: 1;" />
</svg>