<svg width="26" height="26" viewBox="0 0 26 26" xmlns="http://www.w3.org/2000/svg">
<path d="m 5,18.5 c 5,3.5 16,1 16,-9 0.723543,-0.6097903 1.398687,-1.2679794 2,-2 L 21,8 C 21.569435,7.4490583 22.166419,6.9440311 22.5,6 21.602353,6.5794118 20,7 20,7 19,5 13,5 14,10.5 10.847615,10.337519 8,9 6,6.5 5,10 9,12 9,12 L 5.5,10.5 c 0,1 1.5,4 4.5,4.5 L 7,14.5 c 0,0.5 2,3.5 4,3 0,0 -3,1.5 -6,1 z" style="opacity: 1; fill: #000000; fill-opacity: 1; stroke: none; stroke-width: 1px; stroke-linecap: butt; stroke-linejoin: miter; stroke-opacity: 1;" />
</svg>