<svg width="26" height="26" viewBox="0 0 26 26" xmlns="http://www.w3.org/2000/svg">
<path d="m 10.5,6 a 4,4 0 0 0 -4,4 4,4 0 0 0 3.5,3.962891 V 15.5 L 5,14 v 6 l 5,-1.5 V 20 h 7 l -2,-6 h 3 A 4,4 0 0 0 22,10 4,4 0 0 0 18,6 4,4 0 0 0 14.248047,8.6191406 4,4 0 0 0 10.5,6 Z m 0,3 a 1,1 0 0 1 1,1 1,1 0 0 1 -1,1 1,1 0 0 1 -1,-1 1,1 0 0 1 1,-1 z M 18,9 a 1,1 0 0 1 1,1 1,1 0 0 1 -1,1 1,1 0 0 1 -1,-1 1,1 0 0 1 1,-1 z" style="fill: #000000; fill-opacity: 1; stroke: none; stroke-width: 1px; stroke-linecap: butt; stroke-linejoin: miter; stroke-opacity: 1;" />
</svg>