<svg width="26" height="26" viewBox="0 0 26 26" xmlns="http://www.w3.org/2000/svg">
<path d="m 7.5,4.5 c -1.1045695,0 -2,0.8954305 -2,2 0,1.1045695 0.8954305,2 2,2 1.1045695,0 2,-0.8954305 2,-2 0,-1.1045695 -0.8954305,-2 -2,-2 z m 9.669922,4.9746094 C 15.52417,9.5668945 14.4375,10.6875 14,12 v -2 h -3 v 10 h 3 v -5 c 0,-2.696284 4,-4 4,0 v 5 h 3 V 15 C 21,11 19.285889,9.355957 17.169922,9.4746094 Z M 6,10 V 20 H 9 V 10 Z" style="fill: #000000; fill-opacity: 1; stroke: none; stroke-width: 1px; stroke-linecap: butt; stroke-linejoin: miter; stroke-opacity: 1;" />
</svg>