<svg width="26" height="26" viewBox="0 0 26 26" xmlns="http://www.w3.org/2000/svg">
<path d="m 11,4 c -3.8541486,0 -7,3.1458514 -7,7 0,3.854149 3.1458514,7 7,7 1.296711,0 2.509208,-0.363061 3.552734,-0.982422 l 4.740235,4.689453 c 0.942508,0.98168 2.395742,-0.471554 1.414062,-1.414062 L 16.179688,15.6875 C 17.306401,14.444201 18,12.802426 18,11 18,7.1458514 14.854149,4 11,4 Z m 0,2 c 2.773268,0 5,2.2267316 5,5 0,2.773268 -2.226732,5 -5,5 C 8.2267316,16 6,13.773268 6,11 6,8.2267316 8.2267316,6 11,6 Z" style="opacity: 1; fill: #000000; fill-opacity: 1; stroke: none; stroke-width: 2; stroke-linecap: round; stroke-linejoin: round; stroke-miterlimit: 4; stroke-dasharray: none; stroke-dashoffset: 0; stroke-opacity: 1;" />
<path d="m 13.474874,7.8180197 c -0.195869,-0.1958686 -0.511239,-0.1958686 -0.707107,0 L 11,9.5857865 9.2322331,7.8180195 c -0.1958686,-0.1958686 -0.5112382,-0.1958686 -0.7071068,0 L 7.8180196,8.5251263 c -0.1958686,0.1958686 -0.1958686,0.5112382 0,0.7071068 L 9.5857865,11 7.8180196,12.767767 c -0.1958686,0.195869 -0.1958686,0.511238 0,0.707107 l 0.7071067,0.707107 c 0.1958686,0.195868 0.5112382,0.195868 0.7071068,0 L 11,12.414214 l 1.767767,1.767767 c 0.195869,0.195868 0.511238,0.195868 0.707107,0 l 0.707107,-0.707107 c 0.195868,-0.195869 0.195868,-0.511238 0,-0.707107 L 12.414214,11 14.18198,9.2322332 c 0.195869,-0.1958686 0.195869,-0.5112382 0,-0.7071068 z" style="opacity: 1; fill: #000000; fill-opacity: 1; stroke: none; stroke-width: 1; stroke-linecap: round; stroke-linejoin: round; stroke-miterlimit: 4; stroke-dasharray: none; stroke-dashoffset: 0; stroke-opacity: 1;" />
</svg>