<svg width="26" height="26" viewBox="0 0 26 26" xmlns="http://www.w3.org/2000/svg">
<path d="m 11,4 c -3.8541486,0 -7,3.1458514 -7,7 0,3.854149 3.1458514,7 7,7 1.296711,0 2.509208,-0.363061 3.552734,-0.982422 l 4.740235,4.689453 c 0.942508,0.98168 2.395742,-0.471554 1.414062,-1.414062 L 16.179688,15.6875 C 17.306401,14.444201 18,12.802426 18,11 18,7.1458514 14.854149,4 11,4 Z m 0,2 c 2.773268,0 5,2.2267316 5,5 0,2.773268 -2.226732,5 -5,5 C 8.2267316,16 6,13.773268 6,11 6,8.2267316 8.2267316,6 11,6 Z" style="opacity: 1; fill: #000000; fill-opacity: 1; stroke: none; stroke-width: 2; stroke-linecap: round; stroke-linejoin: round; stroke-miterlimit: 4; stroke-dasharray: none; stroke-dashoffset: 0; stroke-opacity: 1;" />
</svg>