<svg width="26" height="26" viewBox="0 0 26 26" xmlns="http://www.w3.org/2000/svg">
<path d="m 14.477362,5.1586777 c -0.195869,-0.1958686 -0.511239,-0.1958686 -0.707107,0 l -0.707107,0.7071068 c -0.195869,0.1958686 -0.195869,0.5112382 0,0.7071068 l 1.414214,1.4142135 c 0.195868,0.1958686 0.511238,0.1958686 0.707106,0 l 0.707107,-0.7071067 c 0.195869,-0.1958686 0.195869,-0.5112383 0,-0.7071068 z m 4.949747,4.9497473 c -0.195869,-0.195869 -0.511238,-0.195869 -0.707107,0 l -0.707107,0.707107 c -0.195868,0.195868 -0.195868,0.511238 0,0.707106 l 1.414214,1.414214 c 0.195869,0.195869 0.511238,0.195869 0.707107,0 l 0.707107,-0.707107 c 0.195868,-0.195868 0.195868,-0.511238 0,-0.707107 z M 12.356041,7.2799981 c -0.195868,-0.1958686 -0.511238,-0.1958686 -0.707107,0 L 8.4669545,10.461978 c -1.940267,1.940267 -1.940209,5.13086 0,7.071068 1.9402085,1.940208 5.1308005,1.940266 7.0710675,0 l 3.18198,-3.18198 c 0.195869,-0.195869 0.195869,-0.511239 0,-0.707107 l -1.414213,-1.414214 c -0.195869,-0.195868 -0.511239,-0.195868 -0.707107,0 l -3.181981,3.181981 c -0.794119,0.79412 -2.034965,0.793461 -2.828426,0 -0.7934615,-0.793462 -0.7941205,-2.034308 0,-2.828427 l 3.18198,-3.181981 c 0.195868,-0.195868 0.195868,-0.5112378 0,-0.7071064 z" style="opacity: 1; fill: #000000; fill-opacity: 1; stroke: none; stroke-width: 3; stroke-linecap: butt; stroke-linejoin: miter; stroke-miterlimit: 4; stroke-dasharray: none; stroke-dashoffset: 2.79999995; stroke-opacity: 1;" />
</svg>