<svg width="26" height="26" viewBox="0 0 26 26" xmlns="http://www.w3.org/2000/svg">
<path d="m 13,4 c -3.295942,0 -6,2.704058 -6,6 0,0.823985 0.1696054,1.611127 0.4746094,2.328125 L 13,21 18.525391,12.328125 C 18.830395,11.611127 19,10.823985 19,10 19,6.704058 16.295942,4 13,4 Z m 0,1.5 A 4.5,4.5 0 0 1 17.5,10 4.5,4.5 0 0 1 13,14.5 4.5,4.5 0 0 1 8.5,10 4.5,4.5 0 0 1 13,5.5 Z" style="opacity: 1; fill: #000000; fill-opacity: 1; stroke: none; stroke-width: 3; stroke-linecap: round; stroke-linejoin: round; stroke-miterlimit: 4; stroke-dasharray: none; stroke-dashoffset: 0; stroke-opacity: 1;" />
<path d="M 15,10.5 H 13 L 11,7.5000001" style="fill: none; stroke: #000000; stroke-width: 1px; stroke-linecap: round; stroke-linejoin: round; stroke-opacity: 1;" />
</svg>