<svg width="26" height="26" viewBox="0 0 26 26" xmlns="http://www.w3.org/2000/svg">
<path d="m 13,4 c -3.295942,0 -6,2.704058 -6,6 0,0.823985 0.169605,1.611127 0.474609,2.328125 L 13,21 18.525391,12.328125 C 18.830395,11.611127 19,10.823985 19,10 19,6.704058 16.295942,4 13,4 Z m 0,3 c 1.674621,0 3,1.325379 3,3 0,1.674621 -1.325379,3 -3,3 -1.674621,0 -3,-1.325379 -3,-3 0,-1.674621 1.325379,-3 3,-3 z M 6,9 c -2.197294,0 -4,1.802706 -4,4 0,0.549323 0.113069,1.074736 0.316406,1.552734 L 6,21 8.748047,16.189453 7.533203,14.279297 C 7.168307,14.71765 6.623926,15 6,15 4.883586,15 4,14.116414 4,13 4,11.883586 4.883586,11 6,11 6.02816,11 6.05418,11.0067 6.08203,11.0078 6.033468,10.677607 6,10.342301 6,10 6,9.662384 6.033018,9.333166 6.080078,9.007812 6.052817,9.007255 6.027387,9 6,9 Z M 20,9 C 19.97261,9 19.94718,9.0073 19.91992,9.0078 19.966982,9.333166 20,9.662384 20,10 20,10.342301 19.96653,10.677607 19.91797,11.007812 19.945825,11.006699 19.971837,11 20,11 c 1.116414,0 2,0.883586 2,2 0,1.116414 -0.883586,2 -2,2 -0.623926,0 -1.168307,-0.28235 -1.533203,-0.720703 L 17.251953,16.189453 20,21 23.683594,14.552734 C 23.886931,14.074736 24,13.549323 24,13 24,10.802706 22.197294,9 20,9 Z" style="opacity: 1; fill: #000000; fill-opacity: 1; stroke: none; stroke-width: 2; stroke-linecap: round; stroke-linejoin: round; stroke-miterlimit: 4; stroke-dasharray: none; stroke-dashoffset: 0; stroke-opacity: 1;" />
</svg>