<svg width="26" height="26" viewBox="0 0 26 26" xmlns="http://www.w3.org/2000/svg">
<path d="m 13,3.9999975 a 2,2 0 0 0 -2,2 2,2 0 0 0 2,2 2,2 0 0 0 2,-2 2,2 0 0 0 -2,-2 z m -1.5,4.5 c -1.5000002,0 -2.0000002,1.5000005 -2.0000002,1.5000005 l -0.5,4 1.5000002,1 0.5,4 c 0,1 1,1 1,1 h 2 c 0,0 1,0 1,-1 l 0.5,-4 1.5,-1 -0.5,-4 c 0,0 -0.5,-1.5000005 -2,-1.5000005 -1.5,0.5 -1.5,0.5 -3,0 z" style="fill: #000000; fill-opacity: 1; stroke: none; stroke-width: 1px; stroke-linecap: butt; stroke-linejoin: miter; stroke-opacity: 1;" />
<path d="M 16.751033,18.275856 A 7.5020676,2.2637117 0 0 1 20.24644,20.82218 7.5020676,2.2637117 0 0 1 12.999999,22.5 7.5020676,2.2637117 0 0 1 5.7535578,20.82218 7.5020676,2.2637117 0 0 1 9.2489648,18.275856" style="opacity: 1; fill: none; fill-opacity: 1; stroke: #000000; stroke-width: 0.99999994; stroke-linecap: round; stroke-linejoin: round; stroke-miterlimit: 4; stroke-dasharray: none; stroke-dashoffset: 0; stroke-opacity: 1;" />
</svg>