<svg width="26" height="26" viewBox="0 0 26 26" xmlns="http://www.w3.org/2000/svg">
<path d="M 7.5,8.2500001 C 5.0280435,8.2500001 3,10.278043 3,12.75 c 0,0.617989 0.1267158,1.208346 0.3554688,1.746094 L 7.5,21 11.644531,14.496094 C 11.873284,13.958346 12,13.367989 12,12.75 12,10.278043 9.9719565,8.2500001 7.5,8.2500001 Z M 7,10 h 1 l 2,5 H 9 L 8.5996094,14 H 6.4003906 L 6,15 H 5 Z m 0.5,1 -0.75,2 h 1.5 z m 11,-7.7499994 c -2.471956,0 -4.5,2.028043 -4.5,4.5 0,0.6179885 0.126716,1.2083452 0.355469,1.7460933 L 18.5,16 22.644531,9.4960939 C 22.873284,8.9583458 23,8.3679891 23,7.7500006 c 0,-2.471957 -2.028044,-4.5 -4.5,-4.5 z m -1.5,1.75 h 1.5 c 2.5,0 2,2.5 1,2.5 C 20.5,7.5000006 21,10 18.5,10 H 17 Z m 1,1 v 1 h 0.5 c 1,0 0.945313,-1 0,-1 z m 0,1.9999995 v 1 h 0.5 c 1,0 1,-1 0,-1 z" style="opacity: 1; fill: #000000; fill-opacity: 1; stroke: none; stroke-width: 3; stroke-linecap: round; stroke-linejoin: round; stroke-miterlimit: 4; stroke-dasharray: none; stroke-dashoffset: 0; stroke-opacity: 1;" />
<path d="M 7.5,22.5 19,17" style="fill: none; stroke: #000000; stroke-width: 1px; stroke-linecap: round; stroke-linejoin: miter; stroke-opacity: 1;" />
</svg>