<svg width="26" height="26" viewBox="0 0 26 26" xmlns="http://www.w3.org/2000/svg">
<path d="m 13,16 5,4 h 0.5 C 18.777,20 19,19.777 19,19.5 V 6.5 Z M 7,10 c -1.656854,0 -3,1.343146 -3,3 0,1.656854 1.343146,3 3,3 L 8.171875,17.951172 12,11.765625 V 10.5 C 12,10.223 11.777,10 11.5,10 Z m 13,1 v 4 c 1.104569,0 2,-0.895431 2,-2 0,-1.104569 -0.895431,-2 -2,-2 z M 11.140625,18.851562 10,21 h 2 z" style="opacity: 1; fill: #000000; fill-opacity: 1; stroke: none; stroke-width: 2; stroke-linecap: round; stroke-linejoin: round; stroke-miterlimit: 4; stroke-dasharray: none; stroke-dashoffset: 0; stroke-opacity: 1;" />
<path d="M 6.503772,23.493938 19.496225,2.5060626" style="fill: none; stroke: #000000; stroke-width: 1px; stroke-linecap: round; stroke-linejoin: miter; stroke-opacity: 1;" />
</svg>