<svg width="26" height="26" viewBox="0 0 26 26" xmlns="http://www.w3.org/2000/svg">
<path d="m 18,5.9999997 -5,4 V 16 l 5,4 h 0.5 C 18.777,20 19,19.777 19,19.5 V 6.4999997 c 0,-0.277 -0.223,-0.5 -0.5,-0.5 z m -11,4 c -1.6568542,0 -3,1.3431463 -3,3.0000003 0,1.656854 1.3431458,3 3,3 l 3,5 h 2 l -2,-5 h 1.5 c 0.277,0 0.5,-0.223 0.5,-0.5 v -5 C 12,10.223 11.777,9.9999997 11.5,9.9999997 Z M 20,11 v 4 c 1.104569,0 2,-0.895431 2,-2 0,-1.104569 -0.895431,-2 -2,-2 z" style="opacity: 1; fill: #000000; fill-opacity: 1; stroke: none; stroke-width: 2; stroke-linecap: round; stroke-linejoin: round; stroke-miterlimit: 4; stroke-dasharray: none; stroke-dashoffset: 0; stroke-opacity: 1;" />
</svg>