<svg width="26" height="26" viewBox="0 0 26 26" xmlns="http://www.w3.org/2000/svg">
<path d="m 16,7 -4,3 v 6 l 4,3 h 0.5 C 16.777,19 17,18.777 17,18.5 V 7.5 C 17,7.223 16.5,7 16.5,7 Z m -9,3 c -1.65685,0 -3,1.34315 -3,3 0,1.65685 1.34315,3 3,3 l 3,5 h 2 l -2,-5 h 0.5 c 0.277,0 0.5,-0.223 0.5,-0.5 v -5 C 11,10.223 10.777,10 10.5,10 Z m 11,1 v 4 c 1.10457,0 2,-0.89543 2,-2 0,-1.10457 -0.89543,-2 -2,-2 z" style="opacity: 1; fill: #000000; fill-opacity: 1; stroke: none; stroke-width: 2; stroke-linecap: round; stroke-linejoin: round; stroke-miterlimit: 4; stroke-dasharray: none; stroke-dashoffset: 0; stroke-opacity: 1;" />
<path d="M 18.607771,9.5531729 A 3.5,3.5 0 0 1 21.500002,13 3.5,3.5 0 0 1 18.607771,16.446827" style="opacity: 1; fill: none; fill-opacity: 0.489899; stroke: #000000; stroke-width: 1; stroke-linecap: butt; stroke-linejoin: miter; stroke-miterlimit: 4; stroke-dasharray: none; stroke-dashoffset: 0; stroke-opacity: 1;" />
<path d="M 18.955067,7.5835574 A 5.5,5.5 0 0 1 23.500002,13 5.5,5.5 0 0 1 18.955067,18.416443" style="opacity: 1; fill: none; fill-opacity: 0.489899; stroke: #000000; stroke-width: 1; stroke-linecap: butt; stroke-linejoin: miter; stroke-miterlimit: 4; stroke-dasharray: none; stroke-dashoffset: 0; stroke-opacity: 1;" />
</svg>