<svg width="26" height="26" viewBox="0 0 26 26" xmlns="http://www.w3.org/2000/svg">
<path d="M 12.5 3 C 10.838 3 9.5 4.338 9.5 6 L 9.5 14 C 9.5 15.662 10.838 17 12.5 17 C 14.162 17 15.5 15.662 15.5 14 L 15.5 6 C 15.5 4.338 14.162 3 12.5 3 z M 7.4921875 13.492188 A 0.50005 0.50005 0 0 0 7 14 C 6.9999999 15.964159 8.0489883 17.781592 9.75 18.763672 C 10.4533 19.169723 11.224907 19.398471 12.007812 19.46875 A 0.50005 0.50005 0 0 0 12.007812 19.498047 L 11.994141 23 L 8.5078125 23 A 0.50005 0.50005 0 1 0 8.5078125 24 L 12.410156 24 A 0.50005 0.50005 0 0 0 12.574219 24 L 16.492188 24 A 0.50005 0.50005 0 1 0 16.492188 23 L 12.994141 23 L 13.007812 19.501953 A 0.50005 0.50005 0 0 0 13.005859 19.46875 C 13.784095 19.396944 14.550773 19.167371 15.25 18.763672 C 16.951012 17.781592 18 15.964159 18 14 A 0.50005 0.50005 0 1 0 17 14 C 17 15.608497 16.142999 17.092236 14.75 17.896484 C 13.357001 18.700733 11.642999 18.700733 10.25 17.896484 C 8.857001 17.092236 7.9999999 15.608497 8 14 A 0.50005 0.50005 0 0 0 7.4921875 13.492188 z " style="opacity: 1; fill: #000000; fill-opacity: 1; stroke: none; stroke-width: 1; stroke-linecap: square; stroke-linejoin: round; stroke-miterlimit: 4; stroke-dasharray: none; stroke-dashoffset: 0; stroke-opacity: 1;" />
</svg>