<svg width="26" height="26" viewBox="0 0 26 26" xmlns="http://www.w3.org/2000/svg">
<path d="M 12.5 3 C 10.838 3 9.5 4.338 9.5 6 L 9.5 13.800781 L 15.5 9.5136719 L 15.5 6 C 15.5 4.338 14.162 3 12.5 3 z M 15.5 13.199219 L 10.863281 16.511719 C 11.333848 16.818081 11.894272 17 12.5 17 C 14.162 17 15.5 15.662 15.5 14 L 15.5 13.199219 z M 7.4921875 13.492188 A 0.50005 0.50005 0 0 0 7 14 C 7 14.495287 7.0682756 14.981679 7.1953125 15.447266 L 8.0820312 14.8125 C 8.0330508 14.546288 8 14.276394 8 14 A 0.50005 0.50005 0 0 0 7.4921875 13.492188 z M 17.492188 13.492188 A 0.50005 0.50005 0 0 0 17 14 C 17 15.608497 16.142999 17.092236 14.75 17.896484 C 13.357001 18.700733 11.642999 18.700733 10.25 17.896484 C 10.012257 17.759223 9.7967188 17.595963 9.5917969 17.421875 L 8.7578125 18.017578 C 9.05842 18.297803 9.3856685 18.553325 9.75 18.763672 C 10.4533 19.169723 11.224908 19.398471 12.007812 19.46875 A 0.50005 0.50005 0 0 0 12.007812 19.498047 L 11.994141 23 L 8.5078125 23 A 0.50005 0.50005 0 1 0 8.5078125 24 L 12.410156 24 A 0.50005 0.50005 0 0 0 12.574219 24 L 16.492188 24 A 0.50005 0.50005 0 1 0 16.492188 23 L 12.994141 23 L 13.007812 19.501953 A 0.50005 0.50005 0 0 0 13.005859 19.46875 C 13.784095 19.396944 14.550773 19.167371 15.25 18.763672 C 16.951012 17.781592 18 15.964159 18 14 A 0.50005 0.50005 0 0 0 17.492188 13.492188 z " style="opacity: 1; fill: #000000; fill-opacity: 1; stroke: none; stroke-width: 1; stroke-linecap: square; stroke-linejoin: round; stroke-miterlimit: 4; stroke-dasharray: none; stroke-dashoffset: 0; stroke-opacity: 1;" />
<path d="M 4.5058041,19.49584 20.494196,7.5041645" style="fill: none; stroke: #000000; stroke-width: 1px; stroke-linecap: round; stroke-linejoin: miter; stroke-opacity: 1;" />
</svg>