<svg width="26" height="26" viewBox="0 0 26 26" xmlns="http://www.w3.org/2000/svg">
<path d="M 6,6 C 4.3553,6 3,7.355297 3,9 v 8 c 0,1.644703 1.3553,3 3,3 H 7 A 1.5,1.5 0 0 1 7.23828,19.189453 L 8.00391,18 H 6 C 5.4287,18 5,17.571297 5,17 V 9 C 5,8.428703 5.4287,8 6,8 h 8.43164 L 15.7168,6 Z M 19,6 A 1.5,1.5 0 0 1 18.76172,6.810547 L 17.99609,8 H 20 c 0.5713,0 1,0.428703 1,1 v 8 c 0,0.571297 -0.4287,1 -1,1 H 11.56836 L 10.2832,20 H 20 c 1.6447,0 3,-1.355297 3,-3 V 9 C 23,7.355297 21.6447,6 20,6 Z" style="opacity: 1; fill: #000000; fill-opacity: 1; stroke: none; stroke-width: 2; stroke-linecap: round; stroke-linejoin: round; stroke-miterlimit: 4; stroke-dasharray: none; stroke-dashoffset: 0; stroke-opacity: 1;" />
<path d="m 8.5,20 9,-14 M 16,11.5 h 2 l -3,4 h 3 m -10.5,0 H 9 m 4.5,0 H 13 m -4,-2 h 1.5 m -2.5,2 2.5,-6 1.13497,2.723936" style="fill: none; stroke: #000000; stroke-width: 1; stroke-linecap: round; stroke-linejoin: round; stroke-miterlimit: 4; stroke-dasharray: none; stroke-opacity: 1;" />
</svg>