<svg width="26" height="26" viewBox="0 0 26 26" xmlns="http://www.w3.org/2000/svg">
<path d="M 4,6 A 1,1 0 0 0 3,7 1,1 0 0 0 4,8 H 14.43164 L 15.7168,6 Z M 19,6 A 1.5,1.5 0 0 1 18.76172,6.810547 L 17.99609,8 H 20 c 0.5713,0 1,0.428703 1,1 v 7.999997 c 0,0.5713 -0.4287,1 -1,1 h -8.43164 l -1.28516,2 H 20 c 1.6447,0 3,-1.35529 3,-3 V 9 C 23,7.355297 21.6447,6 20,6 Z M 4,17.999997 a 1,1 0 0 0 -1,1 1,1 0 0 0 1,1 h 3 a 1.5,1.5 0 0 1 0.23828,-0.81054 l 0.76563,-1.18946 z" style="opacity: 1; fill: #000000; fill-opacity: 1; stroke: none; stroke-width: 2; stroke-linecap: round; stroke-linejoin: round; stroke-miterlimit: 4; stroke-dasharray: none; stroke-dashoffset: 0; stroke-opacity: 1;" />
<path d="M 8.5,19.999997 17.5,6 M 16,11.499997 h 2 l -3,4 h 3 m -10.5,0 H 9 m 4.5,0 H 13 m -4,-2 h 1.5 m -2.5,2 L 10.5,9.5 l 1.13497,2.723937" style="fill: none; stroke: #000000; stroke-width: 1; stroke-linecap: round; stroke-linejoin: round; stroke-miterlimit: 4; stroke-dasharray: none; stroke-opacity: 1;" />
</svg>