<svg width="26" height="26" viewBox="0 0 26 26" xmlns="http://www.w3.org/2000/svg">
<path d="M 5.5,5 A 0.50005,0.50005 0 0 0 5,5.5 v 15 A 0.50005,0.50005 0 0 0 5.5,21 H 16 V 16.5 A 0.50005,0.50005 0 0 1 16.5,16 H 21 V 5.5 A 0.50005,0.50005 0 0 0 20.5,5 Z m 10.14258,4.746094 c 0.13278,0.004 0.26929,0.0603 0.36719,0.158203 l 0.70703,0.708984 c 0.19587,0.19587 0.19587,0.511162 0,0.707031 l -4.27735,4.777344 c -0.19587,0.19586 -0.51116,0.19586 -0.70703,0 L 9.2832,13.648438 c -0.19587,-0.195871 -0.19587,-0.511172 0,-0.707032 l 0.70703,-0.707031 c 0.19587,-0.19587 0.51117,-0.19585 0.70704,0 l 1.38867,1.388672 3.21679,-3.71875 c 0.078,-0.11441 0.20706,-0.162203 0.33985,-0.158203 z M 17,17 v 3.707031 L 20.70703,17 Z" style="opacity: 1; fill: #000000; fill-opacity: 1; stroke: none; stroke-width: 1; stroke-linecap: round; stroke-linejoin: round; stroke-miterlimit: 4; stroke-dasharray: none; stroke-dashoffset: 0; stroke-opacity: 1;" />
</svg>