<svg width="26" height="26" viewBox="0 0 26 26" xmlns="http://www.w3.org/2000/svg">
<path d="m 5.5,4.9999998 a 0.50005,0.50005 0 0 0 -0.5,0.5 V 20.5 A 0.50005,0.50005 0 0 0 5.5,21 H 16 V 16.5 A 0.50005,0.50005 0 0 1 16.5,16 H 21 V 5.4999998 a 0.50005,0.50005 0 0 0 -0.5,-0.5 z M 9.5,12 h 7 c 0.277,0 0.5,0.223 0.5,0.5 v 1 c 0,0.277 -0.223,0.5 -0.5,0.5 h -7 C 9.223,14 9,13.777 9,13.5 v -1 C 9,12.223 9.223,12 9.5,12 Z m 7.5,5 v 3.707031 L 20.70703,17 Z" style="opacity: 1; fill: #000000; fill-opacity: 1; stroke: none; stroke-width: 1; stroke-linecap: round; stroke-linejoin: round; stroke-miterlimit: 4; stroke-dasharray: none; stroke-dashoffset: 0; stroke-opacity: 1;" />
</svg>