<svg width="26" height="26" viewBox="0 0 26 26" xmlns="http://www.w3.org/2000/svg">
<path d="m 21.146484,2.147684 -2,1.999821 c -0.19518,0.195252 -0.19518,0.511726 0,0.706968 l 2,1.99982 c 0.19527,0.195174 0.511772,0.195174 0.707032,0 l 2,-1.99982 c 0.19519,-0.195242 0.19519,-0.511716 0,-0.706968 l -2,-1.999821 c -0.205166,-0.218735 -0.541015,-0.173812 -0.707032,0 z m -4,3.999641 -4,3.999731 c -0.19518,0.195253 -0.19518,0.511716 0,0.706969 l 2,1.999819 c 0.19527,0.195162 0.511772,0.195162 0.707032,0 l 4,-3.99973 c 0.19519,-0.195252 0.19519,-0.511716 0,-0.706968 l -2,-1.999821 c -0.244229,-0.253889 -0.463436,-0.210919 -0.707032,0 z M 12.052734,11.277814 11,13.75 12.25,15 14.722656,13.947493 c 0.30552,-0.152276 0.37201,-0.559111 0.13086,-0.80071 l -2,-1.999819 c -0.292958,-0.261005 -0.715409,-0.09123 -0.800782,0.130848 z M 10.75,14.25 10,16 11.75,15.25 Z" style="opacity: 1; fill: #000000; fill-opacity: 1; stroke: none; stroke-width: 1px; stroke-linecap: round; stroke-linejoin: miter; stroke-miterlimit: 4; stroke-dasharray: none; stroke-dashoffset: 0; stroke-opacity: 1;" />
<path d="M 18.5,5.5 22,9.000001 18,13 m 2.5,3.499879 h -4 v 4 m 4,-7 v 3 l -4,4 H 5.5 V 5.4998785 h 10" style="fill: none; stroke: #000000; stroke-width: 1px; stroke-linecap: round; stroke-linejoin: round; stroke-opacity: 1;" />
</svg>