<svg width="26" height="26" viewBox="0 0 26 26" xmlns="http://www.w3.org/2000/svg">
<path d="m 5.5,5.0000003 a 0.50005,0.50005 0 0 0 -0.5,0.5 V 20.5 A 0.50005,0.50005 0 0 0 5.5,21 H 16 V 16.5 A 0.50005,0.50005 0 0 1 16.5,16 H 21 V 5.5000003 a 0.50005,0.50005 0 0 0 -0.5,-0.5 z m 5.37891,4.671875 c 0.1278,-10e-6 0.25561,0.04858 0.35351,0.146484 L 13,11.585938 14.76758,9.8183593 c 0.19587,-0.19587 0.51116,-0.19587 0.70703,0 l 0.70703,0.7070317 c 0.19587,0.19586 0.19587,0.511161 0,0.707031 L 14.41406,13 l 1.26758,1.267578 c 0.19587,0.19587 0.19587,0.511171 0,0.707031 l -0.70703,0.707032 c -0.19586,0.19587 -0.51116,0.19587 -0.70703,0 L 13,14.414062 11.23242,16.181641 c -0.19587,0.19587 -0.51117,0.19587 -0.70703,0 L 9.81836,15.474609 c -0.19587,-0.19586 -0.19587,-0.511161 0,-0.707031 L 11.58594,13 9.81836,11.232422 c -0.19587,-0.19587 -0.19587,-0.511161 0,-0.707031 l 0.70703,-0.7070317 c 0.0979,-0.09798 0.22571,-0.146484 0.35352,-0.146484 z M 17,17 v 3.707031 L 20.70703,17 Z" style="opacity: 1; fill: #000000; fill-opacity: 1; stroke: none; stroke-width: 1; stroke-linecap: round; stroke-linejoin: round; stroke-miterlimit: 4; stroke-dasharray: none; stroke-dashoffset: 0; stroke-opacity: 1;" />
</svg>