<svg width="26" height="26" viewBox="0 0 26 26" xmlns="http://www.w3.org/2000/svg">
<path d="m 21.146485,2.147684 -2,1.999821 c -0.195181,0.195252 -0.195181,0.511726 0,0.706968 l 2,1.99982 c 0.19527,0.195174 0.511772,0.195174 0.707032,0 l 2,-1.99982 c 0.19519,-0.195242 0.19519,-0.511716 0,-0.706968 l -2,-1.999821 c -0.205166,-0.218735 -0.541015,-0.173812 -0.707032,0 z m -4,3.999641 -4,3.999731 c -0.195181,0.195253 -0.195181,0.511716 0,0.706969 l 2,1.999819 c 0.19527,0.195162 0.511772,0.195162 0.707032,0 l 4,-3.99973 c 0.19519,-0.195252 0.19519,-0.511716 0,-0.706968 l -2,-1.999821 c -0.244229,-0.253889 -0.463436,-0.210919 -0.707032,0 z M 12.052735,11.277814 11,13.75 12.25,15 14.722656,13.947493 c 0.305521,-0.152276 0.372011,-0.559111 0.130861,-0.80071 l -2,-1.999819 c -0.292959,-0.261005 -0.715409,-0.09123 -0.800782,0.130848 z M 10.75,14.25 10,16 11.75,15.25 Z M 5.5,4.999999 c -0.27613,2.8e-5 -0.49997,0.223869 -0.5,0.5 V 20.5 c 3e-5,0.276131 0.22387,0.499972 0.5,0.5 H 16 v -4.5 c 3e-5,-0.276131 0.22387,-0.499972 0.5,-0.5 H 21 v -3.878906 l -1.92578,1.925781 c -0.2921,0.304203 -0.74365,0.48949 -1.15039,0.46875 l -2.75586,0.326172 -5.2207,2.552734 C 9.0876,17.824416 8.17558,16.912399 8.60547,16.052734 L 11.1582,10.83203 16.92188,4.999999 Z M 17,17 v 3.707031 L 20.70703,17 Z" style="opacity: 1; fill: #000000; fill-opacity: 1; stroke: none; stroke-width: 1px; stroke-linecap: round; stroke-linejoin: miter; stroke-miterlimit: 4; stroke-dasharray: none; stroke-dashoffset: 0; stroke-opacity: 1;" />
<path d="m 18.500001,5.5 3.5,3.500001 -4,3.999999" style="fill: none; stroke: #000000; stroke-width: 1px; stroke-linecap: round; stroke-linejoin: round; stroke-opacity: 1;" />
</svg>