<svg width="26" height="26" viewBox="0 0 26 26" xmlns="http://www.w3.org/2000/svg">
<path d="M 5.5,5 A 0.50005,0.50005 0 0 0 5,5.5 v 15 A 0.50005,0.50005 0 0 0 5.5,21 H 16 V 16.5 A 0.50005,0.50005 0 0 1 16.5,16 H 21 V 5.5 A 0.50005,0.50005 0 0 0 20.5,5 Z m 7,4 h 1 C 13.777,9 14,9.223 14,9.5 V 12 h 2.5 c 0.277,0 0.5,0.223 0.5,0.5 v 1 C 17,13.777 16.777,14 16.5,14 H 14 v 2.5 c 0,0.277 -0.223,0.5 -0.5,0.5 h -1 C 12.223,17 12,16.777 12,16.5 V 14 H 9.5 C 9.223,14 9,13.777 9,13.5 v -1 C 9,12.223 9.223,12 9.5,12 H 12 V 9.5 C 12,9.223 12.223,9 12.5,9 Z m 4.5,8 v 3.707031 L 20.70703,17 Z" style="opacity: 1; fill: #000000; fill-opacity: 1; stroke: none; stroke-width: 1; stroke-linecap: round; stroke-linejoin: round; stroke-miterlimit: 4; stroke-dasharray: none; stroke-dashoffset: 0; stroke-opacity: 1;" />
</svg>