<svg width="26" height="26" viewBox="0 0 26 26" xmlns="http://www.w3.org/2000/svg">
<path d="m 10.87891,9.67188 c -0.12781,0 -0.25559,0.0485 -0.35352,0.14648 l -0.7070296,0.70703 c -0.19587,0.19587 -0.19587,0.51116 0,0.70703 L 11.58594,13 9.8183604,14.76758 c -0.19587,0.19587 -0.19587,0.51117 0,0.70703 l 0.7070296,0.70703 c 0.19586,0.19587 0.51116,0.19587 0.70703,0 L 13,14.41406 l 1.26758,1.26758 c 0.19587,0.19587 0.51117,0.19587 0.70703,0 l 0.70703,-0.70703 c 0.19587,-0.19586 0.19587,-0.51116 0,-0.70703 L 14.41406,13 16.18164,11.23242 c 0.19587,-0.19587 0.19587,-0.51117 0,-0.70703 L 15.47461,9.81836 c -0.19587,-0.19587 -0.51116,-0.19587 -0.70703,0 L 13,11.58594 11.23242,9.81836 C 11.13452,9.72046 11.00671,9.67187 10.87891,9.67188 Z" style="opacity: 1; fill: #000000; fill-opacity: 1; stroke: none; stroke-width: 2.00000024; stroke-linecap: butt; stroke-linejoin: miter; stroke-miterlimit: 4; stroke-dasharray: none; stroke-dashoffset: 0; stroke-opacity: 1;" />
<path d="m 20.5,16.5 h -4 v 4 M 5.5,5.5000001 h 15 V 16.5 l -4,4 h -11 z" style="fill: none; stroke: #000000; stroke-width: 1px; stroke-linecap: butt; stroke-linejoin: round; stroke-opacity: 1;" />
</svg>