<svg width="26" height="26" viewBox="0 0 26 26" xmlns="http://www.w3.org/2000/svg">
<path d="m 15.64258,9.7460896 c -0.13279,-0.004 -0.26181,0.0438 -0.33985,0.15821 L 12.08594,13.62305 10.69727,12.23438 c -0.19587,-0.19585 -0.51117,-0.19587 -0.70704,0 L 9.2832,12.94141 c -0.19587,0.19586 -0.19587,0.51116 0,0.70703 l 2.44922,2.44922 c 0.19587,0.19586 0.51116,0.19586 0.70703,0 l 4.27735,-4.77735 c 0.19587,-0.19587 0.19587,-0.51116 0,-0.70703 L 16.00977,9.9042996 c -0.0979,-0.0979 -0.23441,-0.15421 -0.36719,-0.15821 z" style="opacity: 1; fill: #000000; fill-opacity: 1; stroke: none; stroke-width: 1px; stroke-linecap: butt; stroke-linejoin: round; stroke-miterlimit: 4; stroke-dasharray: none; stroke-dashoffset: 0; stroke-opacity: 1;" />
<path d="m 20.5,16.5 h -4 v 4 M 5.5,5.4999996 h 15 V 16.5 l -4,4 h -11 z" style="fill: none; stroke: #000000; stroke-width: 1px; stroke-linecap: butt; stroke-linejoin: round; stroke-opacity: 1;" />
</svg>