<svg width="26" height="26" viewBox="0 0 26 26" xmlns="http://www.w3.org/2000/svg">
<path d="M 11.5 6 C 11.223 6 10.96564 6.225139 11 6.5 L 12 14.5 C 12.034358 14.774861 12.223 15 12.5 15 L 13.5 15 C 13.777 15 13.96564 14.774861 14 14.5 L 15 6.5 C 15.034358 6.225139 14.777 6 14.5 6 L 11.5 6 z M 13 16 A 2 2 0 0 0 11 18 A 2 2 0 0 0 13 20 A 2 2 0 0 0 15 18 A 2 2 0 0 0 13 16 z " style="opacity: 1; fill: #000000; fill-opacity: 1; stroke: none; stroke-width: 2; stroke-linecap: butt; stroke-linejoin: round; stroke-miterlimit: 4; stroke-dasharray: none; stroke-dashoffset: 0; stroke-opacity: 0.55357139;" />
<path d="m 7.699219,12.699219 c 0.68414,-0.684791 1.487029,-1.223682 2.360315,-1.596611 m 5.880932,-1.3e-5 c 0.873286,0.372934 1.676175,0.911833 2.360315,1.596624 m 2.119141,-2.119141 C 19.262155,9.4208433 17.861346,8.5601185 16.337105,8.0475545 m -6.67421,-1e-6 C 8.138654,8.5601176 6.737845,9.4208432 5.580078,10.580078 m 10.59961,4.240235 C 15.990727,14.63108 15.786656,14.460402 15.570305,14.309456 m -5.14061,-2e-6 c -0.216351,0.150947 -0.420422,0.321625 -0.609383,0.510859" style="opacity: 1; fill: none; fill-opacity: 1; stroke: #000000; stroke-width: 1; stroke-linecap: round; stroke-linejoin: round; stroke-miterlimit: 4; stroke-dasharray: none; stroke-dashoffset: 0; stroke-opacity: 1;" />
</svg>