<svg width="26" height="26" viewBox="0 0 26 26" xmlns="http://www.w3.org/2000/svg">
<path d="m 23.5,5.5 -2,2.0000005 M 22.5,3.5 20,6.0000005 M 20.5,2.5 l -2,2" style="fill: none; stroke: #000000; stroke-width: 1px; stroke-linecap: round; stroke-linejoin: round; stroke-opacity: 1;" />
<path d="m 16.5,4.5 -4.35352,4.3535165 5,4.9999995 L 21.5,9.5000005 Z m 0.5,1.5000005 -2,3 2,-1 L 16,10 19,8.0000005 17,11 19,10 17.70703,13 13.0332,8.3261725 Z m -5.5,3.5 L 10.5,10.5 C 11,11 11,13.5 10.5,14 10,14.5 6,16 6,20 c 4,0 5.5,-4 6,-4.5 0.5,-0.5 3,-0.5 3.5,0 l 1,-1 z M 8.5,16.5 c 0.55228,0 1,0.447715 1,1 0,0.552285 -0.44772,1 -1,1 -0.55228,0 -1,-0.447715 -1,-1 0,-0.552285 0.44772,-1 1,-1 z" style="fill: #000000; fill-opacity: 1; stroke: none; stroke-width: 1px; stroke-linecap: butt; stroke-linejoin: miter; stroke-opacity: 1;" />
</svg>