<svg width="26" height="26" viewBox="0 0 26 26" xmlns="http://www.w3.org/2000/svg">
<path d="m 16.5,4.5 -4.35352,4.353516 2.67188,2.671875 0.70703,-0.707032 L 13.0332,8.326172 17,6 15,9 17,8 16,10 19,8 17.56641,10.152344 17.94336,10.529297 19,10 18.52148,11.107422 19.20703,11.792969 21.5,9.5 Z m -5,5 -1,1 C 11,11 11,13.5 10.5,14 10,14.5 6,16 6,20 c 4,0 5.5,-4 6,-4.5 0.44091,-0.440914 2.4337,-0.492956 3.24219,-0.15625 L 15.58594,15 13.81836,13.232422 c -0.1703,-0.218468 -0.19587,-0.511161 0,-0.707031 l 0.35351,-0.353516 z m 5.37891,2.171875 c -0.12781,0 -0.25559,0.04855 -0.35352,0.146484 l -0.70703,0.707032 c -0.19587,0.19587 -0.19587,0.511161 0,0.707031 L 17.58594,15 15.81836,16.767578 c -0.19587,0.19587 -0.19587,0.511171 0,0.707031 l 0.70703,0.707032 c 0.19586,0.19587 0.51116,0.19587 0.70703,0 L 19,16.414062 l 1.76758,1.767579 c 0.19587,0.19587 0.51117,0.19587 0.70703,0 l 0.70703,-0.707032 c 0.19587,-0.19586 0.19587,-0.511161 0,-0.707031 L 20.41406,15 22.18164,13.232422 c 0.19587,-0.19587 0.19587,-0.511171 0,-0.707031 l -0.70703,-0.707032 c -0.19587,-0.19587 -0.51116,-0.19587 -0.70703,0 L 19,13.585938 17.23242,11.818359 c -0.0979,-0.09793 -0.22571,-0.146484 -0.35351,-0.146484 z M 8.5,16.5 c 0.55228,0 1,0.447715 1,1 0,0.552285 -0.44772,1 -1,1 -0.55228,0 -1,-0.447715 -1,-1 0,-0.552285 0.44772,-1 1,-1 z" style="fill: #000000; fill-opacity: 1; stroke: none; stroke-width: 1px; stroke-linecap: butt; stroke-linejoin: miter; stroke-opacity: 1;" />
</svg>