<svg width="26" height="26" viewBox="0 0 26 26" xmlns="http://www.w3.org/2000/svg">
<path d="m 16.5,4.5 -4.35352,4.3535159 5,5.0000001 L 21.5,9.4999999 Z M 17,6 l -2,2.9999999 2,-1 -1,2 3,-2 L 17,11 19,9.9999999 17.70703,13 13.0332,8.3261719 Z M 11.5,9.4999999 10.5,10.5 C 11,11 11,13.5 10.5,14 10,14.5 6,16 6,20 c 4,0 5.5,-4 6,-4.5 0.5,-0.5 3,-0.5 3.5,0 l 1,-1 z M 8.5,16.5 c 0.55228,0 1,0.447715 1,1 0,0.552285 -0.44772,1 -1,1 -0.55228,0 -1,-0.447715 -1,-1 0,-0.552285 0.44772,-1 1,-1 z" style="fill: #000000; fill-opacity: 1; stroke: none; stroke-width: 1px; stroke-linecap: butt; stroke-linejoin: miter; stroke-opacity: 1;" />
</svg>