<svg width="26" height="26" viewBox="0 0 26 26" xmlns="http://www.w3.org/2000/svg">
<path d="M 16.49995,4.5 12.14643,8.853516 14.2812,10.988281 15.26167,10.554688 13.03315,8.326172 16.99995,6 l -2,3 2,-1 -1,2 3,-2 -0.85547,1.285156 2.17969,-0.960937 z m -5,5 -1,1 c 0.27751,0.277506 0.39577,1.168341 0.36523,1.994141 l 2.51758,-1.111329 z m 7.16992,2.830078 -0.83203,0.367188 L 17.70698,13 l -0.16992,-0.169922 -0.98242,0.431641 0.59179,0.591797 z m -3.01172,1.328125 -6.71289,2.958985 C 9.27024,16.782307 9.49995,17.11052 9.49995,17.5 c 0,0.552285 -0.44772,1 -1,1 -0.55228,0 -1,-0.447715 -1,-1 0,-0.09578 0.0296,-0.181829 0.0547,-0.269531 l -1.0332,0.455078 C 6.20644,18.34581 5.99995,19.107451 5.99995,20 c 4,0 5.5,-4 6,-4.5 0.5,-0.5 3,-0.5 3.5,0 l 1,-1 z" style="fill: #000000; fill-opacity: 1; stroke: none; stroke-width: 1px; stroke-linecap: butt; stroke-linejoin: miter; stroke-opacity: 1;" />
<path d="M 22.4949,9.00505 5.505,16.494948" style="fill: none; stroke: #000000; stroke-width: 1px; stroke-linecap: round; stroke-linejoin: miter; stroke-opacity: 1;" />
</svg>