<svg width="26" height="26" viewBox="0 0 26 26" xmlns="http://www.w3.org/2000/svg">
<path d="m 16.87891,3.6714185 c -0.12781,0 -0.25559,0.04855 -0.35352,0.146484 l -0.70703,0.707032 c -0.19587,0.19587 -0.19587,0.511161 0,0.707031 l 1.76758,1.767578 -1.76758,1.767578 c -0.19587,0.19587 -0.19587,0.511171 0,0.707031 l 0.70703,0.7070325 c 0.19586,0.19587 0.51116,0.19587 0.70703,0 L 19,8.4136065 20.76758,10.181184 c 0.19587,0.19587 0.51117,0.19587 0.70703,0 l 0.70703,-0.7070315 c 0.19587,-0.19586 0.19587,-0.511161 0,-0.707031 l -1.76758,-1.767578 1.76758,-1.767578 c 0.19587,-0.19587 0.19587,-0.511171 0,-0.707031 l -0.70703,-0.707032 c -0.19587,-0.19587 -0.51116,-0.19587 -0.70703,0 L 19,5.5854815 17.23242,3.8179025 c -0.0979,-0.09793 -0.22571,-0.146484 -0.35351,-0.146484 z m -3.31446,0.828125 c -0.25555,0 -0.51121,0.09716 -0.70703,0.292969 l -2.06445,2.064453 c -0.39163,0.391612 -0.39163,1.022451 0,1.414062 l 6.93555,6.9355455 c 0.39163,0.391613 1.02243,0.391613 1.41406,0 l 2.06445,-2.064451 c 0.39163,-0.391612 0.39163,-1.022451 0,-1.414062 l -0.46094,-0.460938 c -0.2527,-0.06338 -0.4921,-0.185466 -0.68554,-0.378907 L 19,9.8276685 17.93945,10.888215 c -0.57537,0.575374 -1.54572,0.575403 -2.12109,0 l -0.70703,-0.707031 c -0.5754,-0.5753745 -0.57538,-1.5457195 0,-2.1210935 l 1.06054,-1.060547 -1.06054,-1.060547 C 14.91789,5.7455615 14.79579,5.5061595 14.73242,5.2534495 L 14.27148,4.7925125 C 14.07567,4.5967065 13.82,4.4995435 13.56445,4.4995435 Z" style="opacity: 1; fill: #000000; fill-opacity: 1; stroke: none; stroke-width: 1px; stroke-linecap: round; stroke-linejoin: miter; stroke-miterlimit: 4; stroke-dasharray: none; stroke-dashoffset: 0; stroke-opacity: 1;" />
<path d="m 11.5,5.4995435 2.5,2.5 m 5,5.0000005 2.5,2.5 -3,3 c -1,1 -6.5,-4.5 -7.5,-3.5 l -1,1" style="fill: none; stroke: #000000; stroke-width: 1px; stroke-linecap: round; stroke-linejoin: round; stroke-opacity: 1;" />
<path d="m 5.5,20.499544 4,-4" style="fill: none; stroke: #000000; stroke-width: 2.5; stroke-linecap: round; stroke-linejoin: miter; stroke-miterlimit: 4; stroke-dasharray: none; stroke-opacity: 1;" />
</svg>