<svg width="26" height="26" viewBox="0 0 26 26" xmlns="http://www.w3.org/2000/svg">
<path d="m 13.564763,4.5 c -0.25555,0 -0.51121,0.09716 -0.70703,0.292969 l -0.67773,0.679687 -0.32617,-0.326172 a 0.50005,0.50005 0 0 0 -0.35938,-0.152343 0.50005,0.50005 0 0 0 -0.34766,0.859375 l 0.32618,0.326172 -0.67969,0.677734 c -0.39163,0.391612 -0.39163,1.022451 0,1.414062 l 3.90625,3.908204 3.48047,-3.480469 -3.90821,-3.90625 C 14.075983,4.597163 13.820313,4.5 13.564763,4.5 Z m 6.73633,6.320312 -3.48047,3.480469 0.90821,0.90625 c 0.39163,0.391612 1.02243,0.391612 1.41406,0 l 0.67773,-0.679687 0.97266,0.972656 -2.625,2.626953 h -0.002 c -0.0122,-7.01e-4 -0.0489,-0.0021 -0.13086,-0.01953 -0.16635,-0.03537 -0.43777,-0.146402 -0.75195,-0.314453 -0.62837,-0.336103 -1.43555,-0.890625 -2.24805,-1.453125 -0.0507,-0.03507 -0.0997,-0.06844 -0.15039,-0.103516 l -0.7207,0.720703 c 0.10169,0.07009 0.19857,0.132366 0.30078,0.203125 0.8125,0.5625 1.63032,1.132978 2.3457,1.515625 0.35769,0.191324 0.68784,0.338101 1.01758,0.408203 0.32974,0.0701 0.73834,0.05658 1.02539,-0.230468 l 3,-3 a 0.50005,0.50005 0 0 0 0,-0.707032 l -1.32617,-1.326172 0.67968,-0.677734 c 0.39164,-0.391612 0.39164,-1.022451 0,-1.414062 z m -8.88867,3.5625 c -0.26748,-0.01231 -0.55034,0.04839 -0.76563,0.263672 l -0.6777297,0.677735 a 1.250125,1.250125 0 0 0 -0.002,-0.002 1.250125,1.250125 0 0 0 -0.49219,-0.08399 1.250125,1.250125 0 0 0 -0.85937,0.376953 l -4.0000002,4 a 1.2512478,1.2512478 0 0 0 0.60156,2.103568 1.50015,1.50015 0 0 1 0.2285101,-0.285156 l 5.2734398,-5.273438 a 1.250125,1.250125 0 0 0 -0.043,-0.130859 l 0.65625,-0.65625 h 0.002 c 0.0122,7.02e-4 0.0489,0.0021 0.13086,0.01953 0.004,8.73e-4 0.0114,0.0049 0.0156,0.0059 l 0.78125,-0.78125 c -0.19965,-0.08769 -0.39599,-0.15996 -0.58984,-0.201172 -0.0824,-0.01753 -0.17061,-0.0291 -0.25977,-0.0332 z" style="opacity: 1; fill: #000000; fill-opacity: 1; stroke: none; stroke-width: 1px; stroke-linecap: round; stroke-linejoin: miter; stroke-miterlimit: 4; stroke-dasharray: none; stroke-dashoffset: 0; stroke-opacity: 1;" />
<path d="M 6.5053632,22.49495 22.495263,6.505049" style="fill: none; stroke: #000000; stroke-width: 1px; stroke-linecap: round; stroke-linejoin: miter; stroke-opacity: 1;" />
</svg>