<svg width="26" height="26" viewBox="0 0 26 26" xmlns="http://www.w3.org/2000/svg">
<path d="M 12 6 C 7 6 3.5 9.5 3.5 13 C 3.5 16.5 8 16 8.5 16.5 C 9.7747548 17.774755 8 21.5 14 21.5 C 18.5 21.5 22 18 22 14 C 22 10 17 6 12 6 z M 10 8.5 A 1.5 1.5 0 0 1 11.5 10 A 1.5 1.5 0 0 1 10 11.5 A 1.5 1.5 0 0 1 8.5 10 A 1.5 1.5 0 0 1 10 8.5 z M 14 8.5 A 1.5 1.5 0 0 1 15.5 10 A 1.5 1.5 0 0 1 14 11.5 A 1.5 1.5 0 0 1 12.5 10 A 1.5 1.5 0 0 1 14 8.5 z M 18 10.5 A 1.5 1.5 0 0 1 19.5 12 A 1.5 1.5 0 0 1 18 13.5 A 1.5 1.5 0 0 1 16.5 12 A 1.5 1.5 0 0 1 18 10.5 z M 7 11.5 A 1.5 1.5 0 0 1 8.5 13 A 1.5 1.5 0 0 1 7 14.5 A 1.5 1.5 0 0 1 5.5 13 A 1.5 1.5 0 0 1 7 11.5 z M 13 16 A 2 2 0 0 1 15 18 A 2 2 0 0 1 13 20 A 2 2 0 0 1 11 18 A 2 2 0 0 1 13 16 z " style="opacity: 1; fill: #000000; fill-opacity: 1; stroke: none; stroke-width: 1px; stroke-linecap: butt; stroke-linejoin: miter; stroke-opacity: 1;" />
</svg>