<svg width="26" height="26" viewBox="0 0 26 26" xmlns="http://www.w3.org/2000/svg">
<path d="m 24.017578,5.5 c -0.04943,-0.00142 -0.09879,0.00451 -0.146484,0.017578 l -20.5,5.5 c -0.406896,0.109589 -0.504103,0.642473 -0.16211,0.888672 l 3.5,2.5 c 0.147081,0.105742 0.339847,0.123676 0.503907,0.04687 l 15.769531,-7.875 -14.746094,8.496094 c -0.158674,0.09823 -0.230105,0.266425 -0.226562,0.435547 L 8,15.5 8,19.75 c -0.0011,0.430693 0.50651,0.661208 0.830078,0.376953 l 1.914063,-1.675781 1.902343,1.902344 c 0.212,0.211392 0.560988,0.190378 0.746094,-0.04492 l 11,-14.0000002 C 24.645086,5.9871055 24.426103,5.514921 24.017578,5.5 Z" style="opacity: 1; fill: #000000; fill-opacity: 1; stroke: none; stroke-width: 1px; stroke-linecap: round; stroke-linejoin: round; stroke-miterlimit: 4; stroke-dasharray: none; stroke-dashoffset: 0; stroke-opacity: 1;" />
</svg>