<svg width="26" height="26" viewBox="0 0 26 26" xmlns="http://www.w3.org/2000/svg">
<path d="m 19.849609,12.857422 c 0.36808,-0.353441 0.05202,-0.851706 -0.328125,-0.871094 -0.126716,-0.0065 -0.261092,0.04137 -0.378906,0.164063 l -8.021484,7.970703 C 10.340481,20.901707 9.196248,21.189664 8.138672,20.873047 7.081096,20.556429 6.285739,19.688569 6.0625,18.607422 5.839261,17.526275 6.226588,16.41078 7.072266,15.701172 L 16.714844,5.96875 c 0.82411,-0.6915107 2.032966,-0.6134753 2.759765,0.1796875 0.7268,0.7931628 0.70017,2.0049197 -0.06055,2.765625 l -8.207031,8.2929685 c -0.260637,0.260637 -0.641029,0.355715 -0.99414,0.25 -0.353112,-0.105714 -0.61687,-0.392924 -0.691407,-0.753906 -0.07454,-0.360982 0.05358,-0.731821 0.335938,-0.96875 l 4.992187,-4.876953 c 0.36808,-0.353441 0.05202,-0.851706 -0.328125,-0.8710939 -0.126716,-0.00646 -0.261092,0.041369 -0.378906,0.1640629 L 9.214841,14.96875 c -0.562613,0.472088 -0.822345,1.216281 -0.673828,1.935547 0.148516,0.719266 0.68118,1.301079 1.384765,1.511719 0.703585,0.210639 1.468955,0.01737 1.988281,-0.501954 L 20.121094,9.6210938 C 21.253037,8.4891536 21.292428,6.6528933 20.210938,5.4726562 19.670198,4.8825379 18.94189,4.5586989 18.195312,4.5097656 17.448736,4.4608326 16.685409,4.6866832 16.072266,5.2011719 L 6.429688,14.935547 c -1.125929,0.944766 -1.644875,2.433616 -1.347657,3.873047 0.297219,1.439431 1.363436,2.601895 2.771485,3.023437 1.408049,0.421542 2.935306,0.0354 3.974609,-1.003906 z" style="opacity: 1; fill: #000000; fill-opacity: 1; stroke: none; stroke-width: 0.99999994; stroke-linecap: round; stroke-linejoin: round; stroke-miterlimit: 4; stroke-dasharray: none; stroke-dashoffset: 0; stroke-opacity: 1;" />
</svg>