<svg width="26" height="26" viewBox="0 0 26 26" xmlns="http://www.w3.org/2000/svg">
<path d="M 5.5,3 C 5.223,3 5,3.223 5,3.5 l 0,19 C 5,22.777 5.223,23 5.5,23 l 5,0 c 0.277,0 0.5,-0.223 0.5,-0.5 l 0,-19 C 11,3.223 10.777,3 10.5,3 Z m 10,0 C 15.223,3 15,3.223 15,3.5 l 0,19 c 0,0.277 0.223,0.5 0.5,0.5 l 5,0 c 0.277,0 0.5,-0.223 0.5,-0.5 l 0,-19 C 21,3.223 20.777,3 20.5,3 Z" style="opacity: 1; fill: #000000; fill-opacity: 1; stroke: none; stroke-width: 1; stroke-linecap: round; stroke-linejoin: round; stroke-miterlimit: 4; stroke-dasharray: none; stroke-dashoffset: 0; stroke-opacity: 1;" />
</svg>