<svg width="26" height="26" viewBox="0 0 26 26" xmlns="http://www.w3.org/2000/svg">
<path d="m 18,4 -4.5,5.5 3,3 L 22,8 Z m -5,7 c -1.953601,1.953601 -5,1.5 -5,1.5 l -3,8 4.0898438,-4.089844 C 9.0312071,16.281336 9.0005843,16.141536 9,16 c 0,-0.552285 0.4477153,-1 1,-1 0.552285,0 1,0.447715 1,1 0,0.552285 -0.447715,1 -1,1 C 9.858464,16.999417 9.7186641,16.9688 9.5898438,16.91016 L 5.5,21 l 8,-3 c 0,0 -0.453601,-3.046399 1.5,-5 z" style="opacity: 1; fill: #000000; fill-opacity: 1; stroke: none; stroke-width: 1px; stroke-linecap: butt; stroke-linejoin: miter; stroke-opacity: 1;" />
</svg>