<svg width="26" height="26" viewBox="0 0 26 26" xmlns="http://www.w3.org/2000/svg">
<path d="M 17.492188 5 C 17.3623 5.00207 17.238317 5.054606 17.146484 5.1464844 L 12.646484 9.6464844 C 12.4513 9.8417494 12.4513 10.158251 12.646484 10.353516 L 16.646484 14.353516 C 16.841749 14.548701 17.158251 14.548701 17.353516 14.353516 L 21.853516 9.8535156 C 22.0487 9.6582507 22.0487 9.3417493 21.853516 9.1464844 L 17.853516 5.1464844 C 17.757854 5.0507785 17.627489 4.9979278 17.492188 5 z M 11.992188 10.5 C 11.779784 10.5032 11.592595 10.640279 11.525391 10.841797 L 10.525391 13.841797 C 10.465571 14.021537 10.512451 14.219649 10.646484 14.353516 L 12.646484 16.353516 C 12.780351 16.487549 12.978463 16.53443 13.158203 16.474609 L 16.158203 15.474609 C 16.510942 15.35703 16.616541 14.909291 16.353516 14.646484 L 12.353516 10.646484 C 12.257854 10.550778 12.127488 10.497928 11.992188 10.5 z M 9.9921875 14.5 C 9.8623007 14.5021 9.7383175 14.55461 9.6464844 14.646484 L 8.1464844 16.146484 C 7.9512997 16.341749 7.9512997 16.658251 8.1464844 16.853516 L 8.2929688 17 L 7.1464844 18.146484 C 6.9512997 18.341749 6.9512997 18.658251 7.1464844 18.853516 L 8.1464844 19.853516 C 8.3417493 20.0487 8.6582507 20.0487 8.8535156 19.853516 L 10 18.707031 L 10.146484 18.853516 C 10.341749 19.048701 10.658251 19.048701 10.853516 18.853516 L 12.353516 17.353516 C 12.548701 17.158251 12.548701 16.841749 12.353516 16.646484 L 10.353516 14.646484 C 10.257854 14.550778 10.127489 14.497928 9.9921875 14.5 z M 6.9902344 19.496094 A 0.50005 0.50005 0 0 0 6.6464844 19.646484 L 5.1464844 21.146484 A 0.50005 0.50005 0 1 0 5.8535156 21.853516 L 7.3535156 20.353516 A 0.50005 0.50005 0 0 0 6.9902344 19.496094 z " style="opacity: 1; fill: #000000; fill-opacity: 1; stroke: none; stroke-width: 1px; stroke-linecap: round; stroke-linejoin: miter; stroke-miterlimit: 4; stroke-dasharray: none; stroke-dashoffset: 0; stroke-opacity: 1;" />
</svg>