<svg width="26" height="26" viewBox="0 0 26 26" xmlns="http://www.w3.org/2000/svg">
<path d="M 17.492188 5 A 0.50005 0.50005 0 0 0 17.193359 5.1054688 L 12.693359 8.6054688 A 0.50005 0.50005 0 0 0 12.646484 9.3535156 L 17.646484 14.353516 A 0.50005 0.50005 0 0 0 18.394531 14.306641 L 21.894531 9.8066406 A 0.50005 0.50005 0 0 0 21.853516 9.1464844 L 17.853516 5.1464844 A 0.50005 0.50005 0 0 0 17.492188 5 z M 11.992188 9.5 A 0.50005 0.50005 0 0 0 11.646484 9.6464844 L 10.146484 11.146484 A 0.50005 0.50005 0 0 0 10.009766 11.597656 C 10.009766 11.597656 10.118004 12.111154 9.9472656 12.964844 C 9.7765277 13.818533 9.3257737 14.967195 8.1464844 16.146484 A 0.50005 0.50005 0 0 0 8.1464844 16.853516 L 10.146484 18.853516 A 0.50005 0.50005 0 0 0 10.853516 18.853516 C 12.032805 17.674226 13.181467 17.223472 14.035156 17.052734 C 14.888846 16.881996 15.402344 16.990234 15.402344 16.990234 A 0.50005 0.50005 0 0 0 15.853516 16.853516 L 17.353516 15.353516 A 0.50005 0.50005 0 0 0 17.353516 14.646484 L 12.353516 9.6464844 A 0.50005 0.50005 0 0 0 11.992188 9.5 z M 7.4921875 17 A 0.50005 0.50005 0 0 0 7.1464844 17.146484 L 5.1464844 19.146484 A 0.50005 0.50005 0 0 0 5.1464844 19.853516 L 5.6464844 20.353516 A 0.50005 0.50005 0 0 0 5.9023438 20.490234 L 8.4023438 20.990234 A 0.50005 0.50005 0 0 0 8.8535156 20.853516 L 9.8535156 19.853516 A 0.50005 0.50005 0 0 0 9.8535156 19.146484 L 7.8535156 17.146484 A 0.50005 0.50005 0 0 0 7.4921875 17 z " style="opacity: 1; fill: #000000; fill-opacity: 1; stroke: none; stroke-width: 1px; stroke-linecap: butt; stroke-linejoin: round; stroke-miterlimit: 4; stroke-dasharray: none; stroke-dashoffset: 0; stroke-opacity: 1;" />
</svg>