<svg width="26" height="26" viewBox="0 0 26 26" xmlns="http://www.w3.org/2000/svg">
<path d="M 8.4609375,13.707031 C 7.5375818,13.370845 6.6621314,12.766805 6,12 4.0961306,12.779734 3,14 2.5,17.5 H 5.4902344 M 12.435547,3.7734375 C 11.783268,2.9581315 10.909716,2.5013907 10,2.5 8.0670034,2.5 6.5,4.5147186 6.5,7 6.50113,8.777816 7.3162345,10.38813 8.5800781,11.109375 M 20.779941,17.661318 C 20.165674,16.225701 19.258845,15.516649 18,15 c -1.0274,1.188793 -2.562159,1.999367 -4,2 -1.436722,-0.0024 -2.973832,-0.811609 -4,-2 -1.9038694,0.779734 -3,2 -3.5,5.5 h 8 m 3,-10.5 c 0,2.485281 -1.567003,4.5 -3.5,4.5 -1.932997,0 -3.5,-2.014719 -3.5,-4.5 0,-2.4852814 1.567003,-4.5 3.5,-4.5 1.932997,0 3.5,2.0147186 3.5,4.5 z" style="opacity: 1; fill: none; fill-opacity: 1; stroke: #000000; stroke-width: 1; stroke-linecap: round; stroke-linejoin: round; stroke-miterlimit: 4; stroke-dasharray: none; stroke-dashoffset: 0; stroke-opacity: 1;" />
<path d="m 23.5,19 c 0.277,0 0.5,0.223 0.5,0.5 v 1 c 0,0.277 -0.223,0.5 -0.5,0.5 h -7 C 16.223,21 16,20.777 16,20.5 v -1 C 16,19.223 16.223,19 16.5,19 Z" style="opacity: 1; fill: #000000; fill-opacity: 1; stroke: none; stroke-width: 2; stroke-linecap: round; stroke-linejoin: round; stroke-miterlimit: 4; stroke-dasharray: none; stroke-dashoffset: 0; stroke-opacity: 1;" />
</svg>