<svg width="26" height="26" viewBox="0 0 26 26" xmlns="http://www.w3.org/2000/svg">
<path d="M 8.4609375,13.707031 C 7.5375818,13.370845 6.6621314,12.766805 6,12 4.0961306,12.779734 3,14 2.5,17.5 H 5.4902344 M 12.435547,3.7734375 C 11.783268,2.9581315 10.909716,2.5013907 10,2.5 8.0670034,2.5 6.5,4.5147186 6.5,7 c 0.00113,1.777816 0.8162345,3.38813 2.0800781,4.109375 m 11.0142549,4.84293 C 19.141658,15.548304 18.612496,15.251378 18,15 m -4,2 c -1.436722,-0.0024 -2.973832,-0.811609 -4,-2 -1.9038694,0.779734 -3,2 -3.5,5.5 h 7 m 4,-10.5 c 0,2.485281 -1.567003,4.5 -3.5,4.5 -1.932997,0 -3.5,-2.014719 -3.5,-4.5 0,-2.4852814 1.567003,-4.5 3.5,-4.5 1.932997,0 3.5,2.0147186 3.5,4.5 z" style="opacity: 1; fill: none; fill-opacity: 1; stroke: #000000; stroke-width: 1; stroke-linecap: round; stroke-linejoin: round; stroke-miterlimit: 4; stroke-dasharray: none; stroke-dashoffset: 0; stroke-opacity: 1;" />
<path d="m 17.882353,16.999999 c -1.315738,0 -2.382353,1.040557 -2.382353,2.324148 0,0.641796 0.266833,1.222658 0.697955,1.643246 L 20,24.500018 23.802045,20.967393 C 24.233165,20.546805 24.5,19.965943 24.5,19.324147 c 0,-1.283591 -1.066616,-2.324148 -2.382353,-2.324148 -0.928725,0 -1.724665,0.523686 -2.117647,1.280097 -0.392982,-0.756411 -1.188923,-1.280097 -2.117647,-1.280097 z" style="opacity: 1; fill: none; fill-opacity: 1; stroke: #000000; stroke-width: 1; stroke-linecap: round; stroke-linejoin: round; stroke-miterlimit: 4; stroke-dasharray: none; stroke-dashoffset: 0; stroke-opacity: 1;" />
</svg>