<svg width="26" height="26" viewBox="0 0 26 26" xmlns="http://www.w3.org/2000/svg">
<path d="M 8.4609375,13.707031 C 7.5375818,13.370845 6.6621314,12.766805 6,12 4.0961306,12.779734 3,14 2.5,17.5 H 5.4902344 M 12.435547,3.7734375 C 11.783268,2.9581315 10.909716,2.5013907 10,2.5 8.0670034,2.5 6.5,4.5147186 6.5,7 c 0.00113,1.777816 0.8162345,3.38813 2.0800781,4.109375 m 9.9668649,4.139952 C 18.372535,15.160592 18.190289,15.078098 18,15 c -1.0274,1.188793 -2.562159,1.999367 -4,2 -1.436722,-0.0024 -2.973832,-0.811609 -4,-2 -1.9038694,0.779734 -3,2 -3.5,5.5 h 8 m 3,-10.5 c 0,2.485281 -1.567003,4.5 -3.5,4.5 -1.932997,0 -3.5,-2.014719 -3.5,-4.5 0,-2.4852814 1.567003,-4.5 3.5,-4.5 1.932997,0 3.5,2.0147186 3.5,4.5 z" style="opacity: 1; fill: none; fill-opacity: 1; stroke: #000000; stroke-width: 1; stroke-linecap: round; stroke-linejoin: round; stroke-miterlimit: 4; stroke-dasharray: none; stroke-dashoffset: 0; stroke-opacity: 1;" />
<path d="m 19.5,16 h 1 c 0.277,0 0.5,0.223 0.5,0.5 V 19 h 2.5 c 0.277,0 0.5,0.223 0.5,0.5 v 1 C 24,20.777 23.777,21 23.5,21 H 21 v 2.5 c 0,0.277 -0.223,0.5 -0.5,0.5 h -1 C 19.223,24 19,23.777 19,23.5 V 21 H 16.5 C 16.223,21 16,20.777 16,20.5 v -1 C 16,19.223 16.223,19 16.5,19 H 19 V 16.5 C 19,16.223 19.223,16 19.5,16 Z" style="opacity: 1; fill: #000000; fill-opacity: 1; stroke: none; stroke-width: 2; stroke-linecap: round; stroke-linejoin: round; stroke-miterlimit: 4; stroke-dasharray: none; stroke-dashoffset: 0; stroke-opacity: 1;" />
</svg>