<svg width="26" height="26" viewBox="0 0 26 26" xmlns="http://www.w3.org/2000/svg">
<path d="M 9.4609375,15.707031 C 8.5375818,15.370845 7.6621314,14.766805 7,14 5.0961306,14.779734 4,16 3.5,19.5 l 2.9902344,0 M 13.435547,5.7734375 C 12.783268,4.9581315 11.909716,4.5013907 11,4.5 9.0670034,4.5 7.5,6.5147186 7.5,9 c 0.00113,1.777816 0.8162345,3.38813 2.0800781,4.109375 M 11,17 c -1.9038694,0.779734 -3,2 -3.5,5.5 l 15,0 C 22,19 20.901652,17.780467 19,17 c -1.0274,1.188793 -2.562159,1.999367 -4,2 -1.436722,-0.0024 -2.973832,-0.811609 -4,-2 z m 7.5,-5 A 3.5,4.5 0 0 1 15,16.5 3.5,4.5 0 0 1 11.5,12 3.5,4.5 0 0 1 15,7.5 3.5,4.5 0 0 1 18.5,12 Z" style="opacity: 1; fill: none; fill-opacity: 1; stroke: #000000; stroke-width: 1; stroke-linecap: round; stroke-linejoin: round; stroke-miterlimit: 4; stroke-dasharray: none; stroke-dashoffset: 0; stroke-opacity: 1;" />
</svg>