<svg width="26" height="26" viewBox="0 0 26 26" xmlns="http://www.w3.org/2000/svg">
<path d="M 8.4609375,13.707031 C 7.5375818,13.370845 6.6621314,12.766805 6,12 4.0961306,12.779734 3,14 2.5,17.5 H 5.4902344 M 12.435547,3.7734375 C 11.783268,2.9581315 10.909716,2.5013907 10,2.5 8.0670034,2.5 6.5,4.5147186 6.5,7 c 0.00113,1.777816 0.8162345,3.38813 2.0800781,4.109375 m 11.0142549,4.84293 C 19.141658,15.548304 18.612496,15.251378 18,15 c -1.0274,1.188793 -2.562159,1.999367 -4,2 -1.436722,-0.0024 -2.973832,-0.811609 -4,-2 -1.9038694,0.779734 -3,2 -3.5,5.5 h 9 m 2,-10.5 c 0,2.485281 -1.567003,4.5 -3.5,4.5 -1.932997,0 -3.5,-2.014719 -3.5,-4.5 0,-2.4852814 1.567003,-4.5 3.5,-4.5 1.932997,0 3.5,2.0147186 3.5,4.5 z" style="opacity: 1; fill: none; fill-opacity: 1; stroke: #000000; stroke-width: 1; stroke-linecap: round; stroke-linejoin: round; stroke-miterlimit: 4; stroke-dasharray: none; stroke-dashoffset: 0; stroke-opacity: 1;" />
<path d="m 17.878906,16.671875 c 0.12781,0 0.255581,0.04855 0.353516,0.146484 L 20,18.585938 21.767578,16.818359 c 0.195869,-0.195868 0.511162,-0.195868 0.707031,0 l 0.707032,0.707032 c 0.195868,0.195869 0.195868,0.511162 0,0.707031 L 21.414062,20 l 1.767579,1.767578 c 0.195868,0.195869 0.195868,0.511162 0,0.707031 l -0.707032,0.707032 c -0.195869,0.195868 -0.511162,0.195868 -0.707031,0 L 20,21.414062 18.232422,23.181641 c -0.195869,0.195868 -0.511162,0.195868 -0.707031,0 l -0.707032,-0.707032 c -0.195868,-0.195869 -0.195868,-0.511162 0,-0.707031 L 18.585938,20 16.818359,18.232422 c -0.195868,-0.195869 -0.195868,-0.511162 0,-0.707031 l 0.707032,-0.707032 c 0.09793,-0.09793 0.225706,-0.146484 0.353515,-0.146484 z" style="opacity: 1; fill: #000000; fill-opacity: 1; stroke: none; stroke-width: 2; stroke-linecap: round; stroke-linejoin: round; stroke-miterlimit: 4; stroke-dasharray: none; stroke-dashoffset: 0; stroke-opacity: 1;" />
</svg>