<svg width="26" height="26" viewBox="0 0 26 26" xmlns="http://www.w3.org/2000/svg">
<path d="M 11,4 C 9.8597888,4 8.8399028,4.6000915 8.1308594,5.5117188 7.421816,6.4233459 7,7.6522737 7,9 c 0.00122,1.930453 0.8703109,3.7088 2.3320312,4.542969 a 0.50005,0.50005 0 0 0 0.7421878,-0.50586 C 10.024252,12.694851 9.9998087,12.347617 10,12 10.0017,9.3094382 11.505316,6.9811377 13.601562,6.2460938 a 0.50005,0.50005 0 0 0 0.22461,-0.7851563 C 13.094759,4.5467195 12.076583,4.0016458 11,4 Z m 4,3 C 13.859789,7 12.839903,7.6000913 12.130859,8.5117188 11.421816,9.4233458 11,10.652274 11,12 c 0,1.347726 0.421816,2.576654 1.130859,3.488281 C 12.839903,16.399908 13.859789,17 15,17 16.140211,17 17.160097,16.399908 17.869141,15.488281 18.578184,14.576654 19,13.347726 19,12 19,10.652274 18.578184,9.423346 17.869141,8.5117188 17.160097,7.6000913 16.140211,7 15,7 Z m -8.0214844,6.5 a 0.50005,0.50005 0 0 0 -0.1679687,0.03711 c -1.0054458,0.411783 -1.8632088,0.979068 -2.5,1.910157 -0.6367913,0.931089 -1.0486039,2.189835 -1.3046875,3.982422 A 0.50005,0.50005 0 0 0 3.5,20 l 2.9902344,0 A 0.50005,0.50005 0 0 0 6.9667969,19.654297 C 7.196708,18.94268 7.4789472,18.338382 7.8359375,17.816406 8.3358238,17.085494 8.985805,16.550963 9.7070312,16.142578 a 0.50005,0.50005 0 0 0 -0.074219,-0.90625 c -0.8379048,-0.305074 -1.649367,-0.862392 -2.253906,-1.5625 A 0.50005,0.50005 0 0 0 6.9785156,13.5 Z m 4.0000004,3 a 0.50005,0.50005 0 0 0 -0.167969,0.03711 C 9.8051009,16.94889 8.9473381,17.516177 8.3105469,18.447266 7.6737556,19.378355 7.261943,20.637101 7.0058594,22.429688 A 0.50005,0.50005 0 0 0 7.5,23 l 15,0 a 0.50005,0.50005 0 0 0 0.494141,-0.570312 C 22.738042,20.636995 22.324546,19.378176 21.6875,18.447266 21.050454,17.516355 20.193624,16.949237 19.189453,16.537109 a 0.50005,0.50005 0 0 0 -0.568359,0.136719 C 17.68125,17.761311 16.250083,18.49945 15,18.5 13.750426,18.497913 12.317033,17.76026 11.378906,16.673828 A 0.50005,0.50005 0 0 0 10.978516,16.5 Z" style="opacity: 1; fill: #000000; fill-opacity: 1; stroke: none; stroke-width: 1; stroke-linecap: round; stroke-linejoin: round; stroke-miterlimit: 4; stroke-dasharray: none; stroke-dashoffset: 0; stroke-opacity: 1;" />
</svg>