<svg width="26" height="26" viewBox="0 0 26 26" xmlns="http://www.w3.org/2000/svg">
<path d="m 19.5,16 h 1 c 0.277,0 0.5,0.223 0.5,0.5 V 19 h 2.5 c 0.277,0 0.5,0.223 0.5,0.5 v 1 C 24,20.777 23.777,21 23.5,21 H 21 v 2.5 c 0,0.277 -0.223,0.5 -0.5,0.5 h -1 C 19.223,24 19,23.777 19,23.5 V 21 H 16.5 C 16.223,21 16,20.777 16,20.5 v -1 C 16,19.223 16.223,19 16.5,19 H 19 V 16.5 C 19,16.223 19.223,16 19.5,16 Z M 10,2 C 8.8597888,2 7.8399028,2.6000915 7.1308594,3.5117188 6.421816,4.4233459 6,5.6522737 6,7 c 0.00122,1.930453 0.870311,3.7088 2.3320312,4.542969 a 0.50005,0.50005 0 0 0 0.7421876,-0.50586 C 9.0242518,10.694851 8.9998087,10.347617 9,10 9.0017,7.3094382 10.505316,4.9811377 12.601562,4.2460938 a 0.50005,0.50005 0 0 0 0.22461,-0.7851563 C 12.094759,2.5467195 11.076583,2.0016458 10,2 Z m 4,3 C 12.859789,5 11.839903,5.6000912 11.130859,6.5117188 10.421816,7.4233458 10,8.652274 10,10 c 0,1.347726 0.421816,2.576654 1.130859,3.488281 C 11.839903,14.399908 12.859789,15 14,15 15.140211,15 16.160097,14.399908 16.869141,13.488281 17.578184,12.576654 18,11.347726 18,10 18,8.652274 17.578184,7.4233459 16.869141,6.5117188 16.160097,5.6000913 15.140211,5 14,5 Z m -8.0214844,6.5 a 0.50005,0.50005 0 0 0 -0.1679687,0.03711 c -1.0054458,0.411783 -1.8632088,0.979068 -2.5,1.910157 -0.6367913,0.931089 -1.0486039,2.189835 -1.3046875,3.982422 A 0.50005,0.50005 0 0 0 2.5,18 H 5.4902344 A 0.50005,0.50005 0 0 0 5.9667969,17.654297 C 6.196708,16.94268 6.4789472,16.338382 6.8359375,15.816406 7.3358238,15.085494 7.9858051,14.550963 8.7070312,14.142578 a 0.50005,0.50005 0 0 0 -0.074219,-0.90625 C 7.7949077,12.931254 6.9834452,12.373936 6.3789062,11.673828 A 0.50005,0.50005 0 0 0 5.9785156,11.5 Z m 4,3 a 0.50005,0.50005 0 0 0 -0.1679687,0.03711 c -1.0054461,0.41178 -1.8632088,0.979068 -2.5,1.910157 -0.6367913,0.931089 -1.0486039,2.189835 -1.3046875,3.982422 A 0.50005,0.50005 0 0 0 6.5,21 H 15 V 18.5 C 15,18.223 15.223,18 15.5,18 H 18 V 15.5 C 18,15.223 18.223,15 18.5,15 h 0.605469 c -0.290622,-0.172031 -0.592355,-0.330055 -0.916016,-0.462891 a 0.50005,0.50005 0 0 0 -0.568359,0.136719 C 16.68125,15.761311 15.250083,16.49945 14,16.5 12.750426,16.497913 11.317033,15.76026 10.378906,14.673828 A 0.50005,0.50005 0 0 0 9.9785156,14.5 Z" style="opacity: 1; fill: #000000; fill-opacity: 1; stroke: none; stroke-width: 2; stroke-linecap: round; stroke-linejoin: round; stroke-miterlimit: 4; stroke-dasharray: none; stroke-dashoffset: 0; stroke-opacity: 1;" />
</svg>