<svg width="26" height="26" viewBox="0 0 26 26" xmlns="http://www.w3.org/2000/svg">
<path d="M 10 2 C 8.8597888 2 7.8399028 2.6000915 7.1308594 3.5117188 C 6.421816 4.4233459 6 5.6522737 6 7 C 6.00122 8.930453 6.8703111 10.7088 8.3320312 11.542969 A 0.50005 0.50005 0 0 0 9.0742188 11.037109 C 9.0242517 10.694851 8.9998087 10.347617 9 10 C 9.0017 7.3094382 10.505316 4.9811377 12.601562 4.2460938 A 0.50005 0.50005 0 0 0 12.826172 3.4609375 C 12.094759 2.5467195 11.076583 2.0016458 10 2 z M 14 5 C 12.859789 5 11.839903 5.6000912 11.130859 6.5117188 C 10.421816 7.4233458 10 8.652274 10 10 C 10 11.347726 10.421816 12.576654 11.130859 13.488281 C 11.839903 14.399908 12.859789 15 14 15 C 15.140211 15 16.160097 14.399908 16.869141 13.488281 C 17.578184 12.576654 18 11.347726 18 10 C 18 8.652274 17.578184 7.4233459 16.869141 6.5117188 C 16.160097 5.6000913 15.140211 5 14 5 z M 5.9785156 11.5 A 0.50005 0.50005 0 0 0 5.8105469 11.537109 C 4.8051011 11.948892 3.9473381 12.516177 3.3105469 13.447266 C 2.6737556 14.378355 2.261943 15.637101 2.0058594 17.429688 A 0.50005 0.50005 0 0 0 2.5 18 L 5.4902344 18 A 0.50005 0.50005 0 0 0 5.9667969 17.654297 C 6.196708 16.94268 6.4789472 16.338382 6.8359375 15.816406 C 7.3358238 15.085494 7.9858052 14.550963 8.7070312 14.142578 A 0.50005 0.50005 0 0 0 8.6328125 13.236328 C 7.7949077 12.931254 6.9834452 12.373936 6.3789062 11.673828 A 0.50005 0.50005 0 0 0 5.9785156 11.5 z M 9.9785156 14.5 A 0.50005 0.50005 0 0 0 9.8105469 14.537109 C 8.8051008 14.948889 7.9473381 15.516177 7.3105469 16.447266 C 6.6737556 17.378355 6.261943 18.637101 6.0058594 20.429688 A 0.50005 0.50005 0 0 0 6.5 21 L 14.408203 21 C 14.154964 20.49163 14 19.926419 14 19.324219 C 14 17.206815 15.770057 15.5 17.882812 15.5 C 18.729192 15.5 19.409893 15.857788 20 16.302734 C 20.117388 16.214222 20.242038 16.13417 20.367188 16.054688 C 19.772762 15.359044 19.038036 14.885381 18.189453 14.537109 A 0.50005 0.50005 0 0 0 17.621094 14.673828 C 16.68125 15.761311 15.250083 16.49945 14 16.5 C 12.750426 16.497913 11.317033 15.76026 10.378906 14.673828 A 0.50005 0.50005 0 0 0 9.9785156 14.5 z M 17.882812 16.5 C 16.303456 16.5 15 17.763641 15 19.324219 C 15 20.104601 15.327592 20.816909 15.849609 21.326172 A 0.50005 0.50005 0 0 0 15.857422 21.333984 L 19.660156 24.867188 A 0.50005 0.50005 0 0 0 20.339844 24.867188 L 24.142578 21.333984 A 0.50005 0.50005 0 0 0 24.150391 21.326172 C 24.672431 20.81691 25 20.104602 25 19.324219 C 25 17.76364 23.696542 16.5 22.117188 16.5 C 21.238278 16.5 20.527654 16.958114 20 17.572266 C 19.472346 16.958114 18.761722 16.5 17.882812 16.5 z " style="opacity: 1; fill: #000000; fill-opacity: 1; stroke: none; stroke-width: 1; stroke-linecap: round; stroke-linejoin: round; stroke-miterlimit: 4; stroke-dasharray: none; stroke-dashoffset: 0; stroke-opacity: 1;" />
</svg>