<svg width="26" height="26" viewBox="0 0 26 26" xmlns="http://www.w3.org/2000/svg">
<path d="m 17.505707,17.000063 c 0.27289,0.004 0.49186,0.22685 0.49185,0.49992 v 1.49977 l 4.495659,0.49993 c 0.675711,-0.01 0.675711,1.00941 0,0.99985 l -4.495659,0.49992 v 1.49977 c -1.71e-4,0.44525 -0.538151,0.66819 -0.85294,0.35346 l -2.99833,-2.49962 c -0.19505,-0.19523 -0.19505,-0.51169 0,-0.70692 l 2.99833,-2.49962 c 0.0956,-0.0957 0.22588,-0.14853 0.36109,-0.14646 z M 13,5 C 11.859789,5 10.839903,5.6000915 10.130859,6.5117188 9.4218168,7.4233459 9,8.6522737 9,10 9,11.347726 9.4218168,12.576654 10.130859,13.488281 10.839903,14.399908 11.859789,15 13,15 14.140211,15 15.160097,14.399908 15.869141,13.488281 16.578184,12.576654 17,11.347726 17,10 17,8.6522737 16.578184,7.4233459 15.869141,6.5117188 15.160097,5.6000915 14.140211,5 13,5 Z m -4.0214844,9.5 a 0.50005,0.50005 0 0 0 -0.1679687,0.03711 c -1.0054458,0.411783 -1.8632088,0.979068 -2.5,1.910157 -0.6367913,0.931089 -1.0486039,2.189835 -1.3046875,3.982422 A 0.50005,0.50005 0 0 0 5.5,21 h 7.884766 c -0.522029,-0.582344 -0.509402,-1.501801 0.04883,-2.060547 0.02122,-0.02117 0.04338,-0.04137 0.06641,-0.06055 l 2.998047,-2.5 -0.06641,0.06055 C 16.717787,16.153008 17.108909,15.994313 17.513672,16 h 0.002 c 0.808435,0.01291 1.476591,0.692959 1.476563,1.5 v 0.605469 l 1.535156,0.169922 C 20.303821,17.553506 20.029936,16.947664 19.6875,16.447266 19.050454,15.516355 18.193624,14.949237 17.189453,14.537109 a 0.50005,0.50005 0 0 0 -0.568359,0.136719 C 15.68125,15.761311 14.250083,16.49945 13,16.5 11.750426,16.497913 10.317033,15.76026 9.3789062,14.673828 A 0.50005,0.50005 0 0 0 8.9785156,14.5 Z" style="opacity: 1; fill: #000000; fill-opacity: 1; stroke: none; stroke-width: 1px; stroke-linecap: butt; stroke-linejoin: round; stroke-miterlimit: 4; stroke-dasharray: none; stroke-dashoffset: 0; stroke-opacity: 1;" />
</svg>