<svg width="26" height="26" viewBox="0 0 26 26" xmlns="http://www.w3.org/2000/svg">
<path d="m 18.5,20.5 h 2 m -2,-2 h 3 m -3,-2 h 2 m -4,-3.000001 H 21 l 2.5,2.5 v 6.5 h -7 z M 14.5,9 c 0,2.485281 -1.567003,4.5 -3.5,4.5 C 9.0670034,13.5 7.5,11.485281 7.5,9 7.5,6.5147186 9.0670034,4.5 11,4.5 c 1.932997,0 3.5,2.0147186 3.5,4.5 z m 0.158536,5.363176 C 13.64979,15.350835 12.286123,15.999434 11,16 9.563278,15.9976 8.026168,15.188391 7,14 5.0961306,14.779734 4,16 3.5,19.5 h 11" style="fill: none; stroke: #000000; stroke-width: 1px; stroke-linecap: round; stroke-linejoin: round; stroke-opacity: 1;" />
</svg>