<svg width="26" height="26" viewBox="0 0 26 26" xmlns="http://www.w3.org/2000/svg">
<path d="m 14.5,9 c 0,2.485281 -1.567003,4.5 -3.5,4.5 C 9.0670034,13.5 7.5,11.485281 7.5,9 7.5,6.5147186 9.0670034,4.5 11,4.5 c 1.932997,0 3.5,2.0147186 3.5,4.5 z m 2.775619,6.730175 C 16.700826,14.890234 15.950826,14.390234 15,14 13.9726,15.188793 12.437841,15.999367 11,16 9.563278,15.9976 8.026168,15.188391 7,14 5.0961306,14.779734 4,16 3.5,19.5 l 10,0" style="opacity: 1; fill: none; fill-opacity: 1; stroke: #000000; stroke-width: 1; stroke-linecap: round; stroke-linejoin: round; stroke-miterlimit: 4; stroke-dasharray: none; stroke-dashoffset: 0; stroke-opacity: 1;" />
<path d="m 22.5,18 c 0.277,0 0.5,0.223 0.5,0.5 l 0,1 c 0,0.277 -0.223,0.5 -0.5,0.5 l -7,0 C 15.223,20 15,19.777 15,19.5 l 0,-1 C 15,18.223 15.223,18 15.5,18 Z" style="opacity: 1; fill: #000000; fill-opacity: 1; stroke: none; stroke-width: 2; stroke-linecap: round; stroke-linejoin: round; stroke-miterlimit: 4; stroke-dasharray: none; stroke-dashoffset: 0; stroke-opacity: 1;" />
</svg>