<svg width="26" height="26" viewBox="0 0 26 26" xmlns="http://www.w3.org/2000/svg">
<path d="m 18.500001,14.5 3.5,3.5 -4,4" style="fill: none; stroke: #000000; stroke-width: 1px; stroke-linecap: round; stroke-linejoin: round; stroke-opacity: 1;" />
<path d="m 17.000001,10 a 4,5 0 0 1 -4,5 4,5 0 0 1 -4.0000004,-5 4,5 0 0 1 4.0000004,-5 4,5 0 0 1 4,5 z m 4.146484,1.147684 -2,1.999821 c -0.19518,0.195252 -0.19518,0.511726 0,0.706968 l 2,1.99982 c 0.19527,0.195173 0.511772,0.195173 0.707032,0 l 2,-1.99982 c 0.19519,-0.195242 0.19519,-0.511716 0,-0.706968 l -2,-1.999821 c -0.205166,-0.218735 -0.541015,-0.173812 -0.707032,0 z m -4,3.999641 -3,2.99973 c -0.19518,0.195253 -0.19518,0.511716 0,0.706969 l 2,1.99982 c 0.19527,0.195162 0.511772,0.195162 0.707032,0 l 3,-2.999731 c 0.19519,-0.195252 0.19519,-0.511716 0,-0.706968 l -2,-1.99982 c -0.244229,-0.253889 -0.463436,-0.210919 -0.707032,0 z m -4.09375,4.130488 -1.052734,2.472187 1.25,1.25 2.472656,-1.052507 c 0.30552,-0.152276 0.37201,-0.559111 0.13086,-0.80071 l -2,-1.99982 c -0.292958,-0.261005 -0.715409,-0.09123 -0.800782,0.130848 z M 11.750001,22.25 l -0.75,1.75 1.75,-0.75 z M 8.8097406,14.53711 C 6.4991936,15 4.9991936,18 5.0050536,20.429689 4.9623736,20.730413 5.1954566,20.999424 5.4991936,21 h 5.5000014 c 0.197623,4.6e-5 0.376735,-0.1163 0.457031,-0.296875 L 12.430836,18.511719 13.38982,17.3125 C 13.651898,16.985024 13.41863,16.499825 12.999195,16.5 11.749621,16.4979 10.316228,15.76026 9.3781006,14.673828 9.1666136,14.429739 9.0323396,14.475087 8.8097406,14.53711 Z" style="opacity: 1; fill: #000000; fill-opacity: 1; stroke: none; stroke-width: 2; stroke-linecap: round; stroke-linejoin: round; stroke-miterlimit: 4; stroke-dasharray: none; stroke-dashoffset: 0; stroke-opacity: 1;" />
</svg>