<svg width="26" height="26" viewBox="0 0 26 26" xmlns="http://www.w3.org/2000/svg">
<path d="m 16.5,10 c 0,2.485281 -1.567003,4.5 -3.5,4.5 -1.932997,0 -3.5,-2.014719 -3.5,-4.5 0,-2.4852814 1.567003,-4.5 3.5,-4.5 1.932997,0 3.5,2.0147186 3.5,4.5 z m 0.5,5 c -0.45843,0.530444 -1.017873,0.985585 -1.624648,1.32707 C 14.622266,16.750898 13.796271,16.999649 13,17 11.563278,16.9976 10.026168,16.188391 9,15 7.0961306,15.779734 6,17 5.5,20.5 h 8" style="opacity: 1; fill: none; fill-opacity: 1; stroke: #000000; stroke-width: 1; stroke-linecap: round; stroke-linejoin: round; stroke-miterlimit: 4; stroke-dasharray: none; stroke-dashoffset: 0; stroke-opacity: 1;" />
<path d="M 17.882353,17 C 16.566615,17 15.5,18.040557 15.5,19.324148 c 0,0.641796 0.266833,1.222658 0.697955,1.643246 L 20,24.500019 23.802045,20.967394 C 24.233165,20.546806 24.5,19.965944 24.5,19.324148 24.5,18.040557 23.433384,17 22.117647,17 21.188922,17 20.392982,17.523686 20,18.280097 19.607018,17.523686 18.811077,17 17.882353,17 Z" style="opacity: 1; fill: none; fill-opacity: 1; stroke: #000000; stroke-width: 1; stroke-linecap: round; stroke-linejoin: round; stroke-miterlimit: 4; stroke-dasharray: none; stroke-dashoffset: 0; stroke-opacity: 1;" />
</svg>