<svg width="26" height="26" viewBox="0 0 26 26" xmlns="http://www.w3.org/2000/svg">
<path d="M 11 4 C 9.859789 4 8.8399034 4.6000915 8.1308594 5.5117188 C 7.4218164 6.4233459 7 7.652274 7 9 C 7 10.347726 7.4218164 11.576654 8.1308594 12.488281 C 8.8399034 13.399908 9.859789 14 11 14 C 12.140211 14 13.160097 13.399908 13.869141 12.488281 C 14.578184 11.576654 15 10.347726 15 9 C 15 7.652274 14.578184 6.4233459 13.869141 5.5117188 C 13.160097 4.6000915 12.140211 4 11 4 z M 6.9785156 13.5 A 0.50005 0.50005 0 0 0 6.8105469 13.537109 C 5.8051019 13.948892 4.9473384 14.516177 4.3105469 15.447266 C 3.6737555 16.378355 3.261943 17.637101 3.0058594 19.429688 A 0.50005 0.50005 0 0 0 3.5 20 L 14 20 L 14 17.5 C 14 17.223 14.223 17 14.5 17 L 18.4375 17 C 18.230448 16.399203 17.985781 15.883141 17.6875 15.447266 C 17.050454 14.516355 16.193624 13.949237 15.189453 13.537109 A 0.50005 0.50005 0 0 0 14.621094 13.673828 C 13.68125 14.761311 12.250083 15.49945 11 15.5 C 9.750426 15.497913 8.3170334 14.76026 7.3789062 13.673828 A 0.50005 0.50005 0 0 0 6.9785156 13.5 z M 15.5 18 C 15.223 18 15 18.223 15 18.5 L 15 19.5 C 15 19.777 15.223 20 15.5 20 L 22.5 20 C 22.777 20 23 19.777 23 19.5 L 23 18.5 C 23 18.223 22.777 18 22.5 18 L 15.5 18 z " style="opacity: 1; fill: #000000; fill-opacity: 1; stroke: none; stroke-width: 2; stroke-linecap: round; stroke-linejoin: round; stroke-miterlimit: 4; stroke-dasharray: none; stroke-dashoffset: 0; stroke-opacity: 1;" />
</svg>