<svg width="26" height="26" viewBox="0 0 26 26" xmlns="http://www.w3.org/2000/svg">
<path d="M 11 4 C 9.8597888 4 8.8399028 4.6000915 8.1308594 5.5117188 C 7.421816 6.4233459 7 7.6522737 7 9 C 7 10.347726 7.421816 11.576654 8.1308594 12.488281 C 8.8399028 13.399909 9.8597888 14 11 14 C 12.140211 14 13.160097 13.399909 13.869141 12.488281 C 14.578184 11.576654 15 10.347726 15 9 C 15 7.6522737 14.578184 6.4233459 13.869141 5.5117188 C 13.160097 4.6000915 12.140211 4 11 4 z M 6.9785156 13.5 A 0.50005 0.50005 0 0 0 6.8105469 13.537109 C 5.8051011 13.948892 4.9473381 14.516177 4.3105469 15.447266 C 3.6737556 16.378355 3.261943 17.637101 3.0058594 19.429688 A 0.50005 0.50005 0 0 0 3.5 20 L 14.5 20 A 0.50005 0.50005 0 0 0 15 19.501953 L 15.017578 14.5 A 0.50005 0.50005 0 0 0 14.179688 14.128906 C 13.267748 14.966719 12.066948 15.49953 11 15.5 C 9.7504258 15.497913 8.3170332 14.76026 7.3789062 13.673828 A 0.50005 0.50005 0 0 0 6.9785156 13.5 z " style="opacity: 1; fill: #000000; fill-opacity: 1; stroke: none; stroke-width: 1; stroke-linecap: round; stroke-linejoin: round; stroke-miterlimit: 4; stroke-dasharray: none; stroke-dashoffset: 0; stroke-opacity: 1;" />
<path d="m 18.5,20.5 h 2 m -2,-2 h 3 m -3,-2 h 2 m -4,-3.000001 H 21 l 2.5,2.5 v 6.5 h -7 z" style="fill: none; stroke: #000000; stroke-width: 1px; stroke-linecap: round; stroke-linejoin: round; stroke-opacity: 1;" />
</svg>