<svg width="26" height="26" viewBox="0 0 26 26" xmlns="http://www.w3.org/2000/svg">
<path d="M 11 4 C 9.85979 4 8.8399034 4.6000915 8.1308594 5.5117188 C 7.4218164 6.4233459 7 7.6522737 7 9 C 7 10.347726 7.4218154 11.576654 8.1308594 12.488281 C 8.8399034 13.399908 9.85979 14 11 14 C 12.140211 14 13.160097 13.399908 13.869141 12.488281 C 14.578184 11.576654 15 10.347726 15 9 C 15 7.6522737 14.578184 6.4233459 13.869141 5.5117188 C 13.160097 4.6000915 12.140211 4 11 4 z M 6.9785156 13.5 A 0.50005 0.50005 0 0 0 6.8105469 13.537109 C 5.8051009 13.948892 4.9473389 14.516177 4.3105469 15.447266 C 3.6737559 16.378355 3.2619434 17.637101 3.0058594 19.429688 A 0.50005 0.50005 0 0 0 3.5 20 L 15.171875 20 L 16.171875 19 L 14.611328 17.439453 A 1.0001 1.0001 0 0 1 14.611328 16.025391 L 16.025391 14.611328 A 1.0001 1.0001 0 0 1 16.609375 14.326172 C 16.180888 14.004039 15.705651 13.748965 15.189453 13.537109 A 0.50005 0.50005 0 0 0 14.621094 13.673828 C 13.68125 14.761311 12.250083 15.49945 11 15.5 C 9.750427 15.4979 8.3170344 14.76026 7.3789062 13.673828 A 0.50005 0.50005 0 0 0 6.9785156 13.5 z M 16.878906 15.671875 C 16.751097 15.671875 16.623321 15.720429 16.525391 15.818359 L 15.818359 16.525391 C 15.622491 16.72126 15.622491 17.036553 15.818359 17.232422 L 17.585938 19 L 15.818359 20.767578 C 15.622491 20.963447 15.622491 21.27874 15.818359 21.474609 L 16.525391 22.181641 C 16.72126 22.377509 17.036553 22.377509 17.232422 22.181641 L 19 20.414062 L 20.767578 22.181641 C 20.963447 22.377509 21.27874 22.377509 21.474609 22.181641 L 22.181641 21.474609 C 22.377509 21.27874 22.377509 20.963447 22.181641 20.767578 L 20.414062 19 L 22.181641 17.232422 C 22.377509 17.036553 22.377509 16.72126 22.181641 16.525391 L 21.474609 15.818359 C 21.27874 15.622491 20.963447 15.622491 20.767578 15.818359 L 19 17.585938 L 17.232422 15.818359 C 17.134487 15.720425 17.006716 15.671875 16.878906 15.671875 z " style="opacity: 1; fill: #000000; fill-opacity: 1; stroke: none; stroke-width: 2; stroke-linecap: round; stroke-linejoin: round; stroke-miterlimit: 4; stroke-dasharray: none; stroke-dashoffset: 0; stroke-opacity: 1;" />
</svg>