<svg width="26" height="26" viewBox="0 0 26 26" xmlns="http://www.w3.org/2000/svg">
<path d="M 16.5,10 A 3.5,4.5 0 0 1 13,14.5 3.5,4.5 0 0 1 9.5,10 3.5,4.5 0 0 1 13,5.5 3.5,4.5 0 0 1 16.5,10 Z M 9,15 c -1.9038694,0.779734 -3,2 -3.5,5.5 l 15,0 C 20,17 18.901652,15.780467 17,15 c -1.0274,1.188793 -2.562159,1.999367 -4,2 -1.436722,-0.0024 -2.973832,-0.811609 -4,-2 z" style="opacity: 1; fill: none; fill-opacity: 1; stroke: #000000; stroke-width: 1; stroke-linecap: round; stroke-linejoin: round; stroke-miterlimit: 4; stroke-dasharray: none; stroke-dashoffset: 0; stroke-opacity: 1;" />
</svg>