<svg width="26" height="26" viewBox="0 0 26 26" xmlns="http://www.w3.org/2000/svg">
<path d="m 16.5,10 c 0,2.485281 -1.567003,4.5 -3.5,4.5 -1.932997,0 -3.5,-2.014719 -3.5,-4.5 0,-2.4852814 1.567003,-4.5 3.5,-4.5 1.932997,0 3.5,2.0147186 3.5,4.5 z m 2.413789,6.26989 C 18.713308,16.047852 18.495417,15.854249 18.259346,15.682172 17.886038,15.410059 17.46727,15.191774 17,15 c -1.0274,1.188793 -2.562159,1.999367 -4,2 -1.436722,-0.0024 -2.973832,-0.811609 -4,-2 -1.9038694,0.779734 -3,2 -3.5,5.5 h 7" style="opacity: 1; fill: none; fill-opacity: 1; stroke: #000000; stroke-width: 1; stroke-linecap: round; stroke-linejoin: round; stroke-miterlimit: 4; stroke-dasharray: none; stroke-dashoffset: 0; stroke-opacity: 1;" />
<path d="m 17.505707,17.00031 c 0.27289,0.004 0.49186,0.22685 0.49185,0.49992 V 19 l 4.495659,0.49993 c 0.675711,-0.01 0.675711,1.00941 0,0.99985 l -4.495659,0.49992 v 1.49977 c -1.71e-4,0.44525 -0.538151,0.66819 -0.85294,0.35346 l -2.998329,-2.49962 c -0.19505,-0.19523 -0.19505,-0.51169 0,-0.70692 l 2.998329,-2.49962 c 0.0956,-0.0957 0.22588,-0.14853 0.36109,-0.14646 z" style="opacity: 1; fill: #000000; fill-opacity: 1; stroke: none; stroke-width: 1px; stroke-linecap: butt; stroke-linejoin: round; stroke-miterlimit: 4; stroke-dasharray: none; stroke-dashoffset: 0; stroke-opacity: 1;" />
</svg>