<svg width="26" height="26" viewBox="0 0 26 26" xmlns="http://www.w3.org/2000/svg">
<path d="M 11 4 C 9.859789 4 8.8399034 4.6000916 8.1308594 5.5117188 C 7.4218164 6.4233458 7 7.652274 7 9 C 7 10.347726 7.4218164 11.576654 8.1308594 12.488281 C 8.8399034 13.399908 9.859789 14 11 14 C 12.140211 14 13.160097 13.399908 13.869141 12.488281 C 14.578184 11.576654 15 10.347726 15 9 C 15 7.652274 14.578184 6.4233457 13.869141 5.5117188 C 13.160097 4.6000917 12.140211 4 11 4 z M 6.9785156 13.5 A 0.50005 0.50005 0 0 0 6.8105469 13.537109 C 5.8051019 13.948892 4.9473389 14.516177 4.3105469 15.447266 C 3.6737559 16.378355 3.2619434 17.637101 3.0058594 19.429688 A 0.50005 0.50005 0 0 0 3.5 20 L 14 20 L 14 17.5 C 14 17.223 14.223 17 14.5 17 L 17 17 L 17 14.667969 C 16.476641 14.179709 15.871416 13.816998 15.189453 13.537109 A 0.50005 0.50005 0 0 0 14.621094 13.673828 C 13.68125 14.761311 12.250083 15.49945 11 15.5 C 9.750426 15.4979 8.3170332 14.76026 7.3789062 13.673828 A 0.50005 0.50005 0 0 0 6.9785156 13.5 z M 18.5 15 C 18.223 15 18 15.223 18 15.5 L 18 18 L 15.5 18 C 15.223 18 15 18.223 15 18.5 L 15 19.5 C 15 19.777 15.223 20 15.5 20 L 18 20 L 18 22.5 C 18 22.777 18.223 23 18.5 23 L 19.5 23 C 19.777 23 20 22.777 20 22.5 L 20 20 L 22.5 20 C 22.777 20 23 19.777 23 19.5 L 23 18.5 C 23 18.223 22.777 18 22.5 18 L 20 18 L 20 15.5 C 20 15.223 19.777 15 19.5 15 L 18.5 15 z " style="opacity: 1; fill: #000000; fill-opacity: 1; stroke: none; stroke-width: 2; stroke-linecap: round; stroke-linejoin: round; stroke-miterlimit: 4; stroke-dasharray: none; stroke-dashoffset: 0; stroke-opacity: 1;" />
</svg>