<svg width="26" height="26" viewBox="0 0 26 26" xmlns="http://www.w3.org/2000/svg">
<path d="m 14.5,9 c 0,2.485281 -1.567003,4.5 -3.5,4.5 C 9.0670034,13.5 7.5,11.485281 7.5,9 7.5,6.5147186 9.0670034,4.5 11,4.5 c 1.932997,0 3.5,2.0147186 3.5,4.5 z m 1.175865,5.316853 C 15.462861,14.201978 15.237707,14.097559 15,14 13.9726,15.188793 12.437841,15.999367 11,16 9.563278,15.9976 8.026168,15.188391 7,14 5.0961306,14.779734 4,16 3.5,19.5 l 11.5,0" style="opacity: 1; fill: none; fill-opacity: 1; stroke: #000000; stroke-width: 1; stroke-linecap: round; stroke-linejoin: round; stroke-miterlimit: 4; stroke-dasharray: none; stroke-dashoffset: 0; stroke-opacity: 1;" />
<path d="m 16.878906,15.671875 c 0.12781,0 0.255581,0.04855 0.353516,0.146484 L 19,17.585938 20.767578,15.818359 c 0.195869,-0.195868 0.511162,-0.195868 0.707031,0 l 0.707032,0.707032 c 0.195868,0.195869 0.195868,0.511162 0,0.707031 L 20.414062,19 l 1.767579,1.767578 c 0.195868,0.195869 0.195868,0.511162 0,0.707031 l -0.707032,0.707032 c -0.195869,0.195868 -0.511162,0.195868 -0.707031,0 L 19,20.414062 17.232422,22.181641 c -0.195869,0.195868 -0.511162,0.195868 -0.707031,0 l -0.707032,-0.707032 c -0.195868,-0.195869 -0.195868,-0.511162 0,-0.707031 L 17.585938,19 15.818359,17.232422 c -0.195868,-0.195869 -0.195868,-0.511162 0,-0.707031 l 0.707032,-0.707032 c 0.09793,-0.09793 0.225706,-0.146484 0.353515,-0.146484 z" style="opacity: 1; fill: #000000; fill-opacity: 1; stroke: none; stroke-width: 2; stroke-linecap: round; stroke-linejoin: round; stroke-miterlimit: 4; stroke-dasharray: none; stroke-dashoffset: 0; stroke-opacity: 1;" />
</svg>