<svg width="26" height="26" viewBox="0 0 26 26" xmlns="http://www.w3.org/2000/svg">
<path d="M 13 5 C 11.859789 5 10.839903 5.6000915 10.130859 6.5117188 C 9.4218164 7.4233459 9 8.6522737 9 10 C 9 11.347726 9.4218164 12.576654 10.130859 13.488281 C 10.839903 14.399908 11.859789 15 13 15 C 14.140211 15 15.160097 14.399908 15.869141 13.488281 C 16.578184 12.576654 17 11.347726 17 10 C 17 8.6522737 16.578184 7.4233459 15.869141 6.5117188 C 15.160097 5.6000915 14.140211 5 13 5 z M 8.9785156 14.5 A 0.50005 0.50005 0 0 0 8.8105469 14.537109 C 7.8051011 14.948892 6.9473381 15.516177 6.3105469 16.447266 C 5.6737556 17.378355 5.261943 18.637101 5.0058594 20.429688 A 0.50005 0.50005 0 0 0 5.5 21 L 20.5 21 A 0.50005 0.50005 0 0 0 20.994141 20.429688 C 20.738042 18.636995 20.324546 17.378176 19.6875 16.447266 C 19.050454 15.516355 18.193624 14.949237 17.189453 14.537109 A 0.50005 0.50005 0 0 0 16.621094 14.673828 C 15.68125 15.761311 14.250083 16.49945 13 16.5 C 11.750426 16.497913 10.317033 15.76026 9.3789062 14.673828 A 0.50005 0.50005 0 0 0 8.9785156 14.5 z " style="opacity: 1; fill: #000000; fill-opacity: 1; stroke: none; stroke-width: 1; stroke-linecap: round; stroke-linejoin: round; stroke-miterlimit: 4; stroke-dasharray: none; stroke-dashoffset: 0; stroke-opacity: 1;" />
</svg>