<svg width="26" height="26" viewBox="0 0 26 26" xmlns="http://www.w3.org/2000/svg">
<path d="M 7.6269531 4.5957031 C 6.9684196 4.5558413 6.1481579 4.7952015 5.3945312 5.5488281 L 4.0546875 6.8886719 C 4.1817362 11.048755 6.0012904 14.864572 8.8183594 17.681641 C 11.635428 20.498709 15.451245 22.318264 19.611328 22.445312 L 20.951172 21.105469 C 21.704799 20.351842 21.944157 19.531581 21.904297 18.873047 C 21.864437 18.214513 21.60992 17.746639 21.339844 17.476562 C 21.284944 17.421633 21.216146 17.381912 21.140625 17.361328 L 16.548828 16.119141 C 16.386683 16.075031 16.211664 16.122273 16.089844 16.244141 C 15.484203 16.849782 14.923539 17.716609 14.695312 18.578125 C 11.697504 17.240056 9.2599434 14.802497 7.921875 11.804688 C 8.7833905 11.576461 9.6502184 11.015797 10.255859 10.410156 C 10.377698 10.288335 10.424965 10.113312 10.380859 9.9511719 L 9.1386719 5.359375 C 9.1180949 5.283856 9.0783655 5.2150559 9.0234375 5.1601562 C 8.7533614 4.8900803 8.2854873 4.6355641 7.6269531 4.5957031 z M 12 13.5 A 1 1 0 0 0 11 14.5 A 1 1 0 0 0 12 15.5 A 1 1 0 0 0 13 14.5 A 1 1 0 0 0 12 13.5 z " style="opacity: 1; fill: #000000; fill-opacity: 1; stroke: none; stroke-width: 3; stroke-linecap: butt; stroke-linejoin: round; stroke-miterlimit: 4; stroke-dasharray: none; stroke-dashoffset: 0; stroke-opacity: 1;" />
<path d="m 11.433491,8.0247345 a 6.5,6.5 0 0 1 5.162707,1.8790714 6.5,6.5 0 0 1 1.879071,5.1627061 m -6.86747,-5.049388 a 4.5,4.5 0 0 1 3.574181,1.300895 4.5,4.5 0 0 1 1.300896,3.574182 m -4.700765,-2.882688 a 2.5,2.5 0 0 1 1.985656,0.72272 2.5,2.5 0 0 1 0.72272,1.985656" style="opacity: 1; fill: none; fill-opacity: 1; stroke: #000000; stroke-width: 0.99999994; stroke-linecap: round; stroke-linejoin: round; stroke-miterlimit: 4; stroke-dasharray: none; stroke-dashoffset: 0; stroke-opacity: 1;" />
</svg>