<svg width="26" height="26" viewBox="0 0 26 26" xmlns="http://www.w3.org/2000/svg">
<path d="m 8.8180195,17.681981 c 2.8170685,2.817068 6.6325995,4.636617 10.7926825,4.763666 l 1.339781,-1.339781 c 0.753627,-0.753627 0.994148,-1.574392 0.954288,-2.232926 -0.03986,-0.658534 -0.294993,-1.127123 -0.565069,-1.397199 -0.0549,-0.05493 -0.123328,-0.09453 -0.198849,-0.115114 l -4.591542,-1.242088 c -0.162145,-0.04411 -0.338367,0.0041 -0.460187,0.125968 -0.605641,0.605641 -1.165228,1.471296 -1.393455,2.332812 C 11.69786,17.23925 9.26075,14.80214 7.9226816,11.804331 8.7841971,11.576104 9.649852,11.016517 10.255493,10.410876 10.377332,10.289055 10.425567,10.11283 10.381461,9.95069 L 9.139372,5.3591479 C 9.118795,5.2836289 9.079186,5.2151979 9.024258,5.1602982 8.7541819,4.8902223 8.2855935,4.6350911 7.6270593,4.5952301 6.9685258,4.5553683 6.1477608,4.79589 5.3941342,5.5495166 L 4.0543528,6.889298 c 0.1270487,4.160083 1.9465977,7.975614 4.7636667,10.792683 z" style="opacity: 1; fill: #000000; fill-opacity: 1; stroke: none; stroke-width: 3; stroke-linecap: butt; stroke-linejoin: round; stroke-miterlimit: 4; stroke-dasharray: none; stroke-dashoffset: 0; stroke-opacity: 1;" />
<path d="M 20.185633,10.921781 18.5,9.5000009 12.828455,13.837791 c -0.449384,0.4886 -1.137533,-0.23777 -0.674943,-0.71242 L 16.5,7.5000009 14.916171,5.8596019 c -0.300448,-0.31737 -0.08782,-0.85956 0.337178,-0.8596 l 5.268581,9.2e-4 c 0.263453,1.3e-4 0.477075,0.22562 0.477199,0.5037 L 21,10.566141 c -3.5e-4,0.466748 -0.470188,0.612655 -0.814367,0.35564 z" style="opacity: 1; fill: #000000; fill-opacity: 1; stroke: none; stroke-width: 1px; stroke-linecap: butt; stroke-linejoin: round; stroke-miterlimit: 4; stroke-dasharray: none; stroke-dashoffset: 0; stroke-opacity: 1;" />
</svg>