<svg width="26" height="26" viewBox="0 0 26 26" xmlns="http://www.w3.org/2000/svg">
<path d="M 13 9 C 9.0160632 9.0000002 5.0314601 10.411886 2 13.263672 L 2 15.158203 C 2 16.223992 2.4104573 16.974641 2.9042969 17.412109 C 3.3981365 17.849577 3.9090711 18 4.2910156 18 C 4.3686756 18.000018 4.4457183 17.980256 4.5136719 17.941406 L 8.6386719 15.572266 C 8.784515 15.488802 8.8750135 15.330496 8.875 15.158203 C 8.875 14.301697 8.6587399 13.294002 8.2109375 12.523438 C 9.240103 12.129481 10.314235 11.879471 11.400391 11.75 L 13.048828 9.0019531 C 13.032536 9.0019059 13.016292 9 13 9 z M 16.339844 9.3496094 L 14.876953 11.787109 C 15.868125 11.926168 16.847633 12.163066 17.789062 12.523438 C 17.341261 13.294002 17.125 14.301697 17.125 15.158203 C 17.124987 15.330496 17.21549 15.488803 17.361328 15.572266 L 21.486328 17.941406 C 21.554278 17.980256 21.631324 18.00002 21.708984 18 C 22.090929 18 22.601863 17.849577 23.095703 17.412109 C 23.589543 16.974642 24 16.223992 24 15.158203 L 24 13.263672 C 21.821796 11.214569 19.148408 9.9221437 16.339844 9.3496094 z " style="opacity: 1; fill: #000000; fill-opacity: 1; stroke: none; stroke-width: 3; stroke-linecap: butt; stroke-linejoin: round; stroke-miterlimit: 4; stroke-dasharray: none; stroke-dashoffset: 0; stroke-opacity: 1;" />
<path d="m 8.5,19.5 9,-15" style="fill: none; stroke: #000000; stroke-width: 1px; stroke-linecap: round; stroke-linejoin: miter; stroke-opacity: 1;" />
</svg>