<svg width="26" height="26" viewBox="0 0 26 26" xmlns="http://www.w3.org/2000/svg">
<path d="m 9.8180195,16.681981 c 2.8170685,2.817068 6.6325995,4.636617 10.7926825,4.763666 l 1.339781,-1.339781 c 0.753627,-0.753627 0.994148,-1.574392 0.954288,-2.232926 -0.03986,-0.658534 -0.294993,-1.127123 -0.565069,-1.397199 -0.0549,-0.05493 -0.123328,-0.09453 -0.198849,-0.115114 l -4.591542,-1.242088 c -0.162145,-0.04411 -0.338367,0.0041 -0.460187,0.125968 -0.605641,0.605641 -1.165228,1.471296 -1.393455,2.332812 C 12.69786,16.23925 10.26075,13.80214 8.9226816,10.804331 9.7841971,10.576104 10.649852,10.016517 11.255493,9.4108757 11.377332,9.2890554 11.425567,9.1128302 11.381461,8.9506899 L 10.139372,4.3591479 C 10.118795,4.2836289 10.079186,4.2151979 10.024258,4.1602982 9.7541819,3.8902223 9.2855935,3.6350911 8.6270593,3.5952301 7.9685258,3.5553683 7.1477608,3.79589 6.3941342,4.5495166 L 5.0543528,5.889298 c 0.1270487,4.160083 1.9465977,7.975614 4.7636667,10.792683 z" style="opacity: 1; fill: #000000; fill-opacity: 1; stroke: none; stroke-width: 3; stroke-linecap: butt; stroke-linejoin: round; stroke-miterlimit: 4; stroke-dasharray: none; stroke-dashoffset: 0; stroke-opacity: 1;" />
</svg>