<svg width="26" height="26" viewBox="0 0 26 26" xmlns="http://www.w3.org/2000/svg">
<path d="m 13,9 c -3.9839368,2e-7 -7.9685399,1.411372 -11,4.263158 l 0,1.894737 c 0,1.065789 0.4102945,1.816232 0.9041341,2.2537 C 3.3979737,17.849063 3.9097221,18 4.2916666,18 c 0.07766,1.8e-5 0.1540517,-0.02036 0.2220053,-0.05921 l 4.125,-2.368421 C 8.784515,15.488905 8.8750135,15.330188 8.875,15.157895 c 0,-0.856506 -0.2164228,-1.864304 -0.6642252,-2.634869 3.0659282,-1.173613 6.5125222,-1.173613 9.5784502,0 -0.447802,0.770565 -0.664225,1.778363 -0.664225,2.634869 -1.3e-5,0.172293 0.09049,0.33101 0.236328,0.414473 l 4.125,2.368421 c 0.06795,0.03885 0.144346,0.05923 0.222006,0.05921 0.381945,0 0.893692,-0.150937 1.387532,-0.588405 C 23.589706,16.974127 24,16.223684 24,15.157895 l 0,-1.894737 C 20.96854,10.411372 16.983937,8.9999999 13,9 Z" style="opacity: 1; fill: #000000; fill-opacity: 1; stroke: none; stroke-width: 3; stroke-linecap: butt; stroke-linejoin: round; stroke-miterlimit: 4; stroke-dasharray: none; stroke-dashoffset: 0; stroke-opacity: 1;" />
</svg>