<svg width="26" height="26" viewBox="0 0 26 26" xmlns="http://www.w3.org/2000/svg">
<path d="m 17.441502,5.1419576 c -0.189276,-0.189276 -0.494031,-0.189276 -0.683307,0 L 13.683309,8.2168445 11.975038,6.5085746 c -0.189277,-0.189277 -0.494032,-0.189277 -0.683308,0 l -0.683309,0.6833079 c -0.189276,0.189276 -0.189276,0.494031 0,0.683308 l 7.51639,7.5163885 c 0.189276,0.189276 0.494032,0.189276 0.683308,0 l 0.683307,-0.683308 c 0.189277,-0.189275 0.189277,-0.494032 0,-0.683308 l -1.708269,-1.70827 3.074887,-3.0748874 c 0.189275,-0.189276 0.189275,-0.4940311 0,-0.6833081 l -0.683309,-0.683308 c -0.189277,-0.189276 -0.494032,-0.189276 -0.683309,0 L 16.41654,10.950077 15.049924,9.5834606 18.124811,6.5085746 c 0.189276,-0.189277 0.189276,-0.494032 0,-0.683309 z M 10.950075,9.5834606 7.87519,12.658347 c -0.757106,0.757105 -0.757106,1.976127 0,2.733232 l 0.683308,0.683308 -3.416541,3.41654 c -0.189276,0.189275 -0.189276,0.494031 0,0.683307 l 0.683308,0.683308 c 0.189277,0.189277 0.494032,0.189277 0.683308,0 l 3.416541,-3.416539 0.683307,0.683307 c 0.757105,0.757105 1.976128,0.757105 2.733233,0 l 3.074886,-3.074885 z" style="opacity: 1; fill: #000000; fill-opacity: 1; stroke: none; stroke-width: 1.99999988; stroke-linecap: round; stroke-linejoin: round; stroke-miterlimit: 4; stroke-dasharray: none; stroke-dashoffset: 0; stroke-opacity: 1;" />
</svg>