<svg width="26" height="26" viewBox="0 0 26 26" xmlns="http://www.w3.org/2000/svg">
<path d="m 22.375059,2.4999414 c -0.119002,0 -0.23694,0.04553 -0.328125,0.136719 l -3.292969,3.291015 -0.658203,-0.658203 c -0.729481,-0.729482 -1.90333,-0.729482 -2.632812,0 l -0.931641,0.933594 0.771484,0.771484 c 0.575283,0.575283 0.575283,1.5458121 0,2.1210941 l -0.707031,0.707031 c -0.09111,0.09111 -0.194934,0.162358 -0.302734,0.2246095 l 4.460937,4.460937 c 0.182371,0.18237 0.475833,0.18237 0.658203,0 l 0.660157,-0.658203 c 0.182371,-0.182371 0.142649,-0.445285 0,-0.660156 l -0.988282,-0.986328 1.646485,-1.646485 c 0.729482,-0.7294805 0.509763,-1.7359115 0,-2.6328116 l -0.658203,-0.658203 3.291015,-3.292969 c 0.18237,-0.182371 0.18237,-0.475833 0,-0.658203 l -0.658203,-0.658203 c -0.09118,-0.09118 -0.211076,-0.136719 -0.330078,-0.136719 z M 9.4649031,2.7577544 c -0.12781,0 -0.255586,0.04855 -0.353516,0.146484 l -0.707031,0.707031 c -0.195868,0.195869 -0.195869,0.511162 0,0.707031 l 1.6816409,1.681641 -1.6816409,1.681641 c -0.195868,0.195868 -0.195869,0.5111621 0,0.7070311 l 0.707031,0.707031 c 0.195869,0.195869 0.511163,0.195868 0.707031,0 L 11.500059,7.4140044 13.1817,9.0956445 c 0.195869,0.195869 0.511162,0.195869 0.707031,0 l 0.707031,-0.707031 c 0.195869,-0.195869 0.195869,-0.5111621 0,-0.7070311 l -1.681641,-1.681641 1.681641,-1.681641 c 0.195869,-0.195869 0.195868,-0.511162 0,-0.707031 l -0.707031,-0.707031 c -0.195868,-0.195869 -0.511163,-0.195868 -0.707031,0 l -1.681641,1.681641 -1.6816409,-1.681641 c -0.09793,-0.09793 -0.225706,-0.146484 -0.353515,-0.146484 z m 2.2187499,7.8007816 c -0.119002,0 -0.238893,0.04553 -0.330078,0.136718 l -2.4628909,2.46289 -1.644531,-1.646483 c -0.182371,-0.182371 -0.475833,-0.182371 -0.658203,0 l -0.660157,0.658203 c -0.18237,0.18237 -0.18237,0.477786 0,0.660155 l 0.988282,0.986328 -1.646485,1.646486 c -0.729482,0.729479 -0.729482,1.90333 0,2.632812 l 0.658203,0.658203 -3.2910148,3.292968 c -0.182371,0.182372 -0.182371,0.475833 0,0.658203 l 0.6582028,0.658203 c 0.18237,0.182371 0.475832,0.182371 0.658203,0 l 3.2929689,-3.291015 0.6582031,0.658204 c 0.729482,0.729482 1.903331,0.729482 2.6328119,0 l 1.646485,-1.646485 0.986328,0.988281 c 0.18237,0.182371 0.477786,0.182371 0.660156,0 L 14.48834,19.41205 c 0.182371,-0.182368 0.182371,-0.475831 0,-0.658202 l -1.646484,-1.644531 2.462891,-2.462891 c 0.182371,-0.182371 0.18237,-0.475832 0,-0.658203 L 14.646543,13.33002 c -0.182372,-0.18237 -0.475832,-0.18237 -0.658203,0 l -2.46289,2.460938 -1.316407,-1.316408 2.460938,-2.462889 c 0.18237,-0.182371 0.18237,-0.475832 0,-0.658203 l -0.658203,-0.658204 c -0.09118,-0.09118 -0.209124,-0.136718 -0.328125,-0.136718 z" style="opacity: 1; fill: #000000; fill-opacity: 1; stroke: none; stroke-width: 2; stroke-linecap: round; stroke-linejoin: round; stroke-miterlimit: 4; stroke-dasharray: none; stroke-dashoffset: 0; stroke-opacity: 1;" />
</svg>