<svg width="26" height="26" viewBox="0 0 26 26" xmlns="http://www.w3.org/2000/svg">
<path d="m 22.704844,2.6367783 c -0.182369,-0.18237 -0.476006,-0.18237 -0.658377,0 l -3.291886,3.291886 -0.658376,-0.658377 c -0.729481,-0.729483 -1.904027,-0.729483 -2.633509,0 l -1.645941,1.645943 -0.987567,-0.987566 c -0.182371,-0.182371 -0.476006,-0.182371 -0.658376,0 l -0.658378,0.658377 c -0.18237,0.182371 -0.18237,0.476007 0,0.658377 l 7.242147,7.2421487 c 0.182371,0.18237 0.476007,0.18237 0.658378,0 l 0.658377,-0.658378 c 0.182371,-0.182371 0.142649,-0.443506 0,-0.658377 l -0.987566,-0.987566 1.645943,-1.645943 c 0.729482,-0.7294817 0.509763,-1.7366077 0,-2.6335077 l -0.658377,-0.658377 3.291886,-3.291885 c 0.182369,-0.182371 0.182369,-0.476007 0,-0.658377 z M 12.012434,10.69568 c -0.18237,-0.18237 -0.476005,-0.18237 -0.658376,0 l -2.4626972,2.462698 -1.645943,-1.645943 c -0.18237,-0.182371 -0.476006,-0.182371 -0.658377,0 l -0.658377,0.658377 c -0.182371,0.18237 -0.182371,0.476007 0,0.658377 l 0.987566,0.987567 -1.6459433,1.645943 c -0.729482,0.72948 -0.729482,1.904025 0,2.633506 l 0.6583773,0.658376 -3.2918863,3.291886 c -0.18237,0.182371 -0.18237,0.476007 0,0.658378 l 0.658377,0.658378 c 0.182371,0.182369 0.476007,0.182369 0.658378,0 l 3.2918853,-3.291886 0.658377,0.658378 c 0.729482,0.729482 1.904026,0.729482 2.6335082,0 l 1.645942,-1.645943 0.987567,0.987567 c 0.18237,0.182371 0.476006,0.182371 0.658376,0 l 0.658377,-0.658378 c 0.182371,-0.182369 0.182371,-0.476006 0,-0.658377 l -1.645942,-1.645943 2.462697,-2.462696 c 0.182372,-0.182371 0.182371,-0.476007 0,-0.658378 l -0.658376,-0.658378 c -0.182373,-0.182371 -0.476009,-0.182371 -0.658379,0 l -2.462696,2.462697 -1.316754,-1.316755 2.462696,-2.462695 c 0.182371,-0.182371 0.182371,-0.476007 0,-0.658378 z" style="opacity: 1; fill: #000000; fill-opacity: 1; stroke: none; stroke-width: 2; stroke-linecap: round; stroke-linejoin: round; stroke-miterlimit: 4; stroke-dasharray: none; stroke-dashoffset: 0; stroke-opacity: 1;" />
</svg>