<svg width="26" height="26" viewBox="0 0 26 26" xmlns="http://www.w3.org/2000/svg">
<path d="m 13.00035,11.5 a 1.5,1.5 0 0 0 -1.5,1.5 1.5,1.5 0 0 0 1.5,1.5 1.5,1.5 0 0 0 1.5,-1.5 1.5,1.5 0 0 0 -1.5,-1.5 z m -0.5,4.5 c 0,0 -2.5,1 -1,6 h 3 c 1.500001,-5 -1,-6 -1,-6 z" style="opacity: 1; fill: #000000; fill-opacity: 1; stroke: none; stroke-width: 0.75; stroke-linecap: round; stroke-linejoin: round; stroke-miterlimit: 4; stroke-dasharray: none; stroke-dashoffset: 0; stroke-opacity: 1;" />
<path d="M 9.4793147,19.622107 A 7.5,7.5 0 0 1 5.7231334,11.185586 7.5,7.5 0 0 1 13.000351,5.5000004 7.5,7.5 0 0 1 20.27757,11.185586 7.5,7.5 0 0 1 16.521389,19.622107 M 9.6142125,17.334059 A 5.5,5.5 0 0 1 7.7999982,11.209375 5.5,5.5 0 0 1 13.00035,7.5000004 a 5.5,5.5 0 0 1 5.200353,3.7093746 5.5,5.5 0 0 1 -1.814214,6.124684 m -5.861013,-1.859185 a 3.5,3.5 0 0 1 0,-4.949748 3.5,3.5 0 0 1 4.949749,0 3.5,3.5 0 0 1 0,4.949748" style="opacity: 1; fill: none; fill-opacity: 1; stroke: #000000; stroke-width: 1; stroke-linecap: round; stroke-linejoin: round; stroke-miterlimit: 4; stroke-dasharray: none; stroke-dashoffset: 0; stroke-opacity: 1;" />
</svg>