<svg width="26" height="26" viewBox="0 0 26 26" xmlns="http://www.w3.org/2000/svg">
<path d="M 13.041016 6.8125 C 12.110929 6.7737464 11.174221 6.9709077 10.390625 7.4824219 C 9.6070288 7.9939361 9 8.9166667 9 10 L 9 10.5 C 9 10.777 9.223 11 9.5 11 L 10.5 11 C 10.777 11 11 10.777 11 10.5 L 11 10 C 11 9.5833333 11.142971 9.3810639 11.484375 9.1582031 C 11.825779 8.9353423 12.389071 8.7887536 12.958984 8.8125 C 13.528898 8.8362464 14.084192 9.0238459 14.441406 9.3066406 C 14.798621 9.5894354 15 9.9107143 15 10.5 C 15 10.925 14.9008 11.14495 14.724609 11.384766 C 14.548418 11.624582 14.261168 11.866135 13.900391 12.136719 C 13.539613 12.407302 13.107977 12.699021 12.716797 13.144531 C 12.325617 13.590042 12 14.25 12 15 L 12 16.5 C 12 16.777 12.223 17 12.5 17 L 13.5 17 C 13.777 17 14 16.777 14 16.5 L 14 15 C 14 14.75 14.04938 14.659958 14.220703 14.464844 C 14.392023 14.269729 14.710387 14.030198 15.099609 13.738281 C 15.488832 13.446365 15.951582 13.094168 16.337891 12.568359 C 16.724199 12.04255 17 11.325 17 10.5 C 17 9.3392857 16.451379 8.3480646 15.683594 7.7402344 C 14.915808 7.1324041 13.971102 6.8512536 13.041016 6.8125 z M 12.5 18 C 12.223 18 12 18.223 12 18.5 L 12 19.5 C 12 19.777 12.223 20 12.5 20 L 13.5 20 C 13.777 20 14 19.777 14 19.5 L 14 18.5 C 14 18.223 13.777 18 13.5 18 L 12.5 18 z " style="opacity: 1; fill: #000000; fill-opacity: 1; stroke: none; stroke-width: 1; stroke-linecap: round; stroke-linejoin: round; stroke-miterlimit: 4; stroke-dasharray: none; stroke-dashoffset: 0; stroke-opacity: 1;" />
</svg>