<svg width="26" height="26" viewBox="0 0 26 26" xmlns="http://www.w3.org/2000/svg">
<path d="m 22.481337,3.0005201 c -0.02811,2.28e-4 -0.05617,0.0028 -0.08384,0.0076 C 16.238953,4.0101311 8.0781843,8.5622951 3.0412103,22.3303 c -0.252618,0.624796 0.730198,0.967167 0.939833,0.327399 1.027578,-2.112858 2.870792,-3.759189 3.993318,-5.417292 0.420643,0.21602 5.0215677,0.381453 5.1944337,0.25697 0.624096,-0.61648 1.301938,-1.370795 1.99276,-2.169961 l -5.161286,-0.630051 c 1.586647,-0.774451 3.823155,-1.540024 7.171594,-1.825431 0.256095,-0.328375 0.513076,-0.648525 0.764346,-0.982194 l -4.940951,-0.603402 c 1.50721,-0.735677 3.586357,-1.4708909 6.660729,-1.7873629 0.255124,-0.369335 0.49764,-0.729816 0.733148,-1.086885 l -4.398889,-0.53678 c 1.354958,-0.661361 3.189055,-1.314456 5.775492,-1.671251 0.680965,-1.18624 1.14148,-2.169582 1.234262,-2.756232 -0.01948,-0.2365 -0.199108,-0.459929 -0.518663,-0.447317 z" style="opacity: 1; fill: #000000; fill-opacity: 1; stroke: none; stroke-width: 0.99999994px; stroke-linecap: round; stroke-linejoin: miter; stroke-miterlimit: 4; stroke-dasharray: none; stroke-dashoffset: 0; stroke-opacity: 1;" />
</svg>