<svg width="26" height="26" viewBox="0 0 26 26" xmlns="http://www.w3.org/2000/svg">
<path d="m 11,5.0000002 c 0,0 -7.0000002,0 -7.0000002,7.9999998 0,7 0,7 3,7 C 11,20 11,20 11,16 11,13 10,13 10,13 H 6.9999998 C 6.9999998,7.0000002 11,7.0000002 11,7.0000002 Z m 10,0 c 0,0 -7,0 -7,7.9999998 0,7 0,7 3,7 4,0 4,0 4,-4 0,-3 -1,-3 -1,-3 h -3 c 0,-5.9999998 4,-5.9999998 4,-5.9999998 z" transform="" style="fill: #000000; fill-opacity: 1; stroke: none; stroke-width: 1px; stroke-linecap: butt; stroke-linejoin: miter; stroke-opacity: 1;" />
</svg>