<svg width="26" height="26" viewBox="0 0 26 26" xmlns="http://www.w3.org/2000/svg">
<path d="M 13,1.5 C 6.6546482,1.5 1.5,6.6546472 1.5,13 1.5,19.345353 6.6546482,24.5 13,24.5 19.345352,24.5 24.5,19.345353 24.5,13 24.5,6.6546472 19.345352,1.5 13,1.5 Z m 0,1 C 18.804912,2.5 23.5,7.1950872 23.5,13 23.5,18.804913 18.804912,23.5 13,23.5 7.1950884,23.5 2.5,18.804913 2.5,13 2.5,7.1950872 7.1950884,2.5 13,2.5 Z" style="opacity: 1; fill: #000000; fill-opacity: 1; stroke: none; stroke-width: 0.99999994; stroke-linecap: round; stroke-linejoin: round; stroke-miterlimit: 4; stroke-dasharray: none; stroke-dashoffset: 0; stroke-opacity: 1;" />
<path d="M 8.5 7 C 8.223 7 8 7.223 8 7.5 L 8 18.5 C 8 18.777 8.223 19 8.5 19 L 11.5 19 C 11.777 19 12 18.777 12 18.5 L 12 7.5 C 12 7.223 11.777 7 11.5 7 L 8.5 7 z M 14.5 7 C 14.223 7 14 7.223 14 7.5 L 14 18.5 C 14 18.777 14.223 19 14.5 19 L 17.5 19 C 17.777 19 18 18.777 18 18.5 L 18 7.5 C 18 7.223 17.777 7 17.5 7 L 14.5 7 z " style="opacity: 1; fill: #ff2c12; fill-opacity: 1; stroke: none; stroke-width: 1; stroke-linecap: round; stroke-linejoin: round; stroke-miterlimit: 4; stroke-dasharray: none; stroke-dashoffset: 0; stroke-opacity: 1;" />
</svg>