<svg width="26" height="26" viewBox="0 0 26 26" xmlns="http://www.w3.org/2000/svg">
<path d="M 13,1.5 C 6.6546482,1.5 1.5,6.6546472 1.5,13 1.5,19.345353 6.6546482,24.5 13,24.5 19.345352,24.5 24.5,19.345353 24.5,13 24.5,6.6546472 19.345352,1.5 13,1.5 Z m 0,1 C 18.804912,2.5 23.5,7.1950872 23.5,13 23.5,18.804913 18.804912,23.5 13,23.5 7.1950884,23.5 2.5,18.804913 2.5,13 2.5,7.1950872 7.1950884,2.5 13,2.5 Z" style="opacity: 1; fill: #000000; fill-opacity: 1; stroke: none; stroke-width: 0.99999994; stroke-linecap: round; stroke-linejoin: round; stroke-miterlimit: 4; stroke-dasharray: none; stroke-dashoffset: 0; stroke-opacity: 1;" />
<path d="m 22,13 a 9,9 0 0 1 -9,9 9,9 0 0 1 -9,-9 9,9 0 0 1 9,-9 9,9 0 0 1 9,9 z" style="opacity: 1; fill: #ff2c12; fill-opacity: 1; stroke: none; stroke-width: 1; stroke-linecap: round; stroke-linejoin: round; stroke-miterlimit: 4; stroke-dasharray: none; stroke-dashoffset: 0; stroke-opacity: 1;" />
</svg>