<svg width="26" height="26" viewBox="0 0 26 26" xmlns="http://www.w3.org/2000/svg">
<path d="m 15.587928,6.0065327 c 0.09476,0.016402 0.186882,0.059983 0.265625,0.1386719 l 4.5,3.5000004 c 0.0957,0.09565 0.148556,0.226037 0.146484,0.361328 -0.0021,0.129878 -0.05462,0.253877 -0.146484,0.345703 l -4.5,3.5 c -0.314971,0.314754 -0.853342,0.09176 -0.853516,-0.353516 l 0,-2.001953 c -4.876188,0 -7.0308181,0.772308 -8.0703121,2.505859 -1.039495,1.733551 -0.928641,4.456774 -0.928641,4.456774 0.07907,0.732655 -0.988624,0.697188 -0.996094,0.0332 0,0 -0.140325,-2.991641 1.067313,-5.005602 1.207639,-2.013963 3.8018438,-4.986325 8.9277341,-4.986325 l 0,-2.0019528 c 1.3e-4,-0.333963 0.303607,-0.5413944 0.587891,-0.4921875 z" style="opacity: 1; fill: #000000; fill-opacity: 1; stroke: none; stroke-width: 0.99999994px; stroke-linecap: round; stroke-linejoin: miter; stroke-miterlimit: 4; stroke-dasharray: none; stroke-dashoffset: 0; stroke-opacity: 1;" />
</svg>