<svg width="26" height="26" viewBox="0 0 26 26" xmlns="http://www.w3.org/2000/svg">
<path d="M 12.658203 4.5058594 C 11.79725 4.5402792 10.932817 4.7063231 10.09375 5.0117188 C 6.7374804 6.2333009 4.0000002 9.4283325 4 13 L 2.5 13 C 2.054681 13.000174 1.8317055 13.538519 2.1464844 13.853516 L 4.6464844 16.353516 C 4.8417493 16.5487 5.1582507 16.5487 5.3535156 16.353516 L 7.8535156 13.853516 C 8.1682945 13.538519 7.945319 13.000174 7.5 13 L 6 13 C 6.0000001 9.8452935 7.4710923 7.0320981 10.435547 5.953125 C 13.400001 4.8741519 16.718287 5.7630421 18.746094 8.1796875 C 19.171404 8.7221874 19.972235 8.0500613 19.511719 7.5371094 C 17.789851 5.4850674 15.241062 4.4025998 12.658203 4.5058594 z M 20.992188 9.5 C 20.8623 9.50207 20.738317 9.554606 20.646484 9.6464844 L 18.146484 12.146484 C 17.831705 12.461481 18.054681 12.999826 18.5 13 L 20 13 C 20 16.154707 18.528908 18.967902 15.564453 20.046875 C 12.599999 21.125848 9.2817125 20.236959 7.2539062 17.820312 C 6.828594 17.277829 6.0277819 17.94994 6.4882812 18.462891 C 8.7841048 21.198947 12.54998 22.209863 15.90625 20.988281 C 19.26252 19.766699 22 16.571668 22 13 L 23.5 13 C 23.945319 12.999826 24.168295 12.461481 23.853516 12.146484 L 21.353516 9.6464844 C 21.257854 9.5507785 21.127489 9.4979278 20.992188 9.5 z " style="opacity: 1; fill: #000000; fill-opacity: 1; stroke: none; stroke-width: 0.99999994px; stroke-linecap: round; stroke-linejoin: miter; stroke-miterlimit: 4; stroke-dasharray: none; stroke-dashoffset: 0; stroke-opacity: 1;" />
</svg>