<svg width="26" height="26" viewBox="0 0 26 26" xmlns="http://www.w3.org/2000/svg">
<path d="m 13.341797,4.5058594 c 0.860953,0.03442 1.725386,0.2004637 2.564453,0.5058594 C 19.26252,6.2333009 22,9.4283325 22,13 h 1.5 c 0.445319,1.74e-4 0.668295,0.538519 0.353516,0.853516 l -2.5,2.5 c -0.195265,0.195184 -0.511766,0.195184 -0.707031,0 l -2.5,-2.5 C 17.831706,13.538519 18.054681,13.000174 18.5,13 H 20 C 20,9.8452935 18.528908,7.0320981 15.564453,5.953125 12.599999,4.8741519 9.2817133,5.7630421 7.2539063,8.1796875 6.8285963,8.7221874 6.0277653,8.0500613 6.4882813,7.5371094 8.2101493,5.4850674 10.758938,4.4025998 13.341797,4.5058594 Z M 5.0078123,9.5 c 0.129888,0.00207 0.253871,0.054606 0.345704,0.1464844 l 2.5,2.4999996 C 8.1682953,12.461481 7.9453193,12.999826 7.5000003,13 h -1.5 c 0,3.154707 1.471092,5.967902 4.4355467,7.046875 2.964454,1.078973 6.282741,0.190084 8.310547,-2.226563 0.425312,-0.542483 1.226124,0.129628 0.765625,0.642579 -2.295823,2.736056 -6.061699,3.746972 -9.417969,2.52539 C 6.7374803,19.766699 4.0000003,16.571668 4.0000003,13 h -1.5 c -0.445319,-1.74e-4 -0.668295,-0.538519 -0.353516,-0.853516 l 2.5,-2.4999996 C 4.7421463,9.5507785 4.8725113,9.4979278 5.0078123,9.5 Z" style="opacity: 1; fill: #000000; fill-opacity: 1; stroke: none; stroke-width: 0.99999994px; stroke-linecap: round; stroke-linejoin: miter; stroke-miterlimit: 4; stroke-dasharray: none; stroke-dashoffset: 0; stroke-opacity: 1;" />
</svg>