<svg width="26" height="26" viewBox="0 0 26 26" xmlns="http://www.w3.org/2000/svg">
<path d="M 8.5,4 C 6.0156486,4 4,6.0156486 4,8.5 v 9 C 4,19.984351 6.0156486,22 8.5,22 h 9 c 2.484351,0 4.5,-2.015649 4.5,-4.5 v -9 C 22,6.0156486 19.984351,4 17.5,4 Z m 10,8 c 0.277,0 0.5,0.223 0.5,0.5 v 1 C 19,13.777 18.777,14 18.5,14 H 7.5 C 7.223,14 7,13.777 7,13.5 v -1 C 7,12.223 7.223,12 7.5,12 Z" style="opacity: 1; fill: #000000; fill-opacity: 1; stroke: none; stroke-width: 1; stroke-linecap: butt; stroke-linejoin: miter; stroke-miterlimit: 4; stroke-dasharray: none; stroke-dashoffset: 0; stroke-opacity: 1;" />
</svg>