<svg width="26" height="26" viewBox="0 0 26 26" xmlns="http://www.w3.org/2000/svg">
<path d="M 5.5 4 C 4.6776486 4 4 4.6776486 4 5.5 L 4 20.5 C 4 21.322351 4.6776486 22 5.5 22 L 20.5 22 C 21.322351 22 22 21.322351 22 20.5 L 22 5.5 C 22 4.6776486 21.322351 4 20.5 4 L 5.5 4 z M 7.5 12 L 18.5 12 C 18.777 12 19 12.223 19 12.5 L 19 13.5 C 19 13.777 18.777 14 18.5 14 L 7.5 14 C 7.223 14 7 13.777 7 13.5 L 7 12.5 C 7 12.223 7.223 12 7.5 12 z " style="opacity: 1; fill: #000000; fill-opacity: 1; stroke: none; stroke-width: 1; stroke-linecap: butt; stroke-linejoin: miter; stroke-miterlimit: 4; stroke-dasharray: none; stroke-dashoffset: 0; stroke-opacity: 1;" />
</svg>