<svg width="26" height="26" viewBox="0 0 26 26" xmlns="http://www.w3.org/2000/svg">
<path d="M 13,3 C 7.4771525,3 3,7.4771525 3,13 3,18.522847 7.4771525,23 13,23 18.522847,23 23,18.522847 23,13 23,7.4771525 18.522847,3 13,3 Z m 5.5,9 c 0.277,0 0.5,0.223 0.5,0.5 l 0,1 c 0,0.277 -0.223,0.5 -0.5,0.5 l -11,0 C 7.223,14 7,13.777 7,13.5 l 0,-1 C 7,12.223 7.223,12 7.5,12 Z" style="opacity: 1; fill: #000000; fill-opacity: 1; stroke: none; stroke-width: 2; stroke-linecap: round; stroke-linejoin: round; stroke-miterlimit: 4; stroke-dasharray: none; stroke-dashoffset: 0; stroke-opacity: 1;" />
</svg>