<svg width="26" height="26" viewBox="0 0 26 26" xmlns="http://www.w3.org/2000/svg">
<path d="M 6.5,18 C 6.223,18 6,17.777 6,17.5 v -1 C 6,16.223 6.223,16 6.5,16 h 9 c 0.277,0 0.5,0.223 0.5,0.5 v 1 C 16,17.777 15.777,18 15.5,18 Z M 4,14 l 3,-3 3,3 z m 7.5,0 C 11.223,14 11,13.777 11,13.5 v -1 C 11,12.223 11.223,12 11.5,12 h 9 c 0.277,0 0.5,0.223 0.5,0.5 v 1 c 0,0.277 -0.223,0.5 -0.5,0.5 z m 0,-4 C 11.223,10 11,9.777 11,9.5 v -1 C 11,8.223 11.223,8 11.5,8 h 9 C 20.777,8 21,8.223 21,8.5 v 1 C 21,9.777 20.777,10 20.5,10 Z" style="opacity: 1; fill: #000000; fill-opacity: 1; stroke: none; stroke-width: 1.00157475; stroke-linecap: butt; stroke-linejoin: round; stroke-miterlimit: 4; stroke-dasharray: none; stroke-dashoffset: 0; stroke-opacity: 1;" />
<rect x="17" y="16" width="4" height="2" rx="0.5" ry="0.5" style="opacity: 0.25; fill: #000000; fill-opacity: 1; stroke: none; stroke-width: 1.00157475; stroke-linecap: butt; stroke-linejoin: round; stroke-miterlimit: 4; stroke-dasharray: none; stroke-dashoffset: 0; stroke-opacity: 1;" />
</svg>