<svg width="26" height="26" viewBox="0 0 26 26" xmlns="http://www.w3.org/2000/svg">
<path d="M 6.5 8 C 6.223 8 6 8.223 6 8.5 L 6 9.5 C 6 9.777 6.223 10 6.5 10 L 15.5 10 C 15.777 10 16 9.777 16 9.5 L 16 8.5 C 16 8.223 15.777 8 15.5 8 L 6.5 8 z M 4 12 L 7 15 L 10 12 L 4 12 z M 11.5 12 C 11.223 12 11 12.223 11 12.5 L 11 13.5 C 11 13.777 11.223 14 11.5 14 L 20.5 14 C 20.777 14 21 13.777 21 13.5 L 21 12.5 C 21 12.223 20.777 12 20.5 12 L 11.5 12 z M 11.5 16 C 11.223 16 11 16.223 11 16.5 L 11 17.5 C 11 17.777 11.223 18 11.5 18 L 20.5 18 C 20.777 18 21 17.777 21 17.5 L 21 16.5 C 21 16.223 20.777 16 20.5 16 L 11.5 16 z " style="opacity: 1; fill: #000000; fill-opacity: 1; stroke: none; stroke-width: 1.00157475; stroke-linecap: butt; stroke-linejoin: round; stroke-miterlimit: 4; stroke-dasharray: none; stroke-dashoffset: 0; stroke-opacity: 1;" />
<rect x="17" y="8" width="4" height="2" rx="0.5" ry="0.5" style="opacity: 0.25; fill: #000000; fill-opacity: 1; stroke: none; stroke-width: 1.00157475; stroke-linecap: butt; stroke-linejoin: round; stroke-miterlimit: 4; stroke-dasharray: none; stroke-dashoffset: 0; stroke-opacity: 1;" />
</svg>