<svg width="26" height="26" viewBox="0 0 26 26" xmlns="http://www.w3.org/2000/svg">
<path d="M 11.505859 4 C 11.370648 3.997928 11.240131 4.0507844 11.144531 4.1464844 L 6.6464844 7.6464844 C 6.4514344 7.8417194 6.4514344 8.1582806 6.6464844 8.3535156 L 11.144531 11.853516 C 11.459321 12.168247 11.997877 11.945251 11.998047 11.5 L 11.998047 9 L 17 9 C 19.231155 9 20.994662 10.763881 20.998047 12.994141 C 20.988147 13.880517 20.726782 14.510488 20.277344 15.308594 A 1.0001 1.0001 0 1 0 22.019531 16.289062 C 22.537134 15.369913 22.9867 14.320525 23 13.009766 A 1.0001 1.0001 0 0 0 23 13 C 23 9.6932972 20.306703 7 17 7 L 11.998047 7 L 11.998047 4.5 C 11.998058 4.226932 11.778749 4.0043 11.505859 4 z M 4.8554688 9.1875 A 1.0001 1.0001 0 0 0 3.9804688 9.7109375 C 3.462865 10.63009 3.0133027 11.679477 3 12.990234 A 1.0001 1.0001 0 0 0 3 13 C 3 16.306703 5.6932972 19 9 19 L 14.001953 19 L 14.001953 21.5 C 14.002123 21.945251 14.540679 22.168247 14.855469 21.853516 L 19.353516 18.353516 C 19.548566 18.158281 19.548566 17.841719 19.353516 17.646484 L 14.855469 14.146484 C 14.759869 14.050784 14.629352 13.997928 14.494141 14 C 14.221251 14.0043 14.001942 14.226931 14.001953 14.5 L 14.001953 17 L 9 17 C 6.7688451 17 5.0053381 15.236119 5.0019531 13.005859 C 5.0118608 12.119481 5.2732181 11.489511 5.7226562 10.691406 A 1.0001 1.0001 0 0 0 4.8554688 9.1875 z " style="opacity: 1; fill: #000000; fill-opacity: 1; stroke: none; stroke-width: 1px; stroke-linecap: butt; stroke-linejoin: round; stroke-miterlimit: 4; stroke-dasharray: none; stroke-dashoffset: 0; stroke-opacity: 1;" />
</svg>