<svg width="26" height="26" viewBox="0 0 26 26" xmlns="http://www.w3.org/2000/svg">
<path d="M 13,3.93006 10.83594,5.77381 8,6.00037 7.77344,8.83631 5.92969,11.00037 7.77344,13.16443 8,16.00037 10.83594,16.22693 13,18.07068 15.16406,16.22693 18,16.00037 18.22656,13.16443 20.07031,11.00037 18.22656,8.83631 18,6.00037 15.16406,5.77381 Z m 0,3.07031 a 4,4 0 0 1 4,4 4,4 0 0 1 -4,4 4,4 0 0 1 -4,-4 4,4 0 0 1 4,-4 z m 0,1 a 3,3 0 0 0 -3,3 3,3 0 0 0 3,3 3,3 0 0 0 3,-3 3,3 0 0 0 -3,-3 z M 8.55078,17.04725 7.06641,22.58826 10.48242,21.43201 12.86328,24.141 14.47461,18.12928 13,19.38514 10.4336,17.19764 Z m 8.68555,0.0176 -1.66992,0.13282 -0.0391,0.0332 -1.02735,3.7695 4.5,1 z" style="fill: #000000; fill-opacity: 1; stroke: none; stroke-width: 1px; stroke-linecap: butt; stroke-linejoin: miter; stroke-opacity: 1;" />
</svg>