<svg width="26" height="26" viewBox="0 0 26 26" xmlns="http://www.w3.org/2000/svg">
<path d="m 23.076171,2.923829 c 0,0 -6.427432,0.92652 -10.033202,6.097656 -1.11916,0.195131 -4.78325,0.939495 -6.58399,2.740236 v 1.41601 l 0.70704,0.70704 c 1.36792,-1.36792 4.00692,-1.41065 4.18164,-1.41211 -0.10805,0.34184 -0.20848,0.69247 -0.29297,1.05859 l 1.41406,1.41406 c 0.36612,-0.0845 0.71675,-0.18492 1.05859,-0.29297 -10e-4,0.17472 -0.0442,2.81372 -1.41211,4.18164 l 0.70704,0.70704 h 1.41601 c 1.800741,-1.80074 2.545105,-5.46483 2.740236,-6.58399 5.171136,-3.60577 6.097656,-10.033202 6.097656,-10.033202 z m -5.0625,4.076172 a 1,1 0 0 1 0.693359,0.292969 1,1 0 0 1 0,1.414062 1,1 0 0 1 -1.414062,0 1,1 0 0 1 0,-1.414062 1,1 0 0 1 0.720703,-0.292969 z m -7.666012,7.23828 c -4.79371,0 -3.22934,3.44497 -7.42383,8.83789 5.39292,-4.19449 8.83789,-2.63012 8.83789,-7.42383 l -0.35352,-0.35351 c 0,2.82843 -2.12075,2.12083 -5.30273,4.5957 2.47487,-3.18198 1.76727,-5.30273 4.5957,-5.30273 z" style="fill: #000000; fill-opacity: 1; stroke: none; stroke-width: 1px; stroke-linecap: round; stroke-linejoin: round; stroke-opacity: 1;" />
</svg>