<svg width="26" height="26" viewBox="0 0 26 26" xmlns="http://www.w3.org/2000/svg">
<path d="M 17.992188 2.5 A 0.50005 0.50005 0 0 0 17.646484 2.6464844 L 2.6464844 17.646484 A 0.50005 0.50005 0 0 0 2.6464844 18.353516 L 7.6464844 23.353516 A 0.50005 0.50005 0 0 0 8.3535156 23.353516 L 23.353516 8.3535156 A 0.50005 0.50005 0 0 0 23.353516 7.6464844 L 18.353516 2.6464844 A 0.50005 0.50005 0 0 0 17.992188 2.5 z M 17.494141 4.9941406 A 0.50005 0.50005 0 0 1 17.853516 5.1464844 L 18.853516 6.1464844 A 0.50005 0.50005 0 1 1 18.146484 6.8535156 L 17.146484 5.8535156 A 0.50005 0.50005 0 0 1 17.494141 4.9941406 z M 15.494141 6.9941406 A 0.50005 0.50005 0 0 1 15.853516 7.1464844 L 17.853516 9.1464844 A 0.50005 0.50005 0 1 1 17.146484 9.8535156 L 15.146484 7.8535156 A 0.50005 0.50005 0 0 1 15.494141 6.9941406 z M 13.494141 8.9941406 A 0.50005 0.50005 0 0 1 13.853516 9.1464844 L 14.853516 10.146484 A 0.50005 0.50005 0 1 1 14.146484 10.853516 L 13.146484 9.8535156 A 0.50005 0.50005 0 0 1 13.494141 8.9941406 z M 11.494141 10.994141 A 0.50005 0.50005 0 0 1 11.853516 11.146484 L 12.853516 12.146484 A 0.50005 0.50005 0 1 1 12.146484 12.853516 L 11.146484 11.853516 A 0.50005 0.50005 0 0 1 11.494141 10.994141 z M 9.4941406 12.994141 A 0.50005 0.50005 0 0 1 9.8535156 13.146484 L 11.853516 15.146484 A 0.50005 0.50005 0 1 1 11.146484 15.853516 L 9.1464844 13.853516 A 0.50005 0.50005 0 0 1 9.4941406 12.994141 z M 7.4941406 14.994141 A 0.50005 0.50005 0 0 1 7.8535156 15.146484 L 8.8535156 16.146484 A 0.50005 0.50005 0 1 1 8.1464844 16.853516 L 7.1464844 15.853516 A 0.50005 0.50005 0 0 1 7.4941406 14.994141 z M 5.4941406 16.994141 A 0.50005 0.50005 0 0 1 5.8535156 17.146484 L 6.8535156 18.146484 A 0.50005 0.50005 0 1 1 6.1464844 18.853516 L 5.1464844 17.853516 A 0.50005 0.50005 0 0 1 5.4941406 16.994141 z " style="opacity: 1; fill: #000000; fill-opacity: 1; stroke: none; stroke-width: 1px; stroke-linecap: butt; stroke-linejoin: round; stroke-miterlimit: 4; stroke-dasharray: none; stroke-dashoffset: 0; stroke-opacity: 1;" />
</svg>