<svg width="26" height="26" viewBox="0 0 26 26" xmlns="http://www.w3.org/2000/svg">
<path d="m 21.505618,7 c 0.27384,0.00324 0.494132,0.2261548 0.494141,0.5 l 0,11 c -2.51e-4,0.38574 -0.418716,0.62596 -0.751953,0.431641 l -8,-5.5 c -0.31904,-0.186382 -0.332703,-0.642515 -0.02539,-0.847657 l 8,-5.4999996 C 21.306205,7.0281123 21.404914,6.9988372 21.505618,7 Z m -10,0 c 0.27384,0.00324 0.494133,0.2261548 0.494141,0.5 l 0,11 c -2.51e-4,0.38574 -0.418716,0.62596 -0.751953,0.431641 l -8.0000003,-5.5 c -0.31904,-0.186382 -0.332703,-0.642515 -0.025391,-0.847657 L 11.222415,7.0839844 C 11.306205,7.0281124 11.404914,6.998837 11.505618,7 Z" style="opacity: 1; fill: #000000; fill-opacity: 1; stroke: none; stroke-width: 1px; stroke-linecap: butt; stroke-linejoin: round; stroke-miterlimit: 4; stroke-dasharray: none; stroke-dashoffset: 0; stroke-opacity: 1;" />
</svg>