<svg width="26" height="26" viewBox="0 0 26 26" xmlns="http://www.w3.org/2000/svg">
<path d="m 7.5058596,1.0000335 c -0.100704,-0.001162 -0.199413,0.028114 -0.283203,0.083988 l -4.5,3.5001618 c -0.307312,0.2051515 -0.29365,0.6613048 0.02539,0.8476954 l 4.5,3.5001619 c 0.333237,0.1943282 0.751702,-0.045903 0.751953,-0.4316603 l 0,-2.8731797 4.2480474,3.3048403 C 12.581284,9.1263688 12.999749,8.8861381 13,8.5003803 l 0,-2.5001156 c 3.575105,1e-7 6.765523,1.7343304 7.988281,5.0939853 1.222758,3.359656 0.213299,7.120266 -2.52539,9.418405 -2.738689,2.298139 -6.616759,2.637284 -9.7128914,0.849648 -3.096132,-1.787634 -4.741903,-5.317346 -4.121093,-8.838298 0.1409,-0.673493 -0.886095,-0.854856 -0.984375,-0.173838 -0.693215,3.9316 1.148238,7.881284 4.605468,9.87741 C 9.729339,23.081713 11.366554,23.500934 13,23.499999 c 2.183935,-0.0013 4.53465,-0.731474 6.284199,-2.199587 C 21.469003,19.467059 23.001505,16.749196 23,14 22.99935,12.813006 22.786058,11.832762 22.427734,10.750484 20.937367,6.2489959 16.992066,4.0001723 13,4.0001722 l 0,-2.5001155 c -9e-6,-0.2738577 -0.220301,-0.496823 -0.494141,-0.5000232 -0.100704,-0.001162 -0.199413,0.028114 -0.283203,0.083988 l -4.2226564,3.2853081 0,-2.8692732 c -8e-6,-0.2738577 -0.2203,-0.496823 -0.49414,-0.5000231 z" style="opacity: 1; fill: #000000; fill-opacity: 1; stroke: none; stroke-width: 1px; stroke-linecap: butt; stroke-linejoin: round; stroke-miterlimit: 4; stroke-dasharray: none; stroke-dashoffset: 0; stroke-opacity: 1;" />
</svg>