<svg width="26" height="26" viewBox="0 0 26 26" xmlns="http://www.w3.org/2000/svg">
<path d="M 23.505859,7 C 23.779699,7.00324 23.999991,7.2261548 24,7.5 l 0,11 c -2.51e-4,0.38574 -0.418716,0.62596 -0.751953,0.431641 l -8,-5.5 c -0.31904,-0.186382 -0.332704,-0.642515 -0.02539,-0.847657 l 8,-5.4999996 C 23.306445,7.0281123 23.405155,6.9988372 23.505859,7 Z m -10,0 C 13.779699,7.00324 13.999992,7.2261548 14,7.5 l 0,11 c -2.51e-4,0.38574 -0.418716,0.62596 -0.751953,0.431641 l -8,-5.5 C 4.929007,13.245259 4.915343,12.789126 5.222656,12.583984 l 8,-5.4999996 C 13.306445,7.0281124 13.405155,6.998837 13.505859,7 Z M 3.5,7 C 3.777,7 4,7.223 4,7.5 l 0,11 C 4,18.777 3.777,19 3.5,19 l -2,0 C 1.223,19 1,18.777 1,18.5 L 1,7.5 C 1,7.223 1.223,7 1.5,7 l 2,0 z" style="opacity: 1; fill: #000000; fill-opacity: 1; stroke: none; stroke-width: 1px; stroke-linecap: butt; stroke-linejoin: round; stroke-miterlimit: 4; stroke-dasharray: none; stroke-dashoffset: 0; stroke-opacity: 1;" />
</svg>