<svg width="26" height="26" viewBox="0 0 26 26" xmlns="http://www.w3.org/2000/svg">
<path d="M 4.492188,14.492188 C 4.216044,14.496488 3.99568,14.723855 4.000001,15 l 0,6.5 c 2.8e-5,0.276131 0.223869,0.499972 0.5,0.5 L 21.5,22 c 0.276131,-2.8e-5 0.499972,-0.223869 0.5,-0.5 l 0,-3 c 0.0048,-0.338081 -0.247609,-0.507121 -0.5,-0.507121 l -1,0 c -0.252391,0 -0.504781,0.16904 -0.5,0.507121 l 0,1.5 -13.999999,0 0,-5 c 0.0044,-0.282266 -0.225546,-0.512229 -0.507812,-0.507812 z" style="opacity: 1; fill: #000000; fill-opacity: 1; stroke: none; stroke-width: 1px; stroke-linecap: round; stroke-linejoin: round; stroke-miterlimit: 4; stroke-dasharray: none; stroke-dashoffset: 0; stroke-opacity: 1;" />
<path d="m 20.5,10.992188 c -0.252391,0 -0.504781,0.169731 -0.5,0.507812 l 0,1.5 -1.5,0 c -0.338081,-0.0048 -0.507812,0.247609 -0.507812,0.5 l 0,1 c 0,0.252391 0.169731,0.504781 0.507812,0.5 l 1.5,0 0,1.5 c -0.0048,0.338081 0.247609,0.507813 0.5,0.507812 l 1,0 c 0.252391,0 0.504782,-0.169731 0.5,-0.507812 l 0,-1.5 1.5,0 c 0.338081,0.0048 0.507812,-0.247609 0.507812,-0.5 l 0,-1 c 0,-0.252391 -0.169731,-0.504781 -0.507812,-0.5 l -1.5,0 0,-1.5 c 0.0048,-0.338081 -0.247609,-0.507812 -0.5,-0.507812 l -1,0 z" style="opacity: 1; fill: #000000; fill-opacity: 1; stroke: none; stroke-width: 1px; stroke-linecap: round; stroke-linejoin: miter; stroke-miterlimit: 4; stroke-dasharray: none; stroke-dashoffset: 0; stroke-opacity: 1;" />
<path d="m 7.5,3.9999999 c -0.338081,-0.00478 -0.50712,0.2476093 -0.50712,0.5 l 0,1 c 0,0.2523907 0.169039,0.5047811 0.50712,0.5 l 11,0 c 0.338081,0.00478 0.507121,-0.2476093 0.507121,-0.5 l 0,-1 c 0,-0.2523907 -0.16904,-0.5047813 -0.507121,-0.5 z" style="opacity: 1; fill: #000000; fill-opacity: 1; stroke: none; stroke-width: 1px; stroke-linecap: round; stroke-linejoin: miter; stroke-miterlimit: 4; stroke-dasharray: none; stroke-dashoffset: 0; stroke-opacity: 1;" />
<path d="m 9.000059,10.494291 c 0.0043,-0.27289 0.226856,-0.491861 0.499924,-0.491849 l 2.499771,0 0.499924,-2.49566 c -0.0096,-0.67571 1.009409,-0.67571 0.999848,0 l 0.499924,2.49566 2.499771,0 c 0.445251,1.7e-4 0.668193,0.538149 0.353462,0.85294 l -3.499619,4.498329 c -0.195235,0.195054 -0.511689,0.195054 -0.706924,0 L 9.146521,10.855382 c -0.0957,-0.0956 -0.148534,-0.22588 -0.146462,-0.361091 z" style="opacity: 1; fill: #000000; fill-opacity: 1; stroke: none; stroke-width: 1px; stroke-linecap: butt; stroke-linejoin: round; stroke-miterlimit: 4; stroke-dasharray: none; stroke-dashoffset: 0; stroke-opacity: 1;" />
<path d="M 7.5,17 C 7.161919,16.9952 6.99288,17.247609 6.99288,17.5 l 0,1 c 0,0.252391 0.169039,0.504781 0.50712,0.5 l 11,0 c 0.338081,0.0048 0.507121,-0.247609 0.507121,-0.5 l 0,-1 c 0,-0.252391 -0.16904,-0.504781 -0.507121,-0.5 z" style="opacity: 1; fill: #000000; fill-opacity: 1; stroke: none; stroke-width: 1px; stroke-linecap: round; stroke-linejoin: miter; stroke-miterlimit: 4; stroke-dasharray: none; stroke-dashoffset: 0; stroke-opacity: 1;" />
</svg>