<svg width="26" height="26" viewBox="0 0 26 26" xmlns="http://www.w3.org/2000/svg">
<path d="m 7.5000005,3.9999999 c -0.338081,-0.00478 -0.507121,0.2476093 -0.507121,0.5 l 0,1 c 0,0.2523907 0.16904,0.5047813 0.507121,0.5 l 10.9999995,0 c 0.338081,0.00478 0.507121,-0.2476093 0.507121,-0.5 l 0,-1 c 0,-0.2523907 -0.16904,-0.5047813 -0.507121,-0.5 z" style="opacity: 1; fill: #000000; fill-opacity: 1; stroke: none; stroke-width: 1px; stroke-linecap: round; stroke-linejoin: miter; stroke-miterlimit: 4; stroke-dasharray: none; stroke-dashoffset: 0; stroke-opacity: 1;" />
<path d="m 9.0000595,13.494291 c 0.0043,-0.27289 0.226856,-0.491861 0.499924,-0.491849 l 2.4997715,0 0.499924,-2.49566 c -0.0096,-0.6757096 1.009409,-0.6757096 0.999848,0 l 0.499924,2.49566 2.49977,0 c 0.445251,1.7e-4 0.668193,0.538149 0.353462,0.85294 l -3.499618,4.498329 c -0.195235,0.195054 -0.511689,0.195054 -0.706924,0 L 9.1465215,13.855382 c -0.0957,-0.0956 -0.148534,-0.22588 -0.146462,-0.361091 z" style="opacity: 1; fill: #000000; fill-opacity: 1; stroke: none; stroke-width: 1px; stroke-linecap: butt; stroke-linejoin: round; stroke-miterlimit: 4; stroke-dasharray: none; stroke-dashoffset: 0; stroke-opacity: 1;" />
<path d="M 4.4921885,14.492188 C 4.2160435,14.496488 3.9956795,14.723855 4.0000005,15 l 0,6.5 c 2.8e-5,0.276131 0.223869,0.499972 0.5,0.5 L 21.5,22 c 0.276131,-2.8e-5 0.499972,-0.223869 0.5,-0.5 L 22,15 c 0.0048,-0.338081 -0.247609,-0.507121 -0.5,-0.507121 l -1,0 c -0.252391,0 -0.504781,0.16904 -0.5,0.507121 l 0,5 -13.9999995,0 0,-5 c 0.0044,-0.282266 -0.225546,-0.512229 -0.507812,-0.507812 z" style="opacity: 1; fill: #000000; fill-opacity: 1; stroke: none; stroke-width: 1px; stroke-linecap: round; stroke-linejoin: round; stroke-miterlimit: 4; stroke-dasharray: none; stroke-dashoffset: 0; stroke-opacity: 1;" />
<path d="m 7.5000005,6.9999999 c -0.338081,-0.00478 -0.507121,0.2476093 -0.507121,0.5 l 0,1 c 0,0.2523907 0.16904,0.5047813 0.507121,0.5 l 10.9999995,0 c 0.338081,0.00478 0.507121,-0.2476093 0.507121,-0.5 l 0,-1 c 0,-0.2523907 -0.16904,-0.5047813 -0.507121,-0.5 z" style="opacity: 1; fill: #000000; fill-opacity: 1; stroke: none; stroke-width: 1px; stroke-linecap: round; stroke-linejoin: miter; stroke-miterlimit: 4; stroke-dasharray: none; stroke-dashoffset: 0; stroke-opacity: 1;" />
</svg>