<svg width="26" height="26" viewBox="0 0 26 26" xmlns="http://www.w3.org/2000/svg">
<path d="m 9.000062,13.494291 c 0.004,-0.27289 0.22685,-0.491861 0.49992,-0.491849 l 2.49977,0 0.49993,-5.49566 c -0.01,-0.67571 1.00941,-0.67571 0.99985,0 l 0.49992,5.49566 2.49977,0 c 0.44525,1.7e-4 0.66819,0.538149 0.35346,0.85294 l -3.49962,4.498329 c -0.19523,0.195054 -0.51169,0.195054 -0.70692,0 l -3.49962,-4.498329 c -0.0957,-0.0956 -0.14853,-0.22588 -0.14646,-0.361091 z" style="opacity: 1; fill: #000000; fill-opacity: 1; stroke: none; stroke-width: 1px; stroke-linecap: butt; stroke-linejoin: round; stroke-miterlimit: 4; stroke-dasharray: none; stroke-dashoffset: 0; stroke-opacity: 1;" />
<path d="M 4.492192,14.492188 C 4.216042,14.496488 3.995682,14.723855 4.000002,15 l 0,6.5 c 3e-5,0.276131 0.22387,0.499972 0.5,0.5 l 17,0 c 0.27613,-2.8e-5 0.49997,-0.223869 0.5,-0.5 l 0,-6.5 c 0.005,-0.338081 -0.24761,-0.507121 -0.5,-0.507121 l -1,0 c -0.25239,0 -0.50478,0.16904 -0.5,0.507121 l 0,5 -14,0 0,-5 c 0.004,-0.282266 -0.22555,-0.512229 -0.50781,-0.507812 z" style="opacity: 1; fill: #000000; fill-opacity: 1; stroke: none; stroke-width: 1px; stroke-linecap: round; stroke-linejoin: round; stroke-miterlimit: 4; stroke-dasharray: none; stroke-dashoffset: 0; stroke-opacity: 1;" />
<path d="M 7.500002,4 C 7.161922,3.9952 6.992882,4.247609 6.992882,4.5 l 0,1 c 0,0.252391 0.16904,0.504781 0.50712,0.5 l 11,0 c 0.33808,0.0048 0.50712,-0.247609 0.50712,-0.5 l 0,-1 c 0,-0.252391 -0.16904,-0.504781 -0.50712,-0.5 z" style="opacity: 1; fill: #000000; fill-opacity: 1; stroke: none; stroke-width: 1px; stroke-linecap: round; stroke-linejoin: miter; stroke-miterlimit: 4; stroke-dasharray: none; stroke-dashoffset: 0; stroke-opacity: 1;" />
<path d="m 15.500002,8 c -0.33808,-0.0048 -0.50712,0.247609 -0.50712,0.5 l 0,1 c 0,0.252391 0.16904,0.504781 0.50712,0.5 l 1,0 c 0.33808,0.0048 0.50712,-0.247609 0.50712,-0.5 l 0,-1 c 0,-0.252391 -0.16904,-0.504781 -0.50712,-0.5 z" style="opacity: 1; fill: #000000; fill-opacity: 1; stroke: none; stroke-width: 1px; stroke-linecap: round; stroke-linejoin: miter; stroke-miterlimit: 4; stroke-dasharray: none; stroke-dashoffset: 0; stroke-opacity: 1;" />
<path d="m 18.500002,8 c -0.33808,-0.0048 -0.50712,0.247609 -0.50712,0.5 l 0,1 c 0,0.252391 0.16904,0.504781 0.50712,0.5 l 1,0 c 0.33808,0.0048 0.50712,-0.247609 0.50712,-0.5 l 0,-1 c 0,-0.252391 -0.16904,-0.504781 -0.50712,-0.5 z" style="opacity: 1; fill: #000000; fill-opacity: 1; stroke: none; stroke-width: 1px; stroke-linecap: round; stroke-linejoin: miter; stroke-miterlimit: 4; stroke-dasharray: none; stroke-dashoffset: 0; stroke-opacity: 1;" />
<path d="m 21.500002,8 c -0.33808,-0.0048 -0.50712,0.247609 -0.50712,0.5 l 0,1 c 0,0.252391 0.16904,0.504781 0.50712,0.5 l 1,0 c 0.33808,0.0048 0.50712,-0.247609 0.50712,-0.5 l 0,-1 c 0,-0.252391 -0.16904,-0.504781 -0.50712,-0.5 z" style="opacity: 1; fill: #000000; fill-opacity: 1; stroke: none; stroke-width: 1px; stroke-linecap: round; stroke-linejoin: miter; stroke-miterlimit: 4; stroke-dasharray: none; stroke-dashoffset: 0; stroke-opacity: 1;" />
</svg>