<svg width="26" height="26" viewBox="0 0 26 26" xmlns="http://www.w3.org/2000/svg">
<path d="M 5.4023438,4.4472657 5.1425781,5.4121097 11.041016,7.3964848 A 2,2 0 0 0 12,8.7304692 V 19.041016 A 6,3 0 0 0 7,22 h 6 6 A 6,3 0 0 0 14,19.046875 V 8.728516 a 2,2 0 0 0 0.498047,-0.40625 L 20.597656,9.5527348 20.857422,8.587891 14.958984,6.6035157 A 2,2 0 0 0 13,5.0000007 2,2 0 0 0 11.501953,5.6777347 Z M 13,6.0000007 a 1,1 0 0 1 1,1 1,1 0 0 1 -1,0.9999997 1,1 0 0 1 -1,-0.9999997 1,1 0 0 1 1,-1 z M 3,12 a 3.9999998,3 0 0 0 4,3 3.9999998,3 0 0 0 4,-3 H 7 Z m 12,3 a 3.9999998,3 0 0 0 4,3 3.9999998,3 0 0 0 4,-3 h -4 z" style="opacity: 1; fill: #000000; fill-opacity: 1; stroke: none; stroke-width: 1; stroke-linecap: round; stroke-linejoin: round; stroke-miterlimit: 4; stroke-dasharray: none; stroke-dashoffset: 2.79999995; stroke-opacity: 1;" />
<path d="M 16.5,15 19,9.0000004 21.5,15 M 4.5,12 7,6.0000007 9.5,12" style="fill: none; stroke: #000000; stroke-width: 0.75; stroke-linecap: round; stroke-linejoin: round; stroke-miterlimit: 4; stroke-dasharray: none; stroke-opacity: 1;" />
</svg>