<svg width="26" height="26" viewBox="0 0 26 26" xmlns="http://www.w3.org/2000/svg">
<path d="M 8.5,4 C 6.578848,4 5,5.578848 5,7.5 5,9.421152 6.578848,11 8.5,11 c 0.5982022,0 1.153942,-0.168675 1.648438,-0.4375 l 1.9375,1.9375 -1.9375,1.9375 C 9.653942,14.168675 9.0982022,14 8.5,14 6.578848,14 5,15.578848 5,17.5 5,19.421152 6.578848,21 8.5,21 10.421152,21 12,19.421152 12,17.5 12,16.901798 11.831325,16.346058 11.5625,15.851562 L 21.414062,6 18.585938,6 13.5,11.085938 11.5625,9.148438 C 11.831325,8.6539427 12,8.0982022 12,7.5 12,5.578848 10.421152,4 8.5,4 Z m 0,2 C 9.3402718,6 10,6.6597282 10,7.5 10,8.3402718 9.3402718,9 8.5,9 7.6597282,9 7,8.3402718 7,7.5 7,6.6597282 7.6597282,6 8.5,6 Z m 5,6 C 13.776142,12 14,12.223858 14,12.5 14,12.776142 13.776142,13 13.5,13 13.223858,13 13,12.776142 13,12.5 13,12.223858 13.223858,12 13.5,12 Z m 2.207031,1.292969 -1.414062,1.414062 L 18.585938,19 21.414062,19 Z M 8.5,16 C 9.3402718,16 10,16.659728 10,17.5 10,18.340272 9.3402718,19 8.5,19 7.6597282,19 7,18.340272 7,17.5 7,16.659728 7.6597282,16 8.5,16 Z" style="opacity: 1; fill: #000000; fill-opacity: 1; stroke: none; stroke-width: 2; stroke-linecap: butt; stroke-linejoin: round; stroke-miterlimit: 4; stroke-dasharray: none; stroke-dashoffset: 0; stroke-opacity: 1;" />
</svg>