<svg width="26" height="26" viewBox="0 0 26 26" xmlns="http://www.w3.org/2000/svg">
<path d="m 5.0000005,3.4999987 -1.5,1.5 2,2.5 h 2 v -2 z M 18,2.9999987 c -2.761424,-3e-6 -5.000002,2.238575 -5,5 0.0017,0.5481011 0.107387,1.0880001 0.285156,1.6054688 L 14,8.9999987 16,10.999999 c 0,0 -1,1 -0.5,1.5 0.5,0.5 1.5,-0.5 1.5,-0.5 l 1.060547,0.996094 C 20.793761,12.963301 23.000003,10.740988 23,7.9999987 22.999056,7.3507757 22.871685,6.7079516 22.625,6.1074206 l -3.599609,3.5996093 c -0.391737,0.3917381 -1.024279,0.3917371 -1.416016,0 L 16.292969,8.3906237 c -0.391737,-0.391737 -0.391737,-1.0242776 0,-1.4160156 L 19.892578,3.3749987 C 19.292047,3.1283137 18.649222,3.0009427 18,2.9999987 Z m -4,7 -4,4.0000003 1,1 c 0,0 1.000001,-1 2,0 1,1 0,2 0,2 l 6,6 h 2 l 2,-2 v -2 l -6,-6 c 0,0 -1,1 -2,0 -1,-1 0,-2 0,-2 z m -5.0820305,3.9179693 -5.185547,4.814453 c -0.45241,0.452411 -0.732422,1.077221 -0.732422,1.767578 0,1.380713 1.11929,2.499997 2.5,2.5 0.69036,1e-6 1.315168,-0.28001 1.767578,-0.732422 l 4.8125005,-5.18164 c 0,0 0.919921,-1.085938 0.419922,-1.585938 -0.5,-0.5 -1.500001,0.5 -1.500001,0.5 z m 7.5761715,0.710937 c 0.09239,-0.0073 0.188575,0.02298 0.271484,0.105469 l 5,5 c 0.354248,0.354167 -0.177002,0.885417 -0.53125,0.53125 l -5,-5 c -0.259576,-0.259576 -0.0174,-0.614824 0.259766,-0.636719 z m -1.513672,1.486328 c 0.09479,-0.0048 0.195593,0.02958 0.285156,0.119141 l 5,5 c 0.354248,0.354167 -0.177002,0.885417 -0.53125,0.53125 l -5,-5 c -0.270651,-0.270651 -0.03828,-0.635934 0.246094,-0.650391 z m -9.4804685,2.884766 c 0.82843,-3e-6 1.5,0.671572 1.5,1.5 0,0.828428 -0.67157,1.500003 -1.5,1.5 -0.82843,3e-6 -1.5,-0.671572 -1.5,-1.5 0,-0.828428 0.67157,-1.500003 1.5,-1.5 z" style="opacity: 1; fill: #000000; fill-opacity: 1; stroke: #1e4177; stroke-width: 0; stroke-linecap: round; stroke-linejoin: round; stroke-miterlimit: 4; stroke-dasharray: none; stroke-dashoffset: 0; stroke-opacity: 1;" />
<path d="M 5.5000005,5.4999987 15,14.999999" style="fill: none; stroke: #000000; stroke-width: 1px; stroke-linecap: butt; stroke-linejoin: miter; stroke-opacity: 1;" />
</svg>