<svg width="26" height="26" viewBox="0 0 26 26" xmlns="http://www.w3.org/2000/svg">
<path d="m 4.5,3.5000004 -1.5,1.5 L 5,7.5 h 2 v -2 z M 13.5,10 l -4,4 1,1 c 0,0 1,-1 2,0 1,1 0,2 0,2 l 6,6 h 2 l 2,-2 v -2 l -6,-6 c 0,0 -1,1 -2,0 -1,-1 0,-2 0,-2 z m 2.765625,4.734375 5,5 c 0.354248,0.354167 -0.177002,0.885417 -0.53125,0.53125 l -5,-5 c -0.346101,-0.346101 0.199616,-0.861222 0.53125,-0.53125 z m -1.5,1.5 5,5 c 0.354248,0.354167 -0.177002,0.885417 -0.53125,0.53125 l -5,-5 c -0.360868,-0.360868 0.172997,-0.889503 0.53125,-0.53125 z" style="fill: #000000; fill-opacity: 1; stroke: none; stroke-width: 1px; stroke-linecap: butt; stroke-linejoin: miter; stroke-opacity: 1;" />
<path d="M 5,5.5 14.5,15" style="fill: none; stroke: #000000; stroke-width: 1px; stroke-linecap: butt; stroke-linejoin: miter; stroke-opacity: 1;" />
</svg>