<svg width="26" height="26" viewBox="0 0 26 26" xmlns="http://www.w3.org/2000/svg">
<rect x="8.4995193" y="10.5" width="6" height="4" rx="0" ry="0" style="opacity: 1; fill: none; fill-opacity: 1; stroke: #000000; stroke-width: 1; stroke-linecap: butt; stroke-linejoin: miter; stroke-miterlimit: 4; stroke-dasharray: 0.99999999, 0.99999999; stroke-dashoffset: 0.5; stroke-opacity: 1;" />
<path d="m 10.499518,12.5 h 2" style="fill: none; stroke: #000000; stroke-width: 1px; stroke-linecap: round; stroke-linejoin: miter; stroke-opacity: 1;" />
<path d="m 17.999518,10.5 h 4.5 v 4 h -3.5" style="opacity: 1; fill: none; fill-opacity: 1; stroke: #000000; stroke-width: 1; stroke-linecap: butt; stroke-linejoin: miter; stroke-miterlimit: 4; stroke-dasharray: 1, 1; stroke-dashoffset: 0; stroke-opacity: 1;" />
<path d="m 3.4995181,7 a 0.50005,0.50005 0 0 0 -0.458985,0.697266 l 3,7 A 0.50005,0.50005 0 0 0 6.5170961,15 0.50005,0.50005 0 0 0 6.9995181,14.5 v -7 a 0.50005,0.50005 0 0 0 -0.5,-0.5 z M 16.48194,10 a 0.50005,0.50005 0 0 0 -0.482422,0.5 v 7 a 0.50005,0.50005 0 0 0 0.5,0.5 h 3 a 0.50005,0.50005 0 0 0 0.458984,-0.697266 l -3,-7 A 0.50005,0.50005 0 0 0 16.48194,10 Z" style="opacity: 1; fill: #000000; fill-opacity: 1; stroke: none; stroke-width: 1px; stroke-linecap: butt; stroke-linejoin: round; stroke-miterlimit: 4; stroke-dasharray: none; stroke-dashoffset: 0; stroke-opacity: 1;" />
</svg>