<svg width="26" height="26" viewBox="0 0 26 26" xmlns="http://www.w3.org/2000/svg">
<path d="M 6.5 4 C 6.223 4 6 4.223 6 4.5 L 6 12.183594 C 6.3142053 12.071248 6.6482631 12 7 12 C 7.3517369 12 7.6857947 12.07125 8 12.183594 L 8 4.5 C 8 4.223 7.777 4 7.5 4 L 6.5 4 z M 12.5 4 C 12.223 4 12 4.223 12 4.5 L 12 6.1835938 C 12.314205 6.0712478 12.648263 6 13 6 C 13.351737 6 13.685795 6.071248 14 6.1835938 L 14 4.5 C 14 4.223 13.777 4 13.5 4 L 12.5 4 z M 18.5 4 C 18.223 4 18 4.223 18 4.5 L 18 14.183594 C 18.314205 14.071248 18.648263 14 19 14 C 19.351737 14 19.685795 14.07125 20 14.183594 L 20 4.5 C 20 4.223 19.777 4 19.5 4 L 18.5 4 z M 13 7 A 2 2 0 0 0 11 9 A 2 2 0 0 0 13 11 A 2 2 0 0 0 15 9 A 2 2 0 0 0 13 7 z M 12 11.816406 L 12 21.5 C 12 21.777 12.223 22 12.5 22 L 13.5 22 C 13.777 22 14 21.777 14 21.5 L 14 11.816406 C 13.685795 11.928752 13.351737 12 13 12 C 12.648263 12 12.314205 11.92875 12 11.816406 z M 7 13 A 2 2 0 0 0 5 15 A 2 2 0 0 0 7 17 A 2 2 0 0 0 9 15 A 2 2 0 0 0 7 13 z M 19 15 A 2 2 0 0 0 17 17 A 2 2 0 0 0 19 19 A 2 2 0 0 0 21 17 A 2 2 0 0 0 19 15 z M 6 17.816406 L 6 21.5 C 6 21.777 6.223 22 6.5 22 L 7.5 22 C 7.777 22 8 21.777 8 21.5 L 8 17.816406 C 7.6857947 17.928752 7.3517369 18 7 18 C 6.6482631 18 6.3142053 17.928752 6 17.816406 z M 18 19.816406 L 18 21.5 C 18 21.777 18.223 22 18.5 22 L 19.5 22 C 19.777 22 20 21.777 20 21.5 L 20 19.816406 C 19.685795 19.928752 19.351737 20 19 20 C 18.648263 20 18.314205 19.92875 18 19.816406 z " style="opacity: 1; fill: #000000; fill-opacity: 1; stroke: none; stroke-width: 1px; stroke-linecap: round; stroke-linejoin: round; stroke-miterlimit: 4; stroke-dasharray: none; stroke-dashoffset: 0; stroke-opacity: 1;" />
</svg>