<svg width="26" height="26" viewBox="0 0 26 26" xmlns="http://www.w3.org/2000/svg">
<path d="m 21.5,5.5517648 c -3.5,0 -8.5,-2 -8.5,-2 0,0 -5,2 -8.5,2 L 4.5,12 c 0,8 8.5,12.5 8.5,12.5 0,0 8.5,-4.5 8.5,-12.5 z" style="fill: none; stroke: #000000; stroke-width: 1px; stroke-linecap: butt; stroke-linejoin: round; stroke-opacity: 1;" />
<path d="M 13,5.5 C 13,5.5 9,7 6,7 l 0,4 c 0,7 3.3644361,8.561977 7,11.5 C 16.635564,19.561977 20,18 20,11 L 20,7 C 17,7 13,5.5 13,5.5 Z" style="opacity: 1; fill: #000000; fill-opacity: 1; stroke: none; stroke-width: 1px; stroke-linecap: square; stroke-linejoin: miter; stroke-miterlimit: 4; stroke-dasharray: none; stroke-dashoffset: 0; stroke-opacity: 1;" />
</svg>