<svg width="26" height="26" viewBox="0 0 26 26" xmlns="http://www.w3.org/2000/svg">
<path d="M 19.494141 4 C 19.221251 4.0043 18.999989 4.226931 19 4.5 L 19 7 C 17.011905 7 15.42261 7.751772 14.183594 8.7988281 C 12.944577 9.8458843 12.005319 11.158924 11.074219 12.400391 C 10.143119 13.641857 9.2230162 14.809656 8.1289062 15.640625 C 7.0347969 16.471594 5.7916667 17 4 17 L 3.5 17 C 3.223 17 3 17.223 3 17.5 L 3 18.5 C 3 18.777 3.223 19 3.5 19 L 4 19 C 6.2083333 19 7.9652031 18.278406 9.3398438 17.234375 C 10.714484 16.190344 11.731881 14.858143 12.675781 13.599609 C 13.619681 12.341076 14.492923 11.154116 15.472656 10.326172 C 16.45239 9.4982277 17.488095 9 19 9 L 19 11.5 C 19.00017 11.945251 19.540679 12.168247 19.855469 11.853516 L 24.353516 8.3535156 C 24.548566 8.1582806 24.548566 7.8417194 24.353516 7.6464844 L 19.855469 4.1464844 C 19.759869 4.0507844 19.629352 3.997928 19.494141 4 z M 3.5 7 C 3.223 7 3 7.223 3 7.5 L 3 8.5 C 3 8.777 3.223 9 3.5 9 L 4 9 C 5.7916667 9 7.034797 9.5284056 8.1289062 10.359375 C 8.7921724 10.863121 9.3882559 11.49872 9.9648438 12.191406 L 11.222656 10.564453 C 10.66402 9.9210934 10.050073 9.3050394 9.3398438 8.765625 C 7.965203 7.7215944 6.2083333 7 4 7 L 3.5 7 z M 13.767578 13.818359 L 12.5 15.455078 C 13.010121 16.075653 13.558245 16.672709 14.183594 17.201172 C 15.42261 18.248228 17.011905 19 19 19 L 19 21.5 C 19.00017 21.945251 19.540679 22.168247 19.855469 21.853516 L 24.353516 18.353516 C 24.548566 18.158281 24.548566 17.841719 24.353516 17.646484 L 19.855469 14.146484 C 19.759869 14.050784 19.629352 13.997928 19.494141 14 C 19.221251 14.0043 18.999989 14.226931 19 14.5 L 19 17 C 17.488095 17 16.45239 16.501772 15.472656 15.673828 C 14.879101 15.172232 14.322352 14.519581 13.767578 13.818359 z " style="opacity: 1; fill: #000000; fill-opacity: 1; stroke: none; stroke-width: 2; stroke-linecap: butt; stroke-linejoin: miter; stroke-miterlimit: 4; stroke-dasharray: none; stroke-dashoffset: 0; stroke-opacity: 1;" />
</svg>