<svg width="26" height="26" viewBox="0 0 26 26" xmlns="http://www.w3.org/2000/svg">
<path d="M 12.5,4 C 12.223,4 12,4.223 12,4.5 V 10 h 1 V 6 h 1 V 4.5 C 14,4.223 13.777,4 13.5,4 Z M 12,11 v 9.042969 C 9.6744,20.232849 8.00304,21.05058 8,22 h 1 c 0,-0.55228 1.79086,-1 4,-1 2.20914,0 4,0.44772 4,1 h 1 c 0.002,-0.95089 -1.67081,-1.770757 -4,-1.960938 V 11 Z" style="opacity: 1; fill: #000000; fill-opacity: 1; stroke: none; stroke-width: 1; stroke-linecap: butt; stroke-linejoin: miter; stroke-miterlimit: 4; stroke-dasharray: none; stroke-dashoffset: 2.79999995; stroke-opacity: 1;" />
<path d="m 13.00002,6.5 h 7 l 1.5,1.5 -1.5,1.5 h -7 m 2.5,2 h 2.5 l 1.5,1.5 -1.5,1.5 h -2.5 M 10.5,8.5 H 7 L 5.5,10 7,11.5 h 3.5" style="fill: none; stroke: #000000; stroke-width: 1; stroke-linecap: round; stroke-linejoin: miter; stroke-miterlimit: 4; stroke-dasharray: none; stroke-dashoffset: 0; stroke-opacity: 1;" />
</svg>