<svg width="26" height="26" viewBox="0 0 26 26" xmlns="http://www.w3.org/2000/svg">
<path d="M 12.5,4 C 12.223,4 12,4.223 12,4.5 V 20.04297 C 9.6744,20.23285 8.00304,21.05058 8,22 h 10 c 0.002,-0.95089 -1.67081,-1.77076 -4,-1.96094 V 10 h 6 L 22,8 20,6 H 14 V 4.5 C 14,4.223 13.777,4 13.5,4 Z M 7,8 5,10 7,12 h 3.5 c 0.277,0 0.5,-0.223 0.5,-0.5 v -3 C 11,8.223 10.777,8 10.5,8 Z m 8.5,3 C 15.223,11 15,11.223 15,11.5 v 3 c 0,0.277 0.223,0.5 0.5,0.5 H 18 l 2,-2 -2,-2 z" style="opacity: 1; fill: #000000; fill-opacity: 1; stroke: none; stroke-width: 1; stroke-linecap: butt; stroke-linejoin: miter; stroke-miterlimit: 4; stroke-dasharray: none; stroke-dashoffset: 2.79999995; stroke-opacity: 1;" />
</svg>