<svg width="26" height="26" viewBox="0 0 26 26" xmlns="http://www.w3.org/2000/svg">
<path d="m 5.000059,17.494292 c 0.0043,-0.272891 0.226856,-0.49186 0.499924,-0.49185 l 2.499771,0 0.499924,-11.49566 c -0.0096,-0.67571 1.009409,-0.67571 0.999848,0 l 0.499924,11.495661 2.499771,0 c 0.445251,1.7e-4 0.668193,0.538149 0.353462,0.85294 l -3.499619,4.498329 c -0.195235,0.19505 -0.511689,0.19505 -0.706924,0 l -3.499619,-4.49833 c -0.0957,-0.0956 -0.148534,-0.22588 -0.146462,-0.36109 z" style="opacity: 1; fill: #000000; fill-opacity: 1; stroke: none; stroke-width: 1px; stroke-linecap: butt; stroke-linejoin: round; stroke-miterlimit: 4; stroke-dasharray: none; stroke-dashoffset: 0; stroke-opacity: 1;" />
<path d="m 15.5,6.5 2,-1 0,6 m -2,0 4,0 m 0,4.5 C 20,19 19,20.5 17,20.5 15.945907,20.5 15,20 15,20 m 4.5,-3.75 A 2.25,1.75 0 0 1 17.25,18 2.25,1.75 0 0 1 15,16.25 2.25,1.75 0 0 1 17.25,14.5 2.25,1.75 0 0 1 19.5,16.25 Z" style="fill: none; stroke: #000000; stroke-width: 1px; stroke-linecap: round; stroke-linejoin: round; stroke-opacity: 1;" />
</svg>