<svg width="26" height="26" viewBox="0 0 26 26" xmlns="http://www.w3.org/2000/svg">
<path d="m 5.000059,17.49429 c 0.0043,-0.27289 0.226856,-0.49186 0.499924,-0.49185 l 2.499771,0 0.499924,-11.49566 c -0.0096,-0.67571 1.009409,-0.67571 0.999848,0 l 0.499924,11.49566 2.499771,0 c 0.445251,1.7e-4 0.668193,0.53815 0.353462,0.85294 l -3.499619,4.49833 c -0.195235,0.19505 -0.511689,0.19505 -0.706924,0 L 5.146521,17.85538 C 5.050821,17.75978 4.997987,17.6295 5.000059,17.49429 Z" style="opacity: 1; fill: #000000; fill-opacity: 1; stroke: none; stroke-width: 1px; stroke-linecap: butt; stroke-linejoin: round; stroke-miterlimit: 4; stroke-dasharray: none; stroke-dashoffset: 0; stroke-opacity: 1;" />
<rect x="12" y="13" width="9" height="2" rx="0.5" ry="0.5" style="opacity: 1; fill: #000000; fill-opacity: 1; stroke: none; stroke-width: 2; stroke-linecap: round; stroke-linejoin: round; stroke-miterlimit: 4; stroke-dasharray: none; stroke-dashoffset: 0; stroke-opacity: 1;" />
<rect x="12" y="10" width="7" height="2" rx="0.5" ry="0.5" style="opacity: 1; fill: #000000; fill-opacity: 1; stroke: none; stroke-width: 2; stroke-linecap: round; stroke-linejoin: round; stroke-miterlimit: 4; stroke-dasharray: none; stroke-dashoffset: 0; stroke-opacity: 1;" />
<rect x="12" y="7" width="5" height="2" rx="0.5" ry="0.5" style="opacity: 1; fill: #000000; fill-opacity: 1; stroke: none; stroke-width: 2; stroke-linecap: round; stroke-linejoin: round; stroke-miterlimit: 4; stroke-dasharray: none; stroke-dashoffset: 0; stroke-opacity: 1;" />
</svg>