<svg width="26" height="26" viewBox="0 0 26 26" xmlns="http://www.w3.org/2000/svg">
<path d="m 5.000059,17.49429 c 0.0043,-0.27289 0.226856,-0.49186 0.499924,-0.49185 l 2.499771,0 0.499924,-11.495658 c -0.0096,-0.67571 1.009409,-0.67571 0.999848,0 l 0.499924,11.495658 2.499771,0 c 0.445251,1.7e-4 0.668193,0.53815 0.353462,0.85294 l -3.499619,4.49833 c -0.195235,0.19505 -0.511689,0.19505 -0.706924,0 L 5.146521,17.85538 C 5.050821,17.75978 4.997987,17.6295 5.000059,17.49429 Z" style="opacity: 1; fill: #000000; fill-opacity: 1; stroke: none; stroke-width: 1px; stroke-linecap: butt; stroke-linejoin: round; stroke-miterlimit: 4; stroke-dasharray: none; stroke-dashoffset: 0; stroke-opacity: 1;" />
<path d="m 15,5.5 4,0 -4,6 4,0 m -3.5,7 3,0 m -4,2 2.5,-6 2.5,6" style="fill: none; stroke: #000000; stroke-width: 1px; stroke-linecap: round; stroke-linejoin: round; stroke-opacity: 1;" />
</svg>