<svg width="26" height="26" viewBox="0 0 26 26" xmlns="http://www.w3.org/2000/svg">
<path d="m 11.484375,4.9987111 c -0.146431,0.00455 -0.283502,0.073085 -0.375,0.1875 L 7,10 4.5,10 c -0.2761309,2.8e-5 -0.4999724,0.223869 -0.5,0.5 l 0,5 c 2.76e-5,0.276131 0.2238691,0.499972 0.5,0.5 l 2.5,0 4.109375,4.811211 c 0.295293,0.369363 0.89086,0.160392 0.890625,-0.3125 L 12,5.4987111 c 1.09e-4,-0.2823489 -0.233413,-0.5087943 -0.515625,-0.5 z" style="opacity: 1; fill: #000000; fill-opacity: 1; stroke: none; stroke-width: 1px; stroke-linecap: round; stroke-linejoin: round; stroke-miterlimit: 4; stroke-dasharray: none; stroke-dashoffset: 0; stroke-opacity: 1;" />
<path d="m 21.181981,9.109624 c -0.195869,-0.195869 -0.511239,-0.195869 -0.707107,0 L 18,11.584497 15.525126,9.109624 c -0.195868,-0.195869 -0.511238,-0.195869 -0.707107,0 L 14.110913,9.81673 c -0.195869,0.195869 -0.195869,0.511239 0,0.707107 l 2.474873,2.474874 -2.474873,2.474874 c -0.195869,0.195868 -0.195869,0.511238 0,0.707107 l 0.707106,0.707106 c 0.195869,0.195869 0.511239,0.195869 0.707107,0 L 18,14.412925 l 2.474874,2.474873 c 0.195868,0.195869 0.511238,0.195869 0.707107,0 l 0.707106,-0.707106 c 0.195869,-0.195869 0.195869,-0.511239 0,-0.707107 l -2.474873,-2.474874 2.474873,-2.474874 c 0.195869,-0.195868 0.195869,-0.511238 0,-0.707107 z" style="opacity: 1; fill: #000000; fill-opacity: 1; stroke: none; stroke-width: 1; stroke-linecap: round; stroke-linejoin: round; stroke-miterlimit: 4; stroke-dasharray: none; stroke-dashoffset: 0; stroke-opacity: 1;" />
</svg>