<svg width="26" height="26" viewBox="0 0 26 26" xmlns="http://www.w3.org/2000/svg">
<path d="m 11.484375,4.9987111 c -0.146431,0.00455 -0.283502,0.073085 -0.375,0.1875 L 7,10 4.5,10 c -0.2761309,2.8e-5 -0.4999724,0.223869 -0.5,0.5 l 0,5 c 2.76e-5,0.276131 0.2238691,0.499972 0.5,0.5 l 2.5,0 4.109375,4.811211 c 0.295293,0.369363 0.89086,0.160392 0.890625,-0.3125 L 12,5.4987111 c 1.09e-4,-0.2823489 -0.233413,-0.5087943 -0.515625,-0.5 z" style="opacity: 1; fill: #000000; fill-opacity: 1; stroke: none; stroke-width: 1px; stroke-linecap: round; stroke-linejoin: round; stroke-miterlimit: 4; stroke-dasharray: none; stroke-dashoffset: 0; stroke-opacity: 1;" />
<path d="m 13,8 0,2 c 1.315351,0 2.5,1.263746 2.5,3 0,1.736254 -1.184649,3 -2.5,3 l 0,2 c 2.550642,0 4.5,-2.317976 4.5,-5 0,-2.682024 -1.949358,-4.9999999 -4.5,-5 z" style="opacity: 1; fill: #000000; fill-opacity: 1; stroke: none; stroke-width: 2; stroke-linecap: butt; stroke-linejoin: round; stroke-miterlimit: 4; stroke-dasharray: none; stroke-dashoffset: 0; stroke-opacity: 1;" />
</svg>