<svg width="26" height="26" viewBox="0 0 26 26" xmlns="http://www.w3.org/2000/svg">
<path d="m 17.247849,12.500232 c -0.136157,-0.004 -0.268457,0.04381 -0.348481,0.158235 l -5.349364,5.719627 -2.4493727,-2.389047 c -0.2008463,-0.19588 -0.5241525,-0.1959 -0.7249989,0 l -0.7249979,0.707147 c -0.2008463,0.19589 -0.2008463,0.511239 0,0.70714 l 3.5368705,3.449749 c 0.200847,0.19589 0.524152,0.19589 0.724998,0 l 6.436863,-6.778389 c 0.200846,-0.1959 0.200846,-0.511238 0,-0.707138 l -0.724999,-0.709089 c -0.100432,-0.09792 -0.24036,-0.154234 -0.376518,-0.158235 z" style="opacity: 1; fill: #000000; fill-opacity: 1; stroke: none; stroke-width: 1px; stroke-linecap: butt; stroke-linejoin: round; stroke-miterlimit: 4; stroke-dasharray: none; stroke-dashoffset: 0; stroke-opacity: 1;" />
<path d="m 13.25,8.000001 c 0.6925,0 1.25,0.5575 1.25,1.25 0,0.6925 -0.5575,1.250001 -1.25,1.250001 H 11.5 V 5.500001 h 1.75 c 0.6925,0 1.25,0.5575 1.25,1.25 0,0.6925 -0.5575,1.25 -1.25,1.25 H 11.5 M 6.0023523,9.4830815 H 9.000265 M 19.492957,5.5280521 c -3.997216,-0.4943786 -3.997216,5.4381669 0,4.9437879 m -13.9902567,0 L 7.5013084,5.5280521 9.499916,10.47184" style="opacity: 1; fill: none; fill-opacity: 1; stroke: #000000; stroke-width: 1; stroke-linecap: round; stroke-linejoin: round; stroke-miterlimit: 4; stroke-dasharray: none; stroke-dashoffset: 0; stroke-opacity: 1;" />
</svg>