<svg width="26" height="26" viewBox="0 0 26 26" xmlns="http://www.w3.org/2000/svg">
<path d="M 12.976562,4 A 0.50005,0.50005 0 0 0 12.542969,4.296875 L 10.044922,9.9199219 4.4453125,10.541016 a 0.50005,0.50005 0 0 0 -0.2714844,0.876953 l 4.3300781,3.710937 -1.8671874,6.226563 a 0.50005,0.50005 0 0 0 0.7558593,0.560547 L 13,18.177734 l 5.607422,3.738282 a 0.50005,0.50005 0 0 0 0.751953,-0.574219 L 17.496094,15.75 21.853516,11.392578 A 0.50005,0.50005 0 0 0 21.554688,10.541016 L 15.955078,9.9199219 13.457031,4.296875 A 0.50005,0.50005 0 0 0 12.976562,4 Z" style="opacity: 1; fill: #000000; fill-opacity: 1; stroke: none; stroke-width: 1px; stroke-linecap: butt; stroke-linejoin: round; stroke-miterlimit: 4; stroke-dasharray: none; stroke-dashoffset: 0; stroke-opacity: 1;" />
</svg>