<svg width="26" height="26" viewBox="0 0 26 26" xmlns="http://www.w3.org/2000/svg">
<path d="m 12.976562,4 c -0.189069,0.00892 -0.356897,0.12383 -0.433593,0.296875 L 10.044922,9.9199219 4.4453125,10.541016 c -0.4356221,0.04713 -0.6042837,0.59194 -0.2714844,0.876953 l 4.3300781,3.710937 -1.8671874,6.226563 c -0.1352245,0.448736 0.3657153,0.820234 0.7558593,0.560547 L 13,18.177734 l 5.607422,3.738282 c 0.396211,0.264483 0.902776,-0.122349 0.751953,-0.574219 L 17.496094,15.75 21.853516,11.392578 c 0.298014,-0.296601 0.119178,-0.806224 -0.298828,-0.851562 L 15.955078,9.9199219 13.457031,4.296875 C 13.37344,4.1082863 13.182622,3.9903823 12.976562,4 Z M 13,5.7324219 15.158203,10.587891 c 0.07254,0.162203 0.225704,0.273731 0.402344,0.292968 l 4.851562,0.539063 -3.841797,3.841797 c -0.134033,0.133867 -0.180914,0.331979 -0.121093,0.511719 l 1.5,4.501953 -4.671875,-3.115235 C 13.193369,17.104182 13.096684,17.076195 13,17.076195 Z" style="opacity: 1; fill: #000000; fill-opacity: 1; stroke: none; stroke-width: 1px; stroke-linecap: butt; stroke-linejoin: round; stroke-miterlimit: 4; stroke-dasharray: none; stroke-dashoffset: 0; stroke-opacity: 1;" />
</svg>