<svg width="26" height="26" viewBox="0 0 26 26" xmlns="http://www.w3.org/2000/svg">
<path d="m 17.951472,17.952018 c -2.361956,2.361815 -6.063464,2.72636 -8.8408296,0.870693 C 6.3332764,16.967046 5.2535865,13.407998 6.5318675,10.322139 7.8101486,7.2362798 11.090381,5.4830633 14.366508,6.1346863 c 3.276128,0.6516232 5.6357,3.5266003 5.633507,6.8660067 -0.0022,3.000428 -4.001678,3.000428 -4.001678,-7.06e-4 V 8.9984746 m 0,4.0015124 a 2.999612,3.001134 0 0 1 -2.999612,3.001134 2.999612,3.001134 0 0 1 -2.9996112,-3.001134 2.999612,3.001134 0 0 1 2.9996112,-3.0011344 2.999612,3.001134 0 0 1 2.999612,3.0011344 z" style="fill: none; stroke: #000000; stroke-width: 2; stroke-linecap: butt; stroke-linejoin: miter; stroke-miterlimit: 4; stroke-dasharray: none; stroke-opacity: 1;" />
</svg>