<svg width="26" height="26" viewBox="0 0 26 26" xmlns="http://www.w3.org/2000/svg">
<path d="M 6.7093041,17.151983 A 8.5000001,8.5000001 0 0 1 4.4999998,11.435591 8.5000001,8.5000001 0 0 1 6.6027599,5.8386877 M 19.397756,5.839278 A 8.5000001,8.5000001 0 0 1 21.5,11.435591 8.5000001,8.5000001 0 0 1 19.28872,17.154156 M 8.6802439,15.43164 A 5.8846154,5.8846154 0 0 1 7.1153858,11.435592 5.8846154,5.8846154 0 0 1 8.5720944,7.5597251 m 8.8566686,9.769e-4 a 5.8846154,5.8846154 0 0 1 1.455853,3.87489 5.8846154,5.8846154 0 0 1 -1.564147,3.995278 M 10.648462,13.706745 A 3.2692308,3.2692308 0 0 1 9.7307702,11.435592 3.2692308,3.2692308 0 0 1 10.538581,9.284016 m 4.921718,-0.0012 a 3.2692308,3.2692308 0 0 1 0.808932,2.152859 v 0 a 3.2692308,3.2692308 0 0 1 -0.918462,2.271952" style="opacity: 1; fill: none; fill-opacity: 1; stroke: #000000; stroke-width: 1; stroke-linecap: butt; stroke-linejoin: miter; stroke-miterlimit: 4; stroke-dasharray: none; stroke-dashoffset: 2.79999995; stroke-opacity: 1;" />
<path d="m 13.000001,10 a 1.5,1.5 0 0 0 -1.5,1.5 1.5,1.5 0 0 0 1.5,1.5 1.5,1.5 0 0 0 1.5,-1.5 1.5,1.5 0 0 0 -1.5,-1.5 z m 0,4.5 -3,7.5 h 6 z" style="opacity: 1; fill: #000000; fill-opacity: 1; stroke: none; stroke-width: 1.25; stroke-linecap: butt; stroke-linejoin: miter; stroke-miterlimit: 4; stroke-dasharray: none; stroke-dashoffset: 2.79999995; stroke-opacity: 1;" />
</svg>