<svg width="26" height="26" viewBox="0 0 26 26" xmlns="http://www.w3.org/2000/svg">
<path d="m 9.1152348,6.007811 a 8.0000001,8.0000001 0 0 0 -4.115234,6.992187 h 5.0000002 a 3,3 0 0 1 1.544922,-2.619141 z m 7.7656252,0.0078 -2.423828,4.363281 a 3,3 0 0 1 1.542969,2.621096 h 5 A 8.0000001,8.0000001 0 0 0 16.88086,6.015613 Z m -2.425781,9.603516 a 3,3 0 0 1 -1.455078,0.380861 3,3 0 0 1 -1.457031,-0.378906 l -2.4238282,4.363281 a 8.0000001,8.0000001 0 0 0 3.8808592,1.015625 8.0000001,8.0000001 0 0 0 3.884766,-1.007812 z" style="opacity: 1; fill: #000000; fill-opacity: 1; stroke: none; stroke-width: 1.99999964; stroke-linecap: butt; stroke-linejoin: miter; stroke-miterlimit: 4; stroke-dasharray: none; stroke-dashoffset: 2.79999995; stroke-opacity: 1;" />
<path d="m 15.000001,12.999998 a 2,2 0 0 1 -2,2 2,2 0 0 1 -2,-2 2,2 0 0 1 2,-2 2,2 0 0 1 2,2 z" style="opacity: 1; fill: #000000; fill-opacity: 1; stroke: none; stroke-width: 1.99999976; stroke-linecap: butt; stroke-linejoin: miter; stroke-miterlimit: 4; stroke-dasharray: none; stroke-dashoffset: 2.79999995; stroke-opacity: 1;" />
<circle cx="13" cy="13" r="9.5" style="opacity: 1; fill: none; fill-opacity: 1; stroke: #000000; stroke-width: 1; stroke-linecap: butt; stroke-linejoin: miter; stroke-miterlimit: 4; stroke-dasharray: none; stroke-dashoffset: 2.79999995; stroke-opacity: 1;" />
</svg>