<svg width="26" height="26" viewBox="0 0 26 26" xmlns="http://www.w3.org/2000/svg">
<path d="m 12.265547,2.761719 c -1.50332,0.02017 -3.0859371,0.464924 -3.9609376,1.980469 l -1,1.732421 4.3300786,2.5 1.498047,-2.597656 c 1.657429,-2.870752 2.867187,-2.964844 2.867187,-2.964844 0,0 -1.801535,-0.676318 -3.734375,-0.65039 z M 16.67961,4.03125 C 15.513842,4.0531 14.19266,5.460427 13.5175,7.041016 l 1.25,2.166015 -2.597656,1.5 7.261719,1.580078 2.263671,-7.080078 -2.597656,1.5 -1,-1.732422 C 17.706953,4.298027 17.209504,4.02132 16.67961,4.03125 Z M 8.9686719,8.589844 1.705,10.169922 l 2.5996094,1.5 -1,1.732422 c -1.25,2.165063 1.5980273,3.232632 4.0800781,2.933594 l 1.25,-2.166016 2.5976565,1.5 z m 13.1289061,3.3125 -4.330078,2.5 1.5,2.597656 c 1.657429,2.870752 1.134766,3.964844 1.134766,3.964844 0,0 4.695312,-3.865976 2.695312,-7.330078 z M 15.999922,14 l -5,5.5 5,5.5 v -3 h 2 c 2.5,0 2,-3 0.5,-5 h -2.5 z M 2.9999219,16 c 0,0 0.9999996,6 5,6 h 2 v -5 h -3 c -3.3148586,0 -4,-1 -4,-1 z" style="fill: #000000; fill-opacity: 1; stroke: none; stroke-width: 1px; stroke-linecap: butt; stroke-linejoin: miter; stroke-opacity: 1;" />
</svg>