<svg width="26" height="26" viewBox="0 0 26 26" xmlns="http://www.w3.org/2000/svg">
<path d="M 13.318359,2.500018 A 4.5,4.5027058 0 0 1 17.5,6.990998 a 4.5,4.5027058 0 0 1 -1.392578,3.25 4.5,4.5027058 0 0 1 -0.08203,0.0723 4.5,4.5027058 0 0 1 -0.248047,0.214974 4.5,4.5027058 0 0 1 -0.0098,0.0078 4.5,4.5027058 0 0 1 -0.339844,0.240379 4.5,4.5027058 0 0 1 -0.01367,0.0078 A 4.5,4.5027058 0 0 1 13.5,11.460481 v 0.621467 a 1.5,1.5009019 0 0 1 1,1.412958 1.5,1.5009019 0 0 1 -0.06836,0.449489 l 0.472656,0.353728 a 4.5,4.5027058 0 0 1 1.615234,-1.334786 4.5,4.5027058 0 0 1 0.285157,-0.128984 4.5,4.5027058 0 0 1 0.115234,-0.04495 4.5,4.5027058 0 0 1 0.349609,-0.115303 4.5,4.5027058 0 0 1 0.09766,-0.02736 4.5,4.5027058 0 0 1 0.04883,-0.01368 4.5,4.5027058 0 0 1 1.08398,-0.138755 4.5,4.5027058 0 0 1 4.490234,4.301413 5.5,5.5033072 0 0 0 0.0098,-0.299008 5.5,5.5033072 0 0 0 -5.398438,-5.497444 5.5,5.5033072 0 0 0 0.898438,-3.007667 5.5,5.5033072 0 0 0 -5.181641,-5.491581 z M 12.625,2.507818 A 5.5,5.5033072 0 0 0 7.5,7.991582 5.5,5.5033072 0 0 0 8.394531,10.997294 5.5,5.5033072 0 0 0 3,16.496693 a 5.5,5.5033072 0 0 0 0.0098,0.213019 4.5,4.5027058 0 0 1 4.490234,-4.215424 4.5,4.5027058 0 0 1 1.146484,0.156344 4.5,4.5027058 0 0 1 0.300782,0.08989 4.5,4.5027058 0 0 1 0.173828,0.06449 4.5,4.5027058 0 0 1 0.21289,0.08794 4.5,4.5027058 0 0 1 1.761719,1.40514 l 0.474609,-0.355682 a 1.5,1.5009019 0 0 1 -0.07035,-0.447521 1.5,1.5009019 0 0 1 1,-1.412958 v -0.619513 a 4.5,4.5027058 0 0 1 -1.855469,-0.644919 4.5,4.5027058 0 0 1 -0.289062,-0.189567 4.5,4.5027058 0 0 1 -0.117188,-0.09381 4.5,4.5027058 0 0 1 -0.21875,-0.175888 4.5,4.5027058 0 0 1 -1.519531,-3.367257 4.5,4.5027058 0 0 1 4.125,-4.483163 z M 13,8.992184 a 4.5,4.5027058 0 0 0 -2.298828,0.637101 3.5,3.5021046 0 0 0 1.005859,0.61365 A 3.5,3.5021046 0 0 1 13,9.992785 3.5,3.5021046 0 0 1 14.292969,10.242935 3.5,3.5021046 0 0 0 15.296875,9.629285 4.5,4.5027058 0 0 0 13,8.992184 Z m -4.492187,4.651233 a 4.5,4.5027058 0 0 0 2.451171,3.863649 3.5,3.5021046 0 0 0 0.04102,-0.510072 3.5,3.5021046 0 0 0 -0.07031,-0.682051 3.5,3.5021046 0 0 1 -1.359375,-2.138003 3.5,3.5021046 0 0 0 -1.0625,-0.533523 z m 8.986328,0.002 a 3.5,3.5021046 0 0 0 -1.0625,0.531569 3.5,3.5021046 0 0 1 -1.363282,2.138003 3.5,3.5021046 0 0 0 -0.06836,0.682004 3.5,3.5021046 0 0 0 0.03906,0.506163 4.5,4.5027058 0 0 0 2.455079,-3.857786 z m -5.324219,1.098316 -0.564453,0.424083 a 4.5,4.5027058 0 0 1 0.388672,1.680697 3.5,3.5021046 0 0 1 -0.002,0 4.5,4.5027058 0 0 1 0.0079,0.14848 4.5,4.5027058 0 0 1 -0.08789,0.861846 4.5,4.5027058 0 0 0 0.002,0 A 4.5,4.5027058 0 0 1 7.5,21.4997 4.5,4.5027058 0 0 1 5.009766,20.743386 5.5,5.5033072 0 0 0 8.5,22 5.5,5.5033072 0 0 0 13.001953,19.652887 5.5,5.5033072 0 0 0 17.5,22 5.5,5.5033072 0 0 0 20.998047,20.741432 4.5,4.5027058 0 0 1 18.5,21.4997 a 4.5,4.5027058 0 0 1 -4.423828,-3.689718 4.5,4.5027058 0 0 1 -0.0293,-0.213019 4.5,4.5027058 0 0 1 -0.0293,-0.238424 4.5,4.5027058 0 0 1 -0.01758,-0.361545 4.5,4.5027058 0 0 1 0.392578,-1.831179 l -0.5625,-0.422128 a 1.5,1.5009019 0 0 1 -0.830078,0.252104 1.5,1.5009019 0 0 1 -0.830078,-0.252104 z" style="opacity: 1; fill: #000000; fill-opacity: 1; stroke: none; stroke-width: 1.25; stroke-linecap: butt; stroke-linejoin: miter; stroke-miterlimit: 4; stroke-dasharray: none; stroke-dashoffset: 2.79999995; stroke-opacity: 1;" />
</svg>