<svg width="26" height="26" viewBox="0 0 26 26" xmlns="http://www.w3.org/2000/svg">
<path d="m 20.5,15.5 c 1.656854,0 3,-1.343146 3,-3 0,-1.656854 -1.343146,-3 -3,-3 -0.203487,8.94e-4 -0.406354,0.02249 -0.605469,0.06445 C 19.964189,9.213905 19.999512,8.857402 20,8.5 20,5.462434 17.537566,3 14.5,3 12.48263,3.000473 10.627418,4.105354 9.666016,5.878906 9.326596,5.63365 8.918755,5.501118 8.5,5.5 c -1.104569,0 -2,0.895431 -2,2 -2.209139,0 -4,1.790861 -4,4 0,1.724934 1.091844,3.194854 2.622122,3.756348" style="opacity: 1; fill: none; fill-opacity: 1; stroke: #000000; stroke-width: 1; stroke-linecap: round; stroke-linejoin: round; stroke-miterlimit: 4; stroke-dasharray: none; stroke-dashoffset: 0; stroke-opacity: 1;" />
<path d="M 13 9.5 C 9.4101491 9.5 6.5 12.410149 6.5 16 C 6.5 19.589851 9.4101491 22.5 13 22.5 C 16.589851 22.5 19.5 19.589851 19.5 16 C 19.5 12.410149 16.589851 9.5 13 9.5 z M 12.5 12 L 13.5 12 C 13.777 12 14 12.223 14 12.5 L 14 16.5 C 14 16.777 13.777 17 13.5 17 L 12.5 17 C 12.223 17 12 16.777 12 16.5 L 12 12.5 C 12 12.223 12.223 12 12.5 12 z M 12.5 18 L 13.5 18 C 13.777 18 14 18.223 14 18.5 L 14 19.5 C 14 19.777 13.777 20 13.5 20 L 12.5 20 C 12.223 20 12 19.777 12 19.5 L 12 18.5 C 12 18.223 12.223 18 12.5 18 z " style="opacity: 1; fill: #000000; fill-opacity: 1; stroke: none; stroke-width: 0.99999988; stroke-linecap: round; stroke-linejoin: round; stroke-miterlimit: 4; stroke-dasharray: none; stroke-dashoffset: 0; stroke-opacity: 1;" />
</svg>