<svg width="26" height="26" viewBox="0 0 26 26" xmlns="http://www.w3.org/2000/svg">
<path d="m 9.5,15.5 7,0 m 4,0 c 1.656854,0 3,-1.343146 3,-3 0,-1.656854 -1.343146,-3 -3,-3 -0.203487,8.94e-4 -0.406354,0.02249 -0.605469,0.06445 C 19.964189,9.213905 19.999512,8.857402 20,8.5 20,5.462434 17.537566,3 14.5,3 12.48263,3.000473 10.627418,4.105354 9.666016,5.878906 9.326596,5.63365 8.918755,5.501118 8.5,5.5 c -1.104569,0 -2,0.895431 -2,2 -2.209139,0 -4,1.790861 -4,4 0,1.724934 1.091844,3.194854 2.622122,3.756348" style="opacity: 1; fill: none; fill-opacity: 1; stroke: #000000; stroke-width: 1; stroke-linecap: round; stroke-linejoin: round; stroke-miterlimit: 4; stroke-dasharray: none; stroke-dashoffset: 0; stroke-opacity: 1;" />
<path d="m 8.783203,11.458984 c -0.147167,0.0025 -0.285779,0.06961 -0.378906,0.183594 C 6.906219,13.427918 6.577548,15.922919 7.5625,18.035156 8.547452,20.147394 10.669404,22 13,22 l 0,1.5 c 1.74e-4,0.445284 0.538545,0.668271 0.853516,0.353516 l 2.5,-2.5 c 0.195168,-0.19525 0.195168,-0.511784 0,-0.707032 l -2.5,-2.5 C 13.538545,17.83173 13.000174,18.054722 13,18.5 L 13,20 C 11.055652,20 9.290467,19.375459 8.46875,17.613281 7.647033,15.851104 7.920119,13.774613 9.169922,12.285156 9.451269,11.958233 9.214472,11.452343 8.783203,11.458984 Z" style="opacity: 1; fill: #000000; fill-opacity: 1; stroke: none; stroke-width: 0.99999994px; stroke-linecap: round; stroke-linejoin: miter; stroke-miterlimit: 4; stroke-dasharray: none; stroke-dashoffset: 0; stroke-opacity: 1;" />
<path d="m 17.217459,19.542471 c 0.147166,-0.0025 0.285779,-0.06961 0.378906,-0.183594 1.498078,-1.78534 1.826749,-4.280341 0.841797,-6.392578 -0.984953,-2.112238 -3.106904,-3.964844 -5.4375,-3.964844 l 0,-1.5 C 13.000488,7.056171 12.462117,6.833184 12.147146,7.147939 l -2.5,2.5 c -0.195168,0.19525 -0.195168,0.511784 0,0.707032 l 2.5,2.5 c 0.314971,0.314754 0.853342,0.09176 0.853516,-0.353516 l 0,-1.5 c 1.944348,0 3.709533,0.624541 4.53125,2.386719 0.821716,1.762177 0.54863,3.838668 -0.701172,5.328125 -0.281348,0.326923 -0.04455,0.832813 0.386719,0.826172 z" style="opacity: 1; fill: #000000; fill-opacity: 1; stroke: none; stroke-width: 0.99999994px; stroke-linecap: round; stroke-linejoin: miter; stroke-miterlimit: 4; stroke-dasharray: none; stroke-dashoffset: 0; stroke-opacity: 1;" />
</svg>