<svg width="26" height="26" viewBox="0 0 26 26" xmlns="http://www.w3.org/2000/svg">
<path d="m 20.5,15.5 c 1.656854,0 3,-1.343146 3,-3 0,-1.656854 -1.343146,-3 -3,-3 -0.203487,8.94e-4 -0.406354,0.02249 -0.605469,0.06445 C 19.964189,9.213905 19.999512,8.857402 20,8.5 20,5.462434 17.537566,3 14.5,3 12.48263,3.000473 10.627418,4.105354 9.666016,5.878906 9.326596,5.63365 8.918755,5.501118 8.5,5.5 c -1.104569,0 -2,0.895431 -2,2 -2.209139,0 -4,1.790861 -4,4 0,1.724934 1.091844,3.194854 2.622122,3.756348" style="opacity: 1; fill: none; fill-opacity: 1; stroke: #000000; stroke-width: 1; stroke-linecap: round; stroke-linejoin: round; stroke-miterlimit: 4; stroke-dasharray: none; stroke-dashoffset: 0; stroke-opacity: 1;" />
<path d="m 13,9.5 c -3.5898509,0 -6.5,2.910149 -6.5,6.5 0,3.589851 2.9101491,6.5 6.5,6.5 3.589851,0 6.5,-2.910149 6.5,-6.5 0,-3.589851 -2.910149,-6.5 -6.5,-6.5 z m 2.642578,3.246094 c 0.132784,0.0041 0.269253,0.06027 0.367188,0.158203 l 0.707031,0.708984 c 0.195869,0.195869 0.195869,0.511163 0,0.707031 l -4.277344,4.777344 c -0.195869,0.195869 -0.511162,0.195869 -0.707031,0 L 9.2832031,16.648438 c -0.195869,-0.195869 -0.195869,-0.511163 0,-0.707032 l 0.7070313,-0.707031 c 0.1958686,-0.195869 0.5111626,-0.195869 0.7070316,0 l 1.388672,1.388672 3.216796,-3.71875 c 0.07804,-0.114421 0.207061,-0.162325 0.339844,-0.158203 z" style="opacity: 1; fill: #000000; fill-opacity: 1; stroke: none; stroke-width: 0.99999988; stroke-linecap: round; stroke-linejoin: round; stroke-miterlimit: 4; stroke-dasharray: none; stroke-dashoffset: 0; stroke-opacity: 1;" />
</svg>