<svg width="26" height="26" viewBox="0 0 26 26" xmlns="http://www.w3.org/2000/svg">
<path d="M 8.5 7 C 7.1236486 7 6 8.1236486 6 9.5 L 6 13.5 A 0.50005 0.50005 0 0 0 6.1464844 13.853516 L 13.146484 20.853516 A 0.50005 0.50005 0 0 0 13.853516 20.853516 L 19.853516 14.853516 A 0.50005 0.50005 0 0 0 19.853516 14.146484 L 12.853516 7.1464844 A 0.50005 0.50005 0 0 0 12.5 7 L 8.5 7 z M 9.5 9 A 1.5 1.5 0 0 1 11 10.5 A 1.5 1.5 0 0 1 9.5 12 A 1.5 1.5 0 0 1 8 10.5 A 1.5 1.5 0 0 1 9.5 9 z " style="opacity: 1; fill: #000000; fill-opacity: 1; stroke: none; stroke-width: 1px; stroke-linecap: round; stroke-linejoin: round; stroke-miterlimit: 4; stroke-dasharray: none; stroke-dashoffset: 0; stroke-opacity: 1;" />
<path d="m 20.5,12.5 -7,-7 H 9" style="fill: none; stroke: #000000; stroke-width: 1px; stroke-linecap: round; stroke-linejoin: round; stroke-opacity: 1;" />
</svg>