<svg width="26" height="26" viewBox="0 0 26 26" xmlns="http://www.w3.org/2000/svg">
<path d="M 11,9.5 A 1.5,1.5 0 0 1 9.5,11 1.5,1.5 0 0 1 8,9.5 1.5,1.5 0 0 1 9.5,8 1.5,1.5 0 0 1 11,9.5 Z M 8.5,6 C 7.1236486,6 6,7.1236486 6,8.5 l 0,4 a 0.50005,0.50005 0 0 0 0.1464844,0.353516 l 6.9999996,7 a 0.50005,0.50005 0 0 0 0.707032,0 l 6,-6 a 0.50005,0.50005 0 0 0 0,-0.707032 l -7,-6.9999996 A 0.50005,0.50005 0 0 0 12.5,6 l -4,0 z" style="opacity: 1; fill: #000000; fill-opacity: 1; stroke: none; stroke-width: 1; stroke-linecap: round; stroke-linejoin: round; stroke-miterlimit: 4; stroke-dasharray: none; stroke-dashoffset: 0; stroke-opacity: 1;" />
</svg>