<svg width="26" height="26" viewBox="0 0 26 26" xmlns="http://www.w3.org/2000/svg">
<path d="m 4,21 h 18 m -8,-4 h 8 m -8,-4 h 8 M 14,9 h 8 M 4,5 h 18" style="fill: none; stroke: #000000; stroke-width: 2; stroke-linecap: butt; stroke-linejoin: miter; stroke-miterlimit: 4; stroke-dasharray: none; stroke-opacity: 1;" />
<path d="m 9.505707,9.000059 c 0.272891,0.0043 0.49186,0.226856 0.49185,0.499924 v 2.499771 l 2.495661,0.499924 c 0.67571,-0.0096 0.67571,1.009409 0,0.999848 L 9.997556,13.99945 v 2.499771 c -1.7e-4,0.445251 -0.538149,0.668193 -0.85294,0.353462 L 4.646287,13.353064 c -0.19505,-0.195235 -0.19505,-0.511689 0,-0.706924 l 4.49833,-3.499619 c 0.0956,-0.0957 0.22588,-0.148534 0.36109,-0.146462 z" style="opacity: 1; fill: #000000; fill-opacity: 1; stroke: none; stroke-width: 1px; stroke-linecap: butt; stroke-linejoin: round; stroke-miterlimit: 4; stroke-dasharray: none; stroke-dashoffset: 0; stroke-opacity: 1;" />
</svg>