<svg width="26" height="26" viewBox="0 0 26 26" xmlns="http://www.w3.org/2000/svg">
<path d="M 13 2.5 C 11.615 2.5 10.5 3.615 10.5 5 L 10.5 15.261719 A 4.5 4.5 0 0 0 8.5 19 A 4.5 4.5 0 0 0 13 23.5 A 4.5 4.5 0 0 0 17.5 19 A 4.5 4.5 0 0 0 15.5 15.259766 L 15.5 5 C 15.5 3.615 14.385 2.5 13 2.5 z " style="opacity: 1; fill: none; fill-opacity: 1; stroke: #000000; stroke-width: 1; stroke-linecap: square; stroke-linejoin: miter; stroke-miterlimit: 4; stroke-dasharray: none; stroke-dashoffset: 0; stroke-opacity: 1;" />
<path d="M 12 5 L 12 6 L 14 6 L 14 5 L 12 5 z M 12 7 L 12 8 L 14 8 L 14 7 L 12 7 z M 12 9 L 12 10 L 14 10 L 14 9 L 12 9 z M 12 11 L 12 12 L 14 12 L 14 11 L 12 11 z M 12 13 L 12 14 L 14 14 L 14 13 L 12 13 z M 12 15 L 12 16.173828 A 3 3 0 0 0 10 19 A 3 3 0 0 0 13 22 A 3 3 0 0 0 16 19 A 3 3 0 0 0 14 16.175781 L 14 15 L 12 15 z " style="opacity: 1; fill: #000000; fill-opacity: 1; stroke: none; stroke-width: 1; stroke-linecap: square; stroke-linejoin: miter; stroke-miterlimit: 4; stroke-dasharray: none; stroke-dashoffset: 0; stroke-opacity: 1;" />
</svg>