<svg width="26" height="26" viewBox="0 0 26 26" xmlns="http://www.w3.org/2000/svg">
<path d="M 13 2.5 C 11.615 2.5 10.5 3.615 10.5 5 L 10.5 15.261719 A 4.5 4.5 0 0 0 8.5 19 A 4.5 4.5 0 0 0 13 23.5 A 4.5 4.5 0 0 0 17.5 19 A 4.5 4.5 0 0 0 15.5 15.259766 L 15.5 5 C 15.5 3.615 14.385 2.5 13 2.5 z " style="opacity: 1; fill: none; fill-opacity: 1; stroke: #000000; stroke-width: 1; stroke-linecap: square; stroke-linejoin: miter; stroke-miterlimit: 4; stroke-dasharray: none; stroke-dashoffset: 0; stroke-opacity: 1;" />
<path d="m 12,5 0,1 2,0 0,-1 z m 0,2 0,1 2,0 0,-1 z m 0,2 0,7.173828 C 10.802141,16.597335 10.000955,17.729479 10,19 c 0,1.656854 1.343146,3 3,3 1.656854,0 3,-1.343146 3,-3 -0.0018,-1.269804 -0.802815,-2.400952 -2,-2.824219 L 14,9 Z" style="opacity: 1; fill: #000000; fill-opacity: 1; stroke: none; stroke-width: 1; stroke-linecap: square; stroke-linejoin: miter; stroke-miterlimit: 4; stroke-dasharray: none; stroke-dashoffset: 0; stroke-opacity: 1;" />
</svg>