<svg width="26" height="26" viewBox="0 0 26 26" xmlns="http://www.w3.org/2000/svg">
<path d="M 13.5,23 C 13,21 14,21 11,18 10,17 10,14 8,13 L 8,6 c 0,0 3,-1 6,-1 3,0 4,0 5,1 1,1 2,4 2,8 0,1 -1,1.5 -2,1.5 L 14.5,16 c 0.469217,0.938434 1.03342,2.537721 1.271484,3.970703 C 16.040785,21.591707 15.357741,23 13.5,23 Z m -9,-9 C 4.223,14 4,13.777 4,13.5 l 0,-8 C 4,5.223 4.223,5 4.5,5 l 2,0 C 6.777,5 7,5.223 7,5.5 l 0,8 C 7,13.777 6.777,14 6.5,14 l -2,0 z" style="fill: #000000; fill-opacity: 1; stroke: none; stroke-width: 1px; stroke-linecap: butt; stroke-linejoin: miter; stroke-opacity: 1;" />
</svg>