<svg width="26" height="26" viewBox="0 0 26 26" xmlns="http://www.w3.org/2000/svg">
<path d="M 13.5 3 C 13 5 14 5 11 8 C 10 9 10 12 8 13 L 8 20 C 8 20 11 21 14 21 C 17 21 18 21 19 20 C 20 19 21 16 21 12 C 21 11 20 10.5 19 10.5 L 14.5 10 C 14.969217 9.0615662 15.53342 7.4622785 15.771484 6.0292969 C 16.040785 4.4082931 15.357741 3 13.5 3 z M 4.5 12 C 4.223 12 4 12.223 4 12.5 L 4 20.5 C 4 20.777 4.223 21 4.5 21 L 6.5 21 C 6.777 21 7 20.777 7 20.5 L 7 12.5 C 7 12.223 6.777 12 6.5 12 L 4.5 12 z " style="fill: #000000; fill-opacity: 1; stroke: none; stroke-width: 1px; stroke-linecap: butt; stroke-linejoin: miter; stroke-opacity: 1;" />
</svg>