<svg width="26" height="26" viewBox="0 0 26 26" xmlns="http://www.w3.org/2000/svg">
<path d="m 14.50002,13.500001 a 2,2 0 0 1 -2,2 2,2 0 0 1 -2,-2 2,2 0 0 1 2,-2 2,2 0 0 1 2,2 z m -9.0000407,-2 -2,2 2,2 m 1.9999996,-2 H 4.4999793 m 15.0000407,-2 2,2 -2,2 m -2,-2 h 3 M 10.5,20.500021 l 2,2 2,-2 m -2,-2 v 3 m -2,-15.0000413 2,-2 2,2 m -2,2 v -3" style="opacity: 1; fill: none; fill-opacity: 1; stroke: #000000; stroke-width: 1.25; stroke-linecap: round; stroke-linejoin: round; stroke-miterlimit: 4; stroke-dasharray: none; stroke-dashoffset: 0; stroke-opacity: 1;" />
</svg>