<svg width="26" height="26" viewBox="0 0 26 26" xmlns="http://www.w3.org/2000/svg">
<path d="M 19.000001,13.5 H 4.0000007" style="fill: none; stroke: #000000; stroke-width: 1; stroke-linecap: butt; stroke-linejoin: miter; stroke-miterlimit: 4; stroke-dasharray: 1, 1; stroke-dashoffset: 0; stroke-opacity: 1;" />
<path d="m 12.5,10.5 c -1.104569,0 -2,-0.8954303 -2,-1.9999998 0,-1.1045695 0.895431,-2 2,-2 1.104569,0 2,0.8954305 2,2 C 14.5,9.6045697 13.604569,10.5 12.5,10.5 Z" style="opacity: 0.5; fill: none; fill-opacity: 1; stroke: #000000; stroke-width: 1.25; stroke-linecap: round; stroke-linejoin: round; stroke-miterlimit: 4; stroke-dasharray: none; stroke-dashoffset: 0; stroke-opacity: 1;" />
<path d="m 20.50005,19.49995 h -3 v -3 m 0.84313,2.156851 c 0,0 3.121321,-2.027189 3.121321,-4.12132 l 0.03555,-2.03553 c 0,-2.6875008 -3,-4.0000008 -3,-4.0000008" style="fill: none; stroke: #000000; stroke-width: 1.25; stroke-linecap: round; stroke-linejoin: round; stroke-miterlimit: 4; stroke-dasharray: none; stroke-opacity: 1;" />
<path d="m 12.5,20.5 c -1.104569,0 -2,-0.89543 -2,-2 0,-1.104569 0.895431,-2 2,-2 1.104569,0 2,0.895431 2,2 0,1.10457 -0.895431,2 -2,2 z" style="opacity: 1; fill: none; fill-opacity: 1; stroke: #000000; stroke-width: 1.25; stroke-linecap: round; stroke-linejoin: round; stroke-miterlimit: 4; stroke-dasharray: none; stroke-dashoffset: 0; stroke-opacity: 1;" />
</svg>