<svg width="26" height="26" viewBox="0 0 26 26" xmlns="http://www.w3.org/2000/svg">
<path d="m 12.499981,15.50002 c -1.104569,0 -2,-0.895431 -2,-2 0,-1.104569 0.895431,-2 2,-2 1.104569,0 2,0.895431 2,2 0,1.104569 -0.895431,2 -2,2 z m 2,-8.00004 -2,-2 -2,2 m 2,2 v -3 m 2,13.00004 -2,2 -2,-2 m 2,-2 v 3" style="opacity: 1; fill: none; fill-opacity: 1; stroke: #000000; stroke-width: 1.25; stroke-linecap: round; stroke-linejoin: round; stroke-miterlimit: 4; stroke-dasharray: none; stroke-dashoffset: 0.62500006; stroke-opacity: 1;" />
<path d="m 7.5,-16.5 h 12 c 2.216,0 4,1.784 4,4 0,2.216 -1.784,4 -4,4 h -12 c -2.216,0 -4,-1.784 -4,-4 0,-2.216 1.784,-4 4,-4 z" transform="rotate(90)" style="opacity: 1; fill: none; fill-opacity: 1; stroke: #000000; stroke-width: 1.25; stroke-linecap: butt; stroke-linejoin: round; stroke-miterlimit: 4; stroke-dasharray: 1.25, 1.25; stroke-dashoffset: 0; stroke-opacity: 1;" />
</svg>