<svg width="26" height="26" viewBox="0 0 26 26" xmlns="http://www.w3.org/2000/svg">
<path d="M 17.531985,20.962942 C 16.031226,21.954303 14.11233,22.487585 12.5,22.5 c -4.970563,0 -9,-4.029437 -9,-9 C 3.53837,11.540787 4.132421,9.98989 5.037058,8.4680144 M 7.468014,6.0370586 C 8.968774,5.0456961 10.887669,4.5124152 12.5,4.4999999 c 4.970563,0 9,4.0294373 9,9.0000001 -0.03837,1.959212 -0.632422,3.51011 -1.537059,5.031985" style="opacity: 1; fill: none; fill-opacity: 1; stroke: #000000; stroke-width: 1.25; stroke-linecap: butt; stroke-linejoin: round; stroke-miterlimit: 4; stroke-dasharray: 1.25,1.25; stroke-dashoffset: 0; stroke-opacity: 1;" />
<path d="M 9.464431,7.6360225 H 6.636004 V 10.46445 m 2.828427,0 -2.12132,-2.1213207 m 11.020844,8.1924167 v 2.828428 h -2.828427 m 0,-2.828428 2.12132,2.121321 M 14.5,13.499998 a 2,2 0 0 1 -2,2 2,2 0 0 1 -2,-2 2,2 0 0 1 2,-2 2,2 0 0 1 2,2 z" style="fill: none; stroke: #000000; stroke-width: 1.25; stroke-linecap: round; stroke-linejoin: round; stroke-miterlimit: 4; stroke-dasharray: none; stroke-opacity: 1;" />
</svg>