<svg width="26" height="26" viewBox="0 0 26 26" xmlns="http://www.w3.org/2000/svg">
<path d="m 17.642885,7.3755714 a 8,7.9976909 0 0 1 1.750732,10.1857216 8,7.9976909 0 0 1 -9.7599766,3.407352 8,7.9976909 0 0 1 -4.972454,-9.06097 8,7.9976909 0 0 1 8.1185926,-6.3983359 m 1.720804,7.9928169 a 2,1.9994227 0 0 1 -2,1.999423 2,1.9994227 0 0 1 -2,-1.999423 2,1.9994227 0 0 1 2,-1.999423 2,1.9994227 0 0 1 2,1.999423 z m -2.5,-9.9971131 2,1.9994223 -2,1.9994227" style="opacity: 1; fill: none; fill-opacity: 1; stroke: #000000; stroke-width: 1.25; stroke-linecap: round; stroke-linejoin: round; stroke-miterlimit: 4; stroke-dasharray: none; stroke-dashoffset: 0; stroke-opacity: 1;" />
</svg>