<svg width="26" height="26" viewBox="0 0 26 26" xmlns="http://www.w3.org/2000/svg">
<path d="m 14.5,13.5 c 0,1.104569 -0.895431,2 -2,2 -1.104569,0 -2,-0.895431 -2,-2 0,-1.104569 0.895431,-2 2,-2 1.104569,0 2,0.895431 2,2 z m -8.00004,-2 -2,2 2,2 m 2.0000003,-2 H 5.49996 m 13.00004,-2 2,2 -2,2 m -2,-2 h 3" style="opacity: 1; fill: none; fill-opacity: 1; stroke: #000000; stroke-width: 1.25; stroke-linecap: round; stroke-linejoin: round; stroke-miterlimit: 4; stroke-dasharray: none; stroke-dashoffset: 0.62500006; stroke-opacity: 1;" />
<path d="m 6.5,9.5 h 12 c 2.216,0 4,1.784 4,4 0,2.216 -1.784,4 -4,4 h -12 c -2.216,0 -4,-1.784 -4,-4 0,-2.216 1.784,-4 4,-4 z" style="opacity: 1; fill: none; fill-opacity: 1; stroke: #000000; stroke-width: 1.25; stroke-linecap: butt; stroke-linejoin: round; stroke-miterlimit: 4; stroke-dasharray: 1.25, 1.25; stroke-dashoffset: 0; stroke-opacity: 1;" />
</svg>