<svg width="26" height="26" viewBox="0 0 26 26" xmlns="http://www.w3.org/2000/svg">
<path d="M 21.44531,3.8206524 C 20.71875,3.8440924 19.5,4.5003394 18,6.0003394 l -2,2 h -3 l 1,-1 -1.5,-1.5 -2.5,2.5 H 3 v 1 l 9,2.9999996 c -1,1 -3,3.5 -3,3.5 l -4,0.5 -1,1 3.5,0.5 -1,1.5 0.5,0.5 1.5,-1 0.5,3.5 1,-1 0.5,-4 c 0,0 2.5,-2 3.5,-3 l 3,9 h 1 v -7 l 2.5,-2.499999 -1.5,-1.500001 -1,1 v -3 l 2,-1.9999996 c 2.5,-2.5 2.65625,-4.21875 1.44531,-4.179687 z" style="fill: #000000; fill-opacity: 1; stroke: none; stroke-width: 1px; stroke-linecap: butt; stroke-linejoin: miter; stroke-opacity: 1;" />
</svg>