<svg width="26" height="26" viewBox="0 0 26 26" xmlns="http://www.w3.org/2000/svg">
<path d="M 13.500001,6.9999995 V 22" style="fill: none; stroke: #000000; stroke-width: 1; stroke-linecap: butt; stroke-linejoin: miter; stroke-miterlimit: 4; stroke-dasharray: 1, 1; stroke-dashoffset: 0; stroke-opacity: 1;" />
<path d="m 10.5,13.5 c 0,1.104569 -0.8954305,2 -2,2 -1.1045695,0 -2,-0.895431 -2,-2 0,-1.104569 0.8954305,-2 2,-2 1.1045695,0 2,0.895431 2,2 z" style="opacity: 0.5; fill: none; fill-opacity: 1; stroke: #000000; stroke-width: 1.25; stroke-linecap: round; stroke-linejoin: round; stroke-miterlimit: 4; stroke-dasharray: none; stroke-dashoffset: 0; stroke-opacity: 1;" />
<path d="m 19.5,5.5 v 3 h -3 m 2.156851,-0.84313 c 0,0 -2.027189,-3.1213203 -4.12132,-3.1213203 l -2.03553,-0.03555 C 9.8125,4.4999997 8.5,7.4999998 8.5,7.4999998" style="fill: none; stroke: #000000; stroke-width: 1.25; stroke-linecap: round; stroke-linejoin: round; stroke-miterlimit: 4; stroke-dasharray: none; stroke-opacity: 1;" />
<path d="m 20.500001,13.5 c 0,1.104569 -0.89543,2 -2,2 -1.104569,0 -2,-0.895431 -2,-2 0,-1.104569 0.895431,-2 2,-2 1.10457,0 2,0.895431 2,2 z" style="opacity: 1; fill: none; fill-opacity: 1; stroke: #000000; stroke-width: 1.25; stroke-linecap: round; stroke-linejoin: round; stroke-miterlimit: 4; stroke-dasharray: none; stroke-dashoffset: 0; stroke-opacity: 1;" />
</svg>