<svg width="26" height="26" viewBox="0 0 26 26" xmlns="http://www.w3.org/2000/svg">
<path d="m 5.5,15 3,-3.5 h 8" style="fill: none; stroke: #000000; stroke-width: 1px; stroke-linecap: round; stroke-linejoin: round; stroke-opacity: 1;" />
<path d="m 17.87891,8.6718751 c -0.12781,0 -0.25559,0.048504 -0.35352,0.1464844 l -0.70703,0.7070312 c -0.19587,0.19587 -0.19587,0.5111613 0,0.7070313 L 18.58594,12 16.81836,13.767578 c -0.19587,0.19587 -0.19587,0.511171 0,0.707031 l 0.70703,0.707032 c 0.19586,0.19587 0.51116,0.19587 0.70703,0 L 20,13.414062 l 1.76758,1.767579 c 0.19587,0.19587 0.51117,0.19587 0.70703,0 l 0.70703,-0.707032 c 0.19587,-0.19586 0.19587,-0.511161 0,-0.707031 L 21.41406,12 23.18164,10.232422 c 0.19587,-0.19587 0.19587,-0.5111713 0,-0.7070313 L 22.47461,8.8183595 c -0.19587,-0.19587 -0.51116,-0.19587 -0.70703,0 L 20,10.585938 18.23242,8.8183595 c -0.0979,-0.0979 -0.22571,-0.1464944 -0.35351,-0.1464844 z M 5,15 v 4 c 0,0.554 0.446,1 1,1 h 14 c 0.554,0 1,-0.446 1,-1 V 15.828125 L 20.17187,15 h -0.34375 l -0.88867,0.888672 c -0.57529,0.57529 -1.5458,0.575319 -2.12109,0 L 16.21484,15.285156 14.5,17 h -3 l -2,-2 z" style="fill: #000000; fill-opacity: 1; stroke: none; stroke-width: 1px; stroke-linecap: butt; stroke-linejoin: miter; stroke-opacity: 1;" />
</svg>