<svg width="26" height="26" viewBox="0 0 26 26" xmlns="http://www.w3.org/2000/svg">
<path d="m 5.5,15 3,-3.5 h 5" style="fill: none; stroke: #000000; stroke-width: 1px; stroke-linecap: round; stroke-linejoin: round; stroke-opacity: 1;" />
<path d="M 17.882812 7.5 C 16.303454 7.5 15 8.7636424 15 10.324219 C 15 11.104595 15.327595 11.816908 15.849609 12.326172 A 0.50005 0.50005 0 0 0 15.857422 12.333984 L 19.660156 15.867188 A 0.50005 0.50005 0 0 0 20.339844 15.867188 L 24.142578 12.333984 A 0.50005 0.50005 0 0 0 24.150391 12.326172 C 24.672423 11.816915 25 11.1046 25 10.324219 C 25 8.7636398 23.696538 7.5 22.117188 7.5 C 21.469114 7.5 20.930359 7.8432305 20.511719 8.2460938 C 20.287568 8.4617973 20.166662 8.7041898 20 8.9433594 C 19.833338 8.7041898 19.712432 8.4617973 19.488281 8.2460938 C 19.069641 7.8432305 18.530886 7.5 17.882812 7.5 z M 5 15 L 5 19 C 5 19.554 5.446 20 6 20 L 20 20 C 20.554 20 21 19.554 21 19 L 21 16.617188 A 1.50015 1.50015 0 0 1 18.978516 16.599609 L 17.257812 15 L 16.5 15 L 14.5 17 L 11.5 17 L 9.5 15 L 5 15 z " style="opacity: 1; fill: #000000; fill-opacity: 1; stroke: none; stroke-width: 1px; stroke-linecap: round; stroke-linejoin: round; stroke-miterlimit: 4; stroke-dasharray: none; stroke-dashoffset: 0; stroke-opacity: 1;" />
</svg>