<svg width="26" height="26" viewBox="0 0 26 26" xmlns="http://www.w3.org/2000/svg">
<path d="m 5.5,15 3,-3.5 h 4" style="fill: none; stroke: #000000; stroke-width: 1px; stroke-linecap: round; stroke-linejoin: round; stroke-opacity: 1;" />
<path d="M 19.976562 6 A 0.50005 0.50005 0 0 0 19.542969 6.296875 L 17.966797 9.8417969 L 14.445312 10.234375 A 0.50005 0.50005 0 0 0 14.173828 11.111328 L 16.888672 13.4375 L 15.712891 17.355469 A 0.50005 0.50005 0 0 0 16.46875 17.916016 L 20 15.5625 L 23.53125 17.916016 A 0.50005 0.50005 0 0 0 24.28125 17.341797 L 23.111328 13.828125 L 25.853516 11.083984 A 0.50005 0.50005 0 0 0 25.554688 10.234375 L 22.033203 9.8417969 L 20.457031 6.296875 A 0.50005 0.50005 0 0 0 19.976562 6 z M 5 15 L 5 19 C 5 19.554 5.446 20 6 20 L 20 20 C 20.554 20 21 19.554 21 19 L 21 17.429688 L 20 16.763672 L 17.023438 18.748047 A 1.50015 1.50015 0 0 1 14.755859 17.068359 L 14.894531 16.605469 L 14.5 17 L 11.5 17 L 9.5 15 L 5 15 z " style="opacity: 1; fill: #000000; fill-opacity: 1; stroke: none; stroke-width: 1px; stroke-linecap: round; stroke-linejoin: round; stroke-miterlimit: 4; stroke-dasharray: none; stroke-dashoffset: 0; stroke-opacity: 1;" />
</svg>