<svg width="26" height="26" viewBox="0 0 26 26" xmlns="http://www.w3.org/2000/svg">
<path d="m 5.5,15 3,-3.5 h 4 m 3.69226,6.00006 1.26924,-4.23082 -2.96157,-2.53849 3.80774,-0.42308 1.69232,-3.80774 1.69233,3.80774 3.80774,0.42308 -2.96157,2.96157 1.26924,3.80774 -3.80774,-2.53849 z" style="fill: none; stroke: #000000; stroke-width: 1px; stroke-linecap: round; stroke-linejoin: round; stroke-opacity: 1;" />
<path d="m 5,15 v 4 c 0,0.554 0.446,1 1,1 h 14 c 0.554,0 1,-0.446 1,-1 v -1.570312 l -1,-0.666016 -2.97656,1.984375 A 1.50015,1.50015 0 0 1 14.75586,17.068359 L 14.89453,16.605469 14.5,17 h -3 l -2,-2 z" style="fill: #000000; fill-opacity: 1; stroke: none; stroke-width: 1px; stroke-linecap: butt; stroke-linejoin: miter; stroke-opacity: 1;" />
</svg>