<svg width="26" height="26" viewBox="0 0 26 26" xmlns="http://www.w3.org/2000/svg">
<path d="m 13,4.5 c -0.12792,0 -0.2559,0.048959 -0.35352,0.1464844 l -2.5,2.4980468 C 9.83175,7.4593213 10.05478,7.9978769 10.5,7.9980469 H 12 l 0.5,6.4960941 c -0.01,0.675711 1.01,0.675711 1,0 L 14,7.9980469 h 1.5 c 0.27307,1.1e-5 0.496,-0.2192975 0.5,-0.4921875 0.002,-0.13521 -0.0508,-0.2657281 -0.14648,-0.3613282 l -2.5,-2.4980468 C 13.2559,4.5489594 13.12792,4.5 13,4.5 Z M 5,15 v 4 c 0,0.554 0.446,1 1,1 h 14 c 0.554,0 1,-0.446 1,-1 v -4 h -4.5 l -2,2 h -3 l -2,-2 z" style="opacity: 1; fill: #000000; fill-opacity: 1; stroke: none; stroke-width: 1px; stroke-linecap: butt; stroke-linejoin: round; stroke-miterlimit: 4; stroke-dasharray: none; stroke-dashoffset: 0; stroke-opacity: 1;" />
<path d="m 5.5,15 3,-3.5 h 2.25 m 4.5,0 h 2.25 l 3,3.5" style="fill: none; stroke: #000000; stroke-width: 1px; stroke-linecap: round; stroke-linejoin: round; stroke-opacity: 1;" />
</svg>