<svg width="26" height="26" viewBox="0 0 26 26" xmlns="http://www.w3.org/2000/svg">
<path d="m 5.5,15 3,-3.5 h 5 M 17.88235,8 C 16.56661,8 15.5,9.04056 15.5,10.32415 c 0,0.64179 0.26683,1.22265 0.69795,1.64324 L 20,15.50002 23.80205,11.96739 C 24.23316,11.54681 24.5,10.96594 24.5,10.32415 24.5,9.04056 23.43338,8 22.11765,8 21.18892,8 20.39298,9.02369 20,9.7801 19.60702,9.02369 18.81108,8 17.88235,8 Z" style="fill: none; stroke: #000000; stroke-width: 1px; stroke-linecap: round; stroke-linejoin: round; stroke-opacity: 1;" />
<path d="m 5,15 v 4 c 0,0.554 0.446,1 1,1 h 14 c 0.554,0 1,-0.446 1,-1 v -2.382812 a 1.50015,1.50015 0 0 1 -2.02148,-0.01758 L 17.25781,15 H 16.5 l -2,2 h -3 l -2,-2 z" style="fill: #000000; fill-opacity: 1; stroke: none; stroke-width: 1px; stroke-linecap: butt; stroke-linejoin: miter; stroke-opacity: 1;" />
</svg>