<svg width="26" height="26" viewBox="0 0 26 26" xmlns="http://www.w3.org/2000/svg">
<path d="m 22.64258,8.746094 c -0.13279,-0.004 -0.26181,0.04379 -0.33985,0.158203 l -3.21679,3.71875 -1.38867,-1.388672 c -0.19587,-0.19585 -0.51117,-0.19587 -0.70704,0 l -0.70703,0.707031 c -0.19587,0.19586 -0.19587,0.511161 0,0.707032 l 2.44922,2.449218 c 0.19587,0.19586 0.51116,0.19586 0.70703,0 l 4.27735,-4.777344 c 0.19587,-0.195869 0.19587,-0.511161 0,-0.707031 L 23.00977,8.904297 C 22.91187,8.806397 22.77536,8.750094 22.64258,8.746094 Z M 5,15 v 4 c 0,0.554 0.446,1 1,1 h 14 c 0.554,0 1,-0.446 1,-1 v -4 h -0.13086 l -0.68555,0.765625 a 1.0001,1.0001 0 0 1 -0.0371,0.03906 c -0.57528,0.575257 -1.5458,0.575257 -2.12109,0 L 17.2207,15 H 16.5 l -2,2 h -3 l -2,-2 z" style="opacity: 1; fill: #000000; fill-opacity: 1; stroke: none; stroke-width: 1px; stroke-linecap: butt; stroke-linejoin: round; stroke-miterlimit: 4; stroke-dasharray: none; stroke-dashoffset: 0; stroke-opacity: 1;" />
<path d="m 5.5,15 3,-3.5 H 15" style="fill: none; stroke: #000000; stroke-width: 1px; stroke-linecap: round; stroke-linejoin: round; stroke-opacity: 1;" />
</svg>