<svg width="26" height="26" viewBox="0 0 26 26" xmlns="http://www.w3.org/2000/svg">
<path d="m 17.933594,4 c -0.13631,-7e-5 -0.266468,0.0545 -0.361328,0.152344 -0.1916,0.1973 -0.188971,0.512461 0.0059,0.707031 L 18.646525,5.927734 14.16215,11.125 c -0.4886,0.47435 0.238241,1.201181 0.712891,0.712891 l 5.197266,-4.484375 1.068359,1.068359 c 0.31738,0.31714 0.859335,0.09314 0.859375,-0.355469 v -3.5625 C 21.99987,4.225816 21.774174,4.00013 21.496094,4 Z M 19.5,10 C 19.223,10 19,10.223 19,10.5 v 11 c 0,0.277 0.223,0.5 0.5,0.5 h 2 c 0.277,0 0.5,-0.223 0.5,-0.5 v -11 C 22,10.223 21.777,10 21.5,10 Z m -14,4 C 4.6715729,14 4,14.671573 4,15.5 4,16.328427 4.6715729,17 5.5,17 6.3284271,17 7,16.328427 7,15.5 7,14.671573 6.3284271,14 5.5,14 Z m 4,-1 C 9.223,13 9,13.223 9,13.5 v 8 C 9,21.777 9.223,22 9.5,22 h 2 c 0.277,0 0.5,-0.223 0.5,-0.5 v -8 C 12,13.223 11.777,13 11.5,13 Z m 5,1 C 14.223,14 14,14.223 14,14.5 v 7 c 0,0.277 0.223,0.5 0.5,0.5 h 2 c 0.277,0 0.5,-0.223 0.5,-0.5 v -7 C 17,14.223 16.777,14 16.5,14 Z m -10,4 C 4.223,18 4,18.223 4,18.5 v 3 C 4,21.777 4.223,22 4.5,22 h 2 C 6.777,22 7,21.777 7,21.5 v -3 C 7,18.223 6.777,18 6.5,18 Z" style="opacity: 1; fill: #000000; fill-opacity: 1; stroke: none; stroke-width: 1px; stroke-linecap: butt; stroke-linejoin: round; stroke-miterlimit: 4; stroke-dasharray: none; stroke-dashoffset: 0; stroke-opacity: 1;" />
<path d="m 14.5,11.5 -3,-3 -6,7" style="fill: none; stroke: #000000; stroke-width: 1px; stroke-linecap: round; stroke-linejoin: round; stroke-opacity: 1;" />
</svg>