<svg width="26" height="26" viewBox="0 0 26 26" xmlns="http://www.w3.org/2000/svg">
<path d="m 5.5,3.9999996 a 1.5,1.5 0 0 0 -1.5,1.5 1.5,1.5 0 0 0 1.5,1.5 1.5,1.5 0 0 0 1.5,-1.5 1.5,1.5 0 0 0 -1.5,-1.5 z m 8.994141,4 c -0.381632,0.02053 -0.698482,0.519238 -0.332032,0.875 l 4.484375,5.1972664 -1.068359,1.068359 c -0.19483,0.19457 -0.197459,0.509731 -0.0059,0.707031 0.09486,0.09784 0.225018,0.152414 0.361328,0.152344 h 3.5625 C 21.774174,15.99987 21.99987,15.774184 22,15.496094 v -3.5625 c -4e-5,-0.44861 -0.541995,-0.672609 -0.859375,-0.355469 L 20.072266,12.646484 14.875,8.1621086 c -0.118662,-0.122072 -0.253649,-0.168953 -0.380859,-0.162109 z m -9.994141,1 c -0.277,0 -0.5,0.223 -0.5,0.5 V 21.5 C 4,21.777 4.223,22 4.5,22 h 2 C 6.777,22 7,21.777 7,21.5 V 9.4999996 c 0,-0.277 -0.223,-0.5 -0.5,-0.5 z M 14.5,12 C 14.223,12 14,12.223 14,12.5 v 9 c 0,0.277 0.223,0.5 0.5,0.5 h 2 c 0.277,0 0.5,-0.223 0.5,-0.5 v -4.833984 c -0.04933,-0.03941 -0.100135,-0.07726 -0.144531,-0.123047 -0.565324,-0.582148 -0.557472,-1.537048 0.01563,-2.109375 L 17,14.304688 V 13.693359 L 15.539062,12 Z m -5,1.099609 c -0.277,0 -0.5,0.223 -0.5,0.5 V 21.5 C 9,21.777 9.223,22 9.5,22 h 2 c 0.277,0 0.5,-0.223 0.5,-0.5 v -7.900391 c 0,-0.277 -0.223,-0.5 -0.5,-0.5 z M 19.5,17 C 19.223,17 19,17.223 19,17.5 v 4 c 0,0.277 0.223,0.5 0.5,0.5 h 2 c 0.277,0 0.5,-0.223 0.5,-0.5 v -4 C 22,17.223 21.777,17 21.5,17 Z" style="opacity: 1; fill: #000000; fill-opacity: 1; stroke: none; stroke-width: 1; stroke-linecap: round; stroke-linejoin: round; stroke-miterlimit: 4; stroke-dasharray: none; stroke-dashoffset: 0; stroke-opacity: 1;" />
<path d="m 14.5,8.5050706 -3,3.0000004 -6,-6.0000004" style="fill: none; stroke: #000000; stroke-width: 1px; stroke-linecap: round; stroke-linejoin: round; stroke-opacity: 1;" />
</svg>