<svg width="26" height="26" viewBox="0 0 26 26" xmlns="http://www.w3.org/2000/svg">
<path d="m 15.5,11 -5,2 -5,-1.5" style="fill: none; stroke: #000000; stroke-width: 1px; stroke-linecap: round; stroke-linejoin: round; stroke-opacity: 1;" />
<path d="m 18.494141,7.9999998 c -0.272891,0.004 -0.492198,0.22693 -0.492188,0.5 v 1.5 L 15.505859,10.5 c -0.67572,-0.01 -0.67572,1.00956 0,1 l 2.496094,0.5 v 1.5 c 1.082396,1.193288 2.776894,-1.250343 3.851563,-2.146484 0.19505,-0.19523 0.19505,-0.511802 0,-0.707032 L 18.855469,8.1464842 c -0.0956,-0.0957 -0.226118,-0.1485544 -0.361328,-0.1464844 z m -12.994141,2 C 4.6715728,9.9999998 3.9999999,10.671573 4,11.5 4,12.328427 4.6715729,13 5.5,13 6.3284271,13 7,12.328427 7,11.5 7.0000001,10.671573 6.3284272,9.9999998 5.5,9.9999998 Z M 4.5,14 C 4.223,14 4,14.223 4,14.5 v 7 C 4,21.777 4.223,22 4.5,22 h 2 C 6.777,22 7,21.777 7,21.5 v -7 C 7,14.223 6.777,14 6.5,14 Z m 10,-1 C 14.223,13 14,13.223 14,13.5 v 8 c 0,0.277 0.223,0.5 0.5,0.5 h 2 c 0.277,0 0.5,-0.223 0.5,-0.5 v -8 C 17,13.223 16.777,13 16.5,13 Z M 19,14.90625 V 21.5 c 0,0.277 0.223,0.5 0.5,0.5 h 2 c 0.277,0 0.5,-0.223 0.5,-0.5 v -7 C 22,14.223 21.777,14 21.5,14 H 20.257813 Z M 9.5,15 C 9.223,15 9,15.223 9,15.5 v 6 C 9,21.777 9.223,22 9.5,22 h 2 c 0.277,0 0.5,-0.223 0.5,-0.5 v -6 C 12,15.223 11.777,15 11.5,15 Z" style="opacity: 1; fill: #000000; fill-opacity: 1; stroke: none; stroke-width: 1; stroke-linecap: round; stroke-linejoin: round; stroke-miterlimit: 4; stroke-dasharray: none; stroke-dashoffset: 0; stroke-opacity: 1;" />
</svg>