<svg width="26" height="26" viewBox="0 0 26 26" xmlns="http://www.w3.org/2000/svg">
<path d="m 10.412109,6.0065327 c -0.09476,0.016402 -0.186882,0.059983 -0.265625,0.1386719 L 5.6464844,9.645205 C 5.5507864,9.740855 5.4979282,9.871242 5.5,10.006533 c 0.0021,0.129878 0.054618,0.253877 0.1464844,0.345703 l 4.4999996,3.5 C 10.461455,14.16699 10.999826,13.943999 11,13.49872 l 0,-2.001953 c 4.876188,0 7.030818,0.772308 8.070312,2.505859 1.039495,1.733551 0.928641,4.456774 0.928641,4.456774 -0.07907,0.732655 0.988624,0.697188 0.996094,0.0332 0,0 0.140325,-2.991641 -1.067313,-5.005602 C 18.720095,11.473035 16.12589,8.500673 11,8.500673 L 11,6.4987202 C 10.99987,6.1647572 10.696393,5.9573258 10.412109,6.0065327 Z" style="opacity: 1; fill: #000000; fill-opacity: 1; stroke: none; stroke-width: 0.99999994px; stroke-linecap: round; stroke-linejoin: miter; stroke-miterlimit: 4; stroke-dasharray: none; stroke-dashoffset: 0; stroke-opacity: 1;" />
</svg>