<svg width="26" height="26" viewBox="0 0 26 26" xmlns="http://www.w3.org/2000/svg">
<path d="m 15.5,15.5 5,0 c 1.656854,0 3,-1.34315 3,-3 0,-1.65685 -1.343146,-3 -3,-3 -0.203487,8.9e-4 -0.406354,0.0225 -0.605469,0.0644 C 19.964189,9.2139 19.999512,8.8574 20,8.5 20,5.462434 17.537566,3 14.5,3 12.48263,3.000473 10.627418,4.105354 9.666016,5.878906 9.326595,5.63365 8.918755,5.501118 8.5,5.5 c -1.10457,0 -2,0.89543 -2,2 -2.209139,0 -4,1.79086 -4,4 0,2.20914 1.790861,4 4,4 l 4,0" style="opacity: 1; fill: none; fill-opacity: 1; stroke: #000000; stroke-width: 1; stroke-linecap: round; stroke-linejoin: round; stroke-miterlimit: 4; stroke-dasharray: none; stroke-dashoffset: 0; stroke-opacity: 1;" />
<path d="m 9.544253,12.50571 c 0.0043,0.27289 0.226856,0.49186 0.499924,0.49185 l 1.999771,0 0.499924,8.49566 c -0.0096,0.67571 1.009409,0.67571 0.999848,0 l 0.499924,-8.49566 1.999771,0 c 0.445251,-1.7e-4 0.668193,-0.53815 0.353462,-0.85294 L 13.397258,8.64629 c -0.195235,-0.19505 -0.511689,-0.19505 -0.706924,0 l -2.999619,3.49833 c -0.0957,0.0956 -0.148534,0.22588 -0.146462,0.36109 z" style="opacity: 1; fill: #000000; fill-opacity: 1; stroke: none; stroke-width: 1px; stroke-linecap: butt; stroke-linejoin: round; stroke-miterlimit: 4; stroke-dasharray: none; stroke-dashoffset: 0; stroke-opacity: 1;" />
</svg>