<svg width="26" height="26" viewBox="0 0 26 26" xmlns="http://www.w3.org/2000/svg">
<path d="m 3.5,4.9999998 a 0.50005,0.50005 0 0 0 -0.5,0.5 V 19.5 A 0.50005,0.50005 0 0 0 3.5,20 h 19 A 0.50005,0.50005 0 0 0 23,19.5 V 5.4999998 a 0.50005,0.50005 0 0 0 -0.5,-0.5 z m 1,1 h 2 c 0.277,0 0.5,0.223 0.5,0.5 v 2 C 7,8.7769999 6.777,8.9999999 6.5,8.9999999 h -2 c -0.277,0 -0.5,-0.223 -0.5,-0.5000001 v -2 c 0,-0.277 0.223,-0.5 0.5,-0.5 z m 3.5,0 H 18 V 19 H 8 Z m 11.5,0 h 2 c 0.277,0 0.5,0.223 0.5,0.5 v 2 c 0,0.2770001 -0.223,0.5000001 -0.5,0.5000001 h -2 c -0.277,0 -0.5,-0.223 -0.5,-0.5000001 v -2 c 0,-0.277 0.223,-0.5 0.5,-0.5 z m -8.019531,3.0000001 c -0.268475,0.010521 -0.480648,0.231319 -0.480469,0.5 V 15.5 c 4.18e-4,0.415642 0.478288,0.64937 0.806641,0.394531 l 4,-3 c 0.257082,-0.200201 0.257082,-0.588861 0,-0.789062 l -4,-3.0000003 C 11.713741,9.0329795 11.598224,8.9956271 11.480469,8.9999999 Z M 4.5,11 h 2 C 6.777,11 7,11.223 7,11.5 v 2 C 7,13.777 6.777,14 6.5,14 h -2 C 4.223,14 4,13.777 4,13.5 v -2 C 4,11.223 4.223,11 4.5,11 Z m 15,0 h 2 c 0.277,0 0.5,0.223 0.5,0.5 v 2 c 0,0.277 -0.223,0.5 -0.5,0.5 h -2 C 19.223,14 19,13.777 19,13.5 v -2 C 19,11.223 19.223,11 19.5,11 Z m -15,5 h 2 C 6.777,16 7,16.223 7,16.5 v 2 C 7,18.777 6.777,19 6.5,19 h -2 C 4.223,19 4,18.777 4,18.5 v -2 C 4,16.223 4.223,16 4.5,16 Z m 15,0 h 2 c 0.277,0 0.5,0.223 0.5,0.5 v 2 c 0,0.277 -0.223,0.5 -0.5,0.5 h -2 C 19.223,19 19,18.777 19,18.5 v -2 C 19,16.223 19.223,16 19.5,16 Z" style="opacity: 1; fill: #000000; fill-opacity: 1; stroke: none; stroke-width: 1; stroke-linecap: butt; stroke-linejoin: round; stroke-miterlimit: 4; stroke-dasharray: none; stroke-dashoffset: 0.5; stroke-opacity: 1;" />
</svg>