<svg width="26" height="26" viewBox="0 0 26 26" xmlns="http://www.w3.org/2000/svg">
<path d="m 13,5 c -1.645175,0 -3,1.3549904 -3,3 0,0.351851 0.07393,0.6851061 0.1875,1 H 8 C 7.5586224,9.0004576 7.1697237,9.2901475 7.0429688,9.7128906 l -3,10.0000004 C 3.8508699,20.354049 4.3306216,20.999266 5,21 h 16 c 0.669378,-7.34e-4 1.14913,-0.645951 0.957031,-1.287109 l -3,-10.0000004 C 18.830276,9.2901475 18.441377,9.0004577 18,9 H 15.8125 C 15.92607,8.6851061 16,8.351851 16,8 16,6.3549904 14.645174,5 13,5 Z m 0,2 c 0.564185,0 1,0.4358706 1,1 0,0.5641294 -0.435815,1 -1,1 -0.564186,0 -1,-0.4358706 -1,-1 0,-0.5641294 0.435814,-1 1,-1 z m -4,5 h 1 v 2.792969 L 11.792969,13 h 1.414062 L 11.142578,15.064453 13.101562,18 H 11.898438 L 10.421875,15.785156 10,16.207031 V 18 H 9 Z m 6.898438,0.912109 C 16.25,12.935059 16.625,13.039062 17,13.21875 V 13 h 1 v 4.5 c 0,1.5 -0.5,2 -2,2 -1.5,0 -2,-0.5 -2,-2 h 1 c 0,1 0.5,1 1,1 0.5,0 1,0 1,-1 V 16.78125 C 15.5,17.5 14,17 14,15 c 0,-1.5 0.84375,-2.156738 1.898438,-2.087891 z m 0.0293,1.007813 C 15.390625,13.945919 15,14.375 15,15 c 0,1 1,1.5 2,0.646484 v -1.292968 c -0.375,-0.320069 -0.750004,-0.449192 -1.072266,-0.433594 z" style="opacity: 1; fill: #000000; fill-opacity: 1; stroke: none; stroke-width: 2; stroke-linecap: butt; stroke-linejoin: round; stroke-miterlimit: 4; stroke-dasharray: none; stroke-dashoffset: 0; stroke-opacity: 1;" />
</svg>