<svg width="26" height="26" viewBox="0 0 26 26" xmlns="http://www.w3.org/2000/svg">
<path d="m 13,5 c -1.645175,0 -3,1.354991 -3,3 0,0.351851 0.07393,0.685106 0.1875,1 H 8 C 7.5586224,9.0004576 7.1697237,9.2901475 7.0429688,9.7128906 l -3,10.0000004 C 3.8508699,20.354049 4.3306216,20.999266 5,21 h 16 c 0.669378,-7.34e-4 1.14913,-0.645951 0.957031,-1.287109 l -3,-10.0000004 C 18.830276,9.2901475 18.441377,9.0004577 18,9 H 15.8125 C 15.92607,8.685106 16,8.351851 16,8 16,6.354991 14.645174,5 13,5 Z m 0,2 c 0.564185,0 1,0.435871 1,1 0,0.56413 -0.435815,1 -1,1 -0.564186,0 -1,-0.43587 -1,-1 0,-0.564129 0.435814,-1 1,-1 z m -5,5 h 1 v 6 H 8 Z m 2,0 h 1 v 2.398438 c 1.322895,-0.86841 3.5,-0.691052 3.5,1.601562 0,2.292614 -2.177105,2.469967 -3.5,1.601562 V 18 h -1 z m 7,1 c 1.090909,0 2,0.556496 2,1.482422 h -0.908203 c 0,-0.37037 -0.546343,-0.556641 -1.091797,-0.556641 -0.363636,0 -1.091797,0.0011 -1.091797,0.556641 0,0.555554 0.546342,0.646484 1.091797,0.646484 1.090909,0 2,0.462746 2,1.388672 C 19,17.443504 18.272727,18 17,18 15.909091,18 15,17.443504 15,16.517578 h 0.908203 c 0,0.555541 0.728161,0.556641 1.091797,0.556641 0.545454,0 1.091797,-0.18627 1.091797,-0.556641 0,-0.37037 -0.546343,-0.646484 -1.091797,-0.646484 -1.272727,0 -2,-0.277561 -2,-1.388672 C 15,13.556496 15.909091,13 17,13 Z m -4.677734,1.953125 C 11.918189,14.985827 11.452825,15.209799 11,15.707031 v 0.585938 C 12,17.5 13.5,17.5 13.5,16 c 0,-0.625 -0.504274,-1.101375 -1.177734,-1.046875 z" style="opacity: 1; fill: #000000; fill-opacity: 1; stroke: none; stroke-width: 2; stroke-linecap: butt; stroke-linejoin: round; stroke-miterlimit: 4; stroke-dasharray: none; stroke-dashoffset: 0; stroke-opacity: 1;" />
</svg>