<svg width="26" height="26" viewBox="0 0 26 26" xmlns="http://www.w3.org/2000/svg">
<path d="m 13,4.9999998 c -1.645175,0 -3.0003009,1.3549904 -3.0003009,3 0,0.351851 0.07395,0.6851061 0.1875189,1 H 7.9994991 A 1.0002001,1.0001 0 0 0 7.0423721,9.71289 l -3.0003,10.000001 A 1.0002001,1.0001 0 0 0 4.9991991,21 H 21.0008 a 1.0002001,1.0001 0 0 0 0.957127,-1.287109 L 18.957627,9.71289 A 1.0002001,1.0001 0 0 0 18.0005,8.9999998 h -2.187719 c 0.11357,-0.3148939 0.187519,-0.648149 0.187519,-1 0,-1.6450096 -1.355126,-3 -3.0003,-3 z m 0,2 c 0.564185,0 1.0001,0.4358706 1.0001,1 0,0.5641294 -0.435915,1 -1.0001,1 -0.564186,0 -1.000101,-0.4358706 -1.000101,-1 0,-0.5641294 0.435915,-1 1.000101,-1 z" style="opacity: 1; fill: #000000; fill-opacity: 1; stroke: none; stroke-width: 2; stroke-linecap: butt; stroke-linejoin: round; stroke-miterlimit: 4; stroke-dasharray: none; stroke-dashoffset: 0; stroke-opacity: 1;" />
</svg>