<svg width="26" height="26" viewBox="0 0 26 26" xmlns="http://www.w3.org/2000/svg">
<circle cx="13" cy="13.5" r="8.5" style="opacity: 1; fill: none; fill-opacity: 1; stroke: #000000; stroke-width: 2; stroke-linecap: round; stroke-linejoin: round; stroke-miterlimit: 4; stroke-dasharray: none; stroke-dashoffset: 0; stroke-opacity: 1;" />
<path d="m 8.2812501,6.7695309 c -0.707198,0.05222 -1.949605,1.917084 -2.261719,2.791016 -0.381266,0.8711081 0.241889,1.7224361 0.574219,2.4980471 0.249726,0.656087 0.187829,1.385302 0.96875,1.748047 0.80115,0.445074 1.472521,1.159388 2.394531,1.326171 0.6500799,0.3239 -0.0898,1.299571 -0.335937,1.855469 0.218355,1.440439 0.4630479,1.060824 -0.40625,3.535157 1.0755919,-0.924304 2.1566539,-0.258041 3.1718749,-1.34375 0.157996,-0.584601 0.343873,-0.670292 0.570312,-1.216797 0.212215,-0.613009 0.147504,-1.385818 0.03711,-2.042969 -0.646503,-1.069035 -1.253907,-1.332031 -1.253907,-1.332031 -0.653653,-0.61635 -1.13107,-0.237008 -1.9140619,-0.267579 -0.873694,0.06371 -1.07494,-1.442671 -0.460938,-2.02539 0.475821,-0.741244 1.2270229,-0.751372 1.9042969,-1.251953 0.560019,-0.527065 0.309628,-1.7224481 -0.492187,-1.8691411 -0.701145,0.196351 -1.2682859,0.433397 -1.8789069,-0.304687 -0.615609,-0.614488 -0.190714,-1.137071 -0.230468,-1.8125 -0.08797,-0.215332 -0.22352,-0.299161 -0.386719,-0.28711 z m 9.4746089,0.585938 c -0.827489,0.03363 -1.591934,1.387279 -2.476562,2.185547 -0.53251,0.6021741 -1.034398,1.3065261 0.794922,2.2031251 -0.156838,0.736482 -1.485616,1.179637 -1.777344,1.814453 0.230498,0.740083 0.08568,1.47657 1.003906,1.623047 -0.06319,-0.06058 1.41744,-1.626455 2.146485,-1.101563 1.002774,0.72197 -1.456066,1.652466 -1.611328,1.447266 -0.102722,0.743115 0.150356,1.793681 0.484374,2.490234 0.30705,0.580906 0.94614,1.219364 0.587891,1.919922 1.641136,-0.32073 3.698746,-2.109626 3.376953,-3.884766 -0.420227,0.171369 -1.939196,0.394627 -2.226562,-0.18164 -0.04425,-1.195724 -0.103919,-0.723931 0.693359,-1.550782 0.539424,-0.266269 1.88536,-0.08705 2.189453,-0.626953 0.61205,-2.431675 -1.173382,-4.3388651 -2.826172,-6.2656251 -0.12134,-0.05448 -0.241162,-0.07707 -0.359375,-0.07226 z" style="fill: #000000; fill-opacity: 1; stroke: none; stroke-width: 0.99999994px; stroke-linecap: butt; stroke-linejoin: miter; stroke-opacity: 1;" />
</svg>