<svg width="26" height="26" viewBox="0 0 26 26" xmlns="http://www.w3.org/2000/svg">
<path d="m 18,3 c -2.761425,-2.7e-6 -5.000003,2.2385752 -5,5 0.0019,0.6182875 0.118449,1.230861 0.34375,1.806641 L 3.7324219,18.732422 C 3.2800107,19.184833 2.9999986,19.809643 3,20.5 c 2.8e-6,1.380713 1.119287,2.499997 2.5,2.5 0.6903565,1e-6 1.3151669,-0.28001 1.7675781,-0.732422 L 16.189453,12.660156 C 16.766711,12.884597 17.380645,12.999834 18,13 c 2.761425,3e-6 5.000003,-2.238575 5,-5 C 22.999056,7.3507775 22.871685,6.7079526 22.625,6.1074219 L 19.025391,9.707031 c -0.391737,0.391738 -1.024279,0.391737 -1.416016,0 L 16.292969,8.390625 c -0.391737,-0.3917371 -0.391737,-1.0242785 0,-1.4160156 L 19.892578,3.375 C 19.292047,3.1283148 18.649222,3.0009439 18,3 Z M 5.5,19 c 0.8284283,-3e-6 1.5000028,0.671572 1.5,1.5 2.8e-6,0.828428 -0.6715717,1.500003 -1.5,1.5 -0.8284283,3e-6 -1.5000028,-0.671572 -1.5,-1.5 -2.8e-6,-0.828428 0.6715717,-1.500003 1.5,-1.5 z" style="opacity: 1; fill: #000000; fill-opacity: 1; stroke: #1e4177; stroke-width: 0; stroke-linecap: round; stroke-linejoin: round; stroke-miterlimit: 4; stroke-dasharray: none; stroke-dashoffset: 0; stroke-opacity: 1;" />
</svg>