<svg width="26" height="26" viewBox="0 0 26 26" xmlns="http://www.w3.org/2000/svg">
<path d="M 13 3 A 10 10 0 0 0 3 13 A 10 10 0 0 0 13 23 A 10 10 0 0 0 23 13 A 10 10 0 0 0 13 3 z M 8.9648438 7.7578125 C 9.0926527 7.7578125 9.2204252 7.8063625 9.3183594 7.9042969 L 13 11.585938 L 16.681641 7.9042969 C 16.877509 7.7084286 17.192803 7.7084281 17.388672 7.9042969 L 18.095703 8.6113281 C 18.291572 8.8071969 18.291572 9.1224906 18.095703 9.3183594 L 14.414062 13 L 18.095703 16.681641 C 18.291572 16.87751 18.291572 17.192803 18.095703 17.388672 L 17.388672 18.095703 C 17.192803 18.291572 16.87751 18.291572 16.681641 18.095703 L 13 14.414062 L 9.3183594 18.095703 C 9.1224911 18.291571 8.8071971 18.291572 8.6113281 18.095703 L 7.9042969 17.388672 C 7.7084279 17.192803 7.7084286 16.877509 7.9042969 16.681641 L 11.585938 13 L 7.9042969 9.3183594 C 7.7084281 9.1224906 7.7084281 8.8071969 7.9042969 8.6113281 L 8.6113281 7.9042969 C 8.7092623 7.8063627 8.8370336 7.7578125 8.9648438 7.7578125 z " style="opacity: 1; fill: #000000; fill-opacity: 1; stroke: none; stroke-width: 1px; stroke-linecap: butt; stroke-linejoin: miter; stroke-miterlimit: 4; stroke-dasharray: none; stroke-dashoffset: 0; stroke-opacity: 1;" />
</svg>