<svg width="26" height="26" viewBox="0 0 26 26" xmlns="http://www.w3.org/2000/svg">
<path d="m 6.4648438,5.2578125 c 0.127809,0 0.2555813,0.04855 0.3535156,0.1464844 L 13,11.585938 19.181641,5.4042969 c 0.195868,-0.1958682 0.511162,-0.1958689 0.707031,0 l 0.707031,0.7070312 c 0.195869,0.1958689 0.195869,0.5111624 0,0.7070313 L 14.414062,13 l 6.181641,6.181641 c 0.195869,0.195869 0.195869,0.511162 0,0.707031 l -0.707031,0.707031 c -0.195869,0.195869 -0.511162,0.195869 -0.707031,0 L 13,14.414062 6.8183594,20.595703 c -0.1958681,0.195868 -0.5111623,0.195869 -0.7070313,0 L 5.4042969,19.888672 c -0.195869,-0.195869 -0.1958682,-0.511163 0,-0.707031 L 11.585938,13 5.4042969,6.8183594 c -0.1958688,-0.1958688 -0.1958688,-0.5111625 0,-0.7070313 L 6.1113281,5.4042969 C 6.2092623,5.3063627 6.3370337,5.2578125 6.4648438,5.2578125 Z" style="opacity: 1; fill: #000000; fill-opacity: 1; stroke: none; stroke-width: 1px; stroke-linecap: butt; stroke-linejoin: miter; stroke-miterlimit: 4; stroke-dasharray: none; stroke-dashoffset: 0; stroke-opacity: 1;" />
</svg>