<svg width="26" height="26" viewBox="0 0 26 26" xmlns="http://www.w3.org/2000/svg">
<path d="M 8.5,4 C 6.0156486,4 4,6.0156486 4,8.5 v 9 C 4,19.984351 6.0156486,22 8.5,22 h 9 c 2.484351,0 4.5,-2.015649 4.5,-4.5 v -9 C 22,6.0156486 19.984351,4 17.5,4 Z m 0.4648438,3.7578125 c 0.1278089,0 0.2555814,0.04855 0.3535156,0.1464844 L 13,11.585938 16.681641,7.9042969 c 0.195868,-0.1958683 0.511162,-0.1958688 0.707031,0 l 0.707031,0.7070312 c 0.195869,0.1958688 0.195869,0.5111625 0,0.7070313 L 14.414062,13 l 3.681641,3.681641 c 0.195869,0.195869 0.195869,0.511162 0,0.707031 l -0.707031,0.707031 c -0.195869,0.195869 -0.511162,0.195869 -0.707031,0 L 13,14.414062 9.3183594,18.095703 c -0.1958683,0.195868 -0.5111623,0.195869 -0.7070313,0 L 7.9042969,17.388672 c -0.195869,-0.195869 -0.1958683,-0.511163 0,-0.707031 L 11.585938,13 7.9042969,9.3183594 c -0.1958688,-0.1958688 -0.1958688,-0.5111625 0,-0.7070313 L 8.6113281,7.9042969 C 8.7092623,7.8063627 8.8370336,7.7578125 8.9648438,7.7578125 Z" style="opacity: 1; fill: #000000; fill-opacity: 1; stroke: none; stroke-width: 1; stroke-linecap: butt; stroke-linejoin: miter; stroke-miterlimit: 4; stroke-dasharray: none; stroke-dashoffset: 0; stroke-opacity: 1;" />
</svg>