<svg width="26" height="26" viewBox="0 0 26 26" xmlns="http://www.w3.org/2000/svg">
<path d="m 21.5,5.5517648 c -3.5,0 -8.5,-2 -8.5,-2 0,0 -5,2 -8.5,2 L 4.5,12 c 0,8 8.5,12.5 8.5,12.5 0,0 8.5,-4.5 8.5,-12.5 z" style="fill: none; stroke: #000000; stroke-width: 1px; stroke-linecap: butt; stroke-linejoin: round; stroke-opacity: 1;" />
<path d="M 13 5.5 C 13 5.5 9 7 6 7 L 6 11 C 6 18 9.3644361 19.561977 13 22.5 C 16.635564 19.561977 20 18 20 11 L 20 7 C 17 7 13 5.5 13 5.5 z M 9.9648438 8.7578125 C 10.092653 8.7578125 10.220425 8.8063625 10.318359 8.9042969 L 13 11.585938 L 15.681641 8.9042969 C 15.877509 8.7084287 16.192803 8.708428 16.388672 8.9042969 L 17.095703 9.6113281 C 17.291572 9.807197 17.291572 10.122491 17.095703 10.318359 L 14.414062 13 L 17.095703 15.681641 C 17.291572 15.87751 17.291572 16.192803 17.095703 16.388672 L 16.388672 17.095703 C 16.192803 17.291572 15.87751 17.291572 15.681641 17.095703 L 13 14.414062 L 10.318359 17.095703 C 10.122491 17.291571 9.8071971 17.291572 9.6113281 17.095703 L 8.9042969 16.388672 C 8.7084279 16.192803 8.7084289 15.877509 8.9042969 15.681641 L 11.585938 13 L 8.9042969 10.318359 C 8.708428 10.122491 8.708428 9.807197 8.9042969 9.6113281 L 9.6113281 8.9042969 C 9.7092581 8.8063629 9.8370337 8.7578125 9.9648438 8.7578125 z " style="opacity: 1; fill: #000000; fill-opacity: 1; stroke: none; stroke-width: 1px; stroke-linecap: square; stroke-linejoin: miter; stroke-miterlimit: 4; stroke-dasharray: none; stroke-dashoffset: 0; stroke-opacity: 1;" />
</svg>